<svg viewBox="-6.4 -6.4 76.80 76.80" fill="none" xmlns="http://www.w3.org/2000/svg" transform="matrix(1, 0, 0, 1, 0, 0)rotate(0)">
  <g id="SVGRepo_bgCarrier" stroke-width="0"></g>
  <g id="SVGRepo_tracerCarrier" stroke-linecap="round" stroke-linejoin="round"></g>
  <g id="SVGRepo_iconCarrier">
    <!-- Gear Path (unchanged) -->
    <path d="m47.781 31.608-1.343-.832a18.57 18.57 0 0 0-.038-.391l1.154-1.077a.46.46 0 0 0-.153-.771l-1.476-.552a16.798 16.798 0 0 0-.115-.381l.92-1.279a.462.462 0 0 0-.3-.727l-1.557-.253c-.06-.118-.123-.234-.187-.35l.654-1.435a.46.46 0 0 0-.437-.654l-1.579.055a12.482 12.482 0 0 0-.25-.302l.363-1.539a.461.461 0 0 0-.556-.556l-1.538.362c-.1-.084-.2-.167-.303-.25l.055-1.578a.46.46 0 0 0-.654-.437l-1.435.654a16.712 16.712 0 0 0-.35-.188l-.253-1.556a.462.462 0 0 0-.726-.301l-1.28.92a14.31 14.31 0 0 0-.38-.115l-.552-1.476a.461.461 0 0 0-.771-.154l-1.077 1.156c-.13-.014-.26-.028-.391-.038l-.832-1.344a.462.462 0 0 0-.786 0l-.832 1.344c-.13.01-.261.024-.391.038l-1.077-1.155a.464.464 0 0 0-.771.153l-.552 1.476c-.128.037-.255.076-.38.116l-1.28-.921a.46.46 0 0 0-.727.3l-.254 1.557c-.117.061-.233.124-.35.188l-1.434-.654a.46.46 0 0 0-.654.436l.055 1.58c-.102.082-.203.165-.303.25l-1.538-.363a.464.464 0 0 0-.557.556l.363 1.539c-.085.1-.168.2-.25.302l-1.579-.055a.462.462 0 0 0-.437.654l.654 1.436c-.063.115-.126.231-.187.35l-1.556.252a.462.462 0 0 0-.301.727l.92 1.279c-.04.126-.078.253-.115.38l-1.476.553a.462.462 0 0 0-.153.771l1.155 1.077c-.015.13-.028.26-.039.391l-1.343.832a.462.462 0 0 0 0 .786l1.343.831c.011.131.024.262.039.392l-1.155 1.077a.462.462 0 0 0 .153.771l1.476.552c.037.128.076.255.116.38l-.921 1.28a.462.462 0 0 0 .301.726l1.556.253c.061.118.123.235.188.35l-.655 1.435a.462.462 0 0 0 .437.654l1.579-.055c.082.103.165.203.25.303l-.363 1.539a.46.46 0 0 0 .557.555l1.538-.362c.1.085.201.167.303.249l-.055 1.58a.461.461 0 0 0 .654.436l1.435-.654c.115.064.232.127.35.188l.253 1.555a.461.461 0 0 0 .727.302l1.279-.922c.126.04.253.08.38.116l.552 1.476a.46.46 0 0 0 .771.153l1.078-1.155c.13.015.26.028.391.04l.832 1.343a.463.463 0 0 0 .786 0l.831-1.344c.131-.011.262-.024.392-.039l1.077 1.155a.46.46 0 0 0 .77-.153l.553-1.476c.127-.036.254-.076.38-.116l1.28.922a.463.463 0 0 0 .726-.302l.254-1.556c.117-.06.233-.124.349-.187l1.435.654a.461.461 0 0 0 .654-.437l-.055-1.58c.102-.08.203-.163.303-.248l1.538.362a.46.46 0 0 0 .556-.555l-.362-1.539c.084-.1.167-.2.249-.303l1.58.055a.46.46 0 0 0 .436-.654l-.654-1.435c.064-.115.126-.232.187-.35l1.556-.253a.46.46 0 0 0 .301-.726l-.92-1.28a17.5 17.5 0 0 0 .115-.38l1.476-.552a.46.46 0 0 0 .153-.771l-1.155-1.077c.014-.13.027-.261.039-.392l1.343-.831a.462.462 0 0 0 0-.786zM38.79 42.752a.952" fill="#000000"></path>
    
   
  </g>
</svg>