<?xml version="1.0" encoding="utf-8"?>
<!-- Generator: Adobe Illustrator 25.0.1, SVG Export Plug-In . SVG Version: 6.00 Build 0)  -->
<svg version="1.0" id="Layer_1" xmlns="http://www.w3.org/2000/svg" xmlns:xlink="http://www.w3.org/1999/xlink" x="0px" y="0px"
	 viewBox="0 0 227 155" style="enable-background:new 0 0 227 155;" xml:space="preserve">
<style type="text/css">
	.st0{fill:none;}
</style>
<path d="M28.2,49.8c1.3-1.4,4.4-1.5,5.8-1.3c1.8,0.3,2.4,1.4,2.3,1.8c-0.1,0.4-0.9,1.5-2.5,1.4c-0.1,0.9-0.4,3.6-0.6,4.2
	s-0.8,1.5-1.7,0.8c-0.8-0.7-1.1-1.7-1.1-2.7c0-0.8,0.1-1.6,0.2-2.4c-1.5,0.5-2.4,0.3-2.8-0.2S27.6,50.5,28.2,49.8z M40.2,53.8
	c0.1,0.7,0.2,1.5,0.3,2.2c0.1,0.7,0.6,1.4,1.5,1.2s1.2-1.3,1.5-3.2c0.1-1.7-0.1-3.5-0.7-5.2c-0.3-0.8-0.9-0.6-1.2-0.2
	c-0.4,0.7-0.6,1.5-0.7,2.3c-0.3,0.2-0.7,0.2-1,0.1c0-0.9-0.1-1.7-0.5-2.5c-0.3-0.5-1.6-0.3-1.8,0.2c-0.4,1.1-0.6,2.2-0.7,3.4
	c-0.2,1.5,0,3.1,0.7,4.4c0.5,1.1,1.6,0.5,1.8,0c0.3-0.9,0.4-1.8,0.3-2.7C39.7,53.7,40,53.7,40.2,53.8L40.2,53.8z M44.4,52.4
	c-0.2,1.2-0.1,2.4,0.1,3.5c0.4,0.8,1.2,1.3,2.1,1.4c1.2,0.4,2.6,0.2,3.7-0.5c0.5-0.3,0.6-1,0.3-1.5c-0.1-0.1-0.2-0.3-0.4-0.3
	c-1-0.3-2-0.4-3-0.4c-0.1-0.2-0.1-0.4-0.1-0.7c1.8,0.2,2.4-0.5,2.4-1.1s-0.8-1.2-2-1.3c-0.1-0.3-0.1-0.5-0.1-0.8
	c1,0.1,2,0.1,2.9-0.2c0.8-0.4,0.7-1.2,0-1.6c-1-0.4-2.1-0.6-3.2-0.5c-0.8-0.1-1.6,0.3-1.9,1C44.6,50.4,44.4,51.4,44.4,52.4
	L44.4,52.4z M54.1,51.9c-0.4,1.2-0.1,2.6,0.7,3.6c0.7,0.7,2.8,1.8,4.3,0.9c1.6-0.9,2.3-2.8,1.8-4.5c-0.4-1.4-1.5-2.5-3-2.8
	c-0.5-0.5-1.3-0.3-2.3,0.3C54.8,50,54.2,50.9,54.1,51.9L54.1,51.9z M61.7,55.8c0.2,1,0.6,1.8,1.5,1.6s1-1.4,0.9-2.6
	c0.5,0.8,1.2,1.5,2,2c0.7,0.4,1.6,0.2,1.7-0.7s-0.4-1.8-1.3-2.9c0.8-0.3,1.3-1,1.3-1.9c0-1.1-0.6-2-1.6-2.6
	c-0.9-0.7-2.7-0.4-3.4-0.3s-1.2,0.4-1.3,1.8C61.5,52.2,61.5,54.1,61.7,55.8L61.7,55.8z M68.9,55.5c0.1,0.8,0.6,1.6,1.3,1.6
	s1.1-0.7,1.3-1.7s0.1-3.9,0.2-5s-0.3-1.6-1.2-1.7c-0.9-0.1-1.3,0.6-1.4,1.4C68.9,51.9,68.8,53.7,68.9,55.5L68.9,55.5z M72.6,52.9
	c-0.1,1.2,0.3,2.3,1.2,3.1c0.9,0.9,2.3,1.1,3.5,0.7c1-0.6,1.5-1.6,1.4-2.8c0-1.1-0.6-1.4-1.8-1.5c-0.8-0.1-1.3,0.2-1.3,0.6
	c-0.1,0.3,0.1,0.6,0.4,0.7c0,0,0,0,0,0c0.2,0,0.2,0.2-0.2,0.3c-0.3,0.1-1.1-0.2-1-1.3s1.2-1.2,1.9-1.2c0.6,0.1,1.1-0.4,1.2-0.9
	c0,0,0,0,0-0.1c0.1-0.7-0.5-1.3-1.5-1.6c-1.2-0.3-2.4,0.1-3.1,1.1C72.9,51,72.6,51.9,72.6,52.9L72.6,52.9z M79.4,55
	c-0.1,0.7,0.4,1.3,1,1.6c0.7,0.2,0.9-0.1,1.1-0.8c0.2-1.9,0.2-3.8,0.2-5.8c0-1-0.6-1.3-1.2-1.3s-0.8,0.7-0.8,1.2
	C79.5,51.6,79.3,54.3,79.4,55L79.4,55z M83,55.5c0.1,0.7,0.8,1.4,1.2,1.4c0.4,0,0.8-0.3,0.9-0.8c0.1-0.7,0.2-1.3,0.1-2
	c0-0.2,0-0.3,0.1-0.2c0.5,1,1.2,1.9,2.1,2.6c0.8,0.6,1.5,0.3,1.6-0.1c0.3-0.8,0.4-1.6,0.4-2.4c0-1.5-0.2-3-0.7-4.4
	c-0.5-1.2-1.2-0.4-1.4,0c-0.2,0.7-0.3,1.3-0.3,2c0,0.2-0.2,0.2-0.2,0c-0.5-1.2-1.5-2.1-2.7-2.6c-0.5-0.2-1,0.1-1.2,0.5
	c0,0.1,0,0.2-0.1,0.2C82.8,51.7,82.8,53.6,83,55.5L83,55.5z M94.3,54.3c0,0.6,0.1,1.2,0.3,1.7c0.2,0.5,0.6,0.8,1.2,0.9
	c0.6,0,1.1-0.3,1.2-0.9c0.2-1.4,0.1-2.8-0.3-4.1c-0.3-1.2-1.1-2.2-2.2-2.7c-1-0.4-2.1-0.3-3,0.3c-0.8,1.1-1.2,2.4-1.2,3.8
	c-0.2,1,0.1,2.1,0.8,2.9c0.3,0.4,1,0.5,1.4,0.1c0,0,0,0,0,0c0.3-0.3,0.4-0.6,0.5-1.9C93.4,54.4,93.8,54.3,94.3,54.3L94.3,54.3z
	 M97.9,54.7c0.2,1.1,0.5,1.4,1.4,1.7c1.3,0.1,2.6-0.1,3.8-0.6c0.6-0.3,0.8-0.9,0.5-1.5c-0.1-0.2-0.2-0.4-0.4-0.5
	c-0.7-0.3-1.5-0.5-2.3-0.5c-0.5,0-0.4-0.3-0.4-0.6c0.1-0.7,0.2-1.3,0.2-2c0-0.8-0.3-1.1-1.2-1.4s-1.4,0.2-1.4,0.8
	C97.8,51.6,97.7,53.2,97.9,54.7z M56.8,53c0.1,0.4,0.5,0.6,0.9,0.5c0.4-0.1,0.6-0.4,0.4-1s-0.5-0.7-1-0.5
	C56.7,52.2,56.5,52.6,56.8,53C56.7,53,56.7,53,56.8,53z M64,51.7c0.1,0.2,0.4,0.2,0.8,0c0.4-0.2,0.4-0.7-0.2-0.9
	c-0.5-0.1-0.6,0.1-0.6,0.3C63.9,51.3,63.9,51.5,64,51.7z M93.1,52.5c0.3,0.2,0.7,0.2,0.9-0.1c0,0,0,0,0,0c0.2-0.3,0.2-0.6,0-0.8
	c-0.2-0.3-0.5-0.3-0.8-0.1c-0.1,0-0.1,0.1-0.1,0.1C92.8,51.8,92.8,52.2,93.1,52.5C93.1,52.5,93.1,52.5,93.1,52.5z M61.3,93.7
	c0,0,0.6-1.4,1.4-3.4c0.2-2.6,0.2-5.3-0.1-7.9c-0.3-2.1-0.7-4.1-1.2-6.1l0.1-0.1c0,0-1.9-4.3-2.7-5.9c-1.3-1.1-2.7-2.1-4.1-2.9
	l-4.1-1.7c0,0-0.5-0.4-3.8-0.9c-2.7-0.4-5.4-0.4-8,0.1c-2.5,0.3-4.9,1.6-7.6,3.1c-0.7,0.9-1.7,2.5-2.3,3.4c-0.9,1.4-1.5,2.9-2,4.4
	c-1,2.9-1.5,5.9-1.6,9c0.1,2.7,0.7,5.4,1.7,8c0.6,1.8,1.6,3.4,2.9,4.7c1.6,1.7,3.5,3.2,5.5,4.5c1.7,0.9,3.5,1.6,5.4,2.1
	c0.8,0.2,5.5,0.5,5.5,0.5l0.2-0.1c1.3-0.3,2.6-0.6,3.9-1c0.9-0.5,2.8-1.6,4.5-2.7c1.4-1,2.7-2.1,4-3.2H59L61.3,93.7L61.3,93.7z
	 M84.1,92.7c-0.4,0-1.3-0.1-1.3-0.1l0.9,0.6l0.7,1.6l-1.2-0.1c-0.4,0-0.8-0.1-1.2-0.3c-0.6-0.3-1.2-0.7-1.6-1.2
	c-0.4-0.7-0.8-1.5-1-2.4c0-0.5,0-0.7,0-1.3c0.7-0.1,1.5,0,2.2,0.2c1.1,0.3,2.1,0.9,3,1.6c0.4,0.5,0.6,0.8,0.9,1v0.3
	C85.5,92.7,84.5,92.7,84.1,92.7z M93.6,90.7l-4.5-12.1c0,0-4.6-12.2-5.2-14.2c-0.6-0.1-2.2-0.4-3.1-0.5c-0.4,0.5-4.3,7.9-4.3,7.9
	l-7.9,13.4c0,0-6,9.8-8,13.1s-4.2,6.9-4.2,6.9l0,1.3c0,0,9.1-0.1,13.7-0.1s8.7-0.2,8.7-0.2v-8.8c0,0,0.4,0,0.3-0.1
	c0.3,0.8,0.8,1.6,1.3,2.3c0,0.7,0.1,6.5,0.1,6.5l12.8-0.2h6l-1.4-4L93.6,90.7L93.6,90.7z M78.4,85.8c0-1.1,0.1-2,0.1-2.6
	c0.5,0.1,0.9,0.1,0.9,0.1c1.8,0.6,3.2,2,3.8,3.8c-0.6,0.1-1.2,0.1-1.7-0.1c0.1,0.6,0.2,1.9,0.3,2.1c-0.6-0.3-1.3-0.7-1.8-1.2
	C79.3,87.4,78.8,86.7,78.4,85.8L78.4,85.8z M78.8,90c-0.1,0.4-0.2,0.7-0.4,1c-0.4,0.5-0.8,1-1.3,1.3c-0.4,0.3-0.9,0.5-1.3,0.7
	c0,0-1.2,0.2-1.2,0.1c0-0.9,0.3-1.7,0.8-2.3c-0.7,0.1-1.4,0.1-2.1-0.2c0.5-0.9,1.1-1.6,1.9-2.2c0.4-0.2,0.8-0.4,1.3-0.5
	c0,0,1.9-0.1,2.6,0C78.9,89.1,78.8,89.7,78.8,90L78.8,90z M78.9,96.1c-0.2,0.5-0.5,1-0.8,1.4L76,98.7l-0.4,0.1
	c-0.1-0.7-0.1-1.3-0.1-2c-0.8,0.5-1.7,0.8-2.6,1c0-0.8,0.2-1.7,0.6-2.4c0.4-0.8,1.1-1.4,2-1.7c1.1-0.3,2.2-0.5,3.4-0.6l0.5,0.5
	C79.4,94.4,79.2,95.3,78.9,96.1L78.9,96.1z M83.5,98.2c0.6,0.7,1,1.5,1.1,2.4c-1.1-0.2-2.2-0.6-3.1-1.2c-0.5-0.4-0.9-0.9-1.2-1.4
	c-0.2-0.6-0.4-1.3-0.5-2l0.2-1.6c0.7,0.1,1.4,0.3,2.1,0.6c0.7,0.3,1.6,0.7,1.6,0.7c0.9,0.8,1.7,1.6,2.4,2.6
	C85.3,98.5,84.4,98.4,83.5,98.2L83.5,98.2z M114.9,83v-0.5c0-0.9-0.1-1.9-0.2-2.8l10.2-0.5l-0.1-6.7c0,0,0.8,1.2,0.8,1.1v-0.2l0,0
	l0,0c0-1.5-0.2-7.2-0.2-8.4c-1.3,0.1-10.2,0.3-15.6,0.3S90.9,66,90.9,66l0.3,12.4l12.7,0.3c0.1,1.2,0.3,3.9,0.2,6.6s0,7.2-0.3,11.4
	s-0.1,9.7-0.1,9.7h11c-0.2-1.3,0.4-2.4,0.1-5.3c-0.2-1.9,0-7,0-7l0.1-5.1v-0.4c0,0,0.1-4.3,0.1-5.4L114.9,83L114.9,83z M152,96.6
	c-2,0-7.7,0-8.6,0s-1.9-0.1-1.9-0.1l0,0l-0.4-0.1c-0.3-3.3-0.4-6.6-0.2-9.9c0.1-4.3,0.2-6.7,0.4-9.5c0.2-2.2,0.3-4.5,0.3-6.7
	c-0.1-1.8-0.7-5.2-0.7-5.2l-12.2-0.2c-0.9,3-0.5,8.9-0.6,11.1s-0.5,9.1-0.5,9.1l0.1,0.7l-0.2,0.7c0,0-0.2,3.6-0.4,8.8
	c0.6-1.5,1-3.1,1.3-4.7l-0.2,14.8c0,0,24.8,0,28-0.1c0.2-1.8-0.3-8.9-0.3-8.9S154,96.6,152,96.6L152,96.6z M172,68
	c-0.7,1.2-4.1,8.8-5.1,11.3c0,0-0.1-0.1-0.1-0.2l-0.1-0.2l-2.1-4l-0.1-0.1c0,0-0.7-1.4-1.1-2.2v-0.1l-0.1-0.2l-2.1-4.2v-0.1
	l-0.4-0.8c0,0-1.4-2.9-1.7-3.6c-1.4,0-8.5,0.3-8.5,0.3l-0.1,2c0.8,2,3.4,7.5,4.8,10.8s3.9,8.9,5.2,12.3c0.6,4.9,1,17.7,1,17.7h11.8
	l-0.4-18l0.6-1.1l0.1-0.3l2.1-4.1l0.1-0.2l0.5-1c2.4-4.7,5.6-10.9,7.2-14.3C181.5,67.9,175.8,68,172,68L172,68z M201.4,79.3
	l-0.1-1.1V78l-0.3-3.8c0,0-0.4-5.7-0.5-8.9c-1.6-0.2-11.9-0.5-11.9-0.5l-0.4,12.7L187.6,92l13.3,0.7l0.9-8.9l-0.3-3.2L201.4,79.3
	L201.4,79.3z M196.1,94.3c-0.3-0.1-3.2-1-3.2-1l-2.8,1l-3,2.4l-0.7,2.7c0.1,0.9,0.1,1.8,0.1,2.7c0.5,0.5,1.8,2.1,2.5,2.7
	c0.7,0.5,1.5,0.9,2.3,1.2c1.1-0.1,2.1-0.3,3.2-0.6c1.2-0.3,2.3-0.8,3.4-1.3l0.7-3v-3.4c0,0-0.7-1.4-0.9-2
	C197.2,95.1,196.7,94.6,196.1,94.3L196.1,94.3z"/>
<rect x="18" y="43" class="st0" width="191" height="69" />
</svg>
