<svg width="877" height="140" fill="none" xmlns="http://www.w3.org/2000/svg">
    <path d="M659.644 12.933c-5.939 0-55.275 1.371-62.127 2.285v3.657c-1.828-2.742-3.198-5.485-4.569-7.313-3.654 0-26.952-.458-31.977-.458-2.284 5.486-6.852 25.14-8.679 32.912-.914-1.829-3.655-5.029-5.025-7.771-1.828 0-10.964-.457-15.075 0-.457 1.371-2.284 3.657-3.655 6.4-.457-2.286-6.395-19.199-8.223-24.684-5.481-.457-31.52 0-37.916.457 1.371 5.942 11.878 68.108 15.989 85.934 4.111 5.029 12.791 20.57 17.816 26.512 4.568 0 23.298 0 27.866-.457.457-1.828 3.198-9.142 4.568-12.799 1.371 2.286 5.025 8.228 6.852 11.428 3.198 0 30.15-.914 33.805-1.372.457-2.742 3.654-17.369 6.852-32.91 0 8.227-.457 15.084-.457 19.198 1.828 4.113 10.05 19.198 12.791 25.597 12.334.457 60.757-.914 66.696-.914 0-5.028.457-35.654 0-44.796-2.284-2.742-11.421-12.799-15.532-16.912 0-1.829-.457-7.771-.457-11.428 2.741 0 15.532 0 18.73-.914 0-3.657-.914-23.77-.914-31.54-3.198-3.2-11.42-14.627-17.359-20.112zM423.927 6.984c-18.729.458-29.236 8.228-34.261 18.284-8.68-13.256-23.298-23.312-42.941-23.312-18.729 0-31.064 10.514-38.373 24.227-3.197-5.486-6.852-11.428-9.593-15.085-4.568-.457-31.977-.457-37.459 0 0 3.657-.457 17.37-.457 25.14-1.827-2.742-10.507-17.826-14.618-24.226-3.198 0-26.952 0-32.891-.457v1.829c-3.654-5.028-7.309-10.056-9.136-12.799-2.741 0-25.582-.914-31.064-.457 0 3.2-.457 12.799-.457 22.398-3.654-3.2-7.309-7.314-9.593-9.6-3.654 0-22.841 0-28.779.458-.457 6.856 0 11.427 0 17.37-1.371-2.743-8.223-10.514-10.964-13.713-2.741 0-21.014 0-30.15.457-3.198-2.743-6.852-5.028-9.593-6.857-3.198-.914-69.894.914-82.684 1.371C.914 14.755 0 40.81 0 50.41c2.74 3.657 17.816 19.198 23.755 26.054v25.598c1.827 2.285 10.05 18.741 14.16 23.769 5.483 0 35.633-.914 43.399-1.371V77.835h5.938c-.456 13.256-.913 24.683-1.37 30.168 2.284 5.485 11.42 21.941 15.075 28.797 2.284.457 30.15-.457 37.002-.914v-14.17c1.371 2.286 4.568 10.513 6.396 14.17 3.197 0 34.261.457 40.656 0v-15.084c1.371 2.742 2.741 4.571 3.655 5.942h32.891c.913 2.743 1.827 5.028 2.741 6.857 3.654 0 30.607 0 36.088-.457 0-2.286-.913-19.656-.913-29.712 2.284 5.942 10.507 22.855 13.704 28.797 4.112.457 34.718 0 40.657-.457v-23.769c11.877 16.456 29.693 24.226 47.509 24.226 13.248 0 21.928-5.485 27.866-13.713 9.136 14.17 23.755 21.484 38.83 21.484 25.125-.457 42.027-20.112 41.57-40.225 0-20.112-8.223-29.254-14.161-32.91 2.741 0 10.05-.458 14.161-.458 1.827-37.025-15.075-59.88-45.682-59.423zm-75.832 42.053c.457-2.285 2.741-5.485 4.569-5.942 1.37 1.829 2.741 4.571 3.197 5.943h-7.766zm52.991 31.54v-.914l.914.914h-.914zM866.13 46.286c-8.679-14.17-19.643-31.083-50.25-30.169-23.754.915-38.829 10.514-43.854 31.54-8.223-18.74-24.212-35.196-50.25-35.196-7.309 0-20.1 0-28.323.914 0 9.599.457 82.278.457 96.448 3.198 4.571 14.618 22.397 18.273 26.968 4.111 0 13.247 0 23.297-.457 24.669-.457 36.546-16.455 41.571-33.825 8.223 20.569 25.125 35.654 52.077 35.197 44.311-.457 60.757-52.567 37.002-91.42zm-48.422 23.312c-4.112-2.743-1.828-10.056 3.197-9.599.914 3.2.457 7.313-3.197 9.599z" fill="#000"/>
    <path d="M16.905 56.343h-3.198c.914 1.371 2.284 2.742 3.198 3.657h8.223v-4.114c-2.285.457-5.482.457-8.223.457zM7.309 48.569c.456.457 1.37 1.828 3.197 4.113h14.619V48.57H7.309zM20.559 64.574c1.827 1.829 3.197 3.657 4.111 4.571v-5.028h-4.111v.457zM90.444 60.914c-.914-1.829-2.285-3.2-3.198-5.028-1.828 0-4.112 0-6.852.457-3.655 0-7.31.457-10.507.457 1.37 1.828 2.284 3.657 3.654 5.485 1.37 0 3.655-.457 5.939-.457 3.654 0 7.766-.457 10.963-.914zM93.187 65.032c-3.197 0-8.68.457-13.247.914-1.37 0-2.284 0-3.655.457 1.37 1.828 2.284 3.2 3.198 4.571 3.198 0 11.877-.457 17.359-.457-.914-1.371-2.284-3.2-3.655-5.485zM80.397 52.237h4.111c-.913-1.828-2.284-3.2-2.74-4.114-2.285 0-7.766.457-16.903.914.457.915 1.37 2.286 2.741 4.114 2.741 0 8.223-.457 12.791-.914zM63.955 106.632c-3.655 0-10.507.457-16.902.457-5.025 0-10.05.457-12.791.457.913.914 1.37 1.828 2.284 3.199 6.395 0 21.47-.457 29.236-.457-.457-1.371-.913-2.742-1.827-3.656zM62.122 102.502c-.914-1.828-1.37-3.2-1.827-3.656-3.655 0-21.014 0-29.693.457.456.914.913 2.285 1.827 4.114 2.284 0 8.223 0 14.618-.458 5.939-.457 11.42-.457 15.075-.457zM38.375 114.855c.914 1.372 1.37 2.743 1.827 3.657 5.939 0 28.78-.914 28.78-.914s-.457-1.371-1.37-2.743c-6.853-.457-21.471 0-29.237 0zM120.141 117.595c-5.482 0-15.075.457-21.014.457l1.827 3.657c4.112 0 14.618 0 21.014-.457 0-.914-.914-2.285-1.827-3.657zM103.695 125.819l2.284 4.114c9.137.457 20.557-.457 21.471-.457-.457-.914-1.371-2.286-2.741-4.114-5.025.457-15.075.457-21.014.457zM115.572 109.375c-5.482-.457-21.013 0-21.013 0l2.284 4.571c5.025 0 14.618 0 21.013-.457-.457-1.371-1.37-2.742-2.284-4.114zM166.285 114.398c-5.482 0-18.273.457-25.125.457.914 1.829 1.827 3.657 2.284 5.485 4.568 0 17.816-.457 25.582-.457-.457-1.828-1.37-3.657-2.741-5.485zM145.729 124.455c.913 1.828 1.827 3.656 2.284 5.028 2.284 0 19.643-.457 25.581-.915-.456-.914-1.37-2.742-2.284-5.028-5.938.457-19.186.915-25.581.915zM161.713 105.701c-3.654 0-13.247.457-24.211.457.457 1.372 1.37 2.743 1.827 4.114 5.482 0 17.816-.457 24.668-.457-.456-.914-1.37-2.742-2.284-4.114zM205.57 103.886c-.913-1.829-2.284-3.2-3.197-4.571-4.569 0-15.075.457-21.928.457.457 1.371 1.371 2.742 2.284 4.114h22.841zM208.308 107.988h-22.384c.457.914 1.37 2.285 1.827 3.2h22.841c-.914-.915-1.37-1.829-2.284-3.2zM190.035 115.77c.914 1.371 1.827 2.742 2.741 3.657h22.384c-.457-.915-1.37-2.286-2.284-4.114-5.482.457-16.445.457-22.841.457zM241.2 111.645h2.284c-.457-1.372-.914-2.286-1.371-3.657h-20.556c.456.914.913 2.285 1.37 3.657 4.568.457 12.791.457 18.273 0zM246.681 118.974c-.457-.915-.913-1.829-1.37-3.2H224.754c.457.914.914 2.285 1.37 3.2h20.557zM229.326 123.091h-1.371c.457 1.371.914 2.742 1.371 3.656 3.654 0 15.531-.457 20.556-.457-.456-.914-.913-2.285-1.37-3.656-4.111.457-13.248.457-19.186.457zM296.931 110.281c-.457-1.372-1.371-2.286-1.827-3.2h-25.125c.456.914.913 2.286 1.37 3.2h25.582zM301.038 117.598c-.457-.914-1.371-2.286-1.827-3.2h-26.039c.457.914.914 2.286 1.37 3.2H301.038zM287.337 121.707h-10.964c.457 1.372 1.371 2.286 1.827 3.657 4.569 0 24.669.457 26.953.457-.457-.914-.914-2.285-1.828-4.114h-15.988zM532.196 113.491c-6.396.457-15.532.914-20.1.914.457.915 1.37 2.286 2.284 3.2 4.111 0 14.161-.457 20.1-.914-1.371-.457-1.827-1.828-2.284-3.2zM516.658 122.172c.914 1.371 1.827 2.742 2.741 3.657 4.568 0 15.075-.457 18.73-.457-.457-.458-.914-2.286-1.828-4.114-5.025 0-14.161.457-19.643.914zM528.086 106.17c-2.284 0-13.705.457-21.471.915.457.457 1.371 1.828 2.284 3.656 4.112-.457 15.075-.914 21.014-1.371-.457-.914-1.371-2.285-1.827-3.2zM571.934 103.419c-3.197 0-14.618.457-23.297.914l1.827 3.657c5.025 0 16.902-.457 23.298-.915-.457-1.371-1.371-2.285-1.828-3.656zM578.337 114.858c-.913-1.372-1.37-2.743-2.284-3.657-5.025.457-16.902.914-23.754.914.457 1.371 1.37 2.743 1.827 3.657 2.284 0 5.939-.457 10.05-.457 5.482 0 10.507-.457 14.161-.457zM564.625 119.432c-3.198 0-5.939.457-8.223.457.914 1.829 1.828 3.2 2.284 4.114 6.396.457 20.557-.457 24.212-.457-.457-.914-1.371-2.285-2.284-4.571-3.655 0-10.05.457-15.989.457zM659.649 48.567c-.457-.914-.913-1.828-1.827-3.2-2.741 0-23.298.458-30.15.915v2.742c3.654 0 27.409-.457 31.977-.457zM628.584 73.705v3.657h17.359c-.914-1.371-1.37-1.828-3.198-3.657-1.827.457-9.136 0-14.161 0zM650.505 54.977c3.654 0 7.765-.457 11.877-.457h2.284c-.914-.914-1.371-1.828-2.284-2.742-1.371 0-9.137 0-14.618.457.913.457 1.827 1.828 2.741 2.742zM662.385 58.63c-2.741 0-5.482 0-8.223.456l2.284 2.286c1.827 0 10.507 0 13.248-.457-.457-.914-1.371-1.829-1.827-2.743-1.828.457-3.655.457-5.482.457zM658.732 122.634H606.654c.457 1.371 1.371 2.742 1.828 4.113 12.79 0 39.286-.457 52.077-.457-.457-1.371-1.371-2.742-1.827-3.656zM610.762 130.857c.913 1.371 1.37 2.743 1.827 3.657h52.991c-.457-.914-1.371-2.286-2.284-4.114-11.421 0-38.373 0-52.534.457zM636.805 118.512h19.186c-.914-1.371-1.827-2.743-2.284-3.657-3.655 0-42.484 0-50.707-.457.457 1.371 1.37 2.743 1.827 4.114h31.978zM757.864 113.935c-.457-.914-1.371-1.828-1.828-3.199-11.42 9.142-30.606 10.056-47.509 10.056.457.914 1.371 1.828 1.828 2.742 18.729.915 36.088 0 47.509-9.599z" fill="#98C5D3"/>
    <path d="M715.38 128.101h-2.284c.913 1.371 1.827 2.742 2.284 3.656 28.779.457 37.002-2.285 46.138-12.341-.456-.457-.913-1.372-1.37-2.286-11.421 9.599-27.409 10.971-44.768 10.971zM751.466 104.349c-10.507 8.228-25.582 8.685-48.423 9.599.914.914 1.37 2.285 2.284 3.2 16.902 0 37.459-.457 47.966-9.599-.457-1.372-1.37-2.286-1.827-3.2zM351.752 126.289c10.964 1.828 19.643 0 27.409-4.114-.457-.457-.914-1.372-1.827-3.2-5.482 4.114-15.532 6.857-25.582 7.314zM372.309 113.026c-5.025 3.2-12.791 5.942-21.471 6.399-2.284 0-4.111.458-6.395.458-4.568 0-9.137-.458-13.705-1.372 11.421 8.685 37.459 2.743 43.855-2.285-.914-1.371-1.371-2.286-2.284-3.2z" fill="#98C5D3"/>
    <path d="M370.027 109.37c-.914-1.371-1.827-2.743-2.284-3.2-12.334 8.685-33.805 7.314-48.423.457 7.766 13.713 40.2 10.514 50.707 2.743zM358.605 44.922c.914 1.829.914 2.286 2.285 3.657 4.111 0 15.531.457 19.186 0-.457-1.371-.914-2.743-1.827-3.657-2.284 0-10.05.457-19.644 0zM445.394 114.401l-2.284-2.286c-8.223 8.228-34.261 10.971-48.88 3.657 7.31 10.513 43.398 8.685 51.164-1.371z" fill="#98C5D3"/>
    <path d="M449.962 119.416l-2.284-2.286c-8.222 6.4-18.272 9.599-29.236 9.599-6.395 0-13.248-1.371-19.643-3.657 12.334 10.971 41.57 6.857 51.163-3.656z" fill="#98C5D3"/>
    <path d="M419.818 133.604c13.248 1.828 27.409-1.371 34.719-8.685-.457-.457-.914-1.371-1.828-2.285-8.679 6.856-20.557 10.97-32.891 10.97zM454.076 47.66c-.914-1.37-1.828-2.285-2.741-3.2-3.655 0-13.705.458-19.187.915 0 0 .914 1.371 1.828 3.2 3.654 0 14.161-.457 20.1-.915zM441.738 55.434c2.741 0 8.68-.457 17.359-.914-.456-.914-1.37-1.828-2.284-2.742-4.111 0-13.704.914-19.186.914 1.827.914 2.741 1.828 4.111 2.742zM446.762 59.086c.913.915 2.284 1.829 3.197 2.743 2.741 0 11.421 0 13.705-.457-.457-.457-.914-1.828-1.827-3.2-5.939.457-11.421.914-15.075.914zM853.791 115.772c-.914-1.371-1.827-2.742-2.741-3.657-11.877 10.057-38.829 14.17-59.843 5.486 13.705 13.255 47.509 9.599 62.584-1.829z" fill="#98C5D3"/>
    <path d="M848.77 107.99c-1.37-1.829-2.284-3.2-3.197-4.571-14.162 13.256-48.423 11.427-62.128.457 8.68 16.912 47.509 16.912 65.325 4.114zM856.082 119.417c-10.963 8.228-25.125 10.97-38.829 10.97-2.284 0-4.569 0-6.853-.457 15.532 5.485 33.805 2.743 47.053-8.228 0-.457-.457-1.371-1.371-2.285z" fill="#98C5D3"/>
    <path d="M6.855 18.867c0 3.657-.457 18.284-.457 23.769 1.37 0 20.557-.457 24.669-.457v49.823c6.395 0 22.384-.457 26.495-.914 0-2.742-.914-37.939-.457-49.366 3.198 0 19.643 0 24.212-.457 0-1.829.456-17.37 0-23.77-4.112 0-64.869.915-74.462 1.372zM139.791 19.774c0 3.2.456 22.855 0 28.34h-22.385c0-2.742 0-19.655-.456-24.683-3.198 0-16.446-.457-21.47 0-.458 4.57-2.285 66.736-2.742 79.992 8.223.457 17.816-.457 22.384-.914 0-3.2.914-23.312.914-30.169 4.111 0 15.075-.457 21.014-.457 0 3.657 0 21.027.456 27.426 3.655 0 17.36 0 21.471-.914 0-2.743.457-70.393 0-78.62-1.827 0-15.532-.458-19.186 0zM178.622 7.888c0 9.6-1.37 74.05-.914 84.563 2.741 0 19.187 0 22.841-.457 0-4.57-.456-73.136-.456-84.106-3.198.457-16.903 0-21.471 0zM266.324 16.585c0 3.656-.457 31.082-.457 37.482-.913-2.286-18.272-29.255-21.927-35.197-3.198 0-20.557-.457-25.582-.457 0 3.657-.913 27.426-.457 37.025.457 9.142 0 34.282 0 45.71 5.025 0 17.816.457 22.841.457 0-3.2-.457-34.74-.457-42.967 1.371 2.285 20.557 32.454 26.953 41.596 4.111 0 21.47.457 25.125 0 0-3.657-.457-73.593-.914-83.192-2.284 0-20.557-.457-25.125-.457zM565.089 17.49c-1.37 4.113-9.593 33.367-11.877 42.51-1.371-2.286-5.025-10.97-7.309-15.085-2.284 0-9.137-.457-12.334 0-.914 2.286-3.655 9.6-5.482 14.627-.914-2.742-10.05-28.797-11.878-34.739-4.111 0-22.84 0-28.322.457 1.37 6.857 13.247 65.822 15.988 76.793 6.853 0 20.1-.458 24.669-.458 1.37-3.2 8.222-21.483 9.593-25.597 1.37 3.2 6.852 18.284 10.05 24.683 5.482 0 18.272-.914 23.754-.914 1.828-9.142 15.075-71.307 16.446-81.82-2.284-.458-17.816-.915-23.298-.458zM656.913 19.786c-3.654 0-43.854 1.371-54.361 2.285-.457 6.857-1.371 72.222-.914 88.22 13.248.915 42.484 0 52.077-.457 0-3.657-.456-21.026-.913-25.597-2.284 0-22.384 0-29.237-.457.457-3.2-.456-12.342-.456-16.456 2.284 0 10.05 0 14.161-.457 0-1.828 0-8.228-.457-12.342-1.827 0-9.136.457-14.161.457 0-2.285-.457-9.142-.457-13.712 2.741-.458 30.15-.458 35.175-.915-.457-3.2-.457-15.998-.457-20.57zM727.26 18.406c-8.679 0-19.186 0-26.952.914-.457 9.6.457 73.593.914 89.592 3.654 0 9.593 0 24.668-.915 26.039-1.371 37.916-21.483 37.916-44.338s-13.248-45.253-36.546-45.253zM345.815 54.519c0 1.828-.457 10.513 0 15.084 2.284 0 7.766 0 10.507-.457 0 4.114-2.284 13.713-12.334 13.256-10.05-.457-15.532-10.056-15.989-25.598-.456-15.54 9.137-26.054 16.446-26.511 7.309-.457 11.877 5.028 12.791 9.599 3.197 0 14.161 0 20.556-.457-1.37-21.94-11.42-32.454-33.347-32.454-23.755.457-38.83 28.34-38.83 49.366 0 38.397 18.73 50.281 37.916 50.281 21.014 0 36.546-11.884 33.805-53.023-6.396.457-24.212.914-31.521.914zM423.012 31.66c4.568 0 7.766 5.027 8.222 7.77 3.198 0 12.791-.457 19.187-.457 0-12.799-6.396-26.512-27.409-26.512-21.014 0-31.978 13.713-31.978 29.712 0 29.254 33.805 24.683 33.805 40.224 0 5.028-2.284 11.428-8.223 11.428-7.309 0-11.877-4.571-11.877-9.6-3.655 0-13.705.458-19.643.458-.914 16.455 6.395 30.625 32.891 30.168 15.988-.457 28.322-9.142 28.779-29.254.457-35.197-30.607-31.997-30.607-44.796-.456-4.114 1.828-9.142 6.853-9.142zM815.425 21.155c-22.384.457-40.657 16.456-40.2 42.968.457 31.996 12.791 43.424 39.287 43.424 28.322-.457 42.484-15.084 42.484-45.253 0-30.168-19.187-41.596-41.571-41.139zm-.457 54.852c-6.852.457-12.334-2.743-12.334-13.713 0-5.942 4.568-12.799 12.334-13.256 7.309-.457 10.964 5.486 11.421 12.8.457 7.77-5.025 13.712-11.421 14.17z" fill="#fff"/>
    <path d="M740.053 60.919c-.457-12.342-10.507-15.998-16.903-15.541 0 4.57.457 24.683.457 31.54 8.68-.458 16.446-3.657 16.446-15.999z" fill="#000"/>
</svg>
