<svg xmlns="http://www.w3.org/2000/svg" width="229" height="160" viewBox="0 0 229 160" fill="none">
<path d="M227.286 74.2775C225.096 70.1632 200.496 23.0055 198.44 19.0494C196.384 15.0934 192.141 12.4934 189.235 11.892C186.812 11.3911 149.015 3.29446 136.534 0.509912C132.891 -0.302386 128.591 -0.294147 125.261 1.64845C122.358 3.34225 57.6801 37.383 41.1458 46.0826C38.7139 47.3612 36.2622 49.551 34.5025 51.9631C26.3218 63.1887 3.05844 95.0973 1.44044 97.2525C-0.523576 99.8706 -1.01293 104.644 3.44235 107.33C7.89928 110.015 78.1441 152.919 84.5502 156.827C90.9547 160.735 95.8862 159.888 100.893 156.96C105.901 154.033 221.687 85.3613 224.659 83.5126C227.633 81.6656 229.475 78.3917 227.286 74.2775Z" fill="#1D1D1B"/>
<path d="M7.07959 101.37L40.3706 55.7627L87.4213 78.0408L88.1875 150.867L7.07959 101.37Z" fill="#98C5D3"/>
<path d="M97.3305 150.956L95.3022 76.5395L192.251 22.282L221.096 77.51L97.3305 150.956Z" fill="#98C5D3"/>
<path d="M88.2977 70.4352L47.2083 50.7703L131.079 6.4729L184.553 18.023L88.2977 70.4352Z" fill="#98C5D3"/>
<path d="M108.789 96.8269C107.298 90.714 112.354 86.412 115.747 84.3804C119.141 82.3456 125.389 80.8627 127.587 86.1665C129.787 91.472 132.026 98.5882 132.303 103.566C132.579 108.547 127.828 112.282 125.249 113.734C122.669 115.183 116.057 117.373 113.814 112.501C111.573 107.632 109.657 100.384 108.789 96.8269ZM119.209 104.386C119.812 105.98 121.606 105.915 122.239 105.619C122.871 105.321 124.007 104.332 123.791 102.805C123.57 101.272 121.894 94.6289 121.253 93.0537C120.614 91.4802 119.387 90.7734 118.134 91.4588C116.884 92.1409 116.177 93.8051 116.513 95.2731C117.083 97.7594 118.606 102.791 119.209 104.386Z" fill="#1D1D1B"/>
<path d="M142.824 102.762C141.086 104.151 137.423 105.955 135.989 106.488C135.317 102.08 135.027 77.1642 134.826 73.8276C137.439 72.4864 141.802 69.9029 143.532 68.8748C145.765 73.0137 156.944 94.2751 157.399 95.4384C155.76 96.6198 150.551 99.2544 149.408 99.7965C148.54 98.1093 146.467 94.3443 145.941 93.0938C144.368 93.7034 142.557 95.1435 142.239 95.3577C142.274 97.5803 142.588 101.645 142.824 102.762ZM143.742 86.2362C143.411 85.5887 142.458 84.1535 141.521 83.2968C141.504 84.1354 141.417 86.05 141.72 87.5065C142.117 87.3302 143.053 86.7799 143.742 86.2362Z" fill="#1D1D1B"/>
<path d="M158.069 73.1918C155.181 75.0422 153.276 76.2631 152.5 76.7014C151.912 74.7176 149.849 68.0231 149.513 66.6292C151.724 65.1727 156.832 61.6351 160.31 59.9792C163.783 58.3217 168.143 55.8271 169.4 55.229C170.306 58.2937 172.257 64.736 172.557 65.8779C170.893 66.6325 167.311 68.5734 166.266 69.1172C167.848 74.4556 168.716 76.8711 169.416 79.1069C170.117 81.3428 171.771 86.2941 172.183 87.4211C170.768 88.5003 165.858 91.4397 164.798 92.0675C163.371 88.1427 159.377 77.2171 158.069 73.1918Z" fill="#1D1D1B"/>
<path d="M174.555 60.5768C173.883 53.3469 179.749 48.651 187.485 45.5518C188.323 48.1699 188.976 52.004 189.234 53.0684C183.604 54.894 181.556 58.7874 188.139 57.6094C194.863 56.4016 197.127 61.885 197.387 66.8083C197.646 71.7298 191.711 79.0323 182.665 81.7674C181.855 80.1362 180.174 75.1537 179.815 73.5241C185.293 71.9869 188.425 67.6239 187.369 65.8757C186.315 64.1275 184.122 64.7372 180.644 66.2184C177.169 67.7013 174.989 65.2776 174.555 60.5768Z" fill="#1D1D1B"/>
<path d="M35.8785 83.8419C37.022 80.8283 38.7009 77.9466 40.9137 78.2481C43.1216 78.5479 47.2095 80.105 47.8652 83.453C48.5194 86.8011 46.6328 92.2021 43.9586 93.7608C41.2861 95.3162 38.7306 96.9095 37.6926 97.6065C39.4638 98.5753 41.6947 99.7336 42.5812 100.284C42.0045 102.307 40.8676 104.805 40.4738 105.565C37.7305 104.062 30.5483 100.096 29.5432 99.5804C30.227 97.7762 30.9091 95.5502 31.8318 94.1068C36.0647 92.1 39.3106 89.9481 40.2547 89.3616C41.2004 88.7733 41.8134 88.0681 42.3554 86.7747C42.9008 85.4797 42.5993 84.7942 42.0918 84.5158C41.5827 84.239 40.7786 84.384 40.225 86.1931C39.0815 85.6939 36.8704 84.5454 35.8785 83.8419Z" fill="#1D1D1B"/>
<path d="M46.5906 94.1657C49.3751 90.9792 53.6475 85.845 54.328 85.1777C55.5539 85.6819 57.9117 87.0742 58.6647 87.5504C57.3053 89.0168 52.1004 95.4921 51.3144 96.2303C52.5321 96.9651 53.2719 97.3029 53.8354 97.5797C54.3494 95.9403 55.2606 94.1015 55.5555 93.3864C56.5738 93.879 58.7849 95.3504 59.3699 95.703C58.2873 98.5551 53.6574 110.773 53.0972 112.252C51.2831 111.259 49.4905 110.277 48.693 109.84C49.5613 107.487 51.1167 103.174 51.4726 102.229C49.848 101.373 45.5196 99.0362 44.8787 98.6836C45.4883 97.0706 45.9085 96.0325 46.5906 94.1657Z" fill="#1D1D1B"/>
<path d="M55.9355 113.702C56.9472 110.619 59.1172 105.717 60.7994 101.278C62.4817 96.841 64.5199 91.2587 64.9334 90.3706C66.0555 91.145 69.2536 92.7367 69.972 93.1304C69.158 94.7254 66.6915 100.678 66.3504 101.514C67.9272 100.464 72.9674 95.8886 73.6858 95.1653C74.7931 95.77 77.6518 97.4968 78.5234 97.9746C77.0141 99.5382 69.1696 105.768 68.2205 107.035C68.5847 109.467 70.1351 120.108 70.2883 121.085C68.7544 120.5 65.2267 118.664 64.187 118.223C64.0453 116.104 63.1259 111.197 63.0254 109.867C62.2955 112.21 61.1142 115.807 60.8637 116.402C59.6461 115.956 56.9258 114.273 55.9355 113.702Z" fill="#1D1D1B"/>
</svg>