<svg xmlns="http://www.w3.org/2000/svg" width="294" height="139" viewBox="0 0 294 139" fill="none">
<path d="M133.23 19.9972C130.864 19.6992 130.031 16.6779 132.471 15.6708C130.376 14.538 130.642 11.2958 133.88 11.1522C136.767 11.0247 146.526 11.0966 150.003 11.1666C153.48 11.2348 155.649 13.5057 155.548 18.1858C155.448 22.866 155.241 25.1387 151.387 25.1387C146.809 25.1387 149.49 20.2862 145.186 20.2521C142.741 20.2324 142.381 21.3526 142.346 23.5212C142.311 25.6898 142.986 27.0668 144.915 27.1691C146.845 27.2732 147.443 28.099 147.432 29.7165C147.423 31.334 146.992 32.4344 144.998 32.5727C143.004 32.7109 142.436 33.7773 142.463 35.6012C142.492 37.4251 142.995 38.768 145.265 38.8021C149.879 38.8721 147.231 34.6372 151.737 34.4666C153.764 34.3894 155.85 35.603 156.039 41.1089C156.249 47.2701 154.586 48.6524 151.77 48.7978C148.719 48.9558 138.174 49.0204 133.607 48.6398C130.961 48.419 130.152 44.9884 133.065 44.0441C130.218 43.0998 131.232 39.5435 133.372 39.5435C133.482 35.4145 133.342 22.7852 133.23 19.9972Z" fill="black"/>
<path d="M61.2226 61.4152C58.8565 61.1172 58.0235 58.0958 60.4632 57.0887C58.3682 55.9559 58.6339 52.7138 61.8724 52.5702C64.7591 52.4427 74.5179 52.5145 77.9952 52.5845C81.4726 52.6527 83.6412 54.9237 83.5406 59.6038C83.4401 64.2839 83.2337 66.5567 79.3793 66.5567C74.8016 66.5567 77.4818 61.7042 73.1787 61.6701C70.7336 61.6504 70.3728 62.7706 70.3386 64.9392C70.3027 67.1078 70.9777 68.4847 72.9076 68.5871C74.8375 68.6912 75.4353 69.517 75.4245 71.1345C75.4155 72.752 74.9847 73.8524 72.9902 73.9907C70.9957 74.1289 70.4284 75.1952 70.4553 77.0192C70.4841 78.8431 70.9867 80.1859 73.2577 80.22C77.8714 80.2901 75.2234 76.0551 79.7294 75.8846C81.7562 75.8074 83.8422 77.021 84.0307 82.5269C84.2408 88.6881 82.5784 90.0704 79.7617 90.2158C76.7117 90.3738 66.1666 90.4384 61.5996 90.0578C58.9534 89.837 58.1438 86.4063 61.0574 85.4621C58.2102 84.5178 59.2245 80.9615 61.3644 80.9615C61.4721 76.8307 61.3339 64.2031 61.2226 61.4152Z" fill="black"/>
<path d="M34.7187 61.4152C32.3526 61.1172 31.5196 58.0958 33.9593 57.0887C31.8643 55.9559 32.13 52.7138 35.3685 52.5702C38.2552 52.4427 48.014 52.5145 51.4913 52.5845C54.9687 52.6527 57.1373 54.9237 57.0367 59.6038C56.9362 64.2839 56.7298 66.5567 52.8754 66.5567C48.2976 66.5567 50.9779 61.7042 46.6748 61.6701C44.2297 61.6504 43.8689 62.7706 43.8347 64.9392C43.8006 67.1078 44.4738 68.4847 46.4037 68.5871C48.3336 68.6912 48.9314 69.517 48.9206 71.1345C48.9116 72.752 48.4808 73.8524 46.4863 73.9907C44.4918 74.1289 43.9245 75.1952 43.9514 77.0192C43.9802 78.8431 44.4828 80.1859 46.7538 80.22C51.3675 80.2901 48.7195 76.0551 53.2255 75.8846C55.2523 75.8074 57.3383 77.021 57.5268 82.5269C57.7369 88.6881 56.0745 90.0704 53.2578 90.2158C50.2078 90.3738 39.6627 90.4384 35.0957 90.0578C32.4495 89.837 31.6399 86.4063 34.5535 85.4621C31.7063 84.5178 32.7206 80.9615 34.8605 80.9615C34.97 76.8307 34.8318 64.2031 34.7187 61.4152Z" fill="black"/>
<path d="M15.8262 16.0898C14.5049 15.8062 13.6306 15.3735 13.7168 13.8638C13.8424 11.6754 15.4312 11.4187 18.0756 11.3451C20.605 11.2751 30.3045 11.2015 32.9938 11.4851C35.7099 11.7723 38.1478 12.2714 38.1478 18.131C38.1478 23.2958 37.1425 24.942 35.0277 24.8899C30.8 24.7858 32.7748 20.9728 29.0659 20.9046C26.8488 20.8633 26.2581 22.2564 26.224 24.197C26.1899 26.1376 26.8129 27.3853 28.7194 27.4553C30.6259 27.5253 32.1159 28.1824 32.15 30.7818C32.1841 33.3813 31.0388 34.2646 28.9617 34.1784C27.2976 34.1084 26.2851 35.216 26.4323 38.4079C26.6405 42.9139 29.3782 41.1456 29.4823 45.0286C29.5865 48.9117 25.4718 50.9421 22.2602 47.3229C18.2946 51.0372 14.5426 48.7376 14.6126 44.9586C14.6808 41.1815 17.2821 42.3251 17.2821 38.2697C17.2821 34.2143 16.9733 24.0354 16.9733 20.9153C14.907 20.9854 13.8263 20.1757 13.8407 18.6175C13.8568 17.2244 14.2913 16.5386 15.8262 16.0898Z" fill="black"/>
<path d="M68.6558 19.66C65.8552 19.9436 65.2251 16.4178 67.523 15.3802C65.5088 14.5616 65.0061 10.7593 68.9071 10.6588C84.7858 10.2495 87.8071 11.5707 87.9723 20.4911C88.0602 25.2215 86.8287 28.2949 85.4428 29.7796C84.9581 30.3002 84.9994 30.8046 85.6511 31.1314C86.8987 31.7561 87.9076 34.4005 88.1805 37.0574C88.8394 43.4699 93.1981 40.0141 92.34 45.1681C91.6812 49.1194 87.107 48.9812 84.6457 47.9759C82.1845 46.9705 80.3821 44.2328 80.2439 40.8363C80.1056 37.4397 78.8221 36.5385 78.025 36.5385C77.2279 36.5385 77.1705 37.7754 77.1705 39.3714C77.1705 41.6585 79.4576 41.3461 79.4235 44.6044C79.3894 47.8628 76.2388 49.7459 72.5568 46.9364C69.8891 49.6041 65.9468 48.211 66.0455 45.1233C66.1586 41.5203 68.715 42.4197 68.7832 39.2314C68.855 36.0431 68.812 24.236 68.6558 19.66ZM78.3392 26.7977C80.0249 25.7368 80.2457 21.9453 78.4774 20.2129C77.7144 19.4661 76.4362 19.7641 76.5368 23.2288C76.6409 26.7977 77.4021 27.3884 78.3392 26.7977Z" fill="black"/>
<path d="M159.718 19.8709C156.918 20.1545 156.288 16.6287 158.585 15.5911C156.571 14.7725 156.069 10.9702 159.97 10.8697C175.848 10.4604 178.87 11.7817 179.035 20.7021C179.123 25.4325 177.891 28.5059 176.505 29.9905C176.021 30.5111 176.062 31.0156 176.714 31.3423C177.961 31.967 178.97 34.6114 179.243 37.2683C179.902 43.6808 184.261 40.225 183.403 45.3791C182.744 49.3303 178.169 49.1921 175.708 48.1868C173.247 47.1815 171.445 44.4438 171.306 41.0472C171.168 37.6507 169.885 36.7495 169.087 36.7495C168.29 36.7495 168.233 37.9864 168.233 39.5823C168.233 41.8694 170.52 41.5571 170.486 44.8154C170.452 48.0737 167.301 49.9569 163.619 47.1474C160.952 49.815 157.009 48.422 157.108 45.3342C157.221 41.7312 159.778 42.6306 159.846 39.4423C159.916 36.254 159.873 24.4469 159.718 19.8709ZM169.4 27.0105C171.086 25.9495 171.306 22.158 169.538 20.4256C168.775 19.6788 167.497 19.9768 167.597 23.4416C167.702 27.0105 168.465 27.5993 169.4 27.0105Z" fill="black"/>
<path d="M96.2308 20.7862C93.7049 20.7862 92.4555 17.4345 95.7838 16.4184C92.2436 15.1205 94.1807 11.6719 96.7263 11.5319C103.597 11.1549 106.288 11.9089 107.437 14.1421C108.415 16.045 109.871 19.2657 110.348 20.2243C111.395 22.3319 112.366 22.1236 113.301 19.8186C113.994 18.1095 114.932 16.1528 115.598 14.4904C116.542 12.1297 119.971 10.9107 126.99 11.5319C128.855 11.697 130.532 15.1205 127.345 16.4184C130.746 17.4812 129.209 20.7862 127.274 20.7862C127.117 23.0212 127.496 36.6469 127.546 39.4026C127.599 42.1582 129.807 42.1744 129.792 45.2442C129.771 49.5168 125.92 50.8776 122.364 47.7485C119.082 50.8399 114.917 49.436 114.935 45.5278C114.953 41.6807 118.208 41.9518 118.188 39.2482C118.154 34.4819 117.183 34.3616 116.316 36.0258C115.449 37.6899 114.063 40.67 113.336 41.8835C112.609 43.0971 110.646 43.957 109.454 41.6412C108.241 39.2841 107.652 38.0705 106.542 35.9216C105.433 33.7728 104.334 35.2969 104.428 38.5552C104.566 43.3736 107.533 42.4095 107.539 45.842C107.544 49.0877 104.022 51.0984 100.426 47.6228C96.0908 51.312 93.2741 48.4971 93.2813 45.623C93.2902 42.1923 96.1805 42.4041 96.2847 39.3541C96.387 36.3022 96.2649 25.969 96.2308 20.7862Z" fill="black"/>
<path d="M119.933 101.716C117.567 101.418 116.734 98.3966 119.174 97.3895C117.079 96.2567 117.345 93.0146 120.583 92.871C123.47 92.7435 133.229 92.8153 136.706 92.8853C140.183 92.9535 142.352 95.2245 142.252 99.9046C142.151 104.585 141.945 106.857 138.09 106.857C133.512 106.857 136.193 102.005 131.89 101.971C129.445 101.951 129.084 103.071 129.05 105.24C129.014 107.409 129.689 108.786 131.619 108.888C133.548 108.992 134.146 109.818 134.135 111.435C134.126 113.053 133.696 114.153 131.701 114.291C129.707 114.43 129.139 115.496 129.166 117.32C129.195 119.144 129.698 120.487 131.969 120.521C136.582 120.591 133.934 116.356 138.44 116.185C140.467 116.108 142.553 117.322 142.742 122.828C142.952 128.989 141.289 130.371 138.473 130.517C135.423 130.675 124.878 130.739 120.31 130.359C117.664 130.138 116.855 126.707 119.768 125.763C116.921 124.819 117.935 121.262 120.075 121.262C120.185 117.131 120.047 104.504 119.933 101.716Z" fill="black"/>
<path d="M2.11522 98.1562C0.793944 97.8726 -0.0803246 97.4399 0.00584557 95.9302C0.13151 93.7418 1.72027 93.4851 4.36462 93.4115C6.89408 93.3415 16.5936 93.2679 19.2828 93.5515C21.999 93.8387 24.4369 94.3378 24.4369 100.197C24.4369 105.362 23.4316 107.008 21.3168 106.956C17.0891 106.852 19.0638 103.039 15.3549 102.971C13.1378 102.93 12.5472 104.323 12.5131 106.263C12.4808 108.204 13.1055 109.452 15.012 109.52C16.9185 109.59 18.4086 110.247 18.4427 112.846C18.4768 115.446 17.3314 116.329 15.2544 116.243C13.5902 116.173 12.5777 117.281 12.7249 120.471C12.9332 124.977 15.6709 123.208 15.775 127.091C15.8791 130.975 11.7645 133.005 8.55285 129.386C4.58723 133.1 0.835234 130.8 0.905247 127.021C0.973465 123.244 3.57473 124.388 3.57473 120.332C3.57473 116.277 3.26595 106.098 3.26595 102.978C1.19966 103.048 0.118944 102.239 0.133306 100.68C0.145872 99.2908 0.580313 98.605 2.11522 98.1562Z" fill="black"/>
<path d="M54.6597 102.488C51.8592 102.772 51.229 99.2459 53.5269 98.2083C51.5127 97.3897 51.01 93.5874 54.911 93.4869C70.7897 93.0776 73.811 94.3989 73.9762 103.319C74.0641 108.05 72.8326 111.123 71.4467 112.608C70.962 113.128 71.0033 113.633 71.655 113.959C72.9026 114.584 73.9115 117.229 74.1844 119.885C74.8433 126.298 79.202 122.842 78.3439 127.996C77.6851 131.948 73.1109 131.809 70.6496 130.804C68.1884 129.799 66.386 127.061 66.2478 123.664C66.1095 120.268 64.826 119.367 64.0289 119.367C63.2318 119.367 63.1744 120.604 63.1744 122.2C63.1744 124.487 65.4615 124.174 65.4274 127.433C65.3933 130.691 62.2427 132.574 58.5607 129.765C55.893 132.432 51.9507 131.039 52.0494 127.951C52.1625 124.348 54.7189 125.248 54.7871 122.06C54.859 118.871 54.8159 107.064 54.6597 102.488ZM64.3431 109.628C66.0288 108.567 66.2496 104.775 64.4813 103.043C63.7183 102.296 62.4401 102.594 62.5407 106.059C62.6448 109.628 63.406 110.216 64.3431 109.628Z" fill="black"/>
<path d="M147.046 101.797C144.246 102.08 143.616 98.5545 145.914 97.5169C143.899 96.6983 143.397 92.896 147.298 92.7955C163.176 92.3862 166.198 93.7074 166.363 102.628C166.451 107.358 165.219 110.432 163.833 111.916C163.349 112.437 163.39 112.941 164.042 113.268C165.289 113.893 166.298 116.537 166.571 119.194C167.23 125.607 171.589 122.151 170.731 127.305C170.072 131.256 165.498 131.118 163.036 130.113C160.575 129.107 158.773 126.37 158.635 122.973C158.496 119.576 157.213 118.675 156.416 118.675C155.619 118.675 155.561 119.912 155.561 121.508C155.561 123.795 157.848 123.483 157.814 126.741C157.78 129.999 154.629 131.883 150.947 129.073C148.28 131.741 144.337 130.348 144.436 127.26C144.549 123.657 147.106 124.556 147.174 121.368C147.246 118.18 147.203 106.371 147.046 101.797ZM156.728 108.934C158.414 107.873 158.634 104.082 156.866 102.35C156.103 101.603 154.825 101.901 154.926 105.366C155.03 108.934 155.793 109.523 156.728 108.934Z" fill="black"/>
<path d="M82.516 102.372C79.9901 102.372 78.7406 99.0205 82.0689 98.0044C78.5288 96.7064 80.4658 93.2578 83.0114 93.1178C89.8817 92.7408 92.5727 93.4948 93.7217 95.7281C94.7001 97.631 96.156 100.852 96.6335 101.81C97.6801 103.918 98.6513 103.71 99.5866 101.405C100.28 99.6955 101.217 97.7387 101.883 96.0763C102.827 93.7156 106.256 92.4967 113.275 93.1178C115.14 93.283 116.817 96.7064 113.631 98.0044C117.031 99.0671 115.494 102.372 113.559 102.372C113.403 104.607 113.781 118.233 113.832 120.988C113.884 123.744 116.092 123.76 116.077 126.83C116.056 131.103 112.205 132.463 108.649 129.334C105.367 132.426 101.202 131.022 101.22 127.114C101.238 123.267 104.493 123.538 104.473 120.834C104.439 116.068 103.468 115.948 102.601 117.612C101.734 119.276 100.348 122.256 99.6207 123.469C98.8937 124.683 96.9315 125.543 95.7395 123.227C94.5259 120.87 93.9371 119.656 92.8277 117.508C91.7182 115.359 90.6195 116.883 90.7129 120.141C90.8511 124.959 93.8186 123.995 93.824 127.428C93.8294 130.674 90.3072 132.684 86.7114 129.209C82.3759 132.898 79.5592 130.085 79.5664 127.209C79.5754 123.778 82.4657 123.99 82.5698 120.94C82.6721 117.886 82.5501 107.553 82.516 102.372Z" fill="black"/>
<path d="M133.423 61.435C130.707 60.5446 131.118 57.5089 132.648 56.9146C130.982 56.7315 129.725 52.5092 135.739 52.6223C140.03 52.7031 141.692 54.6706 143.022 56.6902C144.478 58.9001 147.832 63.6718 148.602 64.7166C147.832 55.9757 150.857 51.7749 155.968 51.8809C159.926 51.9634 161.739 53.475 161.739 57.1588C161.739 62.2985 157.533 61.2267 157.424 66.4221C157.33 70.8221 157.639 82.7639 157.639 84.6327C157.639 86.5015 156.704 88.8389 154.12 88.8928C151.537 88.9466 150.135 87.7384 148.954 85.2916C147.773 82.8447 144.947 76.3155 144.643 75.6567C144.34 74.9978 144.012 74.4754 143.351 74.4467C142.692 74.4198 142.39 75.4089 142.362 77.2777C142.279 82.4731 146.247 81.4552 146.211 85.4962C146.184 88.5194 144.478 89.4547 142.5 89.5372C140.522 89.6198 138.68 88.0813 138.267 87.0078C137.718 88.189 135.903 89.5372 133.842 89.4816C131.781 89.4259 129.951 88.2178 130.021 84.7817C130.131 79.3943 133.705 80.1644 133.759 75.9044C133.811 72.0285 133.709 64.0775 133.423 61.435Z" fill="black"/>
<path d="M105.504 70.5293C109.154 69.4378 106.328 61.6214 108.928 61.3073C110.7 61.0918 111.999 59.0991 111.944 56.8497C111.874 53.9487 109.816 52.8231 107.102 52.7674C103.404 52.692 101.047 54.4944 100.638 58.6898C99.9769 65.4686 98.3074 67.5492 97.1674 67.5187C96.1513 67.4918 96.049 66.5708 96.0526 62.528C96.0562 59.0291 99.3199 59.2338 99.3971 56.1693C99.4563 53.7889 98.1817 52.7997 96.3829 52.7495C94.5841 52.6992 93.6219 53.4837 92.2791 54.8014C91.8733 53.5088 90.6077 52.3438 88.7568 52.3438C86.9078 52.3438 85.2167 53.7871 85.1844 56.5248C85.1341 60.7813 87.5271 59.5013 87.8449 63.5172C88.1483 67.3679 88.1734 74.5631 87.8449 79.8069C87.59 83.8623 85.6655 82.4926 85.5147 86.7239C85.4213 89.3341 87.1106 90.2461 88.9597 90.2712C90.8088 90.2963 92.455 89.3592 93.0636 88.3198C93.3167 89.0038 94.7098 90.0432 96.5337 90.0181C99.0685 89.9822 99.9787 88.7004 99.9787 86.6485C99.9787 83.7348 96.7617 83.4315 96.812 80.543C96.8245 79.7818 97.1154 78.719 98.0273 78.7441C99.1673 78.7765 100.605 80.683 101.314 84.4332C102.023 88.1834 103.519 90.2604 107.217 90.1832C109.931 90.1276 112.093 89.3251 112.082 85.4205C112.071 81.8983 111.479 80.6219 109.382 80.9397C108.522 81.0707 107.829 79.3025 108.104 75.9634C108.312 73.4716 108.115 71.2797 105.504 70.5293Z" fill="black"/>
<path d="M42.5014 20.6485C39.8643 20.3738 40.3436 16.4711 42.4673 16.5734C40.55 14.8266 41.0599 12.834 43.5139 12.2326C44.5139 11.9884 45.9357 11.8915 47.8799 11.9579C51.2585 12.0746 54.2762 12.8411 55.7322 19.031C57.1881 25.2191 59.5865 34.6081 60.2561 37.8574C61.2955 42.902 64.9883 39.6778 65.0403 45.0867C65.0816 49.4545 60.6133 49.8674 57.0983 47.5839C52.8526 49.7292 49.2299 49.1421 49.2299 45.295C49.2299 41.4478 52.6749 41.9792 52.0376 40.0422C51.605 38.7245 51.1185 38.335 49.1258 38.378C47.5316 38.4121 46.6358 38.6742 46.3342 40.0422C45.8836 42.0887 47.3162 41.2055 47.2803 45.2106C47.2444 49.4401 42.4404 49.7758 40.2036 47.7221C36.7334 49.731 33.4033 49.0919 33.4697 45.347C33.5469 40.9524 37.631 41.9146 39.0349 37.3386C40.4423 32.7626 41.3058 24.887 42.5014 20.6485ZM49.492 28.0035C49.1276 27.1454 48.5728 27.0467 48.0881 28.0035C47.1259 29.901 47.5945 31.3067 48.738 31.3067C50.3501 31.3049 49.8564 28.8616 49.492 28.0035Z" fill="black"/>
<path d="M28.4389 102.848C25.8018 102.573 26.2811 98.6703 28.4048 98.7726C26.4875 97.0259 26.9974 95.0332 29.4514 94.4318C30.4514 94.1876 31.8732 94.0907 33.8174 94.1571C37.196 94.2738 40.2137 95.0404 41.6697 101.23C43.1256 107.418 45.524 116.807 46.1936 120.057C47.233 125.101 50.9258 121.877 50.9778 127.286C51.0191 131.654 46.5508 132.067 43.0358 129.783C38.7901 131.928 35.1674 131.341 35.1674 127.494C35.1674 123.645 38.6124 124.178 37.9751 122.241C37.5425 120.924 37.056 120.534 35.0633 120.577C33.4691 120.611 32.5733 120.873 32.2717 122.241C31.8211 124.288 33.2537 123.405 33.2178 127.41C33.1819 131.639 28.3779 131.975 26.1411 129.921C22.6709 131.93 19.3408 131.291 19.4072 127.546C19.4844 123.152 23.5685 124.114 24.9724 119.538C26.3798 114.96 27.2415 107.084 28.4389 102.848ZM35.4277 110.201C35.0633 109.343 34.5086 109.244 34.0238 110.201C33.0616 112.098 33.5302 113.504 34.6737 113.504C36.2876 113.504 35.7921 111.059 35.4277 110.201Z" fill="black"/>
<path d="M116.279 62.7842C116.227 59.1955 113.68 61.12 113.68 56.4919C113.68 52.5389 116.985 51.3522 121.374 54.3862C124.343 51.4815 128.607 52.7471 128.657 56.8025C128.709 60.8597 125.849 59.454 125.797 63.0427C125.745 66.6313 126.006 77.1369 126.006 79.6322C126.006 82.1294 128.347 81.5567 128.451 85.3015C128.555 89.0463 126.539 90.9852 121.182 88.1451C116.469 90.9205 113.994 89.1504 113.942 85.718C113.89 82.2856 116.595 82.702 116.595 79.4258C116.592 76.1495 116.338 66.9491 116.279 62.7842Z" fill="black"/>
<path d="M160.822 71.2125C161.109 53.9497 170.703 52.4902 174.239 52.4902C177.776 52.4902 177.29 53.9282 179.162 53.9641C181.034 53.9982 179.993 52.1958 182.803 52.1258C185.61 52.0557 187.063 56.8256 185.68 61.2778C184.745 64.2937 183.67 66.5377 181.173 66.5126C177.636 66.4785 178.92 63.4105 175.071 63.4105C172.609 63.4105 171.026 66.29 170.909 70.6919C170.771 75.9967 172.193 79.5853 175.243 79.5494C177.67 79.5225 178.668 76.2265 175.589 75.9949C174.204 75.8908 173.688 74.627 173.717 72.9269C173.751 70.8462 174.548 69.8068 179.645 69.8068C185.366 69.8068 185.817 72.821 185.817 79.7218C185.817 85.4772 183.39 89.7768 174.394 89.7768C166.075 89.7786 160.616 83.6928 160.822 71.2125Z" fill="black"/>
<path d="M8.79781 61.1381C8.47647 56.1546 11.2806 52.092 18.1347 51.6396C21.2135 51.4368 23.2583 53.4205 24.8883 52.9411C31.9722 50.8641 32.1446 56.7201 28.4123 58.2945C31.5629 62.4378 27.556 65.0732 24.4413 62.5743C23.3642 61.709 21.7934 61.2261 21.0286 61.3751C19.1562 61.7395 19.3267 63.6693 20.7342 64.2941C28.1305 67.5811 30.5289 72.0207 30.7192 77.602C30.9633 84.8098 25.9223 88.5905 21.0699 88.7108C17.361 88.8023 17.3538 87.8311 15.2103 88.0286C13.0668 88.2261 13.5138 89.734 10.6056 89.8597C7.69555 89.9872 4.82321 84.4525 10.5069 82.6034C6.29529 77.4332 11.1711 75.7583 12.5229 75.7206C14.5676 75.6667 15.3216 78.6181 17.6715 78.4116C20.0215 78.2052 20.6947 74.1193 17.0953 72.3294C12.7311 70.1626 9.24841 68.1286 8.79781 61.1381Z" fill="black"/>
<path d="M173.755 101.982C173.433 96.9983 176.238 92.9358 183.092 92.4834C186.171 92.2805 188.215 94.2642 189.845 93.7849C196.929 91.7078 197.102 97.5638 193.369 99.1382C196.52 103.282 192.513 105.917 189.398 103.418C188.321 102.553 186.75 102.07 185.986 102.219C184.113 102.583 184.284 104.513 185.691 105.138C193.087 108.425 195.486 112.864 195.676 118.446C195.92 125.654 190.879 129.434 186.027 129.555C182.318 129.646 182.311 128.675 180.167 128.872C178.024 129.07 178.471 130.578 175.563 130.703C172.653 130.831 169.78 125.296 175.464 123.447C171.252 118.277 176.128 116.602 177.48 116.564C179.525 116.51 180.279 119.462 182.629 119.255C184.979 119.049 185.652 114.963 182.052 113.173C177.688 111.008 174.205 108.972 173.755 101.982Z" fill="black"/>
<path d="M193.108 66.3869C193.605 62.6367 195.593 62.3621 197.309 62.6762C199.023 62.9904 199.513 61.5219 199.689 60.4717C199.863 59.4215 199.655 58.3372 198.779 59.0715C197.975 58.2672 198.325 56.4109 199.303 55.0107C200.283 53.6104 200.738 51.23 199.897 49.1314C199.057 47.031 199.023 44.6864 199.373 43.5321C196.363 42.3419 195.348 40.0673 195.348 37.2327C195.348 34.3981 196.917 30.8471 200.073 28.8329C204.238 26.1724 206.339 23.4778 208.089 19.9771C209.839 16.4764 209.909 14.5879 211.344 12.8016C212.778 11.0172 216.139 9.86108 218.343 8.60085C220.548 7.34061 228.247 3.28163 231.994 1.60131C235.741 -0.0790076 240.816 -0.193901 244.315 0.201045C250.824 0.935287 255.165 3.31574 257.685 4.82192C260.206 6.32631 263.321 8.00663 265.981 8.32259C268.642 8.63855 273.437 10.5271 276.551 15.7422C279.666 20.9573 281.8 27.4667 284.041 34.0821C286.281 40.6975 286.911 43.7421 287.226 47.0669C287.54 50.3916 286.946 51.7919 286.561 54.1723C286.177 56.5528 285.791 58.023 285.791 59.7016C285.791 61.3801 285.935 61.8756 287.576 62.012C290.97 62.2921 292.931 64.0065 293.735 67.4713C294.539 70.936 293.315 75.3468 292.615 77.6214C291.915 79.8959 290.55 83.3607 289.57 88.2957C288.59 93.2308 286.209 95.7512 283.515 96.1354C282.039 96.3455 280.452 96.7835 280.163 99.5122C279.874 102.243 278.745 108.7 277.774 112.192C276.803 115.683 274.86 120.802 271.92 124.528C268.979 128.255 266.092 132.456 259.45 135.449C252.81 138.441 246.027 138.835 241.688 138.554C237.347 138.274 231.188 136.21 226.393 133.059C221.598 129.909 216.349 124.274 213.618 118.604C210.888 112.935 207.983 104.989 207.703 97.7798C207.644 96.2754 207.055 94.6562 205.192 95.1552C203.328 95.6543 201.334 94.7082 200.099 93.1859C198.865 91.6635 196.659 88.3029 196.162 85.7304C195.663 83.1578 194.822 78.5118 193.772 75.3612C192.722 72.2106 192.837 68.4335 193.108 66.3869ZM196.363 78.3215C196.747 80.772 198.533 82.0484 199.373 82.5223C200.213 82.9962 200.791 83.2745 200.826 84.1326C200.86 84.9907 200.353 85.4108 199.407 85.1649C198.463 84.9207 198.059 85.0607 198.025 85.707C197.991 86.3551 198.637 88.0175 199.687 89.5577C200.738 91.098 201.928 92.3924 204.202 92.1303C206.477 91.8682 207.089 91.098 207.195 88.1234C207.272 85.953 206.321 84.6227 206.373 82.4703C206.394 81.596 206.477 80.702 207.107 80.5278C207.737 80.3537 208.261 80.2657 208.471 81.298C208.681 82.3302 208.313 84.1147 208.471 86.4431C208.629 88.7715 208.961 92.2883 209.084 95.5789C209.206 98.8695 209.592 101.896 210.116 103.331C210.64 104.765 212.338 104.609 212.88 103.715C213.423 102.823 214.105 101.44 215.417 100.844C216.729 100.25 217.92 100.704 219.408 99.7941C220.584 99.0742 221.397 99.8677 221.07 100.738C220.212 103.031 218.656 103.539 216.659 104.115C215.738 104.381 214.961 105.165 214.909 106.6C214.857 108.034 215.277 109.574 216.483 110.17C217.692 110.765 218.137 111.585 218.216 113.075C218.356 115.736 219.23 117.398 221.401 119.69C223.571 121.983 225.495 122.245 227.946 122.647C230.396 123.049 231.657 125.22 232.513 126.444C233.369 127.668 234.387 127.798 235.663 127.354C237.624 126.672 239.688 126.724 242.191 127.914C244.693 129.105 246.618 131.589 250.697 132.219C253.651 132.675 256.086 131.939 257.732 130.591C259.378 129.243 259.5 128.036 259.814 126.304C260.129 124.572 261.61 124.272 263.175 123.941C266.816 123.171 269.422 120.495 270.193 119.058C270.6 118.299 270.911 117.658 272.065 117.01C273.219 116.362 274.025 116.59 275.18 114.508C276.334 112.425 276.632 110.745 277.262 108.294C277.892 105.844 278.47 103.027 278.802 100.577C279.135 98.1263 279.152 95.5717 279.257 93.2613C279.361 90.9508 280.115 90.2687 280.955 90.3387C281.795 90.4087 281.619 92.001 281.619 93.0692C281.619 94.1373 283.039 94.5269 284.576 93.5593C287.078 91.9849 287.306 88.9384 287.849 86.5777C288.391 84.2152 288.899 82.0107 289.967 79.2101C291.035 76.4096 292.049 73.3129 292.119 70.9324C292.189 68.552 290.615 65.1393 289.583 64.7892C288.55 64.4391 287.954 65.2093 288.374 65.7335C288.795 66.2577 289.355 66.6257 290.089 67.5179C290.823 68.4101 290.701 72.681 290.177 74.5695C289.888 75.6089 289.635 76.0039 289.023 75.8998C288.41 75.7957 288.008 75.2517 287.972 74.4654C287.936 73.6791 287.832 71.1927 287.464 70.0205C287.096 68.8482 285.976 68.4802 285.242 68.6561C284.508 68.832 284.052 68.8661 283.422 68.534C282.791 68.2019 282.441 68.166 281.793 69.0421C281.145 69.9163 281.129 71.9467 281.181 72.6289C281.233 73.3111 281.513 73.7671 280.953 73.9412C280.393 74.1153 280.025 74.0453 279.729 73.347C279.431 72.6469 279.099 70.7744 279.029 67.0117C278.959 63.2489 279.817 58.944 280.727 55.3751C281.637 51.8044 282.949 48.1296 283.387 45.7851C283.825 43.4405 283.387 41.0601 280.991 39.3798C278.594 37.6994 268.11 29.8256 263.823 27.2693C259.536 24.7147 256.228 22.8064 250.732 21.7221C250.027 21.582 249.35 21.3199 249.454 20.7778C249.558 20.2356 250.185 20.1674 250.855 20.2177C254.565 20.4977 260.497 23.0523 264.295 25.2048C268.092 27.3572 274.778 31.4342 279.503 35.635C280.113 36.1771 280.937 36.4751 281.305 36.055C281.673 35.635 281.043 34.3873 280.413 33.7446C276.966 30.2278 269.545 24.7488 267.742 22.8943C265.94 21.0399 265.888 20.8119 265.694 18.9915C265.5 17.1712 264.924 16.0169 262.053 13.9165C259.183 11.8161 255.176 10.2058 252.043 9.03349C248.91 7.86122 244.221 7.45909 242.699 7.77325C241.177 8.08741 240.126 8.68343 240.669 10.5738C240.848 11.2021 241.053 12.2541 240.336 12.7621C239.618 13.2702 239.392 14.0044 239.846 14.5466C240.301 15.0887 240.634 15.2988 240.441 16.331C240.247 17.3633 238.656 17.6792 237.938 17.9234C237.22 18.1675 237.484 18.6235 238.27 18.8515C239.058 19.0795 246.372 21.6161 250.573 23.4885C254.774 25.361 257.152 26.7612 261.301 29.5779C265.45 32.3946 265.956 33.1306 269.597 35.9653C273.237 38.7999 277.804 41.6184 280.797 43.2269C281.729 43.7278 281.811 44.0671 281.601 44.3992C281.391 44.7313 281.303 44.7834 280.587 44.6613C279.869 44.5392 277.472 43.1569 275.582 41.6166C273.691 40.0763 268.826 36.8395 265.572 34.495C262.317 32.1504 260.357 30.8381 256.454 28.2297C252.551 25.6213 247.196 23.6627 243.363 22.1565C239.53 20.6521 234.227 19.8119 230.342 19.5319C226.458 19.2518 221.471 19.882 217.008 21.2643C212.545 22.6466 208.362 25.045 205.615 26.9336C202.869 28.8221 200.156 31.5706 198.738 33.653C197.32 35.7355 197.32 37.66 197.618 38.4301C197.916 39.2002 198.302 39.0961 198.352 38.326C198.526 35.6655 200.77 33.3407 203.391 30.8884C207.172 27.3536 212.875 25.0953 216.218 23.7668C219.56 22.4366 224.057 21.5084 227.784 21.2643C231.511 21.0201 237.252 21.7364 241.189 22.7346C245.126 23.7327 247.909 25.0971 251.461 26.8653C255.014 28.6336 257.727 30.5222 261.383 33.4627C265.04 36.4033 268.191 38.8879 270.833 40.7082C273.476 42.5286 276.819 44.225 277.955 44.979C279.093 45.7312 278.887 46.6217 277.903 47.2015C274.542 49.1798 268.349 49.774 263.798 50.1582C259.247 50.5424 255.38 50.3683 251.635 49.7381C247.891 49.108 242.92 47.5336 239.421 47.0076C235.922 46.4816 232.369 46.7096 228.957 48.3899C225.544 50.0703 224.32 52.3627 217.092 54.1292C213.947 54.8994 210.635 54.7773 207.956 53.3411C207.344 55.4756 207.764 58.7483 208.27 60.5687C208.778 62.389 208.9 64.1034 208.638 65.8017C208.376 67.5 207.5 72.8533 207.43 74.5875C207.36 76.3199 206.468 76.8099 205.646 77.3341C204.824 77.8584 203.861 79.6087 204.281 80.6589C204.701 81.7091 204.154 82.8275 202.671 82.9693C199.73 83.2494 197.912 79.7846 197.928 77.7542C197.946 75.7238 198.4 73.7114 201.463 73.0292C202.711 72.751 202.967 72.3991 203.021 71.4889C203.073 70.5788 202.373 70.1246 201.393 70.2646C200.413 70.4046 200.343 69.6865 200.553 68.6902C200.763 67.6921 199.682 67.6436 199.1 68.306C196.661 71.094 195.977 75.871 196.363 78.3215Z" fill="black"/>
<path d="M204.541 83.9992C204.742 83.5001 205.474 83.1823 205.708 84.2092C205.941 85.2361 205.3 86.823 204.087 86.7638C202.873 86.7063 202.967 85.7136 203.283 85.2594C203.598 84.8052 204.32 84.5467 204.541 83.9992Z" fill="black"/>
<path d="M270.893 23.0544C270.397 22.6594 270.595 22.3542 271.365 22.7043C272.135 23.0544 276.86 26.3091 277.718 27.2013C278.576 28.0935 278.312 29.1958 276.948 28.4795C275.583 27.7614 272.187 24.0866 270.893 23.0544Z" fill="black"/>
<path d="M223.803 71.6222C223.169 72.1392 222.893 72.2523 221.773 72.0764C220.652 71.9004 218.256 72.1284 216.874 72.8106C215.491 73.4928 214.703 73.0548 214.791 71.9525C214.879 70.8503 215.789 68.1377 218.432 66.7554C221.074 65.3731 225.117 65.3372 225.799 65.2671C226.482 65.1971 226.744 64.6191 225.817 64.0069C224.891 63.3947 220.654 61.9945 219.798 61.9244C218.942 61.8544 218.538 62.4325 218.154 62.8687C217.769 63.3068 216.999 63.2368 216.491 63.0429C215.983 62.849 215.477 63.1829 215.179 63.603C214.881 64.0231 214.129 64.1272 213.394 63.6909C212.66 63.2529 212.624 62.3966 213.08 61.3464C213.534 60.2962 216.003 58.3197 217.351 57.6536C218.699 56.9894 220.116 57.2156 221.622 57.6357C223.126 58.0558 225.805 58.8439 228.709 59.158C231.614 59.4722 233.398 61.1184 235.167 61.8006C236.935 62.4828 237.161 63.7951 237.285 64.8273C237.407 65.8596 238.685 67.1018 239.123 68.1179C239.561 69.134 239.754 70.2363 239.245 70.6546C238.737 71.0746 238.807 72.369 238.091 72.579C237.373 72.7891 236.849 72.351 236.533 71.8789C236.551 72.9812 236.393 73.6813 235.063 73.4892C233.732 73.2971 232.944 73.2271 232.472 72.6491C232 72.071 232.438 71.4409 231.912 70.9687C231.388 70.4966 231.192 70.9939 230.862 71.5468C230.214 72.6311 228.849 73.2612 227.555 73.2271C226.261 73.193 225.437 72.0548 225.035 71.5989C224.632 71.1429 224.275 71.2362 223.803 71.6222ZM225.284 68.3028C226.428 68.0354 228.575 67.9761 229.029 67.9995C229.483 68.0228 229.496 67.626 229.063 67.4286C228.63 67.2311 227.022 66.8451 225.412 66.9385C223.801 67.0318 222.028 67.9528 221.27 68.5129C220.512 69.073 221.044 69.7947 221.701 69.5038C222.87 68.9904 224.141 68.5703 225.284 68.3028ZM225.634 70.7282C225.984 71.0082 226.438 70.9023 226.952 70.4948C227.465 70.0873 227.499 69.3746 227.126 69.1771C226.753 68.9796 226.381 69.152 225.819 69.5739C225.401 69.888 225.284 70.4481 225.634 70.7282Z" fill="black"/>
<path d="M226.4 77.2241C225.9 77.2044 225.467 76.2385 226.25 76.1631C228.291 75.9657 232.199 74.6462 232.852 74.3195C233.506 73.9927 234.113 74.192 234.357 74.7036C234.601 75.2153 234.097 75.8185 233.447 76.1039C231.325 77.0374 228.138 77.2941 226.4 77.2241Z" fill="black"/>
<path d="M250.891 70.0975C250.774 69.1891 251.941 67.2808 253.095 66.4406C254.25 65.6005 255.214 65.4604 255.86 65.4263C256.508 65.3922 256.77 64.7262 255.86 64.4282C254.95 64.1302 254.478 64.6562 254.076 64.7424C253.673 64.8303 252.851 64.4982 252.605 63.5701C252.359 62.642 252.919 61.8377 253.708 61.3997C254.496 60.9616 255.855 60.4554 256.578 60.2615C257.558 59.9994 257.592 60.8216 258.503 60.2094C259.413 59.5973 259.571 59.4213 261.319 59.2472C263.07 59.0731 265.418 59.2023 266.324 59.4752C267.725 59.8953 268.023 60.8234 269.019 60.9275C270.017 61.0317 270.593 61.1896 270.593 61.6618C270.593 62.1339 269.918 62.7299 269.299 62.9041C268.057 63.2541 268.495 62.466 266.376 62.852C264.258 63.2362 261.931 64.0063 261.197 64.3743C260.463 64.7424 260.702 65.3509 261.389 65.5987C263.472 66.3509 266.884 66.9989 268.477 67.1731C270.069 67.3472 271.241 68.1712 271.767 69.0975C272.292 70.0257 272.03 70.4978 271.295 70.6019C270.561 70.7061 269.931 70.4098 269.301 69.7618C268.671 69.1137 267.392 68.2574 265.1 67.6614C262.808 67.0654 261.389 67.2772 260.865 67.3293C260.341 67.3813 260.217 67.6973 260.865 67.8014C261.513 67.9055 267.252 69.2017 268.197 69.6918C269.141 70.1819 269.965 70.7061 269.895 71.1441C269.825 71.5821 268.933 71.5462 267.813 71.5642C265.624 71.5983 265.87 70.7438 264.978 70.7761C264.506 70.794 264.244 71.1782 263.578 71.5642C262.913 71.9483 261.653 72.6844 260.131 72.6485C258.609 72.6144 258.1 71.4403 257.244 71.3882C256.388 71.3362 255.65 72.162 254.568 72.2984C252.623 72.5479 251.049 71.3236 250.891 70.0975ZM259.641 70.0813C259.955 69.7313 260.165 69.1191 259.571 68.839C258.977 68.559 258.539 68.8211 258.188 69.2412C257.838 69.6612 257.616 70.4206 258.398 70.5355C258.993 70.6235 259.327 70.4314 259.641 70.0813Z" fill="black"/>
<path d="M254.305 75.135C253.928 75.0058 253.797 74.5749 253.991 74.2248C254.183 73.8748 254.639 73.7868 255.13 73.9268C255.62 74.0669 259.592 75.3792 260.239 75.4851C260.887 75.5892 260.957 76.1331 260.869 76.3773C260.781 76.6214 260.449 76.7274 259.995 76.6753C259.54 76.6232 255.688 75.6071 254.305 75.135Z" fill="black"/>
<path d="M281.745 76.2537C281.201 75.4261 281.361 74.2753 282.095 73.787C282.829 73.2969 283.337 72.8948 284.056 73.6129C284.774 74.331 285.386 74.6972 286.12 74.8211C286.854 74.9449 288.517 76.8156 288.587 78.3559C288.657 79.8961 287.939 80.8404 286.906 81.7165C285.874 82.5908 285.016 83.4489 284.124 83.4309C283.232 83.413 283.056 82.5387 283.319 81.7165C283.582 80.8943 283.984 79.3899 283.407 78.5838C282.829 77.776 282.217 76.9699 281.745 76.2537Z" fill="black"/>
<path d="M281.886 86.0951C281.629 85.7469 281.798 85.1509 282.254 84.7308C282.708 84.3107 283.216 84.0666 283.496 84.5567C283.776 85.0467 283.566 85.6069 283.216 85.9049C282.866 86.2011 282.184 86.4973 281.886 86.0951Z" fill="black"/>
<path d="M279.853 86.7921C280.035 86.2015 280.728 85.5319 281.096 86.7042C281.464 87.8765 281.218 88.7166 280.886 89.1367C280.553 89.5568 279.731 89.5388 279.643 88.8925C279.555 88.2445 279.643 87.4743 279.853 86.7921Z" fill="black"/>
<path d="M225.06 98.6703C224.449 98.6237 224.219 98.2395 224.289 97.7727C224.359 97.306 224.767 97.1426 225.363 96.8859C225.957 96.6292 226.844 96.6884 227.311 96.4084C227.778 96.1283 228.221 95.8016 228.535 96.1409C228.849 96.4784 228.663 97.0152 228.418 97.4352C228.174 97.8553 226.751 98.7978 225.06 98.6703Z" fill="black"/>
<path d="M233.295 92.0984C232.221 92.3013 231.861 91.8309 231.884 91.4216C231.907 91.0141 232.455 90.664 232.851 90.1847C233.248 89.7054 235.429 87.1508 235.733 86.7541C236.036 86.3573 236.223 86.3106 236.456 86.4507C236.69 86.5907 236.677 87.0916 236.514 87.4416C236.35 87.7917 235.289 89.9729 234.857 90.743C234.426 91.515 233.912 91.9817 233.295 92.0984Z" fill="black"/>
<path d="M234.498 95.8289C234.658 94.1306 237.379 93.4143 238.349 93.7411C239.316 94.0678 240.799 94.5579 242.316 94.2186C243.833 93.8811 245.654 93.6351 246.481 94.4394C247.309 95.2437 247.822 95.547 248.779 94.9295C249.736 94.3119 250.016 93.9852 251.206 94.4986C252.396 95.0121 252.98 95.9564 252.337 96.9491C251.696 97.9401 250.879 98.7335 249.793 99.1428C248.709 99.5504 248.479 100.36 248.382 101.08C247.939 104.324 245.081 105.211 242.957 105.094C240.833 104.977 239.503 104.884 238.385 105.631C237.265 106.378 236.787 106.844 236.331 107.299C235.877 107.753 236.399 108.539 237.405 108.092C240.392 106.762 241.772 107.334 242.666 107.719C244.16 108.359 246.004 108.943 247.578 108.442C249.152 107.941 251.37 106.902 252.816 107.345C254.263 107.789 256.561 107.975 258.848 107.509C261.136 107.042 262.033 107.112 262.22 106.424C262.407 105.737 262.534 104.627 263.48 104.464C264.424 104.3 265.428 104.871 265.884 105.911C266.338 106.948 266.548 109.085 266.385 110.042C266.221 110.998 265.661 111.406 264.95 111.476C264.239 111.546 263.773 111.208 263.189 110.589C262.606 109.97 262.152 109.085 260.705 109.212C259.258 109.34 255.152 110.309 251.721 110.799C248.291 111.289 245.176 111.499 241.397 111.44C237.616 111.383 235.284 111.533 232.751 111.918C230.22 112.302 229.251 112.571 228.657 112.641C228.062 112.711 227.63 113.399 227.059 113.562C226.488 113.725 225.904 113.562 225.438 112.804C224.971 112.047 223.7 110.634 222.883 110.133C222.066 109.632 221.996 108.359 222.813 108.209C223.63 108.058 224.237 107.789 224.89 107.078C225.544 106.367 226.931 105.923 227.865 105.97C228.798 106.017 229.579 106.6 230.269 106.798C230.956 106.995 231.75 107.031 232.753 106.483C233.757 105.936 236.965 103.532 237.606 102.679C238.247 101.828 237.769 100.942 236.999 100.532C236.225 100.121 234.288 98.0675 234.498 95.8289Z" fill="black"/>
<path d="M239.179 117.821C238.443 117.305 238.059 115.58 239.389 115.772C240.719 115.964 242.224 116.454 244.202 116.086C246.18 115.718 247.703 115.422 248.821 115.842C249.941 116.262 250.151 117.891 249.013 119.133C247.875 120.375 246.703 121.267 244.672 120.847C242.642 120.427 242.432 118.957 241.366 118.643C240.299 118.327 239.705 118.187 239.179 117.821Z" fill="black"/>
<path d="M270.894 104.552C271.089 105.356 270.72 106.004 270.176 106.092C269.633 106.18 269.38 105.559 269.265 104.814C268.933 102.661 266.217 99.7818 262.108 97.7263C259.903 96.624 260.376 95.3638 260.638 94.9258C260.9 94.4877 262.196 94.9599 262.65 95.1879C265.749 96.7479 269.844 100.231 270.894 104.552Z" fill="black"/>
</svg>