<svg xmlns="http://www.w3.org/2000/svg" width="264" height="144" viewBox="0 0 264 144" fill="none">
<path d="M263.099 101.895C262.851 100.553 262.272 99.5043 261.503 98.387C261.368 98.1915 261.233 97.9961 261.059 97.8376C260.351 97.1878 259.119 96.8101 258.247 96.4324C256.891 95.8486 255.536 95.3441 254.122 94.9215C253.308 94.6785 252.515 94.4144 251.751 94.0737C251.735 94.071 251.722 94.071 251.706 94.0684C251.685 94.0684 251.664 94.0631 251.643 94.0552C251.22 93.931 250.795 93.5665 250.409 93.3896C249.087 92.7794 247.607 92.5523 246.162 92.6024C242.562 92.7292 240.229 94.8476 238.107 97.5338C233.928 102.819 225.413 99.911 220.511 97.1852C217.982 95.7773 203.877 91.9289 203.05 89.0155C201.42 83.2732 219.856 7.23439 219.515 -2.55177L159.846 -4.05469C159.899 -3.95696 159.87 82.4069 159.68 83.8121C159.083 88.1967 154.709 96.8207 152.188 100.244C149.751 103.551 146.931 106.897 145.612 110.78C144.788 113.208 144.362 115.59 144.339 118.16C144.317 120.249 144.817 122.035 145.084 124.071C145.623 128.184 147.959 131.729 151.408 133.95C155.525 136.602 160.026 136.726 164.767 135.955C169.252 135.226 173.523 133.292 178.145 133.493C180.204 133.583 182.445 133.622 184.366 134.457C186.285 135.289 188.021 136.388 189.646 137.69C196.43 143.129 205.685 144.148 214.073 142.997C218.394 142.402 221.933 140.775 225.366 138.144C227.036 136.866 227.995 135.783 230.289 136.346C232.078 136.784 233.794 137.46 235.514 138.078C239.182 139.399 244.092 139.182 246.566 135.749C247.972 133.794 248.136 131.803 248.215 129.552C248.186 129.383 248.154 129.217 248.133 129.048C247.983 127.922 247.94 126.781 247.734 125.661C247.512 124.46 247.126 123.295 246.738 122.138C246.262 120.722 245.58 119.779 244.433 118.831C242.652 117.36 240.63 117.069 238.384 117.045C237.301 117.035 236.254 117.114 235.205 117.381C234.877 117.463 232.94 118.263 232.599 117.877C232.337 117.582 234.861 115.809 235.229 115.624C236.722 114.882 238.355 114.922 239.949 115.167C243.014 115.64 245.826 117.299 247.343 120.02C248.067 121.314 249.582 129.246 250.15 130.242C250.792 131.367 253.501 131.383 254.64 131.383C255.993 131.383 257.364 131.171 258.533 130.45C259.791 129.674 260.745 128.49 261.252 127.104C261.997 125.064 261.638 122.568 261.117 120.519C260.605 118.493 259.859 116.327 258.805 114.512C258.496 113.979 258.16 113.466 257.843 112.943C257.222 112.304 256.728 111.454 256.13 110.857C255.02 109.747 253.728 108.884 252.301 108.231C251.49 107.859 250.641 107.563 249.78 107.336C249.473 107.254 247.808 107.132 247.673 106.921C247.118 106.055 250.639 106.248 250.995 106.306C254.254 106.823 256.714 109.032 258.995 111.219C260.353 112.521 260.988 111.889 261.751 110.413C262.468 109.029 262.999 107.571 263.21 106.023C263.393 104.65 263.35 103.25 263.099 101.895ZM172.122 117.463C169.352 119.034 164.513 118.469 162.616 115.825C161.62 114.438 161.149 112.568 161.321 110.891C161.443 109.726 161.752 106.636 162.957 106.013C163.065 106.295 163.02 106.615 163.02 106.913C162.978 107.624 163.01 107.077 163.018 106.942C162.896 108.923 162.545 110.674 163.581 112.513C164.334 113.852 166.028 114.597 167.473 115.027C168.578 115.358 169.82 115.376 170.962 115.387C171.728 115.395 172.777 114.959 173.465 115.03C174.944 115.186 172.849 117.051 172.122 117.463ZM241.458 127.468C242.66 128.091 244.111 127.701 245.078 128.82C245.168 129.47 245.319 130.165 245.345 130.862C245.401 132.275 244.832 133.078 243.403 133.414C242.673 133.585 241.917 133.678 241.17 133.717C240.464 133.754 239.753 133.67 238.775 133.628C240.052 131.668 240.142 129.365 241.458 127.468ZM258.218 123.245C258.498 123.849 258.755 124.404 259.056 125.054C258.778 125.775 258.485 126.533 258.223 127.207C257.634 127.605 257.135 127.944 256.632 128.279C256.138 128.184 255.644 128.086 255.266 128.012C254.849 127.418 254.481 126.892 254.111 126.367C255.557 125.503 256.461 123.905 258.218 123.245ZM261.63 104.111C260.745 105.574 260.414 105.754 258.585 105.669C258.015 103.968 258.533 102.172 258.313 100.474C258.504 100.283 258.644 100.143 258.786 100.001C259.637 99.8556 259.986 100.709 260.649 100.936C260.998 101.987 261.973 102.846 261.63 104.111Z" fill="black"/>
<path d="M112.858 98.455C111.457 96.0619 110.353 93.6002 108.78 91.2969C107.335 89.1812 106.188 86.8463 105.191 84.4928C104.129 81.973 103.677 78.9249 104.118 76.2334C104.454 74.1837 113.738 -5.44476 113.429 -6.23716L52.9307 -9C54.3975 5.82848 62.775 71.8329 63.1424 75.5281C63.5414 79.5535 66.6097 85.3354 58.0656 88.2673C54.6855 89.4269 45.5045 95.2906 42.0531 95.7423C38.9663 96.1464 34.1935 96.1174 32.3885 92.9874C30.6337 89.9419 29.2964 87.496 25.66 86.3893C23.5828 85.758 21.5954 85.7052 19.5156 86.3444C16.9732 87.1263 13.1994 87.0497 10.9926 88.6371C10.2712 89.1574 8.86521 89.8468 8.23359 90.4755C6.98885 92.0999 7.72618 94.0149 8.37366 96.0117C8.89164 97.615 11.4683 98.1961 13.0857 97.3746C15.7919 95.9985 18.4822 96.2098 19.9913 99.3953C20.7603 101.022 18.5589 99.3187 17.8559 99.0228C16.154 98.307 14.3675 98.3731 12.5783 98.7402C11.4049 98.9806 10.2447 99.3451 9.16649 99.8681C7.99045 100.439 6.79592 100.832 5.7071 101.593C4.576 102.385 3.57703 103.352 2.64942 104.366C1.11662 106.044 -0.265552 108.614 0.0436517 110.964C0.178433 111.984 0.67263 112.908 0.907837 113.904C1.18004 115.048 1.66631 116.553 3.09076 116.556C4.61035 116.559 6.01895 114.541 7.3879 113.901C8.90221 113.194 11.0904 112.916 12.721 113.244C14.0133 113.505 16.3046 114.184 16.6534 115.65C15.5435 115.864 14.4071 115.344 13.3262 115.175C11.8912 114.947 10.6676 115.159 9.2722 115.46C6.9862 115.951 5.24726 117.428 3.91002 119.322C3.71974 119.591 3.49246 119.998 3.2414 120.426C2.15522 122.927 1.77202 125.653 1.89359 128.392C1.92266 129.034 1.98873 129.686 2.09708 130.339C3.02469 131.731 3.2229 133.455 4.95391 134.448C7.55176 135.938 10.1919 135.906 13.0936 135.457C15.4827 135.088 17.996 133.603 20.4643 133.764C21.6509 133.841 22.1504 134.707 23.226 135.175C24.3915 135.679 25.5701 136.149 26.733 136.665C29.2013 137.761 31.3657 138.273 34.0878 138.123C39.1593 137.843 43.9585 135.785 48.4565 133.511C50.8377 132.306 53.2214 130.722 55.7162 129.808C58.3616 128.838 60.978 127.887 63.7185 127.232C69.3608 125.888 75.1802 125.729 80.5159 128.212C85.1646 130.376 90.0114 133.479 95.3287 133.157C100.271 132.856 106.111 130.611 109.816 127.261C113.643 123.804 115.038 118.762 115.834 113.891C116.714 108.513 115.607 103.151 112.858 98.455ZM12.4462 94.934C12.1079 94.934 11.8806 94.934 11.5053 94.934C11.1512 94.4375 10.7416 93.859 10.4165 93.3994C10.4165 92.6731 10.4165 92.1025 10.4165 91.7803C10.7839 91.2996 11.027 90.9826 11.1591 90.8083C12.0656 90.8083 12.7924 90.8083 13.461 90.8083C13.1095 92.2267 12.7765 93.587 12.4462 94.934ZM4.58657 111.667C4.01309 111.149 3.4079 110.605 2.87141 110.122C2.7102 109.43 2.57278 108.841 2.43536 108.254C2.70228 107.826 2.9692 107.401 3.17269 107.074C3.87831 106.897 4.49936 106.741 5.12305 106.585C5.41904 108.241 6.58979 109.654 6.57657 111.532C5.91324 111.577 5.30012 111.619 4.58657 111.667ZM6.24623 129.427C5.97402 129.055 5.63311 128.593 5.2869 128.12C5.2869 127.776 5.4349 127.293 5.26048 127.103C4.64471 126.421 5.18119 125.817 5.31597 125.23C5.46133 124.602 5.7996 123.994 6.55543 123.814C7.0972 123.688 7.63104 123.524 8.0301 123.416C8.50579 123.838 8.87843 124.168 9.18234 124.44C9.25106 126.26 10.0148 127.811 10.4139 129.691C9.04228 130.74 7.72354 129.617 6.24623 129.427ZM98.0137 108.915C97.1812 111.464 95.0987 113.746 92.1309 113.157C91.9274 113.117 90.3259 112.729 90.2863 112.465C90.1858 111.812 90.1568 112.314 90.8835 111.823C92.123 110.985 93.6082 110.972 94.6865 109.739C95.4185 108.901 96.1506 107.99 96.4518 106.897C96.5364 106.588 97.0042 103.236 96.724 103.23C96.724 103.083 96.7188 101.297 96.7927 101.316C97.4534 101.479 98.0454 103.769 98.2251 104.448C98.6321 105.983 98.5079 107.404 98.0137 108.915Z" fill="black"/>
</svg>