<svg xmlns="http://www.w3.org/2000/svg" width="284" height="228" viewBox="0 0 284 228" fill="none">
<path d="M272.04 108.416C262.634 108.212 260.438 108.803 260.438 116.011C260.438 123.941 263.659 124.467 270.869 124.503C281.336 124.547 283.693 124.197 283.569 116.836C283.43 109.008 281.717 108.62 272.04 108.416Z" fill="#1D1D1B"/>
<path d="M145.81 223.425C154.798 222.505 159.124 220.453 158.715 211.281C158.495 206.388 154.798 202.722 140.247 203.591C140.247 201.627 140.247 200.436 140.144 198.516C147.42 198.078 153.32 196.975 153.32 190.914C153.378 183.078 146.366 182.457 139.551 182.976C139.346 180.508 139.427 178.726 139.266 177.251C149.411 177.119 157.265 174.87 157.734 168.152C158.414 158.527 148.855 156.643 130.98 157.198C124.729 157.388 120.549 159.184 119.459 173.994C118.368 188.803 119.459 209.776 123.184 218.539C125.475 223.885 135.335 224.491 145.81 223.425Z" fill="black"/>
<path d="M96.3 151.803C103.488 151.803 105.743 148.363 106.087 139.323C106.182 136.694 106.379 133.787 106.284 129.099C114.651 128.369 118.333 127.354 118.354 120.285C118.354 112.15 114.577 111.025 106.123 111.383C106.057 108.973 106.057 107.155 106.021 105.001C119.409 105.198 122.856 102.876 122.9 95.5876C122.988 86.2404 117.776 84.6338 102.668 84.6338C97.8737 84.6338 89.3682 84.5827 86.9819 90.0815C83.5929 97.8879 85.0349 126.879 85.4594 136.818C85.884 146.757 90.9273 151.803 96.3 151.803Z" fill="black"/>
<path d="M138.038 152.474C141.734 152.576 146.624 150.488 147.685 142.725C149.149 131.946 148.798 105.329 148.146 98.5884C147.495 91.8482 146.426 85.1956 136.281 85.2029C130.915 85.2029 126.538 89.0294 125.447 97.4785C123.727 110.908 125.887 131.333 126.648 138.037C127.841 148.596 132.101 152.313 138.038 152.474Z" fill="black"/>
<path d="M195.51 85.6406C190.386 85.6771 183.272 89.3649 184.391 105.942C177.299 88.5836 173.229 84.8958 164.416 85.5895C156.415 86.2102 153.963 94.9441 152.938 102.97C151.914 110.995 152.082 124.103 152.66 132.632C153.707 147.968 156.628 153.744 166.934 152.444C172.724 151.714 175.783 145.967 175.022 131.785C180.19 146.807 184.692 152.065 193.732 152.159C202.215 152.254 206.446 146.223 207.434 132.822C208.093 123.848 207.668 103.612 206.636 96.3096C205.604 89.0071 202.098 85.5603 195.51 85.6406Z" fill="black"/>
<path d="M204.551 208.156C202.355 202.759 199.2 199.524 197.136 197.29C200.598 194.946 204.39 188.14 203.775 176.959C203.182 166.239 195.84 157.418 181.039 157.564C167.593 157.703 163.516 160.485 162.133 168.233C160.581 176.908 160.515 205.98 161.518 212.851C162.601 220.198 165.178 224.265 170.741 224.645C177.775 225.134 181.384 222.067 181.72 210.617C183.799 218.19 191.06 225.572 198.6 224.419C205.158 223.411 207.866 216.357 204.551 208.156ZM184.699 182.444C184.699 185.175 183.023 186.095 181.669 185.744C180.315 185.394 180.322 183.729 180.315 182.743C180.315 181.516 180.315 178.997 181.457 178.8C183.47 178.442 184.699 180.34 184.699 182.444Z" fill="black"/>
<path d="M193.558 12.3474C187.651 11.9239 164.147 11.7121 156.425 12.4496C149.581 13.1069 147.641 18.9051 147.802 23.9731C148.066 33.6197 152.055 35.8835 165.091 36.3874C165.26 48.8455 165.245 56.7615 165.472 65.8896C165.677 74.3971 169.864 79.0342 176.071 79.0342C182.007 79.0342 186.407 76.2811 186.407 65.8896C186.407 56.2357 186.487 45.5667 185.982 36.0442C200.161 35.3139 202.598 32.9333 202.7 24.5427C202.766 19.4966 201.42 12.9097 193.558 12.3474Z" fill="black"/>
<path d="M110.505 79.0673C113.147 78.7752 120.518 74.9122 121.096 60.2779C123.144 60.3913 125.197 60.318 127.23 60.0588C128.036 64.6302 129.726 79.0454 140.025 79.0454C148.809 79.0454 150.097 70.4942 150.522 66.2441C151.254 59.219 146.862 32.426 143.444 22.6479C140.179 13.308 131.732 11.3436 124.149 12.03C115.197 12.8406 110.109 19.1208 107.474 25.7515C104.839 32.3822 95.6456 57.3496 98.7345 70.7059C100.455 78.1107 105.278 79.6004 110.505 79.0673ZM126.191 42.0435C126.24 42.3961 126.21 42.7552 126.104 43.0951C125.998 43.4349 125.818 43.7472 125.576 44.0095C125.335 44.2718 125.039 44.4777 124.708 44.6125C124.378 44.7473 124.022 44.8077 123.666 44.7892C122.055 44.7892 120.613 43.9859 121.243 41.3205C122.187 37.3698 125.525 36.8076 126.191 42.0435Z" fill="black"/>
<path d="M228.083 151.699C238.002 151.473 258.38 149.012 257.97 117.589C257.604 89.8393 246.127 84.596 227.088 84.7275C218.692 84.7859 213.781 88.8461 212.888 98.8944C211.994 108.943 211.709 127.557 214.117 139.971C215.845 148.866 221.693 151.845 228.083 151.699ZM233.339 105.912C234.905 105.912 237.101 109.359 237.372 115.354C237.76 123.993 235.908 127.513 234.086 127.498C232.512 127.498 232.219 126.162 232.087 124.074C231.897 121.05 231.765 113.01 231.685 109.154C231.633 106.54 231.773 105.912 233.339 105.912Z" fill="black"/>
<path d="M19.1049 201.147C24.6606 208.698 38.3486 211.568 49.5186 211.517C60.6886 211.466 73.4835 205.996 78.3951 201.023C90.2751 201.067 100.559 203.068 100.515 209.742C100.464 218.06 80.957 227.867 49.3575 227.999C20.9422 228.094 0.154028 222.507 0.000312278 211.415C-0.0582459 205.514 8.12526 202.79 19.1049 201.147Z" fill="black"/>
<path d="M100.437 158.73C96.1693 158.365 93.3366 159.709 91.8507 161.075C91.331 155.291 89.1643 152.312 86.3535 150.552C83.3378 148.646 71.8091 145.871 58.2309 145.33L55.5739 150.924C57.1318 151.43 58.498 152.398 59.4899 153.699C61.0124 151.596 64.3063 150.311 66.4144 150.617C68.5225 150.924 70.8722 152.202 71.6042 153.619C72.746 152.209 75.4763 151.187 78.514 151.289C81.5517 151.391 83.9014 152.75 83.7111 155.671C83.4036 160.447 72.5411 167.588 47.1708 168.406C32.5312 168.881 10.1107 165.894 10.0083 159.424C10.0083 156.934 12.1237 154.67 15.0589 154.378C16.1331 154.272 17.2169 154.431 18.215 154.841C19.2131 155.251 20.095 155.9 20.783 156.73C21.6906 153.874 24.9333 152.231 27.4586 151.925C28.6675 151.859 29.8739 152.092 30.9716 152.601C32.0693 153.11 33.0247 153.881 33.7536 154.846C34.4455 153.724 35.4149 152.799 36.5687 152.16C37.7224 151.521 39.0216 151.188 40.3414 151.194C40.4853 151.187 40.6294 151.187 40.7733 151.194L38.0723 146.25C27.759 147.506 17.6636 150.15 8.0612 154.108C2.57137 156.511 2.38106 161.893 2.84952 165.201C4.01951 172.237 5.95608 179.125 8.62483 185.743C12.1676 194.506 28.1833 208.49 49.6961 208.278C73.478 208.052 82.2764 193.031 87.5173 179.221C88.4396 183.997 92.6412 188.408 97.6186 188.875C102.596 189.343 112.178 185.64 112.697 175.11C113.217 164.58 108.262 159.395 100.437 158.73ZM103.833 174.139C103.474 177.527 100.744 179.477 98.8923 179.375C97.0404 179.273 94.9835 177.009 95.3715 172.62C95.6057 169.984 97.4576 167.764 99.8219 167.866C102.186 167.968 104.192 170.75 103.833 174.139Z" fill="black"/>
<path d="M48.2678 160.272C36.6733 137.546 12.6132 83.6679 9.18755 76.1463C5.76189 68.6247 0.806405 54.6111 1.63354 41.4957C3.00234 19.7196 22.7657 -0.267486 52.2791 0.00270842C81.7924 0.272902 96.0586 24.9263 96.0586 45.1908C96.0586 57.1013 90.2833 69.6324 86.0378 78.7022C81.7924 87.7719 58.6326 137.882 48.2678 160.272ZM48.0555 77.6068C52.3754 77.6569 56.6628 76.8563 60.6721 75.2508C64.6813 73.6453 68.3337 71.2664 71.42 68.2505C74.5063 65.2346 76.9658 61.6408 78.6578 57.6751C80.3497 53.7093 81.2408 49.4496 81.28 45.1397C81.28 28.227 74.5019 11.088 51.2177 10.8616C27.9335 10.6352 16.4122 26.9053 16.4268 45.0813C16.4414 63.9291 28.8411 77.4096 48.0555 77.6068Z" fill="black"/>
</svg>