<svg xmlns="http://www.w3.org/2000/svg" preserveAspectRatio="none" viewBox="0 0 363 226">
    <path fill="#000" d="M12.008 226H10.12c-.426-.326-.475-.722-.237-1.176.112-.214.203-.435.308-.651 1.445-2.955 2.9-5.906 4.327-8.87.296-.613.496-1.27.719-1.916.049-.143.007-.32.007-.528-.452-.057-.86-.04-1.263.084-.633.194-1.27.379-1.893.594-3.32 1.155-6.638 2.318-9.957 3.477a9.877 9.877 0 01-1 .296c-.247.057-.485-.089-.612-.307-.18-.31-.178-.65-.17-.995.05-1.74.108-3.48.13-5.22.029-2.39.04-4.777.04-7.167 0-2.56-.024-6.424-.033-8.986-.027-7.509-.051-19.367-.078-26.876-.022-6.383-.054-17.115-.065-23.497-.004-2.525.043-5.052.063-7.577.029-3.616.077-9.41.073-13.026-.007-6.998-.042-16.168-.071-23.166-.01-2.014-.05-4.028-.067-6.042a973.156 973.156 0 01-.027-6.245C.301 75.747.294 58.937.274 46.479.27 43.032.225 37.41.201 33.964.176 30.686.163 25.237.127 21.96.096 19.063.034 16.162 0 13.263c-.004-.44.051-.885.13-1.32.1-.559.376-.748.97-.65.374.06.74.194 1.103.315 3.596 1.211 7.19 2.427 10.787 3.64.296.1.597.194.902.266.258.06.459-.133.474-.407.025-.465-.185-.86-.383-1.259-1.4-2.83-2.801-5.654-4.202-8.479-.428-.859-.88-1.707-1.28-2.579-.615-1.33.026-1.568.982-1.55.803.013 1.607-.011 2.41-.029 2.092-.048 4.19-.082 6.284-.108 6.569-.083 17.376-.053 23.946-.066.21 0 .418.005.628-.004 3.525-.133 20.2.09 23.723-.161C74.48.868 85.697.863 93.701.857c5.242-.005 10.484-.015 15.727-.024.244 0 .489-.004.734-.007 1.608-.013 5.225-.015 6.83-.041 1.642-.026 5.289-.093 6.928-.113 2.027-.024 4.053-.017 6.082-.02 8.808-.008 24.296-.017 33.104-.024 1.327-.002 2.656 0 3.984 0 .349 0 .699.007 1.049-.006 3.246-.124 6.493-.035 9.742-.128 4.33-.126 15.348-.04 19.682-.046 7.269-.009 21.002-.017 28.271-.024.209 0 .419.002.628-.004 4.26-.14 8.525.098 12.783-.161 10.974-.005 25.966-.007 36.94-.018 3.006-.004 14.482-.037 17.486-.065 3.596-.035 7.195-.109 10.792-.117 13.455-.03 34.945-.042 48.4-.059.35 0 .699.002 1.047.03.748.06 1.002.353.853 1.077-.09.428-.263.848-.446 1.252-.897 1.999-1.81 3.993-2.717 5.987-.623 1.372-1.258 2.738-1.864 4.12-.216.493-.447.997-.365 1.558.348.226.702.148 1.033.072.544-.124 1.08-.278 1.61-.45 2.751-.89 5.499-1.792 8.247-2.686.298-.096.597-.2.904-.252.606-.1 1.06.213 1.125.787.037.337.02.683-.016 1.022-.158 1.496-.169 3-.158 4.5.033 4.232.071 8.463.111 12.695.023 2.32.056 6.816.067 9.136.018 3.584.029 11.517.027 15.1 0 4.267-.029 10.709-.022 14.975.013 9.695.035 19.39.062 29.084.015 5.597.049 13.37.076 18.967.02 3.823.046 9.821.066 13.642.012 2.253.014 4.506.029 6.759.034 4.742.074 11.662.114 16.405.02 2.39.056 6.952.06 9.342.016 7.612.018 19.574.027 27.186.004 4.231 0 9.77.033 14.002.009 1.018.152 2.036.234 3.053v7.375c-.06.03-.149.043-.178.091-.307.489-.791.53-1.29.454-.34-.052-.677-.163-1.004-.271-3.699-1.229-7.396-2.464-11.094-3.693-.43-.144-.867-.263-1.303-.378-.118-.031-.252-.005-.408-.005-.033.463.205.774.368 1.101 1.478 2.94 2.966 5.873 4.447 8.811.354.705.728 1.401 1.038 2.125.374.872-.045 1.498-1.003 1.54a48.74 48.74 0 01-2.095.034c-7.514.002-19.043.002-26.556.002-.386 0-.769.001-1.154.009-2.2.05-8.415.126-10.616.15-2.69.029-5.382.018-8.072.02-11.044.011-30.556.015-41.6.03-2.095.002-8.208.044-10.304.068-2.654.03-5.309.078-7.963.089-6.325.024-12.649.026-18.976.048-3.948.013-12.35.039-16.297.071-4.298.035-10.602.022-14.9.066-8.946.091-24.572.045-33.518.067-3.984.009-7.965.041-11.949.072-4.508.035-15.694-.018-20.201.072-4.612.089-13.241.028-17.856.032-10.099.009-21.403.015-31.502.031-2.167.004-6.34.045-8.504.067-3.39.033-6.777.076-10.166.089-5.87.024-29.12.031-34.99.046-.245 0-.49.004-.733.011-2.616.063-5.235.139-7.852.189-1.258.024-2.516.002-3.775.009-.34-.009-.705-.057-.986.215zM181.257 1.748c-2.483.044-4.474.098-6.464.111-6.08.04-12.16.07-18.239.092-3.078.013-6.153 0-9.228.004-2.167.004-11.015.002-13.182.033-3.073.043-6.146.134-9.219.165-5.73.056-15.477.1-21.21.113-3.984.009-7.965-.059-11.95-.06-3.389-.003-7.983.038-11.372.064-3.704.029-9.416.074-13.12.09-5.976.023-27.103.03-33.08.045-.21 0-.419 0-.628.005-2.41.052-7.046.121-9.456.154-3.844.052-7.687.08-11.531.126-.419.004-.84.037-1.252.098-.563.083-.768.43-.574.961.105.287.25.563.39.837 1.982 3.878 3.743 7.855 5.518 11.826.085.187.165.376.223.572.122.411-.172.787-.6.73a5.256 5.256 0 01-1.006-.256c-2.176-.735-4.35-1.479-6.525-2.218-1.88-.64-3.752-1.29-5.638-1.905-.938-.307-1.22-.113-1.274.841-.034.577.022 1.16.024 1.738.005 1.638.002 3.277.005 4.915.009 4.777.022 11.732.024 16.51.005 5.802.005 15.953 0 21.757-.002 1.912-.009 5.998-.031 7.91-.04 3.513-.131 7.028-.131 10.542 0 3.48.093 6.96.131 10.44.033 3.208.051 6.418.067 9.625.031 6.246.067 14.666.078 20.912.009 8.914-.01 22.172.002 31.082.009 6.313.051 14.803.062 21.118.011 6.108.03 16.566.205 22.675.054 1.877.034 5.058.034 6.937-.003 3.686-.016 7.372-.027 11.06-.002.546-.042 1.092-.036 1.638.007.546.022 1.091.08 1.633.043.402.319.618.729.561.445-.063.89-.17 1.311-.322 2.423-.876 4.837-1.772 7.256-2.662 1.6-.587 3.204-1.17 4.805-1.759.361-.133.72-.261 1.118-.215.268.03.481.198.48.454-.005.303-.028.614-.117.901-.122.389-.303.763-.48 1.133-.535 1.111-1.079 2.218-1.62 3.327-1.05 2.155-2.102 4.31-3.15 6.467-.15.309-.297.62-.415.94-.18.493.004.787.546.872.24.037.487.039.73.039 5.033-.011 10.066-.007 15.096-.046 4.087-.03 21.1.131 25.185-.117 12.615-.029 32.9-.076 45.516-.081 14.887-.006 40.475.026 55.362.039 1.641.003 3.285-.015 4.926-.043 1.465-.026 2.931-.113 4.396-.113 11.253-.015 31.197-.011 42.45-.024 2.34-.002 4.683-.041 7.023-.063 1.815-.018 8.084-.028 9.899-.102 2.234-.092 4.472-.033 6.71-.035l19.92-.026c.209 0 .419 0 .628-.005 4.191-.054 12.4-.111 16.591-.158 1.398-.018 2.794-.007 4.193-.02a742.71 742.71 0 004.717-.056c2.409-.04 4.816-.122 7.226-.124 15.099-.011 46.701-.005 61.8-.007 1.712 0 3.425-.004 5.137-.02a5.265 5.265 0 001.034-.106.488.488 0 00.369-.637 5.719 5.719 0 00-.349-.851c-.92-1.876-1.851-3.749-2.768-5.628a588.822 588.822 0 01-2.588-5.371 3.837 3.837 0 01-.33-.961c-.087-.498.198-.822.7-.779.409.035.826.135 1.213.27 1.906.663 3.799 1.366 5.71 2.025 2.272.783 4.55 1.546 6.835 2.29.861.28 1.138.067 1.229-.825.013-.134.015-.271.018-.408.011-.751.037-1.503.026-2.253-.062-4.437-.147-10.176-.2-14.612-.042-3.584-.051-9.342-.071-12.926-.047-9.318.082-22.986-.074-32.304-.053-3.208-.058-8.59-.071-11.8-.018-3.96-.018-10.095-.029-14.052-.007-2.014-.025-4.028-.033-6.042-.027-5.46-.081-13.095-.076-18.556.013-16.451.049-37.254.071-53.705.007-4.2.011-12.745-.002-16.945-.013-4.232-.049-8.463-.08-12.695a36.735 36.735 0 00-.072-2.047c-.075-1.194-.946-1.857-2.144-1.635-.305.056-.599.18-.895.283-3.156 1.1-6.309 2.205-9.465 3.305-.263.091-.525.19-.797.246a.665.665 0 01-.811-.598c-.02-.198 0-.411.054-.602.064-.229.18-.444.28-.662 1.802-3.997 3.604-7.991 5.405-11.988.127-.281.256-.564.345-.855.125-.415-.109-.755-.556-.805-.346-.039-.697-.034-1.047-.032-7.269.037-18.555.08-25.821.11-8.737.038-21.49-.039-30.227.081-6.569.091-21.61.083-28.179.126-2.272.015-4.541.078-6.812.085-6.641.015-17.297.002-23.938.022-6.184.017-16.824.056-23.009.098-2.405.01-4.814.074-7.224.08-5.487.013-19.664.004-24.659.004z"/>
    <path fill="#000" d="M22.111 206.01c-.566-.1-1.021.063-1.48.217-4.465 1.48-8.93 2.96-13.394 4.434a33 33 0 01-1.802.542c-.642.171-.894-.013-.968-.668a4.725 4.725 0 01-.022-.305c-.056-1.563-.118-3.126-.16-4.69-.054-1.94.013-3.873.12-5.813.104-1.9.082-5.108.084-7.013.007-8.504.007-21.343.003-29.847-.003-4.796-.016-13.927-.027-18.723-.01-3.504-.018-7.006-.038-10.511-.02-3.842-.054-9.854-.078-13.697-.022-3.469-.051-6.937-.063-10.407-.015-4.967-.02-12.1-.029-17.066-.013-7.519-.03-15.034-.033-22.553-.002-4.354.033-10.875.031-15.229-.002-5.645-.015-15.628-.038-21.273-.01-2.891-.04-7.95-.082-10.839-.025-1.699-.094-3.4-.134-5.1-.007-.3.02-.606.07-.905.03-.193.291-.351.48-.31.24.05.476.117.706.195 4.883 1.654 9.767 3.312 14.65 4.967.264.09.525.204.797.252.227.041.468.002.774-.005-.05-.231-.052-.4-.118-.541a51.018 51.018 0 00-.857-1.75c-1.915-3.744-3.835-7.487-5.749-11.234-.187-.364-.374-.735-.504-1.118-.278-.833.025-1.37.863-1.68.406-.15.82-.147 1.24-.15 2.904-.008 5.81-.02 8.713-.023 9.134-.018 35.672.052 44.804-.076 6.192-.087 15.6-.057 21.794-.13 2.17-.026 4.34-.013 6.507-.048 10.18-.16 24.385-.123 34.565-.134 1.401-.002 9.489-.018 10.89-.022 5.073-.017 10.151.054 15.222-.067 6.893-.163 13.784-.06 20.675-.113a992 992 0 016.719-.024c9.589-.017 32.34.054 41.927-.076 6.647-.09 13.293-.05 19.941-.13 1.714-.02 3.429.009 5.142-.052 6.472-.232 16.966-.084 23.438-.125 4.025-.026 16.531-.016 20.556-.029 3.008-.008 6.021.046 9.027-.062 4.616-.167 13.258-.102 17.874-.137 5.283-.039 14.591-.037 19.874-.045 1.365-.003 2.73.026 4.094.043.174.002.351-.002.524.013.663.063 1.011.47.899 1.112-.051.294-.183.583-.314.856-1.16 2.401-2.337 4.792-3.488 7.197-1.033 2.159-2.036 4.328-3.046 6.495-.143.308-.263.631-.359.956-.103.351.147.596.533.525.272-.05.539-.135.803-.224 2.312-.776 4.622-1.558 6.935-2.336 2.016-.678 4.043-1.318 6.119-1.8a6.05 6.05 0 011.135-.137c.263-.011.462.184.498.437.031.234.044.475.046.711.029 3.197.052 6.393.083 9.59.015 1.565.073 5.297.06 6.86-.022 2.55-.087 7.266-.134 9.817-.006.34-.004.68-.004 1.02 0 14.799-.007 33.93.007 48.727.002 2.38.095 6.926.131 9.306.025 1.564.025 3.129.034 4.694.013 2.28.013 4.557.042 6.837.027 1.973.096 3.943.129 5.915.025 1.463.029 2.926.038 4.386.016 2.484.022 7.133.04 9.616.023 3.264.063 6.53.076 9.794.029 7.62.054 19.572.067 27.192.016 9.967.02 25.569.029 35.536 0 .34.009.681-.011 1.021a2.49 2.49 0 01-.109.598c-.099.301-.31.46-.634.423a5.226 5.226 0 01-1.014-.221c-3.018-.973-6.03-1.957-9.045-2.937-1.889-.613-3.778-1.224-5.667-1.833a9.365 9.365 0 00-.905-.254c-.324-.069-.551.147-.484.472.053.263.138.527.254.77.439.925.883 1.851 1.349 2.763 1.55 3.047 3.111 6.09 4.665 9.137.235.457.46.917.676 1.383.087.184.165.377.205.574.089.453-.145.804-.604.93-.134.037-.274.05-.415.056a22.83 22.83 0 01-.943.026c-10.218.026-28.482.052-38.7.074-3.29.006-6.579-.013-9.87.004-5.774.033-20.028.083-25.802.13-1.784.015-3.568.022-5.352.078-5.457.174-14.939.05-20.398.078-4.935.024-9.868.011-14.803.02-2.029.002-4.059.013-6.088.03-1.958.017-3.916.02-5.874.078-5.912.171-18.297.05-24.211.078-5.145.024-16.98.002-22.125.022-3.499.013-6.997.065-10.496.102-2.135.023-4.269.086-6.401.076-2.203-.013-4.404-.094-6.607-.146-.036 0-.069-.004-.105-.002-2.344.046-11.375.091-13.719.137-.35.006-.7.021-1.048.021-6.334.007-16.692.009-23.025.016-7.21.006-14.42.008-21.627.034-1.784.007-4.772.1-6.554.148-.42.01-.841.006-1.26.008-2.59.013-7.19.024-9.781.044-2.73.019-5.457.043-8.187.075-.664.009-1.329.098-1.991.078-5.283-.16-27.97-.043-33.252-.086-2.413-.02-4.828-.067-7.241-.063-1.33.002-2.656.074-3.983.136-.392.018-.767-.008-1.13-.151-.518-.206-.79-.57-.73-1.108.038-.329.15-.663.292-.966.6-1.266 1.22-2.523 1.838-3.78 1.238-2.514 2.475-5.028 3.717-7.542.232-.468.44-.932.308-1.556zM174.8 5.67c-3.619.043-6.663.08-9.707.112-3.113.033-6.226.082-9.342.087-9.343.015-27.389.013-36.735.017-3.816.002-9.64-.004-13.456.002-1.715.002-3.43.011-5.145.041-1.643.03-3.285.122-4.928.141-2.415.029-6.037.013-8.452.022-1.296.004-2.589.01-3.885.039-1.817.039-3.635.108-5.454.15-2.134.047-6.28.071-8.412.114-.91.02-1.817.076-2.725.09-1.4.017-2.799.014-4.2.017-8.678.01-34.761.02-43.44.028-.281 0-.56-.007-.841.01-.207.014-.42.042-.618.096-.419.113-.577.381-.426.774.172.444.382.877.591 1.307 2.253 4.605 4.51 9.208 6.76 13.816.133.275.263.56.325.856.159.736-.288 1.22-1.046 1.116-.374-.052-.747-.18-1.1-.323a40.708 40.708 0 00-5.559-1.816 22.308 22.308 0 01-2.192-.692c-2.424-.873-4.841-1.766-7.265-2.644a6.483 6.483 0 00-1.102-.307c-.368-.063-.613.123-.662.49a5.682 5.682 0 00-.02 1.011c.147 3.297.29 8.758.127 12.059-.031.609.04 1.222.053 1.833.016.748.036 1.494.027 2.241-.011.815-.09 1.632-.078 2.445.022 1.7.13 5.568.12 7.267-.02 3.807-.09 9.785-.133 13.592-.05 4.183-.09 10.535-.139 14.718-.008.748-.07 1.495-.058 2.243.023 1.327.105 2.65.125 3.977.058 4.046.112 8.095.143 12.14.036 4.593.067 11.353.07 15.945.015 25.277.02 61.389.028 86.665 0 2.79.007 6.879-.004 9.668-.005.755.069 1.496.223 2.231.062.296.154.593.278.873.154.34.446.522.841.481.208-.022.415-.061.613-.121.467-.143.928-.306 1.39-.462 3.967-1.324 7.93-2.661 11.904-3.966 1.057-.347 2.147-.596 3.229-.873.232-.059.484-.063.725-.05a.531.531 0 01.488.565c-.02.2-.07.404-.143.59-.316.791-.617 1.591-.983 2.362-.69 1.45-1.419 2.883-2.134 4.322-1.158 2.325-2.322 4.648-3.477 6.976a5.313 5.313 0 00-.346.85.459.459 0 00.397.602c.31.039.627.05.941.046 2.17-.024 4.34-.078 6.508-.076 7.733.004 32.87.021 40.606.041 3.394.009 8.8.039 12.196.037 10.814-.007 22.836-.033 33.652-.035 21.033-.006 59.47-.002 80.506-.002.386 0 .769.004 1.155-.004.243-.007.506.017.727-.059.48-.165.966-.139 1.454-.139 2.799-.004 7.609-.002 10.408-.002 2.346 0 4.692.048 7.033-.015 3.461-.091 11.387.102 14.846-.15 7.455-.013 14.91-.023 22.362-.041 1.68-.004 7.382-.024 9.061-.041 5.283-.061 10.564-.004 15.847-.091 7.767-.126 24.022-.032 31.791-.05 4.478-.011 12.977.07 17.452-.145 1.887-.091 3.778-.078 5.667-.128.557-.015 1.115-.106 1.672-.11 1.82-.02 7.663-.024 9.482-.016.522.003 1.044.074 1.566.117.21.018.417.052.627.061.952.037 1.248-.308.974-1.168a9.3 9.3 0 00-.508-1.229c-1.251-2.583-2.502-5.166-3.771-7.743-.814-1.656-1.555-3.349-2.56-4.909a2.42 2.42 0 01-.297-.65 2.02 2.02 0 01-.078-.7c.038-.432.459-.735.894-.655.308.057.609.154.908.249 4.449 1.422 8.895 2.844 13.342 4.272 1.062.34 2.114.715 3.178 1.047.462.143.76-.041.836-.505a6.41 6.41 0 00.067-1.116c-.042-2.959-.123-7.217-.136-10.175-.029-6.838-.022-18.01-.033-24.848-.012-6.668-.018-17.669-.038-24.338-.016-4.965-.054-9.932-.074-14.897-.027-6.565-.051-15.299-.069-21.863-.016-6.294-.02-14.755-.029-21.048a57648.69 57648.69 0 01-.036-37.196c-.002-4.796.003-11.76.04-16.558.034-4.185-.113-10.533-.225-14.715a3.885 3.885 0 00-.131-.904c-.103-.382-.411-.562-.799-.473-.372.085-.74.204-1.101.33-2.799.964-5.593 1.948-8.396 2.9-1.813.615-3.64 1.2-5.466 1.779a4.9 4.9 0 01-1.124.19.533.533 0 01-.553-.509c-.011-.2.002-.412.064-.6.165-.483.328-.971.553-1.428.739-1.502 1.526-2.985 2.255-4.49 1.416-2.922 2.808-5.854 4.21-8.782.221-.462.446-.921.66-1.387.359-.783-.029-1.004-.673-1.134a2.07 2.07 0 00-.417-.032c-.874 0-1.751-.011-2.625.008-1.817.041-3.635.109-5.454.143-1.12.022-6.262.005-7.382.003-.279 0-.562.008-.838-.022-2.264-.256-4.543-.221-6.813-.254-2.937-.04-9.899.059-12.838.067-5.531.018-19.542.003-25.073.022-3.044.011-6.088.06-9.132.095-2.729.03-5.457.074-8.186.09-3.361.017-10.742.012-14.103.017-10.954.01-21.91.015-32.864.03-2.553.004-9.569.046-12.122.067-3.499.03-9.01.078-12.506.09-5.074.014-16.839.003-21.34.003z"/>
</svg>
