<svg xmlns="http://www.w3.org/2000/svg" width="261" height="182" viewBox="0 0 261 182" fill="none">
<path d="M67.511 93.7125C63.1353 101.324 57.0697 110.025 49.4052 113.473C50.4039 109.861 51.675 106.388 53.1958 103.122C56.0786 96.9231 59.6927 91.4502 63.9474 86.8374C65.1403 89.14 66.3282 91.43 67.5136 93.7125M259.127 40.9686C258.837 40.4062 258.55 39.8489 258.27 39.3167C255.319 33.6269 252.378 27.9498 249.44 22.2877C248.048 19.5992 246.661 16.9284 245.284 14.2676C244.598 12.9435 243.924 11.6396 243.248 10.3433C242.565 9.06711 241.972 7.67493 241.079 6.58036C239.374 4.46687 236.058 2.11379 229.972 2.92589C219.591 4.30798 217.299 11.8464 212.883 28.2499C212.043 26.6358 211.221 25.0317 210.401 23.4706C208.371 18.3054 202.25 16.5223 193.745 18.9107C191.874 15.4429 190.237 11.8616 188.257 8.51226C181.791 0.534979 168.083 6.08351 164.368 16.0179C163.322 18.8199 161.826 23.0368 160.615 26.3987L157.942 26.9964C155.569 22.4164 153.203 17.8489 150.827 13.2714C150.091 11.8489 149.359 10.4366 148.618 9.01162C144.063 -1.63652 126.336 -2.41583 118.003 4.4013C116.386 0.507236 112.472 0.333213 109.332 2.6182C103.007 -0.055184 92.7518 1.20585 88.086 6.14152C82.0835 11.5261 82.0179 23.4857 86.8124 31.2184C83.516 30.26 79.9725 30.0254 76.4013 30.545C75.9045 29.5841 75.4152 28.6433 74.9436 27.7354C71.907 21.6799 66.4215 21.5664 56.4241 23.4126C32.6284 28.4264 15.5667 45.468 5.71553 74.0707C-8.64256 115.813 6.68148 130.222 22.7167 162.512C28.7142 174.257 40.9865 181.669 54.3333 181.543C69.3042 181.437 83.574 173.558 93.7152 162.154C94.4971 163.657 95.2714 165.152 96.033 166.618C100.255 175.914 109.256 173.16 117.907 170.739C127.314 168.267 143.062 164.133 163.203 161.077C173.697 159.485 184.585 159.246 193.354 159.049C198.144 158.943 202.282 158.852 205.314 158.55C223.218 156.355 228.509 141.899 223.594 127.304C232.451 127.14 239.735 117.67 234.388 109.561C238.249 107.226 240.222 102.683 241.316 100.164C244.323 93.2484 256.983 62.6634 259.493 55.6697C261.624 49.6571 261.49 44.9434 259.122 40.9737" fill="#1D1D1B"/>
<path d="M114.333 17.4428C114.414 19.1503 114.764 26.5903 114.976 32.0229C114.981 32.154 114.805 32.3356 114.653 32.2448C113.241 31.3949 111.917 30.4365 110.966 29.6244C108.865 31.2662 105.851 32.043 101.995 32.2044C94.308 32.5247 88.5426 30.2826 87.9801 19.3041C87.5262 10.4895 93.0596 6.2474 100.553 5.86909C104.081 5.6875 107.112 6.30288 109.435 7.82369C110.505 7.21587 112.005 6.36341 113.211 5.71777C113.516 5.55635 113.614 5.84639 113.622 6.03554C113.725 8.61813 114.005 12.6812 114.134 15.2713C114.141 15.4454 113.99 15.7934 113.645 15.8161C110.868 15.9977 108.333 16.0607 105.481 16.1566C105.241 16.1641 105.135 15.9775 105.082 15.8791C104.54 14.893 103.176 13.922 100.896 14.0254C97.5741 14.1768 96.5778 16.772 96.6359 18.84C96.7266 22.0607 97.8818 24.033 101.695 23.8362C103.223 23.7555 104.227 23.2234 104.855 22.439C103.92 22.4642 103.037 22.5349 101.967 22.5576C101.796 22.5626 101.624 22.4819 101.617 22.2751C101.559 20.9157 101.453 18.9233 101.418 17.9321C101.413 17.7505 101.589 17.6395 101.682 17.6345C104.807 17.4958 112.29 17.1654 113.972 17.0923C114.192 17.0822 114.321 17.2007 114.331 17.4353" fill="white"/>
<path d="M131.904 22.6257C135.955 22.4189 136.736 19.8994 136.512 17.1528C136.328 14.9183 135.375 12.6232 131.054 12.8199C127.286 12.9914 126.136 15.5942 126.192 17.6623C126.275 20.883 127.576 22.8476 131.904 22.6282M116.842 18.1541C116.386 9.33949 122.474 5.07469 130.694 4.65855C139.589 4.21466 145.607 7.96749 145.851 17.2966C146.096 26.6206 140.754 30.5626 132.164 30.9939C123.728 31.4176 117.41 29.1326 116.842 18.1541Z" fill="white"/>
<path d="M96.8552 48.3785C95.4 37.2437 83.2386 32.1213 72.3307 36.3155C62.134 40.2348 53.7003 50.0784 56.0054 60.9334C57.5363 68.154 68.7771 71.5588 76.6914 64.0456C79.7178 61.173 80.8023 51.4529 72.3358 54.1364C68.1744 55.4554 67.0874 47.7531 75.7582 46.7796C81.9145 46.086 84.2802 53.0393 82.9612 63.8337C81.7531 73.7227 76.4366 91.0266 64.3963 106.673C54.2879 119.811 40.3712 123.556 31.3851 115.869C22.6512 108.399 22.9261 86.0102 31.5515 67.4579C38.7293 52.0179 48.9109 43.0999 58.4165 38.1793C64.3282 35.1201 70.0558 34.0659 70.6334 31.4177C71.6245 26.878 66.4316 25.9978 57.3724 27.9045C35.0067 32.6131 19.201 49.0141 10.056 75.5638C1.22123 101.208 1.81139 128.865 22.2149 139.707C39.5364 148.91 62.9613 139.163 76.1138 121.281C96.3685 93.7454 99.0267 64.9813 96.8552 48.376" fill="white"/>
<path d="M119.115 84.4793C113.947 89.8109 111.158 85.8664 113.7 79.077C117.521 68.8627 124.86 63.0544 127.856 67.4277C127.856 67.4277 124.252 79.1805 119.115 84.4793ZM181.044 71.1477C179.861 68.3684 179.551 65.1351 182.27 60.9989C185.841 55.574 192.406 55.7808 191.77 60.661C191.137 65.521 188.249 67.5033 186.673 68.8173C183.528 71.4403 188.406 76.9661 192.459 73.8665C198.653 69.1275 200.683 64.8753 201.137 59.864C202.239 47.7077 183.306 43.4454 174.161 55.1957C168.754 62.1389 167.526 69.7757 171.435 79.9295C168.648 86.106 162.893 87.9522 160.837 86.8147C158.189 85.3469 157.152 82.676 163.437 67.1805C166.333 60.0405 170.156 50.6408 173.816 41.8414C189.707 40.1112 200.658 40.0986 204.973 31.337C208.512 24.1491 204.625 21.3547 197.594 22.7948C193.503 23.6346 188.827 24.7241 180.234 26.6838C181.74 23.226 183.036 20.3559 183.982 18.4467C190.164 5.94991 172.648 6.96126 168.663 17.6296C167.49 20.7721 165.959 25.1302 164.073 30.3332C161.132 30.9915 157.922 31.7052 154.401 32.487C131.536 37.5463 127.717 37.8489 119.755 39.7657C115.707 40.7392 109.203 41.801 109.175 47.1377C109.155 51.4327 115.11 50.4365 122.744 49.5084C136.219 47.8691 143.127 46.3231 159.006 43.8741C157.561 47.5992 155.987 51.521 154.285 55.5664C145.959 75.3671 141.059 87.4402 136.86 84.7618C132.663 82.0859 138.199 71.1603 142.628 62.4567C145.944 55.9447 135.864 53.3924 131.516 59.1225C126.933 53.9599 115.238 56.3785 108.865 64.661C104.086 70.8728 92.2093 91.2788 105.369 99.3191C111.526 103.077 120.845 99.8361 125.652 91.7529C124.885 100.202 137.248 101.15 143.19 91.8412C143.586 101.551 168.534 105.523 179.447 85.4049C179.447 85.4049 190.565 92.4238 187.717 101.047C184.522 110.729 172.159 105.463 134.792 109.339C114.489 111.445 88.9382 113.839 83.937 123.997C80.3985 131.185 84.0984 136.045 91.1299 134.605C98.1614 133.165 117.241 127.034 145.026 122.82C161.659 120.295 179.23 121.077 187.367 120.262C201.977 118.805 205.74 106.283 201.828 95.2409C197.152 82.0556 183.193 76.217 181.044 71.1578" fill="white"/>
<path d="M230.578 7.47339C222.419 8.5604 221.299 14.7344 215.967 34.4367C213.435 43.7961 212.555 47.8541 209.438 59.2009C207.4 66.6182 206.179 71.9473 210.421 72.6182C215.692 73.4505 217.965 68.4165 219.622 64.6006C222.706 57.506 235.264 27.1429 237.687 20.3863C240.555 12.3914 238.517 6.41412 230.575 7.47339" fill="white"/>
<path d="M201.107 84.8423C202.749 93.9697 218.598 86.3076 212.93 78.2623C209.828 73.8587 199.889 78.063 201.107 84.8423Z" fill="white"/>
</svg>