<svg xmlns="http://www.w3.org/2000/svg" width="312" height="1034" viewBox="0 0 312 1034" fill="none">
<path d="M28.5 116.5L45 103L73.5 132L37 143L28.5 137V116.5Z" fill="white"/>
<path d="M13.5 321L21 300.5L59 316.5L40.5 355L13.5 321Z" fill="white"/>
<path d="M28.5 116.5L45 103L73.5 132L37 143L28.5 137V116.5Z" stroke="white"/>
<path d="M13.5 321L21 300.5L59 316.5L40.5 355L13.5 321Z" stroke="white"/>
<path d="M128.382 705.018C124.743 752.337 112.105 956.685 107 1049.5L286.458 1049.5C281.722 966.875 273.981 773.086 268.527 705.018C227.399 705.387 171.704 703.203 128.382 705.018Z" fill="black"/>
<path d="M263.79 606.369C224.477 605.272 167.695 603.458 129.837 604.545C128.382 633.668 125.47 660.24 126.926 693.73C170.976 691.547 215.743 692.275 269.254 693.73C269.022 669.649 265.974 631.126 263.79 606.369ZM221.808 641.221C221.797 632.318 236.491 620.409 246.196 629.291C255.921 638.194 250.035 652.033 241.945 655.862C234.403 659.438 221.829 656.854 221.808 641.21L221.808 641.221Z" fill="black"/>
<path d="M263.062 420.001C269.254 367.217 313.663 343.927 311.11 231.809C306.975 49.7767 255.415 -1.51968 236.491 1.76084C221.502 4.35572 226.66 22.1507 233.58 39.9773C202.642 9.03915 169.509 -10.6229 156.05 6.12786C142.58 22.868 182.262 42.53 189.541 61.0951C112.738 2.85787 74.5114 25.062 71.0621 41.8022C67.3808 59.671 78.1611 62.9199 102.18 67.6455C126.209 72.3817 139.668 77.8352 155.691 103.32C110.186 77.1074 53.4043 78.9322 28.6579 100.409C7.26595 118.963 20.8627 167.2 41.4003 166.663C69.0685 165.935 63.9737 145.914 96.7262 140.091C112.696 137.254 164.436 161.926 153.877 227.083C141.219 305.183 101.441 308.432 75.2498 295.151C49.4065 282.05 19.1961 267.219 4.62889 291.143C-10.6556 316.259 13.057 362.355 58.8788 379.918C98.0236 394.917 133.487 386.152 140.554 419.938C148.972 460.211 136.04 535.758 136.04 591.453C169.531 591.812 222.673 593.268 260.162 595.82C261.986 505.907 256.006 480.264 263.073 420.001L263.062 420.001ZM35.8624 130.535C31.9279 120.123 41.8855 112.434 48.9001 109.712C53.4675 113.309 57.1173 118.014 59.3113 129.627C52.7503 133.931 39.1535 139.237 35.8624 130.535V130.535ZM22.2024 312.704C25.8204 305.689 43.4783 312.704 51.168 322.883C49.5858 332.165 44.607 340.077 38.4995 344.38C19.713 330.805 18.5843 319.718 22.2024 312.704Z" fill="black"/>
</svg>