<svg xmlns="http://www.w3.org/2000/svg" id="Lager_2" viewBox="0 0 378.69 259.11"><defs><style>.cls-1{fill:#ffc6d6;}.cls-1,.cls-2{stroke-width:0px;}.cls-2{fill:#231f20;}</style></defs><g id="Layer_1"><path class="cls-1" d="M138.13,259.11c-.86,0-1.71-.03-2.57-.06-.48-.02-.95-.03-1.43-.04-.32,0-.64-.03-.96-.05-.34-.02-.69-.05-1.03-.06h-.47c-.97-.04-1.94-.07-2.91-.07-.3,0-.6,0-.9,0-.97.02-1.93.07-2.9.11-.85.04-1.69.08-2.54.1h0c-.21,0-.4-.04-.58-.07-.24-.05-.48-.09-.73-.1-1.12-.03-2.25-.04-3.37-.06-1.58-.02-3.16-.04-4.74-.09-2.44-.08-4.89-.19-7.34-.31l-1.36-.07c-.68-.03-1.36-.08-2.04-.12-1.14-.07-2.29-.14-3.43-.17-1.61-.04-3.23-.05-4.84-.06-1.07,0-2.14-.01-3.22-.03h-.27c-.47,0-.94.02-1.41.03-.46.02-.92.04-1.37.04-1.01,0-1.75-.09-2.38-.3-.77-.25-1.58-.37-2.54-.37-.68,0-1.35.06-2,.12-.64.06-1.25.11-1.86.11-.44,0-.84-.03-1.21-.09-.12-.02-.24-.03-.37-.03-.33,0-.64.06-.94.12-.25.05-.49.1-.7.1h-.28c-.47,0-.95-.02-1.42-.05-.49-.03-.99-.05-1.47-.05-.83,0-1.5.08-2.1.24-.34.09-.69.14-1.07.14-.59,0-1.17-.11-1.79-.22-.62-.11-1.27-.23-1.94-.23-.12,0-.25,0-.37.01-.6.04-1.18.17-1.74.29-.39.09-.79.18-1.18.23-.53.07-1.08.08-1.64.08h-.38c-.35,0-.71-.02-1.06-.04-.38-.02-.75-.04-1.13-.04-.13,0-.26,0-.39,0-.27.02-.5.11-.68.19-.06.03-.16.07-.19.08l-.65-.09c-.69-.09-1.37-.17-2.07-.23l-.72-.05c-1.81-.13-3.68-.27-5.52-.35-.31-.01-.62-.02-.93-.02-.76,0-1.52.03-2.27.07l-1.13.05c-1.47.06-2.99.13-4.49.26-.62.06-1.21.19-1.78.31-.45.1-.9.2-1.35.26-.09.01-.18.02-.28.02-.33,0-.68-.06-1.08-.14-.13-.03-.29-.1-.46-.17-.3-.13-.63-.27-1.01-.27-.16,0-.23,0-.3,0-1.19,0-1.7-.73-2.43-1.92-.14-.23-.29-.47-.44-.69-.05-.07-.09-.18-.13-.3-.08-.21-.17-.46-.36-.67q-.17-.18.08-.56c.33-.49.72-1.23.73-1.97.05-1.91.04-3.81.04-5.83v-2.92s-2.15.17-2.15.17c-1.13.09-2.22.17-3.31.27-.29.03-.57.09-.83.16-.19.05-.37.1-.56.12-1.79.23-3.58.45-5.38.64-.13.01-.27.02-.4.02-.56,0-.8-.16-.93-.62-.05-.2-.13-.52-.45-.68-1.28-.64-1.24-1.51-1.07-3,.05-.48.11-.97.09-1.46-.06-1.23-.04-2.5-.01-3.73.02-.99.04-1.97.02-2.95,0-.66-.95-1.29-1.52-1.29-2.03,0-4.09.06-6.08.12l-.79.02c-.54,0-3.06-.5-3.43-.71l-.14-.09c-.89-.59-1.81-1.2-2.65-1.85-.05-.19.18-1.22.41-1.43.42-.39.8-.82,1.17-1.24l.12-.13.93.34s-.46-2.54-.46-2.55c.55-.71.37-1.48.24-2.06-.07-.29-.13-.56-.1-.77l.04-.24c.15-1,.3-2.03.34-3.06l.04-.83c.1-2.09.2-4.26.13-6.38-.06-1.79-.2-3.61-.33-5.36-.1-1.35-.21-2.69-.28-4.04-.04-.85-.02-1.72,0-2.57.02-.87.05-1.76,0-2.65-.12-2.03.17-4.02.5-5.87.19-1.02.02-2.07-.14-3.08-.09-.6-.18-1.17-.2-1.72-.03-.7.01-1.4.05-2.14.03-.62.06-1.23.06-1.85,0-.65-.06-1.3-.12-1.93-.04-.39-.08-.78-.1-1.17-.03-.58-.06-1.16-.08-1.75-.02-.44-.03-.89-.05-1.33-.02-.51-.06-1.01-.09-1.51,0,0-.07-1.11-.07-1.12.77-1.1.46-2.18.2-3.05-.11-.39-.22-.75-.25-1.12.45-.54.8-1.29.22-2.37-.09-.16-.04-.55,0-.88.04-.29.08-.59.06-.89-.06-1.01-.12-2.01-.19-3.01-.1-1.55-.2-3.1-.26-4.66-.03-.66.02-1.31.07-2,.04-.49.07-.98.08-1.47.01-.69-.06-1.37-.13-2.02-.03-.31-.08-.63-.13-.94-.07-.44-.14-.85-.15-1.25-.01-.29.01-.57.04-.85.06-.7.13-1.49-.36-2.1.04-.21.07-.4.11-.59.11-.56.21-1.09.19-1.64-.1-2.1-.26-4.23-.42-6.29l-.06-.84c-.02-.3-.08-.59-.13-.89-.05-.3-.11-.59-.12-.89-.02-.49,0-.99.01-1.49,0-.35.02-.69.02-1.04,0-1.16,0-2.32,0-3.48,0-.53-.02-1.05-.03-1.58-.02-.87-.04-1.74-.02-2.61.01-.58.07-1.15.12-1.73.06-.69.13-1.41.13-2.13,0-.62-.1-1.22-.19-1.81-.06-.38-.12-.76-.15-1.14-.05-.71-.09-1.42-.12-2.14-.05-1.1-.11-2.23-.24-3.35-.11-.87-.08-1.74-.05-2.66.04-1.35.09-2.75-.31-4.17-.21-.72-.16-1.55-.12-2.42.02-.46.05-.91.04-1.36,0-.33-.04-.66-.08-.99-.04-.38-.08-.75-.07-1.1.01-.83.05-1.66.08-2.49.04-.95.07-1.89.08-2.84,0-.36-.06-.7-.11-1.02-.04-.23-.08-.47-.09-.7-.02-.33-.01-.65,0-.98,0-.33.02-.65,0-.98-.05-1.07-.11-2.13-.17-3.2-.06-1.05-.12-2.1-.17-3.15-.03-.73-.06-1.6,0-2.46.03-.38.09-.75.16-1.11.06-.36.13-.71.16-1.07.1-1.19.21-2.56.24-3.91,0-.32-.09-.6-.18-.84-.05-.15-.1-.29-.11-.4v-.18c-.03-.19-.06-.58-.02-.7,1.07-.93.79-2.08.59-2.93-.08-.32-.15-.62-.15-.88,0-.58-.12-1.15-.24-1.69,0-.03-.01-.06-.02-.1l4.85,4.16c0,.42.05.85.1,1.25.07.69.14,1.34.02,1.92l-.09.45c-.32,1.5-.66,3.06-.06,4.72.05.14.03.39.02.63v.16c-.03.41-.07.81-.11,1.22-.14,1.41-.28,2.86.27,4.33-.02.13-.04.2-.04.27-.02.53-.04,1.05-.07,1.57-.05,1.11-.11,2.26-.1,3.4,0,.59.06,1.18.13,1.75.07.67.14,1.29.11,1.91-.02.45.08.87.17,1.29.2.88.28,1.32-.32,1.78-.36.28-.28.71-.23.97l.02.13.08.84c.09.89.18,1.78.29,2.68.06.48.12.96.19,1.44.12.84.24,1.71.3,2.57.05.72.03,1.43.02,2.18,0,.38-.02.76-.02,1.14,0,.21.01.44.03.66.03.46.06.89-.06,1.19-.53,1.25-.28,2.32.05,3.4.07.25.07.56.07.9,0,.19,0,.38,0,.57.01.21.02.42.03.63.01.32.03.64.05.95.02.19.06.38.1.57.04.19.1.43.07.53-.32,1.01-.15,1.96.01,2.87.16.93.32,1.81-.08,2.63-.2.4.08.75.24.96.04.05.09.11.12.16.06.16.09.25.1.29-.56,1.19-.41,2.34-.26,3.45.04.28.08.56.1.85.12,1.3.14,2.61.14,3.84,0,.89-.02,1.78-.03,2.68-.03,1.37-.05,2.78-.02,4.17.03.92.15,1.83.28,2.71.07.52.15,1.04.2,1.56.11,1.11.19,2.24.24,3.37.05.99.06,1.99.03,2.99-.01.3-.06.6-.11.9-.05.28-.09.56-.12.84-.06.7.09,1.37.23,2.01.22.97.41,1.8-.14,2.62-.21.33-.09.66-.02.85.01.04.03.08.04.12l.04.29c.05.37.09.74.12,1.11l.09,1.52c.08,1.35.16,2.75.18,4.12.01.86-.03,1.75-.06,2.61-.03.79-.07,1.57-.07,2.36,0,.49.18.95.33,1.36.04.11.08.22.12.33.07.2.18.44.3.67.07.14.19.37.23.5-.66,1.11-.89,2.19-.74,3.38.05.34.03.69.02,1.07-.01.29-.02.58-.01.88.02.33.06.64.11.96.05.37.1.71.1,1.05.01.89,0,1.78,0,2.67,0,1.69-.02,3.45.08,5.17.02.27-.12.56-.24.85-.18.41-.39.88-.2,1.37.56,1.38.51,2.33-.14,3.26-.19.26-.15.56-.13.75l.13,1.68c.16,2.13.32,4.34.52,6.52.04.4.19.78.33,1.1.13.31.25.61.24.84-.03.84-.17,1.66-.32,2.54-.07.43-.15.86-.21,1.29-.06.39-.05.78-.02,1.15.04.45.09.88.13,1.32.09.85.18,1.66.2,2.48,0,.44-.09.9-.18,1.38-.06.31-.12.62-.16.94-.18,1.42-.29,2.59-.36,3.69-.02.38.21.63.36.8.04.04.1.11.11.14.03.09.07.2.11.31.12.33.25.67.23.9-.04.32-.2.68-.39,1.09-.09.21-.19.43-.29.66l-.31.78,2.25.12c1.24.07,2.35.12,3.47.15h0c.43,0,1.26-.31,1.36-.9.19-.96.28-1.8.27-2.58-.02-1.28-.06-2.56-.09-3.84-.03-1.11-.07-2.22-.09-3.33-.02-1.42-.01-2.84,0-4.27v-2.14c0-.23,0-.46,0-.69,0-.44-.02-.88,0-1.32.02-.47.06-.94.09-1.4.12-1.6.25-3.25-.15-4.92-.1-.39-.15-.8-.17-1.24-.11-2.25-.2-4.5-.28-6.75,0,0-.02-.35-.02-.44,0-.15-.03-.39,0-.47.61-1.02.61-1.99.01-2.7.07-.27.16-.53.25-.79.28-.84.56-1.72.34-2.52-.49-1.76-.34-3.48-.18-5.31.07-.84.15-1.71.15-2.58,0-.36.03-.72.05-1.08.08-1.09.17-2.22-.43-3.35,0-.04.02-.08.02-.12.03-.14.05-.28.05-.4,0-.4-.03-.79-.06-1.18l-.02-.37c0-.12-.02-.24-.03-.36-.02-.2-.04-.4-.03-.6.03-.41.12-.84.21-1.29.2-.99.41-2.01.07-3.13-.03-.1-.01-.27,0-.44.02-.21.05-.46.01-.71-.09-.51-.2-1-.32-1.5-.09-.38-.18-.76-.25-1.15-.04-.22-.04-.45,0-.65.03-.14.1-.28.16-.42.12-.29.26-.61.26-.98,0-.81-.04-1.63-.08-2.45-.04-.84-.08-1.7-.07-2.54,0-.62.07-1.26.14-1.88.08-.83.17-1.68.13-2.54-.04-1.11-.16-2.23-.28-3.31-.17-1.57-.35-3.19-.27-4.78.03-.63.08-1.26.12-1.89.1-1.4.2-2.85.15-4.29-.03-.83-.03-1.66-.03-2.5,0-1.95-.01-3.96-.34-5.96l-.06-.32c-.05-.27-.11-.53-.1-.77.01-.65.04-1.31.07-1.96.03-.85.07-1.7.07-2.55,0-.82-.04-1.63-.08-2.44-.02-.48-.05-.96-.06-1.44,0-.2,0-.4-.01-.6,0-.37,0-.74-.04-1.11-.04-.43-.1-.86-.17-1.29-.09-.62-.18-1.2-.2-1.79-.03-.98-.03-1.98-.03-2.97,0-1.17,0-2.39-.05-3.59-.06-1.19-.17-2.38-.29-3.54-.09-.92-.18-1.83-.24-2.75-.02-.34.01-.7.05-1.07.05-.5.1-1.02.02-1.56-.17-1.15-.16-2.34-.15-3.5,0-.94.02-1.91-.07-2.87-.08-.93-.01-1.86.07-2.84.12-1.57.25-3.19-.3-4.81.04-.11.06-.21.07-.32.03-.28.07-.58.11-.89.1-.81.21-1.65.25-2.48.05-1.04.04-2.1.03-3.12,0-.51,0-1.03,0-1.54,0-.44.02-.89.03-1.34.02-.67.04-1.35.03-2.04l4.91-2.58c.03.3,0,.52-.05.6-.65.93-.43,1.76-.25,2.43.06.22.12.44.14.66.02.16.07.29.12.4-.57,1.14-.42,2.28-.28,3.31.03.23.06.46.09.7.03.33.02.68,0,1.05-.03.56-.06,1.13.09,1.7.17.71.21,1.07-.03,1.46-.54.89-.38,1.76-.25,2.54l.03.15c.17.97.15,2.02.13,3.04,0,.7-.04,1.39-.07,2.08-.05,1.07-.1,2.17-.06,3.27.03,1.1.13,2.21.22,3.28.1,1.13.2,2.31.23,3.45.02.58-.01,1.16-.04,1.76-.07,1.32-.14,2.69.29,4.13.27.93.21,1.99.15,3.11-.03.54-.06,1.08-.05,1.62v1.21c.02,1.09.03,2.18.08,3.28.02.37.09.72.17,1.06.08.35.15.67.14.97,0,.89-.04,1.76-.07,2.64-.04.89-.08,1.78-.08,2.66,0,.71.06,1.43.11,2.12.04.56.09,1.13.1,1.69.02.71,0,1.42-.01,2.13-.02.89-.03,1.82.01,2.73.04.75.11,1.5.18,2.24.21,2.36.42,4.58-.12,6.84-.09.39-.08.77-.06,1.11,0,.11,0,.23,0,.34,0,.66,0,1.32.03,1.97.03.76.06,1.52.1,2.29s.07,1.52.1,2.29c.04,1.11.09,2.42.09,3.75,0,.59-.02,1.18-.04,1.77-.03.89-.06,1.81-.02,2.73.02.64.15,1.26.27,1.86.07.32.13.65.18.97l.06.35c.07.42.13.81.1,1.17-.03.29-.11.6-.19.93-.11.44-.23.9-.24,1.39-.05,1.82-.02,3.72.08,5.62.03.63.24,1.35.63,2.13l.05.09c.06.12.14.28.14.33h0s-.01.07-.18.26c-.54.62-1.34,2.15-.86,3.02.29.54.3,1.06.31,1.66,0,.25,0,.5.03.76,0,.05,0,.1,0,.15,0,.23-.02.62.32.84.02.01.03.02.05.03-.02.03-.04.05-.06.07-.12.14-.28.32-.37.54l-.24.58.59.21c.21.08.25.13.26.14,0,.06-.12.34-.21.53-.23.54-.26,1.03-.29,1.47l-.03.34c-.02.18-.01.36,0,.54,0,.12.01.24,0,.36-.06.65-.13,1.3-.2,1.95-.14,1.29-.28,2.63-.35,3.96-.08,1.46,0,2.94.06,4.37v.26c.06,1.12.13,2.25.2,3.37.04.67.08,1.34.12,2,0,.1,0,.22,0,.33,0,.11-.01.22-.01.33,0,.53,0,1.06,0,1.6,0,1.12.02,2.29-.08,3.41-.06.62.13,1.2.31,1.75.32.98.45,1.51-.22,2.11l-.25.22.05.39c.02.4.04.82.07,1.25.06,1,.13,2.02.11,3.02-.01.66.19,1.24.38,1.81.25.72.46,1.33.19,2-.28.71-.29,1.5-.3,2.21v.15c-.04,1.47-.03,2.8.02,4.06.04,1.17.75,1.93,1.81,1.93.28,0,.57-.06.87-.16.04,0,.11.03.18.04l.13.02c.16.02.3.04.43.06.27.04.54.08.82.08s.52-.03.79-.07c.21-.03.42-.06.63-.06h.13c1.37.1,2.46.21,3.46.37l.34.06c1.14.18,2.31.37,3.39.74.3.11.65.68.91,1.1,0,0,.32.51.45.72.52.82,1.06,1.66,1.27,2.51.12.5-.08,1.18-.27,1.84-.07.26-.15.52-.21.78-.04.18-.12.38-.21.58-.13.3-.28.65-.32,1.04-.04.43.02.85.07,1.24.03.25.07.5.08.75.04,1.6.91,1.84,1.43,1.84.27,0,.58-.07.94-.2.15-.06.3-.12.36-.12.42.02.83.05,1.24.08.48.04.97.08,1.46.09h.18c.28,0,.56-.02.84-.04.25-.02.5-.04.75-.04.29,0,.52.03.71.09.56.18,1.16.27,1.82.27.7,0,1.37-.1,2.03-.19.32-.04.64-.09.95-.12.19-.02.37-.08.53-.14.05-.02.12-.04.18-.06.65.38,1.27.43,1.74.43.25,0,.51-.02.77-.03.21-.01.41-.03.62-.03h.46c1.7,0,3.44.14,5.13.27.75.06,1.5.12,2.25.17.44.03.88.05,1.32.05.17,0,.33,0,.49,0,.51-.01,1.02-.04,1.53-.07.71-.04,1.42-.08,2.13-.08h.38c1.04.03,2.09.1,3.14.16.99.06,1.99.12,2.98.15h.31c.51,0,1.02-.03,1.53-.06.48-.03.97-.06,1.45-.06h.28c.33,0,.67.07,1.03.14.41.08.83.16,1.28.16,2.51,0,4.96-.08,7.03-.16,1.88-.07,3.45-.13,5.08-.13,1.88,0,3.53.08,5.04.24.35.04.69.08,1.03.13.7.1,1.43.2,2.18.2.97,0,1.93-.04,2.9-.08.95-.04,1.9-.08,2.85-.08.2,0,.4,0,.59,0,.96.02,1.96.11,2.91.19.83.08,1.69.15,2.54.19.14,0,.29,0,.43,0,.49,0,.97-.03,1.46-.06.46-.03.93-.06,1.39-.06.15,0,.29,0,.44.01.34.01.68.07,1.02.12.43.07.88.13,1.35.13.54,0,1.03-.09,1.48-.29.01,0,.03,0,.05.01.09.02.18.04.27.05l.56.07c.58.07,1.17.15,1.78.17h.12c.26,0,.53-.03.79-.06.21-.03.43-.05.64-.05h.14c.68.05,1.36.13,2.05.2.82.09,1.64.17,2.46.22.92.05,1.83.07,2.75.09.76.02,1.51.03,2.27.07.39.02.78.07,1.18.11.46.06.93.11,1.39.13.15,0,.29,0,.43,0,.41,0,.82-.01,1.22-.03.4-.01.79-.03,1.19-.03h.27c1.25.03,2.5.09,3.74.15l.74.04h.16c.1,0,.59-.01.59-.01.12,0,.29,0,.39.05.82.36,1.67.54,2.59.54.81,0,1.68-.14,2.67-.43-.02.01.09.05.16.08l.18.06c.09.03.18.07.27.12.23.11.51.24.84.24,1.14,0,2.27-.03,3.41-.05l1.35-.03c.5-.01,1.01-.03,1.51-.04.95-.03,1.91-.06,2.86-.06.23,0,.47,0,.7,0,1.33.03,2.66.08,3.99.14,1.22.05,2.44.1,3.66.13h.12c.41,0,.81-.05,1.2-.09.37-.04.72-.09,1.05-.09.08,0,.16,0,.24,0,.71.05,1.43.16,2.14.27.77.11,1.56.23,2.36.28,1.76.11,3.53.16,5.25.2.71.02,1.41.04,2.12.06.08,0,.15,0,.21,0,.09,0,.18.01.27.01.21,0,.38-.03.54-.09.55-.21,1.17-.3,1.94-.3.47,0,.94.03,1.41.07.47.03.95.07,1.42.07.62,0,1.24-.06,1.84-.12.24-.02.48-.05.72-.07.27-.02.56-.06.83-.1.38-.06.75-.11,1.09-.11.17,0,.33.01.46.04,1.55.33,3.11.34,4.62.34.64,0,1.28,0,1.91.03.22,0,.44.01.66.01.86,0,1.74-.06,2.58-.12.73-.05,1.46-.1,2.19-.11h.11c.45,0,.9.05,1.37.1.48.05.98.1,1.49.1.17,0,.34,0,.51-.02.12,0,.25-.01.37-.01.56,0,1.13.08,1.73.17.62.09,1.26.19,1.92.19.6,0,1.15-.08,1.66-.25.07-.02.14-.03.24-.03.24,0,.53.07.84.14.3.07.61.14.9.16.19.01.38.04.56.06.37.04.74.08,1.11.08.34,0,.64-.03.91-.1.8-.2,1.54-.3,2.28-.3.82,0,1.61.12,2.4.38.51.17,1.05.19,1.47.19h.27c.55,0,1.08-.1,1.6-.19.49-.09.96-.17,1.43-.17s.85.08,1.25.25c.4.17.87.26,1.43.26s1.15-.08,1.71-.17c.42-.06.83-.12,1.23-.14.3-.02.61-.05.91-.08.42-.04.81-.09,1.2-.09.63,0,1.27.03,1.9.06.43.02.86.04,1.29.06.63.02,1.26.03,1.89.04.78.01,1.56.02,2.33.05.42.02.83.05,1.25.09.38.03.75.07,1.13.09.37.02.73.04,1.1.07.85.05,1.72.11,2.59.11h.43c1.3-.04,2.6-.16,3.86-.27l1.08-.1c.25-.02.51-.07.76-.11.3-.05.58-.1.84-.1h.12c.35.03.71.09,1.07.16.5.09,1.03.18,1.56.18.64,0,1.21-.14,1.73-.42.07.03.16.05.26.06l1.61.11c1.65.11,3.37.23,5.05.29.12,0,.23,0,.35,0,.53,0,1.06-.04,1.59-.08.44-.03.88-.07,1.32-.08.44,0,.89,0,1.33,0h1.71c.63,0,1.26,0,1.9-.02.92-.03,1.85-.08,2.77-.12,1.09-.06,2.18-.11,3.27-.14h.12c.45,0,.9.04,1.38.09.49.05.99.1,1.49.1.09,0,.46-.01.56-.01.37,0,.73.03,1.09.05.4.03.8.06,1.2.06.62,0,1.14-.07,1.65-.21.15-.04.32-.06.51-.06.37,0,.78.07,1.22.15.52.09,1.05.19,1.62.19.14,0,.28,0,.42-.02.27-.03.54-.04.82-.04.88,0,1.77.11,2.71.24.56.07,1.12.14,1.68.19.32.03.63.04.95.06.62.03,1.21.06,1.78.17.63.12,1.19.23,1.77.23.69,0,1.29-.16,1.84-.48.02,0,.08-.04.3-.04h.23c.6.02,1.09.04,1.59.06.68.02,1.35.05,2.03.06.64.02,1.29.02,1.93.03.49,0,.97,0,1.46.01.45,0,.91.04,1.37.07.58.04,1.16.08,1.74.08.45,0,.85-.02,1.23-.07.75-.09,1.51-.1,2.08-.1.32,0,1.62.02,1.95.02.91,0,1.99-.03,3.1-.24,1.3-.25,2.77-.37,4.61-.37,1.03,0,2.07.04,3.09.07h.44c.86.01,1.68-.16,2.48-.33.77-.16,1.5-.31,2.24-.31.42,0,.81.05,1.19.15.32.08.66.13,1.04.13.47,0,.95-.06,1.41-.12.3-.04.6-.08.89-.1.28-.02.56-.05.85-.08.44-.04.85-.09,1.26-.09h.3c.99,0,1.5-.5,1.56-1.54.03-.41.04-.83.06-1.26.05-1.29.1-2.62.46-3.79.46-1.55.38-3.04.3-4.49-.03-.51-.06-1.02-.06-1.54,0-.71.09-1.01.4-1.3.19-.18.45-.33.72-.49.22-.13.43-.26.64-.41.49-.36.96-.75,1.43-1.15l.16-.14h1.04c.23,0,.48,0,.72,0,.44-.02.88-.05,1.31-.09.59-.05,1.16-.09,1.72-.09.24,0,.48,0,.72.03.21.02.41.03.62.03.66,0,1.31-.08,1.93-.16.62-.08,1.2-.15,1.79-.15s1.09.07,1.55.23c.1.03.21.05.34.05.17,0,.31-.03.44-.06.06-.01.12-.03.18-.04l.49-.06.04-.49c.04-.52.06-1.04.08-1.56.05-1.18.1-2.3.35-3.36l.09-.35c.2-.77.43-1.65-.2-2.57.02-.48.05-.88.08-1.28.07-.89.14-1.8.06-2.72-.12-1.39-.36-2.79-.6-4.14-.08-.49-.32-1.87-.35-2.07-.17-.95-.33-1.86-.09-2.74.18-.68.09-1.87-.34-2.57,0-.02-.03-.13-.02-.33.02-.25.06-.5.1-.75.08-.51.17-1.03.13-1.57-.06-.8-.19-1.59-.33-2.36-.07-.37-.13-.75-.19-1.12,0-.01,0-.08.01-.13,0-.06.02-.13.02-.19.02-.34.05-.69.08-1.04.07-.78.13-1.59.15-2.38.02-.8.02-1.6.01-2.41,0-1.3,0-2.64.08-3.94.13-1.8.35-3.63.55-5.4.11-.95.22-1.89.32-2.84.14-1.43.27-2.9.37-4.5.02-.27-.06-.51-.12-.7-.03-.09-.06-.19-.07-.24-.02-.39-.02-.78-.02-1.16,0-.55,0-1.11-.05-1.66-.04-.54-.14-1.07-.24-1.58-.05-.28-.11-.56-.15-.83l-.05-.31c-.05-.29-.1-.57-.06-.78.06-.38.16-.74.26-1.11.15-.54.3-1.1.34-1.68.2-2.6.3-5.22.37-7.44.07-2.47.09-4.89.1-7.14,0-.27-.06-.51-.11-.73-.04-.18-.08-.34-.07-.47.05-1.17.11-2.34.17-3.51.09-1.7.18-3.39.23-5.09.04-1.12-.01-2.26-.05-3.35-.02-.51-.04-1.03-.05-1.54l-.09-2.76c-.08-2.3-.16-4.68-.19-7.03-.02-1.14.03-2.31.07-3.45.04-1.06.08-2.12.07-3.18,0-1.03-.1-2.05-.19-3.05-.16-1.7-.3-3.3-.05-4.94.1-.64.02-1.26-.07-1.87-.06-.46-.12-.89-.1-1.29.07-1.17.02-2.35-.03-3.48-.05-1.2-.1-2.44-.01-3.65.04-.58,0-1.16-.05-1.71-.03-.4-.07-.81-.07-1.21,0-.54-.05-1.07-.11-1.59-.11-1.02-.22-1.98.19-2.89l.06-.14-.02-.29-.02-.09c-.49-1.7-.38-3.41-.21-4.86.07-.61.09-1.28.05-1.99-.03-.57-.07-1.15-.11-1.72-.06-.8-.12-1.63-.13-2.43,0-.58.05-1.15.1-1.76.05-.6.11-1.23.11-1.85,0-.57-.07-1.13-.13-1.67-.06-.54-.13-1.04-.13-1.55,0-.7.06-1.43.11-2.14.04-.59.09-1.2.11-1.81l4.69-1.76c0,.08,0,.16,0,.24,0,.42,0,.85.01,1.27.02.49.07.97.11,1.46.05.59.11,1.19.12,1.78.01.59-.02,1.18-.06,1.8-.02.36-.04.72-.05,1.09l-.03.77c-.04,1.03-.09,2.1-.08,3.16,0,.85.07,1.71.14,2.54l.07.84c.02.36.05.77.21,1.15.14.32.05.6-.13,1.07-.13.33-.27.71-.28,1.13-.03,2.26,0,4.5.04,7.17.04,2.01.09,3.64.18,5.13.03.52.12,1.01.22,1.58.04.21.08.43.12.66-.11.24-.3.64-.3,1.08,0,.45.04.9.08,1.34.04.39.08.78.08,1.17,0,1.34-.02,2.67-.03,4.01-.01,1.34-.03,2.69-.03,4.04,0,.89.02,1.78.04,2.67.02,1.08.04,2.16.03,3.24,0,.35,0,1.1.52,1.61l-.13.04-.04.4c-.04.36-.08.71-.12,1.05-.1.79-.19,1.54-.19,2.31,0,1.2.02,2.41.05,3.62.03,1.1.05,2.2.05,3.29,0,.33-.06.68-.13,1.05-.1.57-.21,1.17-.1,1.77.35,1.93.46,3.74.33,5.56-.04.62-.03,1.24-.01,1.84,0,.29.01.59.01.88v.93c-.01.83-.02,1.66.02,2.49.02.33.08.64.14.93.07.32.13.63.12.9-.04.75-.19,1.54-.32,2.31l-.11.61c-.17.97-.17,1.94-.17,2.87,0,.95,0,1.84-.16,2.74-.19,1.1-.17,2.31-.15,3.48,0,.47.02.95.01,1.41,0,.68.03,1.35.07,2.02.03.56.06,1.12.06,1.68,0,.49-.02.97-.04,1.46-.02.46-.05.93-.05,1.39,0,2.6.03,5.2.06,7.8v.24c0,.27.05.55.1.81.05.26.11.62.05.74-.71,1.4-.69,2.84-.66,4.22.02,1.04.04,2.03-.25,2.96-.2.66-.3,1.45-.29,2.35.01,1.3.06,2.6.11,3.9l.06,1.68c0,.14.03.29.05.43.02.12.05.29.03.35-.45,1.2-.79,2.39.05,3.68.08.13.13.35.12.42-.29.61-1.07,2.26.37,3.47h0c-.32.96-.68,2.04.15,3.21,0,.05-.06.37-.1.55-.02.12-.05.23-.06.34-.04.29-.11.57-.17.85-.12.52-.24,1.05-.25,1.61-.03,1.52.03,3.07.08,4.56l.04,1.1c0,.28.11.53.2.73.03.08.07.17.1.25.09.33.2.65.32.97.31.89.58,1.65.33,2.54-.58,2.12-.82,4.5-.73,7.51.03,1.13.2,2.34,1.86,2.34.2,0,.43-.02.7-.05.04.04.12.05.2.06l.26.02c.81.05,1.64.11,2.7.17l.78.05-.15-.76c-.08-.38-.15-.72-.21-1.03-.13-.59-.23-1.09-.3-1.59-.05-.38-.04-.77.04-1.11.47-2.04.93-4.43.3-6.92-.06-.26-.06-.57-.06-.9,0-.22,0-.44-.01-.66-.04-.69.08-1.39.21-2.13.22-1.28.45-2.6-.14-4-.1-.24,0-.74.07-1.13l.04-.21c.11-.66.24-1.3.37-1.94.12-.57.23-1.13.33-1.7.31-1.75.11-3.47-.11-4.78-.12-.72-.09-1.51-.07-2.28v-.12c.03-.83.03-1.66.03-2.49,0-1.46,0-2.97.17-4.45.04-.31.14-.65.26-1.02.29-.93.64-2.08-.06-3.2.04-.09.07-.18.07-.29l.02-.25c.04-.51.08-1.03.02-1.56-.03-.32-.14-.63-.23-.91-.08-.23-.2-.6-.16-.71.32-.82.35-1.63.38-2.43.01-.34.03-.67.07-1,.2-1.59.07-3.21-.06-4.78-.06-.74-.12-1.48-.15-2.22-.03-.97-.04-1.94-.04-2.91,0-.55,0-1.11-.01-1.66,0-1.32,0-2.64-.03-3.97-.01-.4-.06-.81-.11-1.21-.09-.71-.17-1.38-.01-1.93.33-1.14.32-2.03-.02-3-.02-.06-.02-.19,0-.38.03-.3.05-.57.08-.84.06-.73.12-1.48.26-2.2.21-1.14.14-2.26.07-3.34-.06-.97-.12-1.88,0-2.79.11-.79.03-1.57-.05-2.32-.06-.52-.11-1.02-.1-1.5.02-.96.09-1.95.16-2.91.07-.94.13-1.87.15-2.81.03-1.11.02-2.22.02-3.33,0-.94-.01-1.88,0-2.82,0-.41.06-.82.11-1.25.07-.58.15-1.18.12-1.79-.02-.37,0-.76.03-1.16.06-1.02.13-2.16-.52-3.24.05-.12.1-.24.13-.35.03-.13.07-.26.11-.4.1-.33.2-.67.25-1.04.13-1.18.22-2.23.25-3.21.04-1.07.07-2.21,0-3.33-.02-.52-.09-1.03-.15-1.55-.09-.74-.18-1.44-.15-2.13.06-1.42.18-2.86.29-4.26.1-1.21.2-2.42.27-3.63.06-1.06.02-2.12,0-3.15-.01-.45-.03-.9-.03-1.36v-.89c0-.77-.01-1.53-.04-2.3-.02-.58-.06-1.15-.1-1.73-.09-1.2-.17-2.34-.06-3.46.25-2.59.31-5.34.17-8.93-.03-.73-.17-1.46-.3-2.15-.07-.33-.13-.67-.18-1l-.03-.16c-.03-.13-.05-.26-.04-.34.06-.67.14-1.34.23-2.01.16-1.29.32-2.62.33-3.94l4.34-3.36s0,.09,0,.13c-.03.92-.05,1.88-.03,2.83.01.72.07,1.43.12,2.15.09,1.24.17,2.4.08,3.57-.1,1.2,0,2.37.09,3.5.09,1.03.17,2.01.11,3-.13,2.29-.22,4.59-.31,6.88-.04,1.15-.08,2.34-.05,3.51.04,1.93.09,3.99.23,6.02.03.43.15.83.26,1.22.11.38.22.74.21,1.05-.01.4-.18.83-.37,1.29-.09.24-.19.48-.27.72-.03.08-.06.17-.1.25-.14.33-.31.74-.16,1.16.54,1.61.41,3.25.27,5-.07.83-.14,1.68-.12,2.54.01.77-.05,1.56-.1,2.33-.04.61-.09,1.22-.1,1.83-.02.93-.02,1.86-.02,2.79,0,.8,0,1.59-.01,2.39-.03,1.17-.07,2.41-.2,3.63-.17,1.54.22,2.92,1.1,3.95-.1.18-.2.35-.3.52-.36.61-.7,1.18-.89,1.82-.05.17-.5,1.67.14,2.53.32.41.26.74.11,1.33-.07.28-.15.59-.16.92-.07.11-.15.25-.15.45.02.69.05,1.37.08,2.04.03.67.05,1.34.08,2.01.02.61.03,1.13,0,1.64-.01.18-.06.37-.1.56-.07.33-.15.7-.12,1.09.28,3.36.17,6.77.02,10.25,0,.17-.02.33-.03.49-.05.66-.11,1.39.26,2.14-.8.79-.61,1.78-.45,2.61.11.59.07,1.13.03,1.7-.04.52-.08,1.05-.03,1.59.14,1.34.03,2.66-.08,4.05-.07.86-.14,1.75-.15,2.63,0,.67.16,1.31.31,1.93.11.43.21.84.25,1.24.07.59.04,1.26-.08,2.03l-.05.28c-.13.69-.33,1.71.72,2.35-.01.07-.03.13-.04.16-.53.86-1.13,1.83-.52,3.15.27.58.13,1.2-.03,1.92-.08.36-.17.74-.2,1.13,0,.06-.03.14-.05.22-.07.28-.16.66.04,1.01.35.58.22,1.09-.01,1.87-.1.32-.2.65-.25,1.01-.11.72-.12,1.45-.13,2.16v.56c-.02.43-.02.87-.02,1.31,0,.32,0,.64,0,.96,0,.14-.03.28-.06.43-.06.33-.12.7-.02,1.08.46,1.82.28,3.64.09,5.57l-.08.84c-.05.51-.13,1.03-.2,1.54-.11.75-.23,1.52-.26,2.3-.03.7.04,1.39.11,2.06.04.44.09.88.1,1.32,0,.1-.04.26-.09.43-.06.21-.13.46-.14.73-.06,1.72-.13,3.98-.15,6.23,0,.19-.02.37-.04.56-.07.64-.16,1.49.5,2.19-.45.86-.4,1.73-.36,2.5.02.28.03.56.02.84l-.03.53c-.07,1.3-.13,2.65.3,3.87.54,1.51.28,2.51-.98,3.7-1.1,1.03-2.46,2.1-4.2,2.23h-.12c-.38,0-.81-.13-1.25-.26-.43-.13-.88-.27-1.36-.32h-.13c-.41-.05-.85-.1-1.27-.1-.74,0-1.28.13-1.69.41-.58.4-.58,1.27-.58,2.12,0,.26,0,.52-.01.75-.07.83-.13,1.67-.18,2.51l-.09,1.21s-.01.1-.02.16c-.03.2-.07.44,0,.7.29,1.15.04,2.26-.22,3.44-.1.43-.2.87-.27,1.31l-.03.19c-.07.44-.14.9-.32,1.21-.27.46-.71.5-1.47.53-.26,0-.51.02-.75.05-1.14.16-2.33.2-3.48.23-.48.02-.96.03-1.44.05,0,0-.34-.01-.42-.01h-.14c-.51.02-1.05.04-1.58.08-.68.04-1.37.08-2.05.08-.43,0-.85-.01-1.28-.06-.11-.01-.22-.02-.32-.02-1.42,0-1.76,1.04-1.96,1.67-.14.4-.08.83-.03,1.12.06.5.16,1,.28,1.48.05.22.13.45.21.68.07.21.15.42.19.63.06.26.13.51.21.76.3,1,.45,1.65-.02,2.35-.16.24-.31.48-.29.79.02.62-.26.79-1.07,1.11-.28.11-.58.23-.84.4-.81.51-1.72.87-2.54,1-.29.05-.58.11-.87.18-.56.12-1.08.24-1.62.24-.5,0-.95-.1-1.4-.32-.51-.25-1.12-.36-1.92-.36-.41,0-.82.03-1.24.06-.39.03-.79.05-1.17.05h-1.11c-.15.01-.29,0-.44,0-.2-.02-.38-.03-.54-.03-.89,0-1.36.29-1.89.94-.73-.25-1.46-.5-2.19-.75-.24-.09-.43-.16-.65-.16h-.09l-.18.04c-.5.16-1.04.23-1.69.23-.53,0-1.07-.05-1.63-.1-.57-.05-1.15-.1-1.74-.1-1.05,0-2.09.16-3.09.32-.46.07-.93.15-1.39.2,0,0-.19.03-.21.03-.43-.3-.9-.45-1.41-.45-.62,0-1.2.22-1.7.42-.2.08-.39.15-.58.21-.49.15-.86.22-1.23.22-.14,0-.28,0-.44-.03-1.16-.15-2.34-.21-3.49-.27l-.93-.05c-.36-.02-.72-.05-1.08-.08-.66-.06-1.35-.12-2.03-.12-.34,0-.68.01-1.02.05-.77.08-1.77.18-2.75.18-.91,0-1.7-.08-2.41-.25-.63-.15-1.29-.22-2.01-.22-.93,0-1.84.12-2.72.24-.87.12-1.7.22-2.53.22-.12,0-.24,0-.35,0-.57-.02-1.13-.09-1.73-.17-.51-.06-1.02-.13-1.53-.16-.09,0-.18,0-.26,0-.28,0-.56.03-.84.05-.24.02-.48.05-.72.05-1.13-.03-2.16-.1-3.19-.17l-.61-.04c-.49-.03-.98-.07-1.47-.11-.95-.08-1.93-.16-2.91-.16h-.11c-1.26,0-2.54.08-3.78.14-.81.04-1.62.09-2.43.12h-.1c-.25,0-.51-.03-.76-.06-.3-.03-.6-.06-.89-.06-.91,0-1.83.03-2.74.06-.9.03-1.8.06-2.7.06-1.2,0-2.2-.05-3.13-.16-.72-.08-1.51-.12-2.47-.12-.56,0-1.12.01-1.68.03-.55.01-1.11.03-1.66.03h-.17c-.07,0-.12-.01-.17-.01h-.17l-.21.1c-.33.26-.6.36-.9.36-.36,0-.75-.13-1.16-.28-.37-.12-.75-.25-1.16-.31-.22-.03-.45-.04-.67-.04-.34,0-.68.03-1.02.06-.31.03-.62.05-.92.05-.77,0-1.48-.02-2.19-.04-.72-.02-1.45-.04-2.17-.04-.2,0-1.04.01-1.04.01-1.43.03-2.92.05-4.35.33-1.17.23-2.53.48-3.88.48-.26,0-.53,0-.8-.03-.21-.01-.41-.02-.61-.02-.68,0-1.35.07-2.01.14-.58.06-1.14.12-1.69.13h-.15c-.5,0-.99-.04-1.49-.08-.53-.04-1.05-.08-1.58-.08h-.18c-1.12.02-2.24.08-3.37.13-1.02.05-2.04.1-3.06.12h-.02c-.41,0-.75-.04-1.11-.09-.37-.05-.75-.1-1.11-.1h0c-.5,0-.99.03-1.48.05-.47.03-.94.05-1.41.05h-.22c-1.28-.02-2.55-.05-3.82-.08-1.5-.04-3.01-.07-4.51-.09h-.12c-.51,0-1.03.03-1.54.06-.49.03-.98.06-1.47.06-.12,0-.25,0-.37,0-1.33-.04-2.65-.11-3.98-.18-1.1-.06-2.19-.12-3.29-.16-.33-.01-.65-.02-.97-.02-.47,0-.93,0-1.39.02-.46,0-.91.02-1.37.02h-.23c-.91,0-1.82,0-2.72-.02-.91,0-1.82-.02-2.72-.02-.46,0-.91,0-1.37,0-1.35.01-2.71.06-4.07.1-.91.03-1.81.06-2.72.08-.24,0-.48,0-.72,0-.69,0-1.38-.02-2.06-.06-.6-.03-1.2-.08-1.8-.13-1.01-.08-2.06-.16-3.11-.17h-.29c-.86,0-1.72.04-2.58.09-.73.04-1.46.08-2.19.08-.32,0-.66-.05-1.02-.1-.38-.06-.78-.11-1.19-.11-.08,0-.17,0-.25,0-.8.05-1.6.15-2.37.25-.68.09-1.36.18-2.04.23-.37.03-.73.03-1.1.03-.33,0-.66,0-.99-.01-.34,0-.67-.01-1.01-.01h-.54c-.22,0-.5.01-.75.16-.5.28-1.03.41-1.68.41-.53,0-1.08-.08-1.65-.17-.47-.07-.95-.15-1.44-.18-.11,0-.22-.01-.33-.01-.49,0-.98.07-1.45.13-.34.05-.68.09-1.02.11-.55.03-1.11.06-1.66.08-.76.03-1.51.06-2.27.12-.59.05-1.18.12-1.76.18-.87.1-1.78.21-2.66.24-.38.01-.75.02-1.12.02ZM126.56,253.83c1.82.06,3.64.14,5.46.22l1.47.06c.26.01.51.03.77.05.48.03.96.06,1.44.06.15,0,.3,0,.45,0,2.44-.1,5.01-.24,8.11-.43,1.05-.07,2.09-.15,3.13-.24.69-.06,1.39-.12,2.09-.17,0,0,.06.01.12.03.62.23,1.31.36,2,.36s1.45-.13,2.22-.4c.67-.23,1.43-.38,2.32-.47h0c.12,0,.28.05.44.11.23.08.5.17.8.17.24,0,.72,0,.72,0,.65,0,1.3-.01,1.96-.02.5,0,1-.02,1.5-.02.79,0,1.58,0,2.38-.01,1.57,0,3.15,0,4.72-.05.56-.02,1.09-.14,1.61-.26.21-.05.41-.1.62-.14v-.07c.2.11.44.21.72.23,1.86.08,3.74.13,5.62.15.49,0,.98,0,1.46,0,1.34,0,2.68-.02,4.02-.05h0c.29,0,.6-.04.9-.09.23-.03.47-.07.7-.07h.19c.28,0,.56.02.84.04.21.01.41.03.61.04h0c.13,0,.25-.01.36-.03.06,0,.12-.02.18-.02.19.03.36.07.53.12.33.09.68.18,1.06.18.55,0,1.09-.04,1.64-.09.51-.04,1.03-.08,1.54-.08.68,0,1.37.04,2.05.08.66.04,1.32.08,1.99.09.5,0,.99-.03,1.48-.07.46-.03.93-.07,1.39-.07.16,0,.33,0,.49.01.76.05,1.54.15,2.29.25.86.11,1.75.23,2.64.27.18,0,.36.01.54.01.67,0,1.34-.05,1.99-.09.61-.04,1.21-.08,1.82-.09.4,0,.82.05,1.25.11.46.06.93.12,1.41.12h.17c1.44-.05,2.88-.15,4.31-.24,1.08-.07,2.16-.14,3.24-.19.11,0,.22,0,.33,0,.36,0,.72.03,1.08.05.25.02.51.04.77.05.4.02.79.04,1.19.06.96.05,1.95.1,2.94.1.51,0,1.02-.04,1.51-.09.47-.04.94-.08,1.41-.08h.14c.45.01.92.08,1.41.15.53.08,1.07.16,1.62.17h.11c.71,0,1.41-.06,2.1-.12.43-.04.87-.08,1.31-.1.53-.03,1.06-.04,1.59-.05.61-.01,1.22-.02,1.83-.06.62-.04,1.23-.11,1.85-.17.34-.04.67-.07,1.01-.11.32-.03.63-.07.95-.1.71-.08,1.45-.16,2.16-.18h.12c.47,0,.94.04,1.44.09.5.05,1.03.1,1.55.1.86,0,1.57-.13,2.25-.41.38-.16.81-.25,1.14-.25.15,0,.29.02.38.06.73.29,1.51.42,2.46.42.56,0,1.12-.05,1.66-.09.52-.04,1.03-.09,1.55-.09.3,0,.59.01.89.05.08.01.16.02.25.02.17,0,.35-.02.53-.05.12-.02.25-.04.37-.04.76.07,1.47.15,2.17.23,1.37.16,2.79.32,4.19.35.21,0,.42,0,.63,0,1.2,0,2.42-.07,3.59-.14.8-.05,1.61-.1,2.41-.12,1.85-.06,3.73-.08,5.31-.09.21,0,.43.04.64.07.27.04.55.08.82.08h.16c.34-.03.67-.06,1.01-.09.55-.06,1.07-.11,1.59-.11.81,0,1.46.14,2.04.43.29.15.61.16.89.16l1.7.02c2.62.03,5.25.06,7.87.06h.88s.93,0,.93,0c.78,0,1.6-.05,2.26-.44.24-.14.39-.16.51-.16.14,0,.28.03.42.06.13.02.26.05.4.07.76.09,1.71.2,2.62.2.71,0,1.42-.03,2.13-.06.69-.03,1.38-.06,2.08-.06h.4c.42.01.86.1,1.32.18.46.09.94.18,1.43.2,1.8.08,3.69.12,5.96.12.37,0,.71-.08,1.05-.15.27-.06.52-.11.75-.12.88-.04,1.76-.06,2.64-.06.38,0,.76,0,1.14,0,.67,0,1.34.04,2.01.07.81.04,1.62.07,2.44.07h.17c.66,0,1.31-.1,1.94-.2.28-.04.55-.08.83-.12l.22-.03c.37-.05.74-.1,1.12-.12.02,0,.04,0,.05,0,.21,0,.35.01.49.03.19.02.37.03.56.03.48,0,.96.02,1.44.03.49.02.98.03,1.48.03.97,0,1.76-.07,2.5-.21.39-.08.83-.11,1.35-.11.48,0,.97.03,1.46.06.52.03,1.03.06,1.54.06h.23c1.63-.04,2.27-.63,2.47-2.28.02-.21.05-.42.08-.62.07-.52.15-1.06.13-1.62,0-.06-.04-1.49-.84-1.8-1.02-.4-2.12-.8-3.33-.8-.5,0-.99.07-1.47.21-.91.27-1.9.37-2.86.47-.06,0-.19-.06-.28-.1-.21-.09-.47-.21-.77-.21-1.66.08-3.36.21-5.08.38-.59.06-1.17.15-1.76.24-.74.11-1.51.23-2.26.28-.62.04-1.25.05-1.89.05-.42,0-.85,0-1.27,0-.43,0-.86,0-1.29,0-.25,0-.51-.01-.76-.02-.27-.01-.54-.02-.81-.02-.16,0-.32,0-.48.01-.7.04-1.41.1-2.12.15-1.21.1-2.46.2-3.68.21h-.38c-1.44,0-2.87-.07-4.38-.14-.72-.04-1.44-.07-2.18-.1l-.52-.02s-.1.54-.1.55c-.1,0-.19.01-.28.02-.36.02-.7.04-1.04.04h-.21c-.85-.03-1.52-.09-2.12-.19-.58-.11-1.17-.24-1.75-.38-.6-.14-1.2-.28-1.8-.39-.63-.11-1.32-.17-2.11-.17-.65,0-1.31.04-1.97.07-.64.04-1.27.07-1.91.07-.29,0-.59,0-.88-.03-.31-.02-.61-.03-.92-.03-.59,0-1.18.03-1.77.06-.57.03-1.15.06-1.73.06-.73,0-1.34-.05-1.92-.16-1.11-.21-2.25-.23-3.12-.23-.41,0-.81,0-1.22.01-.4,0-.8.01-1.2.01,0,0-.8,0-1.02,0-.81,0-1.63.02-2.44.04h-.56c-.59.03-1.18.06-1.77.08-.9.04-1.81.08-2.71.08-.75,0-1.52-.05-2.27-.1-.63-.04-1.27-.08-1.9-.09-.15,0-.29,0-.44,0-.41,0-.82.01-1.23.03-.4.01-.8.03-1.19.03-.14,0-.29,0-.43,0-.24,0-.5-.06-.78-.12-.34-.07-.69-.14-1.06-.14h-.13c-.91.05-1.82.13-2.72.2-1.06.09-2.16.18-3.23.22-1.7.06-3.4.07-5.11.08-1.34,0-2.68.02-4.03.05-.95.02-1.9.09-2.86.16-.59.04-1.19.08-1.78.11.01,0-.07-.03-.12-.04-.08-.03-.17-.05-.25-.07l-.37-.09c-.36-.09-.72-.19-1.11-.23-.53-.05-1.07-.05-1.52-.05h-1.59c-.95,0-1.9,0-2.85.04-.66.03-1.31.09-1.97.16-.45.04-.89.09-1.34.12-.21.01-.41.02-.62.02-.41,0-.81-.02-1.22-.04-.43-.02-.85-.04-1.28-.04-.88,0-1.59.1-2.24.3h0c-.07,0-.12,0-.15-.02-.87-.35-1.68-.52-2.49-.52s-1.54.16-2.29.48c-.02.01-.08.02-.18.02-.18,0-.4-.04-.62-.08-.14-.03-.28-.05-.42-.07-.13-.02-.26-.06-.4-.1-.23-.07-.49-.15-.78-.16-.73-.03-1.47-.03-2.2-.03h-2.32c-1.26,0-2.61,0-3.99-.14-.92-.09-1.94-.13-3.11-.13-.99,0-1.99.03-2.98.06-.98.03-1.97.06-2.95.06h-.16c-.46,0-.93-.06-1.42-.13-.43-.06-.85-.11-1.28-.13-.59-.03-1.19-.04-1.78-.04s-1.18,0-1.76.03c-.7.02-1.4.04-2.1.07-.93.04-1.85.08-2.78.09h-.84c-.86,0-1.72,0-2.57-.02-.86-.01-1.72-.02-2.57-.02-1.65,0-3.31,0-4.97.03l-5.67.1c-.2,0-.42,0-.63-.02-.23,0-.46-.02-.69-.02-.16,0-.33,0-.49.02h-.11c-.39,0-.81-.14-1.26-.3-.52-.18-1.07-.37-1.67-.37-.44,0-.85.1-1.23.31-.1-.06-.2-.11-.29-.15-.11-.04-.2-.08-.29-.12-.3-.12-.64-.26-1.02-.29-.63-.05-1.27-.06-1.89-.06h-.6c-.44-.01-.88-.03-1.32-.04-.79-.02-1.59-.05-2.38-.05-.3,0-.59,0-.89.01-1.19.03-2.38.09-3.57.15-1.6.08-3.26.17-4.88.17h0c-.49,0-.99,0-1.48-.03l-1.19-.05c-1.06-.04-2.16-.09-3.25-.09-1.19,0-2.24.06-3.2.17,0,0-.04-.02-.07-.03-.1-.03-.23-.06-.37-.07-.86-.03-1.72-.05-2.56-.05-.18,0-.34.05-.47.09-.02,0-.04.01-.05.02-1.38-.57-2.75-.65-4.03-.65-.35,0-.7,0-1.05.01-.34,0-.69.01-1.03.01-.6,0-2.98.02-3.58.02-1.03,0-2.4-.01-3.78-.09-2.33-.14-4.7-.39-6.99-.63-.78-.08-1.56-.16-2.34-.24-.32-.03-.64-.09-.96-.15-.5-.09-1.02-.19-1.56-.19-1.87,0-3.75.07-5.57.12l-1.9.06c-1.51.05-3,.12-4.51.2-.33.02-.67.05-1,.07-.54.04-1.06.09-1.57.09h-.19c-1.24-.04-2.48-.1-3.72-.16-1.38-.07-2.76-.13-4.14-.17-.29,0-.58-.01-.86-.01-.64,0-1.27.01-1.91.03-.63.01-1.25.03-1.88.03-.37,0-.74,0-1.11-.02-.91-.04-1.84-.13-2.74-.21-1.15-.11-2.34-.23-3.52-.24h-.14c-1.46,0-2.92.09-4.34.17-1.05.06-2.1.13-3.15.16-.14,0-.28,0-.43,0-.67,0-1.33-.04-2-.08-.6-.04-1.2-.07-1.8-.08h-.14c-.79,0-1.58.06-2.35.11-.75.05-1.52.11-2.28.11s-1.46-.06-2.09-.18c-.82-.16-1.72-.24-2.82-.24-.72,0-1.44.03-2.16.06-.67.03-1.33.06-1.99.06-1.06,0-2.12,0-3.18.02-1.06,0-2.12.02-3.19.02h-3.6c-.8-.01-1.6,0-2.39,0-.64.02-2.13.06-2.26,1.67-.1,1.31-.17,2.63-.25,3.99-.04.71-.16,2.79-.16,2.79h2.47c.47,0,.95-.02,1.43-.03.46-.02.93-.03,1.39-.03.75,0,1.35.05,1.89.15l.32.06c.61.12,1.24.24,1.9.24.19,0,.37,0,.56-.03.27-.03.55-.07.83-.12.54-.08,1.1-.17,1.61-.17.37,0,.68.05.93.14.75.28,1.51.41,2.4.41.69,0,1.37-.08,2.03-.16l.58-.07c.26-.03.52-.04.79-.04s.55,0,.82.02c.34,0,.68.04,1.01.06.45.04.89.07,1.33.07.3,0,.6-.02.9-.06h.11c.94-.14,1.82-.26,2.71-.26.6,0,1.15.06,1.67.17.8.18,1.65.21,2.36.21h.5c.58,0,1.17-.04,1.76-.08.56-.04,1.11-.08,1.67-.08.47,0,.88.03,1.26.09.54.09,1.03.13,1.48.13.76,0,1.47-.12,2.2-.37.23-.08.51-.11.88-.11.27,0,.53.02.8.03l.34.02c.31.02.61.08.92.14.42.08.85.16,1.3.17h.26c.93,0,1.85-.02,2.78-.05.81-.02,1.62-.05,2.43-.05.62,0,1.24.04,1.86.07.35.02.71.04,1.06.06.24,0,.48.01.71.02.46,0,.9.01,1.32.07.32.04.64.12.95.2.5.13,1.03.26,1.58.26h.12c1.11-.03,2.23-.11,3.32-.19,1.34-.1,2.72-.19,4.07-.2h.12c1.45,0,2.94.11,4.38.21.87.06,1.74.12,2.61.16,2.15.1,4.3.18,6.44.26,1.64.06,3.28.13,4.92.2,1.18.05,2.36.12,3.54.19,0,0,1.76.11,2.16.14.82.06,1.65.11,2.47.13h0c.34,0,.61-.05.87-.11.22-.04.42-.08.59-.08h.04ZM349.07,231.98c-.83,1.07-.97,2.35-1.09,3.49l-.07.57c-.14,1.14-.24,2.36-.31,3.84,0,.53.58,1.14,1.08,1.17l.57.04c1,.07,2.03.15,3.05.15.26,0,.52,0,.78-.02.74-.03,1.46-.13,2.17-.23.75-.11,1.46-.21,2.18-.23,1.59-.05,2.3-.38,2.24-2.23-.02-.63-.09-1.25-.15-1.85l-.05-.44c-.02-.24-.07-.48-.11-.73-.07-.43-.14-.84-.1-1.22.08-.77.24-1.56.42-2.39.07-.35.15-.71.22-1.08l.14-.71h-.73c-.6,0-1.17-.01-1.71-.02-.51,0-.99-.02-1.46-.02-.73,0-1.32.02-1.87.07-1.15.11-2.3.34-3.42.57-.46.09-.92.19-1.39.28l-.59.11.11.59c.02.08.04.18.07.28,0,.01,0,.02.01.04ZM19.49,230.83l-.02.17c-.01.12-.02.24-.02.36,0,.28,0,.57.01.85,0,.36.01.72,0,1.08,0,.11-.03.23-.06.34-.06.25-.13.56-.06.89.16.78.35,1.54.58,2.41l.38,1.48h.45c.25.02.51.04.78.05.55.03,1.14.06,1.74.06.2,0,.4,0,.6-.01.58-.02,1.16-.1,1.71-.17.44-.06.88-.11,1.32-.14.22-.02.43-.02.64-.02.23,0,.45,0,.67.01.2,0,.39,0,.57,0h.63l-.04-.63c-.02-.34-.02-.65-.03-.94-.01-.62-.02-1.16-.16-1.69l-.12-.48c-.25-1.01-.51-2.06-1.15-2.87-.7-.88-1.58-1.32-2.6-1.32-.61,0-1.26.16-1.95.48-.49.23-.9.34-1.25.34-.42,0-.73-.16-.98-.49-.22-.3-.59-.32-.83-.33-.05,0-.09,0-.13,0l-.65-.1-.04.66Z"/><path class="cls-2" d="M106.43,87.63c3.92,0,5.32-1.75,5.39-3.99s-.21-23.03-.21-31.29h-5.25c-.07-1.26-.07-2.17-.07-3.57,4.62-.07,6.51-2.24,7.35-4.9h4.41c0,3.92.28,39.06.28,40.81s1.12,3.01,4.41,2.87v3.78c-3.92.14-15.61,0-16.45,0,.07-1.33.14-2.31.14-3.71Z"/><path class="cls-2" d="M146.05,49.82c-3.43-.14-10.78-.07-13.02,0-2.31.07-3.85,1.96-4.2,4.9-1.12,0-3.78.07-4.34,0,.84-2.8,2.1-7.49,2.94-9.52,4.06.07,22.54.21,23.59.21l-.07,4.06c-4.76,11.97-16.52,40.81-16.87,41.86-1.05.07-5.04,0-5.6,0,2.17-4.76,16.38-38.57,17.57-41.51h0Z"/><path class="cls-2" d="M165.93,88.05c2.45-.07,3.5-1.61,3.57-4.13.14-2.59.07-19.6.14-21-1.26-.07-3.5-.14-3.92-.14.07-.98.14-3.29.21-3.99,1.47-.07,3.08-.07,3.71-.07.07-12.46,3.08-17.71,10.92-17.85,3.99-.07,6.02,2.24,6.02,6.16,0,3.01-1.68,4.2-3.85,4.06-1.33-.07-3.64-2.24-1.75-5.04-.77-.42-1.4-.56-2.03-.56-3.15,0-4.2,5.39-4.34,13.16h6.65c.07,1.12,0,3.64,0,4.27-2.66,0-4.83,0-6.65.07,0,3.15.14,18.83.07,21.07-.07,2.17.56,4.13,4.06,4.06v3.22c-3.08,0-9.94,0-12.95.14.07-1.47.07-2.52.14-3.43h0Z"/><path class="cls-2" d="M181.68,85.46c.21-8.12,7.77-11.2,15.4-15.12,0-1.26-.07-2.8-.07-4.83s-.98-4.06-3.64-4.06c-2.03,0-4.69.77-5.46,2.45.63.14,1.26.7,1.26,1.75,0,1.12-1.05,2.45-3.29,2.45s-3.01-1.89-3.01-3.99c0-4.48,6.51-6.72,11.13-6.72s7.84,2.66,7.77,8.33c-.07,5.67-.14,17.43-.14,18.76s1.96,2.31,3.43.56c.49.63.91.98,1.33,1.4-1.47,3.15-3.99,4.55-6.16,4.55s-2.73-1.89-2.87-2.8c-2.45,1.75-4.76,3.36-9.31,3.43s-6.44-2.94-6.37-6.16ZM190.71,87.21c5.32-.84,6.23-5.39,6.3-13.16-6.09,1.89-10.71,5.95-10.71,9.24,0,2.31,1.12,4.41,4.41,3.92Z"/><path class="cls-2" d="M205.69,74.32c-.14-10.22,5.53-16.87,14-17.01,2.38-.07,3.99.42,4.48.77l.63-2.59c1.12-.07,3.01-.07,3.36-.07l.21,10.15c-.91.14-3.5.07-3.92.07,0-2.24-1.89-4.9-4.76-4.83-6.16.14-9.24,5.32-9.17,13.37.07,9.94,4.48,13.51,9.52,13.44,4.06-.07,6.23-2.66,7.14-5.6.56.07,2.17.56,2.66.7-1.4,5.67-3.92,9.38-10.43,9.45-6.58.07-13.58-6.02-13.72-17.85h0Z"/><path class="cls-2" d="M233.69,81.54c-.07-4.62-.07-18.2-.07-19.74-1.19,0-2.94-.07-3.71-.07.07-1.05.07-2.52.07-3.57,2.87,0,3.85-1.19,3.92-2.87.14-1.75.07-5.81.07-6.23,1.68,0,3.43.07,4.34.07-.07,2.59.21,7.77.21,8.61l6.79.07v3.99c-1.75,0-6.23.14-6.79.14.07,3.5.28,16.66.42,19.53.14,2.94.98,4.9,3.01,4.83s2.24-2.52,2.38-4.27c.98.07,2.31.07,3.01.14.21,6.23-2.03,9.52-6.65,9.52s-6.93-3.29-7-10.15Z"/><path class="cls-2" d="M249.44,80.42c.63-.14,2.45.07,3.36.07,0,5.53,2.52,8.47,6.02,8.47s5.11-3.01,4.97-5.88c-.07-2.87-1.82-5.6-5.95-7.07s-7.98-4.13-7.98-10.01c0-5.25,4.55-8.26,8.68-8.33,2.24-.07,4.27,1.05,4.83,1.4.07-1.12.14-2.38.14-3.08,1.05,0,2.94.07,3.43.07.07,2.17.07,9.45.07,10.29-.91.07-2.45.07-3.57.14,0-4.55-1.75-5.32-4.27-5.32s-4.27,2.1-4.27,4.34c0,2.94,2.03,4.9,5.95,6.09,3.92,1.19,7.56,4.27,7.7,10.08.14,6.58-4.69,10.71-9.24,10.71-3.71,0-5.53-1.26-6.16-1.75.07.63.07,1.26.07,1.82-1.33.07-3.08,0-3.78,0v-12.04h0Z"/><path class="cls-2" d="M57.29,141.46c.21-8.12,7.77-11.2,15.4-15.12,0-1.26-.07-2.8-.07-4.83s-.98-4.06-3.64-4.06c-2.03,0-4.69.77-5.46,2.45.63.14,1.26.7,1.26,1.75,0,1.12-1.05,2.45-3.29,2.45s-3.01-1.89-3.01-3.99c0-4.48,6.51-6.72,11.13-6.72s7.84,2.66,7.77,8.33c-.07,5.67-.14,17.43-.14,18.76s1.96,2.31,3.43.56c.49.63.91.98,1.33,1.4-1.47,3.15-3.99,4.55-6.16,4.55s-2.73-1.89-2.87-2.8c-2.45,1.75-4.76,3.36-9.31,3.43-4.55.07-6.44-2.94-6.37-6.16h0ZM66.32,143.21c5.32-.84,6.23-5.39,6.3-13.16-6.09,1.89-10.71,5.95-10.71,9.24,0,2.31,1.12,4.41,4.41,3.92Z"/><path class="cls-2" d="M88.3,145.59c-.91,1.26-3.99,2.17-6.09,2.03,0-2.03-.07-3.71-.07-4.48,2.03.14,3.08-1.12,3.08-3.5s.14-12.95.07-18.34,0-15.82,0-17.71-1.33-2.59-4.27-2.38l.07-4.55c1.82-.07,7.84.07,8.54.07,0,2.66.14,18.06.21,19.6,1.82-2.17,5.32-4.27,9.38-4.2,5.32.07,11.97,5.6,11.62,18.48-.35,12.81-8.33,17.43-13.3,17.57-4.97.14-7.77-1.26-9.24-2.59h0ZM97.47,144.47c4.34,0,8.54-5.32,8.4-15.05-.14-9.8-2.66-13.02-7.49-12.81s-7.77,3.92-7.84,7.91c-.07,2.94.07,11.83,0,14.56-.07,2.94,2.52,5.39,6.93,5.39Z"/><path class="cls-2" d="M112.38,130.32c.21-10.22,6.51-16.24,15.26-16.17,8.61.07,13.23,5.81,13.23,17.01s-5.11,16.87-13.79,16.87-14.98-6.09-14.7-17.71ZM126.87,145.09c6.16-.07,8.75-6.72,8.89-14.07.14-7.28-1.89-13.79-8.4-13.93-6.3-.14-9.66,5.18-9.45,13.3.21,8.68,2.45,14.77,8.96,14.7h0Z"/><path class="cls-2" d="M161.8,144.12c-.98,1.47-4.9,3.64-8.33,3.71-3.43.07-8.54-2.66-8.68-12.88-.07-3.92-.21-10.92-.21-15.12,0-1.68-.91-1.89-3.08-1.96-.07-.63,0-2.94-.07-3.64,1.4,0,7,0,7.84.07,0,8.12.07,13.65.28,19.95.21,6.37,1.75,8.82,6.23,8.68,5.25-.14,5.81-5.46,5.81-9.31s-.07-12.67-.14-13.93c-.07-1.26-.77-2.17-3.22-2.17v-3.29c1.82-.07,7.14.07,7.91.07.07,6.16.21,24.64.28,26.25s.91,3.01,2.45,2.17c.42,1.05,1.12,2.38,1.26,2.73-.77,1.12-2.66,2.45-4.41,2.45s-3.36-1.05-3.92-3.78h0Z"/><path class="cls-2" d="M173.14,137.54c-.07-4.62-.07-18.2-.07-19.74-1.19,0-2.94-.07-3.71-.07.07-1.05.07-2.52.07-3.57,2.87,0,3.85-1.19,3.92-2.87.14-1.75.07-5.81.07-6.23,1.68,0,3.43.07,4.34.07-.07,2.59.21,7.77.21,8.61l6.79.07v3.99c-1.75,0-6.23.14-6.79.14.07,3.5.28,16.66.42,19.53.14,2.94.98,4.9,3.01,4.83,2.03-.07,2.24-2.52,2.38-4.27.98.07,2.31.07,3.01.14.21,6.23-2.03,9.52-6.65,9.52s-6.93-3.29-7-10.15Z"/><path class="cls-2" d="M200.93,124.44c.35-17.36,10.57-23.45,19.67-23.31,9.17.14,18.34,7,18.34,24.22s-11.41,22.82-19.04,22.82-19.39-5.6-18.97-23.73h0ZM220.04,145.37c7.98,0,13.09-9.73,13.09-20.23s-4.27-20.93-12.25-21.07c-8.4-.14-14.14,9.8-14.14,20.3,0,13.72,5.32,21,13.3,21Z"/><path class="cls-2" d="M241.04,141.46c.21-8.12,7.77-11.2,15.4-15.12,0-1.26-.07-2.8-.07-4.83s-.98-4.06-3.64-4.06c-2.03,0-4.69.77-5.46,2.45.63.14,1.26.7,1.26,1.75,0,1.12-1.05,2.45-3.29,2.45s-3.01-1.89-3.01-3.99c0-4.48,6.51-6.72,11.13-6.72s7.84,2.66,7.77,8.33c-.07,5.67-.14,17.43-.14,18.76s1.96,2.31,3.43.56c.49.63.91.98,1.33,1.4-1.47,3.15-3.99,4.55-6.16,4.55s-2.73-1.89-2.87-2.8c-2.45,1.75-4.76,3.36-9.31,3.43-4.55.07-6.44-2.94-6.37-6.16h0ZM250.07,143.21c5.32-.84,6.23-5.39,6.3-13.16-6.09,1.89-10.71,5.95-10.71,9.24,0,2.31,1.12,4.41,4.41,3.92h0Z"/><path class="cls-2" d="M267.01,137.54c-.07-4.62-.07-18.2-.07-19.74-1.19,0-2.94-.07-3.71-.07.07-1.05.07-2.52.07-3.57,2.87,0,3.85-1.19,3.92-2.87.14-1.75.07-5.81.07-6.23,1.68,0,3.43.07,4.34.07-.07,2.59.21,7.77.21,8.61l6.79.07v3.99c-1.75,0-6.23.14-6.79.14.07,3.5.28,16.66.42,19.53.14,2.94.98,4.9,3.01,4.83,2.03-.07,2.24-2.52,2.38-4.27.98.07,2.31.07,3.01.14.21,6.23-2.03,9.52-6.65,9.52s-6.93-3.29-7-10.15h0Z"/><path class="cls-2" d="M281.71,144.61c2.73-.07,3.57-1.33,3.57-3.5l.14-36.82c0-2.17-1.4-2.59-3.64-2.59-.07-.91-.07-2.03-.07-2.73,2.45-.07,7.28-.14,8.33-.07.07,7.56-.14,35.28.07,42.28.07,2.24.56,3.43,3.43,3.5,0,.7-.07,1.96,0,2.66-1.89,0-10.57,0-11.83.07,0-.84-.07-1.82,0-2.8Z"/><path class="cls-2" d="M295.36,157.42c0-1.89,1.96-3.36,4.13-3.36.63,0,1.26.14,1.89.42.63-1.96,2.38-6.93,3.15-9.1-1.75-5.25-6.16-18.55-8.61-25.55-.63-1.82-1.75-2.03-3.43-2.03-.07-.84.14-2.73.07-3.57,2.94.07,12.6.14,12.88.14l-.14,3.36c-3.29.07-3.57.91-2.94,3.36.63,2.38,4.34,14.21,4.83,15.61.84-3.36,4.76-15.4,5.11-16.87.35-1.54.07-2.52-2.45-2.38-.14-.91-.21-2.73-.21-3.29,1.96-.14,10.5-.14,11.06-.07l-.07,3.5c-2.73.07-3.36,1.05-4.27,3.71s-11.55,34.23-12.46,36.61c-.91,2.31-2.59,3.01-4.48,3.01s-4.06-1.12-4.06-3.5h0Z"/><path class="cls-2" d="M39.76,197.46c.21-8.12,7.77-11.2,15.4-15.12,0-1.26-.07-2.8-.07-4.83s-.98-4.06-3.64-4.06c-2.03,0-4.69.77-5.46,2.45.63.14,1.26.7,1.26,1.75,0,1.12-1.05,2.45-3.29,2.45s-3.01-1.89-3.01-3.99c0-4.48,6.51-6.72,11.13-6.72s7.84,2.66,7.77,8.33-.14,17.43-.14,18.76,1.96,2.31,3.43.56c.49.63.91.98,1.33,1.4-1.47,3.15-3.99,4.55-6.16,4.55s-2.73-1.89-2.87-2.8c-2.45,1.75-4.76,3.36-9.31,3.43-4.55.07-6.44-2.94-6.37-6.16h0ZM48.79,199.21c5.32-.84,6.23-5.39,6.3-13.16-6.09,1.89-10.71,5.95-10.71,9.24,0,2.31,1.12,4.41,4.41,3.92Z"/><path class="cls-2" d="M65.17,200.54c2.17.07,3.36-.7,3.29-2.8s-.14-17.85-.35-22.26c-.07-1.61-.56-2.38-2.45-2.38-.07-.77-.07-2.1-.07-3.01,1.68-.07,6.09-.07,6.51-.07.07,1.33-.07,2.66,0,3.08,1.61-1.89,4.06-2.66,8.26-2.66s9.52,2.1,9.66,9.45c.14,7.42.42,16.17.49,18.06s1.26,2.66,2.66,2.66c.14.7.14,2.03.14,2.73-2.24.14-10.36.07-11.41,0v-2.87c3.29,0,3.57-1.12,3.57-2.73s0-14.42-.14-17.92-1.75-6.09-5.67-6.09-6.51,2.45-6.65,6.93c-.07,4.41.14,15.47.14,17.01s1.47,2.66,3.08,2.66v3.08c-2.45,0-10.29.07-11.06.07,0-.77-.07-2.17,0-2.94h0Z"/><path class="cls-2" d="M94.01,186.18c-.07-12.6,7.14-17.01,13.23-17.01,3.43,0,5.95.91,6.86,1.75v-10.08c0-1.54-.35-3.5-3.08-3.43v-3.29h8.05c0,7.7-.07,37.73-.07,41.23s1.05,3.78,2.8,4.2c-.21,1.4-.7,3.36-.91,4.27-2.38.56-5.32-.84-6.02-2.66-1.05.98-4.2,2.73-7.7,2.87-6.23.21-13.09-4.27-13.16-17.85ZM107.73,199.83c3.99.07,6.51-2.38,6.51-5.25v-15.75c0-3.57-2.1-5.46-6.65-5.46s-8.61,3.22-8.61,12.39c0,10.92,4.83,14,8.75,14.07h0Z"/><path class="cls-2" d="M135.3,200.54c2.17.07,3.36-.7,3.29-2.8s-.14-17.85-.35-22.26c-.07-1.61-.56-2.38-2.45-2.38-.07-.77-.07-2.1-.07-3.01,1.68-.07,6.09-.07,6.51-.07.07,1.33-.07,2.66,0,3.08,1.61-1.89,4.06-2.66,8.26-2.66s9.52,2.1,9.66,9.45c.14,7.42.42,16.17.49,18.06s1.26,2.66,2.66,2.66c.14.7.14,2.03.14,2.73-2.24.14-10.36.07-11.41,0v-2.87c3.29,0,3.57-1.12,3.57-2.73s0-14.42-.14-17.92-1.75-6.09-5.67-6.09-6.51,2.45-6.65,6.93c-.07,4.41.14,15.47.14,17.01s1.47,2.66,3.08,2.66v3.08c-2.45,0-10.29.07-11.06.07,0-.77-.07-2.17,0-2.94Z"/><path class="cls-2" d="M182.77,200.12c-.98,1.47-4.9,3.64-8.33,3.71-3.43.07-8.54-2.66-8.68-12.88-.07-3.92-.21-10.92-.21-15.12,0-1.68-.91-1.89-3.08-1.96-.07-.63,0-2.94-.07-3.64,1.4,0,7,0,7.84.07,0,8.12.07,13.65.28,19.95.21,6.37,1.75,8.82,6.23,8.68,5.25-.14,5.81-5.46,5.81-9.31s-.07-12.67-.14-13.93c-.07-1.26-.77-2.17-3.22-2.17v-3.29c1.82-.07,7.14.07,7.91.07.07,6.16.21,24.64.28,26.25.07,1.61.91,3.01,2.45,2.17.42,1.05,1.12,2.38,1.26,2.73-.77,1.12-2.66,2.45-4.41,2.45s-3.36-1.05-3.92-3.78h0Z"/><path class="cls-2" d="M194.11,193.54c-.07-4.62-.07-18.2-.07-19.74-1.19,0-2.94-.07-3.71-.07.07-1.05.07-2.52.07-3.57,2.87,0,3.85-1.19,3.92-2.87.14-1.75.07-5.81.07-6.23,1.68,0,3.43.07,4.34.07-.07,2.59.21,7.77.21,8.61l6.79.07v3.99c-1.75,0-6.23.14-6.79.14.07,3.5.28,16.66.42,19.53.14,2.94.98,4.9,3.01,4.83,2.03-.07,2.24-2.52,2.38-4.27.98.07,2.31.07,3.01.14.21,6.23-2.03,9.52-6.65,9.52s-6.93-3.29-7-10.15h0Z"/><path class="cls-2" d="M212.1,196.83v-19.53c0-1.61-.63-2.8-3.15-2.8.07-.7.14-2.94.07-3.5,1.61,0,6.58-.14,7.21-.07v2.8c1.05-.98,4.13-3.15,7.56-3.22,3.36-.07,5.11,1.82,5.11,4.76s-1.68,4.27-3.64,4.34c-2.03.07-3.99-2.03-2.24-4.34-3.85-.28-6.23,2.52-6.23,5.32l.07,16.1c0,2.24.56,3.36,3.5,3.36.07.77,0,2.73.07,3.29-2.03.07-9.24.21-11.62.14v-3.08c2.45-.14,3.29-1.33,3.29-3.57h0Z"/><path class="cls-2" d="M230.36,200.26c2.59-.07,3.29-1.4,3.29-3.22l.14-20.79c0-1.54-.56-2.24-2.94-2.31-.07-.84.07-2.94.07-3.5,1.61-.14,7,.07,7.7.07-.07,3.22-.07,24.64-.07,26.67s1.12,2.94,3.22,2.87v3.29c-2.73,0-9.24,0-11.48.07,0-.77,0-2.24.07-3.15ZM235.61,157.91c2.03,0,2.94,1.96,2.94,4.48s-1.61,4.06-3.22,4.06c-1.89,0-2.94-1.96-2.94-4.41s1.19-4.13,3.22-4.13h0Z"/><path class="cls-2" d="M244.86,193.54c-.07-4.62-.07-18.2-.07-19.74-1.19,0-2.94-.07-3.71-.07.07-1.05.07-2.52.07-3.57,2.87,0,3.85-1.19,3.92-2.87.14-1.75.07-5.81.07-6.23,1.68,0,3.43.07,4.34.07-.07,2.59.21,7.77.21,8.61l6.79.07v3.99c-1.75,0-6.23.14-6.79.14.07,3.5.28,16.66.42,19.53.14,2.94.98,4.9,3.01,4.83,2.03-.07,2.24-2.52,2.38-4.27.98.07,2.31.07,3.01.14.21,6.23-2.03,9.52-6.65,9.52s-6.93-3.29-7-10.15h0Z"/><path class="cls-2" d="M259.62,200.26c2.59-.07,3.29-1.4,3.29-3.22l.14-20.79c0-1.54-.56-2.24-2.94-2.31-.07-.84.07-2.94.07-3.5,1.61-.14,7,.07,7.7.07-.07,3.22-.07,24.64-.07,26.67s1.12,2.94,3.22,2.87v3.29c-2.73,0-9.24,0-11.48.07,0-.77,0-2.24.07-3.15h0ZM264.87,157.91c2.03,0,2.94,1.96,2.94,4.48s-1.61,4.06-3.22,4.06c-1.89,0-2.94-1.96-2.94-4.41s1.19-4.13,3.22-4.13h0Z"/><path class="cls-2" d="M271.45,186.32c.21-10.22,6.51-16.24,15.26-16.17,8.61.07,13.23,5.81,13.23,17.01s-5.11,16.87-13.79,16.87-14.98-6.09-14.7-17.71ZM285.94,201.09c6.16-.07,8.75-6.72,8.89-14.07.14-7.28-1.89-13.79-8.4-13.93-6.3-.14-9.66,5.18-9.45,13.3.21,8.68,2.45,14.77,8.96,14.7h0Z"/><path class="cls-2" d="M300.92,200.54c2.17.07,3.36-.7,3.29-2.8-.07-2.1-.14-17.85-.35-22.26-.07-1.61-.56-2.38-2.45-2.38-.07-.77-.07-2.1-.07-3.01,1.68-.07,6.09-.07,6.51-.07.07,1.33-.07,2.66,0,3.08,1.61-1.89,4.06-2.66,8.26-2.66s9.52,2.1,9.66,9.45c.14,7.42.42,16.17.49,18.06.07,1.89,1.26,2.66,2.66,2.66.14.7.14,2.03.14,2.73-2.24.14-10.36.07-11.41,0v-2.87c3.29,0,3.57-1.12,3.57-2.73s0-14.42-.14-17.92-1.75-6.09-5.67-6.09-6.51,2.45-6.65,6.93c-.07,4.41.14,15.47.14,17.01s1.47,2.66,3.08,2.66v3.08c-2.45,0-10.29.07-11.06.07,0-.77-.07-2.17,0-2.94Z"/><path class="cls-2" d="M331.02,199.42c.14-1.96,1.19-4.27,3.15-4.27s3.22,2.1,3.22,4.34-1.33,4.13-3.08,4.2c-1.68.07-3.43-2.1-3.29-4.27h0Z"/><path class="cls-1" d="M13.39,112.76c-.04-.68-.08-1.37-.13-2.05-.09-1.32-.18-2.68-.21-4.02-.01-.48.07-.99.16-1.52.13-.76.26-1.55.11-2.33-.24-1.32-.18-2.63-.11-4.01.04-.83.08-1.69.05-2.54-.01-.5,0-.98.04-1.42.06-.73.13-1.45.2-2.18.14-1.45.29-2.94.34-4.43.04-1.33-.03-2.67-.11-3.96-.04-.62-.07-1.24-.09-1.85-.05-1.34-.09-2.68-.12-4.02l-.06-1.92-.05-1.36c-.05-1.33-.1-2.66-.11-3.99,0-.9,0-1.81.01-2.72.01-1.1.03-2.2,0-3.3-.01-.58-.08-1.16-.14-1.72-.08-.73-.15-1.42-.12-2.1.01-.34.08-.68.14-1.05.16-.89.34-1.89-.21-2.92.01-.03.02-.06.03-.1.05-.14.09-.28.11-.41.04-.24.09-.49.14-.73.11-.57.23-1.15.24-1.76.02-.79-.04-1.57-.1-2.33-.09-1.1-.17-2.13-.02-3.17.05-.42-.09-.83-.22-1.1-.77-1.52-.98-2.81-.66-4.07.04-.16.1-.33.16-.49.11-.29.23-.63.27-1,.14-1.41.22-2.85.3-4.23.03-.69.01-1.17-.04-1.63-.21-1.73-.9-1.92-2.56-1.94-.61,0-1.22-.08-1.93-.17-.37-.04-.75-.09-1.17-.13l-.76-.08.11.76c.06.4.12.76.17,1.08.09.54.16.99.21,1.44.05.46.09.94,0,1.36-.42,2.01-.78,4.41-.3,6.9.16.79.07,1.64-.02,2.54-.04.37-.07.73-.09,1.09-.02.27-.07.55-.13.83-.13.68-.27,1.39.01,2.02.64,1.44.25,2.89-.12,4.29l-.12.45c-.36,1.4-.31,2.77-.25,4.09.05,1.13.09,2.2-.12,3.25-.08.38.03.74.12,1.06.05.17.1.32.1.44.02.37,0,.74,0,1.11-.01.36-.02.73-.01,1.09.01.45.05.9.09,1.35.08.88.15,1.71.03,2.5-.03.16-.06.32-.09.48-.16.85-.32,1.72.08,2.71.02.07-.03.32-.06.48-.03.15-.06.31-.08.46-.01.1-.03.2-.04.3-.04.27-.09.58-.06.9.06.67.14,1.34.22,2.01.14,1.19.29,2.41.31,3.6v.25c.05,2.06.1,4.19-.27,6.17-.58,3.1-.41,5.72.55,8.2-.32.16-.55.35-.65.67-.15.48.07.89.62,1.73-.02.02-.03.03-.05.05-.37.36-.79.77-.79,1.33,0,.36-.09.75-.17,1.17-.2,1.01-.43,2.16.35,3.29h0s-.02.12-.02.18c-.05.9-.11,1.81-.16,2.71-.08,1.22-.16,2.48-.22,3.73l-5.08-4.36c.05-1.04.16-2.1.26-3.13.1-1.01.21-2.05.26-3.08.03-.6-.04-1.21-.11-1.8-.1-.82-.19-1.59,0-2.22.54-1.72.46-3.43.38-5.09-.07-1.41-.14-2.74.17-4.06.07-.31.01-.6-.03-.84-.02-.11-.04-.21-.04-.31,0-.37,0-.73,0-1.1,0-.56.02-1.12,0-1.69-.02-.45-.1-.88-.17-1.3-.03-.16-.06-.31-.08-.47,0-.08-.03-.16-.06-.25,0-.03-.02-.07-.03-.1.02-.39.06-.81.09-1.24.05-.76.11-1.51.13-2.27.04-.97.03-2.01-.02-3.37l-.02-.86c-.02-1.07-.04-2.17-.21-3.26-.18-1.24-.03-2.46.13-3.74.15-1.17.3-2.38.18-3.61-.03-.28-.06-.56-.1-.84-.08-.64-.16-1.25-.14-1.85.03-.79.17-1.61.3-2.41l.1-.6c.04-.3.11-.6.17-.9.12-.58.25-1.18.25-1.81s-.09-1.24-.17-1.84c-.07-.51-.14-.98-.16-1.46,0-.14.07-.33.14-.54.1-.27.21-.58.22-.92.04-1.5.04-2.99.04-4.49v-1.52c0-.17.02-.34.04-.51.06-.59.14-1.38-.47-2.06,0,0,0-.02,0-.03.04-.14.07-.29.08-.41.05-.47.11-.95.17-1.43.26-1.97.52-4.01-.2-6.06-.26-.71-.4-1.11-.19-1.7.5-1.44,2.81-3.29,4.39-3.86.27-.1.54-.14.83-.14.44,0,.87.11,1.32.22s.95.24,1.47.25c.18,0,.37.02.56.03.33.02.65.04.98.04.49,0,.9-.04,1.27-.13.78-.19,1.12-1.48,1.13-1.98.01-.6-.04-1.2-.09-1.78-.06-.71-.12-1.38-.06-2.03.21-2.42.54-5.01,1.01-7.94.05-.08.46-.34.7-.37,2.41-.28,4.59-.46,6.65-.56,1.22-.06,2.46-.07,3.4-.07h2.74c.27,0,.66-.1,1.04-.59.41-.54.73-1.52.51-2.29-.08-.29-.1-.62-.11-.97,0-.14-.02-.28-.03-.42,0-.08,0-.14,0-.2.02-.25.06-.68-.31-.92-.5-.33-.55-.78-.6-1.55-.02-.41-.05-.83-.18-1.24.02-.07.08-.18.11-.25l.06-.13s.05-.05.07-.08c.13-.14.33-.35.35-.68.06-.9.58-1.12,1.57-1.44.25-.08.5-.17.74-.27l.1-.05c.53-.23,1.07-.46,1.6-.62.82-.25,1.9-.57,3.01-.81.04-.01.1-.02.18-.02.2,0,.37.06.45.11.81.55,1.74.82,2.84.82.35,0,.73-.03,1.16-.08.44-.05.89-.07,1.34-.09.56-.03,1.13-.05,1.7-.14.52-.08,1-.27,1.46-.45.19-.08.38-.15.57-.22l.25-.08c.48.18.98.36,1.51.47.47.1.95.12,1.4.12h.6c.42,0,.84-.02,1.27-.04,0,0,1.83-.07,2.55-.11,1.63-.07,3.25-.14,4.88-.17.41,0,.83-.03,1.24-.06.47-.03.95-.06,1.42-.06.82,0,1.48.09,2.07.29.22.07.47.11.73.11.33,0,.66-.06.93-.17.72-.3,1.47-.44,2.37-.44.47,0,1,.04,1.65.12,1.03.14,2.08.16,3.1.19.5.01,1.01.03,1.5.05.09,0,.18,0,.27,0,.55,0,1.09-.09,1.62-.18.5-.08.97-.16,1.43-.16.57,0,1.02.13,1.44.41.2.13.43.16.58.16s.56-.03.82-.29c.37-.38.8-.54,1.43-.54.3,0,.61.03.91.07.35.04.69.07,1.03.07.19,0,.38-.01.57-.04.22-.03.45-.05.68-.05.66,0,1.35.11,2.07.23.63.1,1.29.21,1.95.24.2,0,.4.01.6.01.86,0,1.73-.06,2.57-.12.36-.03.72-.05,1.08-.07l.99-.06c1.45-.09,2.94-.18,4.41-.18,1.28,0,2.42.07,3.48.21.26.03.45.05.64.05.11,0,.22,0,.33-.02.53-.07,1.07-.16,1.61-.24.99-.16,2.02-.32,3.03-.39.12,0,.24-.01.35-.01.38,0,.77.04,1.16.08.42.04.85.09,1.29.09.46,0,.84-.09,1.21-.18.31-.07.61-.14.84-.14.1,0,.18.01.24.04.38.19.77.27,1.19.27.33,0,.62-.05.91-.1.24-.04.46-.08.67-.08,3.43.19,6.77.39,10.09.62.65.05,1.3.12,1.94.19.77.08,1.54.17,2.31.21.4.02.8.03,1.21.03.29,0,1.44-.02,1.72-.02h.44c1.06.02,2.13.07,3.19.12.93.04,1.86.09,2.79.14,1.99.1,4.04.21,6.07.27h0c.55,0,1-.13,1.43-.26.29-.09.57-.17.83-.2.06,0,.12-.01.17-.01.25,0,.53.06.83.12l.22.04s.11.05.16.08c.17.1.4.23.69.23,2.16-.05,4.31-.13,6.45-.21l.88-.03c.74-.02,1.48-.05,2.23-.1.33-.02.63-.1.91-.17.15-.04.3-.08.45-.1.07,0,.18-.01.3-.01h.12c.37.03.74.06,1.12.08.86.06,1.73.13,2.59.15.89.02,1.78.03,2.67.03h2.55s.05.02.05.02l.26.05c.08,0,.16-.02.24-.05.52-.21,1.07-.31,1.75-.31.58,0,1.15.07,1.77.14l.66.08c.6.07,1.22.14,1.84.14.34,0,.65-.02.95-.07.17-.02.35-.03.52-.03.34,0,.66.04.99.07.27.03.53.06.8.07.59.03,1.18.04,1.77.04,1.17,0,2.2-.06,3.15-.2.44-.06.91-.09,1.43-.09.79,0,1.61.07,2.4.14.81.07,1.65.15,2.49.15h.19c.94-.02,1.89-.06,2.84-.1,1.08-.05,2.16-.1,3.23-.1h.19c1.04,0,2.08.04,3.12.08.72.03,1.44.06,2.16.07h0c.37,0,.71-.08,1.03-.15l.29-.06c.07-.02.14-.04.2-.06.71.43,1.4.49,1.88.49.35,0,.71-.03,1.06-.07.22-.02.45-.04.67-.06h.02c.19,0,.34.01.48.02.18.02.36.03.54.03.33,0,.6-.05.83-.16.39-.18.79-.26,1.26-.26.51,0,1.03.09,1.57.19.58.1,1.17.21,1.79.21.09,0,.18,0,.26,0,2.24-.12,4.53-.16,6.74-.2.8-.01,2.41-.05,2.41-.05.2,0,.39.04.59.08l.15.03c.08.02.16.04.24.07.19.06.41.14.65.14.1,0,.19-.01.28-.04.55-.14,1.12-.21,1.76-.21.99,0,1.96.16,2.99.34.35.06.69.12,1.04.17.14.02.29.03.43.03.06,0,.11,0,.16,0,.42-.04.83-.08,1.25-.12.88-.09,1.79-.18,2.68-.2h.2c.43,0,.86.04,1.29.08.46.04.93.08,1.4.08h.48c.64,0,1.27-.01,1.91-.02.63-.01,1.26-.03,1.89-.03.29,0,.57,0,.86,0h.27c.79,0,1.59-.07,2.35-.14.77-.07,1.5-.13,2.24-.13s1.42.07,2.03.22c.19.05.39.07.58.07.2,0,.39-.03.56-.08.56-.17,1.19-.25,1.95-.25.55,0,1.11.04,1.67.08.58.04,1.17.09,1.75.09.11,0,.22,0,.34,0,.79-.02,1.59-.08,2.38-.14.77-.06,1.55-.11,2.32-.13.47-.01.96-.04,1.44-.08.57-.04,1.13-.08,1.69-.08.77,0,1.37.08,1.89.25.56.18,1.16.27,1.87.27.46,0,.92-.04,1.37-.07.42-.03.84-.07,1.26-.07.6,0,1.08.08,1.53.24.2.07.41.11.65.11.39,0,.77-.09,1.15-.18.32-.08.61-.15.88-.16.19,0,.38,0,.57,0,.43,0,.87.01,1.3.03.45.02.9.03,1.35.03.31,0,.63,0,.95-.02.3,0,.61-.02.91-.02.15,0,.29,0,.44,0,.62.02,1.25.08,1.87.13.36.03.72.06,1.08.09.5.03,1.01.06,1.51.09.51.03,1.03.06,1.54.1.12.05.25.09.41.09h.13l.18-.06c.36-.16.75-.23,1.22-.23s.9.07,1.38.14c.5.07,1.01.15,1.53.15.31,0,.59-.03.87-.08.65-.12,1.34-.19,2.12-.19s1.48.06,2.17.12c1.4.12,2.93.18,4.8.18,1.72,0,3.46-.08,5.13-.16.6-.03,1.2-.08,1.8-.14l.85-.07h.22c.2.01.36-.03.5-.12.36-.25.72-.36,1.17-.36.36,0,.74.07,1.15.14.43.08.88.15,1.35.15h.37c1.2,0,2.35.05,3.42.14.34.03.68.11,1.04.2.39.09.8.19,1.22.22.2.02.41.02.61.02.33,0,.67-.02,1-.04.31-.02.62-.03.93-.03h.12c.21,0,.43.01.64.02.23.01.47.03.71.03.29,0,.57,0,.85,0,.29,0,.59,0,.88-.02.22-.01.44-.06.66-.11.19-.04.38-.08.52-.08.06,0,.09,0,.11.01.64.23,1.32.34,2.14.34.52,0,1.03-.04,1.55-.09.38-.03.76-.07,1.14-.08.2,0,.41,0,.61,0,.32,0,.64,0,.96.01.33,0,.66.01.98.01.84,0,1.84-.03,2.82-.26.34-.08.7-.11,1.13-.11.37,0,.74.03,1.1.05.38.03.76.06,1.13.06.22,0,.44,0,.66-.03.45-.05.91-.06,1.37-.06.82-.02,1.67-.03,2.51-.25.54-.14,1.08-.53,1.68-1.23.47-.54,1.69-1.08,2.48-1.08.1,0,.19,0,.27.03,1.27.33,1.78,1.1,2.28,2.41.37.97.18,1.91-.02,2.89-.15.71-.3,1.44-.25,2.22.07.95.02,1.94-.03,2.9-.02.44-.05.88-.06,1.32v.17c0,.18-.01.35-.05.47-.21.78-.33,1.32,0,1.74.28.37.75.42,1.12.42.17,0,.37-.01.61-.03.07,0,.14,0,.21,0,.22,0,.45.02.67.04.26.03.53.05.79.05.53,0,.97-.1,1.38-.31.09.03.25.11.39.21.8.54,1.66.8,2.65.8.53,0,1.1-.08,1.73-.23l.37-.09c.71-.17,1.38-.34,2.08-.43.15,0,.35.09.42.16.18.19.36.36.54.54.74.71,1.38,1.33,1.47,2.51.05.63-.04,1.14-.13,1.74-.03.21-.07.42-.1.65-.11.88-.07,1.77-.02,2.63.03.62.06,1.21.04,1.8-.03.62,0,1.25.01,1.87.04,1.33.08,2.58-.31,3.83-.24.79-.08,1.67.06,2.45.04.19.07.38.1.56.1.55.84.9,1.29.9h.12c1.11-.14,2.33-.34,3.73-.61.22-.04.44-.1.65-.15.42-.11.82-.21,1.19-.21.33,0,.62.08.91.25.15.09.32.13.51.13.38,0,.8-.18,1.13-.32.17-.07.32-.11.46-.11.51,0,.92.48,1.31.95l.11.13c.52.6.87,1.42,1.21,2.22l.22.51c.18.4.28.85.39,1.32h0s0,.02,0,.02l.07.43c.21.84.22,1.08-.22,1.39-.41.27-.52.8-.61,1.21-.02.08-.03.17-.05.24-.16.63-.27,1.25-.34,1.71-.05.42-.1.81-.01,1.21.18.78.23,1.47-.08,2.29-.26.69-.2,1.43-.14,2.15.02.28.05.56.05.84v3.77s-.01.07-.02.11c-.03.16-.07.41.04.66.49,1.09.32,2.21.15,3.4-.03.22-.07.45-.09.67-.22,1.63-.2,3.09.06,4.34.12.58,0,1.08-.16,1.65-.09.35-.19.72-.22,1.12-.02.23-.05.45-.08.68-.12,1.02-.26,2.18.28,3.31.04.07.05.15.07.22.02.11.01.28,0,.47-.02.41-.06,1,.38,1.52-.03.09-.07.18-.09.26-.07.18-.14.37-.18.52l-.05.15c-.07.2-.15.45-.15.73v.46c-.04,1.06-.07,2.15-.05,3.24.01.87.05,1.74.09,2.61.03.65.06,1.3.07,1.94,0,.2-.03.42-.07.65-.03.16-.05.32-.07.48-.02.16-.05.34-.08.52-.08.52-.17,1.05-.1,1.6.02.18.05.35.08.53.12.78.23,1.46-.09,2.12-.11.19-.19.54-.06.84.49,1.06.45,2.2.4,3.4-.04,1.04-.08,2.12.23,3.2.05.18.03.44,0,.72-.02.2-.03.4-.03.6.03.91.06,1.81.1,2.7l.05,1.44c0,.09.02.18.03.26,0,0,0,.02,0,.03-.76,1.07-.52,2.13-.3,3.06.06.25.12.51.15.77.11.71.08,1.45.05,2.23-.01.31-.02.63-.03.94l-.02,1.07-4.51,2.36c-.03-1.27-.12-2.55-.21-3.79-.09-1.25-.18-2.54-.21-3.8-.03-1.12.03-2.27.09-3.39.05-.94.1-1.91.1-2.88,0-1.73-.15-3.43-.31-5-.06-.51-.23-.97-.4-1.42-.06-.15-.12-.3-.17-.46l.34-3.8-.44-.33c.45-.37.48-.78.41-1.59l-.04-.44c-.11-1.34-.23-2.73.03-3.97.26-1.26.03-2.26-.25-3.25-.03-.12-.09-.25-.16-.39-.14-.29-.14-.29.02-.46.58-.62.68-1.64.7-2.46.02-.57-.1-1.13-.22-1.67-.05-.2-.09-.4-.13-.6-.05-.3-.12-.61-.19-.91-.14-.64-.28-1.24-.28-1.83,0-.62.11-1.25.21-1.91.08-.53.17-1.07.21-1.63.03-.5.07-.99.11-1.49.16-2.02.33-4.11-.07-6.21,0-.01,0-.09.01-.14.01-.12.02-.24.02-.35l-.25-3.41c0-.12-.02-.25-.04-.37-.03-.27-.06-.54-.01-.72.55-2.05.25-4.02-.07-5.51-.32-1.48-.51-2.7-.6-3.85-.05-.64.01-1.3.07-1.94.03-.29.05-.58.07-.85l.02-.35-.3-.19c-.58-.37-1.19-.55-1.86-.55-.59,0-1.13.14-1.64.27-.43.11-.84.22-1.21.22-.06,0-.12,0-.19,0l-.66-.07v.67c0,.27.02.53.04.79.04.45.07.88-.04,1.16-.28.67-.64,1.5-.09,2.54.04.08,0,.42-.02.59l-.02.19c-.06.73-.15,1.44-.24,2.16l-.07.53c-.02.12-.04.26-.06.39-.04.25-.08.5-.1.75v.14c-.05.45-.09.91-.05,1.38.02.25.09.51.16.73.05.16.12.44.11.52-.44,1.01-.36,2-.28,2.96.06.67.11,1.3-.02,1.91-.35,1.73-.24,3.54-.13,5.3.04.69.08,1.39.1,2.07.01.49.04.97.07,1.46.04.72.09,1.47.07,2.18-.01.63-.08,1.26-.15,1.92-.06.54-.12,1.07-.15,1.61l-.04.74c-.08,1.46-.16,2.97-.11,4.47.04,1.18.18,2.35.32,3.49.06.51.12,1.03.18,1.54-.06.14-.09.23-.11.31-.05.27-.11.53-.16.78-.15.68-.3,1.39-.3,2.12-.01,1.11.03,2.23.07,3.32.03.72.05,1.44.07,2.16,0,.23-.05.49-.11.76-.03.15-.06.29-.08.44l-.03.17c-.05.25-.11.53-.08.83.04.76.09,1.53.14,2.31.07,1.18.15,2.35.19,3.53.03.71.02,1.42,0,2.13-.02,1.41-.04,2.86.23,4.27.16.86.2,1.69.23,2.56l-4.69,1.76c-.03-.46-.07-.91-.11-1.36-.06-.58-.11-1.17-.13-1.76-.03-.98-.03-1.96-.03-2.95,0-1.18,0-2.41-.06-3.61-.06-1.2-.2-2.4-.33-3.56-.07-.61-.14-1.23-.2-1.84-.15-1.55-.29-3.09-.42-4.63-.01-.12.01-.27.03-.43l.12-.76c.09-.55.18-1.11.24-1.66.05-.5.07-.99.09-1.49l.03-.72c.01-.29.06-.59.1-.89.11-.8.23-1.63-.1-2.36-.1-.21-.21-.39-.32-.55-.04-.05-.08-.12-.11-.18.05-.03.12-.08.23-.14.43-.19.41-.7.4-1.04v-9.09c-.01-2.48-.02-4.97,0-7.44,0-.82-.07-1.65-.14-2.44-.15-1.7-.3-3.31.26-4.9.07-.24.04-.44.02-.57v-.11c-.03-.41-.07-.83-.11-1.24-.09-.95-.17-1.84-.05-2.69.31-2.01.23-4.08-.26-6.3-.03-.14.04-.4.1-.63.03-.1.06-.21.08-.31.04-.16.1-.32.15-.49.13-.38.28-.82.26-1.29-.02-.65-.07-1.99-1.24-1.99-.28,0-.57.08-.91.17l-.23.06c-.33.09-.66.19-1,.29-.78.24-1.59.49-2.29.49-.15,0-.3-.01-.45-.04-.68-.13-1.3-.19-1.89-.19-.79,0-1.56.11-2.34.34-.15.05-.33.07-.54.07-.23,0-.49-.03-.78-.08-.56-.1-1.12-.27-1.71-.44-.13-.04-.27-.08-.4-.12-.1-.31-.26-.72-.64-.93-.75-.4-1.08-1.02-.97-1.84.04-.29.02-.58,0-.86-.04-.78-.01-1.1.47-1.35.42-.24.44-.74.46-1.11l.02-.37c.04-.63.07-1.26.07-1.89,0-.66,0-1.33,0-2,0-1.1-.02-2.24.02-3.34.06-1.58.15-3.16.25-4.73.04-.7.09-1.4.13-2.1.04-.61-.1-1.09-.42-1.43-.3-.32-.73-.48-1.27-.48h-.18c-.23,0-.46,0-.68,0-.22,0-.44.01-.66.01-.2,0-.41,0-.61-.02-.65-.05-1.3-.11-1.95-.18-1.04-.11-2.12-.22-3.2-.24h-.48c-1.17,0-2.36.06-3.5.13-.55.03-1.1.06-1.64.08h0c-.1,0-.18,0-.27-.02-.12-.01-.24-.02-.36-.02-.26,0-.48.05-.67.16-.33.19-.72.28-1.26.28-.26,0-.53-.02-.79-.04-.29-.02-.58-.04-.87-.04-.54,0-1.22.06-1.88.46-.05-.01-.1-.02-.15-.03l-.49-.06c-.55-.07-1.11-.15-1.67-.19-.4-.03-.81-.08-1.22-.13-.62-.08-1.27-.16-1.9-.16-.51,0-.96.05-1.37.17-1.29.36-2.63.52-4.34.52-.71,0-1.44-.04-2.16-.08-.42-.02-.83-.04-1.25-.05h-.18c-.25,0-.51.01-.76.03-.22.02-.44.04-.66.07-.31.04-.61.08-.92.08-1.58,0-3.22-.05-5.03-.11l-.75-.03c-1.38-.05-2.8-.09-4.18-.26-.23-.03-.45-.08-.68-.13-.38-.08-.77-.17-1.18-.17-.57,0-1.06.17-1.51.51l-.12-.03c-.88-.28-1.84-.41-3.02-.41-.62,0-1.24.03-1.86.07l-.42.02c-.82.04-1.65.05-2.47.05-.88,0-1.79.01-2.69.07-.38.02-.75.18-1.07.33-.16.07-.41.18-.5.19-.55-.3-1.23-.45-2.05-.45-.44,0-.88.04-1.32.09-.23.02-.45.05-.68.06-.08,0-.15.01-.22.01-.11,0-.2,0-.28-.03-1.28-.29-2.62-.43-3.98-.43-1.17,0-2.41.11-3.67.32-.12-.05-.21-.08-.33-.1-.12-.02-.24-.04-.36-.06-.28-.05-.56-.1-.87-.1-.09,0-.18,0-.27.02-.41.05-.81.15-1.19.24-.5.12-.98.24-1.41.24-.09,0-.17,0-.26-.02l-.67-.09c-.95-.13-1.94-.26-2.95-.26-.53,0-1.03.04-1.52.11-.25.04-.51.06-.76.06-.62,0-1.26-.09-1.94-.19-.57-.08-1.16-.17-1.75-.19-.66-.03-1.32-.06-1.97-.06-1.61,0-2.9.16-4.07.51-.16.05-.3.11-.44.19-.35-.59-.92-.88-1.71-.88-.23,0-.47.02-.7.05-.11.01-.21.02-.31.03-.74.05-1.48.15-2.2.25-1.07.14-2.09.27-3.12.27-.62,0-1.19-.05-1.73-.15-.25-.05-.51-.07-.8-.07-.4,0-.8.04-1.21.09-.28.03-.57.06-.85.07l-.64.03c-.62.03-1.25.07-1.86.07-.28,0-.58-.04-.87-.08-.34-.04-.7-.09-1.05-.09-.24,0-.46.02-.67.06-.96.2-1.93.25-2.95.3-1.12.06-2.27.12-3.43.39-.27.06-.56.09-.89.09-.62,0-1.26-.1-1.95-.21-.72-.12-1.46-.23-2.19-.23,0,0-.12,0-.12,0-.56,0-1.05-.08-1.57-.16-.55-.09-1.12-.17-1.71-.17-.85,0-1.59.2-2.25.6h0s-.05.02-.17.02c-.26,0-.59-.08-.91-.17-.96-.28-2-.55-3.06-.55-.67,0-1.3.1-1.91.32h-.1c-.15.01-.36-.04-.56-.09-.18-.04-.36-.09-.53-.11-.12-.02-.24-.04-.35-.06-.24-.05-.51-.1-.8-.1h0c-.77,0-1.39.18-1.99.36-.55.16-1.07.31-1.57.31-.3,0-.58-.06-.85-.17l-.11-.05h-.2s-.05,0-.05,0c-.89-.06-1.79-.12-2.68-.17-.35-.02-.69-.04-1.04-.06-.77-.05-1.57-.11-2.36-.11-1.19,0-2.39.06-3.59.11-.49.02-.99.04-1.48.06-.08-.03-.18-.07-.31-.07-.58.03-1.12.07-1.62.1l-.38.03c-.28-.03-.64-.07-1-.11-.7-.08-1.43-.16-2.15-.16h-.25c-.78.02-1.55.11-2.3.2-.8.09-1.56.18-2.33.19-.44,0-.89,0-1.33,0-2.12,0-4.16-.07-6.06-.2-.16-.01-.31-.02-.47-.02-.52,0-1.04.06-1.53.11-.49.05-.95.1-1.41.1-.43,0-.81-.04-1.17-.14-1.01-.26-2.02-.3-2.96-.3h-1.45c-.85.01-1.76-.02-2.65-.24-.92-.23-1.89-.26-2.63-.26-.27,0-.54,0-.81,0-.98.01-1.96.06-2.93.1-1.14.05-2.31.11-3.47.11h-.1c-.76,0-1.55-.05-2.31-.09-.78-.05-1.59-.1-2.39-.1-.2,0-.4,0-.6,0-.16,0-.32,0-.48,0-.6,0-1.2-.03-1.81-.06-.62-.03-1.25-.06-1.88-.06-.57,0-1.09.03-1.57.08-1.73.2-3.52.2-5.25.21h-1.25c-.82.01-1.64.01-2.46.01h-2.66c-1.08,0-2.17,0-3.25.01-.4,0-.8.08-1.19.15-.35.06-.68.12-.96.12-.17,0-.31-.02-.42-.07-.51-.22-1.04-.33-1.65-.33-.46,0-.91.06-1.34.12-.41.06-.79.11-1.17.11-.11,0-.23,0-.34-.02-.97-.09-2.03-.14-3.34-.14-.67,0-1.34.01-2.01.02-.67.01-1.33.02-1.99.02s-1.28-.02-1.92-.04c-.65-.02-1.3-.04-1.95-.04-1.21,0-2.19.07-3.09.21-.6.09-1.18.14-1.72.14s-1-.04-1.42-.13c-.73-.16-1.49-.23-2.4-.23-.63,0-1.26.03-1.89.07-.6.03-1.21.07-1.81.07-.25,0-.51,0-.76-.02-.7-.04-1.46-.06-2.39-.06-.48,0-.97,0-1.45,0-.48,0-.96,0-1.44,0s-.99,0-1.49-.02l-1.56-.04c-2.19-.06-4.46-.12-6.63-.43-.48-.07-.99-.1-1.56-.1-.63,0-1.26.04-1.89.08-.6.04-1.2.08-1.8.08-1.06,0-1.9-.13-2.66-.41l-.1-.04h-.18s-.08,0-.13,0c-1.93-.03-3.85-.05-5.76-.07-.59,0-1.15-.01-1.71-.02-.76-.01-1.51-.02-2.27-.02-.39,0-.77,0-1.16,0-.87.02-1.74.06-2.61.11-.79.04-1.57.09-2.35.11h-.22c-.44,0-.87-.02-1.31-.04-.46-.02-.91-.04-1.37-.04-.22,0-.44,0-.66.02h-.18c-1.42.08-2.9.14-4.32.44-1.36.28-2.83.42-4.51.42-.8,0-1.65-.03-2.69-.09-.16,0-.31-.01-.47-.01-1.06,0-2.12.19-3.15.37l-.35.06c-.65.11-.99,1.01-1.05,1.42-.08.58-.12,1.15-.16,1.73-.04.59-.09,1.18-.17,1.77-.05.37-.14.74-.24,1.13-.13.52-.27,1.05-.3,1.61-.06,1.09-.04,2.19-.03,3.26,0,.5.02,1,.02,1.51,0,.14.02.29.04.45.01.09.03.21.03.29-.46.54-1.02,1.02-1.61,1.51-.41.34-.85.66-1.28.98l-.46.34s-.08,0-.14,0c-.13,0-.26-.01-.41-.02-.19-.02-.38-.03-.58-.03h-.13c-.55.03-1.1.08-1.65.14-.69.07-1.35.14-2,.14-.18,0-.37,0-.55-.02-.17-.01-.35-.02-.52-.02-.66,0-1.31.08-1.94.16-.62.08-1.2.15-1.78.15s-1.06-.07-1.51-.22c-.13-.04-.27-.06-.42-.06-.18,0-.36.03-.51.06-.04,0-.08.02-.11.02l-.48.05-.08.48c-.03.26-.06.51-.09.74-.05.35-.09.67-.11,1-.03.35-.03.72-.03,1.08,0,.72,0,1.39-.21,1.97l-.07.19c-.31.87-.66,1.85.11,2.89,0,.02,0,.03,0,.05-.02.37-.05.77-.08,1.18-.07.86-.13,1.75-.06,2.63.14,1.64.42,3.27.69,4.84l.13.78c.04.26.1.52.15.78.18.87.36,1.7.12,2.46-.26.83-.41,1.81.4,2.78,0,.09,0,.25-.01.34-.06.57-.13,1.13-.21,1.7-.15,1.1-.3,2.25-.32,3.39-.03,1.98.04,3.99.1,5.94.02.76.05,1.53.07,2.29l.02,1.09c.04,1.88.08,3.76.16,5.63.03.7.08,1.4.13,2.09.05.68.1,1.36.13,2.05.02.43.01.86,0,1.3,0,.74-.02,1.51.09,2.27.09.66.03,1.34-.04,2.06-.09.99-.19,2.02.14,3.07,0,.03,0,.06,0,.09-.05.39-.11.85-.18,1.32-.15,1.11-.3,2.26-.36,3.4-.07,1.39-.1,2.78-.14,4.17-.04,1.71-.08,3.49-.2,5.22-.02.27-.04.54-.07.81-.1,1.13-.21,2.29.06,3.49l-4.68,2.46ZM350.86,19.61c.04.22.08.42.13.61.07.28.12.52.11.71-.05.83-.12,1.68-.19,2.52-.08.94-.16,1.89-.21,2.83-.12,2.28-.19,4.37-.23,6.4,0,.78.17,1.35.55,1.73.33.34.79.51,1.36.51.65,0,1.3-.02,1.95-.04.64-.02,1.28-.04,1.92-.04.29,0,.57,0,.86.01h.14c1.87,0,2.08-1.61,2.16-2.14.04-.26.02-.53.01-.79,0-.17-.02-.45,0-.55.02-.03.18-.18.18-.18h0c.84-1.04.7-2.16.59-3.07-.05-.41-.1-.8-.07-1.16.05-.68-.1-1.29-.25-1.89-.19-.76-.35-1.41-.1-2.1.33-.93.11-2.05-.08-2.82-.18-.73-1.24-1.12-1.74-1.15-.23-.02-.46-.02-.68-.02-.42,0-.83.02-1.25.04-.4.02-.79.04-1.19.04h-.1c-.73,0-1.46-.05-2.22-.1l-1.76-.1.13.74ZM19.88,18.92c-.68,0-1.43.06-1.87.53-.45.47-.42,1.09-.38,1.88,0,.21.02.43.02.68,0,.16.05.31.08.41.05.38.09.69.12.99.08.71.16,1.39.13,2.05-.04.74-.19,1.49-.33,2.22-.06.3-.12.59-.17.88l-.1.55.54.13c1.05.26,2.11.39,3.24.39,2.06,0,4.02-.43,5.92-.85l1.27-.28-.11-.57c-.01-.06-.03-.14-.06-.23,0-.01,0-.02-.01-.04.74-1.09,1.1-2.33,1.12-3.92.01-.73.11-1.46.22-2.23.08-.55.15-1.1.19-1.66.03-.56-.59-1.26-1.12-1.29-1-.06-2.08-.12-3.17-.12-.43,0-.85,0-1.28.03-.58.03-1.14.13-1.68.23-.61.11-1.18.22-1.74.22h-.2c-.24-.02-.45-.02-.65-.02ZM303.89,14.1c.14,0,.27,0,.41,0,.43.02.87.1,1.33.18.58.1,1.19.2,1.8.2h.1c1.55-.03,3.37-.11,5.12-.48.05-.01.1-.02.15-.02.17,0,.33.07.53.16.24.11.53.24.9.24,1.84-.06,3.62-.15,5.4-.25l1.09-.06c.25-.01.5-.04.74-.06.31-.03.62-.07.93-.07.68,0,1.37.03,2.06.06.8.03,1.61.06,2.41.06.67,0,1.26-.02,1.81-.07.74-.06,1.49-.15,2.23-.23,1.42-.16,2.89-.33,4.33-.33.78,0,1.5.05,2.18.15.08.01.17.02.25.02.21,0,.44-.04.66-.08.12-.02.23-.04.35-.05.26-.02.52-.05.78-.08.44-.05.85-.1,1.26-.1.13,0,.25,0,.38.02,1.05.09,2.08.26,3.17.44.43.07.86.14,1.28.21l.86.13-.19-.85c-.03-.13-.06-.25-.1-.38-.07-.26-.14-.51-.13-.72.02-.67.08-1.33.14-1.99.04-.48.08-.96.11-1.45l.02-.34h0c.06-.38.13-.87-.2-1.27-.22-.27-.56-.42-1.01-.43-.56-.02-1.12-.04-1.68-.04-.82,0-1.64.02-2.46.07-.48.03-.95.11-1.4.19-.46.08-.9.16-1.33.17-.5.02-1.01.03-1.51.03h-1.47c-.66,0-1.31,0-1.97.04-.57.03-1.13.15-1.68.26-.6.13-1.17.24-1.69.24-.18,0-.35-.01-.53-.05-1.18-.24-2.44-.35-4.06-.35-.73,0-1.47.02-2.2.04-.72.02-1.44.04-2.16.04-.95,0-1.73-.04-2.47-.12-.45-.05-.94-.07-1.54-.07-.34,0-.68,0-1.02.01-.33,0-.67.01-1,.01s-.67,0-1.01-.03c-.44-.03-.87-.07-1.31-.11-.87-.08-1.78-.16-2.68-.16s-1.68.08-2.42.24c-1.41.3-2.89.42-4.33.53l-.69.05c-.89.07-1.78.09-2.72.1-.4,0-.81.01-1.23.02-.11-.03-.23-.06-.36-.09-.42-.11-.93-.24-1.46-.24h0c-.47,0-.88.06-1.28.12-.37.06-.72.11-1.06.11-1.37-.04-2.66-.11-3.96-.17-1.01-.05-2.03-.11-3.04-.15-.79-.03-1.59-.04-2.38-.06-.79-.01-1.57-.02-2.36-.05-.78-.03-1.55-.08-2.33-.13-1.26-.08-2.57-.16-3.86-.16-1.67,0-3.37.07-5.02.14-.78.03-1.56.06-2.33.09-.31,0-.62.03-.93.05-.44.03-.88.05-1.33.05-.19,0-.38,0-.56-.02-.97-.06-1.94-.15-2.91-.23-1.28-.11-2.6-.23-3.91-.29h-.25c-.65,0-1.31.08-1.94.16-.52.07-1.01.13-1.5.15-2.11.09-4.27.12-6.36.15h-.17c-.34,0-.68-.01-1.02-.02-.36-.01-.71-.03-1.07-.03-1.08,0-2.15,0-3.22.01-1.07,0-2.15.01-3.22.01h-1.05c-1.03,0-2.06-.03-3.09-.05-1.19-.02-2.38-.05-3.56-.05h-.68c-1.33,0-2.65.01-3.98.02-1.32.01-2.65.02-3.97.02h-1.24c-1.77-.02-3.53-.05-5.3-.09-2.18-.05-4.44-.09-6.66-.09-2.17,0-4.36.08-6.48.14-1.08.03-2.16.07-3.24.1-.54.02-1.07.04-1.6.04-.21,0-.43,0-.64-.01-1.84-.08-3.7-.2-5.54-.32-.14,0-.27-.04-.39-.07-.2-.05-.42-.1-.66-.1-.13,0-.25.02-.37.05-.34.1-.7.14-1.16.14-.37,0-.74-.03-1.12-.06-.4-.03-.81-.06-1.21-.06-.55,0-1.35.05-2.17.44-.09-.04-.18-.07-.28-.08-.14-.02-.31-.06-.47-.09-.39-.08-.79-.17-1.22-.17-.08,0-.16,0-.24.01-.49.04-.98.1-1.46.16-.85.11-1.66.21-2.49.21-.44,0-.84-.03-1.24-.08-1.56-.22-3.1-.26-4.54-.26h-2.5c-.42.01-.84,0-1.27,0-.11,0-.2-.01-.29-.02-.14-.01-.27-.03-.41-.03h-3.76c-.68,0-1.36.02-2.04.03-.75.02-1.5.03-2.25.03-.83,0-1.55-.02-2.21-.07-.23-.02-.47-.04-.7-.06-.43-.04-.84-.08-1.23-.08-.55,0-1.32.07-1.96.62l-.71-.08c-.56-.06-1.05-.12-1.54-.16-.07,0-.14,0-.21,0-.16,0-.33.02-.49.03-.13.01-.25.03-.37.03-.57,0-1.14-.02-1.72-.04-.93-.02-1.87-.05-2.8-.05-.33,0-.66,0-.99,0-.42,0-.8.16-1.13.3-.26.1-.5.2-.67.2-1.05-.08-1.92-.13-2.82-.13-.28,0-.57,0-.86.02-.32.01-.63.02-.95.02-1.21,0-2.45-.08-3.65-.17-.9-.06-1.8-.12-2.69-.15h-.24c-.42,0-.84.03-1.26.06-.39.03-.78.06-1.17.06-.14,0-.28,0-.43-.01-.34-.02-.7-.14-1.08-.26-.42-.13-.85-.26-1.31-.3-.57-.05-1.13-.05-1.68-.05-1.27,0-2.46,0-3.58-.54-.11-.05-.24-.08-.37-.08-.22,0-.42.07-.59.14-.07.03-.19.07-.23.07-.34.03-.66.12-.97.21-.33.09-.65.18-.92.18-.24,0-.5-.06-.8-.46-.24-.31-.66-.36-.89-.36l-1.64.05c-1.34.04-2.69.08-4.03.14-.36.02-.71.07-1.07.13-.39.06-.76.12-1.11.12h-.11c-1.96-.09-3.93-.22-5.9-.35l-2.22-.14s-.04,0-.06,0c-.17,0-.36,0-.54.08-.84.32-1.65.48-2.47.48-.59,0-1.17-.08-1.8-.24-.69-.18-1.38-.27-2.07-.27-1.18,0-2.31.26-3.35.77,0,0-.04.01-.13.01-.06,0-.13,0-.19-.01-.49-.06-.98-.12-1.48-.19-1.09-.14-2.21-.28-3.32-.38h-.02c-.41,0-.71.13-.96.24-.07.03-.17.07-.24.1-.63-.35-1.31-.51-2.13-.51-.51,0-1,.06-1.49.12-.47.06-.91.11-1.34.11-.13,0-.25,0-.38-.02-.35-.03-.71-.04-1.07-.04-.62,0-1.24.04-1.87.08-.6.04-1.2.08-1.8.08-1.35,0-2.7-.04-4.05-.08-1.23-.03-2.47-.06-3.7-.07h0c-.55,0-1.02.07-1.48.13-.29.04-.59.08-.89.11-.52.04-1.04.05-1.57.07-.32.01-.64.02-.97.04-.13,0-.27.02-.4.04-.12.02-.24.03-.36.03-.39,0-.77,0-1.15-.01-.39,0-.78-.01-1.17-.01-.24,0-.48,0-.71,0-.57.02-1.15.06-1.72.1-.72.05-1.47.11-2.18.11-.28,0-.55,0-.83-.03-.43-.03-.87-.11-1.3-.18-.62-.1-1.27-.21-1.92-.21-.97,0-1.81.25-2.55.77,0,0-.01,0-.03,0-.01,0-.21,0-.21,0-.18,0-.35,0-.53.02-.16,0-.32.01-.48.01-.26,0-.46-.02-.62-.07-.73-.2-1.47-.3-2.28-.3-.98,0-1.93.15-2.74.29-.55.1-1.14.15-1.81.15-1,0-2.04-.11-3.01-.22-.13-.01-.25-.02-.36-.02-1.63,0-1.96,1.38-2.1,1.97-.17.74-.26,1.57-.26,2.62,0,.15.02,1.47.77,1.77,1.13.43,2.22.81,3.41.81.46,0,.91-.06,1.35-.17.94-.24,2.03-.38,3.33-.41h0c.3,0,.59.08.9.16.37.1.75.2,1.17.2.06,0,.13,0,.19,0,1.27-.1,2.55-.26,3.78-.42.8-.1,1.61-.21,2.41-.29l.99-.1c1.28-.14,2.6-.28,3.89-.28h.11c1.72.01,3.48.1,5.18.18,1.1.05,2.2.11,3.3.14.24,0,.48.01.72.01.32,0,.64,0,.96-.01.31,0,.63-.01.94-.01.23,0,.45,0,.68.01.28.01.57.07.88.12.37.07.76.14,1.16.15h.37c.58,0,1.16-.02,1.73-.03.57-.02,1.13-.04,1.7-.04h.19c1.4.01,2.8.04,4.2.06,1.4.02,2.81.05,4.21.06.43,0,.83-.13,1.1-.21.1.06.2.12.29.18.37.23.76.47,1.22.47,1.69,0,3.38-.06,5.06-.11.74-.02,1.48-.04,2.22-.06.14,0,.28,0,.42,0h1.07c.3,0,.59,0,.88-.02.3-.02.57-.1.81-.17.21-.06.42-.12.56-.12,1.56.3,3.14.44,5.04.44,1.21,0,2.45-.06,3.52-.11.57-.03,1.14-.07,1.71-.11.94-.07,1.91-.13,2.85-.13,1.48,0,3,.06,4.46.11,1.07.04,2.14.08,3.21.1,1.51.03,3.02.04,4.54.04.85,0,1.7,0,2.55.01.12,0,.25,0,.37.02.15,0,.3.02.45.02.07,0,.13,0,.2,0,.34-.02.68-.05,1.03-.08.52-.05,1-.09,1.49-.09h.23c.91.02,1.84.11,2.73.19.42.04.85.08,1.27.11,0,0,0,0,.01,0,.19,0,.31-.05.37-.07,0,0,0,0,0,0,0,0-.05.01-.11.01.36-.04.63-.08.91-.13.7-.11,1.36-.21,2.01-.22h0c.38,0,.73.06,1.1.12.39.06.8.13,1.2.13.3,0,.57-.04.82-.11.19-.06.41-.09.66-.09.35,0,.7.05,1.08.11.4.06.82.12,1.24.12.62,0,1.15-.14,1.63-.42.1.04.2.07.31.07h.12l.13-.05s.09-.02.15-.02c.16,0,.32.03.48.06.22.04.44.08.64.08.43,0,.71-.15.91-.35.28.04.55.09.82.14.76.13,1.47.25,2.21.3,1.5.1,3.03.15,4.5.19l1.52.05,1.15.05c1.01.04,2.02.08,3.04.08h.37c.94,0,1.89-.01,2.83-.02.94-.01,1.88-.02,2.82-.02.74,0,1.47,0,2.21.03.68.02,1.36.15,2.08.28.64.12,1.3.24,1.97.28.14.01.29.01.44.01.56,0,1.11-.07,1.65-.13.33-.04.66-.08.99-.1.49-.03.98-.07,1.47-.07.2,0,.39,0,.58.02.27.02.56.09.86.16.42.09.84.19,1.29.19.07,0,.13,0,.2,0,1.93-.12,3.88-.3,5.77-.46.78-.07,1.56-.14,2.33-.21,0,0,.04.02.08.04l.16.05c.16.04.31.09.46.14.36.12.77.25,1.21.25.6-.02,1.12-.1,1.62-.18.46-.07.9-.14,1.34-.16.28-.01.57-.04.85-.06.37-.03.75-.07,1.12-.07.67,0,1.17.12,1.62.39l.13.12h.32s.08,0,.08,0c0,0,1.35.02,1.59.02.41,0,.81-.01,1.21-.04.23-.02.46-.04.69-.07.41-.04.79-.09,1.17-.09s.7.04,1,.13c.08.03.18.04.28.04.22,0,.42-.07.59-.13.08-.03.18-.06.22-.07h.25c.62-.05,1.23-.09,1.85-.09.16,0,.31,0,.47,0,.19,0,.41.06.64.11.29.07.59.14.92.15.47,0,.94.01,1.41.01s2.33-.01,2.79-.01c.2,0,.4.02.61.04.24.02.48.05.72.05.19,0,.37-.01.55-.05.57-.12,1.15-.15,1.77-.19,1-.06,2.04-.11,3.05-.55-.05.02.05.05.12.07.11.03.23.06.33.08.37.06.75.13,1.12.2.81.15,1.66.31,2.51.34.64.03,1.28.04,1.92.04s1.27-.01,1.9-.02c.63-.01,1.26-.02,1.89-.02h3.49c.43,0,.85,0,1.28.02.43,0,.87.02,1.3.02s.88,0,1.31-.03c.39-.02.76-.13,1.12-.23.32-.09.62-.18.86-.18.06,0,.12,0,.17.02.89.22,1.78.33,2.72.33.46,0,.92-.03,1.42-.08.27-.03.55-.04.82-.04.44,0,.89.03,1.33.05.47.03.94.05,1.41.05.11,0,.23,0,.34,0,1.05-.03,2.1-.09,3.16-.15,1.47-.08,2.98-.16,4.47-.17h0c.91,0,1.75.1,2.64.2.63.07,1.26.14,1.89.18.08,0,.16,0,.24,0,.35,0,.69-.04,1.02-.09.21-.03.42-.06.63-.07.34-.02.69-.04,1.03-.07.76-.05,1.54-.11,2.29-.11h.36c.95.03,1.89.09,2.84.16,1.01.07,2.05.14,3.08.16h.53c.89,0,1.79-.03,2.68-.06.75-.03,1.49-.06,2.24-.07h.11c.47,0,.94.02,1.4.05.49.03.97.05,1.46.05.17,0,.35,0,.52-.01.56-.02,1.1-.12,1.62-.22.57-.1,1.1-.2,1.63-.2.42,0,.8.06,1.16.2.38.14.82.28,1.23.28.19,0,.37-.03.52-.09.52-.2,1.08-.29,1.82-.29.39,0,.79.02,1.18.05.42.03.85.05,1.28.05.69,0,1.26-.07,1.81-.21.25-.07.53-.1.86-.1.47,0,.97.06,1.5.13.58.07,1.18.15,1.8.15.2,0,.41,0,.61-.03.42-.04.83-.06,1.25-.06.91,0,1.86.08,2.78.15.74.06,1.48.12,2.22.15h.3c.4,0,.79-.02,1.19-.04.38-.02.75-.04,1.13-.04Z"/></g></svg>