<?xml version="1.0" encoding="UTF-8"?>
<svg id="Layer_2" data-name="Layer 2" xmlns="http://www.w3.org/2000/svg" viewBox="0 0 525.5 772.22">
  <defs>
    <style>
      .cls-1 {
        fill: #98c5d3;
      }

      .cls-1, .cls-2, .cls-3, .cls-4 {
        stroke-width: 0px;
      }

      .cls-2 {
        fill: none;
      }

      .cls-3 {
        fill: #000;
      }

      .cls-4 {
        fill: #fff;
      }
    </style>
  </defs>
  <g id="Layer_1-2" data-name="Layer 1">
    <g>
      <g>
        <path class="cls-4" d="M6.54,120.25c-3.8-20.46-1.69-55.69-.84-81.85C6.75,12.46,19.83,4.23,37.97,3.81c18.35-.42,27.42,8.44,29.11,32.7,1.48,22.15,1.9,60.75-2.32,86.91-2.32,14.55-13.5,19.62-27.42,20.25-13.92.42-27.21-3.59-30.8-23.41ZM36.92,107.39c2.95,0,5.06-1.48,5.48-5.48,1.48-16.45,1.27-35.02,1.05-58.01,0-4.64-1.69-9.07-5.7-9.07-4.01-.21-5.91,4.22-5.91,7.8-.63,18.99-1.05,43.24-.21,58.22.21,4.22,2.32,6.54,5.27,6.54Z"/>
        <path class="cls-4" d="M86.06,61.6c2.53-17.72,8.23-54,9.49-61.17,12.66.21,25.1,0,37.55-.42,3.38,21.73,8.65,55.69,11.81,80.58,3.16,24.89,7.17,52.53,7.59,56.74-8.02.21-24.26.21-27.42.21-1.05-15.61-2.32-28.48-2.95-31.85-6.75-.21-15.82,0-17.72,0l-5.91,31.85c-9.28-.42-17.72-.21-24.26,0,2.53-18.98,9.07-58.22,11.81-75.94ZM120.66,75.31c-2.11-14.34-3.38-27.84-5.48-39.66-1.27,5.48-4.43,26.58-6.12,39.66,3.16,0,7.8.21,11.6,0Z"/>
        <path class="cls-4" d="M174.23,36.8h-23.84c0-12.45,0-21.73-.21-29.96,10.55-.42,70.88,0,76.57.21.42,10.97.21,27.63.21,30.16-5.48-.21-15.19,0-23.41,0,0,24.68,1.27,103.15,1.27,107.16-6.75.42-22.99,0-30.17,0-.63-18.14-.63-97.46-.42-107.58Z"/>
        <path class="cls-4" d="M237.09,143.46c-.42-10.97-.84-20.46-1.05-35.44s-.63-97.46-.42-101.68c6.75-.21,22.36,0,29.53,0,.21,32.49.21,83.53.42,106.53h26.58v31.43c-22.15-.63-49.36-.63-55.06-.84Z"/>
        <path class="cls-4" d="M312.82,143.46c0-23.63,0-35.23-.63-55.06-8.86-21.09-26.37-72.57-30.8-83.11,10.13-.42,21.52-.21,31.22-.21,5.27,14.98,15.19,41.35,16.88,46.2,4.64-13.71,16.03-41.56,16.66-45.99,10.97,0,25.1-.21,30.38-.21-10.76,28.06-28.27,75.73-32.7,84.17-.42,25.31-.42,49.78-.42,54.42-7.17,0-25.52-.42-30.59-.21Z"/>
        <path class="cls-4" d="M2.53,250.96c5.48,0,20.67.21,22.99.42,0,11.6-.42,19.41,7.38,19.2,7.38-.21,6.54-8.23,6.54-12.23,0-22.99-38.18-29.11-37.55-68.77.42-24.05,10.13-32.7,32.91-32.7,26.16,0,29.32,13.92,29.95,40.5-4.43-.21-19.41.21-22.15-.21.42-9.28-.63-14.77-6.75-14.77-5.48.21-6.12,5.06-6.33,10.76-.42,16.45,36.49,25.31,36.07,66.45-.42,28.9-10.55,37.97-28.69,37.97-28.69,0-34.38-7.17-34.38-46.62Z"/>
        <path class="cls-4" d="M76.57,275.76c-3.59-19.2-2.11-75.52-2.11-113.91h27.21c-.63,19.2,0,79.31.84,93.87.21,4.43,2.32,6.75,5.48,6.75,2.95,0,5.27-1.69,5.48-5.7,1.48-16.66,1.05-72.14.84-94.92h24.89c1.05,23.63,2.74,95.14-2.11,118.13-3.16,14.98-14.34,19.62-28.69,20.25-14.34.42-28.27-4.01-31.85-24.47Z"/>
        <path class="cls-4" d="M149.98,250.96c5.48,0,20.67.21,22.99.42,0,11.6-.42,19.41,7.38,19.2,7.38-.21,6.54-8.23,6.54-12.23,0-22.99-38.18-29.11-37.55-68.77.42-24.05,10.13-32.7,32.91-32.7,26.16,0,29.32,13.92,29.95,40.5-4.43-.21-19.41.21-22.15-.21.42-9.28-.63-14.77-6.75-14.77-5.48.21-6.12,5.06-6.33,10.76-.42,16.45,36.49,25.31,36.07,66.45-.42,28.9-10.55,37.97-28.69,37.97-28.69,0-34.38-7.17-34.38-46.62Z"/>
        <path class="cls-4" d="M241.95,187.2h-23.84c0-12.45,0-21.73-.21-29.96,10.55-.42,70.88,0,76.57.21.42,10.97.21,27.63.21,30.16-5.48-.21-15.19,0-23.41,0,0,24.68,1.27,103.15,1.27,107.16-6.75.42-22.99,0-30.17,0-.63-18.14-.63-97.46-.42-107.58Z"/>
        <path class="cls-4" d="M303.33,221.95c2.53-17.72,8.23-54,9.49-61.17,12.66.21,25.1,0,37.55-.42,3.38,21.73,8.65,55.69,11.81,80.58,3.16,24.89,7.17,52.53,7.59,56.74-8.02.21-24.26.21-27.42.21-1.05-15.61-2.32-28.48-2.95-31.85-6.75-.21-15.82,0-17.72,0l-5.91,31.85c-9.28-.42-17.72-.21-24.26,0,2.53-18.98,9.07-58.22,11.81-75.94ZM337.92,235.67c-2.11-14.34-3.38-27.84-5.48-39.66-1.27,5.48-4.43,26.58-6.12,39.66,3.16,0,7.8.21,11.6,0Z"/>
        <path class="cls-4" d="M377.15,214.88c0-19.62.42-49.99.42-55.06,6.96-.42,21.94-.21,27.84,0,.84,16.24-.21,62.86-.21,82.27s.63,49.15.63,54.85c-8.65,0-20.88.42-29.11.21,0-28.69.42-62.65.42-82.27Z"/>
        <path class="cls-4" d="M465.75,297.36c-7.59-22.36-15.19-37.55-21.52-53.37,0,15.61.21,33.12.21,53.37-9.91,0-22.99.21-26.16,0,.42-25.52-.42-46.2,0-72.57.21-24.05-.21-59.91-.21-65.39,8.44-.21,19.2,0,23.41,0,7.59,18.56,15.19,36.07,22.15,50.21-.21-12.66-1.05-44.3-.63-49.78,8.65,0,18.56.21,25.31.21.42,17.93,0,51.89,0,73.62s-.21,58.85-.21,64.13c-9.28,0-17.51-.21-22.36-.42Z"/>
        <path class="cls-4" d="M497.66,237.46c0-5.27-.14-20.88,0-24.89,9.19.21,18.24.42,27.83,0v25.1c-11.52,0-24.95-.21-27.83-.21Z"/>
        <path class="cls-4" d="M11.81,374.7c2.53-17.72,8.23-54,9.49-61.17,12.66.21,25.1,0,37.55-.42,3.38,21.73,8.65,55.69,11.81,80.58,3.16,24.89,7.17,52.53,7.59,56.74-8.02.21-24.26.21-27.42.21-1.05-15.61-2.32-28.48-2.95-31.85-6.75-.21-15.82,0-17.72,0l-5.91,31.85c-9.28-.42-17.72-.21-24.26,0,2.53-18.98,9.07-58.22,11.81-75.94ZM46.41,388.41c-2.11-14.34-3.38-27.84-5.48-39.66-1.27,5.48-4.43,26.58-6.12,39.66,3.16,0,7.8.21,11.6,0Z"/>
        <path class="cls-4" d="M83.53,446.2c0-7.8,1.27-54.63,1.05-68.56-.21-13.92.21-44.93,0-68.98,2.74,0,21.94-.21,28.06,0,18.56.21,28.48,13.29,29.11,36.92.21,8.23-3.16,17.51-6.96,21.31,8.23,6.12,12.66,16.66,13.08,34.17.84,32.48-8.65,44.93-33.96,45.35-12.87.21-21.94-.42-30.38-.21ZM110.11,357.18c6.33-.21,10.13-2.74,9.7-12.23-.63-10.13-3.38-12.45-9.91-12.66.21,8.02.21,16.88.21,24.89ZM122.98,401.48c0-11.81-5.06-13.92-12.66-14.34.21,10.13-.21,25.1-.21,30.38,7.38-.21,12.87-1.9,12.87-16.03Z"/>
        <path class="cls-4" d="M157.57,368.37c0-19.62.42-49.99.42-55.06,6.96-.42,21.94-.21,27.84,0,.84,16.24-.21,62.86-.21,82.27s.63,49.15.63,54.85c-8.65,0-20.88.42-29.11.21,0-28.69.42-62.65.42-82.27Z"/>
        <path class="cls-4" d="M199.76,453.2c-.42-10.97-.84-20.46-1.05-35.44s-.63-97.46-.42-101.68c6.75-.21,22.36,0,29.53,0,.21,32.49.21,83.53.42,106.53h26.58v31.43c-22.15-.63-49.36-.63-55.06-.84Z"/>
        <path class="cls-4" d="M264.52,368.37c0-19.62.42-49.99.42-55.06,6.96-.42,21.94-.21,27.84,0,.84,16.24-.21,62.86-.21,82.27s.63,49.15.63,54.85c-8.65,0-20.88.42-29.11.21,0-28.69.42-62.65.42-82.27Z"/>
        <path class="cls-4" d="M326.32,340.04h-23.84c0-12.45,0-21.73-.21-29.96,10.55-.42,70.88,0,76.57.21.42,10.97.21,27.63.21,30.16-5.48-.21-15.19,0-23.41,0,0,24.68,1.27,103.15,1.27,107.16-6.75.42-22.99,0-30.17,0-.63-18.14-.63-97.46-.42-107.58Z"/>
        <path class="cls-4" d="M413.86,450.43c0-23.63,0-35.23-.63-55.06-8.86-21.09-26.37-72.57-30.8-83.11,10.13-.42,21.52-.21,31.22-.21,5.27,14.98,15.19,41.35,16.88,46.2,4.64-13.71,16.03-41.56,16.66-45.99,10.97,0,25.1-.21,30.38-.21-10.76,28.06-28.27,75.73-32.7,84.17-.42,25.31-.42,49.78-.42,54.42-7.17,0-25.52-.42-30.59-.21Z"/>
        <path class="cls-4" d="M7.59,579.65c-3.59-19.2-2.11-75.52-2.11-113.91h27.21c-.63,19.2,0,79.31.84,93.87.21,4.43,2.32,6.75,5.48,6.75,2.95,0,5.27-1.69,5.48-5.7,1.48-16.66,1.05-72.14.84-94.92h24.89c1.05,23.63,2.74,95.14-2.11,118.13-3.16,14.98-14.34,19.62-28.69,20.25-14.34.42-28.27-4.01-31.85-24.47Z"/>
        <path class="cls-4" d="M84.37,534.3c.21-13.92-.63-60.75-.63-68.56h31.22c22.78.21,30.8,18.56,31.01,47.25s-10.55,41.35-34.81,43.03c0,17.51-.21,37.97-.21,48.09h-26.79c.21-24.05-.21-56.11.21-69.82ZM111.38,528.39c9.07-.21,10.34-6.12,10.76-17.93.42-12.02-3.8-16.24-10.97-16.03,0,5.27-.21,20.67.21,33.96Z"/>
        <path class="cls-4" d="M156.52,604.33c.42-24.05-.21-55.27,0-68.98.42-13.92-1.05-60.75-1.05-68.56,8.44.21,16.66-.21,23.2,0,32.49.84,37.97,18.77,38.18,47.25.21,28.69.21,35.23.21,50.63.21,26.37-6.12,39.66-31.43,39.87-9.49.21-23.84-.21-29.11-.21ZM192.59,565.31c0-18.14.21-44.93-.42-58.43-.21-7.38-4.85-10.13-12.23-9.91-.42,27.42-.42,63.5,0,77,7.17,0,12.66-2.53,12.66-8.65Z"/>
        <path class="cls-4" d="M232.87,531.67c2.53-17.72,8.23-54,9.49-61.17,12.66.21,25.1,0,37.55-.42,3.38,21.73,8.65,55.69,11.81,80.58,3.16,24.89,7.17,52.53,7.59,56.74-8.02.21-24.26.21-27.42.21-1.05-15.61-2.32-28.48-2.95-31.85-6.75-.21-15.82,0-17.72,0l-5.91,31.85c-9.28-.42-17.72-.21-24.26,0,2.53-18.98,9.07-58.22,11.81-75.94ZM267.47,545.38c-2.11-14.34-3.38-27.84-5.48-39.66-1.27,5.48-4.43,26.58-6.12,39.66,3.16,0,7.8.21,11.6,0Z"/>
        <path class="cls-4" d="M318.09,496.3h-23.84c0-12.45,0-21.73-.21-29.96,10.55-.42,70.88,0,76.57.21.42,10.97.21,27.63.21,30.16-5.48-.21-15.19,0-23.41,0,0,24.68,1.27,103.15,1.27,107.16-6.75.42-22.99,0-30.17,0-.63-18.14-.63-97.46-.42-107.58Z"/>
        <path class="cls-4" d="M380.11,529.36c.42-25.31-.42-50.42-.21-58.43,8.44-.21,50.42-.21,55.06,0,.21,9.28.63,21.73.21,26.16-8.44,0-23.84.42-28.69.42-.21,6.75.42,21.94.42,24.89,7.17-.21,13.5,0,15.82,0,0,8.86.21,22.36.21,25.1-5.7.63-14.34.63-16.45.63,0,9.91.21,28.06.21,32.7,9.49.21,25.1,0,29.32-.21,1.05,7.8.63,23.84.84,27.42-7.8.42-50.63.84-56.74,1.05,0-22.36-.63-54.42,0-79.74Z"/>
        <path class="cls-4" d="M3.16,757.6c-.42-11.18-.42-13.08-.63-28.06,0-36.7,36.07-57.59,35.65-73.83-.21-5.7-.84-10.55-6.33-10.76-6.12-.21-8.23,5.48-7.8,14.77-2.53.21-16.45,0-21.09,0,.63-26.37,3.8-40.5,29.95-40.5,22.78,0,32.7,8.65,32.91,32.91.42,36.28-35.44,54.63-35.44,77.42l34.17.21c0,12.45-.21,16.67-.21,28.27-22.15-.84-55.27-.21-61.17-.42Z"/>
        <path class="cls-4" d="M77.84,739.84c-4.64-20.88-4.22-57.38-.63-82.06,3.59-25.52,13.92-34.17,32.27-34.38,16.88-.42,26.79,10.97,29.53,31.43,4.01,30.59,5.27,60.54-2.95,88.18-3.8,13.08-13.5,19.62-27.42,20.04-13.71.63-26.37-3.59-30.8-23.2ZM108.63,730.55c7.17,0,8.02-10.76,8.02-41.56,0-23.41-1.05-36.07-8.65-36.07-6.75,0-8.65,11.39-8.65,37.55,0,24.05,0,40.08,9.28,40.08Z"/>
        <path class="cls-4" d="M151.03,760.38c-.42-11.18-.42-13.08-.63-28.06,0-36.7,36.07-57.59,35.65-73.83-.21-5.7-.84-10.55-6.33-10.76-6.12-.21-8.23,5.48-7.8,14.77-2.53.21-16.45,0-21.09,0,.63-26.37,3.8-40.5,29.95-40.5,22.78,0,32.7,8.65,32.91,32.91.42,36.28-35.44,54.63-35.44,77.42l34.17.21c0,12.45-.21,16.67-.21,28.27-22.15-.84-55.27-.21-61.17-.42Z"/>
        <path class="cls-4" d="M218.53,711.73c5.48-.42,15.82.42,26.37.42.42,7.38.84,13.08,8.44,13.71,5.27.42,9.49-6.96,9.07-14.98-.63-10.13-3.38-19.83-18.56-19.2,0-9.07-.42-13.5-.21-21.09,9.07-1.69,14.56-5.91,14.98-15.61.42-9.49-2.32-12.02-6.12-12.66-5.06-1.05-8.65,1.06-9.28,12.02-9.28-.63-14.13.21-21.09-.42.21-28.27,10.97-37.55,32.27-37.55,21.09-.21,29.32,13.5,30.17,35.44.42,15.82-4.43,22.15-12.45,27.63,11.6,6.33,14.98,21.09,14.34,37.34-.84,27.42-17.93,38.39-32.7,38.39-23.41.21-36.28-14.98-35.23-43.45Z"/>
      </g>
      <g>
        <path class="cls-1" d="M505.1,689.88l-10.43-11.78,10.09-12.5c.86-1.07,1.2-2.46.93-3.81-.21-1.05-.79-1.98-1.61-2.64-.18-.21-.37-.41-.58-.58-.18-.21-.36-.4-.58-.58-.18-.21-.37-.41-.58-.58-.18-.21-.36-.4-.58-.58-.18-.21-.37-.41-.58-.58-.18-.21-.36-.4-.58-.58-.18-.21-.37-.41-.58-.58-.18-.21-.36-.4-.58-.58-.18-.21-.37-.41-.58-.58-.18-.21-.36-.4-.58-.58-.18-.21-.37-.41-.58-.58-.18-.21-.36-.4-.58-.58-.18-.21-.37-.41-.58-.58-.18-.21-.37-.41-.58-.58-.18-.21-.36-.4-.58-.58-.18-.21-.37-.41-.58-.58-.18-.21-.36-.4-.58-.58-.18-.21-.37-.41-.58-.58-.18-.21-.36-.4-.58-.58-.18-.21-.37-.41-.58-.58-.18-.21-.36-.4-.58-.58-.18-.21-.37-.41-.58-.58-.03-.03-.06-.06-.08-.09l3.54-10.14c.45-1.3.3-2.74-.42-3.92-.26-.43-.61-.79-.99-1.11-.18-.21-.37-.4-.58-.58-.18-.21-.37-.41-.58-.58-.18-.21-.37-.4-.58-.58-.18-.21-.37-.4-.58-.58-.18-.21-.37-.4-.58-.58-.18-.21-.37-.41-.58-.58-.18-.21-.37-.4-.58-.58-.18-.21-.37-.41-.58-.58-.18-.21-.37-.4-.58-.58-.18-.21-.37-.41-.58-.58-.18-.21-.37-.4-.58-.58-.18-.21-.37-.4-.58-.58-.18-.21-.37-.41-.58-.58-.18-.21-.37-.4-.58-.58-.18-.21-.37-.41-.58-.58-.18-.21-.37-.4-.58-.58-.18-.21-.37-.41-.58-.58-.18-.21-.37-.4-.58-.58-.18-.21-.37-.41-.58-.58-.18-.21-.37-.4-.58-.58-.18-.21-.37-.41-.58-.58-.18-.21-.37-.4-.58-.58-.18-.21-.37-.41-.58-.58-.18-.21-.37-.4-.58-.58-.73-.88-1.74-1.48-2.89-1.63l-1.23-.17-.03-3.34c-.01-1.35-.62-2.61-1.65-3.48-.18-.21-.37-.41-.58-.58-.17-.21-.36-.4-.58-.58-.18-.21-.37-.41-.58-.58-.17-.21-.36-.4-.57-.57-.18-.21-.37-.41-.58-.58-.17-.21-.37-.4-.58-.58-.18-.21-.37-.41-.58-.58-.17-.21-.37-.4-.58-.58-.18-.21-.37-.41-.58-.58-.17-.21-.37-.4-.58-.58-.17-.21-.37-.4-.58-.58-.18-.21-.37-.41-.58-.58-.17-.21-.36-.4-.58-.58-.18-.21-.37-.41-.58-.58-.17-.21-.36-.4-.58-.58-.18-.21-.37-.41-.58-.58-.17-.21-.37-.4-.58-.58-.18-.21-.37-.41-.58-.58-.17-.21-.37-.4-.58-.58-.18-.21-.37-.41-.58-.58-.17-.21-.37-.4-.58-.58-.18-.21-.37-.41-.58-.58-.17-.21-.37-.4-.58-.58-.17-.21-.37-.4-.58-.58-.2-.24-.41-.45-.66-.65-1.08-.86-2.49-1.2-3.84-.9l-7.5,1.62c-.14-.15-.28-.28-.44-.41-.18-.21-.37-.4-.58-.58-.18-.21-.37-.41-.58-.58-.18-.21-.37-.4-.58-.58-.18-.21-.37-.41-.58-.58-.18-.21-.37-.4-.58-.58-.18-.21-.37-.4-.58-.58-.18-.21-.37-.41-.58-.58-.18-.21-.37-.4-.58-.58-.18-.21-.37-.41-.58-.58-.18-.21-.37-.4-.58-.58-.18-.21-.37-.41-.58-.58-.18-.21-.37-.4-.58-.58-.18-.21-.37-.41-.58-.58-.18-.21-.37-.4-.58-.58-.18-.21-.37-.41-.58-.58-.18-.21-.37-.4-.58-.58-.18-.21-.37-.41-.58-.58-.18-.21-.37-.4-.58-.58-.18-.21-.37-.41-.58-.58-.18-.21-.37-.4-.58-.58-.18-.21-.37-.4-.58-.58-.18-.21-.37-.41-.58-.58-.18-.21-.37-.4-.58-.58-.18-.21-.37-.41-.58-.58-.54-.64-1.22-1.14-2.03-1.41-1.31-.44-2.74-.28-3.91.46l-12.57,7.86c-.05-.05-.11-.1-.17-.14l-.08-.09c-.15-.18-.32-.33-.5-.48l-.08-.1c-.15-.18-.32-.34-.5-.49l-.08-.09c-.15-.18-.33-.34-.5-.49l-.08-.09c-.15-.18-.32-.34-.5-.49l-.08-.09c-.15-.18-.32-.34-.5-.49l-.08-.09c-.12-.13-.26-.24-.38-.35l-.2-.23c-.15-.18-.33-.34-.5-.49l-.08-.09c-.15-.18-.32-.34-.5-.49l-.08-.09c-.15-.18-.33-.34-.5-.49l-.08-.09c-.12-.13-.25-.24-.38-.35l-.2-.23c-.15-.18-.32-.34-.5-.49l-.08-.09c-.15-.18-.32-.33-.49-.48l-.08-.1c-.15-.18-.33-.34-.5-.49l-.08-.09c-.15-.18-.32-.34-.5-.49l-.08-.09c-.15-.18-.32-.34-.5-.49l-.08-.09c-.12-.13-.26-.24-.39-.36l-.19-.22c-.12-.13-.25-.24-.38-.35l-.2-.23c-.15-.18-.32-.34-.5-.49l-.08-.09c-.15-.18-.32-.34-.5-.49l-.08-.09c-.9-1.04-2.21-1.64-3.58-1.59-1.37.03-2.66.67-3.51,1.75l-9.96,12.6-13.79-7.57c-1.19-.65-2.62-.75-3.89-.25s-2.25,1.53-2.69,2.82l-5.13,15.22-15.67-2.34c-1.34-.2-2.7.2-3.72,1.1-1.02.9-1.59,2.2-1.56,3.55l.34,15.97-15.65,3.2c-1.33.27-2.47,1.12-3.12,2.31-.65,1.19-.74,2.61-.25,3.87l5.75,14.77-13.71,8.37c-1.16.71-1.95,1.9-2.15,3.24-.2,1.35.2,2.71,1.11,3.73l10.43,11.78-10.09,12.5c-.86,1.07-1.2,2.46-.93,3.81.21,1.05.79,1.98,1.61,2.64.18.21.37.41.58.58.18.21.36.4.58.58.18.21.37.41.58.58.18.21.36.4.58.58.18.21.37.41.58.58.18.21.36.4.58.58.18.21.37.41.58.58.18.21.36.4.58.58.18.21.37.41.58.58.18.21.36.4.58.58.18.21.37.41.58.58.18.21.36.4.58.58.18.21.37.41.58.58.18.21.36.4.58.58.18.21.37.41.58.58.18.21.37.41.58.58.18.21.36.4.58.58.18.21.37.41.58.58.18.21.36.4.58.58.18.21.37.41.58.58.18.21.36.4.58.58.18.21.37.41.58.58.03.03.06.06.08.09l-3.54,10.14c-.45,1.3-.3,2.74.42,3.92.26.43.61.79.99,1.11.18.21.37.4.58.58.18.21.37.41.58.58.18.21.37.4.58.58.18.21.37.41.58.58.18.21.37.4.58.58.18.21.37.41.58.58.18.21.37.4.58.58.18.21.37.41.58.58.18.21.37.4.58.58.18.21.37.41.58.58.18.21.37.4.58.58.18.21.37.4.58.58.18.21.37.41.58.58.18.21.37.4.58.57.18.21.37.41.58.58.18.21.37.4.58.58.18.21.37.41.58.58.18.21.37.4.58.58.18.21.37.41.58.58.18.21.37.4.58.58.18.21.37.4.58.58.18.21.37.4.58.58.18.21.37.41.58.58.18.21.37.4.58.58.73.88,1.74,1.48,2.89,1.63l1.23.17.03,3.34c.01,1.35.62,2.61,1.65,3.48.18.21.37.41.58.58.17.21.36.4.58.58.18.21.37.41.58.58.17.21.36.4.58.58.18.21.37.41.58.58.17.21.37.4.58.58.18.21.37.41.58.58.17.21.37.4.58.58.18.21.37.41.58.58.17.21.37.4.58.58.17.21.37.4.58.58.18.21.37.41.58.58.17.21.37.4.58.58.18.21.37.41.58.58.17.21.36.4.58.58.18.21.37.41.58.58.17.21.36.4.58.58.18.21.37.41.58.58.17.21.36.4.58.58.18.21.37.41.59.59.17.21.36.4.57.57.18.21.37.41.58.58.17.21.37.4.58.58.18.21.37.41.58.58.2.23.41.45.65.65,1.08.86,2.49,1.2,3.84.9l7.5-1.62c.14.15.28.28.44.41.18.21.37.4.58.58.18.21.37.41.58.58.18.21.37.4.58.58.18.21.37.41.58.58.18.21.37.4.58.58.18.21.37.41.58.58.18.21.37.4.58.58.18.21.37.4.58.58.18.21.37.41.58.58.18.21.37.4.58.58.18.21.37.4.58.58.18.21.37.4.58.58.18.21.37.41.58.58.18.21.37.4.58.58.18.21.37.41.58.58.18.21.37.4.58.58.18.21.37.41.58.58.18.21.37.4.58.58.18.21.37.41.58.58.18.21.37.4.58.58.18.21.37.4.58.58.18.21.37.41.58.58.18.21.37.4.58.58.18.21.37.41.58.58.54.64,1.22,1.14,2.03,1.41,1.31.44,2.74.27,3.91-.46l12.59-7.87s.03.03.04.04l.18.2c.12.14.26.25.4.37l.18.21c.12.14.26.25.4.37l.18.21c.12.14.27.25.4.37l.18.21c.12.14.26.25.4.37l.18.21c.12.14.27.25.4.37l.18.21c.12.14.26.25.4.37l.18.21c.12.14.27.25.4.37l.18.21c.12.14.26.25.4.37l.18.21c.12.14.27.25.4.37l.18.2c.12.14.26.25.4.37l.18.21c.12.14.27.25.4.37l.18.2c.12.14.26.25.4.37l.18.21c.12.14.27.25.4.37l.18.2c.12.14.26.25.4.37l.18.21c.12.14.27.25.4.37l.18.2c.12.14.26.25.4.37l.18.21c.12.14.26.25.4.37l.18.21c.12.14.27.25.4.37l.18.21c.12.14.26.25.4.37l.18.21c.88,1.01,2.14,1.59,3.48,1.59.03,0,.07,0,.1,0,1.37-.03,2.66-.67,3.51-1.75l9.96-12.6,13.79,7.57c1.19.65,2.62.75,3.89.25,1.27-.5,2.25-1.53,2.69-2.82l5.13-15.22,15.67,2.34c1.34.2,2.7-.2,3.72-1.1,1.02-.9,1.59-2.2,1.56-3.55l-.34-15.97,15.65-3.2c1.33-.27,2.47-1.12,3.12-2.31.65-1.19.74-2.61.25-3.87l-5.75-14.77,13.71-8.37c1.16-.71,1.95-1.9,2.15-3.24s-.2-2.71-1.11-3.73Z"/>
        <g>
          <polygon class="cls-2" points="477.32 707.17 457.91 711.15 458.33 730.95 438.85 728.04 432.49 746.91 415.29 737.47 402.92 753.13 390.07 738.3 373.18 748.85 366.24 730.42 346.87 734.6 346.66 714.78 327.14 712.08 333.7 693.28 316.39 684.03 328.93 668.5 315.91 653.81 332.91 643.44 325.76 625.08 345.17 621.11 344.75 601.31 364.23 604.22 370.59 585.35 387.8 594.79 400.16 579.13 413.01 593.96 429.9 583.41 436.85 601.84 456.22 597.66 456.43 617.48 475.94 620.17 469.38 638.98 486.69 648.23 474.16 663.76 487.17 678.45 470.17 688.82 477.32 707.17"/>
          <polygon class="cls-4" points="477.32 707.17 457.91 711.15 458.33 730.95 438.85 728.04 432.49 746.91 415.29 737.47 402.92 753.13 390.07 738.3 373.18 748.85 366.24 730.42 346.87 734.6 346.66 714.78 327.14 712.08 333.7 693.28 316.39 684.03 328.93 668.5 315.91 653.81 332.91 643.44 325.76 625.08 345.17 621.11 344.75 601.31 364.23 604.22 370.59 585.35 387.8 594.79 400.16 579.13 413.01 593.96 429.9 583.41 436.85 601.84 456.22 597.66 456.43 617.48 475.94 620.17 469.38 638.98 486.69 648.23 474.16 663.76 487.17 678.45 470.17 688.82 477.32 707.17"/>
        </g>
        <g>
          <path class="cls-3" d="M354.06,643.13c-.63-3.18-.28-8.9-.14-13.12.17-4.2,2.34-5.89,5.34-6.47,3.04-.59,4.54.58,4.82,4.43.24,3.52.31,9.7-.38,14.02-.38,2.4-2.24,3.53-4.54,4.03-2.31.46-4.51.19-5.1-2.89ZM359.09,640.21c.49-.08.84-.38.91-1.04.24-2.68.21-5.66.17-9.35,0-.74-.28-1.41-.94-1.29-.66.08-.98.85-.98,1.42-.1,3.07-.17,6.97-.03,9.36.03.67.38.98.87.9Z"/>
          <path class="cls-3" d="M366.29,632.98c-.03-3.42.24-9.39.17-10.33,1.33-.36,3.67-.66,4.86-.83.98,2.34,3.21,8.53,3.67,9.54.98-2.78,2.86-9.91,3-10.71,1.43-.31,4.3-.7,4.86-.76.1,3.44.24,21.07.17,22.03-1.36.33-3.53.67-4.4.85,0-2.13-.14-8.11-.14-9.09-.8,3.46-1.68,8.69-1.89,9.37-1.19.34-2.86.46-3.46.59-.66-2.73-1.96-7.32-2.31-8.65-.14,2.63-.1,8.59-.14,9-1.08.18-3.04.62-4.44.89-.24-3.04.07-8.48.03-11.9Z"/>
          <path class="cls-3" d="M384.94,630.09c.03-8.21,1.85-11.16,5.87-11.91,4.02-.75,4.58,1.52,4.58,7.04-.91.12-3.32.53-3.81.62-.03-.98.14-2.84-1.08-2.56-1.19.24-1.22,1.36-1.29,6.15-.07,5.91.38,6.47,1.43,6.29.98-.17,1.08-1.74,1.05-4.11,0,0-.7.09-1.15.16,0-.34-.07-2.43,0-3.42,1.75-.33,3.04-.52,5-.89.31,7.84-.59,12.4-4.75,13.15-4.44.79-5.87-.79-5.83-10.52Z"/>
          <path class="cls-3" d="M399.79,633.96c1.15-.16,2.72.11,2.79,2.1.03,1.52-.98,2.71-2.97,3.05-1.96.33-2.52-.72-2.45-2.29s1.26-2.65,2.62-2.85ZM397.77,632.98c0-4.27,0-12.37-.1-15.91,1.19-.3,3.88-.73,4.37-.75.03,5.35.1,15.47.07,15.98-1.36.3-3.74.6-4.33.67Z"/>
          <path class="cls-3" d="M408.84,624.31c0-3.15.07-8.04.07-8.85,1.15-.26,3.63-.65,4.61-.79.14,2.58-.03,10.1-.03,13.22s.1,7.88.1,8.79c-1.43.24-3.46.66-4.82.86,0-4.61.07-10.07.07-13.23Z"/>
          <path class="cls-3" d="M419.01,618.47l-3.95.67c0-2,0-3.49-.03-4.8,1.75-.37,11.74-2.01,12.68-2.13.07,1.75.03,4.43.03,4.84-.91.12-2.52.43-3.88.66,0,3.96.21,16.53.21,17.18-1.12.26-3.81.65-5,.85-.1-2.9-.1-15.63-.07-17.27Z"/>
          <path class="cls-3" d="M429.84,619.06c.28-.76.52-1.48.77-2.23-1.57.07-1.99-.95-1.96-2.34.07-1.57,1.12-2.7,2.48-2.9,1.15-.16,3.04.02,2.93,2.14-.07,1.57-1.12,3.88-1.5,4.93-.77.1-1.96.27-2.72.4Z"/>
          <path class="cls-3" d="M435.05,625.62c.91-.16,3.42-.55,3.81-.58,0,1.86-.07,3.13,1.22,2.87,1.22-.24,1.08-1.51,1.08-2.15,0-3.69-6.32-3.59-6.22-9.98.07-3.87,1.68-5.54,5.45-6.18,4.33-.74,4.86,1.41,4.96,5.66-.73.09-3.21.58-3.67.59.07-1.5-.1-2.35-1.12-2.18-.91.19-1.01.99-1.05,1.91-.07,2.65,6.04,3.03,5.97,9.65-.07,4.65-1.75,6.4-4.75,6.91-4.75.81-5.69-.18-5.69-6.51Z"/>
          <path class="cls-3" d="M351.77,659.74c.42-2.92,1.36-8.91,1.57-10.09,2.1-.32,4.16-.71,6.22-1.13.56,3.39,1.43,8.7,1.96,12.61.52,3.91,1.19,8.23,1.26,8.9-1.33.26-4.02.72-4.54.81-.17-2.48-.38-4.51-.49-5.03-1.12.16-2.62.45-2.93.5l-.98,5.28c-1.54.19-2.93.47-4.02.69.42-3.12,1.5-9.61,1.96-12.53ZM357.5,660.97c-.35-2.24-.56-4.38-.91-6.21-.21.92-.73,4.39-1.01,6.54.52-.09,1.29-.19,1.92-.33Z"/>
          <path class="cls-3" d="M363.44,658.39c-.03-9.41,1.85-11.12,5.87-11.88,4.02-.75,4.54,1.53,4.54,7.05-.87.11-3.11.57-3.6.65-.03-.98-.03-2.87-1.26-2.6-1.19.24-1.22,1.36-1.29,6.15-.07,5.91.45,6.77,1.47,6.59,1.05-.18,1.29-2.42,1.19-4.06.98-.24,2.62-.48,3.42-.59.59,4.95-.21,8.47-4.51,9.24-4.44.79-5.76-.4-5.83-10.56Z"/>
          <path class="cls-3" d="M379.06,649.96l-3.95.67c0-2,0-3.49-.03-4.8,1.75-.37,11.74-2.01,12.68-2.13.07,1.75.03,4.43.03,4.84-.91.12-2.52.43-3.88.66,0,3.96.21,16.53.21,17.18-1.12.26-3.81.65-5,.85-.1-2.9-.1-15.63-.07-17.27Z"/>
          <path class="cls-3" d="M389.61,661.54c-.59-2.98-.35-12.07-.35-18.24l4.51-.77c-.1,3.1,0,12.74.14,15.05.03.71.38,1.02.91.93.49-.08.87-.42.91-1.07.24-2.72.17-11.62.14-15.27l4.12-.7c.17,3.76.45,15.2-.35,19.03-.52,2.49-2.38,3.56-4.75,4.07-2.38.47-4.68.16-5.27-3.03Z"/>
          <path class="cls-3" d="M400.65,663.55c-.14.13,2.06-14.48,3.11-22.76,2.31-.43,4.23-.76,6.32-1.15.56,3.5,1.33,8.18,1.75,10.95.45,2.77,1.36,7.8,1.82,10.77-1.15.23-2.86.49-4.3.73l-.91-4.49c-.31.05-1.36.2-2.52.43-.1.56-.24,2.21-.45,4.75-.52.09-3.49.56-4.82.76ZM407.85,652.83c-.28-2.73-.49-4.25-.84-6.06-.35,1.99-.52,3.51-.87,6.35.63-.07,1.19-.2,1.71-.29Z"/>
          <path class="cls-3" d="M415.04,661.09c-.07-1.75-.14-3.26-.17-5.66-.03-2.4-.1-15.64-.07-16.32,1.12-.23,3.7-.63,4.89-.84.03,5.21.03,13.41.07,17.1l4.4-.75v5.05c-3.67.53-8.17,1.3-9.12,1.42Z"/>
          <path class="cls-3" d="M425.74,659.12c-.07-1.78.07-8.55.03-10.95-.03-2.4.1-10.45.14-11.1,1.08-.25,3.53-.6,4.72-.81.03,5.21-.17,13.92-.14,17.61l4.4-.75v4.54c-3.7.53-8.17,1.33-9.15,1.46Z"/>
          <path class="cls-3" d="M438.31,657.11c0-3.79,0-5.66-.1-8.83-1.47-3.14-4.37-10.91-5.1-12.48,1.68-.35,3.56-.64,5.17-.92.87,2.26,2.52,6.21,2.79,6.94.77-2.33,2.65-7.13,2.76-7.86,1.82-.31,4.16-.74,5.03-.89-1.78,4.81-4.68,12.96-5.41,14.44-.07,4.08-.07,8.01-.07,8.75-1.19.2-4.23.65-5.07.83Z"/>
          <path class="cls-3" d="M363.88,694.53c0-1.25.21-8.81.17-11.04s.03-7.22,0-11.08c.45-.08,3.63-.65,4.65-.79,3.07-.49,4.72,1.33,4.82,5.1.03,1.31-.52,2.9-1.15,3.62,1.36.75,2.1,2.32,2.17,5.12.14,5.19-1.43,7.46-5.62,8.25-2.13.4-3.63.55-5.03.83ZM368.28,679.48c1.05-.21,1.68-.73,1.61-2.24-.1-1.61-.56-1.9-1.64-1.75.03,1.28.03,2.7.03,3.99ZM370.41,686.23c0-1.9-.84-2.09-2.1-1.95.03,1.62-.03,4.04-.03,4.88,1.22-.24,2.13-.67,2.13-2.94Z"/>
          <path class="cls-3" d="M376.1,679.63c.07-4.08-.07-8.09-.03-9.38,1.4-.27,8.35-1.46,9.12-1.56.03,1.48.1,3.47.03,4.2-1.4.24-3.95.74-4.75.88-.03,1.09.07,3.51.07,3.99,1.19-.24,2.24-.38,2.62-.45,0,1.42.03,3.59.03,4.03-.94.26-2.38.51-2.72.57,0,1.59.03,4.5.03,5.25,1.57-.23,4.16-.71,4.86-.86.17,1.22.1,3.81.14,4.38-1.29.29-8.38,1.57-9.4,1.78,0-3.59-.1-8.72,0-12.81Z"/>
          <path class="cls-3" d="M390.36,672.69l-3.95.68c0-2,0-3.49-.03-4.8,1.75-.37,11.74-2.01,12.68-2.14.07,1.75.03,4.43.03,4.84-.91.12-2.52.43-3.88.66,0,3.96.21,16.53.21,17.18-1.12.26-3.81.65-5,.85-.1-2.9-.1-15.63-.07-17.27Z"/>
          <path class="cls-3" d="M403.81,670.18c-1.36.27-2.97.51-3.88.66,0-.41-.03-2.91,0-4.68.98-.2,10.97-1.98,12.68-2.2,0,1.32-.03,2.68,0,4.68l-3.95.68c.03,1.62,0,9.49.03,17.54-1.19.2-3.7.7-4.79.85-.03-.67-.1-13.53-.1-17.53Z"/>
          <path class="cls-3" d="M414.19,685.82c-.03-1.25.03-5.33-.07-9.37-.07-4.05-.03-7.65-.07-12.73.98-.13,7.89-1.42,9.19-1.57.07,1.04.07,2.53.07,4.16-.7.09-3.07.49-4.68.8,0,.78-.07,2.76-.07,4.35.38-.07,1.78-.3,2.72-.4.03.47-.03,2.65-.03,4.04-.35.06-1.4.27-2.59.44,0,.51,0,4.34.03,5.38.8-.14,3.18-.54,4.58-.82.03.7.07,2.7.03,4.2-.77.17-7.72,1.35-9.12,1.53Z"/>
          <path class="cls-3" d="M424.85,684.07c.03-3.87-.03-9.01,0-11.25s-.07-9.75-.07-11c1.4-.2,2.93-.5,5.07-.87,3.77-.58,5.1,2.14,5.17,6.74.03,4.6-1.43,5.67-2.27,6.69,1.01,2.54,2.83,6.9,3.11,7.84-1.71.26-4.02.65-4.58.78-.77-1.87-1.61-4.6-2.13-5.56.07,1.88.03,4.3.03,5.92-1.22.24-3.46.56-4.33.71ZM429.28,671.11c1.36-.3,1.68-1.27,1.78-3.18.07-1.94-.45-2.53-1.82-2.26,0,.85-.03,3.33.03,5.45Z"/>
          <path class="cls-3" d="M353.1,703.71l-3.95.68c0-2,0-3.49-.03-4.8,1.75-.37,11.74-2.01,12.68-2.14.07,1.75.03,4.43.03,4.84-.91.12-2.52.43-3.88.66,0,3.96.21,16.53.21,17.18-1.12.26-3.81.65-5,.85-.1-2.9-.1-15.63-.07-17.27Z"/>
          <path class="cls-3" d="M363.26,719.22c.07-2.96,0-5.35,0-11.96,0-3.86.14-9.38.14-10.26,1.43-.28,3.56-.58,4.26-.69-.07,1.6-.03,7.7-.03,8.27.8-.1,2.48-.36,2.97-.47.1-2.63-.03-7.38.03-8.27,1.47-.25,3.32-.6,4.12-.67.07,2.9.1,8.35.1,11.84s-.1,9.37-.1,10.22c-1.68.32-3.35.61-4.16.71-.07-2.33-.07-7.88-.03-8.8-.56.1-2.13.33-2.79.48-.03,2.24-.07,7.2-.14,8.94-1.64.28-3.84.62-4.37.68Z"/>
          <path class="cls-3" d="M376.96,703.73c0-3.15.07-8.04.07-8.85,1.15-.27,3.63-.66,4.61-.79.14,2.58-.03,10.1-.03,13.22s.1,7.88.1,8.79c-1.43.24-3.46.66-4.82.86,0-4.61.07-10.08.07-13.23Z"/>
          <path class="cls-3" d="M383.28,708.45c.91-.15,3.42-.55,3.81-.58,0,1.86-.07,3.13,1.22,2.87,1.22-.24,1.08-1.51,1.08-2.15,0-3.69-6.32-3.59-6.22-9.98.07-3.87,1.68-5.54,5.45-6.18,4.33-.74,4.86,1.4,4.96,5.66-.73.09-3.21.58-3.67.59.07-1.5-.1-2.35-1.12-2.18-.91.19-1.01.99-1.05,1.91-.07,2.65,6.04,3.03,5.97,9.65-.07,4.65-1.75,6.4-4.75,6.91-4.75.81-5.69-.18-5.69-6.51Z"/>
          <path class="cls-3" d="M402.78,695.02c-1.36.27-2.97.51-3.88.66,0-.41-.03-2.91,0-4.68.98-.2,10.97-1.98,12.68-2.2,0,1.32-.03,2.68,0,4.68l-3.95.67c.03,1.62,0,9.49.03,17.54-1.19.2-3.7.7-4.79.85-.03-.67-.1-13.53-.1-17.53Z"/>
          <path class="cls-3" d="M413.12,697.45c0-3.08-.14-7.87-.1-8.79,1.43-.24,3.46-.66,4.82-.86,0,4.64-.07,10.07-.07,13.22s-.1,8.05-.1,8.86c-1.12.26-3.63.69-4.61.79-.1-2.56.07-10.11.07-13.23Z"/>
          <path class="cls-3" d="M420.01,697.76c-.03-3.42.24-9.39.17-10.33,1.33-.36,3.67-.66,4.86-.83.98,2.34,3.21,8.53,3.67,9.54.98-2.78,2.86-9.91,3-10.71,1.43-.31,4.3-.7,4.86-.76.1,3.44.24,21.07.17,22.03-1.36.33-3.53.67-4.4.85,0-2.13-.14-8.11-.14-9.09-.8,3.46-1.68,8.69-1.89,9.37-1.19.34-2.86.46-3.46.59-.66-2.73-1.96-7.32-2.31-8.65-.14,2.63-.1,8.59-.14,9-1.08.19-3.04.62-4.44.89-.24-3.04.07-8.48.03-11.9Z"/>
          <path class="cls-3" d="M438.84,693.56c.07-4.08-.07-8.09-.03-9.38,1.4-.27,8.35-1.46,9.12-1.56.03,1.48.1,3.47.03,4.2-1.4.24-3.95.74-4.75.88-.03,1.09.07,3.51.07,3.99,1.19-.24,2.24-.38,2.62-.45,0,1.42.03,3.59.03,4.03-.94.26-2.38.51-2.72.57,0,1.59.03,4.5.03,5.25,1.57-.23,4.16-.71,4.86-.86.17,1.22.1,3.81.14,4.38-1.29.29-8.38,1.57-9.4,1.78,0-3.59-.1-8.72,0-12.81Z"/>
          <path class="cls-3" d="M449.63,703.81c-1.12-.96-1.15-2.48-.03-3.69,1.4-1.49,2.79-1.53,3.95-.54,1.12.99.94,2.55-.07,3.67-.87.93-2.86,1.4-3.84.56Z"/>
        </g>
      </g>
    </g>
  </g>
</svg>