<svg xmlns="http://www.w3.org/2000/svg" width="266" height="193" viewBox="0 0 266 193" fill="none">
<path d="M1.09773 111.647C0.682521 131.836 1.34323 163.569 1.36136 168.978C1.37948 174.387 1.2938 177.9 1.39266 178.529C2.02537 178.674 2.83107 178.735 3.7307 178.793C4.75225 178.857 5.76721 179.037 6.78876 179.099C7.56976 179.147 8.88294 179.267 9.39701 179.373C9.43656 180.006 9.37065 184.238 9.50247 185.225C10.2274 185.344 11.2523 185.407 11.9212 185.487C12.9955 185.618 13.3942 185.715 14.4702 185.824C15.0666 185.885 15.9432 185.894 16.5693 185.977C16.5808 186.262 16.6253 191.318 16.6484 191.602C17.2168 191.693 17.6106 191.721 18.1774 191.719C25.5276 191.697 46.9852 191.637 67.0784 191.838C88.765 192.055 101.014 192.279 123.373 191.849C169.774 190.956 200.734 191.959 200.734 191.959C217.535 192.045 237.684 191.879 239.851 191.887C242.017 191.894 244.229 191.79 247.812 191.719C248.379 191.707 248.773 191.693 249.341 191.602C249.364 191.318 249.409 186.262 249.42 185.977C250.047 185.894 250.921 185.885 251.52 185.824C252.595 185.715 252.996 185.618 254.068 185.487C254.739 185.407 255.764 185.344 256.487 185.225C256.619 184.237 256.553 180.006 256.593 179.373C257.107 179.267 258.418 179.147 259.201 179.099C260.223 179.037 261.237 178.857 262.259 178.793C263.159 178.737 263.964 178.674 264.597 178.529C264.696 177.898 264.671 173.29 264.628 168.976C264.586 164.663 265.339 131.825 264.922 111.629C264.848 108.034 264.607 72.1364 264.556 61.9341C264.473 45.7392 264.651 27.2458 264.63 23.7676C264.609 20.2877 264.681 14.5374 264.597 14.0019C263.964 13.8569 263.159 13.7959 262.259 13.7382C261.237 13.674 260.223 13.4944 259.201 13.4318C258.42 13.384 257.107 13.2637 256.593 13.1583C256.553 12.5256 256.619 8.29272 256.487 7.30576C255.762 7.18713 254.737 7.12452 254.068 7.04379C252.994 6.91362 252.595 6.81641 251.52 6.70766C250.923 6.6467 250.047 6.63681 249.42 6.55443C249.409 6.26938 249.364 1.2127 249.341 0.929306C248.773 0.838684 248.379 0.823855 247.812 0.812322C244.229 0.741472 242.017 0.636022 239.851 0.64426C237.684 0.650851 189.852 0.682156 189.852 0.682156C189.852 0.682156 169.772 1.57519 123.371 0.682156C101.012 0.252116 88.7633 0.476198 67.0768 0.69369C46.9835 0.894705 25.526 0.833741 18.1758 0.812322C17.609 0.810674 17.2152 0.838684 16.6467 0.929306C16.6237 1.2127 16.5792 6.26938 16.5676 6.55443C15.9415 6.63681 15.0666 6.6467 14.4685 6.70766C13.3926 6.81641 12.9922 6.91362 11.9196 7.04379C11.249 7.12452 10.2241 7.18713 9.50082 7.30576C9.369 8.29436 9.43491 12.5256 9.39537 13.1583C8.8813 13.2637 7.56976 13.384 6.78712 13.4318C5.76556 13.4944 4.7506 13.674 3.72905 13.7382C2.82943 13.7943 2.02372 13.8569 1.39102 14.0019C1.30699 14.5374 1.32841 18.9086 1.38937 23.8252C1.45033 28.7419 1.54425 45.7408 1.46351 61.9341C1.41244 72.1364 1.17188 108.049 1.09773 111.647ZM3.76365 61.9456C3.84439 45.8627 3.68951 27.3628 3.6961 23.9785C3.70104 20.5942 3.62031 16.7683 3.73729 16.1092C4.27772 16.017 5.08508 15.9263 6.58775 15.7056C7.37533 15.5902 8.84834 15.5095 9.64252 15.4502C10.3131 15.4007 10.7778 15.3052 11.3577 15.1997C11.3841 14.8702 11.4022 14.4023 11.4368 13.5636C11.4582 13.0512 11.4566 11.0443 11.4582 10.5302C11.4615 9.73277 11.4615 9.47739 11.5143 9.20058C13.1504 9.03087 15.233 8.74747 16.8725 8.64202C17.1987 8.6206 17.6271 8.54316 18.2252 8.52833C18.268 8.13289 18.2862 6.59562 18.3092 6.19689C18.3587 5.33186 18.3455 3.49801 18.3702 3.11411C18.7524 3.11411 19.4049 3.02843 20.0838 3.0169C21.9456 2.98229 23.5076 2.92792 25.6726 2.99548C27.8377 3.06303 46.8188 3.1932 67.0966 2.99053C88.7666 2.77304 100.997 2.54896 123.323 2.979C169.758 3.87039 237.765 2.96911 239.908 2.98394C242.052 3.00042 243.902 2.98065 245.898 3.0169C246.577 3.03008 247.229 3.11411 247.611 3.11411C247.636 3.49966 247.623 5.33186 247.672 6.19689C247.695 6.59562 247.713 8.13289 247.756 8.52833C248.354 8.54316 248.784 8.6206 249.109 8.64202C250.75 8.74747 252.831 9.03087 254.467 9.20058C254.52 9.47739 254.52 9.73277 254.523 10.5302C254.527 11.0443 254.523 13.0495 254.545 13.5636C254.579 14.4023 254.597 14.8702 254.624 15.1997C255.204 15.3052 255.668 15.3991 256.339 15.4502C257.133 15.5078 258.606 15.5886 259.394 15.7056C260.896 15.928 261.705 16.0186 262.244 16.1092C262.363 16.7683 262.215 20.5744 262.317 23.9768C262.419 27.3793 262.167 45.8611 262.247 61.9456C262.299 72.1463 262.541 108.08 262.613 111.679C263.028 131.762 262.287 166.089 262.364 168.559C262.442 171.029 262.361 175.765 262.243 176.424C261.702 176.516 260.895 176.607 259.392 176.827C258.604 176.943 257.133 177.023 256.337 177.083C255.667 177.132 255.202 177.228 254.622 177.333C254.596 177.663 254.578 178.131 254.543 178.969C254.522 179.482 254.523 181.489 254.522 182.003C254.518 182.8 254.518 183.055 254.466 183.332C252.829 183.502 250.747 183.785 249.107 183.891C248.781 183.912 248.353 183.99 247.755 184.005C247.712 184.4 247.694 185.937 247.671 186.336C247.621 187.201 247.634 189.035 247.61 189.419C247.227 189.419 246.575 189.504 245.896 189.516C243.901 189.552 242.049 189.534 239.907 189.549C237.763 189.565 217.594 189.75 200.74 189.664C200.74 189.664 169.758 188.662 123.323 189.554C100.997 189.984 88.765 189.76 67.0966 189.542C46.8188 189.34 27.8377 189.47 25.6726 189.537C23.5076 189.605 21.9456 189.549 20.0838 189.516C19.4049 189.503 18.7524 189.419 18.3702 189.419C18.3455 189.033 18.3587 187.201 18.3092 186.336C18.2862 185.937 18.268 184.4 18.2252 184.005C17.6271 183.99 17.1971 183.912 16.8725 183.891C15.2314 183.785 13.1504 183.502 11.5143 183.332C11.4615 183.055 11.4615 182.8 11.4582 182.003C11.4549 181.489 11.4582 179.483 11.4368 178.969C11.4022 178.131 11.3841 177.663 11.3577 177.333C10.7778 177.228 10.3131 177.134 9.64252 177.083C8.84834 177.025 7.37533 176.944 6.58775 176.827C5.08508 176.607 4.27772 176.514 3.73729 176.424C3.61866 175.765 3.73894 174.188 3.64667 168.558C3.55275 162.928 2.98431 131.775 3.39787 111.697C3.47202 108.095 3.71257 72.1463 3.76365 61.9456Z" fill="#98C5D3"/>
<path d="M6.30709 112.143C5.89188 132.19 6.45373 167.047 6.56413 169.215C6.67452 171.383 6.61356 172.922 6.69923 173.477C7.70101 173.609 10.1363 173.863 11.4412 173.926C12.2634 173.965 13.8023 174.057 14.6443 174.11C14.7497 174.585 15.0397 179.452 15.0924 179.926C15.6724 180.005 17.0795 180.002 17.648 180.032C18.9002 180.098 18.8903 180.121 20.1442 180.164C20.9235 180.19 20.9631 180.289 21.3585 180.328C21.4178 180.763 21.4228 181.587 21.4574 182.423C21.4854 183.105 21.7325 185.848 21.8116 186.677C22.4773 186.713 23.9058 186.677 25.5551 186.641C38.9242 186.352 47.0423 186.421 67.5063 186.629C89.0758 186.847 101.206 187.071 123.608 186.641C170.096 185.748 201.728 186.751 201.728 186.751C218.791 186.837 232.269 186.906 241.3 186.639C242.36 186.622 243.493 186.636 244.231 186.622C244.31 185.792 244.505 183.103 244.533 182.421C244.567 181.586 244.572 180.762 244.632 180.327C245.027 180.287 245.067 180.188 245.846 180.162C247.1 180.119 247.09 180.096 248.342 180.03C248.911 180 250.318 180.004 250.898 179.925C250.951 179.45 251.24 174.583 251.346 174.108C252.19 174.056 253.185 173.963 254.007 173.924C255.312 173.861 258.377 173.608 259.378 173.476C259.484 172.79 259.495 171.214 259.492 168.215C259.489 165.216 260.126 131.994 259.716 112.127C259.642 108.528 259.4 73.11 259.349 62.9257C259.266 46.5315 259.472 26.8996 259.434 24.41C259.396 21.922 259.423 19.6301 259.334 19.0501C258.332 18.9183 255.314 18.6646 254.009 18.6019C253.186 18.5624 252.191 18.4701 251.348 18.4174C251.242 17.9429 250.952 13.0757 250.899 12.6012C250.319 12.5221 248.912 12.5254 248.344 12.4957C247.092 12.4298 247.102 12.4067 245.848 12.3639C245.068 12.3375 245.029 12.2387 244.633 12.1991C244.574 11.7641 244.569 10.9403 244.535 10.1049C244.507 9.42282 244.312 6.73218 244.233 5.90341C243.495 5.89022 242.363 5.90341 241.302 5.88693C232.271 5.62001 218.793 5.68921 201.73 5.77489C201.73 5.77489 170.1 6.77832 123.609 5.88528C101.206 5.45524 89.0775 5.67932 67.5079 5.89681C47.0439 6.10277 38.9259 6.17362 25.5567 5.88528C23.9091 5.84903 22.4789 5.81278 21.8133 5.84903C21.7342 6.67946 21.487 9.42117 21.459 10.1033C21.4244 10.9387 21.4195 11.7625 21.3601 12.1975C20.9647 12.237 20.9252 12.3359 20.1458 12.3622C18.8919 12.4051 18.9018 12.4282 17.6496 12.4941C17.0812 12.5237 15.6741 12.5204 15.0941 12.5995C15.0414 13.074 14.7514 17.9412 14.6459 18.4158C13.8023 18.4685 12.8071 18.5608 11.9849 18.6003C10.68 18.6629 7.56261 18.9167 6.56083 19.0485C6.47186 19.6284 6.75855 46.4079 6.67452 62.9224C6.62344 73.1116 6.38288 108.541 6.30709 112.143ZM8.97301 62.9389C9.05869 45.907 8.92852 29.8917 8.86262 23.4395C8.85438 22.6206 8.81978 21.9846 8.89392 21.1608C10.1906 21.1229 15.7993 20.8642 16.6495 20.8049C16.8867 19.9399 17.0647 15.9772 17.124 15.0479C17.7765 14.9491 18.8425 14.8403 19.9102 14.7909C21.1591 14.7332 22.0917 14.4746 23.5351 14.3361C23.6537 12.9323 23.6932 9.118 23.8514 8.18871C33.4342 8.22332 47.0489 8.40621 67.5326 8.1986C89.0857 7.98111 101.198 7.75703 123.568 8.18707C170.088 9.07845 201.743 8.07667 201.743 8.07667C218.786 7.991 232.246 7.92344 241.238 8.18542C241.495 8.16894 241.887 8.17718 242.18 8.22167C242.338 9.15095 242.343 12.9307 242.462 14.3345C243.903 14.4729 244.836 14.7299 246.085 14.7893C247.153 14.8387 248.219 14.9474 248.871 15.0463C248.93 15.9756 249.108 19.9382 249.346 20.8032C250.196 20.8625 255.706 21.1212 257.004 21.1591C257.08 27.8882 256.966 45.9054 257.052 62.9373C257.105 73.1182 257.345 108.574 257.421 112.174C257.834 132.185 257.238 164.781 257.05 171.368C255.753 171.406 250.196 171.665 249.347 171.724C249.11 172.589 248.932 176.552 248.873 177.481C248.22 177.58 247.154 177.689 246.087 177.738C244.838 177.796 243.905 178.055 242.463 178.193C242.345 179.597 242.34 183.377 242.182 184.306C241.887 184.35 241.496 184.359 241.239 184.342C232.25 184.604 218.79 184.536 201.745 184.451C201.745 184.451 170.09 183.449 123.57 184.34C101.199 184.769 89.0873 184.545 67.5343 184.329C47.0505 184.123 33.4359 184.306 23.8531 184.339C23.6949 183.41 23.6553 179.595 23.5367 178.191C22.095 178.053 21.1624 177.796 19.9118 177.737C18.8442 177.687 17.7781 177.578 17.1256 177.48C17.0663 176.55 16.8884 172.588 16.6511 171.723C15.8009 171.663 10.3307 171.405 9.03397 171.367C8.9483 170.403 8.89722 169.693 8.85438 168.638C8.81319 167.585 8.19531 132.095 8.60723 112.186C8.67973 108.587 8.92028 73.1215 8.97301 62.9389Z" fill="#98C5D3"/>
<path d="M56.0007 45.5034C56.0007 42.7749 54.4766 41.8917 52.5488 42.0516C52.4681 40.4467 52.4681 37.5567 52.5488 36.2732C56.7224 36.1134 66.4337 36.1134 68.1193 36.1925C71.5711 41.9708 74.7 47.1873 78.8735 53.6083C84.3306 46.866 90.2704 37.878 91.1536 36.433C93.9629 36.1925 103.995 36.3523 106.002 36.433C106.083 37.7973 106.083 41.3282 106.083 42.1306C103.355 42.0499 102.231 43.4949 102.15 46.3042C102.069 49.1134 102.231 77.1237 102.231 79.5326C102.231 81.8608 103.355 82.7423 105.121 82.7423C105.361 84.1065 105.202 87.0756 105.202 88.0395C101.349 88.1993 86.1002 88.3608 84.5745 88.4415C84.4146 86.3539 84.4146 84.1082 84.5745 82.9037C87.6243 82.9037 88.748 80.9776 88.6673 77.9278C88.6673 74.878 88.4267 62.8385 88.5074 61.1529C85.2171 65.4072 82.3271 69.2594 79.1174 73.433C76.1483 69.0996 72.4559 64.3642 69.7274 60.8316C69.8872 66.9313 70.0487 78.0069 70.1278 79.8539C70.2085 81.78 71.5728 82.9845 73.1776 83.0636C73.4181 84.3471 73.2583 87.2371 73.3374 88.5206C71.09 88.3608 54.4766 88.7612 52.791 88.6804C52.6312 85.7113 52.791 84.3471 52.791 83.3832C55.5196 83.2234 56.4835 81.8575 56.5642 78.2458C56.6433 74.6374 56.1622 51.4416 56.0007 45.5034Z" fill="black"/>
<path d="M112.244 45.3397C112.085 43.4136 111.04 42.2091 109.035 42.0493C109.035 40.5252 108.875 37.716 108.875 36.3517C112.006 36.1919 127.736 36.4324 129.262 36.4324C129.342 38.1987 129.181 41.2485 129.181 41.9702C127.014 42.2108 125.65 43.496 125.65 45.6626L125.89 79.1316C125.89 82.0216 127.576 82.9839 129.021 82.9839C129.021 84.8292 129.102 87.0767 129.102 88.5217C126.212 88.5217 110.241 88.7622 109.198 88.6815C109.198 86.5955 109.117 84.1866 109.117 82.3413C111.284 82.1814 112.729 80.7364 112.648 78.087C112.566 75.3568 112.806 53.6868 112.244 45.3397Z" fill="black"/>
<path d="M135.716 44.2992C135.635 41.9711 134.752 41.3301 132.826 41.4092C132.745 39.7237 132.666 37.3955 132.745 36.0312C136.919 36.112 150.965 36.3525 153.132 36.3525V41.8903C150.242 41.8903 149.761 42.8542 149.601 45.4213C149.52 47.9093 149.682 76.4023 149.761 78.4075C160.756 78.4075 161.317 77.4436 161.238 68.5364C163.005 68.3765 166.214 68.4556 166.936 68.3765C167.017 71.1858 167.498 87.1582 167.417 88.4418C158.187 88.361 134.51 88.5225 132.424 88.361C132.343 84.8301 132.424 82.7425 132.505 81.6188C135.876 81.3782 136.438 79.6119 136.357 75.4384C136.199 71.2665 136.037 52.2443 135.716 44.2992Z" fill="black"/>
<path d="M173.582 45.6639C173.501 43.3357 172.218 42.4542 170.613 42.4542L170.532 36.114C173.261 35.9542 188.831 36.114 190.357 36.114V41.9731C187.628 41.9731 186.664 43.0161 186.505 45.1827C186.424 47.3494 186.664 57.0607 186.585 58.5865C190.116 54.7342 196.377 46.1466 197.58 44.2996C198.785 42.4542 196.858 41.6518 195.252 41.6518C195.171 40.047 195.092 37.3184 195.092 36.3546C197.742 36.114 213.632 36.1947 215.398 36.2738C215.558 37.4783 215.317 40.6879 215.317 41.6518C213.391 41.7325 211.865 42.8562 210.663 44.7016C209.458 46.547 200.791 59.87 199.266 62.3596C201.032 65.4902 211.144 79.1345 211.867 80.0967C212.91 81.5417 213.793 82.0229 215.559 82.0229C215.559 83.3871 215.719 86.9181 215.719 87.8819C213.793 87.9627 196.618 88.2032 195.413 88.2823C195.092 86.1964 195.092 83.3871 195.092 82.504C197.499 82.4232 197.34 80.8991 196.216 79.0521C195.092 77.2858 188.109 67.0934 186.745 65.6484C186.905 70.2223 187.307 77.3666 187.226 79.3734C187.066 81.2995 189.233 82.2634 190.597 82.2634C190.757 83.8682 190.919 87.2394 190.919 88.4438C188.029 88.6844 173.261 88.6844 170.453 88.6844C170.534 86.0349 170.372 83.7084 170.453 82.5847C172.941 82.4249 173.984 80.016 173.905 77.6895L173.582 45.6639Z" fill="black"/>
<path d="M22.5671 103.656C22.5671 100.927 21.043 100.044 19.1152 100.204C19.0345 98.5991 19.0345 95.7091 19.1152 94.4255C23.2888 94.2657 33.0001 94.2657 34.6857 94.3448C38.1375 100.123 41.2664 105.34 45.44 111.761C50.897 105.018 56.8368 96.0304 57.72 94.5854C60.5293 94.3448 70.5619 94.5046 72.5687 94.5854C72.6495 95.9496 72.6495 99.4806 72.6495 100.283C69.9209 100.202 68.7972 101.647 68.7165 104.457C68.6358 107.266 68.7972 135.276 68.7972 137.683C68.7972 140.011 69.9209 140.893 71.6872 140.893C71.9278 142.257 71.768 145.226 71.768 146.19C67.9157 146.35 52.6666 146.511 51.1409 146.592C50.9811 144.505 50.9811 142.259 51.1409 141.054C54.1907 141.054 55.3144 139.128 55.2337 136.078C55.2337 133.029 54.9931 120.989 55.0738 119.304C51.7835 123.558 48.8935 127.41 45.6838 131.584C42.7147 127.25 39.0223 122.515 36.2938 118.982C36.4536 125.082 36.6151 136.158 36.6942 138.005C36.7749 139.931 38.1392 141.135 39.744 141.214C39.9845 142.498 39.8247 145.388 39.9038 146.671C37.6564 146.511 21.043 146.912 19.3574 146.831C19.1976 143.862 19.3574 142.498 19.3574 141.534C22.086 141.374 23.0499 140.01 23.1306 136.396C23.2097 132.791 22.7269 109.596 22.5671 103.656Z" fill="black"/>
<path d="M79.4396 101.411C78.6372 99.725 77.4328 99.1631 75.6681 99.0824C75.5874 97.237 75.5083 94.9089 75.5874 93.7044C81.5272 93.6237 94.2076 93.7852 95.4912 93.7852V98.6013C92.2008 98.6013 91.3176 99.9656 92.1201 101.892C92.9225 103.818 96.6956 112.084 97.4173 114.01C99.4241 110.077 101.672 105.182 103.036 101.649C103.838 99.8041 102.555 98.7595 100.386 98.7595C100.546 97.1546 100.467 94.9072 100.467 93.543C107.61 93.543 118.606 93.6237 120.371 93.6237C120.531 95.2285 120.452 98.1185 120.371 99.0808C118.285 99.3213 116.84 99.4828 115.555 102.612C111.703 111.761 108.01 120.27 105.362 126.208C105.282 129.66 105.522 137.364 105.603 139.21C105.603 141.136 107.529 142.1 108.893 142.1C109.134 143.223 109.134 145.792 109.215 146.916C105.603 146.916 87.383 147.076 86.1802 147.076C86.0995 144.428 86.1802 142.821 86.0995 141.698C89.3899 141.617 90.4329 140.333 90.5136 137.684C90.5136 135.036 90.4328 129.337 90.3538 126.206C87.0634 118.986 82.8898 109.034 79.4396 101.411Z" fill="black"/>
<path d="M128.494 110.399C127.21 110.48 124.802 110.399 123.197 110.399C123.116 107.509 123.357 96.3529 123.197 94.3477C132.668 94.4284 157.949 94.4284 160.999 94.5882C161.24 97.1569 161.08 108.714 161.08 109.678H155.542C155.461 104.942 154.178 104.14 149.121 104.14C149.202 111.925 149.521 134.318 149.521 137.207C149.441 140.016 151.367 140.416 152.973 140.578C153.214 142.263 153.054 145.232 153.054 146.437C149.362 146.597 133.712 146.758 132.027 146.677L132.107 140.097C135.8 139.937 136.121 138.411 136.2 135.361C136.281 132.311 135.96 106.549 136.04 104.22C130.339 104.219 128.735 104.861 128.494 110.399Z" fill="black"/>
<path d="M168.18 104.378C168.18 101.488 166.173 100.686 164.649 100.686C164.489 97.8767 164.327 95.4695 164.489 94.1843C169.305 94.0245 183.511 94.3441 184.473 94.3441C184.633 96.5916 184.473 99.2394 184.393 100.122C181.664 100.282 180.7 102.049 180.619 104.055C180.539 106.062 180.619 114.088 180.539 115.533C183.589 115.614 190.009 115.614 192.095 115.533C192.176 111.921 192.015 105.982 191.936 103.574C191.855 101.167 190.411 100.122 188.645 100.203C188.645 97.8751 188.405 95.3871 188.485 94.1843C192.257 94.0245 207.827 94.1843 209.513 94.1843C209.594 96.5125 209.594 99.6414 209.594 100.605C207.346 100.605 205.661 101.408 205.58 104.698C205.499 108.069 205.339 133.913 205.499 136.481C205.58 139.05 206.783 140.253 208.228 140.334L208.549 146.674C205.74 147.076 190.009 146.593 188.724 146.593C188.644 143.865 188.884 140.574 188.965 139.61C191.855 139.691 192.255 137.282 192.255 135.356L192.174 125.164C188.001 124.923 182.544 125.164 180.618 125.164C180.537 128.856 181.18 134.232 181.18 136.239C181.18 138.325 181.901 138.727 183.748 138.968C183.989 141.537 184.07 144.987 184.07 146.272C180.458 146.512 165.771 146.272 164.486 146.191C164.405 144.024 164.405 141.375 164.566 139.851C167.054 139.37 167.937 138.567 168.097 135.758C168.26 132.951 168.1 111.842 168.18 104.378Z" fill="black"/>
<path d="M211.357 109.273C211.517 98.0358 221.069 93.2214 229.175 93.1406C235.516 93.1406 239.127 95.5479 240.732 97.1543C240.732 95.7093 240.892 94.5049 240.813 93.7832C242.899 93.7832 244.826 93.7025 245.869 93.7832C245.789 97.3142 245.789 110.156 245.869 111.28C244.103 111.28 240.491 111.36 238.727 111.28C238.005 107.749 235.837 104.056 230.701 104.137C226.768 104.218 224.842 106.223 224.842 109.275C224.761 117.462 246.914 110.077 246.753 129.5C246.672 139.613 242.419 147.237 230.62 147.718C223.797 148.039 218.983 144.427 217.778 143.464C217.938 144.668 217.778 146.513 217.859 147.156C216.174 147.397 213.766 147.237 212.162 147.316C212.081 143.623 212.002 129.9 212.081 128.696C214.007 128.615 218.902 128.696 220.187 128.776C221.07 134.074 223.88 135.84 227.813 135.598C231.265 135.357 232.708 132.548 232.708 130.141C232.706 122.355 211.115 129.178 211.357 109.273Z" fill="black"/>
</svg>