<svg xmlns="http://www.w3.org/2000/svg" width="626" height="1063" viewBox="0 0 626 1063" fill="none">
<g clip-path="url(#clip0_149_3316)">
<path d="M596.549 1063C629.663 1036.04 632.705 982.543 594.647 963.963C643.732 925.631 633.466 864.168 576.016 850.862C631.184 818.976 630.804 756.375 582.1 744.965C614.834 715.733 611.032 656.925 551.266 649.341C568.377 593.187 544.941 564.334 545.183 521.072C545.563 451.612 573.424 408.729 571.903 343.475C570.382 278.186 558.111 270.602 559.632 212.552C560.392 183.699 580.959 174.599 579.023 132.474C577.122 90.35 547.43 77.4576 526.517 76.3201C523.855 47.0537 512.829 11.7548 507.125 0C497.999 11.7548 487.733 59.1877 488.113 77.044C444.732 79.3191 430.802 116.514 431.044 139.3C431.424 179.528 443.972 187.87 443.972 210.277C443.972 239.129 420.363 264.535 420.363 329.824C408.956 294.525 392.191 284.287 365.195 284.287C338.198 284.287 320.673 302.488 313.068 333.995C305.464 302.488 287.939 284.287 260.942 284.287C233.946 284.287 217.181 294.525 205.774 329.824C205.774 264.535 182.165 239.129 182.165 210.277C182.165 187.87 194.713 179.528 195.093 139.3C195.3 116.514 181.405 79.3536 138.024 77.044C138.404 59.2222 128.138 11.7548 119.012 0C113.309 11.7548 102.282 47.0537 99.6202 76.2856C78.6728 77.4232 49.0148 90.3155 47.1136 132.44C45.2124 174.564 65.745 183.665 66.5054 212.517C68.0263 270.567 55.7552 278.186 54.2343 343.44C52.7134 408.695 80.574 451.612 80.9542 521.038C81.1962 564.3 57.7255 593.152 74.8705 649.307C15.1395 656.89 11.3027 715.733 44.0372 744.931C-4.66707 756.306 -5.0473 818.941 50.1209 850.827C-7.3287 864.099 -17.6295 925.596 31.4895 963.929C-6.56823 982.509 -3.52638 1036.04 29.5884 1062.97H596.549V1063Z" fill="black"/>
<path d="M106.119 493.53C101.141 458.369 119.807 405.455 182.822 403.386C245.837 401.318 247.911 435.238 298.931 434.411C349.917 433.584 366.543 445.89 369.447 479.775C388.113 482.257 411.929 492.599 429.454 503.216C415.005 515.729 383.342 522.313 372.592 525.623C372.592 565.748 348.015 587.844 289.84 574.159C321.779 598.565 335.053 637 315.143 704.84C314.313 629.589 306.017 591.532 262.083 562.163C341.275 582.432 367.062 564.3 364.504 515.488C384.207 513.868 402.077 508.938 411.583 502.837C392.572 494.874 373.629 490.462 361.6 490.048C357.867 435.48 320.57 444.097 298.585 443.891C252.128 443.477 245.94 414.521 183.306 412.866C120.706 411.211 112.41 464.953 106.188 493.495L106.119 493.53Z" fill="white"/>
</g>
<defs>
<clipPath id="clip0_149_3316">
<rect width="626" height="1063" fill="white"/>
</clipPath>
</defs>
</svg>