<svg xmlns="http://www.w3.org/2000/svg" width="311" height="122" viewBox="0 0 311 122" fill="none">
<path d="M211.129 54.6775C215.162 54.5253 219.423 51.1028 220.26 46.5393C221.097 41.9758 218.891 36.8038 213.64 36.7278C208.313 36.6517 203.824 40.2264 203.671 45.7026C203.519 51.1788 206.716 54.8296 211.129 54.6775Z" fill="black"/>
<path d="M310.127 80.0817C306.703 73.4647 300.919 76.5831 295.212 80.0056C292.397 77.4957 282.733 71.7914 291.408 69.5097C294.3 68.7491 299.169 68.0645 299.549 62.6644C300.007 57.1882 295.897 54.9065 290.342 55.0586C278.168 55.3628 265.156 69.8899 249.252 86.2424C246.132 89.4368 243.088 92.0228 240.044 89.4368C244.991 86.5466 252.6 78.4845 252.828 67.9885C253.057 57.4924 246.665 54.8304 238.599 54.9825C226.424 55.1347 219.957 68.5209 221.25 87.2311C217.065 90.882 213.108 90.4256 213.108 86.0142C213.032 82.4395 213.945 76.7351 215.619 69.8899C217.293 63.0446 214.63 59.2417 206.184 58.5572C197.737 57.8727 187.16 64.4898 182.671 67.7603C183.507 57.2642 173.083 53.4613 167.528 60.0784C164.789 63.3489 159.462 67.8363 156.494 67.8363C153.07 62.5883 150.636 58.9376 142.037 58.4811C133.515 58.0248 116.621 59.0897 107.11 59.8502C109.621 51.7881 110.838 33.2299 94.7067 33.0017C83.0645 32.7735 78.6511 55.2867 75.9877 71.1068C73.0201 72.1716 65.1825 75.2901 61.3018 76.5831C55.0621 60.6869 35.5823 58.9376 39.6152 51.4838C43.5721 44.2583 54.3773 46.9203 57.6493 47.5288C60.8452 48.1373 64.4977 46.9964 65.1825 43.7259C65.9435 40.4554 65.3348 36.1962 60.7691 35.0553C57.5732 34.2947 52.0945 33.4581 47.3768 33.4581C32.3103 33.4581 23.5595 42.0526 23.4835 54.1459C23.3313 69.4336 40.8327 69.966 46.5397 83.5043C25.7663 92.251 17.7765 101.302 18.0047 108.604C18.233 115.905 24.3205 121.001 35.9627 120.621C56.2035 120.012 62.7476 107.234 65.0304 92.4031C67.5414 91.3383 72.107 89.589 74.0094 88.9045C72.7158 103.127 78.4989 109.744 87.7822 110.049C97.0656 110.353 106.501 102.215 110.611 93.3158C111.903 90.5016 112.056 86.1664 108.251 83.8846C104.447 81.6029 101.479 83.7325 100.262 86.3946C97.7505 91.7946 93.7175 93.6961 92.4239 93.8482C90.3694 94.0003 87.9345 93.0115 87.9345 88.1439C87.8583 79.7775 97.5222 76.2788 102.773 74.9097C108.327 73.3886 114.035 72.4759 123.926 73.3886C122.252 76.0507 119.437 81.9831 119.437 88.6763C119.437 101.15 125.144 107.919 136.482 107.919C148.58 107.919 158.702 98.716 160.908 81.8311C162.277 81.2226 165.474 79.093 167.452 78.0281C166.843 81.3747 163.951 93.8482 163.419 98.716C162.886 103.584 165.93 106.322 170.496 106.626C175.061 106.93 178.485 104.877 179.551 101.53C180.616 98.1835 181.91 91.8707 183.127 87.5354C184.345 83.2001 189.367 75.6703 195.682 75.8225C201.998 75.9746 196.824 85.4058 196.671 91.0341C196.139 107.082 212.499 109.288 224.979 101.074C226.805 103.279 231.294 107.691 239.664 107.234C251.154 106.55 259.297 95.6736 273.374 79.7775C273.678 81.2986 277.254 86.5466 281.211 88.0678C265.46 96.5863 261.579 101.606 261.656 107.539C261.731 113.471 266.601 121.99 279.461 121.838C290.494 121.762 300.843 108.984 301.757 93.7721C306.094 90.5777 313.551 86.6987 310.127 80.0817ZM37.2564 105.789C35.1257 103.736 39.3869 99.9329 47.9094 96.8905C48.1376 101.378 39.3869 107.843 37.2564 105.789ZM91.4347 60.4587C91.2064 55.9712 92.8044 47.8331 95.696 47.8331C98.5874 47.8331 96.8374 56.3516 91.4347 60.4587ZM137.623 92.251C133.591 90.882 134.275 85.4058 136.101 82.5916C137.471 84.7973 142.95 86.2424 145.08 85.9381C145.309 88.9805 141.656 93.6961 137.623 92.251ZM140.211 71.0308C142.646 69.2054 145.765 69.3575 146.526 72.3237C145.005 73.1604 142.113 72.3237 140.211 71.0308ZM235.708 75.5182C235.327 72.1716 236.696 69.3575 238.675 69.4336C240.653 69.5097 239.208 73.921 235.708 75.5182ZM279.537 107.463C276.721 106.094 279.765 102.367 284.56 100.617C284.56 104.116 282.352 108.832 279.537 107.463Z" fill="black"/>
<rect width="67.5234" height="38.5234" transform="translate(0 15.6602) rotate(-13.4086)" fill="#98C5D3"/>
<path d="M23.4969 36.2992C23.6281 36.8496 23.2658 37.2395 22.859 37.3365C22.4522 37.4335 21.9529 37.249 21.8217 36.6985L18.9726 24.9595L18.9487 24.9652L18.0628 31.7522C18.0037 32.2469 17.7439 32.5364 17.4328 32.6106C17.1217 32.6848 16.7592 32.5435 16.4833 32.1288L12.5771 26.4588L12.5532 26.4645L15.3601 38.2389C15.4914 38.7894 15.1769 39.1678 14.7222 39.2762C14.3154 39.3732 13.8161 39.1887 13.6849 38.6383L10.6783 26.0263C10.5699 25.5716 10.8615 25.0974 11.3162 24.989L12.2017 24.7779C13.3504 24.504 13.6674 24.9849 14.1782 25.7483L16.6455 29.308L17.3006 24.5234C17.4041 23.7906 17.8257 23.4372 18.5676 23.2603L19.453 23.0492C19.9077 22.9408 20.3819 23.2325 20.4903 23.6872L23.4969 36.2992ZM35.7878 30.587C36.2899 32.693 35.1506 34.2798 33.2361 34.7362L30.6036 35.3637C28.7609 35.803 26.9565 34.918 26.4544 32.812L24.6744 25.3453C24.1724 23.2393 25.3834 21.6355 27.2262 21.1962L29.8586 20.5686C31.7732 20.1122 33.5058 21.0143 34.0078 23.1203L35.7878 30.587ZM32.3326 23.5197C32.0644 22.3949 31.311 21.9928 30.258 22.2438L27.6255 22.8714C26.5965 23.1167 26.0815 23.8212 26.3497 24.946L28.1297 32.4127C28.3978 33.5375 29.1752 33.9338 30.2042 33.6885L32.8367 33.061C33.8897 32.8099 34.3807 32.1112 34.1126 30.9864L32.3326 23.5197ZM47.4622 21.2281C47.8274 22.7597 47.3183 24.0192 46.2837 24.7717L49.3429 29.8595C49.4067 30.0213 49.4535 30.1113 49.4592 30.1352C49.579 30.6378 49.2463 31.0459 48.7916 31.1543C48.4805 31.2285 48.1055 31.1408 47.8889 30.7625L44.6712 25.4343L40.6028 26.4041L41.915 31.9084C42.0462 32.4589 41.7318 32.8373 41.2771 32.9457C40.8702 33.0427 40.371 32.8582 40.2398 32.3078L37.2332 19.6958C37.1248 19.2411 37.4164 18.7669 37.8711 18.6585L43.0164 17.4319C44.931 16.9755 46.6635 17.8776 47.1656 19.9836L47.4622 21.2281ZM45.4904 20.383C45.2222 19.2582 44.4688 18.8561 43.4158 19.1071L39.1081 20.134L40.2035 24.7289L44.5112 23.702C45.5642 23.451 46.0552 22.7522 45.787 21.6274L45.4904 20.383ZM62.8938 26.7808C62.9908 27.1876 62.8063 27.6868 62.2559 27.8181L54.8132 29.5924C54.3584 29.7008 53.8843 29.4091 53.7759 28.9544L50.7921 16.4381C50.6837 15.9834 50.9753 15.5093 51.43 15.4009L58.6334 13.6836C59.1839 13.5524 59.5623 13.8668 59.6707 14.3215C59.7677 14.7284 59.5832 15.2276 59.0328 15.3588L52.667 16.8764L53.7395 21.3756L56.5635 20.7024C57.1139 20.5711 57.4924 20.8856 57.6008 21.3403C57.6978 21.7471 57.5133 22.2464 56.9628 22.3776L54.1389 23.0508L55.2514 27.7175L61.8566 26.1428C62.407 26.0116 62.7854 26.3261 62.8938 26.7808Z" fill="black"/>
</svg>