<svg xmlns="http://www.w3.org/2000/svg" width="164" height="113" viewBox="0 0 164 113" fill="none">
<path d="M163.087 84.0612L144.86 12.272C144.022 8.97253 141.972 5.88861 139.088 3.58879C136.186 1.27445 132.752 0 129.414 0H45.6568C42.1976 0 39.2265 1.35152 37.2763 3.80548H33.826C30.3668 3.80548 27.3956 5.157 25.4454 7.61096H21.9951C18.5359 7.61096 15.5637 8.96136 13.6135 11.4164H10.5564C7.06028 11.4164 4.06124 12.7959 2.11327 15.3012C0.126195 17.8557 -0.497068 21.3529 0.403201 24.8959L15.7312 85.2687L15.7502 85.3402C20.8748 103.244 32.3013 112.323 49.7125 112.323H140.001C144.195 112.323 148.043 111.585 151.438 110.131C154.869 108.661 157.688 106.529 159.817 103.792C161.807 101.232 163.106 98.25 163.675 94.927C164.256 91.5393 164.058 87.8835 163.087 84.0612ZM17.429 14.5115C18.4265 13.2293 20.0494 12.5222 21.9963 12.5222H23.3813C23.1679 14.0424 23.2595 15.6587 23.6717 17.2861L40.9343 85.2687C41.2169 86.3801 42.2155 87.1206 43.3123 87.1206C43.5122 87.1206 43.7155 87.096 43.9177 87.0446C45.2324 86.7107 46.0265 85.3748 45.6937 84.0612L28.4322 16.0764C27.9005 13.9821 28.1943 12.0743 29.2587 10.7049C30.2562 9.42267 31.8791 8.71563 33.826 8.71563H35.2121C34.9988 10.2358 35.0893 11.8521 35.5025 13.4795L53.7313 85.2687C54.4283 88.0119 54.0318 90.5251 52.6155 92.3468C51.2818 94.0614 49.1328 95.0063 46.5638 95.0063C39.5649 95.0063 34.9642 91.3125 32.8888 84.0266L16.6025 19.8819C16.0697 17.7876 16.3634 15.8798 17.429 14.5115ZM155.94 100.778C152.612 105.057 146.952 107.412 140.001 107.412H49.7125C34.5587 107.412 24.9964 99.7623 20.4817 84.0244L5.16257 23.6885C4.63089 21.5942 4.92465 19.6864 5.98911 18.317C6.98656 17.0336 8.6095 16.3277 10.5564 16.3277H11.5505C11.3371 17.8479 11.4287 19.4641 11.842 21.0915L28.1373 85.2687L28.1552 85.3335C30.8202 94.7371 37.3578 99.9154 46.5627 99.9154C50.6798 99.9154 54.206 98.298 56.4902 95.3604C58.8235 92.3614 59.5518 88.242 58.4896 84.059L40.263 12.2709C39.7313 10.1766 40.0251 8.26885 41.0896 6.89946C42.087 5.61719 43.7099 4.91015 45.6568 4.91015H129.413C134.026 4.91015 138.92 8.83403 140.099 13.4795L158.327 85.2687C159.885 91.4041 159.059 96.7667 155.94 100.778Z" fill="black"/>
<path d="M61.0226 25.663C60.4295 25.6764 59.6287 25.7033 59.3103 25.7033C59.0546 25.1347 58.581 24.8175 58.2526 25.1481C58.0571 25.3469 57.7622 25.6697 56.8363 25.6697C53.482 25.6697 50.7656 23.4772 49.5347 18.9803C48.2848 14.4097 49.7816 12.1199 53.1827 12.1467C54.7208 12.159 55.4781 12.7398 56.1784 12.7287C56.4867 12.7242 56.5984 12.5924 56.719 12.3869C57.1792 12.665 57.7745 13.0738 58.0638 13.305C57.8058 13.9986 56.834 16.0203 56.5649 16.4537C55.716 15.6037 54.8112 15.3546 53.9891 15.4216C52.8688 15.5132 51.9507 15.8215 52.6689 18.8619C53.396 21.938 54.8827 22.4529 55.9494 22.4317C57.0161 22.4105 57.3501 21.8643 56.8988 20.0358C56.5112 20.0358 56.0432 20.0079 55.7104 20.0079C55.5339 19.369 55.3898 18.7613 55.2513 18.1493C56.3549 18.1213 58.4157 18.1236 58.9462 18.1359C59.1763 19.0953 60.921 25.2598 61.0226 25.663Z" fill="black"/>
<path d="M60.2073 18.7232C59.0311 14.1895 59.9638 12.0706 63.5515 12.1119C67.071 12.1521 69.2078 14.1493 70.3627 18.9399C71.5176 23.7328 70.9122 25.7813 67.1392 25.7969C63.5336 25.8114 61.6716 24.3705 60.2073 18.7232ZM66.4321 22.8548C67.9367 22.8325 67.5044 20.8376 66.8722 18.5612C66.3405 16.6468 65.8803 14.949 64.2719 14.9523C62.8679 14.9546 63.1293 16.8512 63.5839 18.6026C64.3021 21.3704 64.8248 22.8772 66.4321 22.8548Z" fill="black"/>
<path d="M75.5976 25.3418C75.4022 24.6805 75.3162 24.1377 75.2581 23.8752C76.0589 23.8216 76.2399 23.243 76.2053 22.2065C76.1751 21.3118 76.1561 15.6979 76.1639 15.1551C76.1695 14.6111 76.136 14.1923 75.334 14.2113C75.2078 13.75 75.0749 13.1245 74.9141 12.4174C76.5526 12.3649 78.2582 12.4342 80.0945 12.4699C81.1154 14.7418 84.4741 21.4637 84.8717 22.2243C85.4515 23.3279 85.8927 23.8406 86.6366 23.8406C86.8186 24.4192 87.0163 25.0882 87.0532 25.3418C86.0937 25.3418 81.6907 25.3429 81.4661 25.3429C81.2986 24.7185 81.0719 23.864 81.0127 23.6295C82.2391 23.6116 81.9543 23.0643 81.2684 21.9239C80.5502 21.9149 79.4556 21.9149 78.8781 21.9239C78.5073 23.243 78.9809 23.6339 79.994 23.6339C80.185 24.313 80.424 25.1519 80.4464 25.3418C79.0312 25.3418 76.8989 25.2859 75.5976 25.3418ZM79.9873 18.9729C79.8622 18.6556 79.0837 17.0361 78.791 16.4485C78.7207 16.7736 78.7385 18.3574 78.7575 18.9729C79.1339 18.9918 79.526 19.0097 79.9873 18.9729Z" fill="black"/>
<path d="M86.2324 15.2104C85.9263 14.0789 85.331 13.9069 84.9512 13.9069C84.7401 13.2189 84.6083 12.5911 84.5625 12.265C85.7476 12.2281 89.304 12.2326 89.5397 12.2326C89.7173 12.7933 89.8792 13.5316 89.9205 13.7684C88.9979 13.8075 89.1152 14.3414 89.2269 14.8485C89.3375 15.3545 89.8312 17.1249 89.9004 17.4678C90.67 17.5046 92.2818 17.5046 92.7844 17.4857C92.5722 16.5809 92.2282 15.3534 92.064 14.7569C91.8428 13.9594 91.4229 13.7673 90.9939 13.7852C90.842 13.1876 90.6131 12.5721 90.5528 12.2639C91.4843 12.227 95.2328 12.2315 95.6528 12.2493C95.8181 12.829 96.0158 13.6065 96.0761 13.8421C95.5154 13.8421 95.3378 14.2487 95.5132 14.9055C95.7366 15.7398 97.2523 22.0775 97.45 22.7108C97.6466 23.3441 98.014 23.6524 98.3804 23.6703C98.5278 24.1774 98.7456 24.928 98.8652 25.3691C97.5114 25.3814 94.2633 25.3859 93.9572 25.3859C93.764 24.6979 93.6155 24.0779 93.5685 23.8233C94.4699 23.8411 94.251 23.0515 94.127 22.5622C94.003 22.073 93.6311 20.7539 93.5026 20.2468C92.4538 20.1742 91.0956 20.2468 90.6254 20.2468C90.8432 21.1694 91.147 22.2674 91.2765 22.7745C91.405 23.2804 91.6921 23.6971 92.3265 23.7328C92.5085 24.4119 92.6973 25.1268 92.78 25.4529C91.9121 25.5255 88.2529 25.4786 87.9234 25.4619C87.7671 24.9179 87.5906 24.2578 87.5258 23.8601C88.1133 23.7518 88.2976 23.5519 88.1546 22.8471C88.0105 22.1423 86.7361 17.0757 86.2324 15.2104Z" fill="black"/>
<path d="M98.3675 15.2383C98.1832 14.5871 97.8895 13.8946 96.9869 13.8667C96.8272 13.2702 96.6563 12.6827 96.5625 12.2493C98.3485 12.2237 105.261 12.3018 106.101 12.2951C106.498 13.7483 107.175 16.3944 107.234 16.6937C106.708 16.7027 105.936 16.6546 105.515 16.6502C105.194 15.3467 104.794 14.5983 103.723 14.6039C102.881 14.6061 101.988 14.6139 101.625 14.6251C101.807 15.426 102.061 16.2402 102.181 16.7295C102.364 17.4767 102.911 17.6554 104.162 17.7224C104.283 18.2117 104.492 18.9567 104.568 19.2683C103.683 19.2605 102.998 19.4582 103.205 20.354C103.412 21.2498 103.751 22.4059 103.869 22.8269C104.755 22.8493 105.231 22.799 105.878 22.7789C106.524 22.7566 106.811 22.0417 106.397 20.5215C106.992 20.5126 107.575 20.5495 108.2 20.6578C108.483 21.7033 109.319 25.0184 109.429 25.4663C108.327 25.511 100.341 25.4909 99.8251 25.4875C99.6665 24.9581 99.4096 23.9662 99.327 23.6267C100.294 23.6289 100.339 22.9241 100.138 22.1635C99.9391 21.4017 98.8891 17.0858 98.3675 15.2383Z" fill="black"/>
<path d="M110.211 25.3418C110.015 24.6805 109.929 24.1377 109.871 23.8752C110.672 23.8216 110.853 23.243 110.819 22.2065C110.788 21.3118 110.769 15.6979 110.777 15.1551C110.783 14.6111 110.749 14.1923 109.947 14.2113C109.821 13.75 109.688 13.1245 109.527 12.4174C111.166 12.3649 112.872 12.4342 114.708 12.4699C115.729 14.7418 119.087 21.4637 119.485 22.2243C120.065 23.3279 120.506 23.8406 121.25 23.8406C121.432 24.4192 121.63 25.0882 121.666 25.3418C120.707 25.3418 116.304 25.3429 116.079 25.3429C115.912 24.7185 115.685 23.864 115.626 23.6295C116.852 23.6116 116.568 23.0643 115.882 21.9239C115.164 21.9149 114.069 21.9149 113.491 21.9239C113.121 23.243 113.594 23.6339 114.607 23.6339C114.798 24.313 115.037 25.1519 115.06 25.3418C113.644 25.3418 111.512 25.2859 110.211 25.3418ZM114.601 18.9729C114.475 18.6556 113.697 17.0361 113.404 16.4485C113.334 16.7736 113.352 18.3574 113.371 18.9729C113.747 18.9918 114.139 19.0097 114.601 18.9729Z" fill="black"/>
<path d="M120.881 15.4777C120.705 14.812 120.418 14.459 119.719 14.4311C119.533 13.8067 119.293 12.912 119.141 12.3134C120.837 12.3134 121.487 12.291 123.565 12.291C126.714 12.291 129.246 14.6266 130.374 18.861C131.522 23.178 130.855 25.5046 126.811 25.5761C124.771 25.613 123.191 25.5538 122.602 25.5393C122.428 24.744 122.242 24.0325 122.136 23.7209C122.938 23.6751 122.838 23.0105 122.68 22.3861C122.523 21.7617 121.229 16.7935 120.881 15.4777ZM127.433 18.68C126.64 15.8575 125.239 15.0689 123.93 15.1504C124.106 15.8977 125.322 20.6168 125.723 22.137C127.358 22.0566 128.189 21.3775 127.433 18.68Z" fill="black"/>
<path d="M131.662 23.861C131.421 22.9105 131.859 22.1777 132.945 22.1777C134.031 22.1777 134.815 23.2913 135.096 24.6619C135.376 26.0335 134.771 27.2275 133.115 27.6084C132.866 27.2688 132.496 26.3998 132.431 26.1966C132.81 26.1966 133.369 25.8291 133.382 25.504C132.563 25.5442 131.917 24.8651 131.662 23.861Z" fill="black"/>
<path d="M53.9339 30.9668C53.7496 30.3157 53.4559 29.6231 52.5534 29.5952C52.3936 28.9988 52.2227 28.4112 52.1289 27.9779C53.9149 27.9522 60.8278 28.0304 61.6677 28.0237C62.0643 29.4768 62.7411 32.1229 62.8003 32.4222C62.2742 32.4312 61.5024 32.3831 61.0813 32.3787C60.7608 31.0752 60.3609 30.3268 59.2897 30.3324C58.4475 30.3346 57.554 30.3425 57.191 30.3536C57.373 31.1545 57.6277 31.9688 57.7472 32.458C57.9304 33.2052 58.4777 33.3839 59.7287 33.451C59.8493 33.9402 60.0582 34.6852 60.1342 34.9968C59.2495 34.989 58.5648 35.1867 58.7715 36.0825C58.9781 36.9783 59.3177 38.1344 59.4349 38.5555C60.3218 38.5778 60.7976 38.5275 61.4443 38.5074C62.0899 38.4851 62.377 37.7702 61.9637 36.2501C62.558 36.2411 63.141 36.278 63.7665 36.3863C64.0491 37.4318 64.8857 40.7469 64.9952 41.1948C63.8938 41.2395 55.9076 41.2194 55.3915 41.2161C55.2329 40.6866 54.976 39.6948 54.8934 39.3552C55.8607 39.3574 55.9053 38.6526 55.7043 37.892C55.5055 37.1302 54.4555 32.8143 53.9339 30.9668Z" fill="black"/>
<path d="M65.7734 41.0703C65.578 40.409 65.492 39.8662 65.4339 39.6037C66.2347 39.5501 66.4157 38.9715 66.381 37.935C66.3509 37.0403 66.3319 31.4264 66.3397 30.8836C66.3453 30.3396 66.3118 29.9208 65.5098 29.9398C65.3836 29.4785 65.2507 28.853 65.0898 28.1459C66.7284 28.0934 68.434 28.1627 70.2703 28.1984C71.2912 30.4703 74.6499 37.1922 75.0475 37.9528C75.6272 39.0564 76.0684 39.5691 76.8123 39.5691C76.9944 40.1477 77.1921 40.8167 77.229 41.0703C76.2695 41.0703 71.8664 41.0714 71.6419 41.0714C71.4744 40.447 71.2476 39.5925 71.1884 39.358C72.4149 39.3401 72.13 38.7928 71.4442 37.6524C70.726 37.6434 69.6314 37.6434 69.0539 37.6524C68.6831 38.9715 69.1567 39.3624 70.1698 39.3624C70.3608 40.0416 70.5998 40.8804 70.6221 41.0703C69.2081 41.0703 67.0758 41.0144 65.7734 41.0703ZM70.1642 34.7014C70.0391 34.3842 69.2606 32.7646 68.9679 32.177C68.8976 32.5021 68.9154 34.0859 68.9344 34.7014C69.3097 34.7192 69.7029 34.7382 70.1642 34.7014Z" fill="black"/>
<path d="M74.9081 32.0852C74.5998 32.0986 74.1217 32.0852 73.7118 32.0707C73.5141 31.3514 72.7948 28.569 72.6406 28.0664C75.0063 28.0798 81.5774 28.0664 82.3436 28.0921C82.5626 28.7433 83.359 31.7725 83.4081 32.016C83.0965 32.016 82.4866 32.016 82.1605 32.016C81.8477 30.8365 81.3205 30.3182 79.6462 30.3584C80.1522 32.2986 81.7204 38.0978 81.8879 38.816C82.0577 39.5353 82.7346 39.6314 83.1389 39.6716C83.3009 40.0927 83.5008 40.9896 83.5801 41.3013C82.6508 41.3292 78.7459 41.3013 78.3215 41.2867C78.183 40.7986 78.0355 40.1083 77.9663 39.8369C79.0229 39.8202 78.9593 39.2516 78.7794 38.4921C78.5996 37.7326 76.7745 30.8052 76.6427 30.2344C74.7796 30.2255 74.621 30.6868 74.9081 32.0852Z" fill="black"/>
<path d="M88.8085 30.1301C88.6365 29.547 88.3751 29.3829 87.8893 29.3963C87.7697 28.9763 87.572 28.2558 87.5039 27.9297C88.5527 27.9442 91.9528 27.9699 92.4811 27.9699C92.6062 28.4055 92.834 29.3024 92.8821 29.4923C92.1627 29.4923 92.0879 29.7358 92.2242 30.3747C92.3582 31.0136 94.209 38.1387 94.3509 38.6424C97.5733 38.6279 97.5655 38.4191 97.0841 36.5683C97.5208 36.528 98.1809 36.5682 98.3686 36.5548C98.5719 37.2474 99.624 40.9624 99.6944 41.2896C97.3823 41.2751 91.2379 41.3444 90.6973 41.3042C90.446 40.4218 90.2941 39.7147 90.2349 39.4288C91.0759 39.3752 91.0983 38.9262 90.8056 37.8818C90.5096 36.8352 89.396 32.1261 88.8085 30.1301Z" fill="black"/>
<path d="M98.7167 30.8652C98.4732 29.9057 98.1325 29.7795 97.6343 29.7426C97.5383 29.3628 97.2277 28.2816 97.1406 27.9387C97.9091 27.9019 101.753 27.9555 102.132 27.9555C102.279 28.3911 102.517 29.5427 102.563 29.7259C102.034 29.7795 101.767 30.014 102.006 30.9556C102.143 31.4985 103.879 38.1511 104.062 38.8749C104.247 39.5998 104.853 39.8533 105.215 39.8533C105.33 40.3057 105.481 40.8798 105.568 41.2238C104.844 41.2238 100.723 41.206 100.447 41.187C100.313 40.6609 100.166 40.1549 100.047 39.6858C100.581 39.6489 100.878 39.287 100.689 38.6169C100.503 37.9467 99.2461 32.9516 98.7167 30.8652Z" fill="black"/>
<path d="M104.327 30.2405C104.174 29.6697 103.786 29.4396 103.391 29.4396C103.299 29.0744 103.103 28.4076 103.027 28.1093C103.699 28.0836 107.427 28.1239 107.807 28.1239C107.917 28.5036 108.111 29.2643 108.179 29.5893C107.497 29.5759 107.321 29.8473 107.432 30.3902C107.543 30.933 108.162 33.158 108.245 33.5378C109.03 32.2086 109.872 30.7152 110.053 30.2539C110.235 29.7926 109.996 29.3849 109.375 29.3961C109.248 29.0029 109.035 28.3115 108.987 28.068C109.635 27.9999 113.537 28.0278 113.993 28.0535C114.109 28.3528 114.244 29.1537 114.303 29.3838C113.821 29.4117 113.528 29.6954 113.346 30.1578C113.164 30.6191 111.823 33.9455 111.601 34.5698C112.25 35.3573 115.708 38.9405 115.951 39.1873C116.298 39.5403 116.548 39.662 116.995 39.662C117.081 40.0016 117.37 40.9801 117.428 41.2102C116.948 41.2381 112.716 41.2102 112.421 41.2236C112.209 40.7086 112.016 40.0016 111.96 39.7838C112.564 39.7581 112.427 39.3772 112.029 38.9293C111.629 38.4814 109.209 35.8342 108.775 35.4667C109.109 36.6206 109.639 38.3318 109.735 38.8187C109.832 39.308 110.436 39.5515 110.776 39.5515C110.916 39.9458 111.174 40.8013 111.25 41.0996C110.544 41.1532 107.016 41.1532 106.323 41.1532C106.169 40.4886 105.984 39.9178 105.921 39.6196C106.549 39.5794 106.642 38.9807 106.493 38.3977C106.345 37.8146 104.803 32.0053 104.327 30.2405Z" fill="black"/>
<path d="M116.762 30.9668C116.578 30.3157 116.284 29.6231 115.381 29.5952C115.222 28.9988 115.051 28.4112 114.957 27.9779C116.743 27.9522 123.656 28.0304 124.496 28.0237C124.892 29.4768 125.569 32.1229 125.628 32.4222C125.102 32.4312 124.331 32.3831 123.909 32.3787C123.589 31.0752 123.189 30.3268 122.118 30.3324C121.276 30.3346 120.382 30.3425 120.019 30.3536C120.201 31.1545 120.456 31.9688 120.575 32.458C120.759 33.2052 121.306 33.3839 122.557 33.451C122.677 33.9402 122.886 34.6852 122.962 34.9968C122.078 34.989 121.393 35.1867 121.6 36.0825C121.806 36.9783 122.146 38.1344 122.263 38.5555C123.15 38.5778 123.626 38.5275 124.272 38.5074C124.918 38.4851 125.205 37.7702 124.792 36.2501C125.386 36.2411 125.969 36.278 126.595 36.3863C126.877 37.4318 127.714 40.7469 127.823 41.1948C126.722 41.2395 118.736 41.2194 118.22 41.2161C118.061 40.6866 117.804 39.6948 117.722 39.3552C118.689 39.3574 118.733 38.6526 118.532 37.892C118.334 37.1302 117.284 32.8143 116.762 30.9668Z" fill="black"/>
<path d="M59.332 56.7968C59.1365 56.1356 59.0505 55.5928 58.9925 55.3303C59.7933 55.2767 59.9743 54.6981 59.9396 53.6615C59.9095 52.7668 59.8905 47.153 59.8983 46.6102C59.9039 46.0662 59.8704 45.6474 59.0684 45.6663C58.9422 45.205 58.8093 44.5795 58.6484 43.8725C60.287 43.82 61.9926 43.8893 63.8289 43.925C64.8498 46.1969 68.2085 52.9188 68.6061 53.6794C69.1858 54.783 69.627 55.2956 70.3709 55.2956C70.553 55.8742 70.7507 56.5433 70.7875 56.7968C69.8281 56.7968 65.425 56.798 65.2005 56.798C65.033 56.1736 64.8062 55.3191 64.747 55.0845C65.9735 55.0667 65.6886 54.5194 65.0028 53.3789C64.2846 53.37 63.19 53.37 62.6125 53.3789C62.2417 54.6981 62.7153 55.089 63.7284 55.089C63.9194 55.7681 64.1584 56.607 64.1807 56.7968C62.7655 56.7968 60.6344 56.741 59.332 56.7968ZM63.7228 50.4279C63.5977 50.1107 62.8192 48.4911 62.5265 47.9036C62.4561 48.2286 62.474 49.8125 62.493 50.4279C62.8683 50.4458 63.2615 50.4648 63.7228 50.4279Z" fill="black"/>
<path d="M71.8822 45.7831C71.6912 45.4224 71.3829 45.2638 70.9518 45.2805C70.801 44.8449 70.5932 44.0284 70.5352 43.7972C71.479 43.7715 75.3749 43.8251 75.6765 43.8374C75.7938 44.1915 75.9111 44.76 75.9625 45.0191C75.2565 45.0191 74.9148 45.352 75.127 45.8479C75.9256 47.7065 78.1919 51.8683 78.3606 52.2615C78.3773 50.7279 78.3896 46.4846 78.3472 45.8881C78.3047 45.2906 77.782 45.0057 77.2526 45.0057C77.1353 44.5444 76.9476 44.015 76.8817 43.7559C77.9395 43.7559 81.6612 43.7693 82.0287 43.7693C82.1515 44.0943 82.28 44.76 82.3314 45.0191C81.5774 45.0448 81.4847 45.6245 81.4747 46.2958C81.4277 49.5272 81.4456 56.096 81.4579 56.9505C80.0606 56.9505 78.3829 56.9505 77.6915 56.9505C76.6159 54.7534 73.6012 49.0268 71.8822 45.7831Z" fill="black"/>
<path d="M84.7269 46.6954C84.5426 46.0442 84.2488 45.3517 83.3463 45.3237C83.1866 44.7273 83.0157 44.1398 82.9219 43.7064C84.7079 43.6807 91.6207 43.7589 92.4607 43.7522C92.8572 45.2053 93.5341 47.8514 93.5933 48.1508C93.0672 48.1597 92.2954 48.1117 91.8743 48.1072C91.5537 46.8037 91.1539 46.0553 90.0827 46.0609C89.2405 46.0632 88.3469 46.071 87.9839 46.0821C88.166 46.883 88.4207 47.6973 88.5402 48.1865C88.7234 48.9337 89.2707 49.1125 90.5217 49.1795C90.6423 49.6687 90.8512 50.4137 90.9271 50.7253C90.0425 50.7175 89.3578 50.9152 89.5644 51.811C89.7711 52.7068 90.1106 53.8629 90.2279 54.284C91.1148 54.3063 91.5906 54.2561 92.2373 54.2359C92.8829 54.2136 93.17 53.4988 92.7567 51.9786C93.3509 51.9696 93.934 52.0065 94.5595 52.1148C94.8421 53.1603 95.6787 56.4754 95.7881 56.9233C94.6868 56.968 86.7005 56.9479 86.1845 56.9446C86.0281 56.4151 85.769 55.4233 85.6863 55.0837C86.6536 55.086 86.6983 54.3811 86.4973 53.6205C86.2984 52.8587 85.2485 48.5428 84.7269 46.6954Z" fill="black"/>
<path d="M106.433 57.1181C105.84 57.1315 105.039 57.1583 104.721 57.1583C104.465 56.5898 103.991 56.2726 103.663 56.6032C103.467 56.802 103.172 57.1248 102.246 57.1248C98.8922 57.1248 96.1758 54.9322 94.9449 50.4354C93.695 45.8648 95.1917 43.575 98.5929 43.6018C100.131 43.6141 100.888 44.1949 101.589 44.1837C101.897 44.1793 102.009 44.0475 102.129 43.8419C102.589 44.1201 103.185 44.5289 103.474 44.7601C103.216 45.4537 102.244 47.4754 101.975 47.9088C101.126 47.0588 100.221 46.8097 99.3993 46.8767C98.279 46.9683 97.3609 47.2766 98.0791 50.317C98.8062 53.3931 100.293 53.908 101.36 53.8868C102.426 53.8655 102.76 53.3193 102.309 51.4909C101.921 51.4909 101.453 51.463 101.121 51.463C100.944 50.8241 100.8 50.2164 100.661 49.6043C101.765 49.5764 103.826 49.5786 104.356 49.5909C104.586 50.5515 106.332 56.716 106.433 57.1181Z" fill="black"/>
<path d="M107.305 56.7968C107.109 56.1356 107.023 55.5928 106.965 55.3303C107.766 55.2767 107.947 54.6981 107.912 53.6615C107.882 52.7668 107.863 47.153 107.871 46.6102C107.877 46.0662 107.843 45.6474 107.041 45.6663C106.915 45.205 106.782 44.5795 106.621 43.8725C108.26 43.82 109.965 43.8893 111.802 43.925C112.822 46.1969 116.181 52.9188 116.579 53.6794C117.158 54.783 117.6 55.2956 118.344 55.2956C118.526 55.8742 118.723 56.5433 118.76 56.7968C117.801 56.7968 113.398 56.798 113.173 56.798C113.006 56.1736 112.779 55.3191 112.72 55.0845C113.946 55.0667 113.661 54.5194 112.975 53.3789C112.257 53.37 111.163 53.37 110.585 53.3789C110.214 54.6981 110.688 55.089 111.701 55.089C111.892 55.7681 112.131 56.607 112.153 56.7968C110.738 56.7968 108.606 56.741 107.305 56.7968ZM111.694 50.4279C111.569 50.1107 110.791 48.4911 110.498 47.9036C110.428 48.2286 110.446 49.8125 110.465 50.4279C110.84 50.4458 111.233 50.4648 111.694 50.4279Z" fill="black"/>
<path d="M117.715 45.9344C117.552 45.3916 117.081 45.2564 116.697 45.2419C116.618 44.9303 116.411 44.2233 116.355 43.8971C117.224 43.8435 119.52 43.9373 119.941 43.9373C120.728 44.9727 123.969 48.1147 125.416 49.8918C125.212 48.9279 124.474 46.2863 124.342 45.7155C124.211 45.1448 123.648 44.9683 123.292 44.9538C123.202 44.6008 123.068 44.1819 122.962 43.8145C123.851 43.8424 127.159 43.829 127.6 43.8569C127.8 44.4277 127.881 44.9672 127.942 45.1448C127.421 45.1302 127.159 45.3737 127.369 46.312C127.579 47.248 129.958 56.4562 130.105 57.0393C129.579 57.0527 127.912 57.0258 127.599 57.0258C125.656 54.5127 123.279 51.851 121.743 50.1007C122.091 51.5807 122.899 54.2826 123.023 54.7718C123.147 55.2611 123.607 55.518 123.998 55.5045C124.134 55.939 124.331 56.6036 124.393 56.9019C123.47 56.9019 120.068 56.9689 119.59 56.9555C119.49 56.3981 119.377 56.1703 119.284 55.7492C120.186 55.614 120.12 55.3013 119.868 54.3105C119.616 53.3209 118.344 48.0388 117.715 45.9344Z" fill="black"/>
<path d="M103.663 65.3906H62.9658C62.2878 65.3906 61.7383 64.8411 61.7383 64.1631C61.7383 63.4851 62.2878 62.9355 62.9658 62.9355H103.663C104.341 62.9355 104.891 63.4851 104.891 64.1631C104.891 64.8411 104.341 65.3906 103.663 65.3906Z" fill="black"/>
<path d="M105.355 72.043H64.6572C63.9792 72.043 63.4297 71.4934 63.4297 70.8154C63.4297 70.1374 63.9792 69.5879 64.6572 69.5879H105.355C106.033 69.5879 106.582 70.1374 106.582 70.8154C106.582 71.4934 106.033 72.043 105.355 72.043Z" fill="black"/>
<path d="M107.042 78.6934H66.3447C65.6667 78.6934 65.1172 78.1438 65.1172 77.4658C65.1172 76.7878 65.6667 76.2383 66.3447 76.2383H107.042C107.72 76.2383 108.27 76.7878 108.27 77.4658C108.27 78.1438 107.72 78.6934 107.042 78.6934Z" fill="black"/>
<path d="M108.73 85.3437H68.0322C67.3542 85.3437 66.8047 84.7942 66.8047 84.1162C66.8047 83.4382 67.3542 82.8887 68.0322 82.8887H108.73C109.408 82.8887 109.957 83.4382 109.957 84.1162C109.957 84.7942 109.408 85.3437 108.73 85.3437Z" fill="black"/>
<path d="M149.242 84.1155H114.547L109.48 64.1621H144.175L149.242 84.1155Z" fill="#99C5D2"/>
<path d="M149.243 85.344H114.548C113.986 85.344 113.497 84.9631 113.358 84.418L108.292 64.4647C108.199 64.0972 108.279 63.7074 108.513 63.4091C108.745 63.1098 109.102 62.9355 109.482 62.9355H144.177C144.739 62.9355 145.229 63.3164 145.367 63.8615L150.433 83.8149C150.526 84.1823 150.446 84.5722 150.212 84.8704C149.979 85.1697 149.621 85.344 149.243 85.344ZM115.503 82.8889H147.664L143.221 65.3906H111.059L115.503 82.8889Z" fill="black"/>
<path d="M150.738 91.9941H69.7236C69.0456 91.9941 68.4961 91.4446 68.4961 90.7666C68.4961 90.0886 69.0456 89.5391 69.7236 89.5391H150.738C151.416 89.5391 151.965 90.0886 151.965 90.7666C151.965 91.4446 151.416 91.9941 150.738 91.9941Z" fill="black"/>
<path d="M146.717 98.6445H71.4111C70.7331 98.6445 70.1836 98.095 70.1836 97.417C70.1836 96.739 70.7331 96.1895 71.4111 96.1895H146.717C147.395 96.1895 147.944 96.739 147.944 97.417C147.944 98.095 147.395 98.6445 146.717 98.6445Z" fill="black"/>
</svg>