<svg xmlns="http://www.w3.org/2000/svg" width="72" height="64" viewBox="0 0 72 64" fill="none">
<path d="M54.3254 46.9257C54.2606 46.9566 54.1958 46.9875 54.131 47.0184C53.7996 46.7006 53.6068 47.1226 53.3538 47.1946C52.9603 47.3045 52.5126 47.382 52.2049 47.616C51.8973 47.85 51.6589 48.0413 51.2723 47.9926C51.1497 47.983 51.0228 48.0726 50.8868 48.0986C50.4869 48.1727 50.0834 48.2388 49.679 48.3248C49.2746 48.4107 48.7908 48.4083 48.5029 48.6426C48.1944 48.8965 47.8304 48.8758 47.6257 48.8374C46.9091 48.713 46.2038 48.787 45.5229 48.9368C44.8303 49.0824 44.1785 48.9271 43.5109 48.954C43.1811 48.9656 42.7824 48.7381 42.5268 48.8697C42.1209 49.0826 41.7935 48.9473 41.4554 48.8754C40.7838 48.7198 40.1408 48.4535 39.4602 48.3216C38.6778 48.1605 37.8704 48.1182 37.0826 47.9888C36.8698 47.9543 36.6892 47.7297 36.4728 47.6872C35.7914 47.5751 35.0903 47.55 34.4187 47.3944C33.8805 47.2723 33.3682 47.0116 32.8496 46.8025C32.561 46.6876 32.2814 46.549 31.9839 46.4578C31.405 46.2677 30.8127 46.1131 30.2427 45.8993C29.9812 45.8007 29.7636 45.6034 29.5156 45.4692C29.3685 45.384 29.1954 45.3499 29.0484 45.2647C28.7894 45.1066 28.5358 44.9167 28.2814 44.7468C28.0152 44.5727 27.7625 44.363 27.4747 44.2283C27.1293 44.0532 26.7245 43.9645 26.3961 43.7618C26.1254 43.5996 25.932 43.3034 25.6666 43.1095C25.3093 42.843 24.9384 42.6119 24.5559 42.3768C24.4864 42.3322 24.3702 42.3585 24.3504 42.3582C23.8018 42.0177 23.2767 41.6855 22.7471 41.3651C22.3294 41.1176 21.7509 41.1021 21.5532 40.5361C21.4508 40.2451 21.378 39.9109 21.1928 39.6981C20.6852 39.1439 20.1201 38.6366 19.5756 38.1097C19.4005 37.9408 19.2253 37.7718 19.0538 37.6109C18.8027 37.3616 18.486 37.163 18.3124 36.8671C17.862 36.0915 17.5007 35.2734 16.9325 34.5636C16.7482 34.3311 16.6359 34.0836 16.3079 34.0555C16.2499 33.9278 16.192 33.8001 16.134 33.6723C16.0866 33.394 15.9797 33.1148 16.0034 32.8414C16.0201 32.6393 16.1529 32.4109 16.2986 32.2541C16.4065 32.1444 16.6173 32.1313 16.8226 32.0626C16.947 32.1198 17.152 32.3327 17.3241 32.2993C18.2337 32.0891 19.1378 31.8232 20.041 31.5771C20.4183 31.475 20.7803 31.3607 21.1604 31.2863C21.8331 31.1404 22.514 30.9907 23.1923 30.9004C23.5715 30.8458 23.9935 30.9942 24.3546 30.8998C25.1453 30.688 25.9151 30.4084 26.747 30.5265C27.2518 30.5966 27.7727 30.659 28.2845 30.6578C28.7485 30.6599 29.1757 30.6893 29.6418 30.8263C30.3667 31.0342 31.1605 31.0248 31.9131 31.1418C33.0317 31.3271 34.1525 31.2784 35.3211 31.2263C35.2928 31.0553 35.306 30.9324 35.2455 30.8642C34.6041 30.1019 33.9664 29.3476 33.3124 28.6011C33.2067 28.4767 32.9742 28.4419 32.8928 28.3059C32.4371 27.562 32.0507 26.7753 31.5698 26.0627C31.0663 25.3221 30.4692 24.6358 29.8965 23.9379C29.527 23.4927 29.1251 23.0628 28.7349 22.6372C28.6518 22.5408 28.5399 22.468 28.4811 22.3601C28.2133 21.8566 27.9743 21.3298 27.6903 20.834C27.1856 19.9387 26.6404 19.0626 26.1438 18.1634C25.8607 17.6478 25.6918 17.0584 25.3799 16.5663C25.0599 16.078 25.0464 15.6573 25.3643 15.1853C25.494 15.1236 25.6236 15.0618 25.7532 15C25.9164 15.0775 26.068 15.1509 26.2312 15.2285C26.4702 15.2991 26.6641 15.4008 26.8544 15.4945C26.9167 15.5231 26.987 15.5479 27.0546 15.5448C27.4871 15.5425 27.9232 15.5482 28.3574 15.5063C28.9268 15.4583 29.4985 15.2634 30.0474 15.3222C30.9522 15.4055 31.8348 15.6353 32.7236 15.8136C33.1446 15.8945 33.5602 16.0071 33.982 16.0682C34.987 16.2203 35.8461 16.8108 36.8752 16.864C36.9347 16.8648 36.9916 16.925 37.0574 16.9616C37.5536 17.23 38.0534 17.5064 38.5576 17.7709C39.1358 18.0681 39.7177 18.3733 40.3174 18.6311C40.9875 18.9137 41.53 19.393 42.1031 19.8092C42.7105 20.2575 43.2289 20.8357 43.7896 21.3549C44.3846 21.9063 45.0128 22.4224 45.5664 23.0129C46.549 24.0494 47.5108 25.1055 48.4476 26.1931C48.9308 26.7588 49.3521 27.3833 49.7697 27.9998C50.0418 28.4041 50.1951 28.8941 50.496 29.275C51.2929 30.2933 51.8945 31.424 52.443 32.5897C52.5154 32.7494 52.7094 32.8511 52.8466 32.9799C52.8611 33.0118 52.8756 33.0438 52.8901 33.0757C52.9311 33.3183 52.9281 33.5722 53.0178 33.7915C53.2342 34.2903 53.4515 34.7693 53.2599 35.3461C53.2411 35.4133 53.3406 35.5892 53.3883 35.5858C53.746 35.5707 53.7664 35.8328 53.784 36.0671C53.808 36.3372 53.7195 36.6416 53.8164 36.8769C54.1642 37.7306 54.6741 38.507 54.751 39.4801C54.7954 40.0123 55.0235 40.5152 55.1715 41.0369C55.2024 41.1484 55.3351 41.289 55.3065 41.3998C55.161 42.0128 55.1604 42.5762 55.6354 43.0586C55.7835 43.2113 55.9686 43.424 55.9763 43.6146C55.9962 44.0711 56.0595 44.6234 55.8377 44.9816C55.4624 45.5877 54.9672 46.212 54.3688 46.5652C53.9296 46.8134 54.3892 46.8273 54.3254 46.9257Z" fill="black"/>
</svg>