<svg xmlns="http://www.w3.org/2000/svg" width="72" height="64" viewBox="0 0 72 64" fill="none">
<path d="M24.6475 11.2705C24.7192 11.2663 24.7908 11.2621 24.8625 11.2579C25.0497 11.6771 25.3873 11.3589 25.6489 11.3874C26.0548 11.4339 26.4987 11.5308 26.8718 11.4299C27.245 11.329 27.5378 11.2416 27.8776 11.4324C27.9876 11.4874 28.1388 11.4522 28.2746 11.4794C28.673 11.5614 29.0717 11.6521 29.4786 11.7248C29.8856 11.7975 30.3329 11.982 30.6878 11.8734C31.0692 11.7545 31.3987 11.9108 31.5738 12.0234C32.1907 12.4087 32.872 12.6058 33.5591 12.7235C34.2556 12.8495 34.8008 13.239 35.4294 13.4655C35.7392 13.579 36.0229 13.9399 36.3093 13.9144C36.7655 13.8701 37.0178 14.1186 37.3039 14.3126C37.8674 14.7097 38.3627 15.1987 38.9434 15.5773C39.6076 16.0212 40.3396 16.3646 41.0206 16.7812C41.2047 16.8933 41.2874 17.1694 41.4718 17.2903C42.0608 17.6508 42.7008 17.9381 43.2643 18.3353C43.7169 18.6512 44.0933 19.0856 44.4949 19.4747C44.7189 19.6898 44.9257 19.9235 45.167 20.1201C45.6316 20.5143 46.1221 20.8806 46.5695 21.2933C46.7746 21.4832 46.9018 21.7479 47.081 21.9657C47.1852 22.1001 47.3327 22.1968 47.4368 22.3311C47.6171 22.5752 47.7805 22.8465 47.9522 23.0998C48.1332 23.3614 48.2883 23.6508 48.5041 23.884C48.7581 24.1763 49.0997 24.4109 49.3276 24.7224C49.5172 24.9747 49.5848 25.3219 49.7575 25.6015C49.9882 25.983 50.2447 26.3367 50.5105 26.6986C50.558 26.7661 50.6755 26.7855 50.6938 26.7932C51.0737 27.3153 51.435 27.8209 51.8049 28.3172C52.0986 28.7038 52.6286 28.9361 52.5985 29.5349C52.5838 29.843 52.5253 30.18 52.6167 30.4468C52.8781 31.1514 53.2105 31.8343 53.5164 32.5275C53.615 32.7499 53.7136 32.9724 53.8119 33.1861C53.9505 33.5116 54.1691 33.8149 54.2185 34.1544C54.3435 35.0425 54.37 35.9365 54.629 36.808C54.7122 37.0928 54.7229 37.3644 55.0162 37.514C55.0218 37.6541 55.0273 37.7943 55.0329 37.9344C54.972 38.2101 54.9659 38.509 54.8409 38.7533C54.7493 38.9343 54.5402 39.0958 54.3462 39.1862C54.205 39.2471 54.0047 39.1799 53.7887 39.1662C53.6949 39.0663 53.5853 38.7918 53.4133 38.758C52.4915 38.6101 51.5539 38.5158 50.6245 38.4035C50.2365 38.356 49.8581 38.3255 49.478 38.2512C48.7999 38.1329 48.1127 38.0152 47.4504 37.8433C47.0786 37.751 46.7435 37.4545 46.3734 37.406C45.5612 37.3043 44.7428 37.2733 44.0167 36.8506C43.5755 36.5955 43.1165 36.3415 42.6419 36.1498C42.2129 35.973 41.8282 35.7849 41.4481 35.4823C40.8549 35.0167 40.116 34.7263 39.4629 34.3344C38.4965 33.7414 37.4399 33.3644 36.3378 32.9725C36.2996 33.1415 36.2411 33.2503 36.2714 33.3363C36.5784 34.284 36.8851 35.223 37.2096 36.1609C37.2607 36.3159 37.463 36.4358 37.4871 36.5924C37.629 37.4532 37.6907 38.3275 37.8677 39.1687C38.0551 40.0445 38.3496 40.9051 38.6173 41.7674C38.7918 42.319 39.0022 42.8686 39.2033 43.4099C39.244 43.5304 39.3202 43.6401 39.334 43.7622C39.3924 44.3294 39.4153 44.9075 39.4917 45.4736C39.6219 46.4932 39.7969 47.5101 39.9182 48.5302C39.9863 49.1144 39.9207 49.724 40.0242 50.2974C40.1367 50.8702 39.9908 51.265 39.5184 51.5824C39.3751 51.5908 39.2318 51.5992 39.0884 51.6077C38.9664 51.4743 38.8537 51.3492 38.7317 51.2159C38.5369 51.0605 38.3956 50.8932 38.2546 50.7347C38.2077 50.6848 38.1519 50.6354 38.0881 50.6128C37.6866 50.4519 37.2848 50.2823 36.8668 50.1576C36.3213 49.9876 35.7182 49.9528 35.2319 49.6915C34.4251 49.2735 33.6941 48.7282 32.9379 48.2282C32.5785 47.9946 32.2359 47.7338 31.8681 47.5183C30.9945 46.9989 30.4211 46.1282 29.4879 45.6913C29.4331 45.6681 29.4031 45.5909 29.3559 45.5322C28.9974 45.0967 28.6385 44.6524 28.271 44.2174C27.8474 43.7243 27.4234 43.2224 26.965 42.7576C26.4507 42.2434 26.1286 41.5951 25.7546 40.9937C25.3608 40.3495 25.0984 39.6187 24.7746 38.9265C24.4312 38.1917 24.0436 37.4769 23.7532 36.7214C23.2335 35.391 22.7403 34.0504 22.2823 32.6901C22.0478 31.984 21.8928 31.2468 21.7382 30.5184C21.6385 30.0414 21.681 29.5297 21.5458 29.0635C21.1912 27.8201 21.0598 26.546 20.9908 25.2595C20.9839 25.0844 20.8426 24.917 20.7639 24.7461C20.7625 24.711 20.7612 24.676 20.7598 24.641C20.8131 24.4008 20.9116 24.1668 20.9112 23.9298C20.8986 23.3862 20.8777 22.8606 21.2725 22.3985C21.3152 22.3434 21.2893 22.143 21.2438 22.1281C20.9067 22.0074 20.9866 21.7569 21.0585 21.5332C21.1381 21.2739 21.3347 21.0253 21.3336 20.7708C21.333 19.849 21.1532 18.9377 21.4485 18.0074C21.6079 17.4976 21.586 16.9458 21.6454 16.4068C21.6588 16.2919 21.5888 16.1116 21.657 16.0198C22.0228 15.5067 22.2356 14.9851 21.9773 14.3593C21.8976 14.1621 21.8062 13.8953 21.871 13.7159C22.0245 13.2855 22.1739 12.75 22.5142 12.5018C23.0902 12.0817 23.7841 11.6899 24.4715 11.5881C24.9718 11.5237 24.5514 11.3376 24.6475 11.2705Z" fill="black"/>
</svg>
