<svg xmlns="http://www.w3.org/2000/svg" width="72" height="64" viewBox="0 0 72 64" fill="none">
<path d="M57 21.8456C56.9935 21.9171 56.987 21.9887 56.9806 22.0602C56.539 22.1832 56.8031 22.5646 56.7362 22.8192C56.6302 23.214 56.4687 23.6389 56.513 24.0231C56.5573 24.4074 56.6002 24.7102 56.3615 25.0182C56.2909 25.1188 56.3032 25.2737 56.2562 25.404C56.1162 25.7861 55.9676 26.1672 55.8354 26.5591C55.7033 26.9511 55.4549 27.3663 55.5095 27.7337C55.5704 28.1288 55.3673 28.4316 55.2301 28.5882C54.7584 29.1414 54.4628 29.7864 54.2447 30.4489C54.0171 31.1194 53.5518 31.6011 53.235 32.1895C53.077 32.4793 52.6787 32.7064 52.6615 32.9936C52.6376 33.4516 52.3548 33.6644 52.121 33.9187C51.6454 34.4173 51.0893 34.8349 50.6295 35.3533C50.0928 35.9446 49.6453 36.618 49.1331 37.2301C48.9951 37.3956 48.7103 37.4365 48.5636 37.601C48.1204 38.1303 47.7419 38.721 47.2663 39.2196C46.8874 39.6205 46.4027 39.9285 45.9591 40.2681C45.7135 40.4579 45.4521 40.6278 45.2223 40.8374C44.7643 41.2386 44.33 41.6695 43.8562 42.051C43.6384 42.2257 43.3582 42.3123 43.1167 42.4573C42.9686 42.5404 42.8513 42.672 42.7032 42.7551C42.4356 42.8972 42.1434 43.0186 41.8679 43.1509C41.5829 43.2912 41.2742 43.4017 41.012 43.5806C40.6857 43.7886 40.4035 44.0917 40.0623 44.271C39.7851 44.4211 39.4323 44.4365 39.1307 44.5659C38.7199 44.7374 38.3327 44.9387 37.936 45.1479C37.8624 45.185 37.8258 45.2984 37.8154 45.3153C37.2438 45.6137 36.6911 45.8961 36.1463 46.1885C35.7211 46.4217 35.4132 46.9117 34.8266 46.7929C34.5246 46.7326 34.2005 46.6246 33.9236 46.6754C33.1893 46.8294 32.4659 47.0569 31.7363 47.2566C31.502 47.3212 31.2678 47.3857 31.0422 47.4512C30.7003 47.54 30.3686 47.7113 30.0261 47.7097C29.1308 47.7015 28.2444 47.5948 27.3456 47.7217C27.0521 47.7617 26.7825 47.732 26.5913 48C26.4521 47.9847 26.3129 47.9694 26.1738 47.954C25.9106 47.8528 25.6165 47.8023 25.3938 47.6423C25.2287 47.5248 25.1003 47.2938 25.0398 47.0885C25.0006 46.9396 25.0966 46.7515 25.1422 46.5397C25.2546 46.4617 25.5419 46.394 25.6008 46.2288C25.8834 45.3386 26.1155 44.4247 26.3641 43.5216C26.4685 43.1447 26.5547 42.7748 26.6844 42.4097C26.9016 41.7561 27.1197 41.0936 27.3876 40.4637C27.5339 40.1094 27.8761 39.8219 27.9789 39.4629C28.1996 38.6742 28.3516 37.8689 28.8765 37.2131C29.1937 36.8144 29.5126 36.3978 29.7721 35.9567C30.0102 35.5583 30.253 35.2057 30.608 34.8744C31.1556 34.3566 31.5517 33.6685 32.0354 33.0804C32.7641 32.2121 33.2929 31.2225 33.8432 30.1901C33.6819 30.1272 33.5832 30.0531 33.4938 30.0703C32.5127 30.2333 31.5403 30.3972 30.5663 30.5791C30.4057 30.6065 30.2574 30.7889 30.0992 30.7896C29.2284 30.8021 28.3561 30.7332 27.4994 30.7834C26.6072 30.8387 25.7139 31.0023 24.823 31.1391C24.2525 31.2299 23.6788 31.3564 23.1147 31.475C22.9897 31.4973 22.8701 31.5564 22.7475 31.552C22.1789 31.5255 21.6048 31.4623 21.0346 31.4537C20.0088 31.4311 18.9789 31.4532 17.9539 31.4217C17.3671 31.4022 16.775 31.2467 16.1937 31.264C15.6115 31.2903 15.2433 31.0871 15 30.5725C15.013 30.4294 15.0259 30.2863 15.0389 30.1432C15.1886 30.0423 15.3287 29.9493 15.4784 29.8484C15.6607 29.6787 15.8468 29.5637 16.0242 29.4478C16.0805 29.4088 16.1375 29.3609 16.1693 29.3011C16.3875 28.9277 16.6145 28.5552 16.7996 28.1601C17.0483 27.6455 17.1721 27.0539 17.502 26.6114C18.0343 25.8751 18.681 25.2327 19.2867 24.5587C19.5705 24.2376 19.8788 23.9373 20.146 23.6054C20.7883 22.818 21.7328 22.38 22.3025 21.5213C22.3334 21.4705 22.4142 21.4523 22.4791 21.4143C22.9622 21.1242 23.4539 20.8351 23.9378 20.5361C24.4874 20.1901 25.0458 19.8451 25.5725 19.4605C26.1563 19.0279 26.8441 18.8055 27.4933 18.5247C28.1875 18.2308 28.9479 18.0796 29.6792 17.8621C30.4556 17.6314 31.2186 17.3541 32.0075 17.179C33.3979 16.8623 34.7945 16.5734 36.2052 16.3223C36.9371 16.1951 37.6878 16.1513 38.4298 16.1065C38.9155 16.0787 39.4143 16.1968 39.8945 16.1322C41.1746 15.966 42.4518 16.0254 43.7321 16.1483C43.9061 16.1674 44.0922 16.0524 44.2726 16C44.3074 16.0038 44.3422 16.0077 44.377 16.0115C44.6062 16.1 44.8226 16.2322 45.0567 16.267C45.5951 16.3353 46.117 16.3928 46.5147 16.8521C46.5628 16.9025 46.7645 16.9067 46.786 16.8639C46.9551 16.5483 47.1906 16.6645 47.4007 16.769C47.6449 16.8862 47.8611 17.1177 48.1126 17.1544C49.0226 17.2908 49.9489 17.2482 50.8236 17.6787C51.3032 17.9122 51.8512 17.9725 52.3745 18.1115C52.4859 18.1418 52.6743 18.0993 52.7548 18.1804C53.2071 18.6187 53.6905 18.9067 54.3465 18.7441C54.5531 18.6946 54.83 18.6438 54.9975 18.7345C55.3996 18.9504 55.9061 19.1778 56.1007 19.5515C56.43 20.1839 56.714 20.9288 56.7126 21.6242C56.702 22.1289 56.948 21.7405 57 21.8456Z" fill="black"/>
</svg>