<svg xmlns="http://www.w3.org/2000/svg" width="72" height="64" viewBox="0 0 72 64" fill="none">
<path d="M57.5409 40.9494C57.4832 40.9921 57.4254 41.0348 57.3676 41.0775C56.9823 40.8292 56.8727 41.28 56.638 41.3991C56.2724 41.5821 55.8476 41.7437 55.5899 42.0321C55.3321 42.3205 55.1342 42.5537 54.7455 42.5799C54.6234 42.594 54.5158 42.7061 54.3872 42.7576C54.0086 42.9068 53.625 43.0489 53.2443 43.2105C52.8636 43.3722 52.3881 43.4624 52.1499 43.7473C51.895 44.0553 51.5337 44.1046 51.3256 44.1061C50.5987 44.1211 49.9203 44.3287 49.2802 44.6058C48.6279 44.8812 47.9587 44.8535 47.3084 45.0076C46.9869 45.082 46.5525 44.9352 46.3265 45.1131C45.9682 45.3996 45.6213 45.3296 45.2759 45.3237C44.5872 45.2996 43.9057 45.1613 43.2127 45.1621C42.4142 45.1538 41.6136 45.2667 40.8159 45.2905C40.6005 45.2973 40.3807 45.1116 40.1603 45.1113C39.4703 45.1317 38.7773 45.2412 38.0887 45.217C37.5373 45.2002 36.9851 45.0425 36.4366 44.9366C36.1316 44.8791 35.8309 44.7967 35.5216 44.7641C34.9175 44.6884 34.3068 44.6501 33.707 44.5494C33.4316 44.5026 33.1808 44.3508 32.9119 44.2666C32.7514 44.2111 32.5751 44.2108 32.4147 44.1554C32.1306 44.0498 31.8458 43.9121 31.5639 43.7941C31.2697 43.6742 30.982 43.5169 30.6741 43.4398C30.3019 43.3341 29.8878 43.3246 29.5272 43.1886C29.2308 43.0812 28.985 42.8278 28.6879 42.6883C28.2867 42.4952 27.879 42.3395 27.4591 42.1821C27.3825 42.1517 27.2734 42.1996 27.2539 42.2032C26.6511 41.9741 26.0728 41.7487 25.4924 41.5357C25.0356 41.3729 24.4648 41.4683 24.1638 40.9509C24.0083 40.6851 23.8737 40.3712 23.6517 40.198C23.0488 39.7515 22.3982 39.3619 21.7641 38.9492C21.5603 38.817 21.3564 38.6848 21.1576 38.5598C20.8641 38.3633 20.5157 38.2291 20.2894 37.9721C19.7007 37.2974 19.1915 36.5641 18.4995 35.9766C18.2747 35.7838 18.1177 35.5625 17.7904 35.5977C17.7094 35.4835 17.6284 35.3693 17.5474 35.2551C17.4482 34.9912 17.2905 34.7378 17.2621 34.465C17.2403 34.2636 17.3276 34.0142 17.4409 33.8325C17.5261 33.7043 17.7306 33.6511 17.9191 33.5444C18.0521 33.5767 18.2936 33.7464 18.4561 33.6807C19.3093 33.3005 20.1465 32.8668 20.9866 32.4526C21.3377 32.2803 21.6715 32.0989 22.0305 31.9533C22.6633 31.6815 23.3034 31.4043 23.9522 31.186C24.3141 31.06 24.7564 31.1248 25.093 30.9631C25.8291 30.6041 26.532 30.1826 27.3709 30.1393C27.8796 30.1115 28.4028 30.0731 28.9049 29.974C29.3608 29.8873 29.7857 29.8344 30.2692 29.8797C31.02 29.9449 31.7974 29.7839 32.5583 29.7547C33.6914 29.7224 34.7824 29.4602 35.9196 29.1856C35.8595 29.0233 35.8493 28.9003 35.777 28.8449C35.0034 28.2199 34.2348 27.602 33.4518 26.9948C33.3246 26.8931 33.0898 26.9034 32.9842 26.7856C32.3963 26.1431 31.8683 25.4453 31.2616 24.8384C30.6274 24.2082 29.9117 23.6493 29.2176 23.0743C28.7708 22.7083 28.2951 22.3635 27.8316 22.0206C27.7319 21.942 27.6083 21.892 27.5302 21.7974C27.1722 21.3548 26.838 20.8837 26.4656 20.4518C25.801 19.6701 25.1002 18.9151 24.4429 18.1281C24.0675 17.6765 23.7904 17.1307 23.3912 16.7076C22.9848 16.29 22.8921 15.8798 23.115 15.3561C23.2306 15.2707 23.3461 15.1853 23.4617 15.0999C23.6366 15.1447 23.7992 15.1878 23.9741 15.2326C24.222 15.2561 24.4316 15.3188 24.6361 15.3744C24.7026 15.3905 24.7764 15.4013 24.8421 15.3853C25.2662 15.3004 25.6954 15.2226 26.1137 15.0984C26.6635 14.9424 27.188 14.6419 27.7378 14.5945C28.6418 14.5032 29.5516 14.5597 30.4578 14.5646C30.8863 14.5635 31.3155 14.5944 31.7411 14.5736C32.7564 14.5305 33.7113 14.9454 34.7315 14.8008C34.79 14.7901 34.8573 14.8384 34.9288 14.8617C35.4666 15.03 36.0094 15.2055 36.5543 15.3685C37.1781 15.5494 37.8069 15.7375 38.4443 15.8756C39.1555 16.0246 39.7786 16.3909 40.4198 16.6896C41.1007 17.0132 41.7188 17.4811 42.3673 17.8831C43.0555 18.3101 43.7697 18.6962 44.4247 19.1695C45.5851 19.9983 46.7288 20.8502 47.8538 21.7377C48.4351 22.2002 48.9666 22.7322 49.493 23.257C49.8365 23.6015 50.0796 24.0529 50.4469 24.3689C51.4215 25.2152 52.2257 26.2092 52.9844 27.2478C53.0857 27.3905 53.2953 27.4532 53.4543 27.5533C53.4746 27.5818 53.4948 27.6104 53.5151 27.6389C53.6012 27.869 53.6462 28.1186 53.7757 28.3166C54.0824 28.7645 54.3862 29.1927 54.3071 29.7951C54.3013 29.8646 54.4322 30.0181 54.4785 30.0057C54.8267 29.9224 54.8963 30.1756 54.9578 30.4021C55.0324 30.6625 55.003 30.9779 55.1426 31.1902C55.6453 31.961 56.2925 32.625 56.5518 33.5648C56.696 34.0784 57.015 34.528 57.2588 35.0114C57.3102 35.1149 57.4671 35.2274 57.4599 35.3415C57.4329 35.9707 57.5387 36.5234 58.0961 36.9057C58.2704 37.0272 58.4923 37.2004 58.5358 37.3858C58.6416 37.8298 58.8081 38.3595 58.6581 38.7532C58.4042 39.4195 58.0361 40.1266 57.5154 40.5875C57.1312 40.9149 57.5849 40.8407 57.5409 40.9494Z" fill="black"/>
</svg>