<svg xmlns="http://www.w3.org/2000/svg" width="59" height="54" viewBox="0 0 59 54" fill="none">
<path d="M11.237 48.4114C11.2095 48.3309 11.182 48.2503 11.1545 48.1697C11.5636 47.8163 11.1002 47.5359 11.0488 47.2272C10.9715 46.7475 10.9385 46.2077 10.7068 45.8144C10.4752 45.4211 10.2842 45.1151 10.3893 44.6631C10.4158 44.5191 10.3283 44.3577 10.3154 44.1934C10.2802 43.7105 10.2547 43.2244 10.2064 42.7347C10.1581 42.2451 10.2219 41.6721 9.98749 41.3023C9.73304 40.9055 9.80286 40.4768 9.87305 40.2391C10.1073 39.4055 10.1108 38.5607 10.0236 37.7357C9.94267 36.8973 10.2045 36.1442 10.2576 35.35C10.2859 34.9579 10.599 34.5135 10.4793 34.1945C10.2844 33.6874 10.482 33.3162 10.6078 32.9246C10.8724 32.1481 11.2614 31.4191 11.4997 30.6291C11.7846 29.722 11.9354 28.7707 12.1844 27.8533C12.2511 27.6055 12.5335 27.4191 12.6099 27.1681C12.8255 26.3746 12.9429 25.5471 13.2075 24.7707C13.4166 24.1481 13.7825 23.5732 14.0897 22.9847C14.2589 22.6569 14.4543 22.3427 14.5973 22.0015C14.89 21.3391 15.1434 20.6564 15.4625 20.0076C15.6095 19.7099 15.8649 19.4764 16.0513 19.199C16.1684 19.0353 16.2296 18.8345 16.3467 18.6708C16.5621 18.3835 16.8135 18.1064 17.0421 17.8259C17.2769 17.532 17.551 17.2584 17.743 16.9341C17.9891 16.5464 18.1426 16.0778 18.4183 15.7137C18.64 15.413 19.0067 15.2203 19.2643 14.9298C19.6175 14.5392 19.9313 14.1284 20.2513 13.7041C20.3116 13.6273 20.2959 13.4864 20.2987 13.463C20.7614 12.855 21.2117 12.2738 21.6488 11.6859C21.9876 11.2215 22.0786 10.538 22.7576 10.3736C23.1069 10.2881 23.5024 10.243 23.7716 10.0498C24.4761 9.51669 25.1338 8.90964 25.8115 8.3295C26.0289 8.14278 26.2462 7.95607 26.4539 7.77266C26.7737 7.50597 27.0432 7.15523 27.407 6.98596C28.3603 6.54788 29.3514 6.22062 30.2434 5.63476C30.5354 5.44504 30.8356 5.34251 30.9095 4.95735C31.0644 4.90444 31.2194 4.85152 31.3743 4.7986C31.702 4.77666 32.0381 4.68435 32.3512 4.74615C32.5827 4.7908 32.8298 4.97632 32.9927 5.16816C33.1058 5.30947 33.0944 5.56084 33.1479 5.8125C33.0661 5.95291 32.7941 6.16955 32.811 6.37746C32.9392 7.48094 33.1324 8.58472 33.3028 9.68504C33.3732 10.1446 33.4596 10.5875 33.4976 11.0469C33.5813 11.8619 33.6685 12.687 33.6873 13.5017C33.7024 13.9576 33.4777 14.4393 33.5413 14.8787C33.6863 15.8415 33.9122 16.7879 33.6708 17.7589C33.5261 18.3482 33.3882 18.9577 33.325 19.5641C33.264 20.1136 33.1761 20.6161 32.9589 21.1514C32.6271 21.9846 32.5379 22.9261 32.3076 23.8033C31.9523 25.1057 31.8672 26.4395 31.78 27.8303C31.9812 27.8178 32.1215 27.8486 32.208 27.7853C33.1699 27.1193 34.1222 26.4567 35.0675 25.7738C35.2246 25.664 35.2942 25.3927 35.4616 25.3131C36.3789 24.8648 37.3369 24.5038 38.2212 24.0219C39.1407 23.5166 40.0092 22.8938 40.8881 22.3011C41.4493 21.9182 41.9968 21.495 42.538 21.0852C42.6598 20.9986 42.7582 20.8751 42.8903 20.8187C43.5059 20.5634 44.145 20.3451 44.7538 20.0697C45.8523 19.5821 46.9336 19.044 48.0356 18.5664C48.6672 18.2945 49.3697 18.167 49.9778 17.858C50.5825 17.539 51.0705 17.5748 51.5758 18.0096C51.6309 18.1708 51.6859 18.3319 51.741 18.4931C51.6308 18.677 51.5268 18.8474 51.4166 19.0313C51.3048 19.3057 51.1628 19.5229 51.0304 19.7368C50.9895 19.807 50.9521 19.8873 50.9471 19.9677C50.8951 20.4804 50.8335 20.9963 50.8271 21.5159C50.8108 22.1963 50.9639 22.8977 50.8266 23.5407C50.6162 24.6023 50.2392 25.6197 49.921 26.6507C49.7743 27.1394 49.5918 27.6179 49.4679 28.1101C49.1653 29.282 48.3744 30.227 48.1831 31.4396C48.1747 31.51 48.0978 31.57 48.0472 31.6435C47.6745 32.1982 47.292 32.7563 46.9226 33.3211C46.5061 33.9695 46.08 34.6212 45.7063 35.3C45.2952 36.059 44.6728 36.6428 44.1194 37.2704C43.5246 37.9347 42.791 38.4777 42.1202 39.078C41.4078 39.715 40.732 40.3957 39.9797 40.9789C38.6577 42.0153 37.3157 43.0248 35.9406 44.0006C35.2257 44.5035 34.4508 44.9256 33.6856 45.3444C33.184 45.617 32.5983 45.7383 32.1201 46.0478C30.8427 46.8665 29.4599 47.4401 28.0434 47.9464C27.8497 48.0125 27.7077 48.2298 27.5415 48.3765C27.5028 48.3897 27.4641 48.4029 27.4253 48.4162C27.1398 48.435 26.8468 48.4001 26.5819 48.4793C25.9781 48.6743 25.3971 48.8727 24.7547 48.5747C24.6794 48.5442 24.4636 48.6404 24.4614 48.6974C24.4338 49.123 24.1282 49.1149 23.8552 49.1069C23.54 49.1021 23.1994 48.9597 22.9151 49.0456C21.8847 49.3526 20.923 49.861 19.7886 49.8323C19.1679 49.8193 18.5578 50.0277 17.9362 50.1388C17.8035 50.1616 17.6242 50.3016 17.4998 50.2541C16.8096 50.0062 16.1586 49.9361 15.5412 50.4394C15.346 50.5961 15.0768 50.7892 14.8556 50.7748C14.3254 50.7422 13.6791 50.7492 13.2931 50.4424C12.64 49.9231 11.9809 49.2597 11.6482 48.5072C11.4168 47.9564 11.3427 48.4991 11.237 48.4114Z" fill="black"/>
</svg>