<svg xmlns="http://www.w3.org/2000/svg" width="209" height="179" viewBox="0 0 209 179" fill="none">
<path fill-rule="evenodd" clip-rule="evenodd" d="M22.0659 39.1763C4.15681 55.2042 -3.15421 79.3727 2.85828 115.571C8.65275 150.455 23.3988 165.959 58.4033 173.517C93.4079 181.074 139.559 177.93 166.127 169.76C198.051 159.943 209.389 133.702 207.223 94.8768C204.917 53.5728 186.384 30.9673 156.202 21.5204C126.021 12.0748 90.3369 11.5911 64.0095 18.5804C58.4918 20.0456 53.2899 21.717 48.4228 23.6205C32.2107 14.1633 7.7363 0.0564818 7.7363 0.0564818C7.7363 0.0564818 16.0034 22.596 22.0659 39.1763Z" fill="black"/>
<path d="M132.178 72.5023C130.776 69.921 127.635 69.9081 127.753 65.519C127.871 61.13 130.518 58.7811 137.048 59.09C143.579 59.399 146.167 61.0062 145.933 64.5297C145.697 68.0532 142.654 69.4835 143.428 71.3538C145.193 75.6189 147.474 75.8961 148.884 72.0743C150.379 68.0201 147.875 67.8067 148.052 64.4059C148.228 61.0062 150.876 58.9037 156.229 58.9662C161.583 59.0275 164.76 60.3883 164.937 65.4566C165.114 70.5248 162.054 68.1145 159.995 73.9256C157.936 79.7367 154.994 88.5784 152.728 95.9213C150.833 102.065 147.817 106.504 142.11 106.689C137.403 106.842 128.963 105.552 131.18 98.0486C132.208 94.5664 134.432 94.0382 136.377 94.8235C140.289 96.4025 142.962 91.0123 141.075 87.6928C138.175 82.5963 135.53 78.6719 132.178 72.5023Z" fill="#98C5D3"/>
<path d="M113.644 59.4429C113.576 55.6364 108.614 55.2567 109.321 51.258C110.211 46.2299 114.306 44.8797 118.394 45.0082C123.506 45.1698 125.293 46.606 125.245 51.2108C125.198 55.8156 125.324 76.506 125.34 80.454C125.359 85.521 128.585 83.7463 128.585 88.9525C128.585 92.8227 124.629 93.6988 119.046 93.5502C113.899 93.4135 109.727 93.2849 109.851 88.6778C109.988 83.5305 113.488 86.001 113.505 81.2523C113.523 75.7006 113.739 64.6585 113.644 59.4429Z" fill="#98C5D3"/>
<path d="M59.3916 67.3589C59.7701 62.576 63.5341 59.707 71.495 59.707C80.76 59.707 82.4274 64.2788 82.4746 70.084C82.5217 75.8893 82.201 79.8609 82.5665 81.8844C82.9321 83.9091 84.6007 84.4609 84.2799 88.495C83.958 92.5291 81.4392 94.0066 79.0725 94.0349C76.7059 94.0632 76.8651 92.1729 74.7602 92.206C72.6565 92.239 73.2756 94.8344 67.1614 94.8721C61.0472 94.9099 59.3456 90.4843 59.4258 84.3489C59.5885 71.9071 72.8192 75.6676 72.9702 71.1866C73.0279 69.4685 72.002 68.7551 70.6224 68.7704C66.9244 68.8117 69.3677 73.5026 63.5023 73.6323C60.546 73.6995 59.0697 71.4248 59.3916 67.3589ZM71.1589 85.56C72.3416 85.4951 72.9654 84.8442 73.0232 83.2829C73.0904 81.4811 71.956 81.2806 71.0209 81.8148C68.9219 83.0129 68.8842 85.685 71.1589 85.56Z" fill="#98C5D3"/>
<path d="M98.1736 111.183C97.8469 107.361 95.5652 109.63 95.2468 104.974C94.9284 100.319 100.158 95.9167 104.176 95.5983C108.194 95.2799 109.598 98.7821 109.612 102.744C109.624 105.87 109.705 108.942 109.676 110.857C109.612 115.067 112.697 112.068 116.391 111.875C121.693 111.599 125.609 114.514 125.656 124.208C125.72 137.603 129.156 133.46 129.156 139.392C129.156 143.542 125.183 143.508 121.229 143.699C117.274 143.89 112.341 143.638 112.341 139.365C112.341 135.664 114.603 137.346 114.54 131.156C114.488 126.215 113.89 124.516 111.658 124.516C109.426 124.516 109.394 127.038 109.444 131.67C109.488 135.562 111.193 135.026 111.13 139.109C111.066 143.191 107.43 144.211 102.519 144.147C97.6076 144.084 95.1206 143.127 95.1206 139.3C95.1206 134.963 98.2396 136.184 98.4306 131.464C98.6193 126.746 98.6193 116.412 98.1736 111.183Z" fill="#98C5D3"/>
<path d="M84.0605 64.6122C84.0298 60.7916 85.6371 59.5652 88.6818 59.4391C90.6841 59.3565 90.2796 57.1431 90.3209 54.3154C90.3964 49.1965 91.8527 46.6482 96.2181 46.7284C100.584 46.8086 100.89 49.8875 100.822 54.5725C100.769 58.1938 100.77 59.6159 103.614 59.6855C106.739 59.7622 108.095 60.8612 108.132 64.6346C108.168 68.4081 106.194 69.6887 103.17 69.5991C100.145 69.5083 99.7333 70.9564 99.7923 75.6237C99.8512 80.291 99.8171 81.3782 100.981 81.3959C102.185 81.4136 102.308 79.9962 102.336 79.2521C102.391 77.7852 102.854 76.8854 104.937 76.8972C107.021 76.9102 108.182 77.9385 108.028 84.5786C107.888 90.6291 104.496 93.3625 99.5812 93.4144C94.6663 93.4662 89.7065 91.1019 89.7018 84.5998C89.6971 78.0976 89.5945 74.5742 89.5709 72.3372C89.5497 70.296 88.8799 70.0177 87.0781 69.9623C85.3541 69.9116 84.0935 68.6498 84.0605 64.6122Z" fill="#98C5D3"/>
<path d="M131.153 117.901C132.993 112.498 136.557 109.621 142.665 109.759C149.321 109.908 152.601 112.591 154.606 119.16C156.612 125.73 155.043 134.418 153.302 138.856C151.56 143.294 147.743 144.894 141.964 145.086C137.937 145.22 132.965 142.655 131.273 138.444C129.581 134.233 129.016 124.173 131.153 117.901ZM142.391 133.572C144.11 133.593 144.975 131.171 145.057 127.033C145.139 122.895 144.169 121.656 142.664 121.631C141.159 121.606 140.194 122.722 140.162 126.697C140.131 130.672 140.671 133.55 142.391 133.572Z" fill="#98C5D3"/>
<path d="M53.2765 114.04C53.3248 109.833 57.004 108.969 62.4271 108.911C69.3267 108.837 71.6603 109.54 71.7995 113.45C71.9834 118.616 68.2288 116.718 68.7819 120.407C69.0024 121.878 69.2335 122.697 69.4918 123.878C69.75 125.058 70.8585 125.336 71.4492 123.897C72.04 122.458 72.5919 121.242 74.7239 121.242C76.6035 121.242 77.258 122.899 77.7085 123.8C78.2992 124.98 79.1176 124.417 79.3947 123.683C79.7402 122.768 80.2862 121.074 80.6718 120.097C81.976 116.804 77.7214 118.554 77.6519 113.475C77.5988 109.563 80.2862 109.132 86.9275 109.132C93.5688 109.132 95.8612 109.686 95.9307 114.74C96.005 120.127 93.3554 116.783 91.5394 122.674C89.8791 128.062 87.6433 135.567 86.5726 138.593C85.503 141.619 83.7531 143.522 81.318 143.597C78.883 143.671 77.3512 143.132 76.7061 141.235C75.7463 138.413 73.9798 138.422 72.9798 141.419C72.3219 143.389 69.7606 143.855 67.8043 143.809C64.8881 143.74 62.6583 141.77 61.6618 137.564C60.6654 133.357 58.7928 126.012 57.8612 121.956C56.8294 117.454 53.2034 120.497 53.2765 114.04Z" fill="#98C5D3"/>
<path d="M28.1541 60.3625C29.8002 53.0986 36.5854 50.8169 42.5239 50.7497C48.4635 50.6824 53.2688 51.4843 55.6036 60.359C57.9396 69.2349 56.4043 88.2142 55.0034 92.3521C53.6025 96.4899 48.8633 99.399 42.6571 99.333C36.451 99.2657 30.2884 97.734 28.621 92.3945C26.9536 87.0551 26.219 68.9047 28.1541 60.3625ZM40.3223 83.995C40.5782 85.2756 41.3871 85.9289 42.255 85.9289C43.1229 85.9289 43.9531 84.9242 44.1241 83.8712C44.992 78.5211 45.071 72.0603 44.5969 66.7114C44.4165 64.6773 43.5946 63.1313 42.3328 63.1313C41.0711 63.1313 40.2079 64.6431 40.0063 66.5062C39.3766 72.3492 39.4155 79.4692 40.3223 83.995Z" fill="#98C5D3"/>
<path d="M154.236 104.771C154.426 95.5979 160.91 93.0508 169.598 93.0508C178.286 93.0508 182.318 96.6379 182.179 104.771C182.04 112.904 174.255 116.517 174.255 122.356C174.255 126.283 172.17 127.987 168.693 128.021C165.218 128.056 162.576 126.11 162.681 122.217C162.889 114.466 170.119 112.165 170.144 109.141C170.152 108.107 169.604 107.081 168.352 107.037C167.414 107.004 166.293 107.574 166.248 109.051C166.145 112.422 164.262 113.825 160.578 113.86C156.896 113.893 154.097 111.504 154.236 104.771ZM168.885 141.75C172.091 141.515 174.541 138.935 174.307 135.832C174.072 132.731 172.508 130.228 168.781 130.281C165.053 130.334 162.803 133.46 162.863 135.937C162.967 140.212 165.678 141.984 168.885 141.75Z" fill="#98C5D3"/>
</svg>