<svg xmlns="http://www.w3.org/2000/svg" width="168" height="140" viewBox="0 0 168 140" fill="none">
<path d="M95.3503 24.4986L95.1806 24.3797L94.9862 24.3093C89.0902 22.1764 82.9491 21.0945 76.7336 21.0945C47.0304 21.0945 22.8643 45.2596 22.8643 74.9638C22.8643 75.18 22.8715 75.3858 22.8777 75.5834C22.8798 75.6516 22.8818 75.7199 22.8839 75.7882C22.8922 76.3685 22.9015 76.8939 22.9253 77.4246L22.976 78.5634L24.0776 78.8551C27.6565 79.8047 33.8421 80.9352 42.9829 80.9352C52.403 80.9352 58.6878 79.7447 62.3019 78.7465L63.3984 78.4434L63.4397 77.3066C63.448 77.0667 63.4635 76.8257 63.4791 76.5712L63.4925 76.3519C63.7563 71.391 64.6686 66.5605 66.2046 61.9937C67.6921 57.5718 69.7308 53.4901 72.265 49.8615C74.7734 46.2691 77.7007 43.2157 80.9642 40.7859C84.2721 38.3231 87.8469 36.5626 91.5893 35.552L91.6069 35.5468C93.1377 35.1144 94.6686 33.6363 95.702 31.5934C97.209 28.6196 97.0632 25.7006 95.3503 24.4986Z" fill="black"/>
<path d="M43.1564 62.9727C35.7358 62.9727 28.7144 63.734 23.3833 65.118C20.7394 65.8037 12.6919 67.8922 12.6919 73.7509C12.6919 73.8574 12.6961 73.9639 12.7054 74.0694L13.3281 81.6152C9.75846 82.1934 6.55189 83.9167 4.10869 86.6092C1.06039 89.9699 -0.370157 94.367 0.0818654 98.9917L0.62181 104.515C1.43793 112.884 8.53169 119.791 16.8077 120.61L17.4077 127.16C17.4118 127.203 17.4159 127.247 17.4222 127.289C18.3903 135.002 28.4993 139.986 43.175 139.986C57.8508 139.986 67.9597 135.002 68.9279 127.289C68.9341 127.242 68.9393 127.194 68.9434 127.145L73.6064 74.0901C73.6167 73.9774 73.6209 73.8636 73.6209 73.7509C73.6209 67.8922 65.5734 65.8037 62.9296 65.118C57.5994 63.735 50.577 62.9727 43.1564 62.9727Z" fill="black"/>
<path d="M43.157 66.8555C57.839 66.8555 69.7415 69.9441 69.7415 73.7537L65.0786 126.809C64.3855 132.327 55.2716 136.11 43.1746 136.11C31.0776 136.11 21.9637 132.328 21.2706 126.809L20.3552 116.815H18.4509C11.4296 116.815 5.16334 111.13 4.48168 104.141L3.94174 98.616C3.59729 95.094 4.67718 91.7571 6.98074 89.2177C9.28326 86.6783 12.5002 85.2808 16.0388 85.2808H17.521L16.5704 73.7527C16.5725 69.9441 28.4751 66.8555 43.157 66.8555Z" fill="white"/>
<path d="M18.1544 92.0898H16.0402C14.4462 92.0898 13.0198 92.695 12.0226 93.7935C11.0255 94.892 10.5631 96.3711 10.7162 97.9579L11.2562 103.482C11.6016 107.022 14.8972 110.011 18.4523 110.011H19.7236L18.1544 92.0898Z" fill="black"/>
<path d="M63.4416 74.9654C61.649 74.2776 58.942 73.6445 55.8203 73.1832C51.9289 72.6081 47.6197 72.3164 43.0105 72.3164C38.4014 72.3164 34.0911 72.6081 30.2008 73.1832C27.0791 73.6445 24.3721 74.2776 22.5795 74.9654C21.9144 75.2209 21.4986 75.7774 21.5203 76.3846C21.54 76.9525 21.9382 77.4231 22.5589 77.6135C25.5803 78.5351 32.2541 80.0815 43.0095 80.0815C53.765 80.0815 60.4398 78.5351 63.4602 77.6135C64.0808 77.4242 64.479 76.9535 64.4997 76.3846C64.5214 75.7774 64.1056 75.2209 63.4416 74.9654Z" fill="black"/>
<path d="M165.581 31.5203C157.496 26.6391 122.595 6.60428 120.819 5.75299C118.794 4.78274 117.981 4.50139 116.118 4.36796C114.605 4.26038 101.148 3.73078 98.6192 3.63148C97.5279 2.99534 94.1351 1.02175 93.1618 0.492147C91.9723 -0.154338 91.002 -0.0467627 90.3969 0.158044C89.7815 0.365954 88.9271 0.884176 88.3519 2.17094C86.1963 6.99217 75.4202 31.0962 74.9537 32.1782C74.1324 34.0825 74.6651 35.7675 76.4163 36.8008C77.2096 37.2694 80.1111 38.9896 81.3699 39.7374C81.8602 42.1155 83.4935 50.0677 83.7293 51.4828C84.1276 53.8691 85.4464 55.7186 87.6506 56.9784C88.2464 57.3187 92.7884 59.9491 99.0764 63.5891C112.299 71.2445 132.281 82.814 138.443 86.3433C139.111 86.7261 139.709 86.8802 140.239 86.8802C141.292 86.8802 142.075 86.272 142.605 85.6379C145.652 81.9958 155.248 70.0819 160.982 62.9633C163.311 60.0712 165.151 57.7863 165.372 57.5235C166.406 56.2885 166.973 54.8869 167.011 53.4688C167.195 46.7277 167.509 35.2172 167.521 34.8345C167.565 33.4391 166.912 32.3241 165.581 31.5203Z" fill="black"/>
<path d="M111.706 9.8074C109.687 11.6569 105.771 15.242 105.321 15.6382C104.71 16.175 103.863 16.5443 103.326 15.2617C102.955 14.3731 101.666 11.0962 100.968 9.14643C100.562 8.01482 101.126 7.75416 102.181 7.83898C105.125 8.07689 110.775 8.53512 111.278 8.58166C111.959 8.64476 112.422 9.1516 111.706 9.8074Z" fill="white"/>
<path d="M92.9232 5.14717C93.2791 5.35922 94.1562 5.8671 94.9082 6.30153C95.5857 6.69356 95.8764 7.52003 95.5785 8.28961C95.3168 8.96609 85.6123 29.937 83.2735 34.992C82.9518 35.6861 82.2805 35.8051 81.6723 35.4647C80.9389 35.0541 80.0339 34.5473 79.6118 34.3156C78.8402 33.8904 78.7709 33.1115 79.0512 32.4444C79.2953 31.8651 88.7257 11.1559 91.1855 5.75435C91.5547 4.94236 92.2478 4.7448 92.9232 5.14717Z" fill="white"/>
<path d="M85.3918 36.0264C85.8324 35.0541 94.2212 16.9504 96.9634 11.0338C97.5023 9.87217 98.0515 9.89699 98.3929 10.8269C98.6442 11.5106 100.224 16.0867 101.042 18.4606C101.336 19.314 101.282 20.3514 100.735 21.481C100.272 22.4367 90.755 41.5024 87.836 47.3487C87.3054 48.412 86.8751 48.4389 86.6962 47.5286C86.1614 44.8103 85.0804 39.3188 84.9584 38.7313C84.796 37.9462 84.8653 37.1901 85.3918 36.0264Z" fill="white"/>
<path d="M89.1517 50.4434C89.7154 49.2911 99.2027 30.4365 102.584 23.7162C103.323 22.2494 104.666 21.8781 106.257 22.7966C118.669 29.9555 159.671 53.622 160.288 53.9758C160.983 54.3761 161.137 55.5305 160.692 56.089C160.304 56.5752 144.772 76.1156 140.582 81.0092C139.754 81.9753 139.161 81.8243 138.206 81.3558C137.365 80.943 102.278 60.6837 90.605 53.9479C89.0151 53.0314 88.4649 51.8471 89.1517 50.4434Z" fill="white"/>
<path d="M159.548 50.0639C146.528 42.5563 109.506 21.1975 108.337 20.5107C106.994 19.7214 106.528 18.1647 107.301 17.4851C107.864 16.9907 112.982 12.3898 115.727 9.92073C116.755 8.996 118.229 8.81395 119.74 9.68903C121.067 10.4586 150.575 27.4555 160.997 33.458C162.431 34.2844 163.176 35.566 163.156 37.0038C163.142 38.0527 162.878 45.4619 162.672 49.3832C162.593 50.9203 161.47 51.1727 159.548 50.0639Z" fill="white"/>
<path d="M94.9027 46.3249L99.424 48.887L92.4326 51.0768L103.021 57.2138L107.255 49.5956L96.5774 43.3293L94.9027 46.3249Z" fill="black"/>
<path d="M99.2176 38.4232C99.2125 38.4325 99.2083 38.4418 99.2032 38.4501C99.198 38.4594 99.1939 38.4687 99.1887 38.477C99.1835 38.4863 99.1794 38.4956 99.1752 38.5049C99.1711 38.5142 99.1659 38.5235 99.1618 38.5328C98.8629 39.1359 98.6363 39.7441 98.5256 40.3513C98.415 40.9574 98.4181 41.5625 98.5774 42.1614C98.7356 42.7593 99.0501 43.352 99.56 43.9333C100.07 44.5136 100.775 45.0846 101.721 45.64C102.666 46.1955 103.583 46.5596 104.447 46.7572C105.314 46.9547 106.13 46.9847 106.872 46.8699C107.616 46.7541 108.286 46.4934 108.858 46.1076C109.432 45.7207 109.908 45.2087 110.261 44.5943C110.57 44.0564 110.759 43.4316 110.816 42.7645C110.874 42.0952 110.799 41.3856 110.576 40.6802C110.354 39.9727 109.984 39.2714 109.456 38.6218C108.926 37.9712 108.237 37.3754 107.378 36.8799C106.531 36.3927 105.673 36.0969 104.844 35.9665C104.015 35.8362 103.217 35.8693 102.485 36.0379C101.755 36.2065 101.093 36.5086 100.535 36.9171C99.98 37.3236 99.529 37.8346 99.2176 38.4232Z" fill="black"/>
<path d="M105.841 26.4969L102.019 33.7035L105.308 35.4733L106.277 33.6869L114.318 37.9165L115.849 35.0874L107.858 30.6262L109.105 28.153L105.841 26.4969Z" fill="black"/>
<path d="M104.419 56.6254L113.833 64.9893L119.323 56.344L106.909 52.3906L109.651 57.1601L104.419 56.6254Z" fill="black"/>
<path d="M110.076 46.9032L108.522 49.6733L119.329 55.9809L121.24 53.125L110.076 46.9032Z" fill="black"/>
<path d="M112.165 42.9812L110.413 46.0202L121.625 52.4333L125.195 46.7898L121.671 44.8058L119.829 47.5169L112.165 42.9812Z" fill="black"/>
<path d="M118.3 33.1415L114.507 39.8649L125.598 46.0691L129.985 39.2774L121.824 38.483L118.3 33.1415Z" fill="black"/>
<path d="M94.4587 25.7702C88.9186 23.7656 82.9575 22.6484 76.7347 22.6484C47.888 22.6484 24.418 46.1184 24.418 74.9651C24.418 75.2299 24.4304 75.4927 24.4376 75.7564C24.4459 76.2912 24.4542 76.827 24.478 77.3576C28.7427 78.4882 34.9407 79.3861 42.985 79.3861C51.2787 79.3861 57.6184 78.4334 61.8903 77.2532C61.9027 76.9242 61.9245 76.5984 61.9441 76.2726C63.0509 55.4609 75.2245 38.3658 91.187 34.0576C92.242 33.7597 93.4719 32.5733 94.3191 30.8976C95.431 28.6985 95.4693 26.4798 94.4587 25.7702Z" fill="black"/>
<path d="M81.4531 26.3722C57.559 28.6768 38.7675 50.378 38.7675 76.7236C38.7675 77.0649 38.7892 77.4021 38.8047 77.7393C36.7308 77.6535 34.8575 77.5107 33.1808 77.3287C33.1653 76.8342 33.1436 76.3408 33.1436 75.8423C33.1436 48.3361 54.701 25.9574 81.2007 25.9574C82.6581 25.9584 82.7947 26.2429 81.4531 26.3722Z" fill="#E1D000" stroke="#1D1D1B" stroke-width="3.7507" stroke-miterlimit="10"/>
<path d="M25.9697 74.9642C25.9697 46.9719 48.7426 24.1991 76.7349 24.1991C78.2399 24.1991 78.3226 24.4711 76.9076 24.5973C51.5561 26.8616 31.5926 48.9807 31.5926 75.8424C31.5926 76.282 31.6205 76.7154 31.6422 77.1499C29.3408 76.8509 27.4675 76.492 25.9935 76.1465C25.9842 75.7535 25.9697 75.3614 25.9697 74.9642Z" fill="#E9535A" stroke="#1D1D1B" stroke-width="3.7507" stroke-miterlimit="10"/>
<path d="M40.342 77.7888C40.3338 77.433 40.3203 77.0792 40.3203 76.7213C40.3203 49.6993 60.6644 27.7157 85.6694 27.7157C87.0772 27.7157 87.2676 28.0136 86.0015 28.146C63.5669 30.4971 45.9442 51.7763 45.9442 77.6006C45.9442 77.6616 45.9494 77.7206 45.9504 77.7816C44.9947 77.8095 44.0213 77.8312 42.9849 77.8312C42.0643 77.8312 41.1995 77.8105 40.342 77.7888Z" fill="#1DB3B3" stroke="#1D1D1B" stroke-width="3.7507" stroke-miterlimit="10"/>
<path d="M90.8449 32.5408C74.2535 36.9866 61.6072 54.5948 60.4115 76.0405C58.9561 76.3974 57.0663 76.777 54.709 77.0966C55.2955 53.2015 70.9311 33.6941 90.7756 31.4495C92.4844 31.2851 93.3109 31.8799 90.8449 32.5408Z" fill="#865FA4" stroke="#1D1D1B" stroke-width="3.7507" stroke-miterlimit="10"/>
<path d="M53.151 77.2874C51.4732 77.4777 49.5886 77.6277 47.5012 77.7218C47.5002 77.6815 47.4971 77.6422 47.4971 77.6018C47.4971 51.0659 66.6258 29.4764 90.1382 29.4764C91.4963 29.4764 91.5201 29.8043 90.223 29.9647C69.7351 32.5072 53.6589 52.6641 53.151 77.2874Z" fill="#00B0DA" stroke="#1D1D1B" stroke-width="3.7507" stroke-miterlimit="10"/>
</svg>