<svg xmlns="http://www.w3.org/2000/svg" width="341" height="340" viewBox="0 0 341 340" fill="none">
<path d="M66.9396 65.7881C70.0133 60.4874 78.4399 47.768 80.5602 44.4831C82.6804 41.1982 88.669 32.2405 89.6769 30.7559C92.2738 32.2927 99.057 36.7988 100.912 38.1224C102.766 39.448 106.53 43.2641 107.431 44.2176C107.749 51.5318 108.015 60.3285 108.226 69.7107C108.437 79.0929 109.445 95.8919 109.71 108.03C109.976 120.166 110.612 137.233 110.823 140.2C106.955 143.008 98.369 148.574 93.0161 151.648C87.6632 154.721 71.3934 163.041 69.3777 163.997C69.0598 156.524 68.5287 138.081 68.052 128.806C67.5752 119.53 66.9396 105.328 66.7807 93.9849C66.6218 82.6413 66.7807 71.5132 66.9396 65.7881Z" fill="#98C5D3"/>
<path d="M13.7505 46.8632C18.2273 41.8469 35.5928 24.4793 37.7549 21.5477C37.6002 19.0009 37.2928 13.6752 37.2928 10.5868C37.2928 7.49847 38.6812 4.41218 44.1616 4.87429C49.6421 5.3364 78.508 10.7395 81.3643 11.2037C84.2206 11.6658 87.3068 12.5921 87.4616 17.1462C87.6163 21.7004 87.771 26.9487 87.8484 28.8013C83.8358 34.2044 79.4364 39.6075 75.1123 46.9385C70.7881 54.2694 65.774 62.374 64.3835 64.8456C64.1514 76.3459 64.4608 95.102 64.7703 109.534C65.0798 123.966 66.4682 159.163 66.3908 163.408C61.5293 162.249 44.0843 155.69 38.4512 153.915C32.816 152.14 18.8462 146.659 16.3768 146.12C15.8373 132.689 14.2147 104.21 14.1394 90.0857C14.0579 75.9612 14.0767 61.1257 13.7505 46.8632ZM54.6751 28.6571C53.5752 25.4077 49.5459 25.0229 44.0508 26.4803C38.5557 27.9378 35.0471 31.2729 35.7601 34.6184C36.4731 37.964 40.8349 38.8673 46.3551 37.6629C52.7284 36.2745 55.7749 31.9064 54.6751 28.6571ZM38.5035 46.0268C40.3122 47.7853 44.1219 47.9003 48.239 46.9949C52.3562 46.0895 56.3165 44.6091 58.1837 40.8453C57.9621 39.7936 56.6406 35.1663 56.2161 33.4705C54.9908 36.7784 51.0828 38.7021 46.9468 39.6974C42.8109 40.6927 38.8297 40.3352 36.5735 39.0137C36.9018 40.4878 37.6754 43.365 38.5035 46.0268Z" fill="#98C5D3"/>
<path d="M156.401 68.7138C138.538 68.9752 113.798 67.616 113.798 56.6363C113.798 46.8255 131.073 39.5802 155.084 39.3607C179.095 39.1411 197.834 43.9734 197.761 53.4162C197.688 62.8591 186.486 68.2747 156.401 68.7138Z" fill="#98C5D3"/>
<path d="M114.039 63.4184C119.018 70.0071 136.074 71.3244 155.838 71.2512C175.602 71.178 192.145 68.1043 197.563 61.5156C197.563 64.6625 197.344 71.6171 197.124 73.959C184.095 80.4013 171.576 82.4505 155.911 82.1577C140.245 81.865 121.286 80.6209 114.478 75.4959C114.332 71.8367 114.259 66.5674 114.039 63.4184Z" fill="#98C5D3"/>
<path d="M124.797 54.7997C128.968 50.1138 138.704 46.4776 155.269 46.5299C171.833 46.5821 180.739 48.464 185.278 53.1499C179.072 50.2643 167.798 48.8299 154.631 48.9303C141.422 49.0328 130.643 51.2889 124.797 54.7997Z" fill="white"/>
<path d="M117.41 79.8119C126.974 83.4711 139.002 84.0378 157.599 84.3514C174.996 84.6442 183.684 82.1057 192.223 79.0801C190.906 92.109 185.122 134.859 184.976 139.472C178.68 147.158 170.115 152.281 154.377 152.208C138.638 152.135 130.951 147.449 124.584 138.811C122.755 123.806 118.437 90.133 117.41 79.8119Z" fill="#98C5D3"/>
<path d="M205.044 48.8281C210.315 50.5114 251.022 65.0311 254.023 65.6898C254.315 73.8153 253.437 102.825 253.51 114.61C253.584 126.395 254.023 148.576 253.95 152.674C248.971 150.845 229.857 142.84 223.417 140.938C216.975 139.035 208.337 135.74 205.995 135.008C205.849 123.077 205.19 101.92 204.97 89.6962C204.751 77.4724 205.117 52.4141 205.044 48.8281Z" fill="#98C5D3"/>
<path d="M205.395 46.0467C210.3 41.7288 228.893 29.8688 233.943 26.9414C239.434 28.3319 254.75 33.7078 256.287 34.0005C256.111 38.7052 256.243 43.7194 256.243 46.0613C256.243 48.4032 259.243 51.5522 263.71 51.5522C268.176 51.5522 270.591 48.7712 270.664 46.5004C270.738 44.2317 270.754 40.8234 270.738 37.7162C275.204 39.2531 288.024 44.2798 289.926 44.9384C285.094 47.8658 261.295 60.7002 256.17 63.2637C246.215 59.9705 226.256 53.2229 221.133 51.318C216.008 49.4152 208.834 47.4392 205.395 46.0467Z" fill="#98C5D3"/>
<path d="M257.015 65.5679C261.627 63.0065 268.58 59.4184 274.656 56.3446C280.733 53.2709 287.612 48.585 290.395 47.4141C290.541 54.2955 291.054 80.0835 291.127 90.99C291.2 101.897 291.785 126.566 292.078 133.594C285.27 137.619 277.876 141.646 274.949 142.89C272.021 144.134 259.283 151.748 256.575 152.845C256.649 145.671 256.795 122.173 256.575 112.071C256.356 101.97 256.795 73.108 257.015 65.5679Z" fill="#98C5D3"/>
<path d="M263.764 49.5967C260.594 49.7285 258.493 47.9867 258.347 44.8147C258.2 41.6427 258.152 28.9776 258.299 23.999C258.445 19.0204 260.544 16.2394 264.252 13.7511C267.961 11.2629 283.967 2.28212 285.09 1.79492C283.773 3.60153 283.528 6.67526 284.358 9.16352C285.189 11.6518 286.36 13.0674 288.555 13.9456C285.92 15.2629 276.354 20.6304 273.036 22.1443C269.717 23.6582 268.986 26.5374 269.034 31.4659C269.082 36.3943 268.986 40.9589 268.986 44.179C268.986 47.3991 267.277 49.4504 263.764 49.5967Z" fill="#98C5D3"/>
<path d="M286.713 7.37179C286.065 4.35033 286.42 0.929496 289.105 0.149562C291.79 -0.630372 293.35 1.75961 294.326 4.5427C295.303 7.3237 295.156 10.5459 292.815 11.5705C290.471 12.593 287.591 11.4701 286.713 7.37179Z" fill="#98C5D3"/>
<path d="M63.9611 180.435C63.8858 165.246 88.3942 159.22 110.075 157.973C131.757 156.727 155.544 161.915 157.449 176.501C159.354 191.09 139.853 202.246 110.278 202.492C80.7035 202.739 64.0427 196.916 63.9611 180.435Z" fill="#98C5D3"/>
<path d="M44.0213 321.517C43.3564 317.241 36.2826 315.512 29.9595 316.411C24.18 317.233 23.4482 316.012 20.6128 315.135C18.411 314.454 15.3812 314.182 12.0064 314.213C5.02461 314.276 0 316.382 0 319.236C0 322.429 7.19505 322.661 12.3911 322.749C16.4957 322.82 16.732 324.81 16.9955 325.425C18.3797 328.654 23.0363 329.739 30.3401 329.498C39.0343 329.214 44.6862 325.793 44.0213 321.517Z" fill="#98C5D3"/>
<path d="M19.9398 311.175C20.013 309.321 23.0365 308.716 25.69 308.681C28.3434 308.645 31.2185 309.406 31.3732 311.196C31.528 312.988 29.0878 314.245 25.4767 314.115C21.8656 313.986 19.8603 313.187 19.9398 311.175Z" fill="#98C5D3"/>
<path d="M62.2637 187.255C64.5011 201.448 83.4579 205.95 114.017 205.082C144.577 204.215 156.011 195.851 159.622 183.658C160.615 186.025 161.819 189.059 162.313 190.349C163.477 193.394 161.949 199.472 158.465 202.32C149.892 209.327 137.892 215.498 111.935 215.399C85.9775 215.301 68.5617 211.698 60.4989 202.237C57.4127 198.615 58.0002 194.864 58.8972 192.825C59.7943 190.786 61.0551 188.76 62.2637 187.255Z" fill="#98C5D3"/>
<path d="M65.9023 210.289C73.869 214.847 90.9606 218.781 111.109 218.262C133.662 217.683 149.056 212.648 154.901 208.186C154.127 213.417 151.775 223.59 151.189 227.776C140.452 239.55 126.488 241.48 110.333 241.409C94.1786 241.338 76.5998 238.375 68.4241 229.127C67.2217 222.07 66.2724 214.904 65.9023 210.289Z" fill="#98C5D3"/>
<path d="M166.216 171.363C170.559 172.29 184.322 175.414 191.35 176.877C198.378 178.341 218.043 182.588 220.387 183.221C220.534 188.639 220.778 202.253 220.778 210.013C220.778 217.773 221.656 242.27 221.705 244.418C215.752 243.345 198.133 238.707 189.642 236.512C181.15 234.316 168.364 229.875 166.509 229.338C166.363 219.92 166.363 206.059 166.118 197.275C165.875 188.493 166.315 179.855 166.216 171.363Z" fill="#98C5D3"/>
<path d="M223.172 183.027C226.393 178.44 231.078 171.949 232.542 169.461C234.006 166.973 240.546 156.967 241.326 156.041C241.326 162.239 241.717 171.853 241.717 182.053C241.717 192.253 242.449 206.745 242.497 208.65C242.545 210.553 242.644 215.579 242.596 217.386C239.863 221.095 236.691 225.976 234.299 229.148C231.907 232.32 225.174 241.738 224.343 242.666C224.295 236.859 224.245 229.832 223.904 219.291C223.564 208.746 223.076 191.811 223.172 183.027Z" fill="#98C5D3"/>
<path d="M166.609 168.469C169.928 163.394 175.053 157.197 178.614 153.341C182.177 149.485 187.935 143.043 189.351 141.531C196.77 143.045 237.224 150.803 240.739 151.731C237.958 155.976 233.516 162.761 230.539 166.958C227.561 171.154 222.633 178.669 221.364 180.622C214.19 179.206 198.72 175.936 191.937 174.326C185.154 172.714 171.099 169.64 166.609 168.469ZM207.668 154.617C207.567 151.873 202.654 150.012 197.133 150.361C191.613 150.711 187.948 152.078 187.634 155.857C187.32 159.635 193.698 159.961 197.175 159.88C204.713 159.702 207.77 157.36 207.668 154.617ZM188.153 166.972C190.166 168.572 193.773 169.329 197.98 169.195C202.187 169.059 205.725 168.559 207.726 166.426C207.774 165.4 207.659 160.438 207.668 159.194C205.859 160.885 202.545 161.916 197.706 162.138C193.677 162.322 189.56 161.609 187.72 160.12C187.835 162.054 187.919 164.781 188.153 166.972Z" fill="#98C5D3"/>
<path d="M67.2556 328.554C67.3037 323.82 67.1092 312.205 67.1092 303.226C67.1092 294.248 66.8165 277.215 66.9629 274.043C71.8432 273.457 91.4126 271.456 103.662 270.724C115.911 269.992 127.72 269.407 136.992 268.577C146.263 267.747 154.951 267.015 157.341 266.82C157.243 274.434 156.95 286.097 156.804 295.759C156.657 305.422 156.902 314.743 156.902 317.623C150.949 318.599 129.379 321.625 115.227 323.429C101.075 325.236 77.6498 327.53 67.2556 328.554Z" fill="#98C5D3"/>
<path d="M65.7716 271.809C61.2447 268.237 56.1615 264.162 51.484 261.042C46.8044 257.923 37.9512 252.287 36.4917 250.88C44.1384 249.925 56.1636 249.17 74.0226 247.911C91.8837 246.652 107.528 245.496 115.882 245.094C124.233 244.693 135.504 243.484 138.119 243.484C141.289 247.259 144.61 251.231 147.025 253.849C149.44 256.465 155.426 262.855 156.786 264.515C150.699 265.019 138.272 266.075 128.058 266.78C117.845 267.485 103.505 268.34 92.3877 269.195C81.27 270.05 73.1172 271.154 65.7716 271.809Z" fill="#98C5D3"/>
<path d="M167.031 269.024C164.564 268.417 161.891 266.556 161.958 261.799C162.042 255.723 175.665 246.194 204.125 247.14C234.561 248.149 247.937 254.665 247.655 262.126C247.544 265.051 245.108 267.449 242.877 268.317C241.769 276.261 238.009 313.505 236.953 322.036C231.847 329.169 221.114 334.034 203.247 333.867C185.379 333.7 176.221 327.933 170.19 318.912C168.994 307.951 167.487 276.292 167.031 269.024ZM203.537 268.645C220.974 268.89 238.329 266.64 237.986 260.975C237.643 255.311 223.506 253.785 204.317 253.44C185.128 253.095 170.5 256.38 170.663 261.302C170.891 268.135 186.101 268.398 203.537 268.645Z" fill="#98C5D3"/>
<path d="M250.574 212.821C254.745 209.674 269.556 202.04 271.239 201.016C277.592 209.014 291.494 228.414 293.836 232.219C293.909 241.443 293.617 260.328 293.47 275.335C293.324 290.342 293.617 336.825 293.544 339.679C289.884 337.995 276.341 329.87 270.045 326.062C263.749 322.255 252.696 314.863 250.281 313.326C250.281 301.615 250.647 280.824 250.72 263.475C250.794 246.128 250.647 223.289 250.574 212.821Z" fill="#98C5D3"/>
<path d="M273.769 199.352C273.549 195.473 273.549 192.836 273.696 189.616C273.842 186.396 275.159 184.491 278.528 182.954C281.897 181.418 304.149 174.975 308.833 173.438C313.518 171.902 316.812 173.658 316.665 177.683C316.519 181.708 316.519 183.394 316.519 184.784C319.154 188.516 337.088 213.698 339.944 217.067C340.164 228.339 341.188 257.694 340.969 275.409C340.749 293.124 340.749 308.716 340.822 314.132C335.405 317.498 327.206 323.282 320.912 326.648C314.616 330.015 300.855 337.848 296.901 339.753C296.828 331.627 296.901 311.936 296.901 293.563C296.901 275.189 296.755 254.767 296.755 249.861C296.755 244.956 296.535 235.074 296.609 231.561C290.313 222.045 279.406 206.746 273.769 199.352ZM322.374 203.358C322.689 199.63 318.112 196.512 314.497 196.029C310.882 195.546 306.02 197.207 305.155 200.734C304.289 204.261 309.196 208 313.719 208.312C318.127 208.617 322.058 207.086 322.374 203.358ZM301.464 210.26C303.051 213.106 306.026 215.078 309.236 216.092C312.446 217.108 316.151 217.012 318.361 215.093C318.859 213.861 319.825 211.208 320.659 209.192C318.631 210.472 315.904 210.831 312.63 210.549C309.355 210.267 305.431 208.222 303.555 204.316C303.093 205.863 301.974 208.581 301.464 210.26Z" fill="#98C5D3"/>
<path d="M290.838 17.5957C293.107 20.3412 295.779 25.4285 293.949 28.5754C292.12 31.7223 288.678 30.7709 287.325 28.0987C285.97 25.4264 287.764 20.4499 290.838 17.5957Z" fill="#98C5D3"/>
<path d="M24.723 78.8765C24.4888 66.6861 34.0508 61.1743 42.5297 62.6066C51.0086 64.0369 52.6521 70.8744 52.5999 87.1986C50.8518 87.3053 47.088 86.7741 46.4524 86.6696C46.5047 78.3496 46.559 70.8221 40.3572 69.4985C34.1554 68.1728 31.2134 76.3883 31.3472 79.9931C31.665 88.5786 34.8558 92.562 41.204 96.7397C51.4331 103.471 56.2026 113.064 55.567 125.518C54.9313 137.972 49.7373 146.346 38.8726 143.538C28.0079 140.73 25.781 132.462 25.9943 111.314C28.0623 111.684 29.917 112.056 31.665 112.374C31.5584 127.32 32.9907 135.27 39.6149 136.859C46.2391 138.448 49.0494 132.619 49.1539 123.927C49.2585 115.234 45.7624 108.98 38.1303 103.893C30.4982 98.8035 24.9864 92.7083 24.723 78.8765Z" fill="black"/>
<path d="M74.1208 77.2814C74.0142 75.0023 74.0685 70.7095 74.0685 69.0137C80.0048 66.1512 100.091 56.8777 102.263 55.7109C102.157 58.2557 102.157 63.3493 102.211 64.6206C99.9841 65.5218 95.1623 68.3843 92.672 69.6557C92.7786 81.156 93.362 90.6909 93.4665 103.939C93.5732 117.19 94.1565 137.328 94.2088 139.237C92.7242 139.927 89.1361 142.2 87.8648 142.624C87.8125 136.795 87.2291 116.025 86.9113 103.358C86.5935 90.6909 85.9725 75.1466 86.0247 71.8595C83.8501 72.7608 77.8825 75.7989 74.1208 77.2814Z" fill="black"/>
<path d="M134.363 90.6343C136.182 90.7096 140.009 91.5585 142.056 91.7112C142.131 96.717 143.202 117.194 143.346 124.701C143.467 131.074 147.526 134.131 155.185 134.206C162.844 134.281 166.706 129.388 166.863 123.822C167.058 116.924 167.091 95.0045 167.016 91.8199C168.532 91.4414 172.737 90.6364 174.255 90.2559C174.33 96.5497 174.027 111.793 173.876 123.396C173.724 134.999 166.596 141.292 155.449 141.673C144.302 142.051 136.187 136.97 135.656 123.473C135.198 111.937 134.591 97.6119 134.363 90.6343Z" fill="black"/>
<path d="M221.338 133.565C219.059 132.952 215.65 131.813 214.159 131.286C213.896 122.081 214.335 67.9084 214.335 63.877C220.296 65.28 244.313 72.6423 246.417 73.3449C246.417 75.2728 246.241 79.5028 246.241 80.6403C242.735 79.7642 225.344 74.7166 221.486 73.7526C221.135 78.0475 221.457 92.2682 221.369 94.8109C224.963 95.8626 232.83 98.2401 234.231 98.5892C233.967 101.044 233.967 104.505 233.967 105.732C231.425 105.119 223.088 102.711 221.421 102.271C221.513 107.005 221.25 124.975 221.338 133.565Z" fill="black"/>
<path d="M262.805 72.1531C265.878 70.2503 282.788 62.5639 284.618 61.832C284.691 63.5885 284.471 69.5436 284.471 70.5681C281.764 71.8854 272.344 76.2326 270.295 77.4035C270.295 81.3555 270.587 94.7482 270.514 96.285C273.295 95.2605 276.639 93.548 277.883 93.1089C277.883 94.7921 278.102 99.6724 278.029 101.358C276.126 102.236 271.905 104.095 270.295 104.754C270.441 110.025 270.625 131.278 270.625 134.424C269.234 135.449 264.25 137.927 263.152 138.439C263.081 131.922 262.878 80.4982 262.805 72.1531Z" fill="black"/>
<path d="M79.3208 168.986C81.4766 168.859 86.589 169.051 87.3961 169.064C88.5922 171.667 97.0167 186.065 97.5416 186.935C99.7371 184.332 107.773 174.35 108.542 173.392C109.515 173.246 111.503 173.386 112.528 173.402C113.694 174.552 122.794 185.704 123.43 186.415C125.14 183.857 132.722 170.069 133.605 168.792C135.545 168.717 139.955 169.003 141.086 169.074C139.093 172.434 128.651 192.029 127.382 194.001C125.766 194.082 121.828 194.396 120.59 194.429C118.267 191.537 111.925 184.219 110.451 182.149C109.023 183.849 102.089 192.999 101.159 194.007C99.2185 194.082 94.8003 194.281 93.7234 194.21C90.6748 189.365 83.0281 176.047 79.3208 168.986Z" fill="black"/>
<path d="M174.724 181.219C180.336 182.438 189.901 184.489 196.196 186.001C202.492 187.515 212.008 189.66 213.033 189.905C213.081 191.711 212.985 195.615 213.033 196.443C210.593 195.906 201.041 193.303 195.722 192.228C190.402 191.155 183.655 189.463 182.337 189.171C182.337 191.074 182.289 198.053 182.436 199.174C186.241 200.199 195.563 202.2 196.832 202.492C196.979 204.738 196.88 208.592 196.88 209.47C194.685 209.129 183.655 206.492 182.777 206.25C182.678 209.081 182.678 216.45 182.729 218.012C186.584 219.281 210.595 226.162 211.423 226.601C211.521 228.408 211.325 232.701 211.325 233.775C206.689 232.703 176.529 223.624 174.626 222.99C174.674 215.964 174.82 184.976 174.724 181.219Z" fill="black"/>
<path d="M90.2888 316.458C88.9234 316.751 84.7749 316.995 83.7001 317.092C83.652 313.089 83.1146 287.373 82.9683 282.003C85.3603 281.857 88.3358 282.003 89.6531 282.003C93.1179 285.273 110.684 300.24 113.808 303.021C119.128 296.385 128.418 285.244 133.819 277.756C136.796 277.219 140.357 277.219 141.48 277.219C141.432 280.489 143.042 308.696 143.14 311.038C141.53 311.429 137.576 311.818 136.504 311.868C136.259 308.257 135.234 290.348 135.088 287.565C132.062 291.615 116.982 310.647 114.494 313.577C111.077 310.796 91.9636 294.302 89.9145 292.642C90.0107 296.5 90.2407 310.798 90.2888 316.458Z" fill="black"/>
<path d="M182.789 319.07C186.319 311.507 200.518 280.839 202.198 277.899C204.383 277.646 208.33 277.816 210.432 277.562C212.447 282.687 225.472 317.138 226.06 319.321C224.379 320.329 221.179 320.825 219.415 320.825C218.237 316.791 215.214 310.201 214.375 307.679C209.744 309.517 200.889 309.655 196.395 308.087C194.714 311.783 191.803 319.315 190.879 321.164C188.692 321.672 184.384 320.164 182.789 319.07ZM212.197 301.824C211.693 300.143 207.069 288.377 205.727 284.933C204.719 287.286 199.847 298.236 198.166 302.437C201.106 303.361 210.095 303.001 212.197 301.824Z" fill="black"/>
<path d="M256.832 307.07C257.052 296.969 256.978 278.595 256.978 266.955C256.978 255.314 257.418 230.354 257.564 227.793C259.906 228.891 263.128 230.647 263.933 231.233C263.713 237.455 263.055 267.614 262.982 269.37C268.985 260.732 281.94 239.212 283.258 237.746C285.307 237.966 287.87 239.283 290.066 239.942C286.407 246.164 271.473 271.858 270.083 273.834C272.351 280.569 287.724 321.856 288.383 324.051C285.748 323.246 280.184 320.319 279.306 319.731C276.378 311.752 265.47 283.277 263.494 279.177C263.421 286.643 263.421 308.603 263.421 310.874C260.272 309.268 258.003 307.875 256.832 307.07Z" fill="black"/>
<path d="M303.614 322.885C303.614 314.54 303.614 289.285 303.614 277.501C303.614 265.716 303.761 245.438 303.761 241.486C309.544 238.851 331.504 229.847 333.26 229.408C333.333 232.043 333.333 236.582 333.26 237.9C328.94 239.583 313.057 246.611 310.933 247.343C310.786 253.565 310.713 269.524 310.713 271.06C313.787 270.109 321.986 266.74 323.376 266.155C323.522 269.302 323.522 273.329 323.522 274.427C319.717 276.183 312.177 279.332 310.567 280.357C310.786 287.312 310.494 307.368 310.494 309.564C314.887 307.515 331.428 299.682 333.041 298.95C333.187 301.511 333.114 305.904 332.894 307.734C327.991 310.881 309.981 319.885 303.614 322.885Z" fill="black"/>
<path d="M64.5736 296.54C64.6718 289.659 64.4753 280.874 64.4753 273.945C62.5223 272.189 54.3738 266.284 50.6163 263.599C46.8588 260.914 41.1003 257.157 35.9272 253.301C35.5864 256.278 35.6825 273.748 35.6344 279.605C35.5864 285.462 35.7327 301.517 35.8289 308.105C38.7082 310.79 46.4678 315.913 50.127 318.696C53.7862 321.477 61.5458 326.408 64.8642 328.31C64.9646 326.259 64.4774 303.421 64.5736 296.54ZM45.9074 300.277C43.737 299.582 41.784 295.373 42.0454 290.47C42.3193 285.312 43.1745 281.487 45.7778 281.878C46.7877 282.031 47.6095 282.758 48.2326 283.894C46.3026 284.473 45.0543 287.181 45.1128 290.832C45.1672 294.365 46.3486 297.897 48.2158 298.93C47.5906 300.022 46.8003 300.563 45.9074 300.277ZM54.7167 301.517C52.8139 301.615 49.7381 301.663 48.7135 301.663C49.9325 300.151 51.2519 295.173 51.2519 291.66C51.2519 288.147 50.8128 283.07 48.3727 281.069C50.1793 280.971 52.7156 281.069 54.1793 281.069C56.5212 283.461 57.5458 286.729 57.5458 291.415C57.5458 296.101 56.425 300.005 54.7167 301.517Z" fill="#98C5D3"/>
</svg>