<svg xmlns="http://www.w3.org/2000/svg" width="72" height="45" viewBox="0 0 72 45" fill="none">
<path d="M67.7125 45H4.28751C1.91935 45 0 43.0785 0 40.7087V4.29126C0 1.92103 1.91935 0 4.28751 0H67.7125C70.0802 0 72 1.92103 72 4.29126V40.7087C71.9995 43.0785 70.0802 45 67.7125 45Z" fill="black"/>
<path d="M65.6951 36.0502H6.30399C4.87738 36.0502 3.7207 34.8926 3.7207 33.4647V5.59348C3.7207 4.16563 4.87738 3.00793 6.30399 3.00793H65.6951C67.1217 3.00793 68.2784 4.16563 68.2784 5.59348V33.4647C68.2784 34.8926 67.1217 36.0502 65.6951 36.0502Z" fill="#98C5D3"/>
<path d="M53.2444 27.98H18.597C17.1704 27.98 16.0137 26.8223 16.0137 25.3944V17.6251C16.0137 16.1972 17.1704 15.0396 18.597 15.0396H53.2444C54.671 15.0396 55.8277 16.1972 55.8277 17.6251V25.3944C55.8277 26.8223 54.671 27.98 53.2444 27.98Z" fill="black"/>
<path d="M10.9541 37.9183C10.9541 37.9183 14.1212 34.0958 14.9133 33.1548C16.05 31.8044 16.6709 31.4119 18.6963 31.4119C20.7216 31.4119 51.2763 31.4119 53.3016 31.4119C55.3269 31.4119 55.9478 31.8044 57.0846 33.1548C57.8767 34.0958 61.0437 37.9183 61.0437 37.9183H10.9541Z" fill="black"/>
<path d="M30.0281 16.8514C32.1893 17.2617 32.0775 19.8721 32.0403 21.14C32.0032 22.4078 31.5186 25.5777 30.0281 25.8016C30.0281 23.9368 29.8044 19.126 30.0281 16.8514Z" fill="white"/>
<path d="M37.6295 17.075C39.5669 17.075 41.0574 17.075 41.7652 17.075C41.7652 19.4243 41.6905 25.0555 41.7652 25.8016C40.7761 25.8016 39.008 25.9508 37.9275 25.8016C37.0316 24.8919 36.5117 23.3031 36.5117 21.0657C36.5117 18.8283 36.7354 17.8582 37.6295 17.075Z" fill="white"/>
<path d="M51.6758 23.4371C51.1378 23.1973 51.0472 21.8996 51.9172 22.1117C52.3334 22.2132 52.8841 22.4222 53.3461 22.613C53.443 22.2504 53.501 21.8697 53.501 21.4712C53.501 20.8375 53.3837 20.1979 53.1645 19.5951C52.8515 19.7972 52.4421 20.0479 52.0784 20.2242C51.371 20.5674 50.7936 19.0421 51.3475 18.6613C51.6373 18.4623 52.0155 18.2329 52.3108 18.0598C51.6871 17.2742 50.8434 16.6845 49.8389 16.4633C49.7818 16.9062 49.7003 17.49 49.6297 17.83C49.5051 18.4292 48.2855 18.5167 48.1279 17.7837C48.0319 17.3386 48.002 16.806 47.9929 16.4561C46.6922 16.7017 45.6424 17.4478 44.9979 18.5149C45.4178 18.6749 45.9354 18.8934 46.1972 19.0892C46.68 19.45 46.3856 20.7636 45.5958 20.5025C45.1977 20.3706 44.7434 20.2292 44.3906 20.1209C44.3295 20.4468 44.2969 20.7872 44.2969 21.1403C44.2969 21.968 44.4373 22.6547 44.675 23.2259C44.9513 23.0337 45.3227 22.8043 45.6764 22.6792C46.3589 22.4385 46.9793 23.676 46.5088 24.0495C46.2864 24.2258 45.9766 24.4652 45.7112 24.6691C46.4218 25.2847 47.3086 25.6061 48.1514 25.7557C48.1673 25.2979 48.1972 24.7997 48.2565 24.5572C48.3815 24.045 49.3778 23.9625 49.5155 24.6202C49.6016 25.03 49.6229 25.4447 49.6478 25.8554C50.8371 25.7765 52.0368 25.0336 52.7745 23.899C52.3773 23.7358 51.9312 23.5513 51.6758 23.4371Z" fill="white"/>
<path d="M24.0296 24.6078C23.804 24.0485 24.7374 23.0789 25.2768 23.7126C25.5409 24.0227 25.8443 24.3681 26.0866 24.6405C26.7578 23.9084 27.2351 22.9475 27.3959 21.8686C27.073 21.8845 26.6762 21.8818 26.3379 21.8106C25.6301 21.6615 25.7419 20.2817 26.3379 20.2069C26.621 20.1715 27.0118 20.128 27.3456 20.0918C27.1233 19.1312 26.5811 18.3498 25.8991 17.7732C25.631 18.1879 25.3035 18.6689 25.1083 18.8643C24.7356 19.2373 23.8416 18.7895 24.0649 18.1558C24.2098 17.7451 24.4168 17.3657 24.6161 16.9872C24.0563 16.751 23.4779 16.6268 22.9472 16.6268C22.2357 16.6268 21.5319 16.7723 20.8974 17.067C21.1551 17.416 21.4445 17.8113 21.6057 18.0443C21.9408 18.5293 21.3448 19.6852 20.7112 19.051C20.4037 18.7432 20.0351 18.2686 19.7366 17.8616C19.0768 18.5016 18.6035 19.3946 18.4531 20.5505C18.8064 20.5432 19.2312 20.5455 19.5935 20.5804C20.3761 20.6552 20.0781 22.2585 19.4074 22.2956C19.1229 22.3115 18.7783 22.3138 18.4753 22.3115C18.6356 23.3745 19.0654 24.2071 19.6682 24.8177C19.9286 24.4945 20.2375 24.1201 20.4431 23.8994C20.8607 23.452 21.9481 24.0113 21.7022 24.7198C21.5726 25.0942 21.3661 25.4986 21.1999 25.7977C21.7465 25.999 22.3394 26.0996 22.9472 26.0996C23.5667 26.0996 24.1681 25.9473 24.7198 25.6749C24.4521 25.3277 24.1464 24.8979 24.0296 24.6078Z" fill="white"/>
<path d="M17.8821 42.3258C18.605 42.3258 19.1909 41.7393 19.1909 41.0158C19.1909 40.2923 18.605 39.7058 17.8821 39.7058C17.1592 39.7058 16.5732 40.2923 16.5732 41.0158C16.5732 41.7393 17.1592 42.3258 17.8821 42.3258Z" fill="white"/>
<path d="M23.5862 38.4851H21.4082V40.665H23.5862V38.4851Z" fill="white"/>
<path d="M54.1184 42.3258C54.8413 42.3258 55.4273 41.7393 55.4273 41.0158C55.4273 40.2923 54.8413 39.7058 54.1184 39.7058C53.3956 39.7058 52.8096 40.2923 52.8096 41.0158C52.8096 41.7393 53.3956 42.3258 54.1184 42.3258Z" fill="white"/>
<path d="M48.4148 40.6646L50.5928 40.6646L50.5928 38.4847L48.4148 38.4847L48.4148 40.6646Z" fill="white"/>
<path d="M9.22837 6.9411C9.03046 6.62471 8.71389 6.43523 8.33753 6.40758C7.56853 6.35092 6.91953 6.56125 6.25605 7.77152C5.73704 8.71798 5.80226 10.0792 6.18857 10.7564C6.45849 11.2296 6.8208 11.3103 7.01283 11.3162C7.03095 11.3167 7.04861 11.3171 7.06672 11.3171C8.17902 11.3171 8.84115 10.2415 9.20255 9.33128C9.49648 8.5897 9.61831 7.56392 9.22837 6.9411ZM8.3321 8.98497C8.07893 9.6232 7.65503 10.3784 7.06491 10.3793C6.86247 10.2165 6.61882 9.0584 7.07714 8.22254C7.50331 7.44516 7.79407 7.33365 8.09161 7.33365C8.15004 7.33365 8.20891 7.33818 8.26915 7.34226C8.35112 7.34815 8.39414 7.37354 8.43536 7.43881C8.60746 7.71396 8.56126 8.40748 8.3321 8.98497Z" fill="black"/>
<path d="M12.5 9.03371L12.3437 9.06544L11.6739 6.92774C11.6164 6.74462 11.4538 6.61498 11.2627 6.60047C11.0716 6.58597 10.8909 6.68932 10.8066 6.86157L8.97651 10.6021C8.86283 10.8346 8.95884 11.1152 9.19118 11.229C9.2573 11.2616 9.3275 11.277 9.39679 11.277C9.56979 11.277 9.73646 11.1805 9.81752 11.0146L10.0779 10.482L11.7025 10.152L11.9402 10.9103C12.0177 11.1574 12.2803 11.2947 12.5272 11.2172C12.774 11.1397 12.9112 10.8768 12.8338 10.6297L12.6254 9.96476L12.6861 9.95252C12.9397 9.90085 13.1032 9.65381 13.0521 9.39997C13.0004 9.14613 12.7536 8.98204 12.5 9.03371ZM10.5979 9.41991L11.1314 8.32931L11.4208 9.2531L10.5979 9.41991Z" fill="black"/>
<path d="M15.8698 6.95054C15.8476 6.69262 15.6202 6.50088 15.3634 6.52355C15.2398 6.53397 15.0609 6.54984 14.8512 6.56842C14.1193 6.63324 12.7575 6.75382 12.4907 6.75382C12.2321 6.75382 12.0225 6.96369 12.0225 7.22252C12.0225 7.48134 12.2321 7.69121 12.4907 7.69121C12.6529 7.69121 13.0573 7.6622 13.5831 7.61869C13.5383 8.72561 13.4726 11.1176 13.6053 11.7323C13.6529 11.9521 13.8467 12.1021 14.0627 12.1021C14.0953 12.1021 14.1289 12.0985 14.1619 12.0917C14.4146 12.0373 14.5754 11.788 14.5211 11.5346C14.4169 11.051 14.4744 8.61002 14.5224 7.538C14.6574 7.52622 14.7951 7.51398 14.9341 7.50174C15.1424 7.48316 15.3204 7.46729 15.4431 7.45686C15.7004 7.43511 15.8915 7.20846 15.8698 6.95054Z" fill="black"/>
<path d="M17.7356 9.96782C17.5662 9.98142 17.318 10.0281 17.0305 10.0825C16.8842 10.1102 16.7293 10.1392 16.5771 10.1655C16.6152 9.59431 16.7048 8.68502 16.761 8.12022C16.8226 7.49877 16.8575 7.13977 16.862 6.99381C16.8701 6.73498 16.6677 6.51876 16.4091 6.51015C16.15 6.50154 15.9345 6.70461 15.9259 6.96344C15.9218 7.08583 15.8765 7.54364 15.8285 8.02821C15.6904 9.42524 15.5953 10.4388 15.6319 10.7597C15.6591 10.9981 15.8611 11.1754 16.0966 11.1754C16.1111 11.1754 16.1256 11.1745 16.1405 11.1736C16.468 11.1432 16.8584 11.0693 17.203 11.0045C17.4535 10.9573 17.6899 10.9129 17.8099 10.9029C18.0676 10.8821 18.2601 10.6564 18.2392 10.3984C18.2188 10.1396 17.9929 9.94742 17.7356 9.96782Z" fill="black"/>
<path d="M20.9825 6.1997C20.7384 6.11449 20.4712 6.24367 20.3861 6.48799C20.32 6.67747 20.1288 7.23274 19.8961 7.91177C19.3712 7.67379 18.6017 7.28034 18.407 7.15976C18.1873 7.02332 17.8984 7.09132 17.7625 7.31161C17.6266 7.53191 17.6941 7.82066 17.9142 7.95664C18.152 8.10396 19.0116 8.5441 19.5913 8.80157C19.2149 9.89988 18.8218 11.0494 18.6837 11.4578C18.6008 11.7031 18.7321 11.9691 18.9771 12.0521C19.027 12.0689 19.0777 12.077 19.1275 12.077C19.3227 12.077 19.5048 11.9537 19.5709 11.7588C19.8403 10.9628 21.0795 7.34561 21.2706 6.79713C21.3557 6.55236 21.2271 6.28492 20.9825 6.1997Z" fill="black"/>
<path d="M24.8247 6.40997C24.5828 6.50108 24.4601 6.77124 24.5511 7.01329C24.9442 8.06084 24.9307 8.98781 24.8872 9.44744C24.8256 10.0988 24.653 10.4628 24.553 10.5784C24.3333 10.4746 23.851 9.96283 23.5213 9.41752C23.3872 9.19632 23.0996 9.12515 22.8782 9.25933C22.6572 9.3935 22.5861 9.68134 22.7201 9.90299C22.8786 10.165 23.183 10.5924 23.519 10.9356C23.678 11.0974 24.106 11.5339 24.5865 11.5339C24.6856 11.5339 24.7871 11.5153 24.8885 11.4718C25.8863 11.0466 26.158 8.63062 25.427 6.68375C25.3369 6.4417 25.067 6.31886 24.8247 6.40997Z" fill="black"/>
<path d="M26.9498 6.35869C26.6937 6.32288 26.4567 6.50192 26.4209 6.75803C26.2785 7.78019 26.2332 10.2565 26.2885 11.0597C26.3057 11.3068 26.5115 11.4962 26.7554 11.4962C26.7663 11.4962 26.7771 11.4958 26.788 11.4953C27.0464 11.4776 27.2413 11.2537 27.2232 10.9954C27.1715 10.2456 27.2159 7.84184 27.3487 6.88722C27.385 6.63111 27.2064 6.39449 26.9498 6.35869Z" fill="black"/>
<path d="M31.1416 6.71147C31.1511 6.45264 30.9495 6.23552 30.6914 6.22554C30.4328 6.21602 30.2159 6.41774 30.2059 6.67611C30.1796 7.37598 30.1996 8.24584 30.2593 9.15921C30.1131 8.96339 29.9618 8.75941 29.8123 8.5577C29.4179 8.026 29.0447 7.52375 28.7743 7.17835C28.6597 7.03239 28.4704 6.96757 28.2906 7.01335C28.1108 7.05914 27.9754 7.20645 27.9442 7.38913C27.8083 8.19009 27.8051 10.0463 27.8753 10.7874C27.898 11.0299 28.1022 11.2121 28.3409 11.2121C28.3554 11.2121 28.3703 11.2112 28.3853 11.2099C28.6425 11.1854 28.8318 10.9569 28.8074 10.6995C28.7684 10.2883 28.7553 9.47062 28.7775 8.73539C28.8699 8.85914 28.9645 8.98696 29.0605 9.1166C29.6303 9.88447 30.2195 10.6786 30.5157 11.015C30.6511 11.1686 30.8698 11.2167 31.0569 11.1337C31.2439 11.0508 31.3553 10.8559 31.3322 10.6528C31.1728 9.24443 31.1017 7.7708 31.1416 6.71147Z" fill="black"/>
<path d="M33.7644 8.2092C33.528 8.10313 33.1385 8.05599 32.6268 8.43222C32.4184 8.58543 32.3736 8.8787 32.5267 9.08722C32.6798 9.29573 32.9728 9.3406 33.1811 9.18739C33.2767 9.11713 33.3442 9.08722 33.3804 9.07634C33.4008 9.11215 33.4307 9.18921 33.4429 9.31839C33.4601 9.50016 33.3994 9.68691 33.288 9.79434C33.1816 9.89679 33.0217 9.93396 32.8116 9.90585C32.413 9.85236 32.3274 9.30207 32.3107 9.13481C32.2314 8.34383 32.6467 7.32983 33.5729 7.00845C33.817 6.92368 33.9465 6.65669 33.8618 6.41237C33.7771 6.1676 33.5104 6.03841 33.2658 6.12318C31.8709 6.60729 31.2604 8.05191 31.3786 9.2291C31.4683 10.1234 31.9696 10.739 32.6866 10.8355C32.7771 10.8478 32.8627 10.8532 32.9438 10.8532C33.4288 10.8532 33.7472 10.6533 33.9374 10.4702C34.2563 10.1633 34.4198 9.69961 34.3754 9.23C34.3274 8.72685 34.1104 8.36422 33.7644 8.2092Z" fill="black"/>
<path d="M36.5054 10.1722C36.2849 10.2253 36.0507 10.2647 35.692 10.2806C35.5915 9.50546 35.7156 8.27433 35.7871 7.56675C35.8157 7.283 35.8383 7.05862 35.8451 6.90722C35.856 6.6484 35.6558 6.42991 35.3972 6.41903C35.3904 6.41858 35.3836 6.41858 35.3768 6.41858C35.1273 6.41858 34.9203 6.61531 34.9094 6.86733C34.904 6.99108 34.8818 7.2141 34.8555 7.47247C34.7532 8.48511 34.5983 10.0154 34.8646 10.893C34.9244 11.0906 35.1064 11.2252 35.3125 11.2252C36.033 11.2252 36.4166 11.1572 36.7233 11.0833C36.9746 11.0231 37.1295 10.7701 37.0693 10.5181C37.009 10.2661 36.7568 10.112 36.5054 10.1722Z" fill="black"/>
<path d="M39.901 6.12195C39.5155 6.12195 38.8978 6.19357 37.9572 6.34723C37.7343 6.38349 37.5695 6.57388 37.5645 6.79961C37.5572 7.12688 37.5681 8.00037 37.627 8.92688C37.593 8.93142 37.5613 8.93414 37.5351 8.93414C37.5301 8.93414 37.5251 8.93414 37.5206 8.93368C37.2642 8.92462 37.0455 9.12724 37.0364 9.38606C37.0274 9.64489 37.2298 9.86156 37.4884 9.87063C37.502 9.87108 37.516 9.87153 37.5305 9.87153C37.5849 9.87153 37.6433 9.86745 37.7035 9.86065C37.7552 10.3588 37.824 10.823 37.915 11.172C37.9689 11.3783 38.1551 11.5219 38.3679 11.5219C38.7488 11.5219 39.2502 11.4082 39.8575 11.1833C40.1002 11.0936 40.2239 10.8239 40.1342 10.5814C40.0445 10.3384 39.7751 10.2147 39.5328 10.3044C39.1899 10.4313 38.93 10.5021 38.7379 10.5406C38.6904 10.2645 38.651 9.94043 38.6193 9.59865C38.9109 9.47309 39.1985 9.31172 39.4363 9.13177C39.6424 8.97584 39.6836 8.68166 39.5273 8.47541C39.3715 8.26871 39.0776 8.22837 38.8715 8.3843C38.7701 8.46091 38.6591 8.53071 38.5459 8.59327C38.5174 8.07199 38.5029 7.577 38.4997 7.21074C38.9331 7.14411 39.5468 7.0598 39.9014 7.0598C40.16 7.0598 40.3697 6.84993 40.3697 6.5911C40.3697 6.33227 40.1596 6.12195 39.901 6.12195Z" fill="black"/>
<path d="M43.6267 7.22307C43.9383 7.12425 44.3079 7.24936 44.374 7.32733C44.5311 7.53221 44.8246 7.57165 45.0298 7.41436C45.2354 7.25707 45.2743 6.96288 45.1172 6.75754C44.7925 6.33236 44.0135 6.13518 43.3817 6.31831C42.831 6.47787 42.4864 6.89081 42.4361 7.45198C42.3623 8.27379 43.0602 8.52944 43.4773 8.6822C44.0067 8.87575 44.1774 8.9723 44.1738 9.37301C44.1706 9.70934 44.0946 9.95049 43.975 10.0026C43.8509 10.057 43.5751 9.9863 43.3455 9.77824C43.1539 9.60418 42.8577 9.61869 42.6843 9.81043C42.5104 10.0022 42.5248 10.2986 42.7164 10.4722C43.0149 10.7428 43.4492 10.9568 43.8803 10.9568C44.0398 10.9568 44.1987 10.9273 44.3504 10.8611C44.6924 10.7116 45.1013 10.3331 45.1099 9.38117C45.1199 8.28512 44.2929 7.98278 43.7984 7.80146C43.3586 7.64055 43.3613 7.61199 43.3681 7.53538C43.3804 7.41209 43.4193 7.2888 43.6267 7.22307Z" fill="black"/>
<path d="M47.0669 7.36498C47.3491 7.326 47.6684 7.28203 47.9931 7.21812C48.2467 7.16826 48.412 6.92212 48.3627 6.66828C48.3133 6.41444 48.0669 6.24854 47.8133 6.2984C47.5149 6.35687 47.2092 6.39903 46.9392 6.4362C46.562 6.48833 46.3405 6.52051 46.1883 6.57445C46.0461 6.62477 45.937 6.74036 45.8949 6.88495C45.7173 7.49462 45.6037 8.34635 45.6159 9.18856C45.6091 9.22029 45.6055 9.25292 45.6055 9.28647C45.6055 9.32817 45.6114 9.36851 45.6218 9.40749C45.6435 9.93874 45.7173 10.4578 45.86 10.9006C45.9211 11.091 46.0969 11.2215 46.2966 11.2256C46.3767 11.227 46.4623 11.2283 46.5511 11.2283C46.9759 11.2283 47.4727 11.2061 47.811 11.1218C48.0619 11.0593 48.2146 10.8045 48.1516 10.5534C48.0887 10.3023 47.8341 10.1495 47.5837 10.2125C47.489 10.2361 47.2273 10.2851 46.6661 10.2909C46.6281 10.1119 46.6005 9.91925 46.5824 9.72026C47.1018 9.64592 47.4682 9.46551 47.7422 9.30369C47.965 9.17224 48.0388 8.88485 47.9071 8.66184C47.7753 8.43882 47.4881 8.36493 47.2658 8.49684C47.1299 8.57707 46.9093 8.70671 46.5588 8.77425C46.5765 8.28742 46.6362 7.8092 46.7255 7.41485C46.831 7.39717 46.956 7.37994 47.0669 7.36498Z" fill="black"/>
<path d="M49.9251 7.14325C50.0501 7.09248 50.2177 7.13645 50.3341 7.24932C50.5193 7.42973 50.8159 7.4261 50.9962 7.24071C51.1764 7.05531 51.1728 6.75841 50.9876 6.578C50.6017 6.20178 50.0465 6.08301 49.5737 6.27475C49.0913 6.47057 48.7929 6.95514 48.7752 7.57115C48.7485 8.50538 49.2784 8.89838 49.6289 9.15856C49.9496 9.39654 50.0596 9.49535 50.0388 9.82535C50.0306 9.95363 49.8413 10.1979 49.5515 10.3036C49.4301 10.348 49.2625 10.3774 49.1566 10.2664C48.9781 10.0792 48.6815 10.0724 48.4944 10.2514C48.3074 10.43 48.3006 10.7269 48.4795 10.9141C48.7096 11.1548 49.0171 11.2804 49.3527 11.2804C49.5211 11.2804 49.6964 11.2487 49.8726 11.1848C50.4867 10.9604 50.9391 10.426 50.9735 9.88518C51.0274 9.02983 50.5415 8.66947 50.1864 8.40611C49.8717 8.17266 49.6987 8.04438 49.7113 7.5988C49.715 7.45874 49.748 7.21487 49.9251 7.14325Z" fill="black"/>
<path d="M52.9986 8.66276C52.6576 8.40575 52.4117 8.2199 52.4434 7.51413C52.4502 7.36183 52.471 7.27117 52.4882 7.2204C52.5412 7.24805 52.6155 7.30245 52.6734 7.37814C52.8306 7.58348 53.1245 7.62247 53.3301 7.46472C53.5353 7.30743 53.5742 7.01325 53.4171 6.80746C53.1422 6.44845 52.654 6.15246 52.1839 6.30068C51.6617 6.46477 51.5281 7.02821 51.5081 7.47152C51.4542 8.67046 52.0444 9.11605 52.4352 9.41068C52.7228 9.62735 52.8052 9.70078 52.7966 9.93967C52.7925 10.0584 52.6032 10.2601 52.3283 10.3707C52.0824 10.47 51.9307 10.4351 51.9117 10.417C51.9117 10.417 51.9103 10.4152 51.908 10.4106C51.7962 10.1772 51.5163 10.0793 51.2831 10.1912C51.0498 10.3032 50.952 10.5833 51.0639 10.8168C51.236 11.1753 51.5901 11.3748 52.0258 11.3748C52.1304 11.3748 52.2396 11.3634 52.3523 11.3394C52.6698 11.2728 52.9936 11.1123 53.2404 10.8993C53.5457 10.6355 53.7205 10.3064 53.7323 9.97185C53.7581 9.23571 53.3192 8.90481 52.9986 8.66276Z" fill="black"/>
<path d="M55.3915 7.25897C55.4259 7.00241 55.2459 6.7667 54.9894 6.73225C54.7328 6.6978 54.4971 6.87776 54.4627 7.13432C54.3639 7.86955 54.3258 9.87217 54.5633 10.8073C54.6172 11.0194 54.8081 11.1609 55.017 11.1609C55.0551 11.1609 55.0941 11.1563 55.1326 11.1464C55.3837 11.0829 55.5351 10.8277 55.4717 10.577C55.2763 9.80689 55.3035 7.91306 55.3915 7.25897Z" fill="black"/>
<path d="M57.4827 7.02607C56.5144 7.04465 55.9655 8.08585 55.9411 9.05634C55.9266 9.63518 55.9624 10.2217 56.322 10.5912C56.5439 10.8192 56.8509 10.9302 57.2594 10.9302C58.3758 10.9302 58.9252 10.34 58.9388 9.12569C58.9483 8.29799 58.7843 7.72821 58.4379 7.38416C58.1924 7.13893 57.8708 7.01881 57.4827 7.02607ZM58.0031 9.11436C57.9936 9.95022 57.7146 9.99237 57.2599 9.99237C57.1249 9.99237 57.0276 9.97197 56.9927 9.93662C56.9429 9.8854 56.8613 9.7059 56.8772 9.07991C56.8903 8.55727 57.1498 7.96981 57.5008 7.96301C57.6675 7.95938 57.7372 8.00698 57.7789 8.04868C57.8663 8.13571 58.0112 8.3891 58.0031 9.11436Z" fill="black"/>
<path d="M62.7272 6.75079C62.7439 6.49241 62.5483 6.2694 62.2901 6.25308C62.0315 6.23631 61.8092 6.43212 61.7929 6.6905C61.7535 7.30017 61.8323 8.55622 61.9532 9.5326C61.3893 9.10878 60.9143 8.3731 60.5347 7.33371C60.4591 7.12656 60.2494 7.00009 60.0311 7.03046C59.8128 7.06038 59.6448 7.23897 59.6281 7.45882C59.6176 7.59526 59.5841 7.86224 59.5456 8.17138C59.412 9.24205 59.3147 10.092 59.3744 10.4813C59.4102 10.713 59.6095 10.8789 59.8368 10.8789C59.8604 10.8789 59.8844 10.8771 59.9084 10.8734C60.1638 10.834 60.3391 10.5947 60.3001 10.339C60.2725 10.159 60.3164 9.65272 60.3726 9.14686C60.9333 10.0262 61.6235 10.5797 62.4351 10.7982C62.5931 10.8408 62.7616 10.7977 62.8798 10.6849C62.998 10.572 63.0492 10.4056 63.0139 10.2456C62.84 9.45056 62.6796 7.491 62.7272 6.75079Z" fill="black"/>
<path d="M66.4377 10.428C66.4055 9.64386 65.8122 9.27397 65.3358 8.97707C64.7729 8.62623 64.4554 8.39823 64.4789 7.79581C64.4921 7.46446 64.6805 7.14217 64.9373 7.01208C65.1171 6.92097 65.2973 6.93955 65.4884 7.06919C65.7026 7.21424 65.9938 7.15803 66.1388 6.94363C66.2837 6.72923 66.2275 6.43776 66.0133 6.29271C65.5432 5.97405 64.997 5.93144 64.5147 6.17531C63.9509 6.46088 63.5695 7.08234 63.5433 7.75864C63.4975 8.93446 64.2738 9.41857 64.8408 9.77214C65.3023 10.06 65.4916 10.2032 65.5025 10.4661C65.5047 10.526 65.3806 10.7753 64.9585 11.0486C64.5287 11.3269 64.1338 11.4012 64.0093 11.3691C64.0052 11.3428 64.0025 11.2879 64.0206 11.1914C64.0686 10.9371 63.9015 10.6919 63.647 10.6438C63.3934 10.5958 63.1479 10.763 63.1003 11.0173C62.9776 11.6691 63.2593 11.9878 63.4386 12.1193C63.6112 12.2462 63.8327 12.3092 64.0858 12.3092C64.4196 12.3092 64.8086 12.1999 65.2135 11.9846C65.8227 11.661 66.4649 11.0812 66.4377 10.428Z" fill="black"/>
</svg>
