<svg xmlns="http://www.w3.org/2000/svg" id="a" viewBox="0 0 540 334"><defs><style>.b{fill:#010101;}.c{fill:#fdcf86;}.d{fill:#fff;}.e{fill:#99c5d2;}</style></defs><path class="b" d="M199.76,227.91c-23.21,1.13-43.08,7.33-47.46,20.01-4.12,11.92,7.32,17.64,21.92,22.63,20.61,7.05,40.01,6.84,42.72,15.12,3.23,9.86-22.57,7.8-20.94,19.5,2.68,19.28,66.14,22.34,94.94,22.46,31.71,.13,69.85-9.4,73.58-19.97,3.59-10.16-15.59-8.05-13.34-16.86,2.25-8.81,30.87-5.38,57.91-17.3,17.21-7.59,25.5-23.88,4.77-36.32-18.89-11.33-58.15-13.01-70.28-12.96-12.13,.05-143.83,3.69-143.83,3.69"/><path class="b" d="M199.76,227.91c-23.21,1.13-43.08,7.33-47.46,20.01-4.12,11.92,7.32,17.64,21.92,22.63,20.61,7.05,40.01,6.84,42.72,15.12,3.23,9.86-22.57,7.8-20.94,19.5,2.68,19.28,66.14,22.34,94.94,22.46,31.71,.13,69.85-9.4,73.58-19.97,3.59-10.16-15.59-8.05-13.34-16.86,2.25-8.81,30.87-5.38,57.91-17.3,17.21-7.59,25.5-23.88,4.77-36.32-18.89-11.33-58.15-13.01-70.28-12.96-12.13,.05-143.83,3.69-143.83,3.69"/><path class="b" d="M372.59,90.07c-5.03-13.12-17.21-24.31-25.55-30.48-3.5-2.59-7.56-5.48-10.44-8.01-6.78-5.96-9.03-9.88-21.32-9.78-3.15,.02-6.2-.09-9.15-.09-13.36,0-22.81,.64-30.63,1.24-4.61,.35-9.46,.85-14.6,1.36-6.66,.67-13.55,1.41-19.79,1.74-8.47,.44-9.4,.38-13.51,8.54-3.8,7.56-8.57,14.06-13.67,18.88-8.86,8.37-15.22,15.24-19.2,21.17-2.67,3.98-3.96,5.68-2.98,13.57,2.74,22.01,5.42,74.49,3.6,87.63l-.14,1.03c-1.55,11.18-3.3,23.84-6.73,30.49-3.78,7.32-2.29,12.77-.39,16.05,2.13,3.66,5.38,5.76,7.75,7.29l.27,.18c5.8,3.75,10.77,6.35,24.93,11.85,11.75,4.57,24.84,6.79,40.04,6.79,18.9,0,36.74-3.45,51.07-6.23l.93-.18c21.18-4.1,45.01-6.01,54.44-6.01,.27,0,.53,0,.77,0,.14,0,.28,0,.42,0,6.59,0,15.28-2.39,19.91-9.11,3.11-4.51,3.65-10.05,1.53-15.6-.71-1.87-1.56-3.83-2.45-5.92-3.98-9.28-9.44-22-12.65-46.55-2.36-18.01-1.79-32.41-1.14-49.08,.35-8.88,.83-18.06,.65-28.51-.1-5.41,.03-7.02-1.98-12.27"/><path class="d" d="M242.33,54.85c5.76,9.31,12.39,22.42,17.32,30.32,.96,1.54,2.6,2.53,4.42,2.65,9.4,.57,24.73-1.62,34.06-2.78,1.53-.19,2.93-.99,3.84-2.23,3.94-5.38,8.38-14.99,9.96-18.87,1.56-3.82,4.95-9.23,7.64-12.85,.49-.66,.03-1.59-.79-1.61-19.94-.54-32.39,.25-42.69,1.04-10.18,.78-22.3,2.31-33.08,3.02-.65,.04-1.03,.76-.68,1.32"/><path class="d" d="M244.76,74.39c-2.44-4.32-4.6-8.23-7.26-12.1-1.36-1.99-4.36-1.89-5.57,.19-3.66,6.28-8.01,11.99-12.8,16.51-5.44,5.13-12.26,11.94-17.01,18.36-.45,.61,.08,1.46,.83,1.33,9.94-1.64,22.67-7.17,26.66-8.4,3.93-1.21,12.06-3.54,19.48-5.18,.74-.16,1.1-.99,.73-1.65-1.58-2.77-3.25-5.79-4.97-8.91l-.08-.15"/><path class="d" d="M341.71,88.97c7.92,2.28,14.57,3.58,22.31,4.27,.77,.07,1.31-.74,.95-1.43-5.86-11.16-15.72-21.16-22.44-26.12-3.76-2.78-7.96-6.05-11.05-8.49-2.69-2.12-6.64-1.37-8.35,1.59-1.34,2.33-2.68,5.07-4.26,8.2-1.02,2.47-3.6,8.25-6.61,13.65-.41,.73,.06,1.65,.89,1.75,11.55,1.34,20.69,4.3,28.56,6.57"/><path class="d" d="M383.08,235.11c-3.63-9.52-11.45-22.94-15.54-54.19-3.64-27.84-.53-47.81-.55-76.58,0-1.11-.83-2.05-1.93-2.21-15.04-2.09-18.78-4.05-30.42-7.03-10.65-2.72-15.84-4.86-26.43-5.6-1.37-.1-2.74,.25-3.91,.98-1.9,1.18-4.05,1.95-6.33,2.24-.74,.09-1.52,.19-2.32,.3-8.25,1.05-19.55,2.5-28.21,2.5-.97,0-1.89-.02-2.76-.05-2.76-.11-5.37-1-7.6-2.5-1.38-.93-3.11-1.24-4.74-.88-1.65,.37-3.28,.79-4.9,1.28-16.27,4.87-27.13,10.4-46.56,13.6-.89,.15-1.51,.96-1.4,1.86,3.29,26.1,5.11,75.68,3.39,88.07-1.75,12.66-3.51,25.94-7.64,33.96-4.14,8.02,1.18,11.18,5.01,13.66,5.33,3.45,10.03,5.89,23.56,11.15,29.6,11.51,64.54,4.51,87.85,0,23.31-4.51,48.37-6.27,56.77-6.14,8.4,.13,18.3-4.89,14.66-14.41"/><path class="b" d="M213.48,181.36c-2.73,2.12-5.05,4.78-5.14,11.02-.12,8.14-.33,14.35-1.43,22.42-.89,6.52-3.62,13.62-4.71,16.35-.78,1.95-1.37,5.1,3.43,7.82,4.79,2.71,12.09,5.98,17.24,7.79,5.16,1.81,14.05,3.87,21.83,5.23,7.78,1.36,17.61,1.05,29.23-.08,27.82-2.69,46.56-8.33,56.06-9.24,9.5-.9,20.38-2.43,29.7-1.89,9.32,.54,12.23-1.81,13.32-5.19,1.01-3.14-2.54-6.21-4.26-12.45-1.72-6.24-6.94-21.73-7.51-27.23-.52-5.04-2.15-7.36-4.95-7.4-3.27-.05-4.49,.43-4.55,3.06-.09,4.34,4.25,20.36,7.24,26.15,2.99,5.79,2.44,10.59-1.18,12.39-3.62,1.81-9.32,.54-11.49-6.15-2.17-6.7-4.89-30.58-5.25-32.21-.36-1.63-2.17-1.99-4.52-1.63-2.35,.36-7.51,1-8.96-4.43-1.45-5.43,1.54-8.78,5.43-9.95,3.89-1.18,8.78-2.17,15.83-1.27,7.06,.9,7.78,.36,8.14-2.17,.36-2.53,.2-4.52-3.47-7.51-3.67-2.99-5.48-3.26-6.93-7.69-1.45-4.43-3.44-6.88-6.97-7.42-3.53-.54-5.79,.27-8.87-4.89-3.08-5.16-6.79-8.32-13.93-8.05-7.15,.27-10.95,2.53-14.39,5.43-3.44,2.9-5.97,2.35-8.14,1-2.17-1.36-6.6-2.44-11.22,1.45-4.61,3.89-5.25,6.42-8.32,5.79-3.08-.63-2.89-5.47-8.23-6.79-6.6-1.63-13.57,.27-15.65,8.05-1.54,5.77-3.38,7.65-5.34,8.69-3.44,1.81-6.54,5.41-6.42,12.3,.09,5.34-1.8,7.45-7.62,6.03-5.02-1.23-13.83-.57-18,2.67"/><path class="d" d="M220.08,186.39c-4.33,1.66-7.1,3.76-6.91,14.58,.19,11.16-1.98,18.22-2.89,23.9-.92,5.73-.07,10.06,2.84,12.15,2.9,2.09,8.55-.24,8.94-5.57,.27-3.61,.11-6.6,2.6-5.48,4.86,2.18,1.25,18.48,9.94,18.49,6.57,0,7.9-6.5,3.6-14.63-4.3-8.13-4.66-12.19-1.87-14.4,2.79-2.21,9.51-6.76,8.11-17.79-1.39-11.03-15.59-14.59-24.35-11.24"/><path class="d" d="M304.6,240.55c7.63-1.91,10.02-6.99,7.55-14.98-2.47-8-8.58-9.88-13.67-8.38-5.92,1.75-7.49,6.15-5.97,13.95,1.8,9.26,8.72,10.25,12.09,9.41"/><path class="d" d="M242.84,219.26c-1.16,7.96,1.58,18.81,8.21,23.61,3.28,2.38,7.33,2.34,10.56,1.79,9.83-1.66,8.53-12.96,7.71-15.73-.98-3.27-1.9-4.31-5.51-3.62-2.08,.4-3.76,1.44-3.37,3.69,.44,2.57,.15,4.47-1.8,4.35-1.82-.11-3.23-4.1-2.76-6.6,.47-2.5,2.49-2.96,6.95-3.5,4.46-.55,6.44-2.5,6.59-8.37,.16-5.86-1.66-14.62-9.22-14.7-8.44-.08-15.44,5.94-17.35,19.07"/><path class="d" d="M271.7,210.85c.94,8.59,1.57,18.62,3.52,26.38,1.86,7.37,5.11,8.63,9.81,7.71,4.01-.79,5.56-4.11,3.79-11.5-1.43-5.96-1.31-8.99-1.46-10.86-.22-2.92,1.04-4.92,3.23-5.61,5.62-1.76,11.93-3.88,12.46-9.66,.6-6.58-.5-14.03-7.48-16.04-7.36-2.12-18.99,.01-22.34,6.51-1.58,3.06-1.98,9.02-1.54,13.06"/><path class="d" d="M313.02,200.72c-2.05,4.89-1.56,12.02,.92,20.86,2.56,9.11,4.72,18.12,11.41,15.71,6.86-2.47-.45-10.77,2.98-11.93,1.79-.6,3.53,1.86,6.23,5.41,2.71,3.55,6.05,5.41,9.33,1.86,2.98-3.22-1.21-9.08-4.21-11.84-3-2.77-4.2-5.05-2.71-8.9,1.5-3.85,4.2-9.49-.75-14.73-3.86-4.09-8.47-5.11-14-3.73-4.14,1.03-7.43,3.01-9.22,7.27"/><path class="d" d="M260.61,150.21c-4.71,.38-6.61,4.13-6.33,8.61,.28,4.48,.23,5.48-1.24,5.76-1.46,.28-5.8,.36-5.26,6.8,.55,6.53,4.22,5.72,6.29,5.43,2.06-.28,2.51,1.51,2.98,4.27,.79,4.62,2.57,12.61,12.59,11.36,10.03-1.26,10.76-9.81,10.38-13.13-.43-3.77-3.02-6.05-6.62-5.47-5.61,.91-1.5,5.74-5.61,5.94-1.39,.07-2.37-1.48-2.14-6.44,.18-3.74,8.43-.03,8.46-6.2,.02-4.34-1.78-5.76-5.26-5.62-3.48,.14-2.77-1.14-3.06-3.48-.28-2.35,.14-8.25-5.19-7.82"/><path class="d" d="M285.97,150.03c-7.99,3.75-7.84,13.23-6.23,19.96,1.61,6.73,8.25,15.4,15.79,14.96,7.56-.44,11.73-6.78,10.51-11.62-1.22-4.84-3.61-6.39-6.01-6.01-2.39,.39-3.45,2.06-3,4.23,.44,2.17-1.56,3.84-2.89,2.06-1.33-1.78-1.96-4.02-.82-5.11,.94-.9,4.31-2.09,6.88-4.68,2.61-2.62,1.56-6.9-1.78-11.07-3.34-4.17-8.79-4.45-12.46-2.72"/><path class="d" d="M314.26,142.02c-6.69,1.13-12.12,5.23-10.82,10.3,1.29,5.07,5.32,4.26,8.58,2.32,4.41-2.63,6.23-2.64,7.1-.65,.86,2-.41,3.15-2.7,3.51-1.94,.3-5.72,.7-7.77,3.83-1.39,2.11-2.37,5.97,.61,13.23,2.75,6.69,7.8,7.59,11.31,6.3,3.51-1.29,5.01-7.55,9.54-8.52,4.53-.97,8.05-1.73,8.05-4.97s-2.05-4.5-6.31-4.21c-2.32,.16-3.18-2.05-3.24-3.24-.11-2.1,.7-8.74-3.02-14.24-2.76-4.08-7.82-4.26-11.33-3.67"/><path class="b" d="M223.38,211.82c0,1.74,1.17,2.58,3.44,2.58s3.1-1.17,3.1-2.35c0-1.34-1.12-1.99-3.27-2.18-2.55-.22-3.27,1.18-3.27,1.95"/><path class="b" d="M254.04,218.4c.47,1.68,1.83,2.17,4.01,1.55,2.18-.61,2.67-1.97,2.35-3.1-.36-1.29-1.62-1.61-3.74-1.21-2.52,.48-2.83,2.02-2.62,2.76"/><path class="b" d="M284,210.03c.53,1.87,2.18,2.38,4.89,1.62,2.7-.76,3.35-2.31,3-3.57-.41-1.44-1.94-1.76-4.57-1.24-3.12,.62-3.55,2.37-3.32,3.19"/><path class="b" d="M288.8,163.91c.86,1.42,2.11,1.59,3.74,.6,1.62-.98,1.65-2.3,1.07-3.25-.66-1.09-1.78-1.13-3.42-.35-1.94,.93-1.77,2.37-1.39,3"/><path class="b" d="M317.15,163.91c.86,1.42,2.11,1.59,3.74,.6,1.62-.98,1.65-2.3,1.07-3.25-.66-1.09-1.78-1.13-3.42-.35-1.94,.93-1.77,2.37-1.39,3"/><path class="b" d="M301.13,230.68c.41,1.32,1.55,1.72,3.35,1.26,1.8-.46,2.19-1.52,1.91-2.41-.32-1.02-1.36-1.28-3.12-.99-2.08,.35-2.32,1.55-2.14,2.14"/><path class="b" d="M323.61,215.7c.53,1.87,1.78,2.49,3.72,1.95,1.93-.54,2.29-2.01,1.94-3.27-.41-1.44-1.56-1.87-3.45-1.56-2.24,.37-2.43,2.05-2.2,2.88"/><path class="e" d="M162.48,251.28c3.38,2.53,8.01,4.53,12.06,6.2,9.11,3.65,18.53,5.79,28.12,8.05,4.94,1.21,9.89,2.45,14.56,4.68,1.08,.53,1.54,1.83,1.01,2.92-.51,1.05-1.74,1.5-2.8,1.06-4.29-1.73-9.07-2.7-13.88-3.69-12.26-2.42-24.91-5.04-36.18-10.76-2.44-1.37-4.71-2.9-6.47-5.24-1.68-2.37,1.41-5.12,3.58-3.22"/><path class="e" d="M209.83,309.52c-.96-.39-2.18-1-3.06-1.51-1.22-.68-1.66-2.22-.99-3.44,.66-1.19,2.15-1.64,3.35-1.03,.96,.5,1.63,.8,2.62,1.16,3.24,1.34,1.34,6.09-1.93,4.82"/><path class="e" d="M291.58,320.06c-11.97,.52-23.92,.24-35.86-.69-12.02-.95-23.99-2.37-35.69-5.61-1.55-.44-2.46-2.05-2.02-3.6,.43-1.52,1.99-2.42,3.51-2.04,17.09,4.04,34.82,5.33,52.35,6.44,5.9,.38,11.82,.67,17.72,.98,2.83,.22,2.84,4.31-.02,4.52"/><path class="e" d="M406.59,267.94c-8.96,3.75-18.44,5.99-27.95,7.55-4.71,.79-9.42,1.44-14.03,2.19-4.42,.76-9.03,1.58-13.02,3.48-1.14,.57-2.53,.09-3.08-1.06-.54-1.13-.07-2.49,1.05-3.04,2.34-1.15,4.75-1.92,7.12-2.54,6.96-1.78,14.11-2.62,21.06-3.99,9.11-1.76,18.07-4.06,26.49-7.94,3.61-1.53,5.95,3.68,2.35,5.34"/><path class="b" d="M372.59,90.07c-5.03-13.12-17.21-24.31-25.55-30.48-3.5-2.59-7.56-5.48-10.44-8.01-6.78-5.96-9.03-9.88-21.32-9.78-3.15,.02-6.2-.09-9.15-.09-13.36,0-22.81,.64-30.63,1.24-4.61,.35-9.46,.85-14.6,1.36-6.66,.67-13.55,1.41-19.79,1.74-8.47,.44-9.4,.38-13.51,8.54-3.8,7.56-8.57,14.06-13.67,18.88-8.86,8.37-15.22,15.24-19.2,21.17-2.67,3.98-3.96,5.68-2.98,13.57,2.74,22.01,5.42,74.49,3.6,87.63l-.14,1.03c-1.55,11.18-3.3,23.84-6.73,30.49-3.78,7.32-2.29,12.77-.39,16.05,2.13,3.66,5.38,5.76,7.75,7.29l.27,.18c5.8,3.75,10.77,6.35,24.93,11.85,11.75,4.57,24.84,6.79,40.04,6.79,18.9,0,36.74-3.45,51.07-6.23l.93-.18c21.18-4.1,45.01-6.01,54.44-6.01,.27,0,.53,0,.77,0,.14,0,.28,0,.42,0,6.59,0,15.28-2.39,19.91-9.11,3.11-4.51,3.65-10.05,1.53-15.6-.71-1.87-1.56-3.83-2.45-5.92-3.98-9.28-9.44-22-12.65-46.55-2.36-18.01-1.79-32.41-1.14-49.08,.35-8.88,.83-18.06,.65-28.51-.1-5.41,.03-7.02-1.98-12.27"/><path class="d" d="M242.33,54.85c5.76,9.31,12.39,22.42,17.32,30.32,.96,1.54,2.6,2.53,4.42,2.65,9.4,.57,24.73-1.62,34.06-2.78,1.53-.19,2.93-.99,3.84-2.23,3.94-5.38,8.38-14.99,9.96-18.87,1.56-3.82,4.95-9.23,7.64-12.85,.49-.66,.03-1.59-.79-1.61-19.94-.54-32.39,.25-42.69,1.04-10.18,.78-22.3,2.31-33.08,3.02-.65,.04-1.03,.76-.68,1.32"/><path class="d" d="M244.76,74.39c-2.44-4.32-4.6-8.23-7.26-12.1-1.36-1.99-4.36-1.89-5.57,.19-3.66,6.28-8.01,11.99-12.8,16.51-5.44,5.13-12.26,11.94-17.01,18.36-.45,.61,.08,1.46,.83,1.33,9.94-1.64,22.67-7.17,26.66-8.4,3.93-1.21,12.06-3.54,19.48-5.18,.74-.16,1.1-.99,.73-1.65-1.58-2.77-3.25-5.79-4.97-8.91l-.08-.15"/><path class="d" d="M341.71,88.97c7.92,2.28,14.57,3.58,22.31,4.27,.77,.07,1.31-.74,.95-1.43-5.86-11.16-15.72-21.16-22.44-26.12-3.76-2.78-7.96-6.05-11.05-8.49-2.69-2.12-6.64-1.37-8.35,1.59-1.34,2.33-2.68,5.07-4.26,8.2-1.02,2.47-3.6,8.25-6.61,13.65-.41,.73,.06,1.65,.89,1.75,11.55,1.34,20.69,4.3,28.56,6.57"/><path class="d" d="M383.08,235.11c-3.63-9.52-11.45-22.94-15.54-54.19-3.64-27.84-.53-47.81-.55-76.58,0-1.11-.83-2.05-1.93-2.21-15.04-2.09-18.78-4.05-30.42-7.03-10.65-2.72-15.84-4.86-26.43-5.6-1.37-.1-2.74,.25-3.91,.98-1.9,1.18-4.05,1.95-6.33,2.24-.74,.09-1.52,.19-2.32,.3-8.25,1.05-19.55,2.5-28.21,2.5-.97,0-1.89-.02-2.76-.05-2.76-.11-5.37-1-7.6-2.5-1.38-.93-3.11-1.24-4.74-.88-1.65,.37-3.28,.79-4.9,1.28-16.27,4.87-27.13,10.4-46.56,13.6-.89,.15-1.51,.96-1.4,1.86,3.29,26.1,5.11,75.68,3.39,88.07-1.75,12.66-3.51,25.94-7.64,33.96-4.14,8.02,1.18,11.18,5.01,13.66,5.33,3.45,10.03,5.89,23.56,11.15,29.6,11.51,64.54,4.51,87.85,0,23.31-4.51,48.37-6.27,56.77-6.14,8.4,.13,18.3-4.89,14.66-14.41"/><path class="b" d="M213.48,181.36c-2.73,2.12-5.05,4.78-5.14,11.02-.12,8.14-.33,14.35-1.43,22.42-.89,6.52-3.62,13.62-4.71,16.35-.78,1.95-1.37,5.1,3.43,7.82,4.79,2.71,12.09,5.98,17.24,7.79,5.16,1.81,14.05,3.87,21.83,5.23,7.78,1.36,17.74,2.01,29.23-.08,11.49-2.08,18.73-3.26,29.31-6.33,10.59-3.08,18.82-3.8,28.32-4.7,9.5-.9,19.09-1.99,28.41-1.45,9.32,.54,11.95-.45,13.04-3.83,1.01-3.14-2.54-6.21-4.26-12.45-1.72-6.24-6.94-21.73-7.51-27.23-.52-5.04-2.15-7.36-4.95-7.4-3.27-.05-4.49,.43-4.55,3.06-.09,4.34,4.25,20.36,7.24,26.15,2.99,5.79,2.44,10.59-1.18,12.39-3.62,1.81-9.32,.54-11.49-6.15-2.17-6.7-4.89-30.58-5.25-32.21-.36-1.63-2.17-1.99-4.52-1.63-2.35,.36-7.51,1-8.96-4.43-1.45-5.43,1.54-8.78,5.43-9.95,3.89-1.18,8.78-2.17,15.83-1.27,7.06,.9,7.78,.36,8.14-2.17,.36-2.53,.2-4.52-3.47-7.51-3.67-2.99-5.48-3.26-6.93-7.69-1.45-4.43-3.44-6.88-6.97-7.42-3.53-.54-5.79,.27-8.87-4.89-3.08-5.16-6.79-8.32-13.93-8.05-7.15,.27-10.95,2.53-14.39,5.43-3.44,2.9-5.97,2.35-8.14,1-2.17-1.36-6.6-2.44-11.22,1.45-4.61,3.89-5.25,6.42-8.32,5.79-3.08-.63-2.89-5.47-8.23-6.79-6.6-1.63-13.57,.27-15.65,8.05-1.54,5.77-3.38,7.65-5.34,8.69-3.44,1.81-6.54,5.41-6.42,12.3,.09,5.34-1.8,7.45-7.62,6.03-5.02-1.23-13.83-.57-18,2.67"/><path class="d" d="M220.08,186.39c-4.33,1.66-7.1,3.76-6.91,14.58,.19,11.16-1.98,18.22-2.89,23.9-.92,5.73-.07,10.06,2.84,12.15,2.9,2.09,8.55-.24,8.94-5.57,.27-3.61,.11-6.6,2.6-5.48,4.86,2.18,1.25,18.48,9.94,18.49,6.57,0,7.9-6.5,3.6-14.63-4.3-8.13-4.66-12.19-1.87-14.4,2.79-2.21,9.51-6.76,8.11-17.79-1.39-11.03-15.59-14.59-24.35-11.24"/><path class="d" d="M304.6,240.55c7.63-1.91,10.02-6.99,7.55-14.98-2.47-8-8.58-9.88-13.67-8.38-5.92,1.75-7.49,6.15-5.97,13.95,1.8,9.26,8.72,10.25,12.09,9.41"/><path class="d" d="M242.84,219.26c-1.16,7.96,1.58,18.81,8.21,23.61,3.28,2.38,7.33,2.34,10.56,1.79,9.83-1.66,8.53-12.96,7.71-15.73-.98-3.27-1.9-4.31-5.51-3.62-2.08,.4-3.76,1.44-3.37,3.69,.44,2.57,.15,4.47-1.8,4.35-1.82-.11-3.23-4.1-2.76-6.6,.47-2.5,2.49-2.96,6.95-3.5,4.46-.55,6.44-2.5,6.59-8.37,.16-5.86-1.66-14.62-9.22-14.7-8.44-.08-15.44,5.94-17.35,19.07"/><path class="d" d="M271.7,210.85c.94,8.59,1.57,18.62,3.52,26.38,1.86,7.37,5.11,8.63,9.81,7.71,4.01-.79,5.56-4.11,3.79-11.5-1.43-5.96-1.31-8.99-1.46-10.86-.22-2.92,1.04-4.92,3.23-5.61,5.62-1.76,11.93-3.88,12.46-9.66,.6-6.58-.5-14.03-7.48-16.04-7.36-2.12-18.99,.01-22.34,6.51-1.58,3.06-1.98,9.02-1.54,13.06"/><path class="d" d="M313.02,200.72c-2.05,4.89-1.56,12.02,.92,20.86,2.56,9.11,4.72,18.12,11.41,15.71,6.86-2.47-.45-10.77,2.98-11.93,1.79-.6,3.53,1.86,6.23,5.41,2.71,3.55,6.05,5.41,9.33,1.86,2.98-3.22-1.21-9.08-4.21-11.84-3-2.77-4.2-5.05-2.71-8.9,1.5-3.85,4.2-9.49-.75-14.73-3.86-4.09-8.47-5.11-14-3.73-4.14,1.03-7.43,3.01-9.22,7.27"/><path class="d" d="M260.61,150.21c-4.71,.38-6.61,4.13-6.33,8.61,.28,4.48,.23,5.48-1.24,5.76-1.46,.28-5.8,.36-5.26,6.8,.55,6.53,4.22,5.72,6.29,5.43,2.06-.28,2.51,1.51,2.98,4.27,.79,4.62,2.57,12.61,12.59,11.36,10.03-1.26,10.76-9.81,10.38-13.13-.43-3.77-3.02-6.05-6.62-5.47-5.61,.91-1.5,5.74-5.61,5.94-1.39,.07-2.37-1.48-2.14-6.44,.18-3.74,8.43-.03,8.46-6.2,.02-4.34-1.78-5.76-5.26-5.62-3.48,.14-2.77-1.14-3.06-3.48-.28-2.35,.14-8.25-5.19-7.82"/><path class="d" d="M285.97,150.03c-7.99,3.75-7.84,13.23-6.23,19.96,1.61,6.73,8.25,15.4,15.79,14.96,7.56-.44,11.73-6.78,10.51-11.62-1.22-4.84-3.61-6.39-6.01-6.01-2.39,.39-3.45,2.06-3,4.23,.44,2.17-1.56,3.84-2.89,2.06-1.33-1.78-1.96-4.02-.82-5.11,.94-.9,4.31-2.09,6.88-4.68,2.61-2.62,1.56-6.9-1.78-11.07-3.34-4.17-8.79-4.45-12.46-2.72"/><path class="d" d="M314.26,142.02c-6.69,1.13-12.12,5.23-10.82,10.3,1.29,5.07,5.32,4.26,8.58,2.32,4.41-2.63,6.23-2.64,7.1-.65,.86,2-.41,3.15-2.7,3.51-1.94,.3-5.72,.7-7.77,3.83-1.39,2.11-2.37,5.97,.61,13.23,2.75,6.69,7.8,7.59,11.31,6.3,3.51-1.29,5.01-7.55,9.54-8.52,4.53-.97,8.05-1.73,8.05-4.97s-2.05-4.5-6.31-4.21c-2.32,.16-3.18-2.05-3.24-3.24-.11-2.1,.7-8.74-3.02-14.24-2.76-4.08-7.82-4.26-11.33-3.67"/><path class="b" d="M223.38,211.82c0,1.74,1.17,2.58,3.44,2.58s3.1-1.17,3.1-2.35c0-1.34-1.12-1.99-3.27-2.18-2.55-.22-3.27,1.18-3.27,1.95"/><path class="b" d="M254.04,218.4c.47,1.68,1.83,2.17,4.01,1.55,2.18-.61,2.67-1.97,2.35-3.1-.36-1.29-1.62-1.61-3.74-1.21-2.52,.48-2.83,2.02-2.62,2.76"/><path class="b" d="M284,210.03c.53,1.87,2.18,2.38,4.89,1.62,2.7-.76,3.35-2.31,3-3.57-.41-1.44-1.94-1.76-4.57-1.24-3.12,.62-3.55,2.37-3.32,3.19"/><path class="b" d="M288.8,163.91c.86,1.42,2.11,1.59,3.74,.6,1.62-.98,1.65-2.3,1.07-3.25-.66-1.09-1.78-1.13-3.42-.35-1.94,.93-1.77,2.37-1.39,3"/><path class="b" d="M317.15,163.91c.86,1.42,2.11,1.59,3.74,.6,1.62-.98,1.65-2.3,1.07-3.25-.66-1.09-1.78-1.13-3.42-.35-1.94,.93-1.77,2.37-1.39,3"/><path class="b" d="M301.13,230.68c.41,1.32,1.55,1.72,3.35,1.26,1.8-.46,2.19-1.52,1.91-2.41-.32-1.02-1.36-1.28-3.12-.99-2.08,.35-2.32,1.55-2.14,2.14"/><path class="b" d="M323.61,215.7c.53,1.87,1.78,2.49,3.72,1.95,1.93-.54,2.29-2.01,1.94-3.27-.41-1.44-1.56-1.87-3.45-1.56-2.24,.37-2.43,2.05-2.2,2.88"/><path class="b" d="M232,166.16c-4.32-.63-7.38,1.96-6.87,5.71,.58,4.33,9.75,4.29,10.67,.71,1.04-4.01-.97-6.01-3.8-6.43"/><path class="b" d="M218.8,169.56c-2.74-.46-4.68,1.41-4.36,4.12,.37,3.13,6.18,3.1,6.77,.51,.66-2.89-.61-4.34-2.41-4.64"/><path class="b" d="M266.47,77.44c-3.17,0-4.92-1.24-5.85-2.38-1.03-1.25-1.45-2.84-1.2-4.38,.36-2.22,2.43-3.85,4.62-3.36,1.09,.24,1.95,.92,2.46,1.79,.26,.44,.78,.67,1.28,.57,.87-.17,2.11-.43,2.83-.63,1.82-.51,4.08-1.15,7.58-1.41,5.32-.39,9.53-.38,13.26,.04,.26,.03,.51,.05,.73,.06,.58,.03,1.12-.3,1.38-.82,.41-.82,1.11-1.5,2.04-1.85,2.37-.91,4.85,.84,5.21,3.35,.2,1.42-.18,2.88-1.09,4.06-1,1.29-3.5,3.37-9.11,2.73-3.2-.36-7.08-.37-11.85-.02-2.73,.2-4.35,.66-6.07,1.14-1.32,.37-2.68,.76-4.41,.98-.65,.08-1.24,.12-1.8,.12m.36-5.22h0m26.59-2.25h0"/><path class="c" d="M160.68,138.26c-7.02,2.11-15.58,4.84-20.99,6.74-1.11,.39-2.03,1.19-2.56,2.25-3.8,7.48-9.43,20.79-15.56,34.14-.25,.54-.03,1.18,.5,1.46,11.3,5.87,33.31,16.54,45.13,21.6,.72,.31,1.54-.01,1.86-.72,3.71-8.18,11.78-26.86,14.37-32.86,.54-1.25,.61-2.64,.22-3.94-2.03-6.72-5.37-15.34-7.39-21.34-.17-.5-.52-.91-.98-1.15-4.09-2.11-10.26-4.81-13.18-6.1-.45-.2-.95-.23-1.42-.09"/><path class="b" d="M161.27,138.18c.28,0,.57,.06,.83,.18,2.92,1.29,9.09,3.98,13.18,6.1,.47,.24,.81,.65,.98,1.15,2.02,6,5.35,14.62,7.39,21.34,.39,1.3,.32,2.69-.22,3.94-2.59,5.99-10.66,24.68-14.37,32.86-.24,.53-.76,.84-1.3,.84-.19,0-.38-.04-.56-.12-11.82-5.07-33.83-15.73-45.13-21.6-.53-.28-.75-.92-.5-1.46,6.13-13.35,11.76-26.66,15.56-34.14,.53-1.05,1.45-1.86,2.56-2.25,5.41-1.9,13.97-4.63,20.99-6.74,.19-.06,.39-.09,.59-.09m0-7.59c-.94,0-1.87,.14-2.77,.41-7.75,2.33-16.12,5.02-21.32,6.85-2.97,1.04-5.38,3.16-6.81,5.97-2.41,4.75-5.42,11.5-8.9,19.32-2.18,4.89-4.43,9.96-6.79,15.09-1.94,4.23-.23,9.22,3.9,11.36,11.87,6.16,33.91,16.81,45.64,21.84,1.13,.48,2.32,.73,3.55,.73,3.53,0,6.75-2.08,8.21-5.29,3.75-8.28,11.99-27.34,14.43-32.98,1.24-2.88,1.43-6.13,.51-9.14-1.32-4.38-3.18-9.53-4.81-14.07-.98-2.73-1.91-5.31-2.65-7.5-.8-2.38-2.46-4.32-4.69-5.47-4.04-2.09-9.88-4.66-13.02-6.04l-.58-.25c-1.24-.54-2.55-.82-3.89-.82"/><path class="b" d="M140.59,159.54l-4.27-1.99c1.04-2.23,1.81-3.89,2.46-5.38,1.92,.8,12.7,5.91,13.7,6.42-.84,2-2.26,4.97-2.48,5.42-.96-.49-2.72-1.27-4.19-1.95-2.06,4.42-8.37,18.58-8.7,19.3-1.24-.49-4.12-1.92-5.4-2.51,1.4-3.3,8.01-17.51,8.89-19.31"/><path class="b" d="M142.63,183.89c1.61-3.25,2.78-5.97,6.21-13.34,2-4.31,5-10.36,5.46-11.34,1.57,.68,3.84,1.83,4.59,2.18-.9,1.74-4.03,8.56-4.33,9.2,.85,.44,2.65,1.32,3.19,1.53,1.47-2.86,3.79-8.25,4.33-9.2,1.59,.74,3.61,1.63,4.44,2.11-1.44,3.28-4.23,9.39-6.04,13.28-1.81,3.89-4.97,10.38-5.4,11.32-1.83-.81-3.65-1.65-4.5-2.09,1.14-2.64,4.02-8.84,4.53-9.84-.6-.28-2.29-1.11-3.02-1.41-1.2,2.48-3.8,7.98-4.77,9.87-1.78-.83-4.14-1.97-4.69-2.27"/><path class="b" d="M164.01,176.55c2.19-4.5,4.13-9.07,4.83-10.48,1.53,.67,9.05,4.16,9.86,4.59-.74,1.68-1.7,3.94-2.14,4.7-1.51-.7-4.3-1.91-5.17-2.31-.6,1.19-1.75,3.97-2,4.49,1.3,.56,2.42,1.12,2.83,1.32-.74,1.59-1.83,4.02-2.05,4.51-1.07-.36-2.62-1.08-3-1.26-.83,1.78-2.3,5.04-2.69,5.87,1.68,.83,4.5,2.09,5.27,2.41-.46,1.49-1.87,4.32-2.13,4.98-1.43-.57-9.14-4.07-10.25-4.54,1.86-4,4.42-9.8,6.64-14.28"/><path class="b" d="M366.98,99.96c-.39,0-.78-.1-1.14-.3-1.12-.63-1.53-2.05-.9-3.18,2.7-4.82,8.35-9.98,14.89-10.63,4.83-.48,12.45-5.89,14.05-9.98,4.97-12.66,4.17-19,2.63-22.09-3.27-6.53-13.01-10.76-20.83-14.17-7.65-3.32-23.47-11.43-27.8-15.75l-.68-.68c-3.73-3.75-9.97-10.02-16-11.41-5.83-1.34-11.52-.85-17.92,1.55l-.32,.12c-5.69,2.13-10.61,3.98-16.09,7.01l-1.39,.76c-5.96,3.27-10.67,5.85-11.63,10.4l-.35,1.64c-1.21,5.65-2.71,12.68-2.87,17.93-.18,5.83,.54,19.69,.54,19.83,.07,1.29-.92,2.39-2.21,2.45-1.28,.06-2.39-.92-2.45-2.21-.03-.58-.73-14.19-.55-20.22,.17-5.68,1.72-12.93,2.97-18.77l.35-1.64c1.41-6.64,7.5-9.98,13.95-13.52l1.37-.76c5.78-3.19,11.09-5.19,16.71-7.29l.32-.12c7.2-2.7,13.94-3.26,20.61-1.72,7.34,1.69,14.18,8.57,18.26,12.67l.67,.67c3.25,3.25,17.07,10.74,26.36,14.77,8.52,3.7,19.12,8.31,23.14,16.36,2.87,5.73,2.04,14.44-2.46,25.88-2.45,6.24-11.91,12.31-17.93,12.92-4.84,.48-9.24,4.63-11.28,8.27-.43,.76-1.22,1.19-2.04,1.19"/><path class="b" d="M166.64,147.05c-.28,0-.57-.05-.85-.16-1.2-.47-1.79-1.83-1.32-3.03,3.66-9.29,9.59-17.27,11.32-19.5,3.31-4.25,9.23-5.99,19.19-5.62,1.29,.05,2.29,1.13,2.25,2.42-.05,1.29-1.12,2.28-2.42,2.25-10.65-.39-13.79,1.84-15.34,3.83-1.63,2.1-7.24,9.64-10.66,18.34-.36,.92-1.24,1.48-2.17,1.48"/></svg>