<svg xmlns="http://www.w3.org/2000/svg" width="877" height="140" viewBox="0 0 877 140" fill="none">
<path d="M659.644 12.9329C653.705 12.9329 604.369 14.3042 597.517 15.2184C597.517 15.6755 597.517 17.0468 597.517 18.8752C595.689 16.1326 594.319 13.39 592.948 11.5616C589.294 11.5616 565.996 11.1045 560.971 11.1045C558.687 16.5897 554.119 36.2449 552.292 44.0156C551.378 42.1872 548.637 38.9875 547.267 36.2449C545.439 36.2449 536.303 35.7878 532.192 36.2449C531.735 37.6162 529.908 39.9017 528.537 42.6443C528.08 40.3588 522.142 23.4461 520.314 17.961C514.833 17.5039 488.794 17.961 482.398 18.4181C483.769 24.3603 494.276 86.5257 498.387 104.353C502.498 109.381 511.178 124.922 516.203 130.864C520.771 130.864 539.501 130.864 544.069 130.407C544.526 128.579 547.267 121.265 548.637 117.608C550.008 119.894 553.662 125.836 555.489 129.036C558.687 129.036 585.639 128.122 589.294 127.665C589.751 124.922 592.948 110.295 596.146 94.7534C596.146 102.981 595.689 109.838 595.689 113.952C597.517 118.065 605.739 133.15 608.48 139.549C620.814 140.006 669.237 138.635 675.176 138.635C675.176 133.607 675.633 102.981 675.176 93.8392C672.892 91.0967 663.755 81.0405 659.644 76.9266C659.644 75.0982 659.187 69.156 659.187 65.4992C661.928 65.4992 674.719 65.4992 677.917 64.585C677.917 60.9282 677.003 40.8159 677.003 33.0452C673.805 29.8455 665.583 18.4181 659.644 12.9329Z" fill="black"/>
<path d="M423.927 6.98446C405.198 7.44156 394.691 15.2122 389.666 25.2684C380.986 12.0125 366.368 1.95638 346.725 1.95638C327.996 1.95638 315.661 12.4696 308.352 26.1826C305.155 20.6974 301.5 14.7551 298.759 11.0983C294.191 10.6412 266.782 10.6412 261.3 11.0983C261.3 14.7551 260.843 28.4681 260.843 36.2387C259.016 33.4961 250.336 18.4119 246.225 12.0125C243.027 12.0125 219.273 12.0125 213.334 11.5554C213.334 12.0125 213.334 12.4696 213.334 13.3838C209.68 8.35575 206.025 3.32767 204.198 0.585086C201.457 0.585086 178.616 -0.329111 173.134 0.127987C173.134 3.32767 172.677 12.9267 172.677 22.5258C169.023 19.3261 165.368 15.2122 163.084 12.9267C159.43 12.9267 140.243 12.9267 134.305 13.3838C133.848 20.2403 134.305 24.8113 134.305 30.7536C132.934 28.011 126.082 20.2403 123.341 17.0406C120.6 17.0406 102.327 17.0406 93.1909 17.4977C89.9932 14.7551 86.3386 12.4696 83.5977 10.6412C80.4 9.72705 13.7045 11.5554 0.913637 12.0125C0.913637 14.7551 0 40.8097 0 50.4088C2.74091 54.0656 17.8159 69.6069 23.7545 76.4634C23.7545 84.6911 23.7545 94.2902 23.7545 102.061C25.5818 104.346 33.8046 120.802 37.9159 125.83C43.3977 125.83 73.5477 124.916 81.3136 124.459C81.3136 118.973 81.3136 88.805 81.3136 77.8347C82.2273 77.8347 84.5114 77.8347 87.2523 77.8347C86.7955 91.0905 86.3386 102.518 85.8818 108.003C88.1659 113.488 97.3023 129.944 100.957 136.8C103.241 137.257 131.107 136.343 137.959 135.886C137.959 134.058 137.959 127.201 137.959 121.716C139.33 124.002 142.527 132.229 144.355 135.886C147.552 135.886 178.616 136.343 185.011 135.886C185.011 134.515 185.011 128.573 185.011 120.802C186.382 123.544 187.752 125.373 188.666 126.744C192.32 126.744 214.248 126.744 221.557 126.744C222.47 129.487 223.384 131.772 224.298 133.601C227.952 133.601 254.905 133.601 260.386 133.144C260.386 130.858 259.473 113.488 259.473 103.432C261.757 109.374 269.98 126.287 273.177 132.229C277.289 132.686 307.895 132.229 313.834 131.772C313.834 129.944 313.834 120.802 313.834 108.003C325.711 124.459 343.527 132.229 361.343 132.229C374.591 132.229 383.271 126.744 389.209 118.516C398.345 132.686 412.964 140 428.039 140C453.164 139.543 470.066 119.888 469.609 99.7754C469.609 79.6631 461.386 70.5211 455.448 66.8643C458.189 66.8643 465.498 66.4072 469.609 66.4072C471.436 29.3823 454.534 6.52736 423.927 6.98446ZM348.095 49.0375C348.552 46.752 350.836 43.5523 352.664 43.0952C354.034 44.9236 355.405 47.6662 355.861 49.0375C353.577 49.0375 349.466 49.0375 348.095 49.0375ZM401.086 80.5772C401.086 80.1201 401.086 80.1202 401.086 79.6631C401.543 80.1202 401.543 80.1201 402 80.5772C401.543 80.5772 401.086 80.5772 401.086 80.5772Z" fill="black"/>
<path d="M866.13 46.2862C857.451 32.1162 846.487 15.2035 815.88 16.1177C792.126 17.0319 777.051 26.631 772.026 47.6575C763.803 28.9165 747.814 12.4609 721.776 12.4609C714.467 12.4609 701.676 12.4609 693.453 13.3751C693.453 22.9742 693.91 95.6528 693.91 109.823C697.108 114.394 708.528 132.221 712.183 136.792C716.294 136.792 725.43 136.792 735.48 136.335C760.149 135.877 772.026 119.879 777.051 102.509C785.274 123.079 802.176 138.163 829.128 137.706C873.439 137.249 889.885 85.1395 866.13 46.2862ZM817.708 69.5982C813.596 66.8556 815.88 59.542 820.905 59.9991C821.819 63.1988 821.362 67.3127 817.708 69.5982Z" fill="black"/>
<path d="M16.9048 56.3428C15.9911 56.3428 14.6207 56.3428 13.707 56.3428C14.6207 57.7141 15.9911 59.0854 16.9048 59.9996C19.6457 59.9996 22.3866 59.9996 25.1275 59.9996C25.1275 58.6283 25.1275 57.257 25.1275 55.8857C22.8434 56.3428 19.6457 56.3428 16.9048 56.3428Z" fill="#98C5D3"/>
<path d="M7.30859 48.5688C7.76541 49.0259 8.67905 50.3972 10.5063 52.6827C11.8768 52.6827 14.6177 52.6827 16.9018 52.6827C20.0995 52.6827 22.8404 52.6827 25.1245 52.6827C25.1245 50.8543 25.1245 49.483 25.1245 48.5688C21.9268 48.5688 14.1609 48.5688 7.30859 48.5688Z" fill="#98C5D3"/>
<path d="M20.5586 64.5743C22.3859 66.4027 23.7563 68.2311 24.67 69.1453C24.67 68.6882 24.67 66.8598 24.67 64.1172C23.2995 64.1172 21.929 64.1172 20.5586 64.1172C20.5586 64.5743 20.5586 64.5743 20.5586 64.5743Z" fill="#98C5D3"/>
<path d="M90.4435 60.9138C89.5299 59.0854 88.1594 57.7141 87.2458 55.8857C85.4185 55.8857 83.1344 55.8857 80.3935 56.3428C76.739 56.3428 73.0844 56.7999 69.8867 56.7999C71.2572 58.6283 72.1708 60.4567 73.5413 62.2851C74.9117 62.2851 77.1958 61.828 79.4799 61.828C83.1344 61.828 87.2458 61.3709 90.4435 60.9138Z" fill="#98C5D3"/>
<path d="M93.1874 65.0322C89.9897 65.0322 84.5079 65.4893 79.9397 65.9464C78.5692 65.9464 77.6556 65.9464 76.2852 66.4035C77.6556 68.2319 78.5692 69.6032 79.4829 70.9745C82.6806 70.9745 91.3602 70.5174 96.842 70.5174C95.9283 69.1461 94.5579 67.3177 93.1874 65.0322Z" fill="#98C5D3"/>
<path d="M80.3971 52.2369C81.7675 52.2369 83.138 52.2369 84.5084 52.2369C83.5948 50.4085 82.2243 49.0372 81.7675 48.123C79.4834 48.123 74.0016 48.5801 64.8652 49.0372C65.3221 49.9514 66.2357 51.3227 67.6061 53.1511C70.3471 53.1511 75.8289 52.694 80.3971 52.2369Z" fill="#98C5D3"/>
<path d="M63.9549 106.632C60.3004 106.632 53.4481 107.089 47.0526 107.089C42.0276 107.089 37.0026 107.546 34.2617 107.546C35.1754 108.46 35.6322 109.374 36.5458 110.746C42.9413 110.746 58.0163 110.289 65.7822 110.289C65.3254 108.917 64.8685 107.546 63.9549 106.632Z" fill="#98C5D3"/>
<path d="M62.122 102.502C61.2084 100.674 60.7516 99.3028 60.2947 98.8457C56.6402 98.8457 39.2811 98.8457 30.6016 99.3028C31.0584 100.217 31.5152 101.588 32.4288 103.417C34.7129 103.417 40.6516 103.417 47.047 102.96C52.9857 102.502 58.4675 102.502 62.122 102.502Z" fill="#98C5D3"/>
<path d="M38.375 114.855C39.2886 116.227 39.7455 117.598 40.2023 118.512C46.1409 118.512 68.9818 117.598 68.9818 117.598C68.9818 117.598 68.525 116.227 67.6114 114.855C60.7591 114.398 46.1409 114.855 38.375 114.855Z" fill="#98C5D3"/>
<path d="M120.141 117.595C114.659 117.595 105.066 118.052 99.127 118.052L100.954 121.709C105.066 121.709 115.572 121.709 121.968 121.252C121.968 120.338 121.054 118.967 120.141 117.595Z" fill="#98C5D3"/>
<path d="M103.695 125.819L105.979 129.933C115.116 130.39 126.536 129.476 127.45 129.476C126.993 128.562 126.079 127.19 124.709 125.362C119.684 125.819 109.634 125.819 103.695 125.819Z" fill="#98C5D3"/>
<path d="M115.572 109.376C110.09 108.918 94.5586 109.376 94.5586 109.376L96.8427 113.946C101.868 113.946 111.461 113.946 117.856 113.489C117.399 112.118 116.486 110.747 115.572 109.376Z" fill="#98C5D3"/>
<path d="M166.285 114.398C160.803 114.398 148.012 114.855 141.16 114.855C142.074 116.683 142.987 118.512 143.444 120.34C148.012 120.34 161.26 119.883 169.026 119.883C168.569 118.055 167.656 116.226 166.285 114.398Z" fill="#98C5D3"/>
<path d="M145.729 124.455C146.642 126.283 147.556 128.112 148.013 129.483C150.297 129.483 167.656 129.026 173.594 128.569C173.138 127.654 172.224 125.826 171.31 123.541C165.372 123.998 152.124 124.455 145.729 124.455Z" fill="#98C5D3"/>
<path d="M161.713 105.702C158.059 105.702 148.466 106.159 137.502 106.159C137.959 107.53 138.872 108.901 139.329 110.273C144.811 110.273 157.145 109.816 163.997 109.816C163.541 108.901 162.627 107.073 161.713 105.702Z" fill="#98C5D3"/>
<path d="M205.57 103.886C204.657 102.058 203.286 100.686 202.373 99.3149C197.804 99.3149 187.298 99.772 180.445 99.772C180.902 101.143 181.816 102.515 182.729 103.886C184.1 103.886 186.384 103.886 188.668 103.886C194.607 103.886 201.459 103.886 205.57 103.886Z" fill="#98C5D3"/>
<path d="M208.308 107.988C204.197 107.988 195.517 107.988 189.578 107.988C188.208 107.988 186.837 107.988 185.924 107.988C186.381 108.902 187.294 110.273 187.751 111.187C192.776 111.187 203.74 111.187 210.592 111.187C209.678 110.273 209.222 109.359 208.308 107.988Z" fill="#98C5D3"/>
<path d="M190.035 115.77C190.949 117.141 191.862 118.513 192.776 119.427C196.431 119.427 209.222 119.427 215.16 119.427C214.703 118.513 213.79 117.141 212.876 115.313C207.394 115.77 196.431 115.77 190.035 115.77Z" fill="#98C5D3"/>
<path d="M241.2 111.645C242.113 111.645 243.027 111.645 243.484 111.645C243.027 110.273 242.57 109.359 242.113 107.988C238.002 107.988 228.409 107.988 221.557 107.988C222.013 108.902 222.47 110.273 222.927 111.645C227.495 112.102 235.718 112.102 241.2 111.645Z" fill="#98C5D3"/>
<path d="M246.681 118.974C246.224 118.059 245.768 117.145 245.311 115.774C244.397 115.774 243.027 115.774 241.199 115.774C237.545 115.774 232.977 115.774 229.322 115.774C227.495 115.774 226.124 115.774 224.754 115.774C225.211 116.688 225.668 118.059 226.124 118.974C227.038 118.974 227.952 118.974 228.865 118.974C234.347 118.974 242.113 118.974 246.681 118.974Z" fill="#98C5D3"/>
<path d="M229.326 123.091C228.869 123.091 228.412 123.091 227.955 123.091C228.412 124.462 228.869 125.833 229.326 126.748C232.98 126.748 244.857 126.291 249.882 126.291C249.426 125.376 248.969 124.005 248.512 122.634C244.401 123.091 235.264 123.091 229.326 123.091Z" fill="#98C5D3"/>
<path d="M296.931 110.281C296.474 108.909 295.56 107.995 295.104 107.081C292.363 107.081 277.744 107.081 269.979 107.081C270.435 107.995 270.892 109.367 271.349 110.281C274.09 110.281 279.115 110.281 284.597 110.281C289.165 110.281 293.733 110.281 296.931 110.281Z" fill="#98C5D3"/>
<path d="M301.038 117.598C300.581 116.683 299.667 115.312 299.211 114.398C295.556 114.398 290.074 114.398 285.049 114.398C280.481 114.398 276.37 114.398 273.172 114.398C273.629 115.312 274.086 116.683 274.542 117.598C277.283 117.598 282.308 117.598 287.333 117.598C292.358 117.598 297.84 117.598 301.038 117.598Z" fill="#98C5D3"/>
<path d="M287.337 121.708C283.225 121.708 279.114 121.708 276.373 121.708C276.83 123.079 277.744 123.993 278.2 125.364C282.769 125.364 302.869 125.821 305.153 125.821C304.696 124.907 304.239 123.536 303.325 121.708C300.128 121.708 293.732 121.708 287.337 121.708Z" fill="#98C5D3"/>
<path d="M532.196 113.491C525.8 113.948 516.664 114.405 512.096 114.405C512.553 115.32 513.466 116.691 514.38 117.605C518.491 117.605 528.541 117.148 534.48 116.691C533.109 116.234 532.653 114.863 532.196 113.491Z" fill="#98C5D3"/>
<path d="M516.658 122.172C517.572 123.543 518.485 124.915 519.399 125.829C523.967 125.829 534.474 125.372 538.129 125.372C537.672 124.915 537.215 123.086 536.301 121.258C531.276 121.258 522.14 121.715 516.658 122.172Z" fill="#98C5D3"/>
<path d="M528.086 106.17C525.802 106.17 514.381 106.628 506.615 107.085C507.072 107.542 507.986 108.913 508.899 110.741C513.011 110.284 523.974 109.827 529.913 109.37C529.456 108.456 528.542 107.085 528.086 106.17Z" fill="#98C5D3"/>
<path d="M571.934 103.419C568.737 103.419 557.316 103.876 548.637 104.333C549.094 105.247 549.55 106.162 550.464 107.99C555.489 107.99 567.366 107.533 573.762 107.076C573.305 105.704 572.391 104.79 571.934 103.419Z" fill="#98C5D3"/>
<path d="M578.337 114.857C577.424 113.486 576.967 112.115 576.053 111.201C571.028 111.658 559.151 112.115 552.299 112.115C552.756 113.486 553.669 114.857 554.126 115.772C556.41 115.772 560.065 115.315 564.176 115.315C569.658 115.315 574.683 114.857 578.337 114.857Z" fill="#98C5D3"/>
<path d="M564.625 119.432C561.427 119.432 558.686 119.889 556.402 119.889C557.316 121.718 558.23 123.089 558.686 124.003C565.082 124.46 579.243 123.546 582.898 123.546C582.441 122.632 581.527 121.261 580.614 118.975C576.959 118.975 570.564 119.432 564.625 119.432Z" fill="#98C5D3"/>
<path d="M659.649 48.5674C659.192 47.6532 658.736 46.739 657.822 45.3677C655.081 45.3677 634.524 45.8248 627.672 46.2819C627.672 48.1103 627.672 47.6532 627.672 49.0245C631.326 49.0245 655.081 48.5674 659.649 48.5674Z" fill="#98C5D3"/>
<path d="M628.584 73.7051C628.584 74.6193 628.584 75.9906 628.584 77.3619C631.325 77.3619 643.659 77.3619 645.943 77.3619C645.029 75.9906 644.573 75.5335 642.745 73.7051C640.918 74.1622 633.609 73.7051 628.584 73.7051Z" fill="#98C5D3"/>
<path d="M650.505 54.9775C654.159 54.9775 658.27 54.5204 662.382 54.5204C663.295 54.5204 663.752 54.5204 664.666 54.5204C663.752 53.6062 663.295 52.692 662.382 51.7778C661.011 51.7778 653.245 51.7778 647.764 52.2349C648.677 52.692 649.591 54.0633 650.505 54.9775Z" fill="#98C5D3"/>
<path d="M662.385 58.6295C659.644 58.6295 656.903 58.6295 654.162 59.0866C655.076 60.0008 655.989 60.915 656.446 61.372C658.273 61.372 666.953 61.3721 669.694 60.915C669.237 60.0008 668.323 59.0866 667.867 58.1724C666.039 58.6295 664.212 58.6295 662.385 58.6295Z" fill="#98C5D3"/>
<path d="M658.732 122.634C653.25 122.634 645.484 122.634 636.804 122.634C629.495 122.634 622.186 122.634 615.334 122.634C612.136 122.634 609.395 122.634 606.654 122.634C607.111 124.005 608.025 125.376 608.482 126.748C621.272 126.748 647.768 126.291 660.559 126.291C660.102 124.919 659.188 123.548 658.732 122.634Z" fill="#98C5D3"/>
<path d="M610.762 130.857C611.675 132.229 612.132 133.6 612.589 134.514C616.7 134.514 659.184 134.514 665.58 134.514C665.123 133.6 664.209 132.229 663.296 130.4C651.875 130.4 624.923 130.4 610.762 130.857Z" fill="#98C5D3"/>
<path d="M636.805 118.512C643.657 118.512 650.509 118.512 655.991 118.512C655.077 117.141 654.164 115.769 653.707 114.855C650.052 114.855 611.223 114.855 603 114.398C603.457 115.769 604.37 117.141 604.827 118.512C613.507 118.512 625.841 118.512 636.805 118.512Z" fill="#98C5D3"/>
<path d="M757.864 113.936C757.407 113.021 756.493 112.107 756.036 110.736C744.616 119.878 725.43 120.792 708.527 120.792C708.984 121.706 709.898 122.62 710.355 123.535C729.084 124.449 746.443 123.535 757.864 113.936Z" fill="#98C5D3"/>
<path d="M715.38 128.101C714.466 128.101 714.009 128.101 713.096 128.101C714.009 129.472 714.923 130.843 715.38 131.758C744.159 132.215 752.382 129.472 761.518 119.416C761.062 118.959 760.605 118.045 760.148 117.13C748.727 126.729 732.739 128.101 715.38 128.101Z" fill="#98C5D3"/>
<path d="M751.466 104.349C740.959 112.577 725.884 113.034 703.043 113.948C703.957 114.862 704.413 116.234 705.327 117.148C722.229 117.148 742.786 116.691 753.293 107.549C752.836 106.178 751.923 105.263 751.466 104.349Z" fill="#98C5D3"/>
<path d="M351.752 126.289C362.716 128.117 371.395 126.289 379.161 122.175C378.704 121.718 378.247 120.803 377.334 118.975C371.852 123.089 361.802 125.832 351.752 126.289Z" fill="#98C5D3"/>
<path d="M372.309 113.026C367.284 116.226 359.518 118.969 350.838 119.426C348.554 119.426 346.727 119.883 344.443 119.883C339.875 119.883 335.306 119.426 330.738 118.512C342.159 127.196 368.197 121.254 374.593 116.226C373.679 114.855 373.222 113.941 372.309 113.026Z" fill="#98C5D3"/>
<path d="M370.027 109.37C369.113 107.999 368.2 106.628 367.743 106.17C355.409 114.855 333.938 113.484 319.32 106.628C327.086 120.34 359.52 117.141 370.027 109.37Z" fill="#98C5D3"/>
<path d="M358.605 44.9224C359.519 46.7508 359.519 47.2078 360.89 48.5791C365.001 48.5791 376.421 49.0362 380.076 48.5791C379.619 47.2078 379.162 45.8366 378.249 44.9224C375.965 44.9224 368.199 45.3795 358.605 44.9224Z" fill="#98C5D3"/>
<path d="M445.394 114.401C444.48 113.487 443.567 112.573 443.11 112.116C434.887 120.343 408.849 123.086 394.23 115.773C401.54 126.286 437.628 124.457 445.394 114.401Z" fill="#98C5D3"/>
<path d="M449.962 119.416C449.049 118.502 448.592 118.045 447.678 117.13C439.456 123.53 429.406 126.729 418.442 126.729C412.047 126.729 405.194 125.358 398.799 123.073C411.133 134.043 440.369 129.929 449.962 119.416Z" fill="#98C5D3"/>
<path d="M419.818 133.604C433.066 135.433 447.227 132.233 454.537 124.919C454.08 124.462 453.623 123.548 452.709 122.634C444.03 129.49 432.152 133.604 419.818 133.604Z" fill="#98C5D3"/>
<path d="M454.075 47.6606C453.162 46.2893 452.248 45.3751 451.334 44.4609C447.68 44.4609 437.63 44.918 432.148 45.3751C432.148 45.3751 433.062 46.7464 433.975 48.5748C437.63 48.5748 448.137 48.1177 454.075 47.6606Z" fill="#98C5D3"/>
<path d="M441.738 55.4346C444.479 55.4346 450.418 54.9775 459.097 54.5204C458.641 53.6062 457.727 52.692 456.813 51.7778C452.702 51.7778 443.109 52.692 437.627 52.692C439.454 53.6062 440.368 54.5204 441.738 55.4346Z" fill="#98C5D3"/>
<path d="M446.762 59.0866C447.675 60.0008 449.046 60.915 449.959 61.8291C452.7 61.8291 461.38 61.8291 463.664 61.372C463.207 60.915 462.75 59.5437 461.837 58.1724C455.898 58.6295 450.416 59.0866 446.762 59.0866Z" fill="#98C5D3"/>
<path d="M853.791 115.773C852.877 114.401 851.964 113.03 851.05 112.116C839.173 122.172 812.221 126.286 791.207 117.601C804.912 130.857 838.716 127.2 853.791 115.773Z" fill="#98C5D3"/>
<path d="M848.77 107.99C847.4 106.162 846.486 104.79 845.573 103.419C831.411 116.675 797.15 114.846 783.445 103.876C792.125 120.789 830.954 120.789 848.77 107.99Z" fill="#98C5D3"/>
<path d="M856.082 119.417C845.119 127.645 830.957 130.387 817.253 130.387C814.969 130.387 812.684 130.387 810.4 129.93C825.932 135.415 844.205 132.673 857.453 121.702C857.453 121.245 856.996 120.331 856.082 119.417Z" fill="#98C5D3"/>
<path d="M6.85526 18.8669C6.85526 22.5237 6.39844 37.1508 6.39844 42.636C7.76889 42.636 26.9553 42.1789 31.0666 42.1789C31.0666 45.8357 31.0666 86.0603 31.0666 92.0026C37.4621 92.0026 53.4507 91.5455 57.5621 91.0884C57.5621 88.3458 56.6484 53.1493 57.1053 41.7218C60.303 41.7218 76.7484 41.7218 81.3166 41.2647C81.3166 39.4363 81.7734 23.895 81.3166 17.4956C77.2053 17.4956 16.4484 18.4098 6.85526 18.8669Z" fill="white"/>
<path d="M139.791 19.7744C139.791 22.9741 140.247 42.6294 139.791 48.1145C137.506 48.1145 123.802 48.1145 117.406 48.1145C117.406 45.3719 117.406 28.4593 116.95 23.4312C113.752 23.4312 100.504 22.9741 95.4792 23.4312C95.0224 28.0022 93.1951 90.1676 92.7383 103.423C100.961 103.881 110.554 102.966 115.122 102.509C115.122 99.3095 116.036 79.1972 116.036 72.3407C120.147 72.3407 131.111 71.8836 137.05 71.8836C137.05 75.5404 137.05 92.9101 137.506 99.3095C141.161 99.3095 154.866 99.3095 158.977 98.3953C158.977 95.6527 159.434 28.0022 158.977 19.7744C157.15 19.7744 143.445 19.3173 139.791 19.7744Z" fill="white"/>
<path d="M178.622 7.88818C178.622 17.4872 177.252 81.9381 177.708 92.4513C180.449 92.4513 196.895 92.4513 200.549 91.9942C200.549 87.4233 200.093 18.8585 200.093 7.88818C196.895 8.34528 183.19 7.88818 178.622 7.88818Z" fill="white"/>
<path d="M266.324 16.585C266.324 20.2417 265.867 47.6676 265.867 54.067C264.954 51.7815 247.595 24.8127 243.94 18.8705C240.742 18.8705 223.383 18.4134 218.358 18.4134C218.358 22.0701 217.445 45.8392 217.901 55.4383C218.358 64.5803 217.901 89.7207 217.901 101.148C222.926 101.148 235.717 101.605 240.742 101.605C240.742 98.4055 240.285 66.8658 240.285 58.638C241.656 60.9235 260.842 91.092 267.238 100.234C271.349 100.234 288.708 100.691 292.363 100.234C292.363 96.5771 291.906 26.6411 291.449 17.0421C289.165 17.0421 270.892 16.585 266.324 16.585Z" fill="white"/>
<path d="M565.089 17.4896C563.719 21.6035 555.496 50.8578 553.212 59.9998C551.841 57.7143 548.187 49.0294 545.903 44.9155C543.619 44.9155 536.766 44.4584 533.569 44.9155C532.655 47.201 529.914 54.5146 528.087 59.5427C527.173 56.8001 518.037 30.7455 516.209 24.8032C512.098 24.8032 493.369 24.8032 487.887 25.2603C489.257 32.1168 501.134 91.0824 503.875 102.053C510.728 102.053 523.975 101.596 528.544 101.596C529.914 98.396 536.766 80.1121 538.137 75.9982C539.507 79.1979 544.989 94.2821 548.187 100.681C553.669 100.681 566.459 99.7673 571.941 99.7673C573.769 90.6253 587.016 28.46 588.387 17.9467C586.103 17.4896 570.571 17.0325 565.089 17.4896Z" fill="white"/>
<path d="M656.913 19.7861C653.259 19.7861 613.059 21.1574 602.552 22.0716C602.095 28.9281 601.181 94.2931 601.638 110.292C614.886 111.206 644.122 110.292 653.715 109.834C653.715 106.178 653.259 88.808 652.802 84.237C650.518 84.237 630.418 84.237 623.565 83.7799C624.022 80.5802 623.109 71.4382 623.109 67.3243C625.393 67.3243 633.159 67.3243 637.27 66.8672C637.27 65.0388 637.27 58.6395 636.813 54.5256C634.986 54.5256 627.677 54.9827 622.652 54.9827C622.652 52.6972 622.195 45.8407 622.195 41.2697C624.936 40.8126 652.345 40.8127 657.37 40.3556C656.913 37.1559 656.913 24.3571 656.913 19.7861Z" fill="white"/>
<path d="M727.26 18.4062C718.581 18.4062 708.074 18.4063 700.308 19.3204C699.851 28.9195 700.765 92.9132 701.222 108.912C704.876 108.912 710.815 108.912 725.89 107.997C751.929 106.626 763.806 86.5139 763.806 63.659C763.806 40.8041 750.558 18.4062 727.26 18.4062Z" fill="white"/>
<path d="M345.815 54.5192C345.815 56.3475 345.358 65.0324 345.815 69.6034C348.099 69.6034 353.581 69.6034 356.322 69.1463C356.322 73.2602 354.037 82.8592 343.987 82.4021C333.937 81.945 328.456 72.346 327.999 56.8046C327.542 41.2633 337.135 30.7501 344.444 30.293C351.753 29.8359 356.322 35.321 357.235 39.892C360.433 39.892 371.397 39.892 377.792 39.4349C376.422 17.4942 366.372 6.98096 344.444 6.98096C320.69 7.43806 305.615 35.321 305.615 56.3476C305.615 94.7438 324.344 106.628 343.531 106.628C364.544 106.628 380.076 94.7438 377.335 53.605C370.94 54.0621 353.124 54.5192 345.815 54.5192Z" fill="white"/>
<path d="M423.012 31.6595C427.58 31.6595 430.778 36.6876 431.234 39.4302C434.432 39.4302 444.025 38.9731 450.421 38.9731C450.421 26.1744 444.025 12.4614 423.012 12.4614C401.998 12.4614 391.034 26.1744 391.034 42.1728C391.034 71.4271 424.839 66.8561 424.839 82.3974C424.839 87.4255 422.555 93.8249 416.616 93.8249C409.307 93.8249 404.739 89.2539 404.739 84.2258C401.084 84.2258 391.034 84.6829 385.096 84.6829C384.182 101.138 391.491 115.308 417.987 114.851C433.975 114.394 446.309 105.709 446.766 85.5971C447.223 50.4006 416.159 53.6003 416.159 40.8015C415.703 36.6876 417.987 31.6595 423.012 31.6595Z" fill="white"/>
<path d="M815.425 21.1557C793.041 21.6128 774.768 37.6112 775.225 64.1229C775.682 96.1198 788.016 107.547 814.512 107.547C842.834 107.09 856.996 92.463 856.996 62.2945C856.996 32.1261 837.809 20.6986 815.425 21.1557ZM814.968 76.0075C808.116 76.4646 802.634 73.2649 802.634 62.2945C802.634 56.3523 807.202 49.4958 814.968 49.0387C822.277 48.5816 825.932 54.5239 826.389 61.8374C826.846 69.6081 821.364 75.5504 814.968 76.0075Z" fill="white"/>
<path d="M740.053 60.919C739.596 48.5774 729.546 44.9206 723.15 45.3777C723.15 49.9487 723.607 70.061 723.607 76.9174C732.287 76.4603 740.053 73.2607 740.053 60.919Z" fill="black"/>
</svg>