<svg xmlns="http://www.w3.org/2000/svg" width="375" height="251" viewBox="0 0 375 251" fill="none">
<path fill-rule="evenodd" clip-rule="evenodd" d="M64.9217 131.114C60.5739 129.317 55.3076 129.354 49.9599 129.144C44.3974 128.926 38.8163 128.852 33.2649 129.358C23.2139 130.271 11.7851 132.811 5.52267 141.401C1.47855 146.949 1.25264 153.185 1.48966 159.769C1.59706 162.767 1.81556 165.849 3.11175 168.559C4.29685 171.036 6.31891 173.032 8.55206 174.632C20.0919 182.92 32.9279 180.177 46.1232 180.983C47.6934 181.079 49.6118 181.508 50.034 183.023C50.6969 185.385 47.2157 186.513 44.7603 186.446C36.1314 186.217 27.5061 185.988 18.8772 185.755C13.7183 185.618 7.96322 185.699 4.245 189.266C0.00829525 193.329 -0.776828 199.535 0.660095 205.01C2.09332 210.469 7.04478 215.02 12.1703 217.334C16.7366 219.396 22.5917 219.296 27.5135 219.234C46.2602 218.997 80.7167 224.028 85.9682 198.718C88.568 186.195 85.0534 171.109 73.4358 164.182C71.4286 162.985 69.2473 162.083 66.9919 161.473C61.7293 160.053 56.0483 159.883 50.6265 159.843C48.8304 159.832 46.9305 159.791 45.4047 158.841C41.2273 156.246 44.7085 153.163 48.0304 152.901C51.8598 152.598 55.7113 152.546 59.5443 152.749C62.7293 152.919 66.029 153.248 69.0288 152.161C79.3094 148.432 71.9693 134.023 64.9254 131.114" fill="black"/>
<path fill-rule="evenodd" clip-rule="evenodd" d="M130.528 218.614C131.931 212.038 133.335 205.458 134.735 198.882C135.953 206.02 141.82 214.685 148.819 217.291C166.695 223.944 173.713 197.537 177.395 185.9C179.631 178.829 180.961 171.373 182.702 164.169C185.12 154.166 185.894 143.225 191.386 134.254C194.015 129.962 198.211 125.707 203.274 124.491C207.485 123.478 211.692 123.807 215.958 123.678C222.158 123.493 229.509 124.11 233.349 118.255C235.183 115.457 235.364 111.883 234.946 108.567C234.453 104.663 232.138 99.6843 228.22 98.106C224.42 96.5756 218.295 97.0673 214.158 96.9933C210.055 96.9194 205.948 96.8455 201.844 97.0044C197.289 97.1818 192.671 97.3667 188.305 98.6789C167.843 104.826 159.426 126.724 155.156 145.583C154.422 148.825 153.956 152.514 152.863 155.623C150.856 152.747 148.526 150.174 146.46 147.298C144.675 144.814 142.76 142.297 140.357 140.371C134.609 135.769 129.258 139.077 125.525 144.456C122.828 148.344 120.395 152.34 117.584 156.155C117.266 156.587 116.759 157.064 116.27 156.843C111.577 145.92 110.133 134.797 106.511 123.63C102.089 109.99 91.0347 95.9953 75.6211 96.1616L45.8605 96.4832C37.9722 96.5682 27.636 95.293 20.4402 99.3517C12.2964 103.943 11.9298 115.198 17.6664 121.745C21.3624 125.966 27.8656 125.87 33.4577 125.334C45.7494 124.159 58.7891 122.628 69.8993 128.003C77.6802 131.766 79.9874 140.075 81.8687 147.812C85.1277 161.23 88.2423 174.685 91.1347 188.188C93.7345 200.316 97.1638 212.241 100.23 224.255C102.189 231.932 107.852 241.388 117.214 239.891C127.002 238.323 128.835 226.576 130.532 218.621" fill="black"/>
<path fill-rule="evenodd" clip-rule="evenodd" d="M194.675 217.898C186.212 218.149 178.254 211.551 177.846 203.093C177.709 200.232 178.468 197.408 179.224 194.643L189.856 155.734C192.397 146.43 198.089 137.544 206.47 132.487C216.688 126.322 230.242 127.283 241.652 128.591C244.037 128.865 246.467 129.235 248.578 130.377C251.5 131.959 253.503 134.894 254.585 138.028C255.67 141.163 255.929 144.516 256.081 147.828C256.218 150.752 256.24 153.838 254.836 156.407C253.418 158.998 250.407 160.455 247.552 159.568C246.859 162.543 249.337 167.005 250.078 169.877C251.363 174.845 252.633 179.817 254.018 184.759C256.692 194.303 258.703 204.498 263.743 213.166C268.239 220.899 280.771 220.681 288.845 220.992C296.644 221.287 305.847 219.879 312.832 224.06C316.45 226.226 319.32 229.985 319.494 234.195C319.591 236.52 319.191 238.871 318.102 240.945C312.324 251.96 297.907 250.985 287.534 250.977C273.546 250.97 259.321 250.855 247.241 242.804C236.179 235.43 228.742 223.228 226.653 210.179C226.342 208.228 223.706 189.021 222.843 188.929C222.028 188.84 212.755 188.736 212.755 188.807C212.832 198.706 213.392 210.52 203.107 215.765C200.548 217.07 197.659 217.813 194.675 217.901M220.424 163.571C220.239 162.747 219.71 161.952 218.75 161.372C215.862 159.63 212.095 162.961 214.129 165.922C216.11 168.805 221.272 167.323 220.428 163.567" fill="black"/>
<path fill-rule="evenodd" clip-rule="evenodd" d="M261.599 153.301C260.984 145.458 261.547 137.592 261.184 129.788C261.136 128.746 261.073 127.648 260.517 126.765C259.839 125.682 258.543 125.123 257.277 124.95C256.01 124.776 254.721 124.924 253.444 124.916C248.096 124.883 243.493 120.636 241.689 115.679C240.648 112.818 240.6 109.676 241.019 106.66C241.304 104.59 241.845 102.472 243.189 100.867C247.14 96.147 252.284 97.5368 257.832 97.3557C274.323 96.8197 290.715 96.4316 307.221 95.8439C325.282 95.2709 343.985 98.6162 350.04 118.211C351.814 123.959 352.054 130.254 350.192 135.976C348.329 141.698 344.266 146.777 338.837 149.394C333.008 152.204 326.249 152.037 319.875 153.165C315.087 154.011 308.095 156.351 305.925 161.241C303.969 165.648 305.41 172.911 305.61 177.617C305.88 184.008 305.628 190.429 304.88 196.783C304.584 199.304 304.199 201.865 303.103 204.131C301.977 206.456 300.147 208.349 298.103 209.842C292.059 214.26 283.849 215.258 276.964 212.411C270.083 209.565 264.739 202.963 263.206 195.411C262.684 192.839 262.58 190.196 262.48 187.571C262.273 182.2 262.269 176.763 262.228 171.34C262.184 165.278 262.087 159.234 261.606 153.305M314.25 132.439C316.413 132.712 318.561 131.448 318.372 127.914C318.194 124.621 313.969 123.482 311.602 125.168C308.343 127.485 310.806 132.006 314.25 132.442" fill="black"/>
<path fill-rule="evenodd" clip-rule="evenodd" d="M147.371 111.834C146.33 107.454 145.289 103.074 144.252 98.6934C147.037 102.663 153.074 106.227 158.059 105.802C170.784 104.715 167.447 86.7317 166.332 78.6402C165.654 73.7202 164.321 68.8335 163.303 63.9727C161.818 56.8755 159.792 48.6324 160.618 41.3726C161.129 36.8703 163.284 32.3163 167.206 30.0318C171.139 27.7437 176.08 29.0116 179.646 26.3872C182.679 24.1545 184.468 20.1291 183.879 16.392C181.768 3.05886 162.77 8.16366 155.152 12.7473C149.063 16.4104 144.797 22.6316 142.527 29.3554C137.66 43.7642 140.405 58.8826 143.693 73.247C141.408 69.3177 139.123 65.3847 136.838 61.4554C135.631 59.3817 134.242 57.149 131.968 56.3691C129.154 55.4043 125.961 57.1786 124.424 59.7254C122.888 62.2723 122.65 65.3773 122.647 68.3492C122.643 74.3005 123.428 80.2555 124.98 86.0035C119.754 81.2462 116.329 75.3023 111.37 70.2677C109.774 68.6487 108.063 67.0222 105.911 66.2866C102.074 64.9707 97.4895 67.1035 95.7082 70.7409C90.5419 81.2979 109.166 97.3516 114.796 104.693C119.851 111.287 125.35 117.519 130.654 123.911C134.046 127.995 140.182 132.095 145.419 128.513C150.889 124.768 148.626 117.135 147.367 111.834" fill="black"/>
<path fill-rule="evenodd" clip-rule="evenodd" d="M168.399 65.6888C167.847 61.8334 167.362 57.9669 166.94 54.0931C166.621 51.1544 166.34 48.212 166.299 45.2512C166.247 41.5917 167.092 36.1912 170.384 33.9807C172.191 32.7683 174.413 32.3284 176.587 32.1953C178.465 32.0844 180.479 32.2249 181.99 33.3412C187.334 37.2853 187.953 45.3953 188.979 51.3096C190.434 59.6784 191.682 68.0878 192.671 76.5231C193.049 79.7834 193.127 83.0843 192.912 86.3742C192.827 87.679 192.693 89.0097 192.138 90.2185C191.567 91.4605 190.571 92.5103 189.438 93.3678C186.086 95.9036 181.365 96.7834 177.28 95.6338C170.899 93.841 171.336 83.1619 170.488 78.5081C169.71 74.2461 169.017 69.973 168.403 65.6851" fill="black"/>
<path fill-rule="evenodd" clip-rule="evenodd" d="M193.182 25.1453C193.463 30.5865 193.878 36.0239 194.437 41.4429C195.411 50.9132 195.145 60.28 195.989 69.7614C196.8 78.8362 199.355 91.6259 210.747 91.9771C225.127 92.4207 240.093 92.7127 254.514 91.4078C257.451 91.1417 260.421 90.7868 263.158 89.6927C265.895 88.5948 268.405 86.6653 269.617 83.9817C270.879 81.1761 270.572 77.8493 269.354 75.0252C268.554 73.1696 267.343 71.4433 265.646 70.3455C262.95 68.6007 259.502 68.6784 256.292 68.8151C247.707 69.1774 239.119 69.5212 230.531 69.8169C221.965 70.1126 218.632 64.2537 218.072 56.5281C217.195 44.3668 217.591 32.1501 216.313 20.0072C215.376 11.1099 211.384 4.10141 201.27 5.65392C192.541 6.99573 192.689 11.5682 192.93 19.0646C192.997 21.094 193.082 23.1233 193.186 25.149" fill="black"/>
<path fill-rule="evenodd" clip-rule="evenodd" d="M229.064 0.688954C227.09 1.33214 225.376 2.41889 224.335 3.93813C222.757 6.24102 222.295 9.07989 222.265 11.8153C222.135 23.9396 221.543 36.0898 222.45 48.1957C222.624 50.5245 222.706 52.9789 223.313 55.2559C224.25 58.7897 226.498 62.1387 229.849 63.621C232.564 64.8186 235.653 64.6893 238.619 64.5377C245.615 64.1792 252.607 63.8169 259.603 63.4584C261.117 63.3807 262.662 63.2957 264.076 62.7523C269.006 60.8524 268.465 54.0028 266.987 49.9552C266.239 47.9074 264.78 46.037 262.762 45.2016C261.369 44.6286 259.825 44.5769 258.318 44.5362C255.788 44.466 253.262 44.3995 250.733 44.3292C249.537 44.296 248.244 44.2294 247.318 43.4717C246.652 42.9246 246.285 42.104 245.982 41.2981C244.271 36.7256 245.83 31.5099 245.982 26.797C246.219 19.4854 247.107 7.04315 240.43 2.01228C237.586 -0.131658 232.846 -0.538267 229.064 0.69265" fill="black"/>
<path fill-rule="evenodd" clip-rule="evenodd" d="M284.879 58.0349C284.923 54.1388 285.034 50.2427 285.212 46.3504C285.345 43.3969 285.519 40.4435 285.931 37.5159C286.438 33.8897 288.101 28.6814 291.689 26.9995C293.66 26.0754 295.922 25.9793 298.093 26.1826C299.966 26.3563 301.933 26.8036 303.259 28.138C307.94 32.851 307.307 40.961 307.418 46.9603C307.533 53.1592 307.758 59.3582 307.64 65.5608C307.533 71.3643 307.603 77.8811 305.651 83.4184C303.322 90.035 295.008 91.6836 289.075 88.9852C283.042 86.2425 285.105 75.7556 284.979 71.0242C284.864 66.6956 284.831 62.3634 284.879 58.0349Z" fill="black"/>
<path fill-rule="evenodd" clip-rule="evenodd" d="M315.083 38.9997C315.561 35.3218 316.057 31.1226 315.135 28.7014C312.958 22.983 300.17 22.2548 295.37 20.7134C293.193 20.0148 290.922 19.0722 289.645 17.1759C289.086 16.3405 288.752 15.372 288.556 14.3851C287.904 11.1285 288.7 7.60949 290.7 4.95544C295.959 -2.03824 305.751 -0.153053 313.032 1.7654C327.26 5.50991 342.052 7.26572 356.069 11.6349C357.825 12.182 359.584 12.7771 361.146 13.7419C366.676 17.1537 365.65 25.8034 362.328 30.4868C358.532 35.8356 350.366 33.5438 345.026 32.9893C341.318 32.6049 338.222 33.4588 338.222 37.5655C338.222 50.5105 337.626 63.3778 335.674 76.1343C334.96 80.8029 334.06 85.8448 330.608 89.0755C328.001 91.5189 324.116 92.5132 320.653 91.6261C312.28 89.4785 311.565 79.7716 312.291 72.704C313.439 61.4852 313.624 50.1926 315.083 38.9997Z" fill="black"/>
<path fill-rule="evenodd" clip-rule="evenodd" d="M337.056 156.171C344.937 154.478 353.533 154.744 360.999 157.993C371.916 162.747 375.372 172.383 374.968 183.643C374.712 190.862 372.431 196.946 366.224 200.986C363.735 202.605 361.787 204.036 359.003 204.805C356.277 205.559 354.573 207.714 353.481 210.253C352.347 212.885 351.736 215.787 350.062 218.112C345.359 224.644 332.782 224.91 327.253 219.517C326.175 218.467 325.505 217.158 324.964 215.839C323.372 211.965 322.757 207.721 323.824 203.714C324.89 199.707 327.761 195.978 331.953 193.996C336.449 191.875 342.208 192.141 345.548 187.886C346.666 186.463 347.103 184.386 346.192 182.818C345.159 181.04 342.885 180.504 340.86 180.131C334.293 178.933 330.757 185.24 324.246 186.145C320.872 186.615 317.221 186.008 314.576 184.153C310.58 181.347 309.651 176.157 311.391 171.984C313.136 167.811 317.072 164.565 321.402 162.155C326.49 159.324 331.523 157.354 337.056 156.163" fill="black"/>
<path fill-rule="evenodd" clip-rule="evenodd" d="M343.555 246.414C348.603 243.275 351.143 235.609 347.188 230.659C344.718 227.569 340.14 226.501 336.374 227.296C330.175 228.597 326.445 235.52 328.282 241.494C330.212 247.759 338.296 249.681 343.555 246.414Z" fill="black"/>
</svg>