<svg xmlns="http://www.w3.org/2000/svg" width="168" height="128" viewBox="0 0 168 128" fill="none">
<path d="M148.632 94.1389C149.721 81.5949 148.705 75.577 141.296 75.0689C136.381 74.7323 133.865 77.1214 132.579 87.0908C131.659 82.7034 129.593 80.2055 127.074 79.71C122.28 78.7676 118.648 82.175 115.961 94.9366C111.966 86.6705 104.485 87.1777 99.6904 97.9824C99.0199 92.02 97.6603 88.1069 95.9093 85.6654C97.3003 86.2619 98.7714 86.6423 100.282 86.7832C108.631 87.562 119.634 81.4861 121.35 67.8533C122.563 58.2251 118.513 51.2177 112.956 47.6475C116.735 47.1645 119.498 43.6827 121.535 38.0279C122.116 41.7986 123.787 47.5269 129.524 48.3966C135.263 49.267 141.219 42.3058 144.632 29.7618C148.046 17.2178 147.61 5.90591 141.727 4.67382C135.844 3.44095 133.083 10.3294 130.032 22.8742C128.652 15.7681 121.825 14.3904 117.177 19.1035C117.54 11.9975 115.433 3.51374 108.968 4.02177C103.748 4.43194 101.998 11.0832 101.739 20.3481C100.267 9.67028 93.7725 4.2973 86.306 4.2386C78.0789 4.17284 71.6733 9.58183 69.0276 22.6667C68.674 12.439 64.4663 6.12352 60.4053 5.78536C55.757 5.39867 53.1419 10.8124 53.0447 21.4472C48.4928 16.0335 43.1662 17.3869 39.4862 24.3473C37.162 12.3591 32.5137 7.42841 27.1871 8.39592C21.8597 9.36265 21.5233 19.7728 22.9253 31.7923C24.572 45.9074 31.1579 51.9019 36.9684 51.6115C42.7788 51.3211 47.2335 47.0674 48.4928 40.9767C49.026 43.714 50.7048 47.3383 54.0335 48.6244C50.9761 51.2209 49.3192 57.2005 49.6933 65.9566C50.2555 79.1151 54.1487 84.7519 57.9541 85.937C54.6184 89.0556 52.2535 93.789 51.5517 99.6497C51.4066 100.861 51.3392 102.025 51.3086 103.164C48.3744 101.775 45.2073 103.408 43.65 105.958C41.8339 108.931 36.3136 109.656 33.8444 103.856C31.2019 97.6489 35.7326 93.6317 39.2196 95.807C40.4154 96.5538 42.4879 98.0552 45.03 97.1847C48.4293 96.0215 48.6614 92.4716 47.8623 88.9186C47.0633 85.3656 43.5049 79.8548 33.6993 82.1758C23.8937 84.4951 18.9427 91.4681 20.1895 106.176C20.9885 115.602 30.867 127.422 43.7958 123.07C49.1397 121.272 52.2119 118.369 53.7716 115.344C56.113 119.701 60.0015 122.335 65.0623 122.562C74.7228 122.998 82.5673 115.239 84.0924 104.072C84.1332 103.776 84.1442 103.483 84.1724 103.188C84.2132 103.439 84.2469 103.671 84.29 103.928C86.9051 119.589 93.2981 123.215 97.7285 122.853C102.159 122.49 105.936 120.388 108.551 114.877C108.551 116.98 109.858 121.403 115.524 122.346C121.19 123.288 128.381 118.357 131.722 103.565C131.852 102.992 131.954 102.448 132.063 101.895C132.558 106.439 133.874 108.751 135.539 109.867C133.398 110.813 131.894 112.773 131.635 115.615C131.272 119.603 133.669 122.287 137.809 122.504C141.949 122.722 145.217 121.054 145.798 116.993C146.264 113.74 145.07 111.164 142.349 109.96C145.346 108.212 147.812 103.579 148.632 94.1389ZM106.523 65.0486C105.818 67.8032 103.87 70.5014 101.841 70.4232C99.8127 70.3449 99.1987 68.1954 100.202 63.9574C101.217 59.6733 103.402 57.8815 104.963 58.1931C106.599 58.5203 107.46 61.3876 106.523 65.0486ZM101.86 28.9274C102.336 36.9775 104.34 42.3724 106.934 45.2326C106.46 45.1457 105.985 45.0706 105.509 45.0283C97.6948 44.3316 90.3372 47.631 87.352 59.8197C87.1246 55.4369 86.259 51.7218 84.9283 49.1982C91.7581 48.5806 100.523 43.5481 101.86 28.9274ZM81.7306 24.4687C82.3132 19.5677 83.9826 15.8401 86.1609 16.2026C88.471 16.5869 89.4292 20.8429 88.9211 25.1215C88.4122 29.3994 86.7961 32.9681 84.3449 32.6628C82.6018 32.4444 81.2217 28.7466 81.7306 24.4687ZM68.2082 32.7849C68.8779 39.5669 72.4245 44.3904 76.491 46.9986C74.5275 48.8248 73.4235 52.6909 72.7193 59.7203C69.5522 51.5903 65.285 48.3074 61.0812 47.4181C64.1895 44.9219 66.8854 39.7602 68.2082 32.7849ZM66.618 75.238C67.5872 77.4955 69.1649 80.222 71.2726 82.1499C70.7598 82.0333 70.2399 81.9402 69.7114 81.8854C68.1886 81.7257 66.7058 81.8173 65.2787 82.1053C65.9436 80.4286 66.3702 78.1781 66.618 75.238ZM70.9456 101.463C70.5826 105.16 68.4756 107.771 66.5145 107.771C64.5534 107.771 63.5364 104.218 64.3354 100.375C65.2309 96.0677 67.1685 94.7918 68.9116 95.0094C70.6555 95.2262 71.3087 97.764 70.9456 101.463ZM87.9229 82.3198C84.1747 82.9523 82.6347 86.1257 83.0354 93.5973C81.7079 89.8454 79.4096 86.6838 76.5138 84.5812C76.7717 84.5961 77.0305 84.6063 77.2963 84.5914C81.7047 84.3472 84.8679 80.3754 86.4503 72.1038C87.0596 76.4615 88.7839 79.9041 91.1661 82.3652C90.1091 82.139 89.0191 82.1351 87.9229 82.3198Z" fill="black"/>
</svg>