<svg xmlns="http://www.w3.org/2000/svg" fill="none" viewBox="0 0 158 158" aria-hidden="true" class="FallbackSplash_FallbackSplash__PHKQ0"><path fill="#000" d="M85.793.042c-2.694-.202-5.441.324-7.83 1.607-2.946 1.58-5.202 4.2-6.9 7.063-.65 1.08-1.354 2.228-1.686 3.457-.053.19-.557 2.404-.597 2.404-.385-.054-.464-.324-.716-.635-3.73-4.483-9.581-7.59-15.354-8.183-5.773-.595-11.4 1.917-14.027 7.333-1.42 2.93-1.632 6.104-2.242 9.237l.053.189-.16-.04s-.119-.163-.145-.19c-.173-.216-.505.027-.558-.378.053.338-.929-.284-.942-.297-.438-.23-.916-.351-1.393-.446a12.101 12.101 0 0 0-5.892.324 15.147 15.147 0 0 0-5.003 2.688c-1.938 1.566-3.875 3.308-4.83 5.631-.903 2.188-.837 4.66-.598 7.022.053.473.106.96.226 1.418.053.216.132.432.199.649.517 1.526.916 3.173 1.632 4.605.292.594.465 1.134.717 1.742l-.24.08c-1.074-.499-2.467-.107-3.569.028-1.407.162-2.68.823-3.915 1.526a21.934 21.934 0 0 0-6.754 5.996c-1.3 1.769-1.898 3.47-1.924 5.658-.027 2.296.146 4.551.968 6.712A16.489 16.489 0 0 0 6.57 69.32a16.102 16.102 0 0 0 1.62 1.823c.37.351 1.486 1.094 1.446 1.688l.385-.04.013.27-.226.027-.093.284c-.172.54-1.38.999-1.818 1.296-.77.513-1.526 1.067-2.203 1.701-1.526 1.445-2.6 3.31-3.49 5.227-1.327 2.89-2.229 6.023-2.202 9.196.04 3.66 1.5 7.725 4.498 9.926 1.168.864 2.548 1.472 3.902 1.958 1.035.365 2.84 1.148 3.94.757l.213.054.173.216s.332-.068.358-.068c-.411.081-.478.635-.584.972-.146.46-.332.824-.57 1.256a25.096 25.096 0 0 0-2.986 9.291c-.067.527-.106 1.067-.146 1.594-.067.824-.146 1.648-.213 2.471.213.203.226.527.253.824.132 2.498 1.566 4.7 3.065 6.685.89 1.161 1.831 2.309 2.973 3.2 2.03 1.567 4.63 2.269 7.179 2.256 1.46-.014 2.893-.243 4.3-.635.304-.081 3.662-1.202 3.595-1.337.332.743-.265 1.593-.358 2.336a21.312 21.312 0 0 0-.133 2.755c.067 5.361.903 11.776 5.8 14.869 1.818 1.148 3.98 1.593 6.117 1.728 2.442.162 4.937-.04 7.272-.81 1.805-.594 3.517-1.526 4.937-2.796.226-.202 2.813-2.646 2.614-2.957.637 1.04.73 2.201 1.62 3.147v.256c0 .203.742.878.888 1.067.319.392.61.797.93 1.188.57.73 1.167 1.391 1.87 2.013 2.628 2.295 5.932 3.659 9.316 4.28.385.068.756.136 1.141.176.385.041.77.068 1.168.095 3.318.175 6.49-.23 9.369-2.026 2.256-1.391 4.127-3.39 5.573-5.631.319-.487.61-.986.903-1.472.225-.392.544-1.472.889-1.716.424.716.862 1.432 1.313 2.134a22.46 22.46 0 0 0 1.792 2.404c1.566 1.837 3.45 3.39 5.48 4.659.107.068.226.135.346.122a18.539 18.539 0 0 0 6.927 1.89 21.979 21.979 0 0 0 7.564-.689 19.174 19.174 0 0 0 3.185-1.161 17.846 17.846 0 0 0 3.729-2.39c3.583-3.012 5.918-8.873 5.348-13.613.278.702 1.526 1.121 2.163 1.418a13.1 13.1 0 0 0 3.835 1.081c3.384.391 7.285-.365 10.337-1.891 3.026-1.513 5.348-4.281 6.808-7.374 2.415-5.131 3.145-11.249 1.327-16.678a18.273 18.273 0 0 0-1.579-3.484c-.319-.553-.717-1.053-1.049-1.593-.278-.432-.438-.959-.875-1.27 2.892-.783 5.56-1.85 7.696-4.092a13.457 13.457 0 0 0 3.451-6.887l.119-.81c.358-2.904.292-6.199-.358-9.048a20.979 20.979 0 0 0-3.119-7.184 20.137 20.137 0 0 0-2.627-3.12 23.48 23.48 0 0 0-1.5-1.324c-.544-.432-1.221-.634-1.831-.958-.305-.162-.611-.432-.969-.46.411.028 1.009-.729 1.314-.985.199-.162.385-.338.571-.514a14.606 14.606 0 0 0 3.291-4.442c.875-1.81 1.26-3.741 1.672-5.7.092-.445.159-.904.225-1.363.133-.946.266-1.877.319-2.823.159-2.903-.465-5.78-1.221-8.562-.69-2.511-1.778-4.794-3.504-6.752-.132-.148-.265-.337-.411-.459-.133-.094-.252-.189-.385-.284l-.955-1.053a12.482 12.482 0 0 0-3.251-2.066c-2.88-1.256-5.693-2.053-8.785-2.552-.478-.081-.956-.163-1.434-.19-.384-.027-.756-.094-1.141-.135-.318-.027-.77-.121-1.048.122.239-.203.133-.58.159-.864.04-.405.212-.797.332-1.175.225-.797.438-1.594.61-2.417.345-1.621.558-3.269.651-4.93.252-4.43-.173-9.102-2.323-13.031-.172-.298-.358-.595-.544-.892a15.608 15.608 0 0 0-4.764-4.78 21.363 21.363 0 0 0-1.42-.824c-3.278-1.729-7.046-2.769-10.762-2.471-3.742.31-7.471 2.16-10.337 4.591-.651.54-1.354 1.107-1.819 1.823l-.146.176s-.172.067-.185.067c-.226.095-1.991-3.187-2.19-3.524-.783-1.324-1.58-2.66-2.521-3.876-2.243-2.904-5.388-5.105-8.905-6.05a17.994 17.994 0 0 0-2.68-.419Z"></path><path fill="#fff" d="M21.435 68.263c.697 9.358 1.651 24.711 2.259 31.57.166 1.379 1.507 2.052 2.558 1.913 1.723-.138 3.885-.366 5.604-.559.884-.126 1.618-.741 1.406-2.674-.3-3.04-.5-8.316-.754-12.863a1296.95 1296.95 0 0 0 7.62 12.705c.774 1.275 1.559 1.993 3.17 1.864 1.667-.133 3.954-.204 5.783-.405.834-.067 2.105-.948 1.959-2.775-.677-9.805-1.507-23.609-2.123-30.578-.142-1.771-1.056-2.7-2.608-2.521l-4.556.363c-1.274.157-1.98 1.105-1.818 2.429.367 3.87.68 8.468 1.108 13.781-1.272-1.904-4.742-6.807-8.78-13.225-.452-.744-1.697-2.316-3.368-2.238-1.56.069-3.334.266-4.997.454-1.334.106-2.61.932-2.463 2.759ZM54.575 65.453c.459 4.308.822 10.908 1.168 15.225.352 4.372.672 11.142 1.286 15.995.216 1.988 1.01 2.816 2.352 2.82 1.454-.004 3.894-.254 5.45-.378 1.778-.142 2.314-1.132 2.312-3.248-.056-4.174-.728-11.139-1.01-13.957-.425-3.197-.957-10.507-1.589-16.974-.124-1.55-.629-2.958-2.911-2.831-1.394.055-3.668.292-5.057.403-.834.066-2.17.841-2 2.945ZM72.265 87.158c1.194 5.81 7.202 10.288 13.208 9.865 5.399-.32 7.746-5.91 8.963-10.24.254-1.023-.03-1.78-1.136-2.305-1.511-.715-3.511-1.948-5.328-2.973-.47-.296-1.124-.077-1.52.567-1.982 3.166-6.501 1.911-6.724-5.034-.17-6.28 3.625-7.085 5.977-5.657 1.058.64 2.211.38 2.685.009 1.262-.992 2.942-2.352 4.127-3.616.72-.781.691-1.837.347-2.645-1.641-3.713-3.882-6.542-9.805-5.791-6.813.822-10.809 5.374-11.755 11.688-.816 5.858-.233 10.323.96 16.132ZM102.929 95.63c5.788-.35 11.216-1.005 15.888-1.322 1.278-.102 3.147-1.198 3.047-3.14-.107-1.328-.234-3.602-.345-4.986-.071-.885-1.08-2.308-2.747-2.176-3.112.249-6.442.57-8.878.876-.198-1.767-.431-5.37-.431-5.37s2.329-.24 4.274-.396c.718-.113 1.758-1.087 1.669-2.194-.016-.89-.156-1.937-.227-2.823-.14-1.047-.707-1.837-2.207-1.717-1.44.17-3.223.257-4.223.336-.076-.94-.47-3.75-.572-5.023 1.176.018 5.873-.691 9.369-1.026.833-.066 1.934-.99 1.782-2.871-.111-1.384-.189-3.049-.36-4.483-.129-1.605-1.581-2.27-2.752-2.232-4.617.313-10.873 1.09-16.084 1.673-.884.126-2.476 1.2-2.278 2.967.405 3.644.792 9.852 1.11 14.505.379 4.705.866 10.069 1.349 16.77.169 2.104 1.782 2.699 2.616 2.633ZM131.106 82.8c-3.057.244-5.155 1.97-4.948 5.24.343 5.655 3.468 5.573 5.626 5.29 2.103-.28 4.997-1.847 4.781-5.228-.271-3.376-2.348-5.55-5.459-5.302Zm-6.89-23.792c.289 2.205.774 5.452 1.103 8.155.514 4.304.68 7.076 1.223 11.043.149 1.158 1.143 1.692 2.087 1.616 1.278-.102 2.616-.153 3.723-.297 1.167-.093 1.647-1.078 1.692-1.917-.025-2.393-.11-6.23-.103-8.236.046-2.9-.081-6.566.008-11.03.022-1.115-.678-2.173-2.294-2.1-1.945.155-4.279.341-6.052.538-.612.049-1.563.738-1.387 2.227Z"></path></svg>