<svg xmlns="http://www.w3.org/2000/svg" width="466" height="336" fill="none" alt="An old TV playing a video called The Oatly Process" viewBox="0 0 466 336" class="OatlyProcess_Tv__ROZpk">
<path fill="#fff" d="M42.215 43.68h295.471v208.321c-122.41 15.96-295.471 0-295.471 0V43.681Z"></path><path fill="#000" d="M70.65 96.87c-4.263.348-7.056.583-8.173.612.046-2.785.105-12.206.229-14.107 3.278-.326 10.89-1.266 15.785-1.002 4.894.265 11.195.092 12.965.19-.069 4.289-.17 13.34-.243 14.916-2.33-.176-7.46-.166-8.952-.189-.122 7.47 0 10.953 0 14.111 0 3.157.111 10.213.18 11.841-2.154.381-9.297.73-10.838.799-.233-5.666-.908-21.46-.957-27.172M94.28 81.755c1.868 0 8.631.137 10.853-.052.656 4.69.794 16.991.8 18.41 2.138.343 5.429-.026 5.429-.026s-.6-13.452-.439-17.35c3.025.251 9.874-.134 11.296.036.036 7.525 1.515 18.495 1.449 23.365-.065 4.87.164 14.163.082 16.73-2.845.897-9.179.486-10.677.493-.105-3.539-1.118-10.354-1.216-12.565-2.787-.075-5.068.554-6.314.652-.161 3.543.672 10.135.682 12.069-1.865.695-8.009.059-9.789.046-.656-8.155-.78-14.447-1.35-21.969-.57-7.522-.876-15.93-.807-19.826M128.541 123.572c-.043-8.967-.391-15.984-.105-21.914.285-5.93-.184-16.338-.089-18.57 6.616-.29 21.561-1.604 25.678-1.262.223 3.262.099 9.85.053 11.355-2.397-.147-12.916.681-14.582.587 0 1.4.122 3.731.125 4.765 2.032 0 7.294-.24 7.294-.24s.446 6.324.452 7.41c-1.967.114-7.5.453-7.5.453s-.03 4.923.033 6.893c3.645-.121 11.667-.418 14.066-.379.328 2.904 1.138 9.535 1.249 11.091-5.212-.29-18.181.033-26.674-.189ZM66.076 132.599c4.458-.879 14.615-1.429 20.319-1.012 5.704.416 7.949 6.987 8.195 14.21.245 7.223.385 21.846-14.194 22.237.041 4.583.332 15.227.586 17.648-3.552.429-10.985.897-14.783.91 0-6.923-.209-47.241-.143-53.993h.02Zm13.91 21.936c1.816-.266 3.795-2.261 3.787-5.201-.008-2.94-1.664-4.322-4.307-4.314.09 2.421 0 7.528.52 9.515ZM98.234 132.542c12.035-.967 22.733-2.918 28.264 3.001 5.532 5.919 3.424 19.119-2.942 24.382 3.393 8.093 8.746 21.02 10.435 24.03-4.693.42-10.76.697-13.216.702-2.558-4.087-6.574-13.596-8.438-15.849 0 8.774.927 14.293.932 15.87-3.985 0-10.894.277-14.17.037.245-5.931-.49-46.326-.865-52.19v.017Zm13.167 19.741a4.606 4.606 0 0 0 1.662-.397 4.36 4.36 0 0 0 1.372-.968 4.07 4.07 0 0 0 .874-1.39 3.905 3.905 0 0 0 .242-1.6c-.094-2.59-2.229-4.919-4.796-4.162.094 1.837.446 5.763.646 8.517Z"></path><path fill="#000" d="M133.99 145.239c1.461-10.446 9.345-13.36 17.833-13.771 8.488-.412 14.696 4.66 15.748 15.803 1.053 11.143-.129 23.315-2.155 29.508-2.026 6.192-10.061 7.754-16.302 8.023-6.241.269-16.035-4.4-16.696-13.675-.662-9.274.337-16.941 1.589-25.896l-.017.008Zm11.496 20.313c.075 3.157 2.314 5.878 4.161 6.041 1.847.164 3.832-.718 4.531-3.875.699-3.157 1.248-13.855 1.219-17.655-.029-3.799-2.122-5.567-3.919-5.567-1.798 0-3.861.701-4.577 4.266-1.007 4.962-1.494 13.658-1.423 16.794M172.864 147.178c2.029-9.085 8.431-15.29 18.412-15.711 9.981-.421 12.892 5.185 14.224 12.032-2.488 2.684-7.604 6.027-9.767 7.4-2.77-3.253-10.704-5.252-11.282 5.955-.578 11.206 6.996 12.444 10.276 6.562 3.682 2.467 8.564 5.848 10.593 6.954-1.284 6.592-5.866 16.327-14.734 16.221-8.867-.106-17.101-7.26-18.176-15.872-1.075-8.613-1.422-15.133.462-23.558M209.31 186.275c-.029-11.775-.452-20.989-.079-28.78.373-7.792-.186-21.456-.062-24.381 8.367-.364 27.273-2.052 32.477-1.59.277 4.284.103 12.932.041 14.907-3.031-.197-16.34.856-18.446.732 0 1.838.145 4.9.149 6.262 2.567 0 9.221-.299 9.221-.299s.552 8.305.556 9.736c-2.488.141-9.487.57-9.487.57s-.049 6.467.025 9.055c4.611-.15 14.756-.519 17.787-.459.415 3.808 1.418 12.521 1.555 14.564-6.588-.39-22.994 0-33.737-.313M248.829 142.391c3.592-10.805 14.143-13.83 26.522-8.095-.665 5.113-1.862 10.988-2.126 12.228-5.547-2.271-10.178-2.394-11.111-.23-1.241 2.88 4.675 6.255 10.125 8.666 6.898 3.055 8.205 12.071 4.653 21.167-3.553 9.097-15.698 13.247-32.056 8.453.594-4.644 2.593-14.652 3.803-16.744 8.721 3.57 14.329 3.834 15.804.089 1.474-3.745-2.994-6.791-7.722-7.822-4.727-1.031-12.171-4.806-7.888-17.695M282.584 142.391c3.403-10.805 13.401-13.83 25.125-8.095-.625 5.113-1.76 10.988-2.014 12.228-5.256-2.271-9.643-2.394-10.528-.23-1.176 2.88 4.434 6.255 9.593 8.666 6.536 3.055 7.775 12.071 4.409 21.167-3.366 9.097-14.873 13.247-30.368 8.453.563-4.644 2.452-14.648 3.599-16.744 8.267 3.57 13.577 3.834 14.974.089 1.397-3.745-2.832-6.791-7.316-7.822-4.484-1.031-11.528-4.806-7.47-17.695M174.225 93.097c.574-8.35 8.435-10.216 13.375-10.438 4.94-.222 13.152 2.1 13.769 9.942.616 7.842.554 17.888-1.056 24.073-1.61 6.184-8.884 7.564-12.595 7.62-3.711.055-12.654-1.657-13.487-9-.832-7.342-.327-17.34 0-22.197h-.006Zm9.772 15.957c.112 2.319 2.331 3.422 3.219 3.477a2.826 2.826 0 0 0 1.966-.603 2.8 2.8 0 0 0 1.031-1.771c.328-1.987.888-11.09.721-13.417-.167-2.325-1.387-3.976-3.183-3.976-1.797 0-3.311 1.556-3.482 3.536-.278 3.366-.386 10.438-.278 12.754M213.357 82.932c2.623 0 6.084-.15 8.953.277 2.009 7.58 4.475 15.386 5.901 21.043 1.426 5.656 4.117 18.592 4.425 20.315a68.97 68.97 0 0 1-9.405 0c-.806-4.753-2.164-9.656-2.314-12.007a54.476 54.476 0 0 0-6.99.499c-1.058 3.053-2.163 8.856-2.163 10.157-1.911.3-8.576.45-10.225.202 1.574-6.305 4.088-15.865 6.199-22.621 2.111-6.755 4.829-14.163 5.635-17.865h-.016Zm6.101 20.876c-.2-.783-.856-3.415-1.911-5.02a49.615 49.615 0 0 1-1.407 5.02h3.318ZM228.113 83.356c6.635 0 10.464-.652 16.29-.76 5.825-.108 9.061-.117 11.919 0a72.202 72.202 0 0 1 0 11.064c-2.37 0-7.605.268-8.897.268-.108 6.55-.108 15.941-.164 18.948-.055 3.008-.052 8.856 0 10.52-2.265.326-7.713.052-10.247 0 .108-6.175.593-26.095.327-30.166-2.481.055-6.799.326-8.792.27-.055-2.951-.432-7.247-.432-10.144M259.388 82.246c2.76 0 9.543.18 12.257.538 0 6.85.138 13.142 0 16.156-.137 3.014.545 9.046.545 10.308 2.488.359 6.966.763 8.775.943.407 3.33.587 11.253.541 13.373-3.075-.27-9.362-.088-12.483-.27-3.121-.183-6.92-.359-8.73-.405-.272-6.886-.859-15.657-.905-22.637-.046-6.98.226-15.031 0-18M277.566 82.002c4.033 0 9.061.157 11.146 0 2.459 5.157 6.075 12.297 6.652 13.755 2.668-4.638 6.389-12.193 7.54-14.12 3.934.209 10.736.783 12.831.884-3.039 4.638-13.825 19.646-15.975 24.598-.262 4.69-.741 13.08-.711 15.983-2.692.417-9.868.47-11.438.417-.105-4.892-.053-14.903-.21-19.124-4.294-8.233-8.327-16.362-9.835-22.406"></path><path fill="#000" fill-rule="evenodd" d="M166 237.775c8.837 0 16-7.163 16-16 0-8.836-7.163-16-16-16s-16 7.164-16 16c0 8.837 7.163 16 16 16Zm9.099-17.162a2.31 2.31 0 0 0-.914-.83l-11.473-5.837a2.446 2.446 0 0 0-2.32.059c-.348.2-.637.484-.837.823a2.18 2.18 0 0 0-.305 1.11v11.674c0 .39.105.772.305 1.111.2.339.489.623.837.823a2.439 2.439 0 0 0 2.32.059l11.473-5.837a2.31 2.31 0 0 0 .914-.83 2.18 2.18 0 0 0 0-2.325Z" clip-rule="evenodd"></path><path fill="#000" d="M198.766 221.525v-1.656c0-1.728-1.206-2.79-2.79-2.79h-3.87c-.468 0-.9.432-.9.9v8.946c0 .594.45.9.9.9s.9-.306.9-.9v-2.61h2.97c1.584 0 2.79-1.062 2.79-2.79Zm-1.8 0c0 .684-.342 1.008-.99 1.008h-2.97v-3.672h2.97c.648 0 .99.324.99 1.008v1.656Zm11.966 5.31c0-.45-.306-.882-.936-.882h-4.95v-8.028c0-.63-.45-.936-.9-.936s-.9.306-.9.936v8.91c0 .468.432.9.9.9h5.85c.63 0 .936-.45.936-.9Zm9.519.126c0-.072 0-.144-.018-.216-.522-2.772-1.602-8.298-1.602-8.298-.27-.9-.81-1.458-2.034-1.458-1.044 0-1.818.468-2.034 1.458l-1.818 8.262c-.018.072-.018.162-.018.234 0 .54.468.864.918.864a.855.855 0 0 0 .864-.702c.054-.27.432-2.07.432-2.07h3.168l.378 2.052c.09.504.468.738.846.738.45 0 .918-.324.918-.864Zm-2.466-3.726h-2.466l.954-4.266c.036-.198.144-.234.36-.234s.306.072.342.234l.81 4.266Zm12.434-5.346c0-.504-.468-.882-.936-.882-.288 0-.576.144-.756.486l-2.16 4.158-2.016-4.14c-.18-.36-.468-.504-.756-.504-.468 0-.936.378-.936.882 0 .126.036.288.108.432.612 1.17 2.376 4.932 2.682 5.418v3.186c0 .594.45.9.9.9s.9-.306.9-.9v-3.168c.324-.486 2.214-4.248 2.862-5.418a.87.87 0 0 0 .108-.45Z"></path><path fill="#000" d="M17.277 314.129c-3.167-.302-5.63-.494-8.086-.781a9.483 9.483 0 0 1-5.926-2.726 9.422 9.422 0 0 1-2.749-5.899 72.292 72.292 0 0 1-.496-8.108c-.027-58.834-.027-117.667 0-176.5.044-32.97.315-65.94.44-98.904.012-2.947-.384-5.892-.44-8.843-.079-4.117 1.488-6.28 5.561-7.017 4.834-.874 9.723-1.468 14.612-1.976 19.04-1.976 38.147-.598 57.22-.978 10.465-.21 20.934-.307 31.398-.503 5.622-.104 11.243-.314 16.865-.471 5.863-.166 11.726-.306 17.591-.494 4.167-.131 8.337-.472 12.503-.445 9.336.06 18.669.339 28.009.441 17.812.196 35.626.382 53.439.463 5.538.026 11.082-.283 16.62-.458 4.573-.143 9.143-.419 13.716-.46C289.646.27 311.739.05 333.831 0c11.516-.024 23.032.272 34.547.459 7.802.123 15.604.258 23.403.494 8.662.256 17.319.634 25.977.95 4.653.17 9.304.315 13.957.487 4.008.148 8.013.427 12.021.444 3.118.013 6.235-.395 9.354-.408a23.962 23.962 0 0 1 5.934.606c4.755 1.2 6.36 3.649 6.445 9.7.223 17.22.022 34.446.099 51.67.049 10.835.453 21.67.431 32.504-.04 18.723-.287 37.444-.452 56.167-.16 18.319-.32 36.639-.482 54.959-.166 20.252-.323 40.503-.474 60.755-.064 11.044-.012 22.09-.012 33.135 0 5.172-2.815 8.15-8.08 8.521-.62.044-1.248.059-1.778.083-.438 4.499-.809 8.847-1.31 13.182a21.267 21.267 0 0 1-1.095 5.309 7.265 7.265 0 0 1-2.547 3.243 7.307 7.307 0 0 1-3.907 1.34c-3.804.41-7.619.778-11.439.975-7.684.398-15.377.808-23.07.96-13.774.27-27.553.505-41.329.458-8.982-.032-17.964-.609-26.946-.906-5.862-.195-11.725-.402-17.591-.476-16.279-.201-32.558-.484-48.837-.462-26.292.035-52.583.284-78.873.451-24.678.156-49.354.436-74.03.447-21.203.009-42.408-.264-63.612-.458-12-.109-24-.31-36-.475-3.85-.054-5.54-1.853-5.748-5.671-.266-4.814-.739-9.619-1.11-14.315Zm374.892-133.588c-5.081 0-10.173-.055-15.259.021a106.28 106.28 0 0 0-8.611.494 4.075 4.075 0 0 0-2.725 1.139 4.046 4.046 0 0 0-1.233 2.675c-.611 7.544-1.416 15.101-1.433 22.656-.052 21.379.248 42.757.411 64.138 0 .321.009.643.024.964.313 6.7.911 13.403.85 20.1-.045 5.041-2.342 7.765-7.879 7.573-2.556-.089-5.108-.46-7.661-.447-22.093.119-44.187.276-66.279.47-9.66.087-19.32.462-28.978.439-17.491-.044-34.983-.434-52.475-.415-25.324.026-50.646.354-75.97.429-27.373.082-54.747.019-82.118.019-.646 0-1.293-.01-1.938 0-6.67.157-13.342.389-20.013.448a5.993 5.993 0 0 1-4.295-1.463 5.951 5.951 0 0 1-2.026-4.048c-.222-4.716-.488-9.435-.48-14.154.13-81.582.292-163.166.482-244.753.01-4.799.3-9.598.473-14.396.014-.396.079-.789.193-1.168 1.6-5.127 4.178-5.97 9.66-6.237 9.401-.457 18.828-.396 28.245-.567 8.044-.148 16.087-.335 24.132-.477 10.062-.176 20.125-.415 30.187-.453 5.949-.024 11.889.337 17.834.44 11.596.196 23.192.412 34.79.477 35.498.203 70.996.365 106.493.487 17.681.063 35.364.06 53.049-.01 2.634 0 5.267-.383 7.902-.44 9.577-.202 19.156-.461 28.736-.45 4.654 0 6.138 1.79 6.083 6.44-.132 11.237-.409 22.474-.453 33.71a6997.57 6997.57 0 0 0 0 57.227c.046 11.399.248 22.799.504 34.195.098 2.45.427 4.884.982 7.272.678 3.169 2.751 5.026 5.453 5.008 19.024-.134 38.047-.239 57.075-.504 6.966-.098 13.928-.589 20.889-.939 4.907-.247 7.256-1.728 8.034-5.125a23.11 23.11 0 0 0 .584-4.474c.209-7.614.374-15.229.496-22.845.187-11.318.35-22.638.488-33.958.172-13.251.439-26.5.452-39.751.011-10.915-.287-21.832-.448-32.747-.013-.965.054-1.936-.014-2.897-.273-3.78-1.859-5.448-5.367-5.534-7.802-.194-15.603-.331-23.405-.494-7.72-.165-15.441-.326-23.163-.483-7.317-.157-14.634-.318-21.95-.485-6.752-.154-13.509-.347-20.257-.475-9.982-.186-19.963-.447-29.946-.454-8.69-.009-17.38.282-26.07.45-7.962.153-15.926.332-23.889.476-9.579.175-19.157.476-28.736.453-15.553-.034-31.107-.399-46.66-.413-12.641-.011-25.292.397-37.94.424-31.086.068-62.174.008-93.261.044-3.684 0-7.37.27-11.051.463-8.873.466-17.741.988-26.613 1.437-4.407.222-8.822.324-13.231.494-3.684.144-7.37.277-11.05.494-3.833.223-6.34 1.86-6.546 4.322-.248 2.94-.503 5.894-.482 8.839.103 14.62.417 29.236.422 43.854 0 13.813-.32 27.627-.44 41.44-.192 21.702-.45 43.403-.457 65.104-.007 19.287.26 38.574.461 57.861.088 8.501.314 17.001.47 25.503.167 8.984.356 17.968.476 26.952.065 4.99-.26 10.002.089 14.965.346 4.925.428 5.575 5.687 5.764 1.496.053 3.003-.387 4.51-.432 6.831-.201 13.666-.467 20.498-.466 6.995 0 13.991.255 20.983.452 10.436.296 20.872.617 31.309.964 4.41.14 8.819.343 13.231.471 6.348.186 12.697.484 19.043.467 40.748-.112 81.494-.271 122.239-.477 7.237-.034 14.474-.308 21.71-.461 7.963-.168 15.925-.424 23.889-.468 35.094-.201 70.188-.375 105.282-.52 4.008-.021 8.015-.295 12.022-.462 7.69-.319 15.378-.664 23.07-.961 5.135-.197 10.286-.113 15.406-.551 5.306-.451 8.571-2.307 9.17-7.231a134.765 134.765 0 0 0 1.002-16.46c-.06-28.945-.275-57.891-.436-86.836 0-.563-.013-1.127 0-1.689.058-.476.088-.954.091-1.434.028-1.84-.18-3.675-.619-5.463-1.499-4.101-5.329-4.79-8.993-4.913-4.803-.164-9.627.218-14.439.404-8.015.306-16.024.722-24.043.937-5.407.143-10.819.025-16.231.025h.002ZM349.321 61.067l.231-.01c-.239-5.355-.294-10.727-.773-16.063a11.311 11.311 0 0 0-1.924-5.552 11.36 11.36 0 0 0-4.454-3.847c-3.966-2.11-8.321-2.177-12.529-2.268-17.246-.363-34.496-.379-51.743-.578-7.883-.09-15.765-.298-23.647-.475-6.43-.143-12.858-.328-19.288-.477-7.477-.171-14.955-.397-22.432-.47-20.638-.203-41.279-.47-61.917-.462-24.03.01-48.062.26-72.092.46-9.902.082-19.808.154-29.7.559a25.901 25.901 0 0 0-9.636 2.118c-4.84 2.243-5.733 7.162-5.967 11.874-.397 8.007-.438 16.033-.54 24.051-.196 15.42-.31 30.845-.504 46.267-.111 8.742-.3 17.484-.48 26.226-.14 6.972-.346 13.944-.472 20.916-.187 10.351-.422 20.703-.47 31.056-.08 16.499-.107 32.999.023 49.497a150.985 150.985 0 0 0 1.037 18.145c.605 4.693 2.203 8.554 8.726 9.832 3.047.566 6.136.879 9.234.935 9.577.257 19.155.37 28.733.515 12.082.176 24.166.308 36.242.494 8.851.133 17.703.31 26.553.48 7.807.151 15.604.352 23.404.472 12.163.189 24.324.494 36.484.462 37.273-.083 74.546-.24 111.819-.471 8.284-.044 16.583-.088 24.85-.551 4.666-.263 7.678-2.238 7.808-6.848.284-10.348.352-20.702.526-31.055.147-8.823.307-17.646.48-26.469.157-8.34.319-16.68.484-25.02.17-9.385.353-18.77.479-28.155.187-14.055.305-28.109.496-42.164.105-7.616.319-15.23.471-22.844.17-8.34.331-16.68.482-25.02.037-1.858.004-3.71.004-5.56h.002Zm86.185 107.297c.012 2.981 1.896 5.063 4.523 4.985a4.534 4.534 0 0 0 4.383-2.761 4.515 4.515 0 0 0 .353-1.787 5.02 5.02 0 0 0-3.215-4.825 5.06 5.06 0 0 0-2.023-.337c-2.737.044-4.042 1.569-4.024 4.724l.003.001Z"></path><path fill="#fff" d="M392.161 180.543c5.411 0 10.824.123 16.235-.028 8.016-.214 16.025-.631 24.043-.937 4.813-.185 9.636-.567 14.439-.404 3.66.124 7.494.813 8.992 4.914.44 1.787.648 3.623.62 5.463-.003.479-.034.958-.092 1.433-.017.564-.007 1.128 0 1.69.161 28.944.372 57.89.436 86.835a134.792 134.792 0 0 1-1.001 16.461c-.597 4.923-3.86 6.779-9.171 7.231-5.114.438-10.27.353-15.406.551-7.691.295-15.38.642-23.071.96-4.007.167-8.013.441-12.021.462-35.094.194-70.188.367-105.282.52-7.964.045-15.927.3-23.889.468-7.237.153-14.473.427-21.711.462-40.744.198-81.491.357-122.238.477-6.348.017-12.697-.282-19.045-.467-4.41-.124-8.821-.332-13.23-.472-10.437-.329-20.873-.65-31.31-.963-6.993-.198-13.988-.452-20.983-.452-6.832 0-13.665.264-20.498.466-1.507.044-3.014.485-4.51.432-5.26-.189-5.341-.84-5.687-5.765-.35-4.965-.023-9.975-.09-14.965-.123-8.984-.308-17.969-.475-26.951-.156-8.502-.382-17.003-.47-25.504-.2-19.287-.468-38.574-.46-57.861.007-21.701.266-43.402.457-65.103.124-13.813.443-27.627.44-41.44 0-14.62-.319-29.236-.422-43.855-.02-2.945.237-5.9.484-8.839.207-2.456 2.712-4.092 6.546-4.322 3.68-.214 7.366-.347 11.05-.493 4.409-.176 8.823-.276 13.23-.495 8.873-.449 17.742-.97 26.613-1.437 3.682-.194 7.368-.46 11.051-.463 31.087-.036 62.174.025 93.261-.043 12.647-.027 25.293-.436 37.939-.425 15.554.015 31.107.38 46.661.414 9.577.02 19.156-.28 28.734-.453 7.963-.145 15.927-.324 23.889-.477 8.69-.168 17.38-.458 26.071-.45 9.982.01 19.964.268 29.945.455 6.752.123 13.509.32 20.257.474 7.317.165 14.634.326 21.95.485 7.721.165 15.441.326 23.163.483 7.808.162 15.604.3 23.405.494 3.513.088 5.096 1.755 5.367 5.535.07.96 0 1.931.015 2.897.16 10.914.46 21.832.449 32.746-.013 13.252-.28 26.5-.453 39.751-.148 11.319-.31 22.638-.488 33.959-.126 7.616-.291 15.231-.496 22.844a23.099 23.099 0 0 1-.583 4.474c-.779 3.401-3.127 4.88-8.035 5.126-6.961.351-13.922.841-20.889.938-19.023.266-38.047.371-57.075.504-2.697.019-4.77-1.838-5.453-5.007a39.015 39.015 0 0 1-.981-7.272c-.248-11.396-.459-22.797-.505-34.195-.078-19.075-.078-38.15 0-57.227.045-11.237.321-22.474.454-33.711.054-4.65-1.429-6.434-6.084-6.44-9.579-.01-19.157.247-28.735.45-2.635.056-5.267.434-7.902.44-17.681.043-35.364.046-53.049.01-35.497-.123-70.995-.285-106.493-.486-11.597-.066-23.195-.282-34.79-.478-5.948-.103-11.89-.462-17.833-.44-10.064.039-20.127.277-30.188.454-8.044.142-16.087.328-24.132.476-9.418.172-18.837.11-28.245.567-5.481.267-8.055 1.111-9.659 6.237-.115.38-.18.772-.193 1.168-.173 4.799-.463 9.598-.474 14.396-.189 81.582-.35 163.167-.483 244.754-.008 4.718.259 9.438.48 14.154a5.947 5.947 0 0 0 2.026 4.047 5.99 5.99 0 0 0 4.295 1.464c6.671-.06 13.343-.292 20.014-.449.646-.016 1.292 0 1.938 0 27.373 0 54.747.063 82.118-.018 25.325-.074 50.646-.404 75.97-.43 17.492-.018 34.984.371 52.476.415 9.657.025 19.317-.352 28.977-.438 22.092-.201 44.185-.358 66.28-.471 2.553-.012 5.105.357 7.66.447 5.536.193 7.835-2.532 7.88-7.573.06-6.697-.536-13.398-.85-20.1-.015-.321-.02-.643-.024-.964-.162-21.38-.462-42.759-.41-64.138.017-7.555.821-15.112 1.432-22.656a4.054 4.054 0 0 1 1.234-2.675 4.078 4.078 0 0 1 2.725-1.139c2.862-.278 5.735-.443 8.611-.494 5.078-.073 10.164-.018 15.252-.018Zm44.59-122.886c4.478-18.658-3.92-27.228-12.403-32.453-10.41-6.411-24.301-5.713-32.552 1.955-12.602 11.716-11.823 25.387-3.299 39.843a18.902 18.902 0 0 1-7.735-11.911c-.408-2.084-.611-4.207-1.013-6.298-.099-.512-.62-.946-.948-1.415-.301.57-.867 1.146-.858 1.708.019 2.387.173 4.77.463 7.14a26.316 26.316 0 0 0 3.42 10.082 26.413 26.413 0 0 0 7.139 7.917c7.716 5.822 16.877 7.111 25.994 5.673 12.463-1.965 21.03-9.657 25.675-21.286a31.111 31.111 0 0 0 1.153-20.298c-.231-.816-1.364-1.38-2.069-2.062a9.707 9.707 0 0 0-.691 2.816c.181 2.918.867 5.83.809 8.733.094 3.534-.991 7-3.083 9.856h-.002Zm-5.929 74.867c4.108-7.719 7.293-15.491 4.689-24.442-2.155-7.409-5.966-13.336-13.597-16.14a33.928 33.928 0 0 0-18.831-.907c-5.941 1.201-11.082 3.92-14.555 9.085-5.87 8.729-6.269 17.983-2.441 27.586.637 1.598 1.278 3.194 1.922 4.788a6.573 6.573 0 0 1-2.843-2.666c-1.452-3.535-2.706-7.156-3.901-10.788a52.303 52.303 0 0 1-1.166-5.202l-1.032.016c-.224.907-.799 1.893-.619 2.71a97.038 97.038 0 0 0 3.026 11.608c1.776 4.948 4.371 9.428 9.11 12.333 9.357 5.736 19.435 6.93 30.04 4.94a24.743 24.743 0 0 0 12.542-6.85 31.624 31.624 0 0 0 7.312-11.515c2.279-5.804 3.246-11.737 1.257-17.831a9.428 9.428 0 0 0-1.637-2.286l-.678.326c.226 9.494-.468 18.677-8.596 25.235h-.002Zm1.736 77.355.495-.83a5.787 5.787 0 0 0-.1-.695c-.157-.6-.335-1.194-.505-1.791l1.037-.232c.049.629.159 1.251.328 1.859.197.459.493.87.867 1.204.936-.494 2.18-.909 2.634-1.729a4.289 4.289 0 0 0-1.164-5.876 4.324 4.324 0 0 0-2.058-.749 5.336 5.336 0 0 0-4.282 1.72 6.14 6.14 0 0 0-.418 4.769c.321 1.012 2.064 1.582 3.17 2.35h-.004Zm.706 34.663a9.91 9.91 0 0 1-.771-1.555 2.04 2.04 0 0 1 .046-1.208c.064-.175.687-.357.787-.262.329.319.579.709.732 1.141.23.672.34 1.384.496 2.078.921-.547 2.15-.882 2.699-1.681a4.386 4.386 0 0 0-.72-5.64c-1.672-1.324-4.679-1.545-6.112-.14a4.42 4.42 0 0 0-1.363 5.16c.134.417.35.802.636 1.134a3.305 3.305 0 0 0 3.575.971l-.005.002Zm.461 23.235c2.321.705 3.407-.617 4.015-2.373a4.026 4.026 0 0 0-.007-2.724 4.044 4.044 0 0 0-1.739-2.101 4.537 4.537 0 0 0-5.888.55 4.158 4.158 0 0 0-.607 5.419 2.684 2.684 0 0 0 3.522 1.415c-1.03-2.6-1.03-2.6 1.125-2.647l-.421 2.461Zm.058-35.254c2.778.228 4.049-.962 4.128-3.797a4.439 4.439 0 0 0-1.351-2.932 4.471 4.471 0 0 0-2.986-1.249 4.49 4.49 0 0 0-3.468 1.257 4.44 4.44 0 0 0-1.344 3.423 3.943 3.943 0 0 0 1.35 2.695 3.974 3.974 0 0 0 2.863.964c.657-.89-2.559-2.853 1.128-3.064l-.32 2.703Zm-35.032 35.934c-.206-1.267-.371-2.222-.531-3.239 2.982-.476 1.177 1.672 1.611 2.569 2.321.659 3.309-.653 3.652-2.58.531-2.986-.663-4.807-3.307-5.373a4.355 4.355 0 0 0-3.144.312 4.331 4.331 0 0 0-2.098 2.353c-.857 2.91.298 4.861 3.822 5.958h-.005Zm34.206-47.494c.031-.13.046-.262.044-.395-.203-.76-.437-1.511-.575-2.28a6.11 6.11 0 0 1 1.028-.36 6.042 6.042 0 0 0 .273 2.016c.248.494 1.169 1.173 1.392 1.05a5.462 5.462 0 0 0 2.247-1.908c1.549-2.944-.447-6.809-5.116-6.147a4.198 4.198 0 0 0-2.658 1.604 4.177 4.177 0 0 0-.822 2.987c.123 2.26 1.696 3.587 4.188 3.432l-.001.001Zm-33.313 11.513c2.61.14 3.614-.582 3.871-2.604.372-2.873-.806-4.897-3.082-5.31-2.602-.475-4.875.626-5.491 2.668-.868 2.874.167 4.618 3.765 5.958l-.476-3.289c2.539-.234 1.627 1.315 1.414 2.577h-.001Zm33.517 47.346a4.25 4.25 0 0 1-.436-.828 9.998 9.998 0 0 1-.264-1.885c0-.094.641-.194.991-.292.047.631.184 1.252.406 1.845.281.524 1.132 1.333 1.26 1.253a5.536 5.536 0 0 0 2.248-1.923c1.408-3.081 0-6.692-4.833-6.143a4.106 4.106 0 0 0-2.871 1.492 4.072 4.072 0 0 0-.883 3.105c.113 2.274 1.631 3.514 4.383 3.376h-.001Zm.563-82.135a8.333 8.333 0 0 0 2.662-.947 3.838 3.838 0 0 0 1.428-2.137 3.822 3.822 0 0 0-.243-2.555 4.385 4.385 0 0 0-5.046-2.739 4.3 4.3 0 0 0-2.593 1.359 4.272 4.272 0 0 0-1.115 2.7 3.857 3.857 0 0 0 2.603 4.124c.404.106.823.142 1.239.106.076-.397.081-.805.015-1.205-.569-1.521-.596-1.511 1.446-1.635l-.396 2.929Zm-.052 94.472c1.12-.41 2.178-.976 3.14-1.679a4.072 4.072 0 0 0 .489-4.966 4.085 4.085 0 0 0-1.255-1.262c-1.976-1.468-5.474-.944-6.542 1.191-1.394 2.789-.918 4.608 1.818 6.174.372.211.949.053 1.43.068.022-.41-.033-.82-.162-1.209-.983-1.671.131-1.636 1.543-1.729l-.46 3.412h-.001Zm-.008-35.967c2.683.187 4.115-1.14 4.25-3.72.124-2.46-2.231-4.381-5.242-4.265a4.484 4.484 0 0 0-2.923 1.62 4.45 4.45 0 0 0-.979 3.186 3.57 3.57 0 0 0 2.794 3.228 3.592 3.592 0 0 0 1.517.011l-1.163-2.593c2.994-.556 2.098 1.103 1.749 2.534l-.003-.001Zm-33.957-47.312c2.134.457 3.459-.293 3.784-2.271.531-3.258-.744-5.195-3.509-5.711-2.129-.398-4.786 1.267-5.117 3.21-.517 3.029.62 4.743 3.842 5.39l-.459-3.197c1.941.243 1.941.242 1.458 2.58l.001-.001Zm.24 12.13c3.242-.6 4.198-2.058 3.565-5.371-.321-1.677-3.199-3.423-5.043-3.062a4.647 4.647 0 0 0-3.128 2.212 4.617 4.617 0 0 0-.389 3.803c.518 1.38 1.501 3.05 3.444 2.346.089-1.12.134-1.999.275-2.862.314-.075.638-.099.959-.071.139.931.213 1.872.316 3.006l.001-.001Zm-1.344 59.013v-1.136c-.009-.64.019-1.281.085-1.918.013-.094.532-.115.817-.169.074.603.188 1.204.218 1.81.07 1.434.708 1.58 1.865.945a4.447 4.447 0 0 0 1.923-2.365 4.426 4.426 0 0 0-.054-3.042c-.512-1.4-3.332-2.964-4.95-2.749a4.651 4.651 0 0 0-2.516 1.477 4.628 4.628 0 0 0-1.136 2.682c-.168 2.772.563 3.699 3.747 4.466l.001-.001Zm-.196-82.783.218-2.818c.343.043.964.029.992.141.185.876.257 1.776.371 2.681 2.547.115 3.47-.741 3.545-3.356.087-3.165-1.24-4.588-4.285-4.6-3.045-.013-4.451 1.449-4.381 4.576.043 2.507 1.11 3.497 3.539 3.381l.001-.005Zm.276 94.1c-.124-.452-.281-.875-.362-1.311-.256-1.376.641-2.15 1.336-1.228.431.57.183 1.649.238 2.526 2.196.355 3.382-.472 3.618-2.626.372-3.392-1.046-5.186-4.121-5.24-3.198-.052-4.639 1.423-4.542 4.655.077 2.461 1.267 3.506 3.833 3.224Zm1.515-47.121a2.508 2.508 0 0 0 2.986-1.178c.184-.341.286-.721.297-1.109.601-3.302-.818-5.404-3.691-5.795a4.555 4.555 0 0 0-3.235.932 4.524 4.524 0 0 0-1.702 2.896c-.326 2.825.901 4.38 3.768 4.613l-.431-3.067 1.011-.275.997 2.983Zm-1.507 11.839c-.133-.452-.477-.978-.34-1.298a7.71 7.71 0 0 1 1.214-1.583c.161.988.324 1.969.495 2.987 2.614.113 3.458-.787 3.46-3.861 0-3.01-1.624-4.27-5.294-4.098-2.295.107-3.619 2.088-3.371 5.046a3.172 3.172 0 0 0 1.288 2.264 3.188 3.188 0 0 0 2.553.547l-.005-.004Zm-20.828-26.608.135 3.067a8.703 8.703 0 0 0 2.528-1.372c1.163-1.28.92-4.83-.183-5.785-1.416-1.226-5.427-.936-6.907.494-1.098 1.067-1.319 4.692-.151 5.778a8.941 8.941 0 0 0 2.661 1.158c-.082-1.422-.419-2.405-.077-3.001.238-.398 1.42-.26 1.994-.339Zm.598 34.997a10.556 10.556 0 0 0-.551 1.605c-.047.547-.015 1.101-.015 1.652a5.176 5.176 0 0 0 1.704-.385 3.948 3.948 0 0 0 1.582-2.07 3.943 3.943 0 0 0-.057-2.602 4.904 4.904 0 0 0-2.563-2.626 4.393 4.393 0 0 0-3.177.325c-1.041.48-2.457 1.369-2.611 2.268a8.65 8.65 0 0 0 .802 4.488c.218.527 1.571.586 2.516.895-.195-1.367-.639-2.346-.319-2.84.301-.455 1.397-.404 2.691-.71h-.002Zm33.305-67.022c3.187-1.141 4.283-3.334 3.337-6.239-.523-1.606-2.983-2.198-5.879-1.407a4.17 4.17 0 0 0-2.378 2.04 4.14 4.14 0 0 0-.274 3.114c.582 1.379 1.523 3.023 3.718 2.261-1.004-3.135-.823-3.382 1.974-2.808a533.807 533.807 0 0 0-.497 3.039h-.001Zm.384 35.181c2.646-.705 3.739-2.729 2.96-5.911-.523-2.139-2.56-2.113-4.041-1.963-3.511.353-5.1 2.211-4.537 5.077.354 1.806 1.487 3.087 3.508 2.84a11.728 11.728 0 0 1-.058-2.668c.056-.284.914-.413 1.404-.618l.764 3.243Zm-36.082-23.864c-.212-1.006-.676-1.874-.42-2.378.248-.475 1.24-.565 2.279-.97l-.414 3.607c3.099-.677 4.276-2.485 3.708-5.433-.371-1.91-2.857-2.841-5.904-2.199-2.191.459-3.423 2.69-2.688 5.247.464 1.603 1.434 2.79 3.441 2.124l-.002.002Zm35.685 82.845c3.222-1.095 4.276-3.154 3.362-6.174-.487-1.618-2.917-2.223-5.824-1.456-.987.322-1.817 1-2.327 1.901a4.121 4.121 0 0 0-.428 2.967 3.029 3.029 0 0 0 1.33 2.006 3.06 3.06 0 0 0 2.376.42c-.932-2.995-.763-3.228 2.034-2.693l-.523 3.029Zm-35.041-35.563c-2.113-1.729-1.221-2.666.894-4.028l.184 3.742c2.342 0 3.395-1.097 3.445-3.793.047-2.635-1.037-3.712-3.756-3.732-3.428-.024-4.903 1.177-4.912 4.004-.007 2.711.958 3.788 4.146 3.807h-.001Zm1.173 34.985a2.932 2.932 0 0 0 3.291-2.904c.189-1.631.347-3.384-1.686-4.268-1.916-.833-5.638-.318-6.232 1.359a8.48 8.48 0 0 0 .055 4.869c.22.775 1.347 2.5 2.582 1.283-.089-.931-.063-1.87.077-2.795.072-.247 1.031-.255 1.586-.37l.327 2.826Zm-1.818-46.924a15.808 15.808 0 0 1-.202-2.757c.011-.147 1.115-.209 1.708-.31v3.076c2.333.107 3.637-1.329 3.655-4.028.017-2.89-1.034-3.633-4.862-3.444-2.785.138-4.097 1.893-3.804 5.087.185 1.907 1.422 2.687 3.506 2.373l-.001.003Zm1.518 35.246c2.282.161 3.624-1.284 3.648-3.973.026-2.915-1.003-3.657-4.825-3.481-2.792.123-4.11 1.858-3.842 5.046.16 1.875 1.425 2.717 3.573 2.371l-.921-2.535 2.547-.389-.18 2.961Zm33.09-58.194a12.61 12.61 0 0 1-1.066-1.97c-.313-1.067 1.301-2.203 2.014-1.393.496.563.321 1.712.472 2.789 2.133.311 2.792-1.189 3.018-2.91.389-2.956-.496-4.359-2.705-4.685-2.672-.395-5.558 1.159-5.919 3.188-.47 2.633.753 4.318 4.19 4.977l-.004.004Zm1.133 35.362c3.081-1.482 4.125-3.864 3.291-6.403-.468-1.422-2.953-2.305-5.002-1.776-2.478.638-4.006 2.593-3.594 4.829a3.392 3.392 0 0 0 1.171 2.302 3.416 3.416 0 0 0 2.456.82 9.617 9.617 0 0 1-.113-2.937c.071-.268 1.428-.197 2.281-.291-.168 1.235-.291 2.089-.487 3.452l-.003.004Zm-35.985-59.396a9.528 9.528 0 0 1 .077-2.65c.096-.304 1.031-.344 1.585-.504l.354 2.858c2.25.064 3.416-1.201 3.394-3.98-.024-2.679-1.32-3.705-4.445-3.534-3.084.171-4.662 2.157-4.213 5.31.127.747.532 1.42 1.135 1.883a3.037 3.037 0 0 0 2.117.615l-.004.002Zm36.391 82.764c.862-.575 2.163-.988 2.278-1.605.311-1.69.674-3.738 0-5.159-1-2.099-3.372-1.468-5.154-.89a3.945 3.945 0 0 0-2.813 2.649 3.924 3.924 0 0 0 .811 3.772 7.528 7.528 0 0 0 2.371 1.222v-2.919l1.995-.562.512 3.492Zm-.053-70.932c2.687-.529 3.056-1.142 3.003-4.557-.026-1.645-.583-2.75-2.323-3.004-3.301-.476-5.714.441-6.205 2.628-.372 1.672-.62 3.573 1.43 4.558.806.276 1.636.477 2.479.599l-1.381-2.47 2.207-.988c.266 1.075.53 2.153.794 3.232l-.004.002Zm-34.337 11.508c1.936.139 3.364-1.295 3.407-3.758.049-2.855-1.084-3.793-4.503-3.729-3.05.058-4.411 1.693-4.162 4.994.148 1.941 1.332 2.75 3.594 2.46l-1.001-2.678c.999 0 2.238-.232 2.367.046.249.865.351 1.765.302 2.664l-.004.001Zm34.379 23.76c2.619-.587 3.346-1.766 2.926-5.087-.268-2.099-1.721-2.566-3.624-2.518-3.222.081-4.853 1.119-5.009 3.494-.124 1.81.071 3.568 2.231 4.167a5.574 5.574 0 0 0 1.735-.166l-1.439-2.147 2.615-.873c.182.977.357 1.956.568 3.128l-.003.002Zm-.011 23.688c2.703-.917 3.718-2.946 2.894-5.787-.486-1.669-3.208-2.484-5.847-1.752a4.018 4.018 0 0 0-2.357 1.915 3.997 3.997 0 0 0-.339 3.012c.485 1.664 1.479 3.081 3.453 2.593a11.825 11.825 0 0 1 .068-2.705c.072-.281.929-.36 1.428-.53l.7 3.254Zm-25.099.361.272-3.608 1.908 3.071a4.017 4.017 0 0 0 2.397-2.091 3.985 3.985 0 0 0 .117-3.173 3.705 3.705 0 0 0-1.561-2.054 3.719 3.719 0 0 0-2.529-.539c-2.442.133-3.992 2.123-3.99 4.747.005 2.38.934 3.33 3.385 3.644l.001.003Zm58.326 11.068c2.495.147 3.246-.783 3.159-3.896-.074-2.697-1.356-3.783-4.176-3.549a4.537 4.537 0 0 0-3.037 1.671 4.501 4.501 0 0 0-.959 3.322c.393 2.534 1.748 3.427 4.329 2.739l-1.788-2.346 2.85-.754c-.163 1.204-.268 2.012-.378 2.812v.001Zm.248-58.883c2.326.089 3.098-.928 2.916-4.183a3.636 3.636 0 0 0-4.313-3.294 4.613 4.613 0 0 0-3.044 1.876 4.576 4.576 0 0 0-.778 3.482c.552 2.426 1.768 3.115 4.246 2.346l-1.765-2.413c.96-.141 2.025-.458 2.113-.283.306.795.514 1.623.62 2.468l.005.001Zm-25.503-2.044a11.737 11.737 0 0 1 2.004-.504c.329.846.59 1.717.78 2.605 2.325-.077 3.091-1.17 2.863-4.356a3.697 3.697 0 0 0-1.518-2.553 3.723 3.723 0 0 0-2.912-.624 4.537 4.537 0 0 0-2.857 1.757c-.692.929-1 2.086-.861 3.234.414 2.254 1.314 3.721 4.354 2.795l-1.853-2.354Zm-31.185-9.443a4.064 4.064 0 0 0 2.537-1.925 4.028 4.028 0 0 0 .361-3.156 4.706 4.706 0 0 0-3.859-2.95c-2.851.306-4.366 2.214-4.319 5.227.041 2.499 1.667 3.001 3.552 3.334.934-1.315-2.279-2.807.904-3.994.274 1.176.528 2.237.821 3.463l.003.001Zm31.141 68.211 2.936-.575-.429 2.816c2.632-.041 3.387-1.103 3.184-4.322-.149-2.383-1.611-3.475-4.281-3.198a4.485 4.485 0 0 0-2.838 1.556 4.456 4.456 0 0 0-1.046 3.056c.431 2.877 1.507 3.719 4.371 3.239l-1.897-2.572Zm-31.603-56.556c2.894-.584 4.001-2.371 3.323-4.877a4.198 4.198 0 0 0-2.096-2.465 4.239 4.239 0 0 0-3.233-.251 4.666 4.666 0 0 0-2.614 6.075 2.823 2.823 0 0 0 1.45 1.713 2.836 2.836 0 0 0 2.244.123l-1.107-3.039c2.942-.528 2.359 1.122 2.025 2.722l.008-.001Zm57.195 35.222a2.241 2.241 0 0 0 1.822-.334 2.222 2.222 0 0 0 .94-1.591c.372-1.898.592-4.036-1.735-5.205a4.16 4.16 0 0 0-4.994.851 4.371 4.371 0 0 0-.507 5.82c.71.768 2.1.909 3.307 1.382l-.951-3.326a6.825 6.825 0 0 1 1.447-.247c.281.869.502 1.755.662 2.653l.009-.003Zm-22.753-.07c2.339-.115 3.098-1.235 2.85-4.406a3.75 3.75 0 0 0-1.413-2.367 3.776 3.776 0 0 0-2.654-.768c-2.652.342-4.663 2.716-4.051 5.145.743 2.943 1.279 3.394 4.018 2.818l-.95-2.698a8.726 8.726 0 0 1 1.435-.339c.306.856.559 1.73.756 2.617l.009-.002Zm22.264 12.322a13.714 13.714 0 0 1-1.643-1.507c-.781-1.061.203-2.403 1.141-1.646.657.531.722 1.794 1.079 2.808 2.388-.237 3.083-1.315 2.787-4.816-.176-2.073-1.771-2.964-4.719-2.634a4.473 4.473 0 0 0-2.509 1.6 4.45 4.45 0 0 0-.947 2.815c.239 2.617 1.67 3.797 4.803 3.382l.008-.002Zm-23.299-70.871c-.115-.274-.166-.412-.23-.542-.331-.672-.665-1.342-1.003-2.012l1.471-.51c.158.665.283 1.34.482 1.992.189.516.405 1.021.648 1.514 2.664-2.382 3.337-5.186 1.885-6.856a4.028 4.028 0 0 0-2.901-1.502 4.046 4.046 0 0 0-3.066 1.132 4.73 4.73 0 0 0-.634 6.226c.877.943 2.012 1.646 3.342.559l.006-.001Zm-32.953 46.986a4.062 4.062 0 0 0 3.031-3.446 4.04 4.04 0 0 0-.13-1.607c-.496-2.024-3.031-3.158-5.453-2.44a4.496 4.496 0 0 0-2.481 2.311 4.47 4.47 0 0 0-.152 3.382c.521 1.759 1.686 2.747 3.653 2.157.438-1.278-2.304-2.565.689-3.841l.843 3.484Zm32.854-11.142c-.443-1-.818-2.029-1.124-3.079a6.87 6.87 0 0 1 1.363-.607 8.81 8.81 0 0 0 .529 2.113c.224.424.977.988 1.278.889a3.955 3.955 0 0 0 1.976-2.258 3.937 3.937 0 0 0-.181-2.99 5.549 5.549 0 0 0-3.62-2.435c-1.842-.346-4.338 1.925-4.304 3.849a7.88 7.88 0 0 0 1.557 3.951c.34.506 1.597.387 2.526.571v-.004Zm-32.803-.876c1.587.475 2.408-.864 2.736-2.222.464-1.921.26-3.853-1.838-4.94a3.92 3.92 0 0 0-5.132 1.112c-1.307 1.448-1.62 4.134-.379 5.484a9 9 0 0 0 2.79 1.412c-.111-1.514-.22-2.42-.194-3.321 0-.124.992-.354 1.002-.317.35.823.632 1.68 1.01 2.792h.005Zm34.404 59.43c2.465-2.018 3.222-4.832 1.816-6.551a4.094 4.094 0 0 0-4.697-1.328 4.083 4.083 0 0 0-1.451.94 4.924 4.924 0 0 0-.458 6.274 1.987 1.987 0 0 0 1.439.88 1.992 1.992 0 0 0 1.6-.536 13.918 13.918 0 0 1-1.093-2.171c-.052-.159.632-.795.991-.81 2.811-.11-.078 2.756 1.853 3.302Zm22.769-94.173c2.469-2.015 3.23-4.827 1.819-6.545a4.093 4.093 0 0 0-4.696-1.331 4.095 4.095 0 0 0-1.452.94 4.939 4.939 0 0 0-.461 6.274c.161.243.374.447.623.599a2.011 2.011 0 0 0 1.679.191c.277-.093.53-.245.742-.446a13.965 13.965 0 0 1-1.097-2.165c-.052-.16.63-.798.991-.813 2.817-.121-.075 2.746 1.851 3.295l.001.001Zm-1.493 93.878c-.14-.247-.211-.371-.284-.494l-1.07-1.823 1.398-.71c.206.692.394 1.39.626 2.076.153.449.372.877.583 1.372 2.632-2.001 3.47-4.869 2.106-6.612a4.07 4.07 0 0 0-2.955-1.641 4.068 4.068 0 0 0-3.18 1.147 4.688 4.688 0 0 0-.548 6.239c.895.917 2.022 1.704 3.322.444l.002.002Zm-.124-58.271a24.448 24.448 0 0 1-1.1-3.074c.431-.249.889-.45 1.364-.6.083.726.258 1.439.52 2.121.221.423.983.988 1.284.875a3.929 3.929 0 0 0 1.79-5.25 5.569 5.569 0 0 0-3.629-2.427c-1.842-.341-4.338 1.937-4.298 3.857a7.888 7.888 0 0 0 1.566 3.952c.34.499 1.596.374 2.501.544l.002.002Zm-55.988 22.707c2.727-.346 3.764-1.841 3.288-4.456a3.907 3.907 0 0 0-.601-1.42 3.952 3.952 0 0 0-4.082-1.639 4.585 4.585 0 0 0-2.977 2.163 4.567 4.567 0 0 0-.418 3.648c.538 1.705 1.563 2.957 3.704 2.033-.372-.997-.703-1.906-1.091-2.964 2.647.033 2.647.033 2.176 2.634l.001.001Zm33.858 12.404c-.733-.688-1.215-.959-1.406-1.366a3.512 3.512 0 0 1-.267-1.679 1.459 1.459 0 0 1 1.142-.247c.435.349.768.808.964 1.329.185.557.32 1.13.402 1.711.655-.395 1.806-.718 1.876-1.196.248-1.714.62-3.67.027-5.187-.794-2.043-3.091-1.331-4.735-1.111-1.696.228-3.141 3.002-2.791 4.702.492 2.401 1.69 3.295 4.787 3.043l.001.001Zm23.401-23.888c1.595.45 2.377-1.006 2.603-2.34.29-1.711.71-3.784-1.448-4.843a4.376 4.376 0 0 0-5.437.988c-1.665 1.656-1.346 3.457-.421 5.237.763 1.472 1.685 1.652 3.594.953l-1.817-2.139 2.075-.794.851 2.938Zm-56.876 35.193a4.17 4.17 0 0 0 2.564-2.042 4.142 4.142 0 0 0 .287-3.258c-.62-1.688-3.52-2.825-5.523-2.162a4.629 4.629 0 0 0-2.443 2.509 4.605 4.605 0 0 0 .017 3.496c.648 1.611 1.845 2.33 3.948 1.758-.938-1.358-2.197-2.52.265-3.898.325 1.303.582 2.357.885 3.591v.006Zm33.958-35.37c2.001.144 2.898-.907 2.874-3.734-.025-2.848-1.354-4.012-4.256-3.725a4.482 4.482 0 0 0-2.855 1.545 4.45 4.45 0 0 0-1.055 3.062c.396 2.652 1.877 3.767 4.337 3.125l-1.872-2.43 2.259-.548.568 2.705Zm-34.245-47.314c1.786.695 2.581-.554 2.982-1.813.609-1.916.427-3.872-1.488-5.062-1.85-1.146-3.571-.741-5.194.723-1.819 1.638-1.581 3.491-.769 5.396a2.158 2.158 0 0 0 1.295 1.369c.306.117.633.162.959.134.326-.027.641-.128.922-.295l-.979-2.918c2.58-.163 2.58-.163 2.276 2.46l-.004.006Zm-.274 94.145c2.492.123 3.438-.865 3.477-3.245a3.716 3.716 0 0 0-1.008-3.056 3.75 3.75 0 0 0-3.018-1.143 4.543 4.543 0 0 0-3.24 1.704 4.507 4.507 0 0 0-.912 3.536c.239 2.209 1.351 3.014 3.701 2.689l-1.012-2.996c2.579-.428 2.884.578 2.016 2.505l-.004.006Zm34.604-82.082c2.3-.282 3.316-1.899 2.772-4.867-.371-2.029-2.659-3.179-5.133-2.582a4.476 4.476 0 0 0-2.402 2.146 4.45 4.45 0 0 0-.331 3.198c.825 2.593 1.736 3.132 4.042 2.278l-1.819-2.139 2.085-.789c.241.829.479 1.661.79 2.749l-.004.006Zm22.833.083c2.373-.604 3.346-2.33 2.699-5.127-.448-1.928-3.046-3.094-5.294-2.38a4.777 4.777 0 0 0-2.213 2.073 4.744 4.744 0 0 0-.513 2.982c.695 2.563 1.819 3.294 3.903 2.703l-.976-2.882c.496-.079 1.363-.336 1.426-.21.387.923.712 1.87.972 2.836l-.004.005Z"></path><path fill="#fff" d="M349.326 61.064c0 1.852.027 3.704 0 5.557-.15 8.34-.31 16.68-.482 25.02-.153 7.617-.372 15.231-.471 22.845-.196 14.055-.314 28.108-.496 42.163-.124 9.385-.31 18.77-.48 28.155-.151 8.34-.311 16.68-.482 25.02a25961.3 25961.3 0 0 0-.481 26.469c-.174 10.353-.247 20.707-.525 31.055-.124 4.61-3.138 6.586-7.808 6.849-8.267.463-16.566.506-24.85.551-37.273.199-74.546.356-111.819.47-12.16.026-24.323-.273-36.484-.462-7.802-.123-15.602-.321-23.404-.472-8.85-.17-17.702-.347-26.554-.48-12.08-.183-24.167-.315-36.243-.494-9.577-.142-19.156-.258-28.732-.515a56 56 0 0 1-9.234-.935c-6.524-1.278-8.121-5.143-8.726-9.831a151.05 151.05 0 0 1-1.037-18.145c-.124-16.499-.103-32.999-.024-49.498.05-10.353.284-20.704.471-31.056.124-6.972.331-13.944.472-20.916.179-8.741.372-17.484.48-26.225.194-15.422.307-30.847.504-46.268.103-8.019.143-16.044.54-24.05.232-4.712 1.126-9.632 5.967-11.875a25.903 25.903 0 0 1 9.637-2.118c9.89-.405 19.798-.476 29.698-.558 24.031-.201 48.062-.45 72.093-.46 20.638-.01 41.279.259 61.917.461 7.479.073 14.959.3 22.432.47 6.429.15 12.858.334 19.287.478 7.882.176 15.763.382 23.648.475 17.247.2 34.497.215 51.742.578 4.214.089 8.559.158 12.53 2.267a11.367 11.367 0 0 1 4.454 3.847 11.3 11.3 0 0 1 1.923 5.553c.48 5.335.534 10.707.774 16.063l-.237.012ZM35.861 212.673c0 16.257-.017 32.514.037 48.77 0 1.023.264 2.579.93 2.949 1.231.685 2.536.02 3.54-1.177 1.644-1.956 3.402-3.828 5.184-5.657 1.408-1.447 2.542-3.178 5.22-2.537a94.119 94.119 0 0 0 12.58 2.241c5.808.577 11.659.73 17.494 1.025 6.8.344 13.6.667 20.404.968 7.608.339 15.216.673 22.825.963 9.143.351 18.286.657 27.429.972 5.055.174 10.111.335 15.168.483 5.298.165 10.596.326 15.894.484 5.863.168 11.726.479 17.588.457 24.192-.096 48.382-.255 72.572-.475 3.604-.029 7.212-.223 10.806-.494 7.794-.582 15.592-1.149 23.366-1.939 5.675-.577 11.306-1.554 16.971-2.248 2.779-.34 5.677-.974 8.364-.531 4.301.713 6.225 4.172 7.494 8.074.261.805 1.444 1.314 2.2 1.958.348-.783 1.003-1.57.992-2.346-.057-4.479-.429-8.954-.406-13.43.09-16.146.246-32.292.47-48.437.073-5.767.307-11.528.47-17.288.322-11.367.647-22.733.975-34.1.124-4.235.337-8.47.472-12.705.182-5.68.389-11.361.479-17.051.202-12.605.462-25.21.462-37.815 0-12.605-.167-25.211-.517-37.813-.124-4.227-1.642-7.121-6.143-8.226a24.904 24.904 0 0 0-5.453-.559c-11.352-.2-22.707-.337-34.06-.503-10.707-.156-21.414-.475-32.122-.45-20.077.046-40.145.325-60.218.424-4.49.02-8.982-.315-13.473-.451-5.862-.18-11.725-.33-17.588-.487-6.268-.166-12.536-.48-18.801-.453-15.391.066-30.781.273-46.17.457-10.87.131-21.738.38-32.608.46-10.658.081-21.316-.169-31.974.096-5.49.138-7.652.784-8.588 6.627a76.569 76.569 0 0 0-.79 11.188c-.223 19.928-.325 39.857-.527 59.785-.08 7.937-.322 15.874-.466 23.811-.177 9.707-.418 19.413-.468 29.122-.078 15.277-.014 30.57-.014 45.858ZM435.508 168.365c-.012-3.155 1.286-4.682 4.023-4.725a5.058 5.058 0 0 1 3.743 1.448 5.02 5.02 0 0 1 1.494 3.714 4.504 4.504 0 0 1-1.386 3.289 4.534 4.534 0 0 1-3.349 1.259c-2.626.071-4.51-2.004-4.525-4.985Z"></path><path fill="#000" d="M436.752 57.657a15.955 15.955 0 0 0 3.086-9.852c.052-2.904-.628-5.815-.809-8.733a9.707 9.707 0 0 1 .691-2.815c.712.681 1.838 1.246 2.069 2.062a31.11 31.11 0 0 1-1.153 20.297c-4.646 11.63-13.212 19.322-25.675 21.287-9.117 1.438-18.278.149-25.994-5.673a26.414 26.414 0 0 1-7.139-7.917 26.332 26.332 0 0 1-3.42-10.083 62.887 62.887 0 0 1-.463-7.14c-.011-.563.557-1.138.858-1.707.327.47.849.902.948 1.415.402 2.086.605 4.208 1.013 6.298a18.9 18.9 0 0 0 7.736 11.911c-8.524-14.456-9.304-28.127 3.299-39.844 8.248-7.668 22.141-8.366 32.551-1.954 8.488 5.22 16.886 13.79 12.402 32.448ZM410.851 71.45c11.517 1.057 22.983-12.26 23.347-22.103.496-13.411-11.244-24.413-23.882-24.174-13.679.258-23.942 9.774-24.053 22.662-.11 13.56 9.531 23.615 24.596 23.615h-.008ZM430.826 132.524c8.129-6.559 8.823-15.743 8.603-25.241l.678-.326a9.4 9.4 0 0 1 1.637 2.286c1.989 6.094 1.023 12.023-1.256 17.831a31.642 31.642 0 0 1-7.312 11.515 24.743 24.743 0 0 1-12.542 6.85c-10.605 1.99-20.682.796-30.04-4.94-4.74-2.905-7.334-7.385-9.11-12.333a97.232 97.232 0 0 1-3.027-11.608c-.183-.816.392-1.803.62-2.71l1.031-.016c.3 1.752.69 3.489 1.166 5.202 1.195 3.632 2.449 7.254 3.902 10.788a6.568 6.568 0 0 0 2.843 2.666l-1.922-4.788c-3.829-9.603-3.43-18.857 2.441-27.586 3.47-5.166 8.613-7.883 14.554-9.085a33.932 33.932 0 0 1 18.832.907c7.632 2.809 11.441 8.732 13.596 16.14 2.598 8.954-.587 16.734-4.694 24.448Zm2.393-16.099c-.848-3.753-1.315-7.644-2.636-11.222a15.986 15.986 0 0 0-3.827-6.073 16.055 16.055 0 0 0-6.107-3.794 27.93 27.93 0 0 0-15.645-.784c-10.428 2.18-16.523 9.437-16.979 19.642-.346 7.79 3.028 13.977 9.047 18.522 6.092 4.609 12.947 6.668 20.761 4.551 8.882-2.396 15.372-10.967 15.387-20.842h-.001ZM432.565 209.873c-1.107-.768-2.85-1.337-3.168-2.346a6.121 6.121 0 0 1 .418-4.769 5.331 5.331 0 0 1 4.282-1.72 4.324 4.324 0 0 1 3.483 2.408 4.289 4.289 0 0 1-.261 4.217c-.454.822-1.697 1.235-2.634 1.729a3.427 3.427 0 0 1-.867-1.204 9.854 9.854 0 0 1-.329-1.859l-1.036.232c.17.596.347 1.191.505 1.791.047.229.081.462.1.695l-.493.826ZM433.282 244.54a3.31 3.31 0 0 1-3.561-.977c-.284-.33-.5-.714-.634-1.128a4.413 4.413 0 0 1 1.363-5.161c1.434-1.405 4.442-1.184 6.112.14a4.392 4.392 0 0 1 .721 5.641c-.549.799-1.78 1.133-2.7 1.68-.161-.695-.272-1.406-.495-2.078a2.978 2.978 0 0 0-.733-1.141c-.099-.096-.721.088-.787.262-.137.389-.152.81-.046 1.209.208.539.462 1.058.76 1.553ZM433.736 267.772l.42-2.458c-2.155.046-2.155.046-1.125 2.647a2.684 2.684 0 0 1-3.522-1.415 4.158 4.158 0 0 1 .607-5.42 4.537 4.537 0 0 1 5.888-.549 4.044 4.044 0 0 1 1.739 2.101c.319.88.321 1.842.007 2.724-.607 1.759-1.693 3.076-4.014 2.37ZM433.795 232.518l.326-2.703c-3.687.211-.471 2.174-1.128 3.064a3.978 3.978 0 0 1-2.864-.964 3.952 3.952 0 0 1-1.35-2.695 4.457 4.457 0 0 1 1.345-3.423 4.49 4.49 0 0 1 3.468-1.257 4.473 4.473 0 0 1 2.986 1.249 4.439 4.439 0 0 1 1.351 2.932c-.085 2.835-1.357 4.025-4.134 3.797ZM398.759 268.455c-3.525-1.097-4.68-3.053-3.818-5.958a4.326 4.326 0 0 1 2.097-2.353 4.35 4.35 0 0 1 3.144-.311c2.644.565 3.842 2.387 3.307 5.372-.343 1.927-1.331 3.239-3.652 2.58-.434-.895 1.372-3.045-1.611-2.569.167 1.012.326 1.972.533 3.239ZM432.966 220.957c-2.492.156-4.063-1.173-4.186-3.432a4.171 4.171 0 0 1 .822-2.986 4.2 4.2 0 0 1 2.659-1.605c4.668-.662 6.664 3.202 5.116 6.147a5.447 5.447 0 0 1-2.247 1.908c-.223.124-1.141-.559-1.392-1.049a6.045 6.045 0 0 1-.273-2.017c-.353.09-.697.211-1.028.361.138.769.372 1.52.575 2.279.002.133-.014.265-.046.394ZM399.648 232.47c.213-1.262 1.125-2.81-1.413-2.578l.476 3.289c-3.594-1.342-4.634-3.088-3.765-5.959.619-2.041 2.884-3.142 5.491-2.667 2.275.414 3.448 2.438 3.082 5.31-.258 2.023-1.261 2.744-3.871 2.605ZM433.164 279.82c-2.755.139-4.27-1.101-4.391-3.376a4.064 4.064 0 0 1 .883-3.104 4.089 4.089 0 0 1 2.871-1.492c4.834-.549 6.244 3.063 4.834 6.142a5.54 5.54 0 0 1-2.249 1.924c-.123.079-.979-.729-1.26-1.253a6.675 6.675 0 0 1-.405-1.845c-.346.098-.992.198-.992.292.028.635.117 1.266.264 1.885.118.291.267.569.445.827ZM433.736 197.686l.397-2.924c-2.042.124-2.015.114-1.446 1.635.066.4.061.808-.015 1.205-.416.036-.835 0-1.239-.106a3.857 3.857 0 0 1-2.603-4.124 4.274 4.274 0 0 1 1.115-2.7 4.3 4.3 0 0 1 2.593-1.359 4.385 4.385 0 0 1 5.046 2.739 3.825 3.825 0 0 1-1.185 4.692 8.305 8.305 0 0 1-2.663.942ZM433.682 292.161l.461-3.416c-1.411.097-2.526.063-1.543 1.728.13.39.185.8.163 1.209-.481-.014-1.062.144-1.431-.068-2.736-1.567-3.212-3.386-1.818-6.174 1.067-2.135 4.566-2.658 6.543-1.19a4.078 4.078 0 0 1 1.851 2.934 4.07 4.07 0 0 1-1.085 3.293 12.715 12.715 0 0 1-3.141 1.684ZM433.676 256.186c.35-1.431 1.246-3.087-1.746-2.538l1.162 2.593a3.587 3.587 0 0 1-4.31-3.239 4.447 4.447 0 0 1 .979-3.185 4.485 4.485 0 0 1 2.922-1.621c3.009-.116 5.372 1.805 5.243 4.266-.135 2.584-1.567 3.912-4.25 3.724ZM399.709 208.881c.485-2.339.485-2.339-1.461-2.584l.459 3.197c-3.223-.647-4.356-2.361-3.842-5.39.331-1.937 2.988-3.603 5.117-3.21 2.769.516 4.04 2.455 3.508 5.711-.322 1.983-1.648 2.733-3.781 2.276ZM399.951 221.012c-.101-1.134-.177-2.075-.316-3.004a2.976 2.976 0 0 0-.959.07c-.141.864-.186 1.742-.275 2.862-1.943.705-2.926-.964-3.444-2.346a4.608 4.608 0 0 1 .389-3.802 4.648 4.648 0 0 1 3.128-2.213c1.844-.362 4.72 1.386 5.043 3.063.632 3.313-.325 4.77-3.566 5.37ZM398.601 280.022c-3.184-.767-3.916-1.694-3.746-4.465a4.622 4.622 0 0 1 1.136-2.68 4.657 4.657 0 0 1 2.515-1.477c1.618-.218 4.439 1.35 4.95 2.749a4.434 4.434 0 0 1-1.869 5.408c-1.159.634-1.796.493-1.865-.945-.029-.606-.143-1.208-.219-1.81-.285.054-.804.076-.816.169a16.367 16.367 0 0 0-.086 1.917c-.003.303 0 .609 0 1.134ZM398.413 197.24c-2.43.124-3.497-.864-3.551-3.375-.071-3.126 1.328-4.587 4.381-4.576 3.052.011 4.371 1.434 4.284 4.6-.07 2.613-.991 3.471-3.544 3.356-.108-.906-.18-1.805-.372-2.681-.024-.112-.644-.097-.991-.14l-.207 2.816ZM398.697 291.343c-2.571.277-3.761-.767-3.833-3.225-.097-3.232 1.343-4.708 4.542-4.656 3.075.05 4.489 1.853 4.121 5.241-.234 2.154-1.422 2.981-3.618 2.625-.056-.877.192-1.955-.238-2.525-.694-.922-1.592-.148-1.336 1.227.081.438.234.861.362 1.313ZM400.207 244.222l-.992-2.979-1.011.274.431 3.068c-2.868-.234-4.09-1.788-3.769-4.614a4.527 4.527 0 0 1 1.703-2.895 4.558 4.558 0 0 1 3.235-.933c2.872.392 4.291 2.493 3.69 5.795a2.473 2.473 0 0 1-1.066 1.968 2.5 2.5 0 0 1-2.221.316ZM398.7 256.06a3.212 3.212 0 0 1-2.553-.545 3.175 3.175 0 0 1-1.289-2.262c-.248-2.964 1.075-4.939 3.371-5.047 3.669-.171 5.295 1.088 5.294 4.099 0 3.073-.846 3.973-3.46 3.861l-.496-2.987a7.713 7.713 0 0 0-1.213 1.583c-.131.322.213.847.346 1.298ZM377.872 229.449c-.576.079-1.759-.059-1.993.346-.343.594 0 1.578.077 3a8.963 8.963 0 0 1-2.661-1.158c-1.167-1.079-.947-4.711.151-5.778 1.48-1.435 5.492-1.729 6.907-.494 1.102.955 1.346 4.505.184 5.785a8.708 8.708 0 0 1-2.529 1.372c-.037-.892-.078-1.78-.136-3.073ZM378.465 264.442c-1.294.306-2.389.255-2.696.721-.32.485.123 1.468.318 2.84-.943-.309-2.298-.37-2.516-.895a8.647 8.647 0 0 1-.802-4.488c.154-.899 1.571-1.787 2.612-2.268a4.39 4.39 0 0 1 3.183-.33 4.899 4.899 0 0 1 2.563 2.627c.314.835.334 1.752.057 2.601a3.941 3.941 0 0 1-1.581 2.07 5.176 5.176 0 0 1-1.704.385c0-.55-.034-1.111.015-1.652.14-.551.324-1.09.551-1.611ZM411.775 197.425c.18-1.104.337-2.074.496-3.039-2.796-.574-2.975-.327-1.975 2.808-2.191.762-3.131-.883-3.717-2.261a4.135 4.135 0 0 1 .274-3.114 4.17 4.17 0 0 1 2.378-2.04c2.896-.791 5.356-.202 5.879 1.407.951 2.909-.146 5.098-3.335 6.239ZM412.157 232.609l-.762-3.243c-.496.2-1.348.327-1.404.618-.083.888-.063 1.784.058 2.668-2.016.256-3.154-1.029-3.508-2.84-.563-2.865 1.026-4.725 4.537-5.078 1.481-.149 3.518-.175 4.041 1.964.776 3.182-.316 5.209-2.962 5.911ZM376.082 208.735c-2.007.665-2.974-.521-3.439-2.124-.735-2.556.496-4.788 2.688-5.246 3.045-.639 5.535.288 5.904 2.198.568 2.948-.606 4.756-3.708 5.433l.414-3.607c-1.036.405-2.038.494-2.279.971-.258.505.208 1.373.42 2.375ZM411.758 291.578l.521-3.033c-2.799-.536-2.967-.302-2.035 2.693a3.062 3.062 0 0 1-3.249-1.286 3.045 3.045 0 0 1-.458-1.14 4.126 4.126 0 0 1 .428-2.967 4.152 4.152 0 0 1 2.327-1.901c2.911-.769 5.343-.162 5.825 1.456.917 3.02-.137 5.083-3.359 6.178ZM376.719 256.019c-3.187-.016-4.153-1.093-4.145-3.808.009-2.827 1.487-4.028 4.912-4.004 2.717.02 3.803 1.097 3.756 3.732-.05 2.696-1.102 3.8-3.445 3.794-.052-1.059-.103-2.133-.184-3.743-2.114 1.363-3.007 2.299-.894 4.029ZM377.891 291.007l-.327-2.824c-.556.123-1.515.123-1.587.37a11.517 11.517 0 0 0-.077 2.795c-1.239 1.217-2.362-.509-2.581-1.283a8.48 8.48 0 0 1-.056-4.869c.595-1.682 4.317-2.198 6.233-1.359 2.032.884 1.875 2.637 1.685 4.268a2.927 2.927 0 0 1-.989 2.19 2.944 2.944 0 0 1-2.301.712ZM376.083 244.078c-2.084.315-3.322-.466-3.5-2.376-.293-3.193 1.019-4.949 3.804-5.088 3.829-.188 4.879.555 4.862 3.444-.018 2.699-1.321 4.136-3.659 4.029v-3.076c-.596.102-1.695.164-1.708.309-.013.924.054 1.846.201 2.758ZM377.599 279.325l.181-2.964-2.547.389.921 2.535c-2.148.34-3.413-.494-3.573-2.371-.269-3.188 1.049-4.921 3.842-5.047 3.822-.175 4.851.567 4.825 3.481-.024 2.692-1.367 4.143-3.649 3.977ZM410.683 221.134c-3.438-.66-4.661-2.347-4.186-4.983.363-2.029 3.247-3.581 5.92-3.187 2.21.326 3.098 1.729 2.705 4.685-.227 1.721-.885 3.221-3.018 2.909-.151-1.077.024-2.223-.472-2.788-.712-.811-2.328.326-2.014 1.393a12.66 12.66 0 0 0 1.065 1.971ZM411.813 256.496l.496-3.458c-.854.094-2.211.024-2.282.292a9.61 9.61 0 0 0 .113 2.936 3.421 3.421 0 0 1-2.456-.819 3.395 3.395 0 0 1-1.17-2.303c-.418-2.235 1.115-4.189 3.594-4.829 2.048-.529 4.533.354 5.002 1.777.835 2.54-.215 4.928-3.297 6.404ZM375.836 197.1a3.036 3.036 0 0 1-2.12-.616 3.012 3.012 0 0 1-1.134-1.887c-.444-3.149 1.134-5.134 4.213-5.309 3.125-.176 4.422.855 4.444 3.534.024 2.781-1.143 4.045-3.393 3.98-.124-.988-.238-1.921-.354-2.858-.553.159-1.487.2-1.585.504a9.542 9.542 0 0 0-.071 2.652ZM412.222 279.86l-.515-3.493-1.996.561v2.92a7.494 7.494 0 0 1-2.37-1.223 3.924 3.924 0 0 1 .246-5.463 3.956 3.956 0 0 1 1.755-.958c1.782-.578 4.154-1.204 5.154.89.678 1.422.317 3.469 0 5.159-.111.624-1.415 1.032-2.274 1.607ZM412.173 208.931l-.789-3.235-2.207.988 1.381 2.469a13.633 13.633 0 0 1-2.479-.598c-2.052-.988-1.805-2.886-1.431-4.558.496-2.188 2.904-3.105 6.205-2.628 1.735.247 2.296 1.358 2.323 3.003.052 3.416-.317 4.029-3.003 4.559ZM377.838 220.442a8.08 8.08 0 0 0-.303-2.665c-.124-.279-1.363-.045-2.367-.045l1.001 2.677c-2.258.29-3.442-.52-3.594-2.46-.247-3.302 1.116-4.939 4.162-4.994 3.419-.064 4.552.874 4.504 3.729-.039 2.469-1.466 3.898-3.403 3.758ZM412.212 244.197l-.567-3.128-2.615.873 1.439 2.147a5.571 5.571 0 0 1-1.735.166c-2.16-.599-2.348-2.357-2.231-4.167.155-2.376 1.792-3.413 5.01-3.494 1.902-.049 3.355.416 3.623 2.518.426 3.319-.304 4.497-2.924 5.085ZM412.198 267.887l-.7-3.258c-.496.171-1.356.247-1.428.53a11.947 11.947 0 0 0-.068 2.706c-1.975.493-2.974-.927-3.453-2.594a3.997 3.997 0 0 1 .342-3.01 4.024 4.024 0 0 1 2.358-1.913c2.641-.732 5.362.083 5.847 1.752.82 2.84-.196 4.871-2.898 5.787ZM387.096 268.25c-2.453-.317-3.38-1.266-3.381-3.644 0-2.624 1.548-4.613 3.989-4.747a3.723 3.723 0 0 1 2.529.539 3.696 3.696 0 0 1 1.561 2.054 3.99 3.99 0 0 1-.116 3.173 4.025 4.025 0 0 1-2.397 2.092l-1.909-3.071-.276 3.604ZM445.427 279.318c.107-.801.214-1.605.372-2.815l-2.851.753 1.789 2.346c-2.582.688-3.936-.205-4.329-2.739a4.51 4.51 0 0 1 .147-1.756 4.507 4.507 0 0 1 2.163-2.702 4.536 4.536 0 0 1 1.685-.534c2.821-.236 4.102.851 4.177 3.549.093 3.116-.657 4.045-3.153 3.898ZM445.671 220.435a10.517 10.517 0 0 0-.62-2.469c-.088-.176-1.153.142-2.113.282l1.765 2.413c-2.478.774-3.694.085-4.246-2.346a4.567 4.567 0 0 1 .778-3.482 4.614 4.614 0 0 1 3.044-1.876 3.666 3.666 0 0 1 2.896.686 3.631 3.631 0 0 1 1.417 2.609c.172 3.256-.594 4.272-2.921 4.183ZM420.165 218.393l1.85 2.353c-3.04.927-3.939-.54-4.353-2.794a4.499 4.499 0 0 1 .86-3.234 4.53 4.53 0 0 1 2.858-1.757 3.712 3.712 0 0 1 1.521.009 3.707 3.707 0 0 1 2.908 3.168c.228 3.185-.538 4.279-2.863 4.355a17.133 17.133 0 0 0-.779-2.604c-.681.109-1.351.277-2.002.504ZM388.981 208.947l-.825-3.458c-3.184 1.187.029 2.678-.905 3.994-1.885-.339-3.511-.84-3.551-3.335-.047-3.013 1.466-4.92 4.319-5.227.852.095 1.662.42 2.342.94a4.68 4.68 0 0 1 1.517 2.01 4.022 4.022 0 0 1-.364 3.153 4.054 4.054 0 0 1-2.533 1.923ZM420.118 277.157l1.897 2.568c-2.864.481-3.939-.362-4.371-3.239a4.458 4.458 0 0 1 1.046-3.055 4.484 4.484 0 0 1 2.838-1.557c2.67-.277 4.132.815 4.281 3.198.203 3.223-.552 4.285-3.184 4.322.124-.807.248-1.605.429-2.815l-2.936.578ZM388.515 220.603c.335-1.605.916-3.25-2.032-2.716l1.108 3.039a2.854 2.854 0 0 1-3.148-.831 2.836 2.836 0 0 1-.547-1.006 4.644 4.644 0 0 1 .041-3.578 4.671 4.671 0 0 1 2.573-2.497 4.231 4.231 0 0 1 3.233.251 4.214 4.214 0 0 1 2.096 2.466c.677 2.501-.429 4.288-3.324 4.872ZM445.711 255.829a20.072 20.072 0 0 0-.677-2.645c-.49.03-.975.113-1.448.247l.952 3.325c-1.207-.474-2.602-.617-3.307-1.381a4.374 4.374 0 0 1-.863-3.007 4.378 4.378 0 0 1 1.369-2.813 4.154 4.154 0 0 1 4.995-.851c2.332 1.168 2.117 3.307 1.735 5.205a2.223 2.223 0 0 1-1.812 1.948 2.227 2.227 0 0 1-.944-.028ZM422.956 255.76a21.967 21.967 0 0 0-.76-2.615 8.726 8.726 0 0 0-1.435.339l.949 2.698c-2.738.576-3.273.124-4.017-2.818-.613-2.426 1.399-4.804 4.051-5.145a3.777 3.777 0 0 1 2.654.768 3.75 3.75 0 0 1 1.413 2.367c.243 3.176-.518 4.291-2.855 4.406ZM445.223 268.078c-3.133.41-4.562-.765-4.812-3.382a4.443 4.443 0 0 1 .946-2.814 4.476 4.476 0 0 1 2.509-1.6c2.95-.33 4.545.562 4.719 2.634.295 3.5-.399 4.578-2.788 4.816-.356-1.014-.42-2.278-1.077-2.809-.938-.756-1.922.586-1.142 1.647a13.817 13.817 0 0 0 1.645 1.508ZM421.921 197.206c-1.329 1.087-2.465.383-3.346-.563a4.734 4.734 0 0 1 .635-6.226 4.04 4.04 0 0 1 3.066-1.132 4.039 4.039 0 0 1 2.901 1.502c1.453 1.67.78 4.474-1.885 6.856a15.413 15.413 0 0 1-.648-1.514c-.2-.653-.326-1.327-.482-1.992l-1.471.51c.33.671.664 1.341 1.002 2.012.064.136.113.273.228.547ZM388.976 244.192l-.849-3.482c-2.992 1.274-.248 2.562-.689 3.84-1.967.59-3.132-.398-3.654-2.157a4.471 4.471 0 0 1 .153-3.381 4.49 4.49 0 0 1 2.481-2.312c2.427-.717 4.957.416 5.453 2.44a4.048 4.048 0 0 1-1.442 4.347 4.09 4.09 0 0 1-1.453.705ZM421.831 233.054c-.929-.179-2.187-.061-2.527-.562a7.89 7.89 0 0 1-1.558-3.951c-.033-1.924 2.464-4.199 4.305-3.849a5.562 5.562 0 0 1 3.62 2.435c.452.934.517 2.008.181 2.99a3.955 3.955 0 0 1-1.976 2.258c-.301.105-1.055-.463-1.278-.889a8.81 8.81 0 0 1-.529-2.113 6.87 6.87 0 0 0-1.363.607 24.518 24.518 0 0 0 1.125 3.074ZM389.025 232.177c-.383-1.112-.664-1.97-1.015-2.796-.016-.037-.992.194-1.002.316-.026.902.082 1.808.194 3.322a9.002 9.002 0 0 1-2.79-1.413c-1.239-1.349-.929-4.035.379-5.484a3.92 3.92 0 0 1 5.132-1.111c2.1 1.085 2.303 3.017 1.838 4.939-.328 1.361-1.147 2.701-2.736 2.227ZM423.428 291.605c-1.931-.545.958-3.411-1.852-3.302-.362.015-1.046.651-.991.81.3.754.666 1.481 1.093 2.171a1.998 1.998 0 0 1-3.039-.343 4.926 4.926 0 0 1 .457-6.274 4.09 4.09 0 0 1 4.828-.727 4.08 4.08 0 0 1 1.321 1.115c1.409 1.718.648 4.533-1.817 6.55ZM446.199 197.428c-1.926-.548.966-3.417-1.852-3.302-.362.015-1.043.653-.991.812.302.752.669 1.477 1.097 2.166a1.996 1.996 0 0 1-2.422.255 1.987 1.987 0 0 1-.622-.599 4.933 4.933 0 0 1 .461-6.275 4.107 4.107 0 0 1 3.163-1.195 4.094 4.094 0 0 1 2.985 1.587c1.41 1.724.649 4.536-1.819 6.551ZM444.701 291.308c-1.3 1.258-2.428.472-3.321-.448a4.69 4.69 0 0 1 .548-6.239 4.068 4.068 0 0 1 3.181-1.147 4.095 4.095 0 0 1 1.656.501c.51.283.953.672 1.298 1.14 1.364 1.743.523 4.611-2.106 6.612-.214-.494-.429-.923-.583-1.372-.232-.684-.42-1.385-.626-2.076l-1.398.71c.358.608.715 1.215 1.07 1.823l.281.496ZM444.582 233.036c-.904-.171-2.161-.046-2.499-.545a7.876 7.876 0 0 1-1.567-3.951c-.037-1.919 2.456-4.199 4.298-3.858a5.556 5.556 0 0 1 3.629 2.428c.456.933.524 2.008.189 2.991a3.944 3.944 0 0 1-1.979 2.258c-.301.109-1.063-.452-1.284-.874a8.666 8.666 0 0 1-.52-2.122c-.475.15-.933.351-1.364.6a24.419 24.419 0 0 0 1.097 3.073ZM388.593 255.745c.471-2.601.471-2.601-2.178-2.632.388 1.053.723 1.962 1.09 2.964-2.139.925-3.165-.328-3.703-2.033a4.555 4.555 0 0 1 1.679-5.04 4.578 4.578 0 0 1 1.716-.771 3.963 3.963 0 0 1 2.98.559 3.935 3.935 0 0 1 1.703 2.5c.477 2.61-.568 4.107-3.287 4.453ZM422.447 268.149c-3.099.247-4.296-.647-4.789-3.04-.349-1.702 1.096-4.474 2.791-4.703 1.646-.221 3.942-.934 4.735 1.112.588 1.511.22 3.468-.027 5.186-.069.478-1.221.803-1.876 1.197a9.658 9.658 0 0 0-.402-1.712 3.107 3.107 0 0 0-.964-1.329 1.454 1.454 0 0 0-1.141.247c-.051.573.041 1.15.266 1.68.191.404.676.675 1.407 1.362ZM445.847 244.26l-.85-2.935-2.075.794 1.817 2.139c-1.909.699-2.832.518-3.594-.953-.923-1.777-1.239-3.582.423-5.237a4.373 4.373 0 0 1 5.437-.988c2.157 1.059 1.735 3.131 1.447 4.843-.224 1.331-1.006 2.786-2.605 2.337ZM388.974 279.446l-.88-3.597c-2.463 1.378-1.203 2.539-.265 3.899-2.107.572-3.301-.147-3.949-1.759a4.615 4.615 0 0 1 2.427-6.005c2.003-.663 4.905.475 5.522 2.163a4.135 4.135 0 0 1-1.362 4.541 4.164 4.164 0 0 1-1.493.758ZM422.938 244.078l-.566-2.704-2.259.548 1.873 2.43c-2.464.643-3.945-.472-4.338-3.125a4.453 4.453 0 0 1 1.055-3.062 4.485 4.485 0 0 1 2.855-1.546c2.903-.286 4.231.876 4.256 3.726.022 2.825-.87 3.876-2.876 3.733ZM388.695 196.766c.305-2.623.305-2.623-2.276-2.47l.979 2.918a2.165 2.165 0 0 1-2.686-.375 2.158 2.158 0 0 1-.49-.833c-.813-1.905-1.05-3.757.77-5.396 1.622-1.458 3.346-1.869 5.194-.723 1.918 1.189 2.1 3.145 1.487 5.062-.397 1.262-1.191 2.511-2.978 1.817ZM388.418 290.908c.868-1.927.566-2.933-2.011-2.513l1.011 2.996c-2.354.324-3.461-.481-3.7-2.69a4.485 4.485 0 0 1 .912-3.535 4.519 4.519 0 0 1 3.239-1.704 3.751 3.751 0 0 1 3.87 2.557c.174.528.228 1.089.157 1.641-.041 2.39-.985 3.369-3.478 3.248ZM423.025 208.827l-.786-2.756-2.086.789 1.819 2.138c-2.303.855-3.222.316-4.041-2.278a4.44 4.44 0 0 1 .331-3.198 4.47 4.47 0 0 1 2.401-2.146c2.479-.596 4.761.554 5.134 2.582.545 2.969-.47 4.586-2.772 4.869ZM445.85 208.913a22.23 22.23 0 0 0-.964-2.84c-.06-.124-.93.131-1.426.21l.976 2.882c-2.084.591-3.208-.14-3.903-2.703a4.744 4.744 0 0 1 .513-2.982 4.777 4.777 0 0 1 2.213-2.073c2.249-.715 4.847.452 5.294 2.38.644 2.796-.329 4.521-2.703 5.126ZM35.864 212.678c0-15.288-.058-30.579.021-45.869.051-9.708.292-19.414.469-29.121.144-7.938.387-15.873.467-23.812.202-19.928.303-39.857.528-59.785a76.51 76.51 0 0 1 .79-11.188c.936-5.843 3.098-6.489 8.587-6.627 10.65-.264 21.316-.015 31.974-.095 10.87-.082 21.738-.33 32.608-.46 15.388-.185 30.779-.39 46.17-.458 6.266-.027 12.534.287 18.801.454 5.863.156 11.726.306 17.589.486 4.493.136 8.983.472 13.473.45 20.077-.098 40.145-.377 60.218-.423 10.709-.024 21.416.294 32.122.45 11.353.166 22.708.302 34.06.504a24.892 24.892 0 0 1 5.453.558c4.5 1.111 6.024 4 6.143 8.226.351 12.6.523 25.205.517 37.814 0 12.605-.26 25.209-.462 37.814-.089 5.681-.295 11.368-.478 17.051-.136 4.236-.346 8.47-.473 12.705-.339 11.367-.664 22.733-.975 34.101-.162 5.764-.397 11.527-.47 17.287-.201 16.145-.358 32.29-.469 48.437-.025 4.476.347 8.952.405 13.43.01.778-.645 1.566-.992 2.347-.756-.645-1.939-1.153-2.199-1.959-1.269-3.902-3.194-7.361-7.495-8.073-2.686-.444-5.585.191-8.364.531-5.665.695-11.296 1.67-16.971 2.247-7.774.792-15.572 1.358-23.366 1.939-3.594.27-7.202.463-10.807.494-24.189.198-48.38.357-72.571.475-5.862.024-11.726-.289-17.589-.457a5622.28 5622.28 0 0 1-15.895-.484c-5.055-.156-10.111-.317-15.167-.483-9.142-.315-18.286-.617-27.429-.972-7.609-.29-15.217-.624-22.825-.963-6.803-.303-13.605-.625-20.404-.968-5.835-.295-11.686-.448-17.493-1.025a94.118 94.118 0 0 1-12.582-2.241c-2.678-.64-3.812 1.09-5.22 2.538-1.782 1.835-3.54 3.704-5.183 5.656-1.003 1.197-2.31 1.863-3.54 1.177-.666-.37-.925-1.926-.93-2.949-.067-16.243-.046-32.502-.046-48.759Zm10.606-38.756c0 15.613-.133 31.23.066 46.841.064 6.122.563 12.232 1.496 18.284.88 5.602 3.78 10.259 9.872 11.507 4.822.949 9.698 1.599 14.6 1.947 6.707.525 13.439.725 20.16 1.01 8.336.353 16.673.676 25.01.968 5.136.188 10.273.35 15.411.485 6.267.177 12.533.383 18.803.476 13.614.2 27.23.309 40.845.505 6.995.102 13.991.494 20.982.438 21.258-.16 42.529.713 63.767-.914 7.573-.58 15.165-.889 22.733-1.491 6.424-.513 12.895-.892 19.222-2.022 6.582-1.176 8.799-2.89 9.943-9.887 1.046-6.408 1.507-12.921 1.983-19.407.372-5.105.434-10.237.514-15.358.203-12.606.424-25.211.465-37.818.023-7.213-.372-14.427-.435-21.639-.203-22.989-.294-45.98-.54-68.967a114.966 114.966 0 0 0-.975-13.081c-.721-5.736-3.637-10.26-9.128-12.355a46.608 46.608 0 0 0-11.697-2.717c-6.444-.663-12.947-.778-19.429-1.044-5.453-.224-10.918-.349-16.38-.494-6.67-.176-13.341-.336-20.013-.48-8.286-.178-16.572-.343-24.859-.495-8.529-.161-17.055-.338-25.584-.477-10.87-.178-21.741-.48-32.61-.455-20.398.046-40.796.207-61.194.483-9.711.123-19.422.512-29.124.968-6.373.299-12.736.864-19.094 1.434-7.824.706-11.1 3.828-11.856 11.544-.653 6.652-1.072 13.33-1.475 20.005a819.896 819.896 0 0 0-.968 20.099c-.248 6.89-.455 13.782-.483 20.674-.078 17.142-.032 34.29-.032 51.431l.004.002Z"></path><path fill="#fff" d="M410.859 71.45c-15.066 0-24.706-10.055-24.588-23.616.11-12.888 10.374-22.404 24.053-22.662 12.641-.24 24.378 10.763 23.882 24.173-.364 9.844-11.83 23.165-23.347 22.105Zm-13.881-25.067-.023.678c-2.203.08-4.415.302-6.608.196-1.782-.086-2.727.757-2.651 2.27.063 1.358.486 2.79 2.602 2.636a3.705 3.705 0 0 1 2.593 1.342c1.643 1.986 2.811 4.41 4.621 6.205a17.886 17.886 0 0 0 8.184 4.906c3.124.865 6.426.867 9.551.005 5.351-1.283 8.45-5.198 11.299-9.524 1.115-1.697 2.64-3.74 4.386-4.26 2.145-.636 2.788-1.428 2.637-3.4-.154-1.995-1.167-2.79-3.171-2.57-2.004.22-2.408-.93-2.749-2.737a17.363 17.363 0 0 0-2.429-5.735c-1.14-1.831-3.044-1.46-4.71-.654-1.326.643-2.02 1.49-.645 2.964a3.74 3.74 0 0 1 1.275 1.977c.201.778.145 1.6-.16 2.344-.487-.408-.798-.643-1.077-.91-6.085-5.812-10.423-5.965-16.671-.479-1.513 1.328-1.962.227-2.676-.778.89-.6 1.707-1.301 2.437-2.088a2.789 2.789 0 0 0 .396-2.19c-.131-.424-1.115-.793-1.735-.828-4.903-.28-9.567 5.325-8.4 9.837l3.724.793ZM433.224 116.431c-.012 9.879-6.502 18.446-15.388 20.847-7.808 2.112-14.669.058-20.761-4.551-6.016-4.55-9.391-10.743-9.047-18.523.453-10.204 6.55-17.461 16.978-19.641a27.93 27.93 0 0 1 15.645.784 16.049 16.049 0 0 1 6.107 3.794 15.977 15.977 0 0 1 3.828 6.073c1.323 3.561 1.792 7.458 2.638 11.217Zm-26.116-9.337a40.988 40.988 0 0 0-3.222-5.373c-.589-.727-2.348-1.401-2.974-1.044a20.848 20.848 0 0 0-5.535 4.264c-3.603 4.159-3.359 9.376-2.77 14.324.23 1.966.882 3.859 1.911 5.552a13.826 13.826 0 0 0 4.054 4.259 21.328 21.328 0 0 0 17.831 3.581c5.785-1.335 10.326-4.857 11.526-10.752.867-4.239.381-8.823-.018-13.207a6.553 6.553 0 0 0-2.898-4.187c-1.836-1.15-2.943.935-4.079 2.066a1.978 1.978 0 0 1-2.271.82 1.973 1.973 0 0 1-.743-.429c-3.432-2.116-7.111-2.611-10.812.12v.006Z"></path><path fill="#000" d="m396.974 46.384-3.724-.8c-1.168-4.514 3.497-10.117 8.4-9.837.619.035 1.603.404 1.735.827a2.807 2.807 0 0 1-.397 2.19 14.028 14.028 0 0 1-2.436 2.089c.712 1.005 1.162 2.105 2.675.778 6.249-5.486 10.586-5.333 16.672.48.278.266.591.5 1.076.91a3.733 3.733 0 0 0-1.115-4.323c-1.374-1.468-.68-2.315.646-2.963 1.667-.806 3.571-1.177 4.709.654a17.363 17.363 0 0 1 2.429 5.735c.341 1.807.762 2.956 2.749 2.737 1.987-.218 3.017.575 3.171 2.57.152 1.976-.495 2.764-2.637 3.4-1.746.52-3.267 2.563-4.386 4.26-2.85 4.322-5.948 8.241-11.299 9.524-3.125.862-6.426.86-9.55-.006a17.885 17.885 0 0 1-8.184-4.905c-1.811-1.795-2.975-4.22-4.622-6.205a3.69 3.69 0 0 0-2.592-1.342c-2.119.153-2.542-1.283-2.603-2.637-.07-1.512.868-2.356 2.651-2.27 2.194.107 4.406-.115 6.608-.196l.024-.67Zm9.119-.806 7.511-.797c-2.557-2.282-4.889-2.023-7.51.795l-.001.002ZM407.102 107.087c3.701-2.732 7.375-2.237 10.815-.124.214.196.467.342.744.429a1.988 1.988 0 0 0 2.27-.82c1.137-1.131 2.244-3.211 4.079-2.066a6.55 6.55 0 0 1 2.899 4.187c.399 4.384.883 8.968.017 13.207-1.204 5.895-5.745 9.417-11.525 10.752a21.328 21.328 0 0 1-17.832-3.581 13.834 13.834 0 0 1-4.053-4.259 13.768 13.768 0 0 1-1.91-5.552c-.588-4.94-.833-10.163 2.77-14.324a20.86 20.86 0 0 1 5.534-4.264c.629-.356 2.387.317 2.975 1.044a40.931 40.931 0 0 1 3.217 5.371Zm7.868 6.753c-1.161-2.018-2.986-2.184-4.798-1.729-.891.223-1.605 1.139-2.4 1.741l.463.781c2.076-2.073 4.325-2.096 6.737-.792l-.002-.001Z"></path><path fill="#fff" d="M406.094 45.577c2.622-2.818 4.957-3.077 7.511-.797l-7.511.797ZM414.978 113.841c-2.412-1.304-4.661-1.28-6.734.792l-.463-.781c.795-.602 1.509-1.519 2.4-1.741 1.81-.454 3.636-.288 4.797 1.73Z"></path>
</svg>