<svg xmlns="http://www.w3.org/2000/svg" fill="none" viewBox="0 0 196 151" aria-hidden="true" class="FallbackSplash_FallbackSplash__PHKQ0"><path fill="#000" d="m29.563 143.47 14.062-12.742 12.878 14.424 8.664-15.409 9.388 13.629 6.003-15.4 13.21 16.854 6.993-20.565 13.249 13.754 9.516-16.177 16.94 21.21 2.212-21.284 20.786 12.998-4.873-17.901 18.682 6.021-12.441-15.054c.708-.691 25.507-.641 25.507-.641l-21.418-13.722 15.501-5.241c-1.262-.838-11.792-5.798-11.792-5.798 1.707-.287 18.386-2.98 18.386-2.98l-14.358-5.884 13.651-11.594-16.144-5.167 16.382-8.34-20.124-5.238 15.097-15.2-25.061 2.675L171.03 5.904 143.722 23.87l-3.255-17.846s-11.17 13.11-11.442 12.456c-.272-.655-9.435-14.283-9.435-14.283l-7.313 17.761L96.787 7.25l-9.11 19.43L73.29 9.03l-5.862 19.164L40.903 8.712l5.566 28.955-31.441-8.403L31.78 51.49 6.853 53.124 22.9 75.717l-18.276 8.73 13.273 7.683-12.688 6.744 12.84 5.054-8.525 12.832 18.961 4.714 1.078 21.996Z"></path><path fill="#fff" d="M105.746 113.038h.405a31.053 31.053 0 0 0-.725-6.727c-.384-2.136-.747-4.271-1.217-6.407-.469-2.135-.96-4.164-1.621-6.171-.662-2.008-1.43-3.46-2.135-5.211a7.645 7.645 0 0 0-4.993-4.592c-3.8-1.324-7.171.32-10.479 1.837a41.645 41.645 0 0 0-4.844 3.289 7.218 7.218 0 0 0-6.915-5.21 9.79 9.79 0 0 0-8.28 3.715v-2.136c0-1.43-1.238-1.366-2.348-1.174-2.39.448-4.801.854-7.17 1.41.533 4.27.597 8.541.81 12.813l.641 13.752c0 1.26 0 3.204 1.003 4.122.64.576 1.643.277 2.433.213l7.021-.576c.598 0 1.793 0 2.134-.513.342-.512 0-1.559-.213-2.135a28.52 28.52 0 0 1-.406-3.567 56.838 56.838 0 0 1 0-7.132 8.12 8.12 0 0 1 .918-4.015 6.403 6.403 0 0 1 2.796-2.136 2.453 2.453 0 0 1 1.259-.32 2.134 2.134 0 0 1 1.302.983 10.51 10.51 0 0 1 1.493 4.89c.129 1.046.79 12.664.513 12.685h1.45c1.388-.15 2.775-.449 4.162-.555a9.845 9.845 0 0 1 1.942 0c.513 0 1.195.427 1.665 0s.299-1.004.15-1.517a25.637 25.637 0 0 1-.897-8.713c.15-2.135.363-5.894 2.412-7.154a4.78 4.78 0 0 1 2.795-1.046 3.52 3.52 0 0 1 2.775 2.648 35.17 35.17 0 0 1 1.003 6.642c.21 2.578.26 5.167.149 7.752a1.745 1.745 0 0 0 0 .469.916.916 0 0 0 1.046.427 46.668 46.668 0 0 1 9.966-.64ZM133.123 75.708a1.11 1.11 0 0 0 .491-1.004c0-2.563-.854-4.997-.683-7.624 0-.876-.533-1.09-1.238-.854-2.134.683-5.933 1.602-7.682-.385a4.978 4.978 0 0 1-.875-1.75 59.359 59.359 0 0 1-1.537-13.326c0-1.09.491-1.431 1.408-1.517l5.848-.598c0-.896.171-1.922.299-2.925a9.045 9.045 0 0 1 .448-2.563c.576-1.324.235-2.135-1.174-2.135h-6.402c-1.772 0-1.302-1.986-1.345-3.182 0-2.136-.106-4.271-.17-6.514 0-1.345.405-3.78-1.345-4.27-1.433-.084-2.87.039-4.268.362-1.69.008-3.371.252-4.994.726-1.302.598-.619 3.268-.597 4.378v8.926c-1.516.384-4.141.257-5.827.535a14.819 14.819 0 0 0 .427 7.218l6.403-.214c.512 5.638.725 11.297 1.301 16.935.406 3.865.79 10.848 6.403 10.336 2.582-.235 5.164-.3 7.746-.342 1.452.086 5.869.876 7.363-.213ZM151.586 96.807c1.024 0 3.051.32 2.838-1.196-.213-1.516-.256-3.673-.491-5.488a247.8 247.8 0 0 1-.726-6.236c-.362-3.523-.64-7.047-.832-10.677a14.135 14.135 0 0 1 0-2.328 1.823 1.823 0 0 0-.235-1.517c-.597-.64-1.899-.341-2.689-.32h-6.103c-1.003 0-3.607-.341-2.86 1.538.545 1.713.825 3.499.833 5.296.17 1.965.32 3.95.448 5.937.476 4.447.697 8.917.661 13.39-.128 2.733 2.519 1.217 4.14 1.302 1.622.086 3.372.32 5.016.3ZM156.239 106.184a6.217 6.217 0 0 0-3.799-5.424 8.833 8.833 0 0 0-7.427 1.153 6.624 6.624 0 0 0-2.838 5.253 6.283 6.283 0 0 0 2.689 5.275c2.412 1.666 5.036.961 7.512 0a6.836 6.836 0 0 0 3.863-6.257ZM72.41 61.403a19.228 19.228 0 0 0-2.945-8.756 17.757 17.757 0 0 0-7.96-5.851c-2.4-.78-4.985-.78-7.384 0a20.884 20.884 0 0 0-7.235 3.075 20.642 20.642 0 0 0-8.792 13.198 18.396 18.396 0 0 0 0 6.022c.186 2.485.8 4.92 1.814 7.197a11.337 11.337 0 0 0 6.786 5.552c2.146.542 4.364.744 6.573.598a33.613 33.613 0 0 0 7.021-.705 13.547 13.547 0 0 0 6.275-3.14 15.524 15.524 0 0 0 3.2-4.548 24.723 24.723 0 0 0 2.668-11.147 8.575 8.575 0 0 0-.02-1.495Zm-12.612 7.901a5.936 5.936 0 0 1-2.305 2.499 5.353 5.353 0 0 1-6.552-1.815 9.978 9.978 0 0 1 .918-12.28 5.143 5.143 0 0 1 4.801-1.452 3.968 3.968 0 0 1 2.412.833c.43.483.737 1.061.896 1.687a18.71 18.71 0 0 1 1.046 4.143c.01.128.01.257 0 .385a10.683 10.683 0 0 1-1.216 6ZM102.331 58.734a37.223 37.223 0 0 0-4.268-9.994 13.937 13.937 0 0 0-8.536-6.215 15.974 15.974 0 0 0-5.87.171 31.037 31.037 0 0 0-9.923 4.036c-1.13.641-1.237.748-.277 1.56 2.347 1.985 4.695 3.95 7.15 5.83.725.554 1.536-.407 1.856-.898a6.724 6.724 0 0 1 2.945-2.562c.66-.33 1.399-.47 2.134-.406a2.88 2.88 0 0 1 2.134 1.73c.875 1.772 1.43 3.694 2.262 5.894-4.866-.32-10.051-.3-14.042 2.947a11.68 11.68 0 0 0-4.119 10.677 9.4 9.4 0 0 0 1.729 4.271 12.058 12.058 0 0 0 9.86 4.058 21.584 21.584 0 0 0 7.938-1.602c.747-.299 2.134-1.217 2.945-.854.811.363 1.26 2.136 1.622 2.755 1.985-.534 3.969-1.09 6.018-1.452 1.11-.192 3.628.15 3.329-1.538a153.305 153.305 0 0 0-4.887-18.408ZM91.447 69.54a12.797 12.797 0 0 1-5.548.726 2.134 2.134 0 0 1-1.067-.192 1.453 1.453 0 0 1-.62-1.388c.094-.51.314-.987.641-1.389a5.87 5.87 0 0 1 4.994-2.434 2.133 2.133 0 0 1 2.134 2.136c.192.918.512 1.964-.534 2.54ZM135.964 103.621a10.657 10.657 0 0 0-4.909 0c-1.85.125-3.709.003-5.527-.363a6.397 6.397 0 0 1-3.073-1.239c-1.046-.854-.918-2.029-1.409-3.182.298-.18.612-.33.94-.448 2.304-.449 4.588-1.004 6.914-1.239a51.877 51.877 0 0 1 6.402 0c1.75 0 1.003-2.029.854-3.14a15.635 15.635 0 0 0-3.308-9.246 12.268 12.268 0 0 0-7.64-4.143 16.462 16.462 0 0 0-7.533.854 10.665 10.665 0 0 0-3.863 2.136 14.417 14.417 0 0 0-3.265 4.335 21.776 21.776 0 0 0-1.366 4.271 27.035 27.035 0 0 0-.598 8.884c.175 1.731.489 3.445.939 5.125a9.938 9.938 0 0 0 2.134 4.271 9.557 9.557 0 0 0 4.119 2.285c6.616 2.136 13.445.876 20.082-.47.214-2.626.406-5.274.576-7.922a.642.642 0 0 0 0-.449.558.558 0 0 0-.469-.32Zm-15.622-12.493a.634.634 0 0 1-.106-.214 2.663 2.663 0 0 1 .17-1.067 6.058 6.058 0 0 1 1.131-1.901 3.225 3.225 0 0 1 1.366-1.025 2.431 2.431 0 0 1 1.558 0 4.269 4.269 0 0 1 1.793 1.09c.405.405.747 1.046.427 1.537a1.5 1.5 0 0 1-.747.49 17.517 17.517 0 0 1-4.909 1.047c-.341.107-.533.193-.683.043Z"></path></svg>