<svg xmlns="http://www.w3.org/2000/svg" width="100%" height="100%" fill="none" class="IngredientsDisclaimer_Svg__8t1p9" aria-hidden="true" viewBox="0 0 160 245">
<path fill="#1D1D1B" d="m148.494 105.45-.928-.574-2.871-1.79 1.081-1.722c.625.405 1.199.743 1.638 1.03.05-.422.067-.979.05-1.688l2.026-.051c.068 2.617-.405 3.647-.489 3.832l-.507.963ZM142.957 101.989a221.964 221.964 0 0 1-3.478-2.245l1.114-1.688c1.182.776 2.364 1.536 3.461 2.228l-1.081 1.705h-.016ZM135.241 99.406l-1.874-.777c.49-1.148.878-2.194 1.182-3.089l.439-1.3 1.114.794c.845.59 1.773 1.232 2.769 1.89l-1.131 1.688a49.396 49.396 0 0 1-1.705-1.164c-.237.607-.49 1.266-.777 1.958h-.017ZM131.441 107.459l-.962-.743s-1.199-.928-2.651-2.177l1.317-1.537c.608.524 1.165.98 1.604 1.334.253-.506.557-1.148.912-1.891l1.823.861c-.844 1.79-1.502 3.056-1.502 3.056l-.558 1.08.017.017ZM125.295 102.242c-.692-.675-1.266-1.266-1.688-1.772a69.108 69.108 0 0 1-2.735-3.495l1.638-1.181c.726 1.013 1.536 2.042 2.65 3.376.372.456.895.996 1.537 1.621l-1.402 1.451Zm21.865-4.76c-.253-1.671-.659-3.579-1.199-5.638l-.219-.777 1.941-.557.22.81c.557 2.144.979 4.12 1.249 5.858l-2.009.304h.017Zm-28.162-3.393c-1.317-2.245-2.145-4.39-2.533-6.533l1.992-.372c.355 1.908 1.098 3.832 2.297 5.892l-1.756 1.013Zm25.68-6.044c-.827-1.907-1.857-3.46-3.14-4.777l-.406-.405 1.436-1.418.405.422c1.452 1.485 2.617 3.258 3.545 5.385l-1.857.81.017-.017Zm-28.584-3.933c-.203-2.735-.27-5.183-.287-6.753l2.026-.033c.017 1.553.084 3.95.287 6.634l-2.026.152Zm22.658-3.545c-1.992-1.806-3.715-3.123-5.133-3.9l.962-1.772c1.571.844 3.428 2.262 5.538 4.186l-1.367 1.503v-.017Zm-8.088-5.233c-1.755-.71-3.866-1.435-6.263-2.144l.574-1.942c2.448.726 4.609 1.469 6.432 2.195l-.759 1.874.016.017Zm-12.831-1.317-2.026-.05c0-.406.017-.71.033-.946.169-2.313 2.195-3.14 3.884-3.14l.371.034s.625.152 1.638.422l-.524 1.958c-.742-.203-1.266-.32-1.485-.371-.726 0-1.79.185-1.858 1.266 0 .202-.033.49-.033.844v-.017ZM145.066 77.528l-1.283-.472a34.343 34.343 0 0 1-3.191-1.385l.912-1.806c.557.27 1.114.54 1.671.776 0-.59 0-1.198-.034-1.856l2.026-.085c.051 1.266.051 2.431 0 3.478l-.067 1.367-.034-.017ZM143.007 70.86a56.727 56.727 0 0 0-.439-3.764l2.01-.304c.202 1.3.354 2.617.455 3.916l-2.026.152ZM142.247 65.222a37.833 37.833 0 0 0-.743-3.207l-.422-1.537 1.57.27c1.03.17 2.161.372 3.343.575l-.354 1.992c-.608-.102-1.199-.22-1.773-.321.135.59.27 1.198.388 1.84l-1.992.371-.017.017ZM151.821 64.445l-4.12-.76.355-1.992c1.435.254 2.836.524 4.136.76l-.371 1.992ZM159.197 65.847l-5.318-1.013.371-1.992 1.317.254-.591-1.2 1.824-.91 2.397 4.861ZM137.434 73.9a51.58 51.58 0 0 1-5.791-4.187l1.3-1.553c1.824 1.519 3.681 2.87 5.555 4.017l-1.064 1.722Zm-8.458-6.568c-1.858-1.755-3.512-3.595-4.812-5.3l1.621-1.233c1.232 1.62 2.819 3.377 4.609 5.065l-1.402 1.468h-.016Zm-6.822-8.423c-.776-1.638-1.283-4.052-1.553-7.175l2.026-.169c.237 2.836.709 5.081 1.368 6.483l-1.841.86Zm31.253-.119c-1.267-2.447-2.364-4.27-3.512-5.891l1.654-1.182c1.216 1.705 2.347 3.596 3.664 6.128l-1.79.928-.016.017Zm-5.623-8.542a41.424 41.424 0 0 0-2.414-2.464c-.439-.405-1.402-1.08-2.668-1.874l1.081-1.722c.979.608 2.296 1.469 2.971 2.093.929.861 1.773 1.705 2.567 2.617l-1.52 1.35h-.017Zm-25.309-2.076-2.026-.034c.034-1.772.321-3.562.861-5.3l.574-1.824 1.925.608-.574 1.823a16.879 16.879 0 0 0-.777 4.727h.017Zm17.239-4.035a110.861 110.861 0 0 0-6.163-3.19l.878-1.823a99.732 99.732 0 0 1 6.281 3.258l-.996 1.772v-.017Zm-9.32-4.625a62.92 62.92 0 0 0-2.668-1.114c-.928-.372-2.043-.152-2.735.506l-1.384-1.469c1.266-1.198 3.241-1.57 4.879-.911.912.371 1.823.743 2.718 1.13l-.81 1.858ZM147.145 17.734l-.456-1.976a84.65 84.65 0 0 0 1.891-.455 18.571 18.571 0 0 0-1.131-1.435l1.52-1.334c1.35 1.536 2.076 2.836 2.11 2.887l.642 1.13-1.25.339s-1.35.371-3.309.827l-.017.017ZM141.877 18.798l-.338-1.992a78.264 78.264 0 0 0 3.444-.659l.422 1.976a77.634 77.634 0 0 1-3.528.675ZM137.199 21.802a65.932 65.932 0 0 0-1.503-2.937l-.827-1.47 1.672-.033c.928-.017 2.026-.118 3.258-.287l.27 2.01c-.658.084-1.266.151-1.857.202.27.523.54 1.08.811 1.654l-1.824.861ZM139.378 26.883a70.477 70.477 0 0 0-1.401-3.41l1.857-.81a64.84 64.84 0 0 1 1.435 3.511l-1.891.726v-.017ZM140.595 32.522c-.659 0-1.317-.017-1.976-.068l.135-2.026c.642.034 1.283.068 1.942.051a55.662 55.662 0 0 0-.659-1.874l1.908-.692c.709 1.941 1.098 3.241 1.098 3.241l.371 1.25-1.3.067c-.506.017-1.013.034-1.519.034v.017ZM135.276 32.066a29.102 29.102 0 0 1-6.45-1.924l.81-1.857a26.812 26.812 0 0 0 5.994 1.79l-.354 1.991Zm-9.439-3.393c-2.178-1.199-3.967-2.482-5.487-3.933l1.402-1.452c1.367 1.334 3.022 2.515 5.048 3.613l-.979 1.772h.016Zm-7.732-6.5c-1.317-1.789-2.28-3.68-3.124-5.452-.067-.135-.118-.27-.186-.405l1.875-.794c.05.102.101.22.151.321.794 1.688 1.706 3.46 2.921 5.115l-1.62 1.199-.017.017Zm-4.323-9.132c-.405-1.874-.675-4.102-.776-6.618l2.026-.084c.101 2.397.354 4.507.726 6.28l-1.976.422Zm31.404-1.317a120.18 120.18 0 0 0-5.132-3.883l1.165-1.654c2.059 1.452 3.782 2.802 5.234 3.95l-1.25 1.587h-.017Zm-7.8-5.672a81.45 81.45 0 0 0-1.959-1.232 20.285 20.285 0 0 0-3.545-1.756l.709-1.89c1.3.489 2.617 1.13 3.9 1.924.692.422 1.368.844 1.992 1.266l-1.097 1.705v-.017Zm-22.405-2.92-2.026-.034v-.27c.017-1.266 1.047-2.33 2.33-2.431 1.435-.102 2.769-.186 4.035-.254l.102 2.026c-1.233.068-2.567.135-3.968.253-.253.017-.456.203-.456.423v.286h-.017Zm13.946-.861a14.24 14.24 0 0 0-2.228-.22 108.462 108.462 0 0 0-4.069 0l-.034-2.026a84.04 84.04 0 0 1 4.136 0c.844 0 1.689.102 2.533.237l-.338 1.992v.017ZM80.62 92.974c-2.144-.304-3.444-.76-3.494-.776l-1.216-.44 2.6-3.882 1.689 1.131-1.098 1.637c.49.119 1.098.237 1.807.338l-.287 2.009v-.017ZM81.397 83.586l-1.922 2.857 1.68 1.13 1.923-2.857-1.681-1.13ZM84.048 83.285l-1.688-1.13 1.165-1.706-1.959-.692.676-1.907 4.423 1.553-2.617 3.882ZM77.318 76.12l-.671 1.91 3.28 1.153.672-1.911-3.28-1.153ZM74.999 77.46l-4.356-1.536.658-1.064c.287-.456 1.199-1.316 2.718-2.532l1.267 1.587c-.524.422-.946.776-1.267 1.047l1.672.59-.675 1.908h-.017ZM84.42 93.245h-.22l.017-2.026h.185c2.128 0 4.272-.253 6.366-.777l.49 1.975a28.628 28.628 0 0 1-6.856.828h.017Zm10.248-1.874-.71-1.891a30.075 30.075 0 0 0 3.968-1.84c.44-.236 1.132-.675 1.925-1.199l1.114 1.688a50.16 50.16 0 0 1-2.06 1.283c-1.384.76-2.802 1.435-4.254 1.959h.017Zm9.185-5.233-1.199-1.621c.422-.32.844-.642 1.249-.962 1.351-1.08 2.516-2.296 3.445-3.596l1.654 1.182c-1.03 1.451-2.33 2.785-3.816 4a37.64 37.64 0 0 1-1.3.996h-.033Zm6.922-8.188-1.874-.793c.118-.287.236-.591.338-.895.54-1.587.996-3.393 1.418-5.52l1.992.388c-.422 2.211-.912 4.119-1.486 5.79-.118.355-.253.692-.388 1.03Zm-32.788-6.077-1.182-1.655c1.52-1.08 3.765-2.616 5.926-3.747l.945 1.79c-2.06 1.08-4.22 2.565-5.69 3.612Zm35.253-4.204-2.009-.253.034-.253c0-.405-.22-.659-.524-.71-1.063-.134-2.515-.32-4.018-.506l.236-2.009c1.503.186 2.972.372 4.035.507a2.602 2.602 0 0 1 2.297 2.617c0 .135 0 .27-.034.405l-.034.202h.017Zm-26.592-.658-.591-1.941c1.857-.557 4.187-.996 6.94-1.317l.219 2.009c-2.583.287-4.863.726-6.585 1.232l.017.017Zm16.664-1.435a44.355 44.355 0 0 0-2.093-.169c-1.047-.05-2.719-.034-4.626.085l-.119-2.026c2.026-.118 3.765-.135 4.863-.085.591.034 1.334.102 2.178.17l-.203 2.008v.017ZM82.31 59.043l.811-1.553c.473-.895 1.08-1.891 1.79-2.971l1.688 1.114c-.287.422-.54.844-.777 1.232.44-.034.946-.05 1.503-.101l.135 2.025c-1.975.136-3.393.186-3.393.186l-1.756.068ZM87.594 54.181l-1.654-1.164a75.812 75.812 0 0 1 2.127-2.887l1.604 1.232a87.876 87.876 0 0 0-2.077 2.82ZM90.751 49.977l-1.587-1.266c.473-.607.912-1.13 1.25-1.553l-1.824-.709.743-1.89 4.474 1.755-.929 1.08s-.894 1.047-2.11 2.584h-.017ZM84.488 44.846l-4.812-1.874 1.418-1.097s1.148-.878 2.718-2.043l1.2 1.637c-.457.338-.879.642-1.25.929l1.469.574-.743 1.89v-.016ZM91.038 58.486l-.202-2.01c1.773-.185 3.242-.387 4.373-.624a33.345 33.345 0 0 0 2.38-.607l.558 1.94c-.98.288-1.858.507-2.533.642-1.199.254-2.735.473-4.576.659Zm10.519-2.38-.658-1.925c1.924-.658 3.798-1.367 5.284-2.009.372-.169.743-.337 1.098-.54l.979 1.773c-.422.236-.844.438-1.283.624a76.602 76.602 0 0 1-5.437 2.076h.017Zm9.759-4.947-1.401-1.451a11.868 11.868 0 0 0 1.755-2.145 72.675 72.675 0 0 0 2.06-3.41l1.756.997a64.404 64.404 0 0 1-2.127 3.51 13.979 13.979 0 0 1-2.06 2.5h.017Zm5.859-9.183-1.824-.895a47.175 47.175 0 0 0 1.655-3.748c.05-.135.084-.287.084-.438 0-.389-.186-.76-.489-1.013l1.3-1.553a3.335 3.335 0 0 1 1.215 2.566c0 .405-.067.793-.219 1.164a48.185 48.185 0 0 1-1.722 3.917Zm-29.328-2.532L86.7 37.772c2.094-1.451 3.715-2.447 4.812-2.97.44-.203.912-.44 1.435-.66L93.774 36c-.507.22-.963.439-1.385.641-1.013.49-2.532 1.435-4.542 2.82v-.017Zm25.833-4.609c-2.094-.625-3.884-1.063-5.032-1.232a28.152 28.152 0 0 0-1.671-.203l.169-2.026c.591.05 1.198.119 1.806.22 1.655.253 4.019.928 5.285 1.3l-.574 1.941h.017Zm-16.715-.101-.642-1.925c2.414-.81 4.812-1.3 7.159-1.452l.135 2.026c-2.195.152-4.356.591-6.636 1.35h-.016ZM78.374 239.419l-3.241-2.38.827-3.95 1.976.405-.558 2.667 2.195 1.621-1.198 1.637ZM86.041 245.007l-3.984-2.904 1.181-1.637 1.453 1.046.371-1.755 1.975.405-.996 4.845ZM87.71 236.887l-1.992-.405 1.35-6.567 1.993.406-1.35 6.566Zm-9.134-6.465-1.992-.405 1.368-6.567 1.992.405-1.368 6.567Zm11.16-3.393-1.992-.405 1.35-6.567 1.993.405-1.35 6.567Zm-9.117-6.449-1.992-.405 1.368-6.567 1.992.405-1.368 6.567Zm11.144-3.393-1.993-.405 1.351-6.567 1.992.405-1.35 6.567Zm-9.1-6.449-1.993-.405 1.367-6.567 1.993.405-1.368 6.567Zm11.126-3.393-1.993-.405 1.351-6.567 1.992.405-1.35 6.567Zm-9.084-6.449-1.992-.405 1.367-6.567 1.993.405-1.368 6.567Zm11.11-3.393-1.993-.405 1.351-6.567 1.992.405-1.35 6.567Zm-9.067-6.449-1.992-.405 1.367-6.567 1.993.406-1.368 6.566Zm11.093-3.393-1.992-.405 1.35-6.567 1.993.405-1.351 6.567Zm-9.05-6.431-1.992-.406 1.367-6.566 1.993.405-1.368 6.567Zm11.076-3.411-1.993-.405 1.351-6.567 1.993.406-1.351 6.566Zm-9.033-6.431-1.992-.405 1.367-6.567 1.993.405-1.368 6.567Zm11.059-3.41-1.992-.406 1.35-6.566 1.993.405-1.351 6.567Zm-9.016-6.432-1.992-.405 1.367-6.567 1.993.405-1.368 6.567Zm11.042-3.41-1.992-.405 1.35-6.567 1.993.405-1.351 6.567Zm-9-6.432-1.991-.405 1.367-6.567 1.992.405-1.367 6.567Zm11.026-3.41-1.992-.405 1.35-6.567 1.993.405-1.351 6.567Zm-8.982-6.432-1.992-.405 1.35-6.533.017-.084.44-.22.202.422 1.317.253c-.034.169-.051.304-.085.439l-1.266 6.145.017-.017Zm10.941-3.494-1.993-.321 1.098-6.634 1.992.337-1.097 6.635v-.017Zm-8.949-6.415-1.992-.372 1.25-6.6 1.991.371-1.249 6.601Zm10.586-3.528-1.992-.338 1.097-6.618 1.993.338-1.098 6.618Zm-8.729-6.382-1.992-.371 1.249-6.601 1.993.372-1.25 6.6Zm10.367-3.545-1.992-.337 1.097-6.618 1.992.338-1.097 6.617Zm-8.509-6.347-1.993-.371 1.25-6.601 1.992.371-1.249 6.601Zm10.164-3.579-1.993-.338 1.115-6.617 1.992.338-1.114 6.617Zm-8.29-6.33-1.993-.372 1.25-6.6 1.992.371-1.249 6.601Zm9.961-3.596-1.992-.338.388-2.228c.051-.32.085-.608.085-.878 0-1.182-.473-1.924-.912-2.549l1.638-1.182c.641.895 1.283 2.026 1.283 3.731 0 .371-.034.794-.102 1.232l-.388 2.229v-.017Zm-8.087-6.297-1.993-.388.186-.929c.321-1.603 1.874-2.718 3.799-2.718.827 0 1.688.203 2.465.608l-.912 1.806c-1.435-.725-3.191-.286-3.376.693l-.186.911.017.017ZM3.462 148.311l-.422-1.046c-.068-.186-.44-1.25-.186-3.832l2.026.202a12.517 12.517 0 0 0-.068 1.671c.473-.253 1.03-.557 1.672-.911l.962 1.772c-1.756.963-2.971 1.604-2.971 1.604l-.996.523-.017.017ZM9 145.324l-.98-1.773a232.8 232.8 0 0 0 3.107-1.739l.996 1.756c-1.063.608-2.144 1.199-3.123 1.756ZM16.04 143.619a73.53 73.53 0 0 1-.591-1.975c-.557.337-1.149.675-1.756 1.029l-1.013-1.755c1.013-.591 2.009-1.182 2.87-1.722l1.199-.743.32 1.368c.22.911.524 1.975.895 3.19l-1.924.608ZM19.011 151.84l-.472-1.182s-.524-1.334-1.2-3.19l1.909-.693c.27.743.506 1.402.709 1.925.456-.338 1.03-.76 1.638-1.216l1.232 1.604c-1.503 1.148-2.769 2.026-2.769 2.026l-1.047.726ZM25.326 147.046l-1.334-1.52c.49-.438.946-.86 1.3-1.249 1.2-1.3 2.077-2.312 2.837-3.292l1.587 1.25c-.794 1.013-1.705 2.059-2.938 3.41-.405.439-.912.911-1.452 1.401Zm-19.99-6.432-1.976-.422c.355-1.705.878-3.596 1.537-5.638l.202-.574 1.908.658-.185.557a57.536 57.536 0 0 0-1.486 5.436v-.017Zm26.288-1.047-1.705-1.08c1.181-1.857 1.958-3.663 2.38-5.47l1.976.456c-.473 2.043-1.334 4.035-2.651 6.094Zm-23.486-7.765-1.823-.878c1.03-2.11 2.246-3.815 3.748-5.199l.203-.186 1.367 1.502-.202.186c-1.317 1.199-2.398 2.701-3.31 4.592l.017-.017Zm26.66-1.553-2.01-.27c.339-2.482.558-4.778.676-6.263l2.026.169a121.88 121.88 0 0 1-.692 6.364Zm-20.8-5.267-1.284-1.57c2.094-1.722 3.934-2.971 5.454-3.697l.86 1.823c-1.367.642-3.055 1.806-5.03 3.427v.017Zm21.712-4.305-2.026-.101c.017-.439.034-.794.034-1.03 0-1.199-1.2-1.367-1.554-1.401-.186.034-.59.101-1.165.186l-.354-1.992c.81-.135 1.3-.22 1.3-.22h.185c1.453.051 3.597.996 3.597 3.427 0 .253 0 .642-.034 1.131h.017Zm-13.828-.186-.625-1.924c1.773-.557 3.867-1.097 6.247-1.604l.422 1.975c-2.313.49-4.356 1.013-6.044 1.553ZM10.67 121.217v-1.384a47.09 47.09 0 0 1 .237-3.461l2.01.203a39.647 39.647 0 0 0-.152 1.823c.54-.203 1.097-.439 1.637-.709l.861 1.84a26.833 26.833 0 0 1-3.275 1.283l-1.317.405ZM13.896 110.531l-1.976-.438c.152-.659.304-1.3.473-1.908-.608.051-1.25.118-1.89.169l-.187-2.009c1.182-.118 2.347-.22 3.377-.304l1.503-.118-.456 1.435c-.304.945-.574 2.009-.844 3.19v-.017ZM0 109.417l2.431-4.659 1.807.928-.692 1.317 1.485-.152.203 2.026-5.234.54ZM18.286 117.891l-1.064-1.722a37.992 37.992 0 0 0 5.183-3.849l1.334 1.52a41.03 41.03 0 0 1-5.453 4.051Zm7.918-6.381-1.452-1.418c1.689-1.739 3.073-3.494 3.698-4.71l.118-.253 1.84.827c-.05.118-.101.237-.169.338-.726 1.401-2.194 3.292-4.035 5.199v.017Zm-20.43-8.728-1.772-.979c1.317-2.346 2.465-4.102 3.731-5.672l1.57 1.283c-1.198 1.469-2.296 3.123-3.545 5.368h.017Zm25.681-.168-1.975-.422c.304-1.418.54-3.09.692-4.98.034-.456.067-.912.067-1.385h2.027c0 .524-.017 1.03-.068 1.553-.169 1.976-.422 3.748-.726 5.234h-.017Zm-19.973-7.546-1.402-1.452c.32-.304.642-.608.98-.912.742-.658 2.515-1.738 4.76-2.886l.93 1.806c-2.483 1.283-3.9 2.195-4.357 2.6-.32.287-.625.574-.912.844Zm18.47-2.347-.793-3.798c-.135-.625-.523-1.165-1.047-1.452l.963-1.79c1.063.575 1.806 1.588 2.06 2.82l.81 3.849-1.993.354v.017ZM19.687 90.19l-.844-1.84a75.465 75.465 0 0 1 6.23-2.532l.675 1.907a80.23 80.23 0 0 0-6.06 2.465ZM8.002 70.134c-1.89-.591-3.241-1.097-3.241-1.097l-1.216-.456.726-1.064s.912-1.334 2.431-2.684l1.334 1.52c-.49.438-.912.877-1.25 1.249.507.168 1.132.37 1.824.59l-.608 1.942ZM14.705 74.252l-1.773-.995c.321-.558.625-1.098.946-1.621a37.181 37.181 0 0 1-1.857-.388l.472-1.976c1.233.287 2.313.49 3.191.591l1.672.186-.946 1.401a46.509 46.509 0 0 0-1.722 2.802h.017ZM13.54 81.985c-1.064 0-2.145-.068-3.226-.22l-1.283-.168.49-1.216s.523-1.3 1.384-3.14l1.84.861c-.32.692-.59 1.3-.81 1.79.642.05 1.267.067 1.891.05l.034 2.026h-.304l-.017.017ZM17.255 81.698l-.321-2.01a21.767 21.767 0 0 0 3.58-.894 32.207 32.207 0 0 0 2.397-.962l.844 1.84a33.82 33.82 0 0 1-2.566 1.03 22.352 22.352 0 0 1-3.934.996ZM26.743 78l-1.13-1.672c1.688-1.13 2.988-2.481 4.254-4.389l1.688 1.114c-1.418 2.127-2.887 3.647-4.812 4.947Zm6.534-7.918-1.857-.827c.659-1.469 1.182-3.562 1.503-6.06l2.009.27c-.372 2.718-.929 4.946-1.672 6.617h.017ZM10.62 64.53l-1.114-1.688a72.9 72.9 0 0 1 5.707-3.393l.945 1.79a76.248 76.248 0 0 0-5.555 3.291h.017Zm22.625-4.406s-.068-.101-.152-.118c-1.655-.27-3.293-.49-4.88-.675l.22-2.01c1.62.187 3.292.406 4.963.676 1.014.169 1.807 1.013 1.858 2.009l-2.026.118h.017ZM19.01 59.87l-.726-1.89c2.076-.794 4.136-1.132 6.196-1.014l.675.051-.152 2.026-.658-.05c-1.79-.12-3.529.185-5.335.877ZM61.61 85.547l-1.3-.033s-1.621-.05-3.58-.608l.558-1.941c.641.185 1.232.303 1.722.388-.135-.523-.287-1.148-.49-1.84l1.959-.54c.523 1.907.844 3.325.844 3.325l.287 1.266v-.016ZM57.354 77.647c-.422-1.199-.827-2.212-1.232-3.005l-.743-1.503 1.671.034c1.013.017 2.11 0 3.293-.067l.118 2.025c-.642.034-1.266.068-1.874.068.22.54.439 1.13.675 1.772l-1.908.676ZM64.934 74.693l-.27-2.01c.76-.1 1.418-.202 1.942-.286a19.644 19.644 0 0 0-.98-1.62l1.689-1.115c.641.98 1.232 2.026 1.722 3.072l.557 1.182-1.283.253s-1.385.27-3.394.524h.017ZM53.539 83.657a76.88 76.88 0 0 1-5.927-2.971l.997-1.773a76.662 76.662 0 0 0 5.774 2.904l-.827 1.84h-.017Zm-8.814-4.76c-1.79-1.318-3.208-2.887-4.187-4.66l-.32-.59 1.772-.963.321.574c.844 1.52 2.06 2.87 3.63 4.018l-1.199 1.637-.017-.017Zm-6.044-8.188a104.56 104.56 0 0 1-2.11-4.558 2.293 2.293 0 0 1-.186-.895c0-.692.32-1.35.878-1.739l1.199 1.638s-.034.067-.034.118a83.242 83.242 0 0 0 2.093 4.541l-1.823.895h-.017Zm25.039-2.397a20.968 20.968 0 0 0-2.685-2.533 22.046 22.046 0 0 0-2.11-1.485l1.08-1.705c.726.473 1.486.996 2.263 1.604a20.817 20.817 0 0 1 2.954 2.785l-1.52 1.35.018-.016Zm-22.523-4.558-.861-1.84c2.498-1.165 4.676-1.891 6.466-2.161l.304 2.009c-1.587.253-3.63.945-5.926 2.009l.017-.017Zm15.01-.929c-1.875-.793-3.715-1.181-5.994-1.215l.033-2.026c2.55.05 4.643.473 6.754 1.384l-.794 1.857ZM63.717 139.854l-.084-2.025c.709-.034 1.317-.085 1.806-.152l-.962-1.722 1.773-.979 2.28 4.085-1.25.338s-1.402.371-3.563.455ZM61.878 131.279l-2.296-4.086 4.542-1.181.506 1.958-1.992.523.996 1.79-1.756.996ZM69.882 126.602l-.507-1.959 1.688-.438a47.233 47.233 0 0 0-1.181-1.132l1.384-1.485c1.435 1.334 2.296 2.245 2.533 2.735l.557 1.114-4.474 1.165ZM60.106 139.719a26.352 26.352 0 0 1-6.923-1.739l.76-1.874a24.052 24.052 0 0 0 6.382 1.604l-.22 2.009Zm-10.13-3.292a27.48 27.48 0 0 1-1.858-1.148c-.776-.523-2.347-1.722-3.85-3.021l1.334-1.537c1.436 1.233 2.955 2.397 3.648 2.87a23.97 23.97 0 0 0 1.722 1.064l-.997 1.772Zm-8.29-6.634c-1.74-1.958-2.921-4.102-3.512-6.381l1.958-.507c.524 1.958 1.553 3.832 3.073 5.537l-1.52 1.351Zm25.663-8.964c-2.094-1.739-4.018-3.106-5.403-3.849l.844-1.84.152.084c1.874.996 4.137 2.752 5.707 4.052l-1.3 1.553Zm-29.868-.878a62.356 62.356 0 0 1-.523-5.216c0-1.115.523-1.959 1.368-2.381l.878 1.824a.41.41 0 0 0-.237.388 62.74 62.74 0 0 0 .507 5.081l-2.01.304h.017Zm21.41-4.153c-2.348-.709-4.863-1.165-6.569-1.435l.304-2.009c1.773.27 4.407.743 6.855 1.486l-.59 1.941v.017Zm-16.682-1.789-.085-2.026c2.077-.084 4.407-.152 5.775-.101.337 0 .76.033 1.215.067l-.168 2.026c-.422-.034-.81-.051-1.115-.068-1.317-.033-3.596.034-5.639.102h.017ZM65.29 109.688l-1.74-.203s-1.451-.169-3.376-.473l.32-2.008c.54.084 1.03.152 1.486.219-.202-.405-.439-.827-.675-1.283l1.773-.979c.641 1.148 1.165 2.195 1.553 3.123l.692 1.604h-.033ZM58.419 101.281c-1.064-1.62-1.874-2.735-1.891-2.735l-.844-1.165 4.609-1.367.574 1.941-1.891.557c.304.456.692 1.013 1.114 1.654l-1.688 1.115h.017ZM63.889 97.043l-.575-1.941 1.503-.456c-.338-.304-.743-.642-1.165-1.013l1.334-1.536c1.452 1.266 2.55 2.262 2.55 2.262l1.316 1.198-4.947 1.486h-.017ZM56.56 108.37c-1.249-.253-2.33-.506-3.173-.759-.929-.27-2.297-.777-3.85-1.418l.777-1.874c1.486.625 2.786 1.097 3.647 1.35.81.237 1.823.473 3.005.709l-.405 1.992Zm-10.366-3.646a54.711 54.711 0 0 1-2.634-1.317 12.817 12.817 0 0 1-3.63-2.869l1.52-1.334c.86.979 1.89 1.789 3.073 2.414a60.14 60.14 0 0 0 2.55 1.266l-.862 1.84h-.017Zm-8.357-7.394c-1.182-2.296-2.178-4.541-2.938-6.685l1.908-.692c.743 2.06 1.705 4.237 2.836 6.449l-1.806.928Zm23.08-5.96c-1.368-1.096-2.431-1.873-3.157-2.295a36.266 36.266 0 0 0-2.685-1.452l.895-1.823a39.58 39.58 0 0 1 2.82 1.52c.827.489 1.941 1.282 3.41 2.464l-1.266 1.587h-.017Zm-24.82-4.203-1.924-.641a3.18 3.18 0 0 1 2.228-2.06 70.05 70.05 0 0 1 5.015-1.03l.32 1.993c-1.434.236-3.24.59-4.862.996a1.058 1.058 0 0 0-.776.726v.017Zm15.787-.86c-2.229-.743-4.508-1.132-6.737-1.148v-2.026c2.449 0 4.93.422 7.379 1.249l-.642 1.924ZM51.174 240.669l-1.047-1.739 2.33-1.435-.236-2.734 2.026-.169.337 3.984-3.41 2.093ZM44.1 244.991l-.422-4.997 2.026-.185.135 1.738 1.486-.911 1.063 1.739-4.288 2.616ZM43.39 236.55l-.574-6.871 2.026-.169.574 6.871-2.026.169Zm8.56-5.064-.59-6.871 2.026-.169.59 6.871-2.026.169Zm-9.42-5.251-.575-6.87 2.026-.169.574 6.871-2.026.168Zm8.542-5.064-.59-6.871 2.026-.168.59 6.87-2.026.169Zm-9.404-5.25-.574-6.871 2.026-.169.574 6.871-2.026.169Zm8.527-5.048-.591-6.87 2.026-.169.59 6.871-2.025.168Zm-9.388-5.25-.574-6.87 2.026-.169.574 6.871-2.026.168Zm8.51-5.047-.591-6.871 2.026-.169.59 6.871-2.025.169Zm-9.37-5.25-.575-6.871 2.026-.169.574 6.871-2.026.169Zm8.492-5.048-.591-6.871 2.026-.168.59 6.87-2.025.169Zm-9.354-5.25-.574-6.888 2.026-.168.574 6.87-2.026.169v.017Zm8.476-5.047-.659-6.871 2.01-.203.658 6.905-2.026.169h.017Zm-9.32-5.284-.557-6.888 2.026-.169.557 6.888-2.026.169Zm8.324-5.031-.71-6.871 2.01-.202.709 6.87-2.01.203Zm-9.151-5.301-.558-6.887 2.026-.169.558 6.887-2.026.169Zm8.087-5.013-.71-6.871 2.01-.203.709 6.871-2.01.203Zm-8.932-5.301-.574-6.888 2.026-.169.574 6.888-2.026.169Zm7.868-4.997-.726-6.871 2.01-.202.725 6.87-2.009.203Zm-8.729-5.318-.27-3.173a7.352 7.352 0 0 1-.034-.608c0-1.773.743-2.887 1.283-3.579l1.57 1.266c-.421.523-.843 1.199-.843 2.296 0 .135 0 .287.016.422l.27 3.174-2.026.168.034.034Zm7.649-4.997c-.102-.911-.17-1.586-.22-1.992-.067-.557-.777-.996-1.638-.996-.32 0-.641.051-.979.169l-.658-1.907a5.064 5.064 0 0 1 1.637-.287c1.925 0 3.462 1.181 3.647 2.802.05.405.118 1.097.22 2.009l-2.01.202Z"></path>
</svg>