<svg width="736" height="152" viewBox="0 0 736 152" fill="none" xmlns="http://www.w3.org/2000/svg">
<g clip-path="url(#clip0_681_1955)">
<path d="M21.6959 103.473C19.1575 108.763 13.4084 112.478 7.35701 111.528C1.30565 110.579 -1.98823 104.114 1.29809 95.6367C4.58441 87.1596 31.2754 32.7555 33.1716 28.4529C35.8309 22.4096 32.4313 19.9758 35.083 14.8895C37.7347 9.80325 42.3053 7.47488 53.1464 7.04537C63.9875 6.61586 67.8102 10.5417 67.916 18.3858C68.0218 26.23 67.4929 49.8604 66.8508 54.9466C87.4602 47.954 98.1879 46.997 100.847 58.232C115.723 51.1338 123.262 48.1122 131.338 48.3759C141.114 48.6924 144.302 59.0759 140.366 70.7329C137.752 78.4866 144.801 81.2445 149.183 72.7448C156.616 58.3375 169.263 46.251 185.944 50.0713C190.19 33.1171 194.655 22.1007 201.454 15.952C208.253 9.80325 213.987 6.41241 223.234 8.00234C232.481 9.59227 234.189 24.3612 231.31 32.8007C223.023 57.064 212.401 65.5411 208.147 74.1237C203.894 82.7063 204.325 84.0852 207.724 84.2962C211.124 84.5072 214.101 81.0109 216.752 82.2843C219.404 83.5578 225.584 90.8292 222.275 98.5001C216.11 112.802 200.6 110.157 188.807 98.3946C175.526 111.001 158.739 114.181 148.117 101.047C130.696 112.282 111.892 108.786 116.561 81.4404C118.11 72.3831 110.593 68.4497 103.922 81.7569C99.9935 89.601 96.8054 97.6486 93.723 102.524C90.6407 107.399 86.1834 109.306 80.2302 108.243C74.2771 107.181 70.885 103.262 72.3657 93.1953C73.8465 83.1283 75.3423 75.5026 76.6115 71.2603C67.4778 72.8503 64.7128 74.8621 64.7128 82.9173C64.7128 90.9724 65.0301 101.672 63.3302 106.653C61.6304 111.634 58.0192 115.341 50.6911 114.497C43.363 113.653 40.2807 108.138 41.2326 100.828C42.1845 93.5193 43.567 79.9559 44.5264 75.8191C39.1097 76.3466 32.6277 79.1045 30.399 84.2962C28.1704 89.488 24.0228 98.598 21.6884 103.473H21.6959ZM47.4124 43.3876C45.7125 45.505 42.2071 51.7592 39.019 57.0565C39.7594 56.951 43.159 56.529 46.2414 55.6775C46.7702 52.7087 46.876 47.9389 47.4124 43.3876ZM170.328 78.042C169.263 81.4328 170.117 84.0852 173.093 83.8667C176.07 83.6482 180.739 77.6125 181.275 72.5262C176.07 70.4088 171.394 74.6436 170.336 78.0345L170.328 78.042ZM213.987 34.6995C216.11 28.6563 210.376 28.2343 208.888 31.4142C207.4 34.594 205.382 41.3757 205.277 46.9894C207.717 44.4501 211.864 40.7352 213.987 34.6995Z" fill="white"/>
<path d="M348.811 40.5319C344.044 42.702 338.93 40.9538 339.141 33.6447C339.353 26.3356 340.841 18.3859 342.118 14.3621C343.394 10.3383 351.463 9.27588 356.781 14.2566C362.1 19.2374 363.475 33.8632 348.811 40.5319Z" fill="white"/>
<path d="M268.708 74.3347C253.41 78.253 247.781 68.932 249.27 60.5604C250.758 52.1888 258.298 51.9175 263.08 52.0833C272.108 52.3997 275.296 51.0208 277.524 49.2199C284.747 28.8749 288.464 20.1868 292.929 10.9637C297.393 1.74061 307.479 -0.693262 318.532 0.158216C329.577 1.00216 331.224 15.0478 329.471 22.3042C326.812 33.3206 319.378 44.6611 313.002 50.7043C321.712 49.1144 327.56 48.3759 334.14 47.208C340.72 46.04 344.868 52.6107 343.062 59.3924C341.256 66.1741 339.662 73.0612 338.597 76.5576C337.532 80.0539 341.468 84.2962 345.608 76.9796C349.748 69.6629 354.53 59.0684 357.718 53.8766C360.906 48.6849 364.835 46.462 372.594 46.251C380.352 46.04 383.639 54.2007 382.264 60.7713C391.08 51.5558 401.491 45.1961 410.738 46.04C419.985 46.884 424.812 56.205 419.66 69.5649C417 76.4521 418.708 80.6567 425.076 75.6081C434.422 68.1935 442.075 60.3494 448.02 54.8411C453.966 49.3329 465.978 49.1219 469.589 52.3018C471.395 46.899 474.689 44.2467 481.382 44.9926C488.076 45.7311 489.458 51.8798 487.222 59.724C484.986 67.5681 482.863 74.1312 482.863 78.69C482.863 83.2488 488.922 85.9992 494.656 79.534C499.332 58.232 504.114 40.1174 508.466 27.5034C512.818 14.8895 522.382 10.8657 532.792 10.8657C543.203 10.8657 547.025 20.4053 545.756 34.4961C544.487 48.5869 530.246 70.4164 521.536 79.534C522.812 87.5891 533.434 87.2726 541.299 79.6395C547.139 56.4311 550.433 42.1293 557.663 31.7458C564.892 21.3623 573.067 14.1586 583.689 14.0531C594.311 13.9476 598.481 26.6595 594.099 41.0743C587.3 63.4313 572.742 77.3111 566.162 82.5029C564.991 86.5266 567.076 89.8949 572.221 89.179C580.614 88.0111 592.936 69.3615 595.701 58.6615C597.257 52.6409 600.906 49.3405 608.023 49.3405C615.139 49.3405 618.222 54.5322 616.416 60.7864C614.61 67.0406 613.349 71.3432 612.699 74.6662C611.74 79.5415 614.293 81.9754 618.969 81.4479C623.646 80.9205 624.809 76.2562 625.98 72.5489C627.151 68.8415 629.168 63.4388 630.657 59.4075C632.145 55.3761 635.862 52.3093 643.402 52.9423C650.941 53.5752 653.495 58.2395 651.689 66.9276C649.884 75.6157 643.825 103.594 642.873 108.575C656.577 108.575 659.659 112.282 658.806 120.021C657.952 127.759 652.324 129.982 637.237 130.193C630.966 144.495 623.215 151.917 605.046 152.023C586.877 152.128 578.914 137.932 581.566 126.064C584.218 114.196 594.636 110.489 602.598 109.961C610.561 109.434 616.197 109.645 618.743 109.434C620.02 105.937 620.548 103.179 620.866 101.062C608.227 106.465 600.151 103.925 594.197 96.1868C575.076 116.743 553.402 116.848 541.609 98.9446C520.788 111.34 507.824 107.738 499.219 97.0382C487.003 107.211 473.933 105.41 469.151 97.9952C455.129 109.125 442.271 105.304 434.837 91.108C429.526 96.2998 419.962 102.343 410.405 101.175C400.848 100.007 397.441 91.319 400.524 78.9236C401.679 74.2744 398.34 72.255 392.236 75.6383C384.591 79.8731 380.02 85.3888 375.344 96.5108C373.704 100.406 369.609 103.82 362.81 103.925C356.011 104.031 352.717 101.597 352.082 96.1868C348.154 102.652 338.061 108.16 330.408 108.055C322.755 107.949 311.921 98.9446 317.444 73.4079C318.169 70.0622 316.273 68.7436 311.71 69.7006C307.147 70.6575 295.346 72.7749 290.141 73.7243C286.001 88.4557 281.642 111.34 279.942 117.594C278.242 123.848 274.737 128.611 265.92 128.935C257.104 129.259 255.298 122.681 257.739 113.887C260.179 105.093 265.067 85.6978 268.678 74.3648L268.708 74.3347ZM307.91 28.0234C309.398 22.9371 305.47 23.0426 303.875 25.8005C302.281 28.5584 299.63 33.9611 298.564 38.5124C301.753 37.3444 306.429 33.1096 307.91 28.0234ZM453.883 74.9677C451.548 78.3585 453.142 82.9173 456.217 82.8118C459.292 82.7063 463.334 77.4091 463.334 72.9558C460.357 70.7329 456.217 71.5768 453.875 74.9677H453.883ZM525.698 42.4382C528.033 36.719 523.039 35.1291 521.234 38.8364C519.428 42.5437 518.257 48.6924 516.557 56.529C520.063 52.6107 523.356 48.1574 525.691 42.4382H525.698ZM574.887 44.5556C577.01 38.7309 572.017 39.0474 570 42.0162C567.982 44.9851 565.859 51.8723 565.429 56.853C568.829 53.9897 572.757 50.3878 574.887 44.5631V44.5556ZM607.501 133.034C611.43 133.991 613.447 131.76 613.878 127.42C603.784 126.576 603.573 132.084 607.501 133.034Z" fill="white"/>
<path d="M660.618 101.243C653.887 101.19 652.86 95.0942 654.136 87.8905C655.413 80.6869 659.87 77.718 668.694 78.7805C677.518 79.8429 679.211 86.0896 677.934 91.0704C676.657 96.0511 673.9 101.348 660.618 101.243Z" fill="white"/>
<path d="M691.744 103.051C687.173 103.202 683.985 98.4926 684.944 90.9724C685.904 83.4523 691.109 80.3779 698.437 80.6944C705.765 81.0109 708.002 85.9917 707.042 92.3514C706.083 98.7111 701.625 102.735 691.744 103.051Z" fill="white"/>
<path d="M722.13 103.262C716.812 103.39 712.785 98.9145 713.525 92.1329C714.266 85.3512 718.308 80.6869 725.001 80.7924C731.695 80.8979 736.583 85.6677 735.94 91.5979C735.306 97.5281 731.158 103.044 722.13 103.255V103.262Z" fill="white"/>
</g>
<defs>
<clipPath id="clip0_681_1955">
<rect width="736" height="152" fill="white"/>
</clipPath>
</defs>
</svg>
