<svg xmlns="http://www.w3.org/2000/svg" xmlns:xlink="http://www.w3.org/1999/xlink" viewBox="0 0 421 277" width="421" height="277" preserveAspectRatio="xMidYMid meet" style="width: 100%; height: 100%; transform: translate3d(0px, 0px, 0px); content-visibility: visible;"><defs><clipPath id="__lottie_element_335"><rect width="421" height="277" x="0" y="0"></rect></clipPath></defs><g clip-path="url(#__lottie_element_335)"><g transform="matrix(-1,0,0,-1,274.6199951171875,70.84100341796875)" opacity="1" style="display: block;"><g opacity="1" transform="matrix(0.6255599856376648,0,0,0.6255599856376648,0,0)"><path stroke-linecap="butt" stroke-linejoin="miter" fill-opacity="0" stroke-miterlimit="4" stroke="rgb(255,255,255)" stroke-opacity="1" stroke-width="2" d=" M37,110.75 C37,110.75 -37,110.75 -37,110.75 M0,-110.75 C0,-110.75 0,110.75 0,110.75"></path></g></g><g transform="matrix(0.9999936819076538,0,0,0.9999936819076538,243.9991912841797,87.24732208251953)" opacity="1" style="display: block;"><g opacity="1" transform="matrix(0.625,0,0,0.625,0,0)"><path fill="rgb(255,255,255)" fill-opacity="1" d=" M3.940999984741211,-9.404999732971191 C3.2309999465942383,-11.125 1.9509999752044678,-11.8149995803833 0.1809999942779541,-11.614999771118164 C0.1809999942779541,-11.614999771118164 0.1809999942779541,-11.625 0.1809999942779541,-11.625 C-1.0889999866485596,-11.875 -2.2090001106262207,-11.175000190734863 -3.3989999294281006,-11.1850004196167 C-4.109000205993652,-11.194999694824219 -4.598999977111816,-10.824999809265137 -5.098999977111816,-10.444999694824219 C-5.879000186920166,-9.845000267028809 -6.379000186920166,-9.024999618530273 -6.749000072479248,-8.135000228881836 C-7.61899995803833,-6.025000095367432 -8.189000129699707,-3.9049999713897705 -6.848999977111816,-1.7350000143051147 C-6.439000129699707,-1.0549999475479126 -6.178999900817871,-0.29499998688697815 -5.859000205993652,0.4350000023841858 C-5.178999900817871,2.015000104904175 -4.158999919891357,3.325000047683716 -2.7890000343322754,4.335000038146973 C-2.1389999389648438,4.815000057220459 -1.5490000247955322,5.315000057220459 -1.059000015258789,5.965000152587891 C-0.29899999499320984,6.985000133514404 0.7509999871253967,7.735000133514404 1.5410000085830688,8.755000114440918 C2.2909998893737793,9.704999923706055 3.4010000228881836,10.375 4.38100004196167,11.135000228881836 C5.511000156402588,12.005000114440918 6.440999984741211,11.824999809265137 7.10099983215332,10.635000228881836 C7.580999851226807,9.765000343322754 7.750999927520752,8.744999885559082 7.580999851226807,7.84499979019165 C7.341000080108643,6.585000038146973 7.390999794006348,5.324999809265137 7.2210001945495605,4.065000057220459 C6.951000213623047,2.005000114440918 6.651000022888184,-0.054999999701976776 6.611000061035156,-2.125 C6.571000099182129,-4.375 5.841000080108643,-6.335000038146973 4.710999965667725,-8.204999923706055 C4.460999965667725,-8.604999542236328 4.120999813079834,-8.975000381469727 3.940999984741211,-9.404999732971191z"></path></g></g><g transform="matrix(0.9999937415122986,0,0,0.9999937415122986,213.65737915039062,205.08258056640625)" opacity="1" style="display: block;"><g opacity="1" transform="matrix(0.625,0,0,0.625,0,0)"><path fill="rgb(255,255,255)" fill-opacity="1" d=" M-9.20199966430664,5.7779998779296875 C-7.802000045776367,7.248000144958496 -6.111999988555908,8.23799991607666 -3.931999921798706,8.038000106811523 C-3.931999921798706,8.038000106811523 -3.9119999408721924,8.038000106811523 -3.9119999408721924,8.038000106811523 C-1.7920000553131104,7.978000164031982 0.08799999952316284,7.1579999923706055 1.7879999876022339,5.9679999351501465 C4.107999801635742,4.3480000495910645 5.538000106811523,1.9079999923706055 7.188000202178955,-0.2919999957084656 C8.418000221252441,-1.9320000410079956 9.267999649047852,-3.861999988555908 10.317999839782715,-5.642000198364258 C10.73799991607666,-6.361999988555908 10.628000259399414,-7.01200008392334 10.258000373840332,-7.671999931335449 C10.097999572753906,-7.961999893188477 9.838000297546387,-8.17199993133545 9.477999687194824,-8.001999855041504 C7.638000011444092,-7.1020002365112305 5.618000030517578,-7.111999988555908 3.6679999828338623,-6.831999778747559 C2.257999897003174,-6.622000217437744 0.8679999709129333,-6.6020002365112305 -0.5120000243186951,-6.001999855041504 C-1.8020000457763672,-5.441999912261963 -3.322000026702881,-5.4720001220703125 -4.642000198364258,-4.881999969482422 C-5.01200008392334,-4.7220001220703125 -5.392000198364258,-4.6020002365112305 -5.751999855041504,-4.432000160217285 C-8.321999549865723,-3.191999912261963 -10.182000160217285,-1.4420000314712524 -10.541999816894531,1.6180000305175781 C-10.741999626159668,3.2880001068115234 -10.281999588012695,4.6479997634887695 -9.20199966430664,5.7779998779296875z"></path></g></g><g transform="matrix(0.9999935626983643,0,0,0.9999935626983643,345.24554443359375,190.7066650390625)" opacity="1" style="display: block;"><g opacity="1" transform="matrix(0.625,0,0,0.625,0,0)"><path fill="rgb(255,255,255)" fill-opacity="1" d=" M-0.7429999709129333,5.039000034332275 C1.1069999933242798,6.138999938964844 3.1470000743865967,6.718999862670898 4.807000160217285,6.798999786376953 C4.807000160217285,6.798999786376953 4.7870001792907715,6.798999786376953 4.7870001792907715,6.798999786376953 C5.697000026702881,6.749000072479248 6.086999893188477,6.729000091552734 6.486999988555908,6.709000110626221 C7.767000198364258,6.638999938964844 8.706999778747559,6.039000034332275 9.456999778747559,4.999000072479248 C10.626999855041504,3.36899995803833 11.036999702453613,1.468999981880188 11.006999969482422,-0.4009999930858612 C10.97700023651123,-2.0209999084472656 10.357000350952148,-3.6410000324249268 8.847000122070312,-4.690999984741211 C6.63700008392334,-6.2210001945495605 4.307000160217285,-7.140999794006348 1.5069999694824219,-6.681000232696533 C-1.3830000162124634,-6.210999965667725 -4.263000011444092,-5.580999851226807 -7.2129998207092285,-5.401000022888184 C-8.322999954223633,-5.330999851226807 -9.343000411987305,-4.770999908447266 -10.333000183105469,-4.261000156402588 C-11.072999954223633,-3.871000051498413 -11.262999534606934,-2.5910000801086426 -10.61299991607666,-2.2109999656677246 C-9.003000259399414,-1.2710000276565552 -7.853000164031982,0.1589999943971634 -6.4730000495910645,1.3389999866485596 C-4.732999801635742,2.8289999961853027 -2.693000078201294,3.878999948501587 -0.7429999709129333,5.039000034332275z"></path></g></g><g transform="matrix(0.9999936819076538,0,0,0.9999936819076538,308.60479736328125,85.22633361816406)" opacity="1" style="display: block;"><g opacity="1" transform="matrix(0.625,0,0,0.625,0,0)"><path fill="rgb(255,255,255)" fill-opacity="1" d=" M-7.058000087738037,-1.7710000276565552 C-7.3379998207092285,0.6790000200271606 -7.507999897003174,3.1389999389648438 -7.7779998779296875,6.138999938964844 C-7.7779998779296875,6.138999938964844 -7.788000106811523,6.138999938964844 -7.788000106811523,6.138999938964844 C-7.8979997634887695,6.548999786376953 -7.558000087738037,7.479000091552734 -7.558000087738037,8.428999900817871 C-7.558000087738037,9.109000205993652 -7.177999973297119,9.638999938964844 -6.76800012588501,10.119000434875488 C-6.638000011444092,10.269000053405762 -6.2179999351501465,10.39900016784668 -6.168000221252441,10.33899974822998 C-5.607999801635742,9.668999671936035 -4.498000144958496,9.848999977111816 -4.0980000495910645,8.928999900817871 C-3.947999954223633,8.58899974822998 -3.6080000400543213,8.269000053405762 -3.2780001163482666,8.098999977111816 C-1.8380000591278076,7.379000186920166 -0.7480000257492065,6.189000129699707 0.421999990940094,5.158999919891357 C1.8420000076293945,3.9089999198913574 3.191999912261963,2.489000082015991 4.811999797821045,1.5889999866485596 C6.322000026702881,0.7490000128746033 6.861999988555908,-0.45100000500679016 7.441999912261963,-1.8509999513626099 C7.861999988555908,-2.8610000610351562 7.9019999504089355,-3.8510000705718994 7.6620001792907715,-4.861000061035156 C7.381999969482422,-6.020999908447266 6.932000160217285,-7.111000061035156 6.242000102996826,-8.111000061035156 C5.251999855041504,-9.541000366210938 3.812000036239624,-10.180999755859375 2.2219998836517334,-10.331000328063965 C0.9919999837875366,-10.451000213623047 -0.23800000548362732,-10.081000328063965 -1.4579999446868896,-9.611000061035156 C-2.677999973297119,-9.140999794006348 -3.308000087738037,-8.111000061035156 -4.1579999923706055,-7.330999851226807 C-5.76800012588501,-5.861000061035156 -6.797999858856201,-3.9709999561309814 -7.058000087738037,-1.7710000276565552z"></path></g></g><g transform="matrix(0.9999938011169434,0,0,0.9999938011169434,326.62567138671875,230.18545532226562)" opacity="1" style="display: block;"><g opacity="1" transform="matrix(0.625,0,0,0.625,0,0)"><path fill="rgb(255,255,255)" fill-opacity="1" d=" M-6.461999893188477,-9.057000160217285 C-6.501999855041504,-8.656999588012695 -6.501999855041504,-8.256999969482422 -6.501999855041504,-8.416999816894531 C-6.501999855041504,-8.416999816894531 -6.501999855041504,-8.427000045776367 -6.501999855041504,-8.427000045776367 C-6.501999855041504,-7.4670000076293945 -6.581999778747559,-7.057000160217285 -6.492000102996826,-6.677000045776367 C-5.8420000076293945,-3.877000093460083 -5.861999988555908,-0.996999979019165 -5.521999835968018,1.843000054359436 C-5.51200008392334,1.9229999780654907 -5.521999835968018,2.003000020980835 -5.501999855041504,2.0829999446868896 C-5.041999816894531,4.083000183105469 -4.751999855041504,6.103000164031982 -3.312000036239624,7.793000221252441 C-2.3519999980926514,8.92300033569336 -1.312000036239624,9.532999992370605 0.08799999952316284,9.682999610900879 C0.5580000281333923,9.732999801635742 1.0379999876022339,9.692999839782715 1.5180000066757202,9.732999801635742 C2.1080000400543213,9.782999992370605 2.5480000972747803,9.602999687194824 3.0280001163482666,9.222999572753906 C5.558000087738037,7.203000068664551 6.877999782562256,4.7729997634887695 6.458000183105469,1.3830000162124634 C6.118000030517578,-1.437000036239624 4.797999858856201,-3.546999931335449 2.6480000019073486,-5.2170000076293945 C0.43799999356269836,-6.936999797821045 -2.0920000076293945,-8.126999855041504 -4.581999778747559,-9.357000350952148 C-4.861999988555908,-9.496999740600586 -5.182000160217285,-9.586999893188477 -5.48199987411499,-9.677000045776367 C-6.081999778747559,-9.857000350952148 -6.4019999504089355,-9.656999588012695 -6.461999893188477,-9.057000160217285z"></path></g></g><g transform="matrix(1,0,0,1,272.4939880371094,199.01901245117188)" opacity="1" style="display: block;"><g opacity="1" transform="matrix(0.6255599856376648,0,0,0.6255599856376648,0,0)"><path fill="rgb(255,255,255)" fill-opacity="1" d=" M54.37799835205078,102.9020004272461 C55.20800018310547,101.88200378417969 56.05799865722656,100.75199890136719 55.917999267578125,99.26200103759766 C55.917999267578125,99.26200103759766 55.928001403808594,99.25199890136719 55.928001403808594,99.25199890136719 C56.13800048828125,97.6520004272461 55.28799819946289,96.08200073242188 52.928001403808594,95.59200286865234 C52.597999572753906,95.53199768066406 52.29800033569336,95.56199645996094 52.007999420166016,95.73200225830078 C50.06800079345703,96.87200164794922 49.018001556396484,99.9520034790039 49.80799865722656,101.99199676513672 C50.47800064086914,103.73200225830078 53.29800033569336,104.22200012207031 54.37799835205078,102.9020004272461z M-48.891998291015625,97.75199890136719 C-47.10200119018555,94.88200378417969 -49.77199935913086,91.27200317382812 -52.9119987487793,91.19200134277344 C-53.652000427246094,91.52200317382812 -54.762001037597656,91.50199890136719 -55.62200164794922,92.37200164794922 C-57.11199951171875,93.87200164794922 -57.4119987487793,95.7020034790039 -57.231998443603516,97.64199829101562 C-57.0620002746582,99.4219970703125 -54.79199981689453,101.03199768066406 -53.03200149536133,100.6520004272461 C-51.28200149536133,100.27200317382812 -49.902000427246094,99.38200378417969 -48.891998291015625,97.75199890136719z M28.398000717163086,-101.97799682617188 C28.398000717163086,-101.97799682617188 28.257999420166016,-102.06800079345703 28.257999420166016,-102.06800079345703 C28.257999420166016,-102.06800079345703 28.398000717163086,-102.12799835205078 28.398000717163086,-102.12799835205078 C28.398000717163086,-102.12799835205078 28.398000717163086,-101.97799682617188 28.398000717163086,-101.97799682617188z M47.38800048828125,-17.357999801635742 C47.428001403808594,-17.47800064086914 47.49800109863281,-17.577999114990234 47.55799865722656,-17.687999725341797 C47.55799865722656,-17.687999725341797 47.55799865722656,-17.67799949645996 47.55799865722656,-17.67799949645996 C47.55799865722656,-17.67799949645996 47.56800079345703,-17.67799949645996 47.56800079345703,-17.67799949645996 C47.608001708984375,-17.628000259399414 47.6879997253418,-17.558000564575195 47.6879997253418,-17.527999877929688 C47.64799880981445,-17.417999267578125 47.56800079345703,-17.308000564575195 47.507999420166016,-17.197999954223633 C47.46799850463867,-17.257999420166016 47.38800048828125,-17.31800079345703 47.38800048828125,-17.357999801635742z M23.347999572753906,-71.8479995727539 C23.29800033569336,-71.7979965209961 23.257999420166016,-71.73799896240234 23.20800018310547,-71.6780014038086 C23.20800018310547,-71.6780014038086 23.218000411987305,-71.66799926757812 23.218000411987305,-71.66799926757812 C23.08799934387207,-71.697998046875 22.95800018310547,-71.72799682617188 22.827999114990234,-71.75800323486328 C22.878000259399414,-71.85800170898438 22.95800018310547,-72.02799987792969 22.988000869750977,-72.02799987792969 C23.118000030517578,-71.99800109863281 23.22800064086914,-71.91799926757812 23.347999572753906,-71.8479995727539z M46.13800048828125,-96.60800170898438 C46.167999267578125,-96.5479965209961 46.198001861572266,-96.47799682617188 46.22800064086914,-96.39800262451172 C46.22800064086914,-96.39800262451172 46.22800064086914,-96.38800048828125 46.22800064086914,-96.38800048828125 C46.1879997253418,-96.3479995727539 46.13800048828125,-96.2979965209961 46.0880012512207,-96.25800323486328 C46.05799865722656,-96.3280029296875 46.007999420166016,-96.38800048828125 46.007999420166016,-96.447998046875 C46.018001556396484,-96.50800323486328 46.0880012512207,-96.55799865722656 46.13800048828125,-96.60800170898438z M48.70800018310547,-63.757999420166016 C48.70800018310547,-63.757999420166016 48.678001403808594,-63.608001708984375 48.678001403808594,-63.608001708984375 C48.678001403808594,-63.608001708984375 48.6879997253418,-63.608001708984375 48.6879997253418,-63.608001708984375 C48.6879997253418,-63.608001708984375 48.518001556396484,-63.70800018310547 48.518001556396484,-63.70800018310547 C48.518001556396484,-63.70800018310547 48.70800018310547,-63.757999420166016 48.70800018310547,-63.757999420166016z M56.87799835205078,-2.0179998874664307 C56.80799865722656,-2.2980000972747803 57.018001556396484,-2.3980000019073486 57.237998962402344,-2.4579999446868896 C57.46799850463867,-2.4579999446868896 57.71799850463867,-2.3980000019073486 57.6879997253418,-2.1480000019073486 C57.667999267578125,-1.9780000448226929 57.46799850463867,-1.777999997138977 57.29800033569336,-1.687999963760376 C56.99800109863281,-1.5379999876022339 56.928001403808594,-1.8079999685287476 56.87799835205078,-2.0179998874664307z M-2.3420000076293945,-77.22799682617188 C-2.431999921798706,-77.31800079345703 -2.5320000648498535,-77.40799713134766 -2.631999969482422,-77.48799896240234 C-2.631999969482422,-77.48799896240234 -2.6419999599456787,-77.48799896240234 -2.6419999599456787,-77.48799896240234 C-2.5820000171661377,-77.55799865722656 -2.552000045776367,-77.65799713134766 -2.502000093460083,-77.65799713134766 C-2.3320000171661377,-77.697998046875 -2.242000102996826,-77.5979995727539 -2.26200008392334,-77.41799926757812 C-2.26200008392334,-77.35800170898438 -2.312000036239624,-77.28800201416016 -2.3420000076293945,-77.22799682617188z M45.237998962402344,-90.62799835205078 C45.268001556396484,-90.62799835205078 45.268001556396484,-90.52799987792969 45.268001556396484,-90.41799926757812 C45.268001556396484,-90.41799926757812 45.257999420166016,-90.41799926757812 45.257999420166016,-90.41799926757812 C45.02799987792969,-90.41799926757812 44.79800033569336,-90.37799835205078 44.5880012512207,-90.4280014038086 C44.358001708984375,-90.47799682617188 44.347999572753906,-90.65799713134766 44.56800079345703,-90.697998046875 C44.78799819946289,-90.72799682617188 45.018001556396484,-90.65799713134766 45.237998962402344,-90.62799835205078z M18.29800033569336,-76.27799987792969 C18.67799949645996,-76.1780014038086 18.97800064086914,-75.95800018310547 19.01799964904785,-75.51799774169922 C19.01799964904785,-75.51799774169922 19.027999877929688,-75.51799774169922 19.027999877929688,-75.51799774169922 C18.968000411987305,-75.38800048828125 18.947999954223633,-75.16799926757812 18.857999801635742,-75.13800048828125 C18.368000030517578,-74.98799896240234 18.20800018310547,-75.39800262451172 18.097999572753906,-75.71800231933594 C18.038000106811523,-75.86799621582031 18.277999877929688,-76.27799987792969 18.29800033569336,-76.27799987792969z M51.417999267578125,-83.65799713134766 C51.46799850463867,-83.52799987792969 51.507999420166016,-83.38800048828125 51.55799865722656,-83.25800323486328 C51.54800033569336,-83.03800201416016 51.54800033569336,-82.7979965209961 51.28799819946289,-82.73799896240234 C51.198001861572266,-82.71800231933594 51.077999114990234,-82.8479995727539 50.96799850463867,-82.90799713134766 C51.11800003051758,-83.15799713134766 51.268001556396484,-83.40799713134766 51.417999267578125,-83.65799713134766z M52.52799987792969,-92.14800262451172 C52.02799987792969,-91.78800201416016 51.52799987792969,-91.4280014038086 50.88800048828125,-91.88800048828125 C51.198001861572266,-92.4280014038086 51.757999420166016,-92.46800231933594 52.268001556396484,-92.5780029296875 C52.36800003051758,-92.5979995727539 52.507999420166016,-92.43800354003906 52.608001708984375,-92.3479995727539 C52.62799835205078,-92.3280029296875 52.577999114990234,-92.18800354003906 52.52799987792969,-92.14800262451172z M51.78799819946289,-67.8479995727539 C52.077999114990234,-67.6780014038086 52.24800109863281,-67.43800354003906 52.21799850463867,-67.01799774169922 C52.21799850463867,-67.01799774169922 52.21799850463867,-67.02799987792969 52.21799850463867,-67.02799987792969 C52.03799819946289,-66.95800018310547 51.8380012512207,-66.8280029296875 51.63800048828125,-66.8280029296875 C51.178001403808594,-66.8479995727539 50.97800064086914,-67.21800231933594 50.8380012512207,-67.5780029296875 C50.79800033569336,-67.68800354003906 50.858001708984375,-67.91799926757812 50.948001861572266,-67.98799896240234 C51.24800109863281,-68.197998046875 51.52799987792969,-67.99800109863281 51.78799819946289,-67.8479995727539z M37.268001556396484,-78.00800323486328 C37.3380012512207,-78.60800170898438 37.06800079345703,-79.23799896240234 37.4379997253418,-79.88800048828125 C38.13800048828125,-79.40799713134766 38.1879997253418,-78.71800231933594 38.11800003051758,-78.01799774169922 C38.097999572753906,-77.81800079345703 37.928001403808594,-77.60800170898438 37.77799987792969,-77.45800018310547 C37.5880012512207,-77.27799987792969 37.22800064086914,-77.60800170898438 37.268001556396484,-78.00800323486328z M42.62799835205078,-86.43800354003906 C42.72800064086914,-86.33799743652344 42.77799987792969,-86.18800354003906 42.847999572753906,-86.05799865722656 C42.847999572753906,-86.05799865722656 42.858001708984375,-86.0479965209961 42.858001708984375,-86.0479965209961 C42.77799987792969,-85.947998046875 42.678001403808594,-85.73799896240234 42.61800003051758,-85.74800109863281 C41.77799987792969,-85.9280014038086 41.018001556396484,-86.30799865722656 40.31800079345703,-86.7979965209961 C40.24800109863281,-86.85800170898438 40.198001861572266,-87.08799743652344 40.24800109863281,-87.197998046875 C40.29800033569336,-87.31800079345703 40.518001556396484,-87.46800231933594 40.5880012512207,-87.43800354003906 C41.268001556396484,-87.11799621582031 42.05799865722656,-86.99800109863281 42.62799835205078,-86.43800354003906z M33.987998962402344,-76.38800048828125 C34.31800079345703,-76.06800079345703 34.5880012512207,-75.6780014038086 34.87799835205078,-75.3280029296875 C34.698001861572266,-75.16799926757812 34.61800003051758,-75.02799987792969 34.49800109863281,-74.99800109863281 C33.99800109863281,-74.88800048828125 33.577999114990234,-75.08799743652344 33.20800018310547,-75.41799926757812 C32.198001861572266,-76.30799865722656 31.63800048828125,-77.4280014038086 32.0880012512207,-77.47799682617188 C32.928001403808594,-77.55799865722656 33.448001861572266,-76.91799926757812 33.987998962402344,-76.38800048828125z M28.618000030517578,-76.4280014038086 C28.83799934387207,-76.46800231933594 29.077999114990234,-76.37799835205078 29.398000717163086,-76.3280029296875 C29.398000717163086,-76.3280029296875 29.398000717163086,-76.31800079345703 29.398000717163086,-76.31800079345703 C29.398000717163086,-76.31800079345703 29.38800048828125,-76.31800079345703 29.38800048828125,-76.31800079345703 C28.847999572753906,-74.88800048828125 28.097999572753906,-73.5780029296875 28.158000946044922,-72.03800201416016 C28.158000946044922,-71.91799926757812 28.007999420166016,-71.76799774169922 27.898000717163086,-71.66799926757812 C27.697999954223633,-71.49800109863281 27.468000411987305,-71.52799987792969 27.238000869750977,-71.62799835205078 C27.058000564575195,-71.70800018310547 27.007999420166016,-71.83799743652344 27.118000030517578,-72.01799774169922 C27.56800079345703,-72.74800109863281 28.357999801635742,-73.49800109863281 26.937999725341797,-74.05799865722656 C26.74799919128418,-74.13800048828125 26.697999954223633,-74.27799987792969 26.76799964904785,-74.447998046875 C27.13800048828125,-75.33799743652344 27.49799919128418,-76.24800109863281 28.618000030517578,-76.4280014038086z M45.917999267578125,-92.39800262451172 C45.858001708984375,-92.61799621582031 45.8380012512207,-92.85800170898438 45.81800079345703,-92.99800109863281 C45.81800079345703,-92.99800109863281 45.827999114990234,-93.00800323486328 45.827999114990234,-93.00800323486328 C45.757999420166016,-93.97799682617188 46.05799865722656,-94.60800170898438 46.95800018310547,-94.88800048828125 C47.30799865722656,-94.98799896240234 47.678001403808594,-95.447998046875 47.987998962402344,-95.02799987792969 C48.30799865722656,-94.5979995727539 48.428001403808594,-93.97799682617188 48.14799880981445,-93.49800109863281 C47.8380012512207,-92.96800231933594 47.37799835205078,-92.51799774169922 46.948001861572266,-92.0780029296875 C46.81800079345703,-91.93800354003906 46.53799819946289,-91.89800262451172 46.327999114990234,-91.89800262451172 C46.04800033569336,-91.90799713134766 45.97800064086914,-92.1780014038086 45.917999267578125,-92.39800262451172z M40.1879997253418,-29.538000106811523 C40.108001708984375,-29.538000106811523 40.03799819946289,-29.49799919128418 39.95800018310547,-29.47800064086914 C39.95800018310547,-29.47800064086914 39.96799850463867,-29.47800064086914 39.96799850463867,-29.47800064086914 C39.81800079345703,-29.488000869750977 39.65800094604492,-29.488000869750977 39.507999420166016,-29.51799964904785 C39.45800018310547,-29.527999877929688 39.39799880981445,-29.648000717163086 39.39799880981445,-29.70800018310547 C39.40800094604492,-29.857999801635742 39.39799880981445,-30.107999801635742 39.47800064086914,-30.13800048828125 C40.40800094604492,-30.538000106811523 41.347999572753906,-30.607999801635742 42.13800048828125,-29.878000259399414 C42.597999572753906,-29.45800018310547 42.948001861572266,-28.908000946044922 43.30799865722656,-28.38800048828125 C43.55799865722656,-28.01799964904785 43.37799835205078,-27.597999572753906 42.97800064086914,-27.42799949645996 C42.15800094604492,-27.077999114990234 41.27799987792969,-27.038000106811523 40.40800094604492,-26.95800018310547 C40.29800033569336,-26.947999954223633 40.097999572753906,-27.097999572753906 40.06800079345703,-27.20800018310547 C40.03799819946289,-27.327999114990234 40.108001708984375,-27.51799964904785 40.198001861572266,-27.618000030517578 C40.28799819946289,-27.718000411987305 40.45800018310547,-27.777999877929688 40.608001708984375,-27.808000564575195 C41.077999114990234,-27.908000946044922 41.597999572753906,-27.99799919128418 41.56800079345703,-28.628000259399414 C41.53799819946289,-29.197999954223633 40.9379997253418,-29.558000564575195 40.1879997253418,-29.538000106811523z M34.347999572753906,-88.43800354003906 C34.1879997253418,-88.52799987792969 34.21799850463867,-88.5479965209961 34.428001403808594,-88.47799682617188 C34.428001403808594,-88.47799682617188 34.428001403808594,-88.49800109863281 34.428001403808594,-88.49800109863281 C34.917999267578125,-88.76799774169922 35.428001403808594,-88.99800109863281 35.88800048828125,-89.2979965209961 C36.40800094604492,-89.62799835205078 36.38800048828125,-89.9280014038086 35.89799880981445,-90.39800262451172 C35.20800018310547,-91.05799865722656 35.06800079345703,-91.58799743652344 35.4379997253418,-92.11799621582031 C35.597999572753906,-92.3479995727539 36.14799880981445,-92.38800048828125 36.24800109863281,-92.13800048828125 C36.72800064086914,-90.947998046875 37.54800033569336,-89.78800201416016 36.608001708984375,-88.46800231933594 C36.097999572753906,-87.73799896240234 36.37799835205078,-86.74800109863281 35.768001556396484,-86.05799865722656 C36.20800018310547,-85.64800262451172 36.64799880981445,-85.23799896240234 37.06800079345703,-84.80799865722656 C37.11800003051758,-84.75800323486328 37.02799987792969,-84.51799774169922 36.948001861572266,-84.41799926757812 C36.78799819946289,-84.21800231933594 36.49800109863281,-84.15799713134766 36.39799880981445,-84.38800048828125 C36.15800094604492,-84.93800354003906 36.007999420166016,-85.52799987792969 35.827999114990234,-86.10800170898438 C35.11800003051758,-86.77799987792969 34.86800003051758,-87.70800018310547 34.46799850463867,-88.55799865722656 C34.428001403808594,-88.51799774169922 34.347999572753906,-88.43800354003906 34.347999572753906,-88.43800354003906z M32.178001403808594,-84.73799896240234 C31.937999725341797,-84.5479965209961 31.658000946044922,-84.40799713134766 31.38800048828125,-84.24800109863281 C31.38800048828125,-84.24800109863281 31.38800048828125,-84.23799896240234 31.38800048828125,-84.23799896240234 C31.38800048828125,-84.23799896240234 31.398000717163086,-84.23799896240234 31.398000717163086,-84.23799896240234 C31.398000717163086,-84.23799896240234 29.197999954223633,-84.23799896240234 29.197999954223633,-84.23799896240234 C30.31800079345703,-84.74800109863281 30.847999572753906,-84.4280014038086 31.398000717163086,-84.23799896240234 C30.988000869750977,-84.73799896240234 31.197999954223633,-85.08799743652344 31.687999725341797,-85.33799743652344 C31.898000717163086,-85.447998046875 32.14799880981445,-85.43800354003906 32.237998962402344,-85.16799926757812 C32.27799987792969,-85.0479965209961 32.268001556396484,-84.80799865722656 32.178001403808594,-84.73799896240234z M-56.79199981689453,-45.31800079345703 C-56.54199981689453,-43.72800064086914 -57.21200180053711,-42.327999114990234 -57.321998596191406,-40.827999114990234 C-57.321998596191406,-40.827999114990234 -57.96200180053711,-27.56800079345703 -57.96200180053711,-27.56800079345703 C-57.18199920654297,-27.06800079345703 -57.731998443603516,-26.22800064086914 -57.582000732421875,-25.558000564575195 C-56.9119987487793,-22.527999877929688 -56.97200012207031,-19.357999801635742 -55.992000579833984,-16.378000259399414 C-55.891998291015625,-16.077999114990234 -55.88199996948242,-15.748000144958496 -55.86199951171875,-15.428000450134277 C-55.77199935913086,-13.887999534606934 -55.242000579833984,-12.458000183105469 -54.6619987487793,-11.057999610900879 C-54.012001037597656,-9.517999649047852 -53.27199935913086,-8.038000106811523 -53.19200134277344,-6.288000106811523 C-53.152000427246094,-5.458000183105469 -52.6619987487793,-4.627999782562256 -52.27199935913086,-3.8480000495910645 C-51.422000885009766,-2.118000030517578 -50.992000579833984,-0.27799999713897705 -50.5620002746582,1.5820000171661377 C-50.47200012207031,1.9620000123977661 -50.402000427246094,2.371999979019165 -50.21200180053711,2.7119998931884766 C-49.0620002746582,4.742000102996826 -48.672000885009766,7.041999816894531 -47.75199890136719,9.161999702453613 C-46.672000885009766,11.642000198364258 -45.891998291015625,14.251999855041504 -44.96200180053711,16.79199981689453 C-44.141998291015625,19.04199981689453 -43.0620002746582,21.16200065612793 -41.86199951171875,23.222000122070312 C-41.301998138427734,24.18199920654297 -41.481998443603516,24.91200065612793 -42.50199890136719,25.371999740600586 C-44.38199996948242,26.222000122070312 -46.301998138427734,26.98200035095215 -47.68199920654297,28.631999969482422 C-47.731998443603516,28.68199920654297 -47.832000732421875,28.691999435424805 -47.902000427246094,28.722000122070312 C-48.5620002746582,29.031999588012695 -49.0620002746582,29.531999588012695 -49.5620002746582,30.062000274658203 C-50.262001037597656,30.812000274658203 -51.051998138427734,31.48200035095215 -51.86199951171875,32.12200164794922 C-52.93199920654297,32.97200012207031 -53.77199935913086,34.02199935913086 -54.481998443603516,35.152000427246094 C-55.53200149536133,36.821998596191406 -56.47200012207031,38.571998596191406 -57.36199951171875,40.332000732421875 C-57.71200180053711,41.02199935913086 -57.78200149536133,41.86199951171875 -58.03200149536133,42.62200164794922 C-58.172000885009766,43.071998596191406 -58.43199920654297,43.481998443603516 -58.61199951171875,43.922000885009766 C-58.821998596191406,44.44200134277344 -59.051998138427734,44.95199966430664 -59.172000885009766,45.492000579833984 C-60.00199890136719,49.141998291015625 -60.731998443603516,52.8120002746582 -60.832000732421875,56.582000732421875 C-60.86199951171875,57.94200134277344 -60.63199996948242,59.321998596191406 -60.84199905395508,60.62200164794922 C-61.36199951171875,63.922000885009766 -60.5620002746582,67.11199951171875 -60.25199890136719,70.33200073242188 C-60.11199951171875,71.73200225830078 -59.68199920654297,72.01200103759766 -58.22200012207031,72.12200164794922 C-56.87200164794922,72.23200225830078 -55.52199935913086,72.302001953125 -54.172000885009766,72.4219970703125 C-52.492000579833984,72.56199645996094 -50.821998596191406,72.38200378417969 -49.152000427246094,72.27200317382812 C-48.4119987487793,72.22200012207031 -48.25199890136719,71.96199798583984 -48.27199935913086,71.16200256347656 C-48.27199935913086,70.68199920654297 -48.28200149536133,70.2020034790039 -48.34199905395508,69.72200012207031 C-48.60200119018555,67.50199890136719 -48.902000427246094,65.29199981689453 -49.141998291015625,63.071998596191406 C-49.231998443603516,62.28200149536133 -49.28200149536133,61.47200012207031 -49.20199966430664,60.68199920654297 C-49.09199905395508,59.63199996948242 -49.19200134277344,58.60200119018555 -49.36199951171875,57.582000732421875 C-49.481998443603516,56.86199951171875 -49.52199935913086,56.1619987487793 -49.45199966430664,55.44200134277344 C-49.0620002746582,51.4119987487793 -48.59199905395508,47.422000885009766 -47.03200149536133,43.582000732421875 C-45.62200164794922,40.10200119018555 -43.44200134277344,37.422000885009766 -40.27199935913086,35.492000579833984 C-39.93199920654297,35.29199981689453 -39.53200149536133,35.1619987487793 -39.22200012207031,34.922000885009766 C-38.492000579833984,34.35200119018555 -37.641998291015625,34.22200012207031 -36.762001037597656,34.09199905395508 C-36.231998443603516,34.012001037597656 -35.88199996948242,34.09199905395508 -35.551998138427734,34.571998596191406 C-34.97200012207031,35.43199920654297 -34.301998138427734,36.22200012207031 -33.68199920654297,37.051998138427734 C-32.141998291015625,39.09199905395508 -30.41200065612793,40.97200012207031 -29.02199935913086,43.13199996948242 C-28.371999740600586,44.141998291015625 -27.73200035095215,45.1619987487793 -26.95199966430664,46.071998596191406 C-24.672000885009766,48.731998443603516 -22.48200035095215,51.46200180053711 -20.11199951171875,54.051998138427734 C-17.75200080871582,56.63199996948242 -15.541999816894531,59.37200164794922 -13.142000198364258,61.93199920654297 C-10.20199966430664,65.0719985961914 -7.191999912261963,68.13200378417969 -3.871999979019165,70.89199829101562 C-3.2019999027252197,71.46199798583984 -2.4119999408721924,71.8219985961914 -1.7719999551773071,72.43199920654297 C-0.4819999933242798,73.66200256347656 1.1979999542236328,74.25199890136719 2.7079999446868896,75.12200164794922 C3.2079999446868896,75.4219970703125 3.747999906539917,75.41200256347656 4.308000087738037,75.12200164794922 C5.947999954223633,74.28199768066406 7.507999897003174,73.35199737548828 8.838000297546387,72.03199768066406 C10.067999839782715,70.81199645996094 11.277999877929688,69.51200103759766 12.697999954223633,68.54199981689453 C14.817999839782715,67.10199737548828 16.577999114990234,65.28199768066406 18.49799919128418,63.641998291015625 C19.81800079345703,62.52199935913086 21.007999420166016,61.242000579833984 22.197999954223633,59.992000579833984 C22.99799919128418,59.141998291015625 23.757999420166016,58.242000579833984 24.527999877929688,57.37200164794922 C25.22800064086914,56.582000732421875 26.118000030517578,56.09199905395508 26.808000564575195,55.321998596191406 C28.118000030517578,53.85200119018555 29.187999725341797,52.19200134277344 30.58799934387207,50.79199981689453 C31.76799964904785,49.61199951171875 32.88800048828125,48.37200164794922 33.95800018310547,47.082000732421875 C35.987998962402344,44.641998291015625 38.20800018310547,42.36199951171875 39.577999114990234,39.402000427246094 C40.65800094604492,37.071998596191406 40.70800018310547,36.641998291015625 43.827999114990234,37.71200180053711 C44.417999267578125,37.9119987487793 44.987998962402344,38.35200119018555 45.65800094604492,38.10200119018555 C46.22800064086914,37.891998291015625 46.54800033569336,38.02199935913086 46.678001403808594,38.641998291015625 C46.737998962402344,38.95199966430664 46.81800079345703,39.391998291015625 47.02799987792969,39.492000579833984 C48.39799880981445,40.1619987487793 48.928001403808594,41.62200164794922 50.02799987792969,42.54199981689453 C50.448001861572266,42.891998291015625 50.78799819946289,43.37200164794922 51.04800033569336,43.85200119018555 C52.4379997253418,46.391998291015625 53.428001403808594,49.0620002746582 53.597999572753906,51.981998443603516 C53.61800003051758,52.29199981689453 53.678001403808594,52.62200164794922 53.79800033569336,52.9119987487793 C54.14799880981445,53.71200180053711 54.61800003051758,54.422000885009766 54.22800064086914,55.402000427246094 C53.89799880981445,56.231998443603516 54.53799819946289,57.082000732421875 54.40800094604492,57.992000579833984 C54.15800094604492,59.72200012207031 53.847999572753906,61.45199966430664 53.95800018310547,63.22200012207031 C53.97800064086914,63.52199935913086 53.89799880981445,63.87200164794922 53.74800109863281,64.14199829101562 C52.72800064086914,65.98200225830078 52.597999572753906,68.06199645996094 52.077999114990234,70.04199981689453 C51.597999572753906,71.87200164794922 51.53799819946289,73.8219985961914 50.61800003051758,75.54199981689453 C50.178001403808594,76.37200164794922 50.347999572753906,76.64199829101562 51.37799835205078,76.6719970703125 C53.768001556396484,76.74199676513672 56.15800094604492,76.77200317382812 58.54800033569336,76.8219985961914 C58.70800018310547,76.8219985961914 58.86800003051758,76.79199981689453 59.02799987792969,76.79199981689453 C59.847999572753906,76.802001953125 60.62799835205078,76.56199645996094 61.30799865722656,76.1719970703125 C61.95800018310547,75.79199981689453 61.5880012512207,74.98200225830078 61.847999572753906,74.41200256347656 C61.917999267578125,74.26200103759766 61.987998962402344,74.12200164794922 62.03799819946289,73.97200012207031 C62.80799865722656,71.64199829101562 63.37799835205078,69.24199676513672 64.3479995727539,66.97200012207031 C64.5780029296875,66.4219970703125 64.697998046875,65.9219970703125 64.14800262451172,65.46199798583984 C63.847999572753906,65.21199798583984 63.89799880981445,64.802001953125 64.22799682617188,64.69200134277344 C65.0780029296875,64.4219970703125 65.25800323486328,63.70199966430664 65.35800170898438,63.02199935913086 C65.65799713134766,61.051998138427734 65.9280014038086,59.082000732421875 66.0979995727539,57.10200119018555 C66.31800079345703,54.63199996948242 65.93800354003906,52.18199920654297 65.64800262451172,49.731998443603516 C65.31800079345703,46.84199905395508 64.22799682617188,44.19200134277344 62.77799987792969,41.731998443603516 C60.54800033569336,37.95199966430664 57.47800064086914,34.8120002746582 54.56800079345703,31.562000274658203 C54.14799880981445,31.091999053955078 53.667999267578125,30.631999969482422 53.12799835205078,30.32200050354004 C51.39799880981445,29.341999053955078 50.108001708984375,27.711999893188477 48.178001403808594,27.031999588012695 C47.77799987792969,26.892000198364258 47.698001861572266,26.461999893188477 47.90800094604492,26.02199935913086 C48.55799865722656,24.652000427246094 49.167999267578125,23.27199935913086 49.81800079345703,21.902000427246094 C51.11800003051758,19.152000427246094 51.847999572753906,16.191999435424805 53.05799865722656,13.432000160217285 C55.347999572753906,8.222000122070312 56.86800003051758,2.7820000648498535 58.237998962402344,-2.7079999446868896 C58.63800048828125,-4.317999839782715 59.018001556396484,-5.947999954223633 59.52799987792969,-7.538000106811523 C60.37799835205078,-10.197999954223633 61.27799987792969,-12.82800006866455 61.097999572753906,-15.697999954223633 C61.05799865722656,-16.22800064086914 61.36800003051758,-16.777999877929688 61.49800109863281,-17.31800079345703 C61.81800079345703,-18.718000411987305 62.22800064086914,-20.13800048828125 62.097999572753906,-21.56800079345703 C61.948001861572266,-23.167999267578125 62.22800064086914,-24.74799919128418 62.198001861572266,-26.33799934387207 C62.198001861572266,-26.33799934387207 62.95800018310547,-44.678001403808594 62.95800018310547,-44.678001403808594 C63.24800109863281,-46.268001556396484 63.257999420166016,-47.858001708984375 63.167999267578125,-49.45800018310547 C62.987998962402344,-52.70800018310547 62.70800018310547,-55.95800018310547 62.597999572753906,-59.20800018310547 C62.507999420166016,-61.827999114990234 61.99800109863281,-64.38800048828125 61.78799819946289,-66.98799896240234 C61.737998962402344,-67.68800354003906 61.72800064086914,-68.60800170898438 61.30799865722656,-69.00800323486328 C60.65800094604492,-69.61799621582031 60.108001708984375,-68.51799774169922 59.428001403808594,-68.43800354003906 C59.347999572753906,-68.4280014038086 59.268001556396484,-68.4280014038086 59.1879997253418,-68.4280014038086 C59.11800003051758,-68.43800354003906 59.03799819946289,-68.45800018310547 58.97800064086914,-68.49800109863281 C58.81800079345703,-68.58799743652344 58.757999420166016,-68.75800323486328 58.87799835205078,-68.90799713134766 C59.06800079345703,-69.15799713134766 59.28799819946289,-69.38800048828125 59.507999420166016,-69.61799621582031 C59.99800109863281,-70.13800048828125 60.99800109863281,-70.13800048828125 61.14799880981445,-70.90799713134766 C61.29800033569336,-71.66799926757812 61.178001403808594,-72.48799896240234 61.097999572753906,-73.27799987792969 C61.03799819946289,-73.90799713134766 60.86800003051758,-74.53800201416016 60.737998962402344,-75.15799713134766 C60.608001708984375,-75.77799987792969 60.55799865722656,-76.43800354003906 60.39799880981445,-77.00800323486328 C59.96799850463867,-78.55799865722656 60.24800109863281,-80.13800048828125 59.89799880981445,-81.68800354003906 C59.20800018310547,-84.697998046875 58.63800048828125,-87.72799682617188 58.02799987792969,-90.75800323486328 C57.757999420166016,-92.08799743652344 57.608001708984375,-93.447998046875 57.27799987792969,-94.75800323486328 C56.577999114990234,-97.52799987792969 55.79800033569336,-100.27799987792969 55.03799819946289,-103.02799987792969 C54.79800033569336,-103.86799621582031 54.608001708984375,-104.74800109863281 54.21799850463867,-105.51799774169922 C53.11800003051758,-107.64800262451172 53.27799987792969,-110.22799682617188 51.77799987792969,-112.20800018310547 C51.64799880981445,-112.37799835205078 51.698001861572266,-112.6780014038086 51.64799880981445,-112.90799713134766 C51.36800003051758,-114.28800201416016 50.65800094604492,-115.35800170898438 49.49800109863281,-116.21800231933594 C48.827999114990234,-116.71800231933594 48.327999114990234,-116.85800170898438 47.55799865722656,-116.51799774169922 C44.64799880981445,-115.23799896240234 41.698001861572266,-114.03800201416016 38.79800033569336,-112.73799896240234 C37.86800003051758,-112.3280029296875 37.108001708984375,-111.55799865722656 36.11800003051758,-111.21800231933594 C35.987998962402344,-111.16799926757812 35.79800033569336,-110.96800231933594 35.81800079345703,-110.86799621582031 C35.96799850463867,-109.85800170898438 35.097999572753906,-110.12799835205078 34.62799835205078,-109.85800170898438 C32.827999114990234,-108.8280029296875 31.158000946044922,-107.5780029296875 29.67799949645996,-106.15799713134766 C28.13800048828125,-104.6780014038086 26.49799919128418,-103.30799865722656 25.058000564575195,-101.697998046875 C22.88800048828125,-99.26799774169922 20.33799934387207,-97.21800231933594 18.38800048828125,-94.55799865722656 C16.947999954223633,-92.5780029296875 15.197999954223633,-90.83799743652344 13.807999610900879,-88.78800201416016 C11.838000297546387,-85.87799835205078 9.708000183105469,-83.08799743652344 8.07800006866455,-79.96800231933594 C7.677999973297119,-79.18800354003906 7.107999801635742,-78.49800109863281 6.547999858856201,-77.81800079345703 C5.507999897003174,-76.5479965209961 4.3480000495910645,-76.5780029296875 3.427999973297119,-77.89800262451172 C2.6080000400543213,-79.0780029296875 1.7879999876022339,-80.23799896240234 0.8579999804496765,-81.33799743652344 C0.04800000041723251,-82.2979965209961 -0.871999979019165,-83.22799682617188 -1.5019999742507935,-84.27799987792969 C-2.4619998931884766,-85.87799835205078 -3.6519999504089355,-87.21800231933594 -5.001999855041504,-88.45800018310547 C-5.3520002365112305,-88.77799987792969 -5.691999912261963,-89.11799621582031 -6.01200008392334,-89.46800231933594 C-7.771999835968018,-91.40799713134766 -9.321999549865723,-93.52799987792969 -11.26200008392334,-95.30799865722656 C-11.85200023651123,-95.8479995727539 -12.411999702453613,-96.447998046875 -12.842000007629395,-97.10800170898438 C-14.402000427246094,-99.53800201416016 -16.422000885009766,-101.5780029296875 -18.381999969482422,-103.63800048828125 C-21.052000045776367,-106.43800354003906 -23.52199935913086,-109.447998046875 -26.66200065612793,-111.76799774169922 C-26.922000885009766,-111.947998046875 -27.142000198364258,-112.197998046875 -27.32200050354004,-112.45800018310547 C-28.402000427246094,-113.96800231933594 -30.121999740600586,-114.81800079345703 -31.25200080871582,-116.27799987792969 C-31.392000198364258,-116.45800018310547 -31.61199951171875,-116.5979995727539 -31.812000274658203,-116.71800231933594 C-32.71200180053711,-117.25800323486328 -33.082000732421875,-117.16799926757812 -33.8120002746582,-116.35800170898438 C-34.45199966430664,-115.64800262451172 -35.22200012207031,-115.02799987792969 -35.742000579833984,-114.24800109863281 C-37.28200149536133,-111.93800354003906 -38.652000427246094,-109.50800323486328 -40.37200164794922,-107.31800079345703 C-40.52199935913086,-107.12799835205078 -40.63199996948242,-106.90799713134766 -40.72200012207031,-106.68800354003906 C-42.20199966430664,-103.16799926757812 -43.93199920654297,-99.75800323486328 -45.03200149536133,-96.06800079345703 C-45.68199920654297,-93.85800170898438 -46.62200164794922,-91.73799896240234 -47.321998596191406,-89.53800201416016 C-48.38199996948242,-86.197998046875 -49.35200119018555,-82.83799743652344 -50.34199905395508,-79.47799682617188 C-50.61199951171875,-78.55799865722656 -50.96200180053711,-77.6780014038086 -51.1619987487793,-76.72799682617188 C-51.8120002746582,-73.61799621582031 -52.59199905395508,-70.52799987792969 -53.051998138427734,-67.36799621582031 C-53.10200119018555,-66.97799682617188 -53.242000579833984,-66.58799743652344 -53.37200164794922,-66.21800231933594 C-54.051998138427734,-64.3280029296875 -54.492000579833984,-62.38800048828125 -54.46200180053711,-60.36800003051758 C-54.45199966430664,-59.89799880981445 -54.46200180053711,-59.39799880981445 -54.60200119018555,-58.948001861572266 C-55.52199935913086,-55.95800018310547 -55.50199890136719,-52.80799865722656 -56.262001037597656,-49.79800033569336 C-56.02199935913086,-48.24800109863281 -57.03200149536133,-46.80799865722656 -56.79199981689453,-45.31800079345703z M59.95800018310547,88.96199798583984 C59.95800018310547,88.96199798583984 60.03799819946289,88.83200073242188 60.03799819946289,88.83200073242188 C60.03799819946289,88.83200073242188 60.097999572753906,88.96199798583984 60.097999572753906,88.96199798583984 C60.097999572753906,88.96199798583984 59.95800018310547,88.96199798583984 59.95800018310547,88.96199798583984z M110.27799987792969,110.36199951171875 C109.93800354003906,110.39199829101562 109.72799682617188,110.21199798583984 109.72799682617188,109.85199737548828 C109.72799682617188,109.85199737548828 109.72799682617188,109.86199951171875 109.72799682617188,109.86199951171875 C109.80799865722656,109.75199890136719 109.88800048828125,109.54199981689453 109.96800231933594,109.54199981689453 C110.2979965209961,109.53199768066406 110.51799774169922,109.72200012207031 110.51799774169922,110.06199645996094 C110.51799774169922,110.16200256347656 110.36799621582031,110.36199951171875 110.27799987792969,110.36199951171875z M57.858001708984375,96.31199645996094 C58.32500076293945,97.1050033569336 58.54800033569336,97.91500091552734 58.52799987792969,98.74199676513672 C58.52799987792969,98.74199676513672 58.52799987792969,98.76200103759766 58.52799987792969,98.76200103759766 C58.64799880981445,100.43199920654297 57.96799850463867,101.84200286865234 57.1879997253418,103.26200103759766 C56.24800109863281,104.9520034790039 54.61800003051758,105.69200134277344 52.97800064086914,106.21199798583984 C51.90800094604492,106.552001953125 50.608001708984375,106.29199981689453 49.47800064086914,105.86199951171875 C48.917999267578125,105.6520004272461 48.507999420166016,105.2020034790039 48.39799880981445,104.6520004272461 C48.198001861572266,103.69200134277344 47.8380012512207,102.84200286865234 47.38800048828125,101.98200225830078 C47.007999420166016,101.25199890136719 47.178001403808594,100.41200256347656 47.28799819946289,99.62200164794922 C47.518001556396484,98.00199890136719 48.237998962402344,96.53199768066406 49.097999572753906,95.22200012207031 C49.768001556396484,94.19200134277344 51.02799987792969,93.60199737548828 52.22800064086914,93.13200378417969 C53.097999572753906,92.78199768066406 53.95800018310547,92.96199798583984 54.78799819946289,93.3219985961914 C55.0880012512207,93.4520034790039 55.37799835205078,93.58200073242188 55.6879997253418,93.6520004272461 C56.577999114990234,93.84200286865234 57.38800048828125,94.052001953125 57.358001708984375,95.25199890136719 C57.347999572753906,95.60199737548828 57.65800094604492,95.97200012207031 57.858001708984375,96.31199645996094z M73.14800262451172,98.31199645996094 C73.43800354003906,97.49199676513672 73.93800354003906,96.74199676513672 73.93800354003906,95.77200317382812 C73.93800354003906,95.77200317382812 73.9280014038086,95.77200317382812 73.9280014038086,95.77200317382812 C72.76799774169922,95.35199737548828 71.68800354003906,94.802001953125 70.33799743652344,94.84200286865234 C69.2979965209961,94.87200164794922 68.74800109863281,95.2020034790039 68.35800170898438,96.13200378417969 C67.6780014038086,97.75199890136719 66.8479995727539,99.3219985961914 66.63800048828125,101.09200286865234 C66.53800201416016,101.98200225830078 65.86799621582031,102.25199890136719 65.21800231933594,102.54199981689453 C64.7979965209961,102.73200225830078 64.18800354003906,102.3219985961914 64.16799926757812,101.85199737548828 C64.15799713134766,101.54199981689453 64.14800262451172,101.19200134277344 64.25800323486328,100.91200256347656 C64.88800048828125,99.28199768066406 65.60800170898438,97.68199920654297 66.21800231933594,96.04199981689453 C67.14800262451172,93.552001953125 67.60800170898438,93.60199737548828 64.98799896240234,91.78199768066406 C63.007999420166016,90.41200256347656 61.698001861572266,88.5719985961914 61.1879997253418,86.19200134277344 C60.948001861572266,85.10199737548828 60.74800109863281,84.00199890136719 60.77799987792969,82.87200164794922 C60.78799819946289,82.0719985961914 60.80799865722656,81.27200317382812 60.757999420166016,80.47200012207031 C60.6879997253418,79.36199951171875 60.14799880981445,78.76200103759766 59.0880012512207,78.9020004272461 C58.02799987792969,79.04199981689453 57.02799987792969,78.83200073242188 56.007999420166016,78.7020034790039 C55.05799865722656,78.58200073242188 54.077999114990234,78.552001953125 53.14799880981445,78.78199768066406 C52.27799987792969,79.00199890136719 51.40800094604492,79.08200073242188 50.53799819946289,78.96199798583984 C49.90800094604492,78.88200378417969 49.64799880981445,79.1719970703125 49.47800064086914,79.6520004272461 C48.667999267578125,81.9020004272461 47.737998962402344,84.11199951171875 47.097999572753906,86.41200256347656 C46.257999420166016,89.4020004272461 45.21799850463867,92.3219985961914 43.9379997253418,95.14199829101562 C43.52799987792969,96.04199981689453 43.24800109863281,96.96199798583984 43.21799850463867,97.88200378417969 C43.167999267578125,99.09200286865234 42.847999572753906,100.21199798583984 42.448001861572266,101.31199645996094 C42.257999420166016,101.84200286865234 42.20800018310547,102.38200378417969 42.05799865722656,102.9020004272461 C41.4379997253418,104.99199676513672 41.40800094604492,107.1520004272461 41.31800079345703,109.28199768066406 C41.21799850463867,111.72200012207031 42.24800109863281,113.38200378417969 44.518001556396484,113.99199676513672 C45.507999420166016,114.25199890136719 46.56800079345703,114.28199768066406 47.597999572753906,114.34200286865234 C50.72800064086914,114.51200103759766 53.88800048828125,114.13200378417969 56.99800109863281,114.68199920654297 C59.518001556396484,115.12200164794922 62.077999114990234,115.04199981689453 64.61799621582031,115.31199645996094 C67.86799621582031,115.66200256347656 71.12799835205078,115.88200378417969 74.38800048828125,116.14199829101562 C75.41799926757812,116.22200012207031 76.47799682617188,116.11199951171875 77.48799896240234,116.29199981689453 C81.26799774169922,116.96199798583984 85.11799621582031,116.3219985961914 88.89800262451172,116.89199829101562 C89.11799621582031,116.9219970703125 89.36799621582031,116.73200225830078 89.5979995727539,116.73200225830078 C90.63800048828125,116.66200256347656 91.66799926757812,116.5719985961914 92.70800018310547,116.59200286865234 C93.8280029296875,116.61199951171875 94.91799926757812,116.4219970703125 96.02799987792969,116.33200073242188 C98.00800323486328,116.16200256347656 99.90799713134766,115.49199676513672 101.93800354003906,115.56199645996094 C103.33799743652344,115.61199951171875 104.75800323486328,115.16200256347656 106.08799743652344,114.60199737548828 C107.53800201416016,113.98200225830078 108.96800231933594,113.302001953125 110.43800354003906,112.71199798583984 C111.12799835205078,112.43199920654297 111.50800323486328,111.9219970703125 111.5479965209961,111.28199768066406 C111.60800170898438,110.43199920654297 111.68800354003906,109.53199768066406 111.33799743652344,108.71199798583984 C110.41799926757812,106.56199645996094 109.05799865722656,104.7020034790039 107.3280029296875,103.14199829101562 C106.74800109863281,102.62200164794922 105.90799713134766,102.39199829101562 105.31800079345703,101.88200378417969 C102.70800018310547,99.6520004272461 99.46800231933594,98.81199645996094 96.31800079345703,97.81199645996094 C94.98799896240234,97.38200378417969 93.53800201416016,97.34200286865234 92.1780014038086,97.13200378417969 C92.0780029296875,97.22200012207031 91.98799896240234,97.27200317382812 91.96800231933594,97.33200073242188 C91.40799713134766,99.31199645996094 90.60800170898438,101.22200012207031 90.53800201416016,103.3219985961914 C90.50800323486328,104.03199768066406 89.86799621582031,104.56199645996094 89.0780029296875,104.59200286865234 C88.447998046875,104.62200164794922 88.02799987792969,104.14199829101562 87.88800048828125,103.35199737548828 C87.76799774169922,102.6719970703125 87.9280014038086,102.08200073242188 88.24800109863281,101.51200103759766 C88.87799835205078,100.36199951171875 89.16799926757812,99.13200378417969 89.20800018310547,97.84200286865234 C89.22799682617188,97.1520004272461 88.96800231933594,96.59200286865234 88.14800262451172,96.54199981689453 C86.7979965209961,96.46199798583984 85.45800018310547,96.302001953125 84.10800170898438,96.1719970703125 C83.26799774169922,97.4219970703125 82.49800109863281,98.71199798583984 81.93800354003906,100.11199951171875 C81.58799743652344,101.00199890136719 81.24800109863281,101.89199829101562 80.97799682617188,102.81199645996094 C80.7979965209961,103.44200134277344 80.56800079345703,104.01200103759766 80.14800262451172,104.51200103759766 C79.90799713134766,104.802001953125 79.27799987792969,104.86199951171875 79.05799865722656,104.64199829101562 C78.43800354003906,104.01200103759766 78.15799713134766,102.85199737548828 78.63800048828125,102.24199676513672 C79.85800170898438,100.68199920654297 80.18800354003906,98.75199890136719 80.98799896240234,97.02200317382812 C81.13800048828125,96.7020034790039 81.36799621582031,96.31199645996094 81.00800323486328,95.9219970703125 C79.98799896240234,95.552001953125 78.95800018310547,95.96199798583984 77.93800354003906,95.88200378417969 C76.76799774169922,95.78199768066406 76.12799835205078,96.4020004272461 75.72799682617188,97.34200286865234 C75.13800048828125,98.73200225830078 74.47799682617188,100.10199737548828 74.14800262451172,101.59200286865234 C74.08799743652344,101.9020004272461 74.01799774169922,102.22200012207031 73.87799835205078,102.50199890136719 C73.58799743652344,103.09200286865234 72.77799987792969,103.24199676513672 72.22799682617188,102.83200073242188 C71.40799713134766,102.23200225830078 71.16799926757812,101.31199645996094 71.89800262451172,100.552001953125 C72.5479965209961,99.88200378417969 72.86799621582031,99.11199951171875 73.14800262451172,98.31199645996094z M-81.10199737548828,114.25199890136719 C-81.0719985961914,114.25199890136719 -81.02200317382812,114.35199737548828 -80.98200225830078,114.41200256347656 C-80.98200225830078,114.41200256347656 -80.97200012207031,114.41200256347656 -80.97200012207031,114.41200256347656 C-81.09200286865234,114.4520034790039 -81.21199798583984,114.52200317382812 -81.33200073242188,114.52200317382812 C-81.37200164794922,114.52200317382812 -81.4219970703125,114.4219970703125 -81.47200012207031,114.37200164794922 C-81.35199737548828,114.33200073242188 -81.23200225830078,114.27200317382812 -81.10199737548828,114.25199890136719z M-58.731998443603516,112.25199890136719 C-58.62200164794922,112.28199768066406 -58.551998138427734,112.43199920654297 -58.46200180053711,112.52200317382812 C-58.512001037597656,112.78199768066406 -58.69200134277344,112.93199920654297 -58.93199920654297,112.91200256347656 C-59.012001037597656,112.9020004272461 -59.141998291015625,112.71199798583984 -59.141998291015625,112.59200286865234 C-59.1619987487793,112.33200073242188 -59.012001037597656,112.16200256347656 -58.731998443603516,112.25199890136719z M-82.89199829101562,114.04199981689453 C-83.06199645996094,114.58200073242188 -83.59200286865234,114.62200164794922 -84.02200317382812,114.802001953125 C-84.02200317382812,114.802001953125 -84.03199768066406,114.802001953125 -84.03199768066406,114.802001953125 C-84.10199737548828,114.6719970703125 -84.24199676513672,114.53199768066406 -84.22200012207031,114.41200256347656 C-84.16200256347656,113.99199676513672 -83.91200256347656,113.6719970703125 -83.50199890136719,113.552001953125 C-83.37200164794922,113.51200103759766 -83.18199920654297,113.5719985961914 -83.0719985961914,113.66200256347656 C-82.97200012207031,113.74199676513672 -82.86199951171875,113.94200134277344 -82.89199829101562,114.04199981689453z M-59.27199935913086,99.11199951171875 C-59.3120002746582,98.3219985961914 -59.4119987487793,97.53199768066406 -59.481998443603516,96.74199676513672 C-59.481998443603516,96.74199676513672 -59.481998443603516,96.73200225830078 -59.481998443603516,96.73200225830078 C-59.8120002746582,94.72200012207031 -58.62200164794922,93.24199676513672 -57.72200012207031,91.6719970703125 C-57.4119987487793,91.13200378417969 -56.922000885009766,90.69200134277344 -56.50199890136719,90.21199798583984 C-56.34199905395508,90.03199768066406 -56.20199966430664,89.76200103759766 -56.012001037597656,89.71199798583984 C-54.34199905395508,89.26200103759766 -52.72200012207031,88.48200225830078 -50.9119987487793,88.76200103759766 C-50.60200119018555,88.81199645996094 -50.28200149536133,88.91200256347656 -50.02199935913086,89.08200073242188 C-47.88199996948242,90.4520034790039 -46.25199890136719,92.18199920654297 -45.84199905395508,94.8219985961914 C-45.62200164794922,96.26200103759766 -46.10200119018555,97.49199676513672 -46.87200164794922,98.64199829101562 C-47.3120002746582,99.29199981689453 -47.832000732421875,99.91200256347656 -48.36199951171875,100.49199676513672 C-50.19200134277344,102.49199676513672 -52.301998138427734,103.4520034790039 -55.141998291015625,102.86199951171875 C-56.801998138427734,102.52200317382812 -57.8120002746582,101.60199737548828 -58.77199935913086,100.4219970703125 C-59.071998596191406,100.052001953125 -59.242000579833984,99.61199951171875 -59.27199935913086,99.11199951171875z M-90.19200134277344,104.81199645996094 C-90.36199951171875,105.16200256347656 -90.50199890136719,105.52200317382812 -90.66200256347656,105.88200378417969 C-90.66200256347656,105.88200378417969 -90.68199920654297,105.86199951171875 -90.68199920654297,105.86199951171875 C-92.31199645996094,104.89199829101562 -92.53199768066406,104.6719970703125 -92.9020004272461,103.26200103759766 C-93.2020034790039,102.11199951171875 -93.36199951171875,100.9219970703125 -93.7020034790039,99.78199768066406 C-93.96199798583984,98.88200378417969 -94.18199920654297,97.78199768066406 -94.8219985961914,97.22200012207031 C-95.5719985961914,96.56199645996094 -96.59200286865234,97.52200317382812 -97.53199768066406,97.552001953125 C-98.00199890136719,97.5719985961914 -98.47200012207031,97.7020034790039 -98.94200134277344,97.81199645996094 C-101.86199951171875,98.49199676513672 -104.79199981689453,99.08200073242188 -107.46199798583984,100.59200286865234 C-108.19200134277344,101.01200103759766 -108.79199981689453,101.46199798583984 -109.24199676513672,102.11199951171875 C-110.4020004272461,103.76200103759766 -111.11199951171875,105.58200073242188 -111.43199920654297,107.60199737548828 C-111.86199951171875,110.3219985961914 -111.51200103759766,112.802001953125 -109.94200134277344,115.11199951171875 C-109.35199737548828,115.98200225830078 -108.64199829101562,116.49199676513672 -107.59200286865234,116.50199890136719 C-105.84200286865234,116.53199768066406 -104.09200286865234,116.54199981689453 -102.34200286865234,116.58200073242188 C-101.302001953125,116.60199737548828 -100.26200103759766,116.6520004272461 -99.23200225830078,116.73200225830078 C-98.27200317382812,116.81199645996094 -97.302001953125,116.75199890136719 -96.38200378417969,116.84200286865234 C-94.71199798583984,116.99199676513672 -93.0719985961914,116.6520004272461 -91.41200256347656,116.84200286865234 C-89.59200286865234,117.052001953125 -87.74199676513672,117.0719985961914 -85.91200256347656,117.052001953125 C-81.61199951171875,117.01200103759766 -77.302001953125,116.85199737548828 -73.00199890136719,116.85199737548828 C-68.7020034790039,116.84200286865234 -64.4020004272461,116.98200225830078 -60.10200119018555,117.02200317382812 C-58.43199920654297,117.04199981689453 -56.75199890136719,116.88200378417969 -55.082000732421875,116.94200134277344 C-52.35200119018555,117.04199981689453 -49.672000885009766,116.74199676513672 -46.992000579833984,116.23200225830078 C-44.84199905395508,115.8219985961914 -43.321998596191406,114.48200225830078 -41.77199935913086,113.13200378417969 C-41.262001037597656,112.68199920654297 -41.09199905395508,112.08200073242188 -40.87200164794922,111.48200225830078 C-39.88199996948242,108.8219985961914 -40.332000732421875,106.16200256347656 -40.78200149536133,103.48200225830078 C-41.1619987487793,101.2020034790039 -42.1619987487793,99.10199737548828 -42.762001037597656,96.88200378417969 C-43.61199951171875,93.73200225830078 -44.22200012207031,90.52200317382812 -45.321998596191406,87.43199920654297 C-46.0620002746582,85.36199951171875 -46.29199981689453,83.11199951171875 -46.731998443603516,80.93199920654297 C-47.082000732421875,79.21199798583984 -47.45199966430664,77.49199676513672 -47.731998443603516,75.76200103759766 C-47.86199951171875,74.96199798583984 -48.28200149536133,74.68199920654297 -49.00199890136719,74.62200164794922 C-49.242000579833984,74.60199737548828 -49.47200012207031,74.5719985961914 -49.71200180053711,74.53199768066406 C-52.75199890136719,74.04199981689453 -55.762001037597656,74.46199798583984 -58.78200149536133,74.71199798583984 C-59.71200180053711,74.79199981689453 -59.891998291015625,75.00199890136719 -59.71200180053711,75.93199920654297 C-59.22200012207031,78.41200256347656 -59.5620002746582,80.81199645996094 -60.10200119018555,83.25199890136719 C-60.422000885009766,84.72200012207031 -61.3120002746582,85.81199645996094 -61.922000885009766,87.09200286865234 C-62.85200119018555,89.06199645996094 -64.31199645996094,90.39199829101562 -66.26200103759766,91.29199981689453 C-67.7020034790039,91.9520034790039 -68.02200317382812,92.7020034790039 -67.58200073242188,94.14199829101562 C-67.44200134277344,94.60199737548828 -67.26200103759766,95.052001953125 -67.06199645996094,95.48200225830078 C-66.52200317382812,96.64199829101562 -65.97200012207031,97.79199981689453 -65.38200378417969,98.9219970703125 C-65.04199981689453,99.56199645996094 -65.0719985961914,100.12200164794922 -65.47200012207031,100.71199798583984 C-65.78199768066406,101.1520004272461 -66.31199645996094,101.2020034790039 -66.68199920654297,100.79199981689453 C-67.11199951171875,100.302001953125 -67.37200164794922,99.75199890136719 -67.59200286865234,99.13200378417969 C-68.04199981689453,97.85199737548828 -68.52200317382812,96.5719985961914 -69.1520004272461,95.38200378417969 C-69.54199981689453,94.63200378417969 -69.79199981689453,93.61199951171875 -70.64199829101562,93.29199981689453 C-71.31199645996094,93.052001953125 -71.97200012207031,93.68199920654297 -72.6520004272461,93.89199829101562 C-72.802001953125,93.93199920654297 -72.96199798583984,93.94200134277344 -73.12200164794922,93.98200225830078 C-75.4020004272461,94.52200317382812 -75.62200164794922,94.69200134277344 -75.16200256347656,96.99199676513672 C-74.86199951171875,98.51200103759766 -74.802001953125,100.16200256347656 -73.58200073242188,101.4219970703125 C-73.02200317382812,102.01200103759766 -73.01200103759766,102.88200378417969 -73.2020034790039,103.7020034790039 C-73.34200286865234,104.302001953125 -73.74199676513672,104.75199890136719 -74.27200317382812,104.8219985961914 C-74.78199768066406,104.89199829101562 -75.4219970703125,104.5719985961914 -75.63200378417969,104.052001953125 C-75.802001953125,103.61199951171875 -75.86199951171875,103.13200378417969 -75.97200012207031,102.6719970703125 C-76.61199951171875,99.97200012207031 -77.24199676513672,97.28199768066406 -77.86199951171875,94.61199951171875 C-79.69200134277344,94.33200073242188 -81.18199920654297,95.14199829101562 -82.86199951171875,95.47200012207031 C-82.77200317382812,98.27200317382812 -82.802001953125,100.97200012207031 -81.13200378417969,103.34200286865234 C-80.61199951171875,104.0719985961914 -81.02200317382812,105.24199676513672 -81.9020004272461,105.77200317382812 C-82.23200225830078,105.97200012207031 -82.50199890136719,105.74199676513672 -82.76200103759766,105.56199645996094 C-83.2020034790039,105.26200103759766 -83.21199798583984,104.74199676513672 -83.37200164794922,104.302001953125 C-84.2020034790039,101.98200225830078 -84.73200225830078,99.59200286865234 -85.12200164794922,97.1719970703125 C-85.26200103759766,96.29199981689453 -85.71199798583984,95.74199676513672 -86.61199951171875,95.56199645996094 C-86.99199676513672,95.48200225830078 -87.4219970703125,95.41200256347656 -87.79199981689453,95.50199890136719 C-88.9520034790039,95.79199981689453 -90.12200164794922,96.03199768066406 -91.3219985961914,96.12200164794922 C-91.74199676513672,96.1520004272461 -92.0719985961914,96.47200012207031 -92.0719985961914,96.9219970703125 C-92.0719985961914,97.56199645996094 -92.13200378417969,98.23200225830078 -91.9520034790039,98.8219985961914 C-91.54199981689453,100.18199920654297 -91.34200286865234,101.64199829101562 -90.39199829101562,102.802001953125 C-89.88200378417969,103.4219970703125 -89.8219985961914,104.09200286865234 -90.19200134277344,104.81199645996094z"></path></g></g><g transform="matrix(0.9961947202682495,0.08715574443340302,-0.08715574443340302,0.9961947202682495,331.0868835449219,144.13174438476562)" opacity="1" style="display: block;"><g opacity="1" transform="matrix(0.6255599856376648,0,0,0.6255599856376648,0,0)"><path fill="rgb(255,255,255)" fill-opacity="1" d=" M27.320999145507812,-63.19499969482422 C28.400999069213867,-63.05500030517578 29.051000595092773,-62.564998626708984 29.340999603271484,-61.48500061035156 C29.67099952697754,-60.255001068115234 30.090999603271484,-59.05500030517578 30.211000442504883,-57.974998474121094 C30.211000442504883,-57.974998474121094 30.201000213623047,-57.974998474121094 30.201000213623047,-57.974998474121094 C30.10099983215332,-55.744998931884766 29.570999145507812,-53.845001220703125 28.551000595092773,-52.084999084472656 C27.990999221801758,-51.125 27.121000289916992,-50.904998779296875 26.10099983215332,-51.44499969482422 C25.820999145507812,-51.595001220703125 25.590999603271484,-51.834999084472656 25.31100082397461,-51.96500015258789 C24.72100067138672,-52.224998474121094 24.150999069213867,-52.51499938964844 23.81100082397461,-53.095001220703125 C23.400999069213867,-53.78499984741211 24.070999145507812,-54.28499984741211 24.131000518798828,-54.8849983215332 C24.231000900268555,-55.935001373291016 24.51099967956543,-56.915000915527344 24.83099937438965,-57.904998779296875 C25.19099998474121,-59.005001068115234 24.871000289916992,-60.125 24.910999298095703,-61.23500061035156 C24.951000213623047,-62.435001373291016 26.111000061035156,-63.35499954223633 27.320999145507812,-63.19499969482422z M21.240999221801758,-53.14500045776367 C20.361000061035156,-51.30500030517578 18.570999145507812,-50.994998931884766 17.19099998474121,-52.435001373291016 C16.92099952697754,-52.724998474121094 16.69099998474121,-53.05500030517578 16.430999755859375,-53.35499954223633 C15.861000061035156,-53.994998931884766 15.571000099182129,-54.70500183105469 15.840999603271484,-55.55500030517578 C16.31100082397461,-57.025001525878906 16.17099952697754,-58.55500030517578 16.320999145507812,-60.05500030517578 C16.371000289916992,-60.60499954223633 16.56100082397461,-61.14500045776367 16.621000289916992,-61.69499969482422 C16.820999145507812,-63.54499816894531 18.900999069213867,-64.53500366210938 20.7810001373291,-64.50499725341797 C21.590999603271484,-64.49500274658203 22.31100082397461,-63.744998931884766 22.451000213623047,-62.724998474121094 C22.60099983215332,-61.70500183105469 22.621000289916992,-60.654998779296875 22.701000213623047,-59.625 C22.701000213623047,-59.625 22.69099998474121,-59.625 22.69099998474121,-59.625 C22.740999221801758,-57.345001220703125 22.211000442504883,-55.19499969482422 21.240999221801758,-53.14500045776367z M7.701000213623047,-59.595001220703125 C7.701000213623047,-59.595001220703125 7.671000003814697,-59.595001220703125 7.671000003814697,-59.595001220703125 C7.671000003814697,-59.595001220703125 7.671000003814697,-59.60499954223633 7.671000003814697,-59.60499954223633 C7.671000003814697,-60.244998931884766 7.7210001945495605,-60.8849983215332 7.671000003814697,-61.51499938964844 C7.480999946594238,-63.60499954223633 8.690999984741211,-64.95500183105469 10.10099983215332,-66.17500305175781 C10.770999908447266,-66.75499725341797 11.520999908447266,-66.74500274658203 12.300999641418457,-66.2249984741211 C13.10099983215332,-65.69499969482422 13.940999984741211,-65.16500091552734 13.781000137329102,-63.98500061035156 C14.791000366210938,-61.665000915527344 14.300999641418457,-59.30500030517578 13.920999526977539,-56.95500183105469 C13.770999908447266,-55.994998931884766 13.321000099182129,-55.154998779296875 12.720999717712402,-54.3849983215332 C12.10099983215332,-53.57500076293945 11.291000366210938,-53.415000915527344 10.371000289916992,-53.654998779296875 C8.920999526977539,-54.025001525878906 7.790999889373779,-55.42499923706055 7.701000213623047,-56.96500015258789 C7.651000022888184,-57.834999084472656 7.701000213623047,-58.71500015258789 7.701000213623047,-59.595001220703125z M1.9110000133514404,-52.654998779296875 C0.890999972820282,-52.685001373291016 -0.0689999982714653,-53.20500183105469 -0.9390000104904175,-53.775001525878906 C-1.2990000247955322,-54.01499938964844 -1.36899995803833,-54.42499923706055 -1.36899995803833,-54.834999084472656 C-1.36899995803833,-54.834999084472656 -1.36899995803833,-57.935001373291016 -1.36899995803833,-57.935001373291016 C-1.36899995803833,-57.935001373291016 -1.319000005722046,-57.935001373291016 -1.319000005722046,-57.935001373291016 C-1.319000005722046,-57.935001373291016 -1.319000005722046,-57.96500015258789 -1.319000005722046,-57.96500015258789 C-1.319000005722046,-59.625 -1.3890000581741333,-61.28499984741211 -1.2990000247955322,-62.935001373291016 C-1.1790000200271606,-65.08499908447266 1.3309999704360962,-67.06500244140625 3.4210000038146973,-66.69499969482422 C4.031000137329102,-66.58499908447266 4.540999889373779,-66.28500366210938 4.801000118255615,-65.54499816894531 C5.491000175476074,-63.505001068115234 5.690999984741211,-61.3650016784668 6.080999851226807,-59.26499938964844 C6.181000232696533,-58.755001068115234 5.951000213623047,-58.17499923706055 5.841000080108643,-57.625 C5.710999965667725,-56.935001373291016 5.421000003814697,-56.255001068115234 5.63100004196167,-55.525001525878906 C5.85099983215332,-54.73500061035156 5.2210001945495605,-54.19499969482422 5.020999908447266,-53.525001525878906 C4.980999946594238,-53.39500045776367 4.830999851226807,-53.224998474121094 4.701000213623047,-53.19499969482422 C3.7709999084472656,-52.98500061035156 2.8410000801086426,-52.6349983215332 1.9110000133514404,-52.654998779296875z M10.690999984741211,-15.895000457763672 C10.840999603271484,-15.914999961853027 11.00100040435791,-15.9350004196167 11.151000022888184,-15.96500015258789 C11.800999641418457,-16.104999542236328 11.930999755859375,-16.325000762939453 11.720999717712402,-16.934999465942383 C11.420999526977539,-17.80500030517578 11.291000366210938,-17.895000457763672 10.371000289916992,-17.704999923706055 C9.930999755859375,-17.614999771118164 9.41100025177002,-17.735000610351562 9.031000137329102,-17.30500030517578 C9.140999794006348,-17.125 9.25100040435791,-16.924999237060547 9.361000061035156,-16.725000381469727 C9.701000213623047,-16.084999084472656 10.140999794006348,-15.805000305175781 10.690999984741211,-15.895000457763672z M9.401000022888184,-11.114999771118164 C9.930999755859375,-10.494999885559082 10.60099983215332,-10.574999809265137 11.151000022888184,-11.305000305175781 C11.310999870300293,-11.515000343322754 11.25100040435791,-11.765000343322754 11.01099967956543,-11.854999542236328 C10.651000022888184,-11.984999656677246 10.26099967956543,-12.045000076293945 9.961000442504883,-12.104999542236328 C9.611000061035156,-12.03499984741211 9.190999984741211,-12.225000381469727 9.170999526977539,-11.744999885559082 C9.170999526977539,-11.53499984741211 9.26099967956543,-11.274999618530273 9.401000022888184,-11.114999771118164z M10.170999526977539,6.025000095367432 C10.111000061035156,6.195000171661377 10.151000022888184,6.34499979019165 10.331000328063965,6.375 C10.461000442504883,6.394999980926514 10.611000061035156,6.324999809265137 10.75100040435791,6.295000076293945 C10.670999526977539,6.175000190734863 10.611000061035156,6.045000076293945 10.51099967956543,5.945000171661377 C10.371000289916992,5.795000076293945 10.241000175476074,5.824999809265137 10.170999526977539,6.025000095367432z M8.991000175476074,5.824999809265137 C8.991000175476074,5.824999809265137 8.991000175476074,5.894999980926514 8.991000175476074,5.894999980926514 C8.991000175476074,5.894999980926514 9.050999641418457,5.994999885559082 9.050999641418457,5.994999885559082 C9.050999641418457,5.994999885559082 8.991000175476074,5.84499979019165 8.991000175476074,5.84499979019165 C8.991000175476074,5.84499979019165 8.991000175476074,5.824999809265137 8.991000175476074,5.824999809265137z M-13.39900016784668,62.42499923706055 C-13.079000473022461,62.64500045776367 -12.829000473022461,62.45500183105469 -12.659000396728516,62.154998779296875 C-12.559000015258789,61.96500015258789 -12.619000434875488,61.85499954223633 -12.819000244140625,61.78499984741211 C-13.128999710083008,61.685001373291016 -13.458999633789062,61.625 -13.668999671936035,61.89500045776367 C-13.729000091552734,61.96500015258789 -13.548999786376953,62.32500076293945 -13.39900016784668,62.42499923706055z M-20.30900001525879,55.44499969482422 C-20.429000854492188,55.595001220703125 -20.358999252319336,55.744998931884766 -20.179000854492188,55.82500076293945 C-19.98900032043457,55.915000915527344 -19.849000930786133,55.85499954223633 -19.839000701904297,55.654998779296875 C-19.839000701904297,55.51499938964844 -19.909000396728516,55.3650016784668 -19.948999404907227,55.21500015258789 C-20.069000244140625,55.28499984741211 -20.229000091552734,55.334999084472656 -20.30900001525879,55.44499969482422z M5.88100004196167,-32.525001525878906 C5.88100004196167,-32.525001525878906 5.951000213623047,-32.345001220703125 5.951000213623047,-32.345001220703125 C5.951000213623047,-32.345001220703125 6.040999889373779,-32.525001525878906 6.040999889373779,-32.525001525878906 C6.040999889373779,-32.525001525878906 5.88100004196167,-32.525001525878906 5.88100004196167,-32.525001525878906z M-1.1690000295639038,-46.67499923706055 C-1.0889999866485596,-46.744998931884766 -1.0989999771118164,-46.92499923706055 -1.059000015258789,-47.05500030517578 C-1.059000015258789,-47.05500030517578 -1.059000015258789,-47.064998626708984 -1.059000015258789,-47.064998626708984 C-1.218999981880188,-47.10499954223633 -1.36899995803833,-47.185001373291016 -1.5190000534057617,-47.17499923706055 C-2.0390000343322754,-47.1150016784668 -2.3289999961853027,-46.70500183105469 -2.6689999103546143,-46.375 C-2.8589999675750732,-46.19499969482422 -2.989000082015991,-45.994998931884766 -2.749000072479248,-45.79499816894531 C-2.6689999103546143,-45.73500061035156 -2.438999891281128,-45.76499938964844 -2.3289999961853027,-45.834999084472656 C-1.9290000200271606,-46.095001220703125 -1.5390000343322754,-46.375 -1.1690000295639038,-46.67499923706055z M-6.689000129699707,-40.19499969482422 C-6.298999786376953,-41.55500030517578 -5.448999881744385,-41.935001373291016 -4.968999862670898,-42.64500045776367 C-4.859000205993652,-42.814998626708984 -4.7789998054504395,-43.1349983215332 -4.859000205993652,-43.275001525878906 C-4.939000129699707,-43.415000915527344 -5.258999824523926,-43.48500061035156 -5.468999862670898,-43.48500061035156 C-6.609000205993652,-43.45500183105469 -7.738999843597412,-43.39500045776367 -8.279000282287598,-42.334999084472656 C-7.839000225067139,-41.73500061035156 -7.419000148773193,-41.17499923706055 -6.698999881744385,-40.19499969482422 C-6.698999881744385,-40.19499969482422 -6.689000129699707,-40.19499969482422 -6.689000129699707,-40.19499969482422z M-8.569000244140625,-56.625 C-8.519000053405762,-56.57500076293945 -8.479000091552734,-56.48500061035156 -8.418999671936035,-56.474998474121094 C-8.418999671936035,-56.474998474121094 -8.428999900817871,-56.474998474121094 -8.428999900817871,-56.474998474121094 C-8.378999710083008,-56.474998474121094 -8.319000244140625,-56.55500030517578 -8.269000053405762,-56.60499954223633 C-8.319000244140625,-56.654998779296875 -8.369000434875488,-56.70500183105469 -8.409000396728516,-56.76499938964844 C-8.458999633789062,-56.71500015258789 -8.519000053405762,-56.67499923706055 -8.569000244140625,-56.625z M-10.529000282287598,-42.48500061035156 C-9.83899974822998,-42.28499984741211 -8.569000244140625,-43.01499938964844 -8.39900016784668,-43.67499923706055 C-8.39900016784668,-43.67499923706055 -8.388999938964844,-43.67499923706055 -8.388999938964844,-43.67499923706055 C-8.479000091552734,-43.79499816894531 -8.548999786376953,-43.96500015258789 -8.678999900817871,-44.03499984741211 C-9.279000282287598,-44.375 -9.918999671936035,-44.255001068115234 -10.548999786376953,-44.165000915527344 C-10.909000396728516,-44.1150016784668 -11.069000244140625,-43.814998626708984 -11.048999786376953,-43.46500015258789 C-11.019000053405762,-43.064998626708984 -10.99899959564209,-42.625 -10.529000282287598,-42.48500061035156z M15.821000099182129,-42.44499969482422 C18.51099967956543,-42.21500015258789 21.201000213623047,-41.915000915527344 23.891000747680664,-41.60499954223633 C24.81100082397461,-41.494998931884766 25.131000518798828,-41.03499984741211 24.990999221801758,-40.1349983215332 C24.92099952697754,-39.67499923706055 24.750999450683594,-39.21500015258789 24.56100082397461,-38.775001525878906 C23.750999450683594,-36.915000915527344 22.320999145507812,-35.51499938964844 20.871000289916992,-34.154998779296875 C20.2810001373291,-33.595001220703125 19.51099967956543,-33.30500030517578 18.711000442504883,-33.17499923706055 C16.240999221801758,-32.775001525878906 15.16100025177002,-30.514999389648438 15.220999717712402,-28.655000686645508 C15.291000366210938,-26.665000915527344 15.170999526977539,-24.674999237060547 15.670999526977539,-22.704999923706055 C16.26099967956543,-20.364999771118164 16.211000442504883,-17.954999923706055 16.250999450683594,-15.5649995803833 C16.31100082397461,-11.824999809265137 16.361000061035156,-8.074999809265137 16.430999755859375,-4.335000038146973 C16.490999221801758,-0.9950000047683716 16.660999298095703,2.3550000190734863 16.621000289916992,5.695000171661377 C16.58099937438965,9.354999542236328 16.400999069213867,13.015000343322754 16.201000213623047,16.665000915527344 C16.051000595092773,19.364999771118164 16.141000747680664,22.075000762939453 15.770999908447266,24.764999389648438 C15.451000213623047,27.045000076293945 15.51099967956543,29.375 14.890999794006348,31.625 C14.66100025177002,32.46500015258789 14.640999794006348,33.3650016784668 14.51099967956543,34.224998474121094 C14.41100025177002,34.85499954223633 14.41100025177002,35.55500030517578 14.111000061035156,36.07500076293945 C13.41100025177002,37.275001525878906 13.151000022888184,38.6150016784668 12.76099967956543,39.904998779296875 C11.451000213623047,44.21500015258789 9.281000137329102,48.064998626708984 6.861000061035156,51.82500076293945 C5.730999946594238,53.584999084472656 4.35099983215332,55.14500045776367 2.930999994277954,56.595001220703125 C1.2209999561309814,58.334999084472656 -0.7990000247955322,59.814998626708984 -3.1389999389648438,60.775001525878906 C-5.948999881744385,61.92499923706055 -8.769000053405762,63.01499938964844 -11.619000434875488,64.0250015258789 C-11.83899974822998,64.1050033569336 -12.178999900817871,64.07499694824219 -12.288999557495117,64.2249984741211 C-12.949000358581543,65.08499908447266 -13.859000205993652,64.84500122070312 -14.708999633789062,64.84500122070312 C-15.098999977111816,64.84500122070312 -15.58899974822998,64.69499969482422 -15.859000205993652,64.875 C-17.73900032043457,66.09500122070312 -19.909000396728516,66.125 -21.999000549316406,66.45500183105469 C-21.999000549316406,66.45500183105469 -25.349000930786133,67.09500122070312 -26.599000930786133,66.45500183105469 C-27.839000701904297,65.80500030517578 -29.048999786376953,66.93499755859375 -29.628999710083008,65.18499755859375 C-30.208999633789062,63.435001373291016 -30.57900047302246,59.98500061035156 -29.628999710083008,58.32500076293945 C-28.679000854492188,56.665000915527344 -27.849000930786133,56.404998779296875 -25.80900001525879,55.20500183105469 C-23.77899932861328,54.005001068115234 -20.68899917602539,54.415000915527344 -20.68899917602539,54.415000915527344 C-20.448999404907227,54.415000915527344 -20.208999633789062,54.494998931884766 -19.9689998626709,54.46500015258789 C-19.48900032043457,54.415000915527344 -18.93899917602539,54.45500183105469 -18.55900001525879,54.224998474121094 C-16.82900047302246,53.17499923706055 -14.628999710083008,53.53499984741211 -12.958999633789062,52.334999084472656 C-12.579000473022461,52.05500030517578 -12.23900032043457,51.69499969482422 -11.718999862670898,51.654998779296875 C-10.668999671936035,51.584999084472656 -9.788999557495117,51.005001068115234 -8.83899974822998,50.665000915527344 C-7.169000148773193,50.064998626708984 -6.059000015258789,48.92499923706055 -4.86899995803833,47.755001068115234 C-2.9089999198913574,45.834999084472656 -1.4589999914169312,43.584999084472656 -0.10899999737739563,41.224998474121094 C0.39100000262260437,40.345001220703125 0.7609999775886536,39.32500076293945 1.5809999704360962,38.6349983215332 C1.8609999418258667,38.404998779296875 1.840999960899353,38.084999084472656 1.9110000133514404,37.775001525878906 C2.500999927520752,35.3650016784668 3.13100004196167,32.974998474121094 4.031000137329102,30.665000915527344 C4.531000137329102,29.375 4.560999870300293,28.014999389648438 4.750999927520752,26.69499969482422 C5.171000003814697,23.704999923706055 5.511000156402588,20.69499969482422 5.611000061035156,17.684999465942383 C5.741000175476074,13.46500015258789 6.10099983215332,9.244999885559082 5.921000003814697,5.005000114440918 C5.890999794006348,4.204999923706055 5.85099983215332,3.3949999809265137 5.9710001945495605,2.615000009536743 C6.290999889373779,0.4650000035762787 6.190999984741211,-1.6549999713897705 5.890999794006348,-3.805000066757202 C5.63100004196167,-5.614999771118164 5.710999965667725,-7.465000152587891 5.63100004196167,-9.295000076293945 C5.620999813079834,-9.635000228881836 5.741000175476074,-9.914999961853027 6.040999889373779,-10.095000267028809 C6.171000003814697,-10.175000190734863 6.341000080108643,-10.225000381469727 6.460999965667725,-10.324999809265137 C6.681000232696533,-10.515000343322754 6.88100004196167,-10.725000381469727 7.10099983215332,-10.925000190734863 C6.931000232696533,-11.03499984741211 6.790999889373779,-11.1850004196167 6.690999984741211,-11.164999961853027 C6.13100004196167,-11.0649995803833 5.781000137329102,-11.164999961853027 5.701000213623047,-11.8149995803833 C5.571000099182129,-12.845000267028809 5.390999794006348,-13.864999771118164 5.230999946594238,-14.885000228881836 C5.13100004196167,-15.515000343322754 5.091000080108643,-16.165000915527344 4.901000022888184,-16.774999618530273 C4.410999774932861,-18.385000228881836 4.060999870300293,-20.0049991607666 4.181000232696533,-21.69499969482422 C4.201000213623047,-21.924999237060547 4.140999794006348,-22.174999237060547 4.040999889373779,-22.395000457763672 C3.0309998989105225,-24.704999923706055 2.990999937057495,-27.19499969482422 2.7209999561309814,-29.645000457763672 C2.500999927520752,-31.635000228881836 1.8309999704360962,-32.435001373291016 -0.08900000154972076,-33.005001068115234 C-0.9190000295639038,-33.255001068115234 -1.7790000438690186,-33.29499816894531 -2.61899995803833,-33.6349983215332 C-3.809000015258789,-34.1150016784668 -4.939000129699707,-34.6349983215332 -5.769000053405762,-35.595001220703125 C-6.508999824523926,-36.45500183105469 -7.61899995803833,-36.755001068115234 -8.39900016784668,-37.55500030517578 C-10.409000396728516,-39.6150016784668 -11.628999710083008,-42.095001220703125 -12.348999977111816,-44.834999084472656 C-12.819000244140625,-46.6150016784668 -12.918999671936035,-48.435001373291016 -13.008999824523926,-50.28499984741211 C-13.128999710083008,-52.70500183105469 -12.958999633789062,-55.07500076293945 -12.468999862670898,-57.404998779296875 C-11.99899959564209,-59.64500045776367 -11.819000244140625,-61.94499969482422 -11.029000282287598,-64.125 C-10.788999557495117,-64.78500366210938 -10.369000434875488,-65.16500091552734 -9.848999977111816,-65.55500030517578 C-9.23900032043457,-66.00499725341797 -8.519000053405762,-66.13500213623047 -7.848999977111816,-66.31500244140625 C-5.7789998054504395,-66.8550033569336 -4.928999900817871,-66.38500213623047 -4.198999881744385,-64.3550033569336 C-3.8289999961853027,-63.314998626708984 -3.5490000247955322,-62.275001525878906 -3.6389999389648438,-61.10499954223633 C-3.749000072479248,-59.53499984741211 -3.569000005722046,-57.935001373291016 -3.499000072479248,-56.35499954223633 C-3.4690001010894775,-55.55500030517578 -3.319000005722046,-54.76499938964844 -3.6389999389648438,-53.98500061035156 C-3.9489998817443848,-53.23500061035156 -3.3989999294281006,-52.60499954223633 -3.309000015258789,-51.904998779296875 C-3.2790000438690186,-51.685001373291016 -2.8589999675750732,-51.3849983215332 -2.5989999771118164,-51.3650016784668 C-1.0490000247955322,-51.20500183105469 0.2709999978542328,-50.42499923706055 1.7009999752044678,-49.92499923706055 C3.2209999561309814,-49.39500045776367 4.190999984741211,-48.224998474121094 5.281000137329102,-47.185001373291016 C5.651000022888184,-46.834999084472656 5.660999774932861,-46.32500076293945 5.801000118255615,-45.8650016784668 C6.330999851226807,-44.095001220703125 7.730999946594238,-42.94499969482422 9.611000061035156,-42.80500030517578 C11.680999755859375,-42.654998779296875 13.75100040435791,-42.625 15.821000099182129,-42.44499969482422z"></path></g></g><g transform="matrix(0.9961947202682495,-0.08715574443340302,0.08715574443340302,0.9961947202682495,223.53147888183594,145.03585815429688)" opacity="1" style="display: block;"><g opacity="1" transform="matrix(0.6255599856376648,0,0,0.6255599856376648,0,0)"><path fill="rgb(255,255,255)" fill-opacity="1" d=" M-14.99899959564209,-58.68299865722656 C-14.968999862670898,-59.16299819946289 -14.99899959564209,-59.643001556396484 -14.99899959564209,-60.362998962402344 C-14.99899959564209,-60.362998962402344 -14.98900032043457,-60.362998962402344 -14.98900032043457,-60.362998962402344 C-15.479000091552734,-61.983001708984375 -14.628999710083008,-63.733001708984375 -14.449000358581543,-65.53299713134766 C-14.329000473022461,-66.74299621582031 -12.58899974822998,-67.4729995727539 -11.409000396728516,-66.98300170898438 C-10.159000396728516,-66.4729995727539 -9.388999938964844,-65.38300323486328 -9.619000434875488,-63.94300079345703 C-9.98900032043457,-61.632999420166016 -9.83899974822998,-59.35300064086914 -9.609000205993652,-57.0629997253418 C-9.378999710083008,-54.803001403808594 -10.928999900817871,-53.93299865722656 -13.029000282287598,-53.702999114990234 C-13.678999900817871,-53.632999420166016 -14.048999786376953,-54.222999572753906 -14.189000129699707,-54.74300003051758 C-14.548999786376953,-56.03300094604492 -15.08899974822998,-57.292999267578125 -14.99899959564209,-58.68299865722656z M-3.9790000915527344,-54.99300003051758 C-4.988999843597412,-54.722999572753906 -6.468999862670898,-55.41299819946289 -7.0289998054504395,-56.362998962402344 C-7.39900016784668,-56.99300003051758 -7.64900016784668,-57.67300033569336 -7.738999843597412,-58.382999420166016 C-8.069000244140625,-60.93299865722656 -8.029000282287598,-63.472999572753906 -7.309000015258789,-65.9729995727539 C-7.129000186920166,-66.58300018310547 -6.738999843597412,-66.90299987792969 -6.14900016784668,-67.04299926757812 C-4.988999843597412,-67.33300018310547 -4.008999824523926,-67.072998046875 -3.1489999294281006,-66.18299865722656 C-2.4189999103546143,-65.43299865722656 -1.809000015258789,-64.75299835205078 -1.9789999723434448,-63.553001403808594 C-2.0789999961853027,-62.8129997253418 -1.559000015258789,-62.03300094604492 -1.628999948501587,-61.74300003051758 C-1.628999948501587,-61.74300003051758 -1.6390000581741333,-61.74300003051758 -1.6390000581741333,-61.74300003051758 C-1.7089999914169312,-60.0629997253418 -1.909000039100647,-58.91299819946289 -1.659000039100647,-57.722999572753906 C-1.4589999914169312,-56.74300003051758 -2.86899995803833,-55.292999267578125 -3.9790000915527344,-54.99300003051758z M-16.93899917602539,-56.50299835205078 C-17.958999633789062,-55.042999267578125 -19.388999938964844,-54.3129997253418 -21.159000396728516,-54.222999572753906 C-21.68899917602539,-54.19300079345703 -22.07900047302246,-54.472999572753906 -22.298999786376953,-54.93299865722656 C-22.66900062561035,-55.7130012512207 -23.108999252319336,-56.49300003051758 -23.339000701904297,-57.323001861572266 C-24.069000244140625,-59.9630012512207 -23.729000091552734,-62.553001403808594 -22.378999710083008,-64.90299987792969 C-21.128999710083008,-67.072998046875 -18.698999404907227,-66.9229965209961 -17.43899917602539,-64.7229995727539 C-17.208999633789062,-64.31300354003906 -16.82900047302246,-63.90299987792969 -16.798999786376953,-63.472999572753906 C-16.729000091552734,-62.62300109863281 -16.9689998626709,-61.74300003051758 -16.589000701904297,-61.03300094604492 C-16.589000701904297,-61.03300094604492 -16.599000930786133,-61.03300094604492 -16.599000930786133,-61.03300094604492 C-16.82900047302246,-59.65299987792969 -17.07900047302246,-58.40299987792969 -16.698999404907227,-57.143001556396484 C-16.64900016784668,-56.9630012512207 -16.80900001525879,-56.68299865722656 -16.93899917602539,-56.50299835205078z M3.8310000896453857,-54.862998962402344 C1.9809999465942383,-54.823001861572266 0.5410000085830688,-56.02299880981445 0.4009999930858612,-58.0629997253418 C0.2809999883174896,-59.803001403808594 -0.1889999955892563,-61.52299880981445 0.0010000000474974513,-62.92300033569336 C0.0010000000474974513,-63.91299819946289 -0.01899999938905239,-64.54299926757812 0.0010000000474974513,-65.18299865722656 C0.03099999949336052,-66.10299682617188 0.2809999883174896,-66.88300323486328 1.2710000276565552,-67.26300048828125 C2.490999937057495,-67.73300170898438 3.7109999656677246,-68.16300201416016 4.890999794006348,-67.27300262451172 C5.810999870300293,-66.58300018310547 6.321000099182129,-65.65299987792969 6.321000099182129,-64.4229965209961 C6.321000099182129,-62.2130012512207 6.390999794006348,-60.00299835205078 6.491000175476074,-57.792999267578125 C6.571000099182129,-56.02299880981445 5.580999851226807,-54.893001556396484 3.8310000896453857,-54.862998962402344z M17.141000747680664,56.81700134277344 C17.141000747680664,56.81700134277344 22.961000442504883,55.81700134277344 23.631000518798828,59.80699920654297 C24.301000595092773,63.797000885009766 20.770999908447266,67.93699645996094 18.900999069213867,67.78700256347656 C18.33099937438965,67.41699981689453 17.641000747680664,67.74700164794922 17.0310001373291,67.63700103759766 C14.690999984741211,67.20700073242188 12.281000137329102,67.33699798583984 9.991000175476074,66.5770034790039 C7.261000156402588,65.677001953125 4.410999774932861,65.40699768066406 1.621000051498413,64.8270034790039 C-0.5389999747276306,64.37699890136719 -2.6389999389648438,63.457000732421875 -4.539000034332275,62.266998291015625 C-6.7789998054504395,60.867000579833984 -8.73900032043457,59.09700012207031 -10.668999671936035,57.297000885009766 C-13.038999557495117,55.08700180053711 -14.079000473022461,52.137001037597656 -15.098999977111816,49.1870002746582 C-15.928999900817871,46.777000427246094 -16.07900047302246,44.207000732421875 -16.638999938964844,41.73699951171875 C-16.888999938964844,40.65700149536133 -16.798999786376953,39.50699996948242 -16.91900062561035,38.39699935913086 C-17.429000854492188,33.46699905395508 -17.538999557495117,28.517000198364258 -17.599000930786133,23.57699966430664 C-17.618999481201172,21.78700065612793 -17.569000244140625,19.937000274658203 -17.298999786376953,18.156999588012695 C-17.179000854492188,17.35700035095215 -17.268999099731445,16.586999893188477 -17.2189998626709,15.817000389099121 C-17.018999099731445,12.32699966430664 -17.16900062561035,8.807000160217285 -16.878999710083008,5.316999912261963 C-16.729000091552734,3.437000036239624 -16.948999404907227,1.4769999980926514 -16.179000854492188,-0.34299999475479126 C-16.089000701904297,-0.5529999732971191 -16.02899932861328,-0.8230000138282776 -16.069000244140625,-1.0429999828338623 C-16.509000778198242,-3.193000078201294 -15.848999977111816,-5.293000221252441 -15.699000358581543,-7.413000106811523 C-15.508999824523926,-10.02299976348877 -15.33899974822998,-12.633000373840332 -14.779000282287598,-15.232999801635742 C-14.329000473022461,-17.322999954223633 -14.029000282287598,-19.46299934387207 -13.579000473022461,-21.562999725341797 C-12.89900016784668,-24.76300048828125 -12.199000358581543,-27.94300079345703 -10.73900032043457,-30.89299964904785 C-10.279000282287598,-31.812999725341797 -10.378999710083008,-32.37300109863281 -11.218999862670898,-32.59299850463867 C-13.479000091552734,-33.18299865722656 -15.409000396728516,-34.49300003051758 -17.55900001525879,-35.3129997253418 C-19.018999099731445,-35.87300109863281 -20.298999786376953,-36.90299987792969 -21.618999481201172,-37.77299880981445 C-21.999000549316406,-38.02299880981445 -22.268999099731445,-38.4630012512207 -22.55900001525879,-38.84299850463867 C-22.82900047302246,-39.19300079345703 -22.628999710083008,-39.62300109863281 -22.14900016784668,-39.7130012512207 C-21.599000930786133,-39.823001861572266 -20.999000549316406,-40.0629997253418 -20.499000549316406,-39.93299865722656 C-19.509000778198242,-39.69300079345703 -18.599000930786133,-39.983001708984375 -17.659000396728516,-40.0629997253418 C-14.48900032043457,-40.33300018310547 -11.319000244140625,-40.632999420166016 -8.138999938964844,-40.40299987792969 C-6.578999996185303,-40.292999267578125 -5.578999996185303,-41.03300094604492 -4.7789998054504395,-42.18299865722656 C-4.379000186920166,-42.76300048828125 -4.068999767303467,-43.44300079345703 -3.86899995803833,-44.112998962402344 C-3.11899995803833,-46.66299819946289 -1.5789999961853027,-48.612998962402344 0.5509999990463257,-50.15299987792969 C1.2610000371932983,-50.66299819946289 2.071000099182129,-51.02299880981445 2.6610000133514404,-51.7130012512207 C2.8410000801086426,-51.92300033569336 3.2109999656677246,-52.03300094604492 3.510999917984009,-52.0629997253418 C4.821000099182129,-52.19300079345703 5.890999794006348,-52.93299865722656 7.060999870300293,-53.42300033569336 C8.050999641418457,-53.83300018310547 8.371000289916992,-54.612998962402344 8.211000442504883,-55.542999267578125 C7.88100004196167,-57.452999114990234 8.16100025177002,-59.37300109863281 7.980999946594238,-61.28300094604492 C7.841000080108643,-62.733001708984375 8.230999946594238,-64.12300109863281 8.840999603271484,-65.4530029296875 C9.560999870300293,-67.02300262451172 10.85099983215332,-67.6729965209961 12.461000442504883,-67.78299713134766 C13.310999870300293,-67.84300231933594 14.031000137329102,-67.41300201416016 14.51099967956543,-66.73300170898438 C15.371000289916992,-65.4729995727539 16.01099967956543,-64.1729965209961 16.090999603271484,-62.553001403808594 C16.250999450683594,-59.44300079345703 16.371000289916992,-56.33300018310547 16.090999603271484,-53.233001708984375 C15.940999984741211,-51.58300018310547 15.430999755859375,-49.9630012512207 15.071000099182129,-48.33300018310547 C14.980999946594238,-47.94300079345703 14.770999908447266,-47.573001861572266 14.75100040435791,-47.18299865722656 C14.701000213623047,-46.42300033569336 14.470999717712402,-45.78300094604492 13.85099983215332,-45.3129997253418 C13.451000213623047,-45.00299835205078 13.26099967956543,-44.573001861572266 13.241000175476074,-44.0629997253418 C13.151000022888184,-41.823001861572266 11.920999526977539,-40.02299880981445 10.961000442504883,-38.12300109863281 C10.861000061035156,-37.93299865722656 10.640999794006348,-37.75299835205078 10.440999984741211,-37.67300033569336 C9.321000099182129,-37.233001708984375 9.201000213623047,-35.803001403808594 8.111000061035156,-35.362998962402344 C7.2210001945495605,-35.00299835205078 6.341000080108643,-34.643001556396484 5.440999984741211,-34.292999267578125 C4.63100004196167,-33.972999572753906 3.7109999656677246,-33.92300033569336 3.0910000801086426,-33.18299865722656 C2.811000108718872,-32.84299850463867 2.38100004196167,-32.87300109863281 1.9809999465942383,-32.893001556396484 C1.6410000324249268,-32.90299987792969 1.371000051498413,-32.77299880981445 1.2410000562667847,-32.43299865722656 C0.17100000381469727,-29.613000869750977 -1.218999981880188,-26.92300033569336 -2.0989999771118164,-24.003000259399414 C-2.688999891281128,-22.033000946044922 -2.7790000438690186,-19.902999877929688 -3.8389999866485596,-18.072999954223633 C-3.8889999389648438,-16.062999725341797 -4.598999977111816,-14.182999610900879 -4.939000129699707,-12.222999572753906 C-5.318999767303467,-10.032999992370605 -5.738999843597412,-7.833000183105469 -6.459000110626221,-5.7129998207092285 C-6.539000034332275,-5.493000030517578 -6.678999900817871,-5.263000011444092 -6.669000148773193,-5.043000221252441 C-6.499000072479248,-1.5829999446868896 -7.468999862670898,1.7369999885559082 -7.798999786376953,5.13700008392334 C-8.189000129699707,9.187000274658203 -8.689000129699707,13.246999740600586 -8.74899959564209,17.30699920654297 C-8.798999786376953,21.437000274658203 -8.788999557495117,25.57699966430664 -8.569000244140625,29.726999282836914 C-8.348999977111816,34.08700180053711 -7.309000015258789,38.22700119018555 -6.379000186920166,42.41699981689453 C-6.169000148773193,43.33700180053711 -5.848999977111816,44.277000427246094 -5.36899995803833,45.08700180053711 C-3.989000082015991,47.39699935913086 -2.7090001106262207,49.74700164794922 -0.6690000295639038,51.637001037597656 C3.240999937057495,55.25699996948242 7.910999774932861,56.62699890136719 13.081000328063965,56.7869987487793 C14.430999755859375,56.82699966430664 15.791000366210938,56.867000579833984 17.141000747680664,56.81700134277344z"></path></g></g></g></svg>