<svg width="588" height="535" viewBox="0 0 588 535" fill="none" xmlns="http://www.w3.org/2000/svg">
<g clip-path="url(#clip0_756_1009)">
<g clip-path="url(#clip1_756_1009)">
<path d="M662.552 499.453C662.523 498.695 662.466 497.937 662.459 497.183C662.316 478.711 660.983 460.53 658.635 442.688C656.698 427.95 654.073 413.438 650.752 399.195C643.744 369.124 633.612 340.237 620.68 312.909C618.127 307.513 615.45 302.187 612.684 296.924C605.831 283.862 598.375 271.154 590.199 258.95C577.194 239.519 562.556 221.3 546.683 204.267C536.549 193.394 526.003 182.898 514.865 173.016C504.617 163.921 493.934 155.295 482.842 147.192C470.723 138.342 458.155 130.054 445.071 122.537C416.361 106.034 385.534 92.7822 353.122 83.1987C334.621 77.7243 315.594 73.4816 296.144 70.4751C278.825 67.7963 261.173 66.0701 243.221 65.474C240.596 65.3894 237.963 65.3757 235.324 65.4196C234.167 65.4396 233.01 65.6015 231.857 65.7058C231.855 66.566 231.787 67.2798 231.866 67.9893C232.149 70.7522 232.53 73.5152 232.764 76.2823C233.692 87.3954 233.033 98.5143 233.009 109.63C232.985 117.85 232.969 126.071 232.954 134.291C232.953 135.187 233.013 136.083 233.043 136.965C233.379 137.054 233.574 137.143 233.769 137.153C236.957 137.287 240.131 137.47 243.297 137.662C270.651 139.353 297.283 142.825 322.783 149.673C326.976 150.798 331.137 151.981 335.267 153.248C344.489 156.089 353.51 159.36 362.42 162.822C369.957 165.749 377.471 168.698 384.777 172.085C399.511 178.914 413.707 186.73 427.232 195.508C443.034 205.761 457.879 217.339 471.845 229.846C492.571 248.409 511.265 269.243 527.23 292.151C544.888 317.496 559.251 345.266 569.896 374.766C578.357 398.219 584.431 422.794 587.869 448.18C590.087 464.558 591.2 481.276 591.142 498.258C591.142 498.613 591.114 498.967 591.1 499.317C614.915 499.366 638.734 499.409 662.552 499.453Z" fill="white"/>
<path d="M182.645 117.483C177.373 117.247 173.8 114.611 171.068 110.199C170.622 113.98 169.357 116.984 165.612 118.538C166.135 118.778 166.472 118.939 166.817 119.09C170.167 120.559 171.448 122.69 171.047 126.436C170.582 130.785 168.753 134.519 165.231 137.523C165.755 137.569 166.176 137.645 166.601 137.637C171.616 137.57 176.64 137.655 181.646 137.358C185.664 137.117 189.743 137.072 193.638 135.864C195.878 135.172 198.075 134.329 200.231 133.411C205.414 131.203 210.786 129.657 216.348 128.851C219.027 128.466 221.758 128.445 224.467 128.268C225.124 128.225 225.784 128.248 226.636 128.241C226.646 127.514 226.669 126.871 226.666 126.237C226.559 114.207 226.426 102.178 226.355 90.1486C226.328 85.5019 226.43 80.8509 226.47 76.1998C226.475 75.6101 226.459 75.016 226.451 74.2445C225.688 74.2519 225.046 74.2729 224.398 74.2629C221.383 74.2041 218.368 74.1542 215.353 74.0778C211.376 73.9773 207.845 72.4766 204.475 70.5151C198.792 67.2103 193.132 63.8567 187.423 60.5962C181.709 57.3312 175.719 54.6155 169.592 52.2233C169.264 52.0985 168.909 52.0358 168.43 51.9107C168.074 52.9831 167.824 54.0291 167.387 54.9948C166.96 55.9429 166.86 57.0689 165.807 58.1001C165.692 55.6479 166.525 53.5788 166.37 51.3616C165.125 50.8494 163.861 50.6564 162.558 50.6718C162.028 52.0675 162.335 53.5844 161.463 55.1524C161.049 53.5377 160.715 52.2158 160.35 50.7741C158.918 50.5542 157.639 51.2613 156.216 51.5735C156.274 53.3471 157.363 54.6793 157.701 56.4491C156.713 55.9906 156.355 55.1696 155.838 54.508C155.285 53.8109 154.736 53.1094 154.117 52.319C147.487 55.4549 142.074 60.034 136.824 64.8484C137.527 66.0601 138.247 67.1655 138.835 68.3416C139.9 70.4762 139.678 73.0519 137.732 74.8042C135.179 77.1095 132.612 79.3927 130.014 81.7157C131.971 82.8366 134.267 83.3729 136.652 83.4926C140.527 83.6859 144.204 82.837 147.657 81.0875C149.579 80.1111 151.448 79.0194 153.534 77.8793C153.186 78.9428 152.506 79.5844 151.849 80.2128C151.16 80.8722 150.401 81.4694 149.429 82.3056C150.621 82.2945 151.513 82.2651 152.404 82.28C156.753 82.3457 161.103 82.3936 165.448 82.508C168.556 82.5891 171.394 84.8156 171.784 87.49C172.068 89.4281 171.892 91.3477 171.059 93.1596C169.457 96.6595 166.867 99.1598 163.379 100.758C162.9 100.979 162.421 101.2 161.657 101.553C163.555 101.743 165.133 101.959 166.711 102.05C168.901 102.179 170.305 103.223 170.979 105.313C171.936 108.281 173.359 110.97 175.718 113.107C177.444 114.671 179.42 115.801 181.529 116.727C181.799 116.847 182.069 116.977 182.335 117.11C182.384 117.132 182.41 117.203 182.623 117.487L182.645 117.483Z" fill="white"/>
<path d="M79.8305 81.5881C78.8234 79.5023 78.8101 79.4536 78.9998 77.5562C79.345 77.9116 79.6372 78.1693 79.8716 78.4756C80.3096 79.0484 80.6941 79.6654 81.132 80.2382C81.9946 81.3615 83.0844 81.869 84.5609 81.8673C90.5954 81.8739 96.6297 81.9781 102.669 82.0424C103.143 82.0477 103.617 82.0353 104.247 82.0276C103.323 80.6558 102.904 79.3293 103.266 77.6052C103.607 78.098 103.824 78.4221 104.045 78.7417C104.491 79.3855 104.889 80.069 105.407 80.6508C106.194 81.539 107.147 82.0152 108.424 81.9732C112.41 81.852 116.396 81.8637 120.382 81.7602C122.351 81.7106 124.32 81.5192 126.378 81.3811C124.98 79.5074 123.467 77.8374 122.943 75.4821C128.095 70.8182 133.234 66.1677 138.515 61.3843C137.384 61.2891 136.431 61.1322 135.482 61.1393C130.707 61.1616 125.94 61.2016 121.165 61.277C114.705 61.3849 108.248 61.6036 101.793 61.6449C96.0596 61.6832 90.3224 61.5308 84.5895 61.4803C79.4596 61.431 74.3296 61.3816 69.1996 61.3766C66.2422 61.3668 63.3021 61.623 60.3881 62.163C57.3898 62.7162 56.0752 63.8754 55.6752 66.8055C55.2302 70.0547 55.7876 73.1728 57.6004 75.9872C58.6482 77.6164 60.1093 78.7453 61.8637 79.5111C64.996 80.8781 68.2892 81.5004 71.6853 81.6486C73.1883 81.7178 74.6955 81.8536 76.203 81.8475C77.3958 81.8452 78.5844 81.6789 79.8216 81.5792L79.8305 81.5881Z" fill="white"/>
<path d="M167.661 85.0393C167.477 86.2317 167.382 87.309 167.14 88.3549C166.51 91.0629 164.804 92.8156 162.138 93.5334C159.862 94.1455 157.534 94.527 155.181 93.9064C154.609 93.759 154.064 93.5053 153.488 93.2914C152.997 90.2045 153.787 87.2131 153.602 84.1223C152.902 84.0057 152.268 83.8938 151.63 83.795C151.453 83.7681 151.266 83.7944 151.089 83.7763C148.052 83.5091 145.085 83.8805 142.153 84.6688C141.009 84.9771 139.811 85.1079 138.574 85.3317C138.401 87.6725 138.45 89.9427 137.669 92.5174C136.783 89.9485 137.177 87.6525 136.88 85.373C134.446 85.3375 132.101 85.045 129.997 83.9636C128.69 83.2917 127.4 83.1608 125.999 83.2114C123.524 83.3044 121.041 83.3087 118.567 83.4017C117.791 83.4313 117.015 83.5762 116.252 83.7256C114.753 84.0155 113.736 84.9935 113.254 86.3493C112.1 89.6061 111.331 92.9302 112.052 96.4343C112.434 98.3105 113.461 99.6248 115.197 100.329C116.079 100.689 117.036 100.948 117.98 101.061C120.374 101.34 122.777 101.531 125.18 101.713C131.568 102.19 137.975 102.108 144.374 101.965C147.628 101.891 150.896 101.778 154.129 101.424C158.156 100.988 162.121 100.171 165.553 97.8139C168.688 95.656 170.435 92.7018 170.425 88.8265C170.423 87.2703 169.725 86.0452 168.432 85.1738C168.334 85.1115 168.21 85.067 168.095 85.049C167.98 85.0311 167.86 85.0442 167.661 85.0482L167.661 85.0393Z" fill="white"/>
<path d="M138.641 110.295C137.794 108.271 137.86 106.099 137.376 103.925C137.195 103.894 136.977 103.827 136.751 103.813C131.334 103.546 125.912 103.213 120.489 103.065C117.993 102.994 115.677 103.681 114.316 106.082C112.781 108.788 112.457 111.67 113.307 114.638C114.1 117.397 116.106 118.948 118.818 119.565C120.276 119.9 121.788 120.103 123.282 120.216C125.809 120.398 128.345 120.483 130.877 120.571C133.408 120.66 135.944 120.825 138.476 120.745C142.875 120.602 147.274 120.353 151.664 120.042C154.063 119.874 156.458 119.55 158.835 119.173C161.474 118.757 163.945 117.914 166.183 116.349C169.113 114.306 170.558 109.538 169.35 105.944C169.045 105.034 168.533 104.218 167.287 103.927C167.295 104.619 167.338 105.213 167.297 105.803C167.242 106.698 167.165 107.598 167.048 108.494C166.536 112.332 164.16 114.337 160.39 115.128C158.447 115.532 156.416 115.528 154.48 114.846C154.085 114.708 153.731 114.486 153.231 114.241L153.118 103.245C148.395 103.462 143.832 103.671 139.185 103.884C138.712 105.967 139.381 108.203 138.641 110.304L138.641 110.295Z" fill="white"/>
<path d="M167.097 120.935C166.992 122.642 166.865 124.256 166.809 125.869C166.673 129.678 164.643 131.878 161.489 132.754C159.484 133.309 157.417 133.288 155.423 132.655C153.766 132.128 153.412 131.649 153.411 129.897C153.415 127.849 153.543 125.801 153.604 123.757C153.623 123.047 153.593 122.334 153.59 121.691C148.938 121.935 144.38 122.175 139.688 122.423C139.567 123.43 139.427 124.551 139.301 125.668C139.184 126.705 139.355 127.783 138.91 128.793C137.769 126.831 138.377 124.571 137.6 122.433C136.518 122.324 135.344 122.149 134.156 122.094C131.021 121.942 127.882 121.865 124.748 121.704C121.485 121.538 120.236 122.959 119.345 125.272C118.632 127.115 118.088 129.012 118.47 131.075C118.896 133.421 120.289 134.962 122.26 136.079C123.913 137.008 125.747 137.375 127.6 137.654C131.794 138.273 136.01 138.356 140.236 138.315C145.313 138.258 150.385 138.223 155.462 138.104C157.324 138.063 159.213 137.942 161.036 137.595C162.114 137.389 163.241 136.85 164.094 136.151C166.634 134.081 168.434 131.464 169.123 128.201C169.486 126.468 169.493 124.717 168.867 123.031C168.554 122.184 168.098 121.416 167.088 120.944L167.097 120.935Z" fill="white"/>
<path d="M165.276 103.533C161.76 103.398 158.329 103.268 154.933 103.137C154.509 104.56 154.484 110.816 154.883 113.242C157.945 114.254 160.885 113.874 163.607 112.092C164.175 111.72 164.584 111.021 164.913 110.392C165.821 108.682 165.968 105.72 165.281 103.529L165.276 103.533Z" fill="white"/>
<path d="M155.178 121.614C155.058 124.123 154.903 126.535 154.837 128.947C154.789 130.756 155.466 131.462 157.284 131.563C158.61 131.632 159.922 131.59 161.218 131.149C163.715 130.298 165.159 128.629 165.262 125.969C165.332 124.164 165.242 122.351 165.223 120.493C164.063 119.888 162.937 119.77 161.61 120.162C159.774 120.709 157.849 120.971 155.964 121.362C155.693 121.42 155.427 121.526 155.174 121.609L155.178 121.614Z" fill="white"/>
<path d="M135.5 66.1407C131.903 69.3442 128.408 72.4548 124.859 75.6097C125.623 77.5221 126.719 79.1291 128.109 80.6481C131.257 78.3438 134.369 76.0749 136.906 73.1488C137.826 72.0908 138.094 70.8586 137.605 69.4522C137.177 68.2232 136.491 67.2066 135.496 66.1362L135.5 66.1407Z" fill="white"/>
<path d="M155.022 83.9917C154.928 86.7583 154.839 89.2721 154.755 91.6574C154.945 91.875 155.007 92.0171 155.1 92.0394C157.555 92.6026 159.985 92.5716 162.355 91.6359C163.841 91.049 164.854 89.9778 165.358 88.4668C165.772 87.2128 166.072 85.9319 165.879 84.495C162.378 83.7348 158.843 84.114 155.026 83.9962L155.022 83.9917Z" fill="white"/>
</g>
</g>
<defs>
<clipPath id="clip0_756_1009">
<rect width="588" height="535" fill="white"/>
</clipPath>
<clipPath id="clip1_756_1009">
<rect width="736.12" height="256.43" fill="white" transform="matrix(-0.705806 -0.708405 -0.708405 0.705806 752.215 410.12)"/>
</clipPath>
</defs>
</svg>
