<svg xmlns="http://www.w3.org/2000/svg" xmlns:xlink="http://www.w3.org/1999/xlink" viewBox="0 0 900 1200" width="900" height="1200" preserveAspectRatio="xMidYMid meet" style="width: 100%; height: 100%; transform: translate3d(0px, 0px, 0px); content-visibility: visible;"><defs><clipPath id="__lottie_element_277"><rect width="900" height="1200" x="0" y="0"></rect></clipPath></defs><g clip-path="url(#__lottie_element_277)"><g transform="matrix(0.9999996423721313,0,0,0.9999996423721313,528.7050170898438,579.7219848632812)" opacity="1" style="display: block;"><g opacity="1" transform="matrix(1.9955699443817139,0,0,1.9955699443817139,0,0)"><path fill="rgb(255,255,255)" fill-opacity="1" d=" M6.60699987411499,-2.7790000438690186 C6.665999889373779,-5.547999858856201 4.955999851226807,-11.852999687194824 -0.18700000643730164,-11.35099983215332 C-5.706999778747559,-10.815999984741211 -6.446000099182129,-6.559000015258789 -6.321000099182129,-3.062999963760376 C-6.189000129699707,0.43299999833106995 -4.64300012588501,5.9120001792907715 0.8830000162124634,5.521999835968018 C6.435999870300293,5.131999969482422 6.547999858856201,-0.003000000026077032 6.60699987411499,-2.7790000438690186z M30.350000381469727,0.625 C30.297000885009766,16.961999893188477 18.299999237060547,35.1879997253418 -0.8669999837875366,33.74100112915039 C-20.027000427246094,32.29399871826172 -31.29199981689453,16.941999435424805 -30.288000106811523,-0.7099999785423279 C-29.284000396728516,-18.36199951171875 -19.208999633789062,-33.59600067138672 1.3380000591278076,-33.82099914550781 C20.023000717163086,-34.0260009765625 30.402999877929688,-15.711999893188477 30.350000381469727,0.625z"></path></g></g><g transform="matrix(0.9999996423721313,0,0,0.9999996423721313,676.6129760742188,573.1409912109375)" opacity="1" style="display: block;"><g opacity="1" transform="matrix(1.9955699443817139,0,0,1.9955699443817139,0,0)"><path fill="rgb(255,255,255)" fill-opacity="1" d=" M18.895999908447266,-28.791000366210938 C20.42099952697754,-34.9109992980957 28.402999877929688,-34.36899948120117 32.17300033569336,-34.25699996948242 C32.17300033569336,-34.25699996948242 32.18000030517578,-34.26300048828125 32.18000030517578,-34.26300048828125 C39.67399978637695,-34.03799819946289 44.05099868774414,-32.86199951171875 45.48400115966797,-28.55299949645996 C46.856998443603516,-24.429000854492188 46.983001708984375,-21.3700008392334 46.659000396728516,-18.4950008392334 C46.402000427246094,-16.19499969482422 44.770999908447266,-14.310999870300293 43.14699935913086,-13.312999725341797 C41.18600082397461,-12.104000091552734 40.367000579833984,-11.72700023651123 40.564998626708984,-8.494999885559082 C40.76300048828125,-5.269999980926514 41.832000732421875,8.204999923706055 36.972999572753906,19.16900062561035 C27.538000106811523,40.4630012512207 9.770999908447266,36.926998138427734 3.319999933242798,23.194000244140625 C2.375999927520752,21.191999435424805 0.08500000089406967,21.158000946044922 -1.2549999952316284,23.305999755859375 C-9.60099983215332,36.66899871826172 -25.124000549316406,40.15800094604492 -33.125999450683594,23.503999710083008 C-38.70500183105469,11.892000198364258 -38.17599868774414,-3.2149999141693115 -38.16299819946289,-6.044000148773193 C-38.150001525878906,-8.866000175476074 -38.784000396728516,-11.522000312805176 -41.02199935913086,-12.222999572753906 C-44.10499954223633,-13.187999725341797 -46.37099838256836,-14.668000221252441 -46.779998779296875,-23.0939998626709 C-47.18899917602539,-31.520000457763672 -43.0890007019043,-32.6510009765625 -38.83700180053711,-33.62200164794922 C-32.74300003051758,-35.01599884033203 -25.308000564575195,-34.487998962402344 -21.030000686645508,-32.88199996948242 C-15.609000205993652,-30.84600067138672 -15.317999839782715,-17.576000213623047 -18.513999938964844,-13.604000091552734 C-20.06599998474121,-11.673999786376953 -20.07900047302246,-10.39900016784668 -19.815000534057617,-6.176000118255615 C-19.54400062561035,-1.9529999494552612 -17.952999114990234,2.197999954223633 -13.826000213623047,1.6360000371932983 C-9.527999877929688,1.0540000200271606 -8.895000457763672,-4.489999771118164 -8.875,-7.550000190734863 C-8.862000465393066,-10.609999656677246 -8.861000061035156,-13.022000312805176 -10.776000022888184,-14.138999938964844 C-12.696999549865723,-15.262999534606934 -13.008000373840332,-16.558000564575195 -13.383999824523926,-18.349000930786133 C-13.760000228881836,-20.132999420166016 -14.064000129699707,-25.520000457763672 -12.321000099182129,-29.39299964904785 C-10.920999526977539,-32.512001037597656 -7.0980000495910645,-34.619998931884766 -0.12600000202655792,-34.69900131225586 C8.199999809265137,-34.79199981689453 12.168000221252441,-33.4640007019043 13.805000305175781,-29.155000686645508 C15.329999923706055,-25.14299964904785 15.36299991607666,-20.768999099731445 14.682999610900879,-17.66900062561035 C14.187999725341797,-15.409000396728516 12.840999603271484,-14.76099967956543 11.348999977111816,-13.729999542236328 C10.04800033569336,-12.831000328063965 9.347999572753906,-12.269000053405762 9.545999526977539,-9.036999702453613 C9.571999549865723,-8.541000366210938 9.659000396728516,-7.795000076293945 9.758000373840332,-6.8429999351501465 C9.758000373840332,-6.835999965667725 9.758000373840332,-6.836999893188477 9.758000373840332,-6.836999893188477 C9.79800033569336,-6.486999988555908 9.829999923706055,-6.117000102996826 9.869999885559082,-5.71999979019165 C10.682000160217285,-0.5320000052452087 12.74899959564209,1.7419999837875366 17.23200035095215,1.3980000019073486 C20.750999450683594,1.1269999742507935 22.104000091552734,-3.941999912261963 22.124000549316406,-7.001999855041504 C22.143999099731445,-10.067999839782715 22.625999450683594,-13.041999816894531 20.711000442504883,-14.159000396728516 C18.79599952697754,-15.282999992370605 17.65399932861328,-17.780000686645508 17.65399932861328,-19.611000061035156 C17.65399932861328,-22.76300048828125 18.06399917602539,-25.466999053955078 18.895999908447266,-28.791000366210938z"></path></g></g><g transform="matrix(0.9999996423721313,0,0,0.9999996423721313,768.866943359375,694.4579467773438)" opacity="1" style="display: block;"><g opacity="1" transform="matrix(1.9955699443817139,0,0,1.9955699443817139,0,0)"><path fill="rgb(255,255,255)" fill-opacity="1" d=" M29.024999618530273,27.60300064086914 C33.87099838256836,17.722999572753906 33.310001373291016,10.696999549865723 33.34299850463867,4.776000022888184 C33.34299850463867,4.776000022888184 33.34299850463867,4.769000053405762 33.34299850463867,4.769000053405762 C33.375999450683594,-0.1550000011920929 32.44499969482422,-3.617000102996826 33.297000885009766,-8.718999862670898 C33.62099838256836,-10.675000190734863 35.01300048828125,-13.081000328063965 37.31100082397461,-12.994999885559082 C42.2760009765625,-12.8100004196167 46.17900085449219,-18.281999588012695 45.512001037597656,-28.06999969482422 C44.85200119018555,-37.724998474121094 35.106998443603516,-40.196998596191406 27.757999420166016,-40.35599899291992 C20.409000396728516,-40.51499938964844 15.53600025177002,-35.86800003051758 13.628000259399414,-27.7189998626709 C11.720000267028809,-19.56999969482422 14.479999542236328,-8.970000267028809 14.149999618530273,2.7209999561309814 C14.071000099182129,5.53000020980835 13.378000259399414,10.604999542236328 10.050000190734863,11.053999900817871 C6.7220001220703125,11.503000259399414 5.144000053405762,9.196999549865723 4.456999778747559,4.419000148773193 C4.431000232696533,4.056000232696533 4.120999813079834,2.4560000896453857 4.199999809265137,1.371999979019165 C4.2789998054504395,0.3009999990463257 4.127999782562256,-1.2640000581741333 5.764999866485596,-2.1630001068115234 C8.015999794006348,-3.3989999294281006 9.118000030517578,-5.843999862670898 8.708999633789062,-9.531999588012695 C7.936999797821045,-16.46500015258789 4.813000202178955,-19.4060001373291 -4.297999858856201,-19.43899917602539 C-11.97700023651123,-19.46500015258789 -14.967000007629395,-18.149999618530273 -16.017000198364258,-10.788000106811523 C-16.677000045776367,-6.188000202178955 -15.753000259399414,-4.389999866485596 -14.135000228881836,-3.4189999103546143 C-12.392000198364258,-2.368000030517578 -12.45199966430664,-0.10199999809265137 -12.505000114440918,2.7070000171661377 C-12.557999610900879,5.515999794006348 -13.442000389099121,10.413999557495117 -17.39699935913086,10.895999908447266 C-21.19300079345703,11.359000205993652 -22.60700035095215,7.539000034332275 -22.79800033569336,3.6530001163482666 C-22.98900032043457,-0.2329999953508377 -23.014999389648438,-2.7780001163482666 -21.476999282836914,-3.9609999656677246 C-19.020999908447266,-5.84499979019165 -18.941999435424805,-9.123000144958496 -19.259000778198242,-15.347999572753906 C-19.516000747680664,-20.39699935913086 -23.358999252319336,-22.141000747680664 -31.540000915527344,-22.094999313354492 C-42.18299865722656,-22.04199981689453 -44.849998474121094,-19.60300064086914 -45.49700164794922,-11.890999794006348 C-45.93899917602539,-6.663000106811523 -44.71099853515625,-4.046999931335449 -42.18899917602539,-2.1630001068115234 C-39.8120002746582,-0.38499999046325684 -39.595001220703125,0.9559999704360962 -39.64099884033203,3.546999931335449 C-39.694000244140625,6.138000011444092 -40.71099853515625,20.173999786376953 -35.375999450683594,30.735000610351562 C-28.621999740600586,44.10499954223633 -12.880999565124512,42.888999938964844 -6.833000183105469,31.138999938964844 C-5.769999980926514,29.06999969482422 -3.4590001106262207,29.229000091552734 -2.634000062942505,31.086000442504883 C2.569000005722046,42.810001373291016 21.076000213623047,43.81399917602539 29.024999618530273,27.60300064086914z"></path></g></g><g transform="matrix(0.9999996423721313,0,0,0.9999996423721313,345.4750671386719,571.9459838867188)" opacity="1" style="display: block;"><g opacity="1" transform="matrix(1.9955699443817139,0,0,1.9955699443817139,0,0)"><path fill="rgb(255,255,255)" fill-opacity="1" d=" M-34.887001037597656,-14.704000473022461 C-34.861000061035156,-10.236000061035156 -29.584999084472656,-8.128000259399414 -29.770000457763672,-2.734999895095825 C-29.770000457763672,-2.734999895095825 -29.783000946044922,-2.7279999256134033 -29.783000946044922,-2.7279999256134033 C-30.000999450683594,3.5239999294281006 -36.80799865722656,8.744999885559082 -45.27899932861328,9.029000282287598 C-53.75,9.312999725341797 -64.9749984741211,1.434999942779541 -63.5880012512207,-14.32699966430664 C-61.92399978637695,-33.19499969482422 -43.027000427246094,-38.50199890136719 -28.857999801635742,-39.750999450683594 C-21.714000701904297,-40.37900161743164 -16.042999267578125,-40.59700012207031 -12.39799976348877,-40.1609992980957 C-9.109999656677246,-39.770999908447266 -6.099999904632568,-37.57699966430664 -4.620999813079834,-31.79400062561035 C-4.085999965667725,-29.7189998626709 -4.065999984741211,-27.30699920654297 -4.026000022888184,-25.145999908447266 C-3.9860000610351562,-22.985000610351562 -3.934000015258789,-19.62700080871582 -6.125999927520752,-17.24799919128418 C-7.677999973297119,-15.569000244140625 -7.908999919891357,-14.029000282287598 -7.578999996185303,-9.456000328063965 C-7.242000102996826,-4.882999897003174 -5.479000091552734,-0.41499999165534973 -1.0160000324249268,-1.062999963760376 C3.631999969482422,-1.7369999885559082 4.265999794006348,-7.750999927520752 4.252999782562256,-11.062000274658203 C4.239999771118164,-14.380000114440918 4.642000198364258,-17.479000091552734 2.555999994277954,-18.66900062561035 C0.4699999988079071,-19.858999252319336 -0.5400000214576721,-21.464000701904297 -0.968999981880188,-23.393999099731445 C-1.2259999513626099,-24.551000595092773 -1.3530000448226929,-28.402999877929688 -1.0160000324249268,-31.85300064086914 C-0.6460000276565552,-35.612998962402344 -0.46700000762939453,-39.19599914550781 13.496999740600586,-39.52000045776367 C28.016000747680664,-39.856998443603516 28.52400016784668,-36.875999450683594 28.965999603271484,-32.513999938964844 C29.85099983215332,-23.743999481201172 30.069000244140625,-21.08799934387207 25.711000442504883,-18.66900062561035 C24.211999893188477,-17.843000411987305 23.929000854492188,-16.36199951171875 24.18000030517578,-12.866000175476074 C24.219999313354492,-12.331000328063965 24.31800079345703,-11.517999649047852 24.437000274658203,-10.494000434875488 C24.437000274658203,-10.487000465393066 24.437000274658203,-10.487000465393066 24.437000274658203,-10.487000465393066 C24.476999282836914,-10.116999626159668 24.523000717163086,-9.71399974822998 24.569000244140625,-9.284000396728516 C25.5,-3.680000066757202 27.764999389648438,-1.2419999837875366 32.611000061035156,-1.6579999923706055 C36.41400146484375,-1.9880000352859497 37.83300018310547,-7.493000030517578 37.81999969482422,-10.803999900817871 C37.80699920654297,-14.114999771118164 37.779998779296875,-16.725000381469727 35.694000244140625,-17.915000915527344 C33.608001708984375,-19.104999542236328 31.983999252319336,-21.312999725341797 32.367000579833984,-27.743000030517578 C33.08700180053711,-39.882999420166016 37.21900177001953,-40.70199966430664 46.9379997253418,-40.3390007019043 C62.625999450683594,-39.750999450683594 63.768001556396484,-37.319000244140625 63.70199966430664,-28.84000015258789 C63.65599822998047,-23.459999084472656 63.2130012512207,-20.360000610351562 60.71099853515625,-19.402000427246094 C58.5260009765625,-18.569000244140625 57.99100112915039,-17.195999145507812 57.75299835205078,-12.609000205993652 C57.57500076293945,-9.11299991607666 56.27399826049805,4.567999839782715 54.14799880981445,17.375999450683594 C49.678001403808594,44.35300064086914 25.215999603271484,45.86000061035156 18.052000045776367,23.336999893188477 C16.86400032043457,19.610000610351562 14.420999526977539,18.155000686645508 12.756999969482422,25.44499969482422 C8.154999732971191,45.62799835205078 -15.890999794006348,46.005001068115234 -21.674999237060547,22.788000106811523 C-25.048999786376953,9.253000259399414 -25.53700065612793,-6.309999942779541 -25.986000061035156,-9.336999893188477 C-27.795000076293945,-21.60300064086914 -34.91299819946289,-19.172000885009766 -34.887001037597656,-14.704000473022461z"></path></g></g><g transform="matrix(0.9999996423721313,0,0,0.9999996423721313,512.2630004882812,718.6529541015625)" opacity="1" style="display: block;"><g opacity="1" transform="matrix(1.9955699443817139,0,0,1.9955699443817139,0,0)"><path fill="rgb(255,255,255)" fill-opacity="1" d=" M8.416000366210938,-6.78000020980835 C17.871000289916992,-4.2820000648498535 24.038000106811523,-10.718000411987305 23.25200080871582,-20.049999237060547 C23.25200080871582,-20.049999237060547 23.25200080871582,-20.04400062561035 23.25200080871582,-20.04400062561035 C22.427000045776367,-29.80500030517578 16.60300064086914,-33.81700134277344 -2.0820000171661377,-31.344999313354492 C-20.767000198364258,-28.87299919128418 -27.687000274658203,-12.357999801635742 -27.930999755859375,0.515999972820282 C-28.34000015258789,22.000999450683594 -15.21500015258789,31.069000244140625 -0.3790000081062317,31.988000869750977 C14.819999694824219,32.93299865722656 29.68199920654297,24.110000610351562 27.77400016784668,8.361000061035156 C27.020999908447266,2.1689999103546143 21.184999465942383,-2.9130001068115234 15.79699993133545,-1.8229999542236328 C6.421000003814697,0.07999999821186066 7.27400016784668,8.843000411987305 1.7410000562667847,10.032999992370605 C-3.7920000553131104,11.222999572753906 -8.031000137329102,6.894000053405762 -6.809999942779541,-0.7329999804496765 C-5.760000228881836,-7.309000015258789 0.06400000303983688,-8.987000465393066 8.416000366210938,-6.78000020980835z"></path></g></g><g transform="matrix(0.9999996423721313,0,0,0.9999996423721313,626.0859375,716.699951171875)" opacity="1" style="display: block;"><g opacity="1" transform="matrix(1.9955699443817139,0,0,1.9955699443817139,0,0)"><path fill="rgb(255,255,255)" fill-opacity="1" d=" M-5.956999778747559,-0.07800000160932541 C-5.533999919891357,4.607999801635742 -2.635999917984009,7.2779998779296875 0.3089999854564667,7.343999862670898 C4.870999813079834,7.449999809265137 6.693999767303467,4.164999961853027 6.7729997634887695,-0.6729999780654907 C6.864999771118164,-6.35699987411499 4.2170000076293945,-8.609999656677246 0.6650000214576721,-8.967000007629395 C-4.307000160217285,-9.463000297546387 -6.340000152587891,-4.327000141143799 -5.956999778747559,-0.07800000160932541z M-26.398000717163086,-0.6729999780654907 C-25.770999908447266,-16.18400001525879 -16.488000869750977,-30.49799919128418 1.8600000143051147,-29.236000061035156 C19.621000289916992,-28.01300048828125 25.312999725341797,-17.19499969482422 26.322999954223633,-2.1470000743865967 C27.360000610351562,13.331000328063965 20.57200050354004,29.555999755859375 -0.41100001335144043,29.31100082397461 C-15.913999557495117,29.132999420166016 -27.024999618530273,14.838000297546387 -26.398000717163086,-0.6729999780654907z"></path></g></g><g transform="matrix(0.9999996423721313,0,0,0.9999996423721313,372.2590637207031,718.5449829101562)" opacity="1" style="display: block;"><g opacity="1" transform="matrix(1.9955699443817139,0,0,1.9955699443817139,0,0)"><path fill="rgb(255,255,255)" fill-opacity="1" d=" M7.0329999923706055,-1.1679999828338623 C7.125,-7.116000175476074 4.188000202178955,-9.480999946594238 0.2529999911785126,-9.857999801635742 C0.2529999911785126,-9.857999801635742 0.2590000033378601,-9.857999801635742 0.2590000033378601,-9.857999801635742 C-5.254000186920166,-10.380000114440918 -7.498000144958496,-5.007999897003174 -7.068999767303467,-0.5600000023841858 C-6.593999862670898,4.343999862670898 -3.378999948501587,7.139999866485596 -0.11699999868869781,7.218999862670898 C4.940999984741211,7.330999851226807 6.953999996185303,3.8940000534057617 7.0329999923706055,-1.1679999828338623z M-0.42100000381469727,29.496999740600586 C-17.60099983215332,29.74799919128418 -29.913999557495117,16.788999557495117 -29.240999221801758,0.5509999990463257 C-28.56800079345703,-15.687000274658203 -18.235000610351562,-31.39699935913086 2.0350000858306885,-29.315000534057617 C18.527999877929688,-27.617000579833984 28.035999298095703,-16.67799949645996 29.172000885009766,-0.9229999780654907 C30.340999603271484,15.281999588012695 20.780000686645508,29.19300079345703 -0.42100000381469727,29.496999740600586z"></path></g></g><g transform="matrix(0.9999996423721313,0,0,0.9999996423721313,237.1151123046875,712.9669799804688)" opacity="1" style="display: block;"><g opacity="1" transform="matrix(1.9955699443817139,0,0,1.9955699443817139,0,0)"><path fill="rgb(255,255,255)" fill-opacity="1" d=" M-2.1500000953674316,29.31800079345703 C-4.071000099182129,31.604999542236328 -8.04699993133545,32.814998626708984 -11.26200008392334,33.284000396728516 C-11.26200008392334,33.284000396728516 -11.267999649047852,33.284000396728516 -11.267999649047852,33.284000396728516 C-14.404000282287598,33.7400016784668 -23.079999923706055,34.29499816894531 -26.43400001525879,32.51100158691406 C-28.447999954223633,31.440000534057617 -29.881000518798828,29.464000701904297 -30.263999938964844,26.986000061035156 C-30.60700035095215,24.77899932861328 -31.2549991607666,22.761999130249023 -30.4689998626709,18.242000579833984 C-29.82200050354004,14.541000366210938 -26.81100082397461,15.09000015258789 -27.02199935913086,11.409000396728516 C-27.298999786376953,6.5320000648498535 -26.9950008392334,-1.815000057220459 -27.74799919128418,-5.65500020980835 C-28.275999069213867,-8.345000267028809 -31.913999557495117,-7.38700008392334 -33.577999114990234,-10.697999954223633 C-34.904998779296875,-13.32800006866455 -35.262001037597656,-18.31800079345703 -33.41299819946289,-22.084999084472656 C-31.19499969482422,-26.618999481201172 -18.518999099731445,-27.298999786376953 -12.430999755859375,-27.417999267578125 C-4.804999828338623,-27.56999969482422 -2.072000026702881,-25.23699951171875 -0.8370000123977661,-22.989999771118164 C1.4079999923706055,-18.91200065612793 3.7990000247955322,-8.305000305175781 5.554999828338623,-4.861999988555908 C7.826000213623047,-0.40799999237060547 11.04800033569336,-2.007999897003174 11.060999870300293,-4.756999969482422 C11.067999839782715,-6.567999839782715 10.850000381469727,-6.230000019073486 10.163000106811523,-14.166999816894531 C9.939000129699707,-16.777000427246094 9.621000289916992,-19.996999740600586 9.529000282287598,-22.356000900268555 C9.11299991607666,-33.35300064086914 16.131999969482422,-34.44300079345703 24.430999755859375,-33.45199966430664 C32.387001037597656,-32.5 34.137001037597656,-27.95400047302246 34.16999816894531,-18.674999237060547 C34.176998138427734,-16.957000732421875 34.4010009765625,10.859999656677246 34.678001403808594,20.607999801635742 C34.875999450683594,27.408000946044922 31.93199920654297,29.70800018310547 29.514999389648438,30.554000854492188 C25.090999603271484,32.099998474121094 12.038000106811523,33.356998443603516 8.690999984741211,27.25 C7.7270002365112305,25.492000579833984 6.057000160217285,20.94499969482422 4.373000144958496,16.610000610351562 C2.497999906539917,11.758999824523926 1.0709999799728394,10.404000282287598 -1.3849999904632568,11.831999778747559 C-2.36899995803833,12.406999588012695 -2.1510000228881836,13.720999717712402 -2.01200008392334,14.772000312805176 C-1.7680000066757202,16.576000213623047 -1.687999963760376,19.134000778198242 -1.152999997138977,22.94099998474121 C-0.8230000138282776,25.26099967956543 -0.5849999785423279,27.45400047302246 -2.1500000953674316,29.31800079345703z"></path></g></g><g transform="matrix(1,0,0,1,1.9959716796875,63.858001708984375)" opacity="1" style="display: block;"><g opacity="1" transform="matrix(1.9955699443817139,0,0,1.9955699443817139,0,0)"><path stroke-linecap="butt" stroke-linejoin="miter" fill-opacity="0" stroke-miterlimit="4" stroke="rgb(255,255,255)" stroke-opacity="1" stroke-width="2" d=" M0,32 C0,32 0,-32 0,-32"></path></g></g><g transform="matrix(1,0,0,1,307.3179626464844,627.60498046875)" opacity="1" style="display: block;"><g opacity="1" transform="matrix(1.9955699443817139,0,0,1.9955699443817139,0,0)"><path stroke-linecap="butt" stroke-linejoin="miter" fill-opacity="0" stroke-miterlimit="4" stroke="rgb(255,255,255)" stroke-opacity="1" stroke-width="2" d=" M105,-103.5 C105,-103.5 105,-283.5 105,-283.5 C105,-283.5 -153.0240020751953,-283.4469909667969 -153.0240020751953,-283.4469909667969"></path></g></g><g transform="matrix(1,0,0,1,307.3169860839844,627.60498046875)" opacity="1" style="display: block;"><g opacity="1" transform="matrix(1.9955699443817139,0,0,1.9955699443817139,0,0)"><path stroke-linecap="butt" stroke-linejoin="miter" fill-opacity="0" stroke-miterlimit="4" stroke="rgb(255,255,255)" stroke-opacity="1" stroke-width="2" d=" M142,283.5 C142,283.5 68,283.5 68,283.5 M105,106.5 C105,106.5 105.15899658203125,283.5150146484375 105.15899658203125,283.5150146484375"></path></g></g><g transform="matrix(1,0,0,1,873.9450073242188,604.322998046875)" opacity="1" style="display: block;"><g opacity="1" transform="matrix(1.9955699443817139,0,0,1.9955699443817139,0,0)"><path fill="rgb(255,255,255)" fill-opacity="1" d=" M-3.996999979019165,-4.881999969482422 C-1.059000015258789,-8.708999633789062 -1.36899995803833,-14.418999671936035 1.7209999561309814,-14.345999717712402 C1.7209999561309814,-14.345999717712402 1.7139999866485596,-14.33899974822998 1.7139999866485596,-14.33899974822998 C3.8929998874664307,-14.28600025177002 2.8429999351501465,-8.371000289916992 5.120999813079834,-5.244999885559082 C7.2210001945495605,-2.364000082015991 13.116999626159668,-3.1630001068115234 13.050999641418457,-0.4339999854564667 C13.005000114440918,1.4359999895095825 8.104999542236328,1.871999979019165 5.21999979019165,4.389999866485596 C2.3350000381469727,6.9079999923706055 3.7139999866485596,14.515000343322754 0.7300000190734863,14.343000411987305 C-2.253999948501587,14.170999526977539 -0.5699999928474426,10.39799976348877 -3.614000082015991,5.896999835968018 C-6.6579999923706055,1.402999997138977 -12.751999855041504,3.5250000953674316 -13.03600025177002,1.1059999465942383 C-13.38599967956543,-1.8420000076293945 -7.6020002365112305,-0.19599999487400055 -3.996999979019165,-4.881999969482422z"></path></g></g><g transform="matrix(1,0,0,1,487.19000244140625,478.3890075683594)" opacity="1" style="display: block;"><g opacity="1" transform="matrix(1.9955699443817139,0,0,1.9955699443817139,0,0)"><path fill="rgb(255,255,255)" fill-opacity="1" d=" M-3.9739999771118164,-4.129000186920166 C0.21199999749660492,-8.63599967956543 -1.6640000343322754,-13.803999900817871 1.815999984741211,-13.725000381469727 C1.815999984741211,-13.725000381469727 1.8229999542236328,-13.725000381469727 1.8229999542236328,-13.725000381469727 C4.443999767303467,-13.666000366210938 2.674999952316284,-8.498000144958496 5.506999969482422,-5.232999801635742 C8.642999649047852,-1.6180000305175781 12.406000137329102,-3.507999897003174 12.293999671936035,-0.5540000200271606 C12.182000160217285,2.313999891281128 8.326000213623047,0.7350000143051147 5.578999996185303,3.240000009536743 C2.8320000171661377,5.744999885559082 4.172999858856201,13.52299976348877 1.215000033378601,13.720999717712402 C-1.0759999752044678,13.873000144958496 -0.6729999780654907,10.107000350952148 -2.805999994277954,5.486999988555908 C-4.310999870300293,2.234999895095825 -12.479000091552734,3.496999979019165 -12.293999671936035,1.0720000267028809 C-12.109000205993652,-1.3530000448226929 -7.750999927520752,-0.06499999761581421 -3.9739999771118164,-4.129000186920166z"></path></g></g><g transform="matrix(1,0,0,1,200.30599975585938,592.052978515625)" opacity="1" style="display: block;"><g opacity="1" transform="matrix(1.9955699443817139,0,0,1.9955699443817139,0,0)"><path fill="rgb(255,255,255)" fill-opacity="1" d=" M5.173999786376953,-4.132999897003174 C2.9030001163482666,-6.928999900817871 4.243000030517578,-14.614999771118164 1.3309999704360962,-14.032999992370605 C1.3309999704360962,-14.032999992370605 1.3250000476837158,-14.032999992370605 1.3250000476837158,-14.032999992370605 C-1.1970000267028809,-13.531000137329102 0.17599999904632568,-8.61299991607666 -3.634000062942505,-4.59499979019165 C-6.414000034332275,-1.6610000133514404 -11.345000267028809,-2.010999917984009 -11.180000305175781,0.3019999861717224 C-11.027999877929688,2.4560000896453857 -7.2179999351501465,3.0980000495910645 -4.716000080108643,5.370999813079834 C-2.2139999866485596,7.644000053405762 -2.378999948501587,14.206000328063965 0.2750000059604645,14.060999870300293 C3.002000093460083,13.916000366210938 2.243000030517578,8.28499984741211 4.546999931335449,5.46999979019165 C6.857999801635742,2.6549999713897705 11.09000015258789,2.1459999084472656 11.182000160217285,0.22300000488758087 C11.281000137329102,-1.7000000476837158 7.445000171661377,-1.3370000123977661 5.173999786376953,-4.132999897003174z"></path></g></g><g transform="matrix(1,0,0,1,442.1189880371094,784.10400390625)" opacity="1" style="display: block;"><g opacity="1" transform="matrix(1.9955699443817139,0,0,1.9955699443817139,0,0)"><path fill="rgb(255,255,255)" fill-opacity="1" d=" M-3.9489998817443848,-4.590000152587891 C-1.74399995803833,-7.260000228881836 -2.8919999599456787,-11.456999778747559 -0.5550000071525574,-11.416999816894531 C-0.5550000071525574,-11.416999816894531 -0.5550000071525574,-11.423999786376953 -0.5550000071525574,-11.423999786376953 C1.7359999418258667,-11.390999794006348 1.0959999561309814,-7.485000133514404 3.4660000801086426,-5.085999965667725 C5.835999965667725,-2.687000036239624 10.246000289916992,-3.4200000762939453 10.166999816894531,-1.0410000085830688 C10.081000328063965,1.503000020980835 5.308000087738037,1.3179999589920044 3.75600004196167,4.431000232696533 C2.2039999961853027,7.5370001792907715 2.441999912261963,11.482000350952148 0.3619999885559082,11.42300033569336 C-1.9420000314712524,11.357000350952148 -1.156000018119812,7.271999835968018 -4.179999828338623,4.099999904632568 C-7.078000068664551,1.0529999732971191 -10.39900016784668,0.8220000267028809 -10.154999732971191,-0.9819999933242798 C-9.871000289916992,-3.0769999027252197 -6.160999774932861,-1.906999945640564 -3.9489998817443848,-4.590000152587891z"></path></g></g><g transform="matrix(1,0,0,1,786.5289916992188,492.0559997558594)" opacity="1" style="display: block;"><g opacity="1" transform="matrix(1.9955699443817139,0,0,1.9955699443817139,0,0)"><path fill="rgb(255,255,255)" fill-opacity="1" d=" M4.053999900817871,-5.809999942779541 C1.9479999542236328,-7.422999858856201 3.056999921798706,-12.048999786376953 0.11900000274181366,-12.107999801635742 C0.11900000274181366,-12.107999801635742 0.12600000202655792,-12.10099983215332 0.12600000202655792,-12.10099983215332 C-2.9839999675750732,-12.15999984741211 -1.4190000295639038,-8.288000106811523 -4.4029998779296875,-4.870999813079834 C-7.38700008392334,-1.4609999656677246 -10.239999771118164,-2.934999942779541 -10.319000244140625,0.13099999725818634 C-10.392000198364258,2.7939999103546143 -6.146999835968018,0.9110000133514404 -3.4000000953674316,5.339000225067139 C-1.690000057220459,8.088000297546387 -1.7089999914169312,12.390000343322754 1.2419999837875366,12.093000411987305 C4.007999897003174,11.809000015258789 2.0999999046325684,7.427000045776367 4.073999881744385,3.865000009536743 C6.047999858856201,0.29600000381469727 10.293999671936035,1.3680000305175781 10.319999694824219,-1.440999984741211 C10.34000015258789,-4.085000038146973 6.906000137329102,-3.621999979019165 4.053999900817871,-5.809999942779541z"></path></g></g><g transform="matrix(1,0,0,1,144.3260040283203,722.1389770507812)" opacity="1" style="display: block;"><g opacity="1" transform="matrix(1.9955699443817139,0,0,1.9955699443817139,0,0)"><path fill="rgb(255,255,255)" fill-opacity="1" d=" M4.058000087738037,-5.809999942779541 C1.9520000219345093,-7.422999858856201 3.061000108718872,-12.048999786376953 0.12300000339746475,-12.107999801635742 C-2.986999988555908,-12.166999816894531 -1.4229999780654907,-8.295000076293945 -4.4070000648498535,-4.877999782562256 C-7.390999794006348,-1.468000054359436 -10.244000434875488,-2.940999984741211 -10.322999954223633,0.125 C-10.395999908447266,2.7880001068115234 -6.150000095367432,0.9049999713897705 -3.3970000743865967,5.340000152587891 C-1.687000036239624,8.08899974822998 -1.7059999704360962,12.390999794006348 1.2450000047683716,12.093999862670898 C4.011000156402588,11.8100004196167 2.1029999256134033,7.427999973297119 4.077000141143799,3.865999937057495 C6.051000118255615,0.296999990940094 10.29699993133545,1.3680000305175781 10.322999954223633,-1.440999984741211 C10.343000411987305,-4.085000038146973 6.909999847412109,-3.621999979019165 4.058000087738037,-5.809999942779541z"></path></g></g><g transform="matrix(1,0,0,1,681.4669799804688,790.156982421875)" opacity="1" style="display: block;"><g opacity="1" transform="matrix(1.9955699443817139,0,0,1.9955699443817139,0,0)"><path fill="rgb(255,255,255)" fill-opacity="1" d=" M5.355000019073486,5.013000011444092 C2.5290000438690186,7.201000213623047 3.506999969482422,12.111000061035156 0.574999988079071,12.045000076293945 C0.574999988079071,12.045000076293945 0.5680000185966492,12.050999641418457 0.5680000185966492,12.050999641418457 C-2.377000093460083,11.984999656677246 -0.9959999918937683,8.892000198364258 -4.0929999351501465,5.613999843597412 C-7.190000057220459,2.3289999961853027 -10.741999626159668,3.447000026702881 -10.279999732971191,0.2809999883174896 C-9.942999839782715,-2.0390000343322754 -5.7769999504089355,-0.2409999966621399 -3.2149999141693115,-4.748000144958496 C-1.6239999532699585,-7.544000148773193 -1.934000015258789,-12.109999656677246 0.753000020980835,-12.050999641418457 C2.9649999141693115,-11.998000144958496 2.250999927520752,-8.086000442504883 4.35099983215332,-4.616000175476074 C6.451000213623047,-1.152999997138977 10.649999618530273,-1.5499999523162842 10.300000190734863,1.0540000200271606 C9.956999778747559,3.6640000343322754 8.180999755859375,2.825000047683716 5.355000019073486,5.013000011444092z"></path></g></g></g></svg>