<?xml version="1.0" encoding="UTF-8"?>
<svg id="Layer_2" data-name="Layer 2" xmlns="http://www.w3.org/2000/svg" viewBox="0 0 455 445.03">
  <defs>
    <style>
      .cls-1 {
        fill: #98c5d3;
      }

      .cls-1, .cls-2 {
        stroke-width: 0px;
      }

      .cls-2 {
        fill: #fff;
      }
    </style>
  </defs>
  <g id="Layer_1-2" data-name="Layer 1">
    <g>
      <polygon class="cls-2" points="0 300.09 0 405.03 201 405.03 227.62 445.03 254 405.03 455 405.03 455 300.09 0 300.09"/>
      <rect class="cls-2" x="0" y="180.87" width="455" height="106.94"/>
      <rect class="cls-2" x="0" y="90.73" width="455" height="77.86"/>
      <g>
        <path class="cls-1" d="M334.81,15.42c-.07-.06-.14-.12-.21-.18-.11-.14-.23-.27-.36-.39-.07-.06-.14-.12-.21-.18-.11-.13-.23-.26-.36-.39-.07-.06-.14-.12-.21-.18-.11-.14-.23-.27-.36-.39-.07-.06-.14-.12-.21-.18-.11-.13-.23-.26-.36-.39-.07-.06-.14-.12-.21-.18-.11-.14-.23-.27-.36-.39-.07-.06-.14-.12-.21-.18-.11-.13-.23-.26-.36-.39-.07-.06-.14-.12-.21-.18-.11-.14-.23-.27-.36-.39-.07-.06-.14-.12-.21-.18-.11-.13-.23-.26-.36-.39-.07-.06-.14-.12-.21-.18-.11-.14-.23-.27-.36-.39-.07-.06-.14-.12-.21-.18-.11-.13-.23-.26-.36-.39-.07-.06-.14-.12-.21-.18-.11-.14-.23-.27-.36-.39-.07-.06-.14-.12-.21-.18-.11-.13-.23-.26-.36-.39-.07-.06-.14-.12-.21-.18-.11-.14-.23-.27-.36-.39-.07-.06-.14-.12-.21-.18-.11-.13-.23-.26-.36-.39-.07-.06-.14-.12-.21-.18-.11-.13-.23-.26-.36-.39-.07-.06-.14-.12-.21-.18-.11-.14-.23-.27-.36-.39-.07-.06-.14-.12-.21-.18-.11-.13-.23-.26-.36-.39-.07-.06-.14-.12-.21-.18-.11-.14-.23-.27-.36-.39-.07-.06-.14-.12-.21-.18-.11-.13-.23-.26-.36-.39-.07-.06-.14-.12-.21-.18-.11-.14-.23-.27-.36-.39-.07-.06-.14-.12-.21-.18-.11-.13-.23-.26-.36-.39-.07-.06-.14-.12-.21-.18-.11-.14-.23-.27-.36-.39-.07-.06-.14-.12-.21-.18-.11-.13-.23-.26-.36-.39-.07-.06-.14-.12-.21-.18-.11-.14-.23-.27-.36-.39-.98-.94-2.32-1.39-3.68-1.22-3.31.42-6.61.61-9.79.81-3.22.19-6.25.37-9.12.76-2.41.33-4.12,2.51-3.87,4.93l.27,2.59c.64,6.04,1.31,12.29,1.75,16.92v.03c.46,4.52,1.04,9.32,1.56,13.56.12,1.03.25,2.05.37,3.03-.11-.11-.21-.23-.33-.33,0,0,0,0,0,0-.17-.2-.35-.4-.56-.56-1.03-.83-2.35-1.16-3.64-.92-.27.04-1.27.13-2,.2-.32.03-.67.06-1.02.09,0-4.1,0-7.22.02-8.15,0-.14.02-.26.03-.37.09-.01.2-.02.31-.03,2.33-.19,4.13-2.14,4.13-4.48v-6.74c0-1.26-.53-2.46-1.45-3.31-.06-.06-.13-.09-.19-.14-.12-.14-.23-.29-.37-.42-.06-.06-.13-.09-.2-.15-.12-.14-.23-.29-.37-.42-.06-.06-.13-.09-.19-.14-.12-.14-.23-.29-.37-.42-.06-.06-.13-.09-.2-.15-.12-.14-.23-.29-.37-.42-.06-.06-.13-.09-.19-.14-.12-.14-.23-.29-.37-.42-.06-.06-.13-.09-.2-.15-.12-.14-.23-.29-.37-.42-.06-.05-.13-.09-.19-.14-.12-.14-.23-.29-.37-.42-.06-.06-.13-.09-.2-.15-.12-.14-.23-.29-.37-.42-.06-.06-.13-.09-.19-.14-.12-.14-.23-.29-.37-.42-.06-.06-.13-.09-.2-.15-.12-.14-.23-.29-.37-.42-.06-.06-.13-.09-.19-.14-.12-.14-.23-.29-.37-.42-.06-.06-.13-.09-.2-.15-.12-.14-.23-.29-.37-.42-.06-.06-.13-.09-.19-.14-.12-.14-.23-.29-.37-.42-.06-.06-.13-.09-.2-.15-.12-.14-.23-.29-.37-.42-.06-.06-.13-.09-.2-.15-.12-.14-.23-.29-.37-.42-.06-.06-.13-.09-.19-.14-.12-.14-.23-.29-.37-.42-.06-.06-.13-.09-.2-.15-.12-.14-.23-.29-.37-.42-.06-.06-.13-.09-.19-.14-.12-.14-.23-.29-.37-.42-.06-.06-.13-.09-.2-.15-.12-.14-.23-.29-.37-.42-.06-.06-.13-.09-.19-.14-.12-.14-.23-.29-.37-.42-.06-.06-.13-.09-.2-.15-.12-.14-.23-.29-.37-.42-.06-.06-.13-.09-.19-.14-.12-.14-.23-.29-.37-.42-.06-.06-.13-.09-.2-.15-.12-.14-.23-.29-.37-.42-.06-.05-.13-.09-.19-.14-.12-.14-.23-.29-.37-.42-.93-.85-2.16-1.28-3.42-1.17-2.69.22-20.4,1.4-25.68,1.74-.79.05-1.51.31-2.13.71-.16,0-.32-.02-.49,0-.44.04-1.84.14-3.77.27-6.66.48-19.04,1.37-22.21,1.79-2.24.3-3.91,2.2-3.91,4.46,0,.9.05,2.14.1,3.45.05,1.28.1,2.6.1,3.46,0,1.2.48,2.35,1.33,3.19.1.1.21.18.32.26.08.1.16.21.25.3.1.1.21.18.32.27.08.1.15.21.25.3.1.1.21.18.32.26.08.1.16.21.25.3.1.1.21.18.32.27.08.1.15.21.25.3.1.1.21.18.32.26.08.1.16.21.25.3,0,0,.02.01.03.02.24,4.85.32,12.05.35,18.86-1.78-6.9-3.36-13.33-4.13-17.11-.21-1.03-.77-1.91-1.53-2.54-.17-.21-.36-.4-.57-.57-.17-.21-.36-.39-.57-.57-.17-.21-.36-.4-.57-.57-.17-.21-.36-.39-.56-.57-.17-.21-.36-.4-.57-.57-.17-.21-.36-.39-.57-.57-.17-.21-.36-.4-.57-.57-.17-.21-.36-.39-.56-.56-.17-.21-.36-.4-.57-.57-.17-.21-.36-.39-.57-.57-.17-.21-.36-.4-.57-.57-.17-.21-.36-.39-.57-.57-.17-.21-.36-.4-.57-.57-.17-.21-.36-.4-.57-.57-.17-.21-.36-.39-.56-.56-.17-.21-.36-.4-.57-.57-.17-.2-.36-.39-.56-.56-.17-.21-.36-.4-.57-.57-.17-.21-.36-.39-.56-.56-.17-.21-.36-.4-.57-.57-.17-.21-.36-.39-.56-.56-.17-.21-.36-.4-.57-.57-.17-.2-.36-.39-.56-.56-.92-1.1-2.32-1.74-3.82-1.61-.47.04-1.75.12-3.51.24-6.29.42-17.99,1.21-22.68,1.83-.88.12-1.67.5-2.31,1.04-.84-.63-1.86-.96-2.92-.9-3.2.17-38.56,2.9-45.93,3.61-2.22.21-3.95,2.02-4.06,4.25-.07,1.32-.26,7.3.13,10.28.15,1.16.74,2.15,1.58,2.85.17.21.36.4.57.57.17.21.36.39.56.56.17.21.36.4.57.57.17.21.36.39.56.56.06.08.13.15.19.22.17,10.69.08,28.76-.02,32.58,0,.04,0,.08,0,.11,0,1.17-.05,1.83-.11,2.2-.09.02-.2.03-.33.05-2.21.24-3.91,2.05-4.01,4.26-.11,2.27-.11,6,0,9.52.04,1.23.58,2.4,1.5,3.22.05.04.1.07.15.11.13.16.26.32.42.46.05.04.1.07.15.11.13.16.26.31.41.45.05.04.1.07.15.11.13.16.26.32.42.45.05.04.1.07.15.11.13.16.26.31.41.45.05.04.1.07.15.11.13.16.26.32.42.45.05.04.1.07.15.11.13.16.26.31.41.45.05.04.1.07.15.11.13.16.26.32.42.45.05.04.1.07.15.11.13.16.26.31.41.45.05.04.1.07.15.11.13.16.26.32.42.45.05.04.1.07.15.11.13.16.26.31.41.45.05.04.1.07.15.11.13.16.26.31.41.45.05.04.1.07.15.11.13.16.26.32.42.45.05.04.1.07.15.11.13.16.26.31.41.45.05.04.1.07.15.11.13.16.26.32.42.45.05.04.1.07.15.11.13.16.26.31.41.45.05.04.1.07.15.11.13.16.26.32.42.45.05.04.1.07.15.11.13.16.26.31.41.45.05.04.1.07.15.11.13.16.26.32.42.46.05.04.1.07.15.11.13.16.26.31.41.45.05.04.1.07.15.11.13.16.26.32.42.45.05.04.1.07.15.11.13.16.26.31.41.45.05.04.1.07.15.11.13.16.26.32.42.45.05.04.1.07.15.11.13.16.26.31.41.45.05.04.1.07.15.11.13.16.26.32.42.45.83.74,1.9,1.14,3,1.14.12,0,.25,0,.37-.02.65-.05,2.24-.18,4.37-.34,7.69-.59,22.01-1.69,25.45-2.14,2.24-.29,3.92-2.2,3.92-4.46,0-.08,0-.17,0-.27.16.18.33.35.51.5.17.21.36.39.56.56.17.21.36.4.57.57.17.21.36.39.56.56.83.99,2.06,1.62,3.44,1.62.07,0,.15,0,.22,0,4.56-.22,17.73-1.03,23.78-2.08,1.05-.18,1.97-.72,2.64-1.5.92.81,2.12,1.22,3.35,1.11l27.79-2.3c.37-.03.72-.12,1.06-.23.42.13.86.22,1.31.22h.04c.86,0,5.02-.39,16.3-1.45,4.14-.39,7.82-.74,9.19-.85.55-.05,1.06-.19,1.53-.42.14.01.28.04.43.04h.04c1.59-.01,9.75-.7,22.94-1.81,8.15-.69,16.57-1.4,21.58-1.77,1.78-.13,3.24-1.29,3.85-2.88,2.19,1.87,5.1,2.91,8.2,2.91.39,0,.78-.02,1.17-.05,6.87-.57,12.24-6.35,12.24-13.16,0-.04,0-.07,0-.11-.08-3.63-1.46-6.72-3.69-8.87-.1-.11-.2-.2-.3-.3.28-.59.44-1.25.44-1.94,0-1.97,1.14-11.29,1.97-18.1.53-4.3,1.02-8.36,1.25-10.62,0-.03,0-.07,0-.1.08-1.09.25-2.77.47-4.87.31-3.06.7-6.87,1.05-11.13.11-1.35-.39-2.68-1.37-3.62Z"/>
        <g>
          <g>
            <path class="cls-1" d="M123.38,88.55c-1.1,0-2.17-.4-3-1.14-.92-.82-1.46-1.99-1.5-3.22-.1-3.52-.1-7.26,0-9.52.1-2.22,1.81-4.02,4.01-4.26.13-.01.24-.03.33-.05.06-.37.11-1.02.11-2.2,0-.04,0-.08,0-.11.1-3.95.2-23.14,0-33.65,0-.14,0-.26-.02-.38-2.04-.21-3.73-1.79-4-3.89-.39-2.98-.2-8.96-.13-10.28.12-2.23,1.84-4.03,4.06-4.25,7.37-.71,42.73-3.44,45.93-3.61,1.19-.06,2.36.35,3.25,1.15.89.8,1.42,1.92,1.49,3.11.31,5.89.31,19.79.2,21.76-.12,2.12-1.71,3.87-3.81,4.19-2.67.41-7.59.76-9.86.86.16.43.25.89.28,1.36.1,2.29.12,7.85,0,9.44-.18,2.25-2,4.02-4.26,4.14-2.92.15-3.92.48-4.23.63-.04.13-.1.39-.13.85-.14,2.97-.12,4.67-.11,6.46,0,.5.01,1.01.01,1.55.12,0,.24,0,.38-.01,2.43-.08,4.47,1.71,4.68,4.1.22,2.5.42,8.4.42,10.02,0,2.26-1.68,4.17-3.92,4.46-3.43.44-17.75,1.54-25.45,2.14-2.13.16-3.73.29-4.37.34-.12.01-.25.02-.37.02ZM127.81,78.23c0,.31,0,.63,0,.96,5.44-.42,14.92-1.15,20.58-1.66-.02-.48-.04-.96-.06-1.44-1.09-.3-2.12-.8-3.02-1.63-2.12-1.96-2.22-4.58-2.28-6.31,0-.06,0-.11,0-.17,0-.71,0-1.34-.01-1.97-.02-1.94-.04-3.77.12-7.04,0-.04,0-.07,0-.11.48-6.66,4.75-8.73,8.69-9.45v-.23c-2.85-.16-5.17-.83-6.93-2.47-1.64-1.53-2.48-3.66-2.48-6.31,0-.84-.06-1.88-.12-3.08-.11-2.1-.25-4.72-.18-7.92.05-2.3,1.83-4.2,4.13-4.39.9-.08,2.13-.13,3.43-.18,1.15-.05,2.3-.1,3.06-.16.06,0,.13,0,.19-.01,2.78-.12,5.28.81,7.21,2.67,1.66,1.59,2.83,3.83,3.45,6.51.53-.04,1.07-.08,1.61-.13.01-3.38-.01-8.33-.1-12.42-8.88.65-27.77,2.12-37,2.91,0,.55,0,1.1,0,1.64.54.27,1.04.62,1.5,1.03,2.33,2.08,2.68,5.15,2.75,7.27,0,.02,0,.04,0,.05.2,10.56.1,29.88,0,34.02,0,2.52-.03,7.67-4.54,10.02ZM151.41,40.11c.62.1,1.81.17,3.97.05-.19-.5-.29-1.04-.29-1.58,0-2.48-.62-4.2-1.19-4.76-.09-.09-.2-.17-.55-.17-.62.05-1.38.09-2.21.13.04,1.1.09,2.12.14,3.07.06,1.21.12,2.27.13,3.26Z"/>
            <path class="cls-1" d="M163.14,85.15c-2.36,0-4.34-1.83-4.49-4.22-.2-3.19-.31-7.08-.31-8.56,0-2.22,1.62-4.11,3.82-4.45,1.75-.27,2.07-.32,2.91-3.65,1.05-4.14,7.52-27.65,9.31-33.93-.88-.1-1.72-.47-2.4-1.05-.94-.81-1.51-1.97-1.56-3.21-.11-2.41,0-6.38.1-9.91.07-2.21,1.72-4.04,3.91-4.33,4.69-.62,16.39-1.41,22.68-1.83,1.76-.12,3.03-.2,3.51-.24,2.26-.2,4.33,1.35,4.78,3.59,2.2,10.77,11.04,43.18,12.06,46.5.02.05.03.1.04.15.41,1.5.75,2.15.9,2.38.19.02.6.04,1.39-.03,1.19-.11,2.38.28,3.3,1.07.91.78,1.48,1.9,1.56,3.1.13,1.84.55,7.99.4,9.75-.19,2.19-1.92,3.92-4.11,4.1l-27.79,2.3c-1.24.11-2.44-.3-3.35-1.11-.67.77-1.59,1.31-2.64,1.5-6.04,1.05-19.21,1.86-23.78,2.08-.07,0-.15,0-.22,0ZM167.41,75.68c0,.08,0,.15,0,.23,4.64-.29,10.29-.72,14.49-1.2v-.45c-1.13-.46-2.05-1.16-2.75-2.12-2.56-3.47-.75-7.97.7-11.59.63-1.58,2.11-2.67,3.8-2.81l12.07-1c2-.16,3.88,1.02,4.58,2.9,1.38,3.68,2.95,7.84.75,11.38-.57.91-1.29,1.61-2.07,2.14l16.95-1.4c-.01-.24-.03-.48-.04-.74-3.53-.94-5.74-3.69-7.08-8.59-1.05-3.46-8.32-30.01-11.41-43.42-4.56.31-12.62.85-18.01,1.35-.01.55-.02,1.08-.03,1.59,1.25.5,2.12,1.24,2.72,1.93.95,1.1,2.38,3.56,1.32,7.59-.01.05-.03.1-.04.15-.79,2.62-8.49,30.58-9.58,34.88-.94,3.71-2.42,7.29-6.38,9.18ZM188.41,66.38c.31.17.6.37.86.6.15.13.28.27.41.41.59-.64,1.37-1.1,2.26-1.31l-3.53.29ZM186.78,54.2c-1.34,0-2.62-.6-3.47-1.64-.89-1.08-1.22-2.51-.91-3.87,1.13-4.93,3.19-13.52,4.21-15.57.84-1.68,2.63-2.66,4.5-2.47,1.87.2,3.42,1.54,3.88,3.36.66,2.56,2.99,12.58,3.24,14.39.34,2.42-1.32,4.67-3.73,5.07-2.34.38-5.17.66-7.58.73-.05,0-.1,0-.15,0Z"/>
            <path class="cls-1" d="M223.29,80.36c-1.19,0-2.33-.47-3.17-1.3-.85-.85-1.33-2-1.33-3.2,0-1.28-.03-2.66-.05-4-.03-1.32-.05-2.59-.05-3.71,0-2.22,1.62-4.11,3.81-4.45.36-.06.52-.16.54-.18.03-.03.12-.27.11-.77-.03-.99-.03-3.54-.02-7.39,0-9.17.03-24.38-.44-31.73-1.04-.09-2.03-.55-2.77-1.29-.85-.84-1.33-1.99-1.33-3.19,0-.86-.05-2.18-.1-3.46-.05-1.32-.1-2.56-.1-3.45,0-2.26,1.67-4.17,3.91-4.46,3.17-.42,15.56-1.31,22.21-1.79,1.93-.14,3.33-.24,3.77-.27,1.22-.1,2.42.3,3.34,1.1.92.81,1.47,1.95,1.53,3.17.08,1.7,0,4.11-.06,5.71-.02.57-.04,1.01-.04,1.24,0,2.16-1.54,4.02-3.66,4.42-.5.1-.73.23-.8.28,0,.02,0,.07,0,.16l.3,40.58c.93.11,1.8.51,2.5,1.16.93.85,1.45,2.05,1.45,3.31,0,1.16.03,2.45.05,3.67.03,1.14.05,2.21.05,3.06,0,2.34-1.79,4.29-4.13,4.48-1.36.11-5.05.46-9.19.85-11.28,1.06-15.44,1.44-16.3,1.45h-.04ZM228.35,16.24c1.86,1.35,3.04,3.5,3.28,6.19v.08c.53,7.45.51,23.36.5,32.87,0,3.49,0,6.25.02,7.1.12,3.65-1.36,6.67-3.97,8.47,3.21-.29,7.37-.68,10.6-.99,1.44-.14,2.83-.27,4.09-.38-.1-.08-.2-.17-.29-.26-1.23-1.13-2.69-3.23-2.69-6.82l-.3-40.65c0-2.67,1.01-4.99,2.77-6.67-4.25.31-9.89.72-14,1.06Z"/>
            <path class="cls-1" d="M250.78,77.69c-2.44,0-4.44-1.95-4.5-4.39-.11-4.46,0-7.16.11-8.65.15-2.09,1.74-3.8,3.81-4.12.44-.07.71-.14.86-.19.09-.34.22-1.18.18-3.19-.08-2.04-.17-7.21-.26-13.19-.13-7.93-.29-17.69-.5-23.5-.76-.14-1.49-.47-2.09-.98-.96-.8-1.54-1.97-1.6-3.22-.16-3.15-.19-5.51-.1-7.03.14-2.27,1.94-4.07,4.2-4.22,5.28-.34,22.99-1.52,25.68-1.74,1.26-.11,2.5.32,3.42,1.17s1.45,2.05,1.45,3.31v6.74c0,2.34-1.79,4.29-4.13,4.48-.11,0-.22.02-.31.03,0,.11-.02.23-.03.37-.08,2.76.04,24.92.14,34.92,2.23-.29,4.37-.7,4.97-1.27.66-.63.62-5.04.6-6.93-.02-2.21,1.57-4.11,3.74-4.48,1.48-.25,3.51-.44,5.15-.58.73-.07,1.74-.16,2-.2,1.3-.25,2.62.09,3.64.92s1.62,2.06,1.66,3.38l.06,1.91c.54,17.66.61,21.91.54,22.87-.14,2.24-1.92,4.03-4.16,4.2-5.01.37-13.43,1.08-21.58,1.77-13.19,1.11-21.35,1.8-22.94,1.81h-.04ZM255.25,68.32s0,.04,0,.07c4.54-.35,11.64-.95,17.76-1.47,6.19-.52,12.55-1.06,17.46-1.45-.05-2.08-.12-4.96-.23-8.64-2.12,4.61-6.97,6.08-17.17,6.93-1.24.1-2.43-.3-3.35-1.11-.92-.81-1.47-1.96-1.52-3.19-.09-2.23-.32-37.1-.2-40.45,0-.05,0-.09,0-.14.13-2.09.56-4.38,2.09-6.12-3.92.27-8.68.59-12.6.84,1.81,1.96,1.92,4.55,1.95,5.47.24,5.74.41,16.28.55,24.74.1,5.92.18,11.04.26,13.06.06,3.09.18,8.84-5,11.44Z"/>
            <path class="cls-1" d="M307.39,74.14c-3.29,0-6.37-1.15-8.59-3.24-2.34-2.2-3.59-5.29-3.52-8.69.08-3.98,1.64-7.41,4.18-9.81-.31-.59-.5-1.26-.52-1.97-.05-1.57-.59-6.05-1.17-10.79-.51-4.23-1.09-9.03-1.55-13.56v-.03c-.44-4.62-1.11-10.87-1.75-16.92l-.27-2.59c-.26-2.42,1.46-4.6,3.87-4.93,2.86-.39,5.9-.57,9.12-.76,3.19-.19,6.49-.39,9.79-.81,1.35-.17,2.7.28,3.68,1.22.98.94,1.48,2.27,1.37,3.62-.36,4.27-.74,8.07-1.05,11.13-.21,2.11-.38,3.79-.47,4.87,0,.04,0,.07,0,.1-.22,2.26-.72,6.32-1.25,10.62-.83,6.81-1.97,16.13-1.97,18.1,0,.69-.16,1.35-.44,1.94,2.41,2.16,3.9,5.38,3.99,9.18,0,.04,0,.07,0,.11,0,6.81-5.38,12.59-12.24,13.16-.39.03-.79.05-1.17.05ZM308.96,57.75s-.07,0-.1,0c-4.06.06-4.56,3.26-4.59,4.64-.02.86.21,1.5.69,1.95.62.59,1.69.88,2.86.78,2.14-.18,3.96-2.07,3.99-4.15-.04-1.24-.47-3.23-2.84-3.23ZM305.16,25.17c.45,4.44,1.03,9.19,1.53,13.38.33,2.71.62,5.13.84,7.11.34-.02.67-.04,1.01-.06.34-3.45.96-8.58,1.76-15.09.52-4.21,1-8.2,1.22-10.37.09-1.14.26-2.87.48-5.04.17-1.66.36-3.54.55-5.59-1.65.12-3.26.22-4.85.32-1.41.08-2.78.17-4.09.26.58,5.45,1.15,10.9,1.55,15.09Z"/>
          </g>
          <g>
            <path class="cls-2" d="M127.84,34.28c-.1-3.31-1.01-4.99-4.06-4.74-.3-2.32-.2-7.5-.1-9.46,7.2-.69,42.4-3.42,45.74-3.6.3,5.83.3,19.5.2,21.27-2.74.42-8.52.8-10.04.83,0-4.88-1.83-9.61-6.49-9.42-1.62.13-4.87.21-6.49.34-.1,4.89.3,8.37.3,10.91,0,3.61,2.23,4.7,9.33,4.21.1,2.24.1,7.61,0,8.88-6.19.32-8.32,1.47-8.62,5.69-.2,4.21-.1,5.96-.1,8.79.1,2.73.2,4.18,5.07,3.97.2,2.33.41,8.07.41,9.63-4.26.55-26.67,2.21-29.62,2.46-.1-3.41-.1-7.02,0-9.18,3.96-.43,4.46-2.62,4.46-6.72.1-4.01.2-23.25,0-33.88Z"/>
            <path class="cls-2" d="M163.14,80.65c-.2-3.2-.3-7-.3-8.27,4.16-.64,5.48-2.6,6.59-6.99,1.12-4.39,8.82-32.36,9.64-35.07.71-2.7-.1-4.87-4.16-4.44-.1-2.24,0-6.15.1-9.58,5.88-.78,23.84-1.88,25.97-2.05,2.23,10.95,11.06,43.31,12.17,46.93,1.42,5.25,3.25,5.98,7,5.67.2,2.81.51,7.87.41,9.05l-27.79,2.3c-.1-3.02.2-6.56.2-7.73,6.19-.61,5.17-3.85,3.14-9.24l-12.07,1c-2.23,5.55-2.84,8.53,2.23,8.11.1,3.31.3,7.39.1,8.29-5.38.93-17.45,1.74-23.23,2.02ZM193.77,49.02c-.2-1.45-2.43-11.12-3.14-13.9-.81,1.63-3.14,11.49-3.85,14.57,1.93-.06,4.56-.28,7-.68Z"/>
            <path class="cls-2" d="M227.15,22.83c-.2-2.33-1.52-3.68-4.06-3.67,0-1.86-.2-5.25-.2-6.92,3.96-.52,23.84-1.88,25.76-2.04.1,2.14-.1,5.87-.1,6.75-2.74.52-4.46,2.23-4.46,4.86l.3,40.68c0,3.51,2.13,4.51,3.96,4.36,0,2.25.1,4.97.1,6.73-3.65.3-23.84,2.27-25.16,2.28,0-2.54-.1-5.46-.1-7.7,2.74-.42,4.56-2.33,4.46-5.54-.1-3.31.2-29.69-.51-39.79Z"/>
            <path class="cls-2" d="M254.94,19.25c-.1-2.82-1.22-3.51-3.65-3.21-.1-2.04-.2-4.86-.1-6.53,5.27-.34,23.03-1.52,25.76-1.75v6.74c-3.65.3-4.26,1.53-4.46,4.67-.1,3.04.1,37.68.2,40.11,13.9-1.15,14.61-2.38,14.5-13.21,2.23-.38,6.29-.62,7.2-.79.1,3.41.71,22.79.61,24.36-11.67.87-41.58,3.54-44.22,3.57-.1-4.29,0-6.83.1-8.21,4.26-.65,4.97-2.85,4.87-7.92-.2-5.06-.41-28.18-.81-37.81Z"/>
            <path class="cls-2" d="M300.69,25.62c-.51-5.33-1.32-12.88-2.03-19.55,5.48-.75,12.07-.71,18.86-1.56-.61,7.27-1.32,13.39-1.52,16.04-.61,6.1-3.25,25.65-3.25,29.17-2.84.43-6.49.54-9.33.58-.1-3.21-1.72-14.7-2.74-24.67ZM308.8,53.25c4.56-.08,7.4,3.29,7.51,7.68,0,4.39-3.55,8.3-8.12,8.68-4.56.38-8.52-2.42-8.42-7.31.1-4.89,3.35-8.97,9.03-9.05Z"/>
          </g>
        </g>
      </g>
    </g>
  </g>
</svg>