<svg xmlns="http://www.w3.org/2000/svg" viewBox="0 0 81 24" aria-hidden="true" class="LayoutPageSeparator_LayoutPageSeparator__nkg8z LayoutPageSeparator_isTripleOats__HmED2"><path d="M40.71 14.424c.014-.048.055-.055.09-.055.262-.034.497-.144.745-.22.173-.048.346-.11.511-.186.214-.103.442-.165.663-.241.166-.062.325-.138.483-.207.173-.083.352-.165.525-.248.325-.158.656-.31.98-.468.187-.09.36-.186.54-.283.172-.09.33-.2.496-.29.187-.102.366-.22.546-.33.241-.144.47-.303.697-.461.235-.159.47-.324.704-.482.242-.159.47-.345.705-.51.13-.097.241-.207.365-.31.166-.145.339-.283.505-.42.013-.014.027-.021.04-.035.132-.13.263-.268.401-.392.194-.18.352-.386.56-.558.055-.042.096-.104.145-.159a6.07 6.07 0 0 0 .428-.516c.055-.076.124-.138.18-.214.103-.138.206-.282.31-.427.103-.152.207-.31.31-.468.014-.021.028-.035.042-.056.104-.22.242-.42.332-.64.062-.138.13-.276.193-.42l.186-.476a6.39 6.39 0 0 0 .166-.482c.028-.09.041-.186.069-.269.09-.289.166-.578.242-.874.09-.331.124-.669.2-1 .02-.096.02-.199.027-.295.014-.124-.04-.214-.13-.29a1.407 1.407 0 0 0-.38-.234c-.194-.083-.38-.179-.573-.262-.152-.069-.304-.13-.456-.193a41.92 41.92 0 0 0-.525-.206c-.338-.131-.697-.214-1.05-.296-.048-.014-.096-.021-.144-.035-.36-.124-.74-.165-1.105-.275-.262-.076-.539-.104-.794-.207-.09-.034-.194-.041-.29-.062-.194-.048-.387-.076-.587-.11a47.91 47.91 0 0 0-.98-.138c-.173-.02-.339-.028-.511-.041l-.297-.021c-.422-.041-.85-.041-1.27-.048-.097 0-.201-.014-.298-.014-.297 0-.593.014-.89.007-.283-.007-.56.014-.836.027-.262.014-.524.035-.794.062-.29.035-.58.07-.87.118-.38.062-.76.137-1.139.213-.504.103-1.001.22-1.491.372-.256.083-.511.172-.767.262-.324.117-.656.227-.98.344-.235.083-.47.159-.697.241-.16.055-.318.124-.477.186-.18.076-.352.152-.532.228l-.676.31c-.339.158-.663.344-.995.523-.338.18-.676.365-1.007.565-.242.145-.477.303-.712.455-.262.172-.524.344-.787.523-.166.117-.324.248-.483.372a5.27 5.27 0 0 0-.297.234c-.193.159-.387.324-.58.49-.104.089-.22.165-.318.261-.172.165-.366.317-.531.49-.09.096-.2.185-.29.289-.145.165-.283.33-.428.502-.207.248-.415.503-.615.758-.124.165-.241.338-.359.51-.103.165-.22.33-.31.51-.049.103-.132.186-.187.289-.117.193-.228.386-.345.579-.07.11-.138.227-.2.337-.139.241-.277.49-.422.73-.151.255-.283.524-.435.779-.11.192-.2.392-.29.592a26.34 26.34 0 0 1-.297.64c-.02.042-.055.083-.075.125a2.424 2.424 0 0 0-.11.234c-.056.13-.063.282-.146.4a.1.1 0 0 0-.014.048c-.02.165-.103.303-.172.44-.125.262-.18.53-.138.82.013.083.027.165.09.227.02.021.027.049.04.07.077.22.215.413.353.592.166.22.338.44.545.627.132.117.242.255.366.378.16.166.311.345.484.497.29.268.573.544.87.799.172.144.345.289.524.427.152.124.297.248.456.358.221.151.421.337.656.468.145.145.338.227.504.345.235.158.483.31.732.447.276.145.545.31.815.469.317.179.635.358.966.503.449.2.884.42 1.326.627.104.048.214.096.318.137.428.166.856.324 1.29.462.36.11.712.234 1.064.351.31.103.614.2.932.276.242.055.476.13.718.179.373.082.753.158 1.132.234.353.069.705.13 1.057.172.172.02.345.062.525.083.193.027.393.048.587.076.227.027.462.048.69.069.497.04 1.001.089 1.498.123.415.035.822.063 1.236.097.097.007.2.007.297.007.428.027.856.034 1.291.034.366 0 .725.007 1.091-.02.456-.035.911-.062 1.367-.104.325-.027.642-.082.967-.103.386-.034.766-.096 1.146-.138.283-.034.566-.082.842-.151.138-.035.276-.062.421-.09.38-.069.76-.145 1.126-.255.145-.041.297-.076.449-.117a12.959 12.959 0 0 1 .745-.192c.138-.035.27-.09.408-.139.117-.04.227-.082.338-.124.048-.02.09-.055.145-.082.138-.062.283-.117.428-.18a2.05 2.05 0 0 0 .249-.123c.152-.076.303-.159.455-.235.028-.013.056-.027.09-.04.131-.056.263-.111.38-.2a.457.457 0 0 1 .131-.063.74.74 0 0 0 .27-.151c.09-.069.186-.117.276-.172a.995.995 0 0 0 .227-.186.274.274 0 0 0 .049-.297.871.871 0 0 0-.138-.261c-.104-.124-.194-.269-.29-.393-.256-.324-.539-.627-.815-.93-.131-.145-.29-.268-.428-.413-.104-.104-.2-.207-.297-.303-.145-.138-.29-.269-.435-.407-.138-.13-.27-.261-.407-.385a43.265 43.265 0 0 0-.622-.545c-.103-.09-.2-.186-.304-.275a31.038 31.038 0 0 0-1.25-.992 19.211 19.211 0 0 0-.759-.551 62.215 62.215 0 0 0-1.105-.751c-.283-.193-.566-.4-.863-.579-.207-.13-.414-.268-.642-.372-.124-.055-.235-.137-.352-.206-.069-.042-.138-.076-.2-.11-.076-.042-.159-.083-.235-.125a3.63 3.63 0 0 0-.704-.323c-.035-.014-.076-.02-.11-.028a.168.168 0 0 0-.166.055.4.4 0 0 1-.187.131c-.027.014-.055.035-.083.055-.18.131-.366.241-.58.31-.027.007-.048.028-.075.035a6.6 6.6 0 0 1-1.057.365c-.172.041-.338.09-.51.13-.201.049-.408.077-.608.139-.187.055-.38.075-.567.11-.145.027-.29.048-.441.069l-.242.04a.303.303 0 0 1-.083.015c-.173.02-.338.041-.51.062-.042.014-.125.014-.201.02-.062.021-.062.021-.159 0h.159zm-2.161-10.05c.014-.138.027-.269.048-.406 0-.014.007-.035.014-.042.062-.082.117-.172.186-.248.049-.055.097-.124.152-.144a.68.68 0 0 1 .352-.035c.173.035.421.18.553.303.014.014.027.035.041.049.041.062.09.124.131.192a.694.694 0 0 1 .083.159l.145.351a.942.942 0 0 1 .076.414 1.857 1.857 0 0 1-.145.55.576.576 0 0 1-.207.276c-.124.083-.249.145-.4.131a.843.843 0 0 1-.353-.13 1.362 1.362 0 0 1-.47-.559 2.317 2.317 0 0 1-.206-.86zm4.888-.592c.007-.09 0-.186.02-.283.028-.13.07-.255.201-.323a.305.305 0 0 0 .104-.083.2.2 0 0 1 .11-.062.848.848 0 0 1 .435.014c.186.062.338.179.476.317a.853.853 0 0 1 .215.365.801.801 0 0 0 .048.137c.076.18.076.359.069.551-.007.09-.048.166-.07.248a.517.517 0 0 1-.13.242c-.035.034-.063.075-.097.11a.598.598 0 0 1-.545.206.7.7 0 0 1-.532-.35 2.148 2.148 0 0 1-.304-1.09zM1.833 4h.09c.07.167.215.051.323.068.168.028.35.075.507.045.157-.031.28-.058.417.023.045.024.108.014.164.028.164.04.328.085.496.123.167.037.35.119.499.085.16-.038.294.03.365.078.25.164.529.256.812.317.287.065.507.229.764.331.126.051.238.198.357.195.19-.007.291.095.407.177.227.167.424.368.659.529.268.187.566.337.842.515.074.047.104.157.179.208.238.153.499.28.726.447.183.133.332.31.492.47.09.089.171.184.268.266.186.164.384.318.563.488.082.079.13.184.2.273.042.055.101.095.142.15.071.099.134.208.201.31.071.106.13.222.217.318.1.119.238.218.328.344.074.102.096.239.163.351.09.154.19.297.295.444.018.027.067.037.074.04.15.212.29.417.436.618.115.157.332.26.31.491-.012.12-.042.25-.008.355.097.28.223.553.339.829.037.088.074.177.112.262.052.13.137.253.152.386.038.348.034.696.127 1.04.03.113.03.218.149.283v.164c-.03.106-.037.222-.093.314a.436.436 0 0 1-.213.157c-.06.02-.141-.01-.23-.02-.038-.042-.079-.15-.15-.168-.38-.078-.767-.136-1.15-.201-.16-.027-.317-.048-.474-.085-.28-.062-.562-.123-.834-.205-.153-.044-.287-.167-.44-.194-.335-.058-.674-.09-.968-.27a4.8 4.8 0 0 0-.56-.303 2.023 2.023 0 0 1-.484-.287c-.238-.194-.54-.324-.804-.491-.391-.253-.824-.423-1.274-.6-.019.064-.045.105-.034.14.112.375.224.746.343 1.118.019.062.1.113.108.174.045.338.056.679.115 1.01.064.344.172.685.269 1.026.063.219.141.437.216.652.015.047.044.092.048.14.015.221.015.446.037.668.038.4.094.798.127 1.197.019.229-.019.464.015.69.037.224-.03.374-.231.487H7.16l-.141-.16c-.079-.065-.134-.133-.19-.198a.189.189 0 0 0-.067-.051c-.164-.072-.328-.147-.5-.205-.223-.078-.473-.106-.67-.218-.328-.181-.622-.41-.928-.621-.145-.099-.283-.208-.432-.3-.354-.222-.577-.573-.957-.764-.023-.01-.034-.041-.053-.065-.141-.177-.283-.358-.428-.535-.168-.202-.335-.406-.518-.597-.205-.212-.328-.471-.473-.713-.153-.26-.25-.55-.372-.826-.13-.293-.28-.58-.388-.88a33.983 33.983 0 0 1-.544-1.6 7.587 7.587 0 0 1-.19-.855c-.033-.188-.007-.386-.056-.57-.126-.491-.16-.99-.167-1.49 0-.069-.056-.137-.086-.205v-.041c.026-.092.07-.18.075-.273.003-.211.003-.416.175-.587.018-.02.01-.098-.008-.105-.138-.055-.1-.15-.067-.236.037-.099.123-.19.127-.29.015-.358-.045-.716.093-1.07.074-.195.074-.41.108-.618.007-.044-.019-.116.011-.15.16-.191.257-.389.16-.638-.03-.078-.063-.184-.033-.252.07-.164.141-.369.287-.457.245-.15.54-.287.827-.31.208-.014.037-.096.078-.12zm78.742 12.248-.066.049c-.15-.086-.188.078-.277.123-.139.07-.3.133-.396.24-.096.107-.17.194-.32.207-.046.007-.086.048-.135.068-.144.058-.29.114-.435.176-.145.063-.327.1-.416.206a.42.42 0 0 1-.313.139c-.28.013-.538.095-.782.202-.248.107-.506.104-.754.166-.123.03-.292-.017-.377.05-.135.107-.269.085-.402.087-.265-.002-.53-.044-.796-.036-.307.005-.614.055-.92.072-.084.005-.17-.06-.255-.058-.266.015-.531.062-.796.061-.213 0-.427-.051-.64-.083-.117-.018-.234-.044-.353-.053-.233-.02-.469-.028-.7-.058-.107-.014-.206-.066-.31-.093-.062-.018-.13-.017-.193-.035-.11-.035-.221-.082-.33-.121-.115-.04-.228-.094-.347-.118-.145-.035-.304-.034-.444-.079-.116-.035-.213-.124-.329-.171a5.876 5.876 0 0 0-.478-.17c-.03-.01-.072.009-.08.01-.234-.076-.459-.151-.684-.222-.178-.054-.397-.013-.518-.197-.063-.094-.118-.206-.205-.266-.237-.155-.492-.288-.74-.43-.08-.046-.16-.092-.238-.135-.115-.067-.25-.112-.34-.203-.234-.237-.439-.496-.711-.7-.089-.068-.152-.146-.277-.13l-.097-.12c-.042-.095-.105-.185-.119-.283a.375.375 0 0 1 .062-.23c.031-.048.11-.07.18-.11.052.01.147.07.21.044.323-.147.64-.312.96-.471.133-.066.26-.135.396-.192.24-.105.484-.212.731-.298.138-.049.309-.03.437-.092.28-.138.545-.298.867-.322.196-.016.397-.036.589-.077a1.94 1.94 0 0 1 .524-.049c.29.016.587-.05.88-.07.435-.024.853-.13 1.287-.242-.025-.057-.03-.102-.058-.121a56.679 56.679 0 0 0-.915-.643c-.05-.035-.14-.029-.183-.07-.233-.226-.444-.472-.684-.685-.25-.22-.532-.415-.806-.615-.176-.127-.363-.246-.545-.365-.039-.027-.087-.044-.118-.078-.143-.155-.277-.322-.425-.474-.264-.275-.542-.54-.803-.817-.15-.16-.262-.353-.42-.502-.162-.146-.202-.293-.122-.485l.131-.096.199.042c.095.006.177.027.256.044a.184.184 0 0 0 .08.002c.162-.035.326-.068.486-.117.21-.062.408-.177.62-.2.346-.042.697-.032 1.046-.04.165-.005.33.002.494-.01.39-.027.762.112 1.153.05.022-.005.049.011.077.019.208.055.42.112.63.165.243.059.487.12.734.163.275.046.519.172.769.273.265.109.508.271.762.41.27.146.549.278.806.442.456.286.905.582 1.348.89.229.16.44.347.647.53.136.122.235.282.38.392.384.295.704.645 1.008 1.012.04.05.122.07.184.105l.024.03c.036.083.056.172.108.242.123.159.244.31.22.528-.001.026.051.08.069.075.133-.034.162.057.189.138.031.093.023.207.08.282.201.273.457.506.567.842.062.184.19.343.288.515.021.037.083.076.081.117-.003.228.044.426.262.558.069.042.156.102.175.169.045.159.115.348.062.492-.09.244-.225.503-.42.675-.144.122.03.09.014.13z"></path></svg>