<svg width="1035" height="128" viewBox="0 0 1035 128" fill="none" xmlns="http://www.w3.org/2000/svg">
<path d="M61.421 16.9531H49.0291H37.1759H24.7839H12.392H0V29.3746V41.796V54.2174V66.0988V78.5202V90.9417V103.363H12.392H24.7839V90.9417V78.5202V66.0988H37.1759V78.5202H49.0291V90.9417V103.363H61.421H73.813V90.9417V78.5202H61.421V66.0988H49.0291V54.2174H37.1759H24.7839V41.796V29.3746H37.1759H49.0291V41.796V54.2174H61.421H73.813V41.796V29.3746H61.421V16.9531Z" fill="black"/>
<path d="M1015.06 47.7339C1008.06 46.6537 1003.75 43.4134 1004.29 40.7131C1004.29 37.4727 1005.91 35.3124 1009.14 35.3124C1013.45 35.3124 1015.06 40.7131 1015.06 44.4935C1016.68 44.4935 1029.07 44.4935 1033.38 45.0336C1033.38 42.8733 1033.92 21.8109 1033.92 14.7901C1030.69 14.7901 1020.99 14.25 1016.14 14.25C1016.14 16.4102 1016.14 19.1106 1016.14 21.2708C1014.53 19.6506 1011.29 15.3301 1001.06 15.8702C990.82 15.8702 976.273 22.891 976.273 39.6329C976.273 58.5351 982.738 62.8556 991.897 65.0159C999.979 66.6361 1002.67 71.4966 1002.67 73.6569C1002.67 75.8171 1002.13 79.5975 997.285 79.5975C992.436 79.5975 991.897 74.1969 991.897 71.4966C990.281 71.4966 977.889 71.4966 974.656 72.0367C974.656 75.2771 974.656 100.66 975.195 109.841C977.35 109.841 992.975 109.841 996.207 109.841C996.207 108.221 996.207 104.44 996.207 101.74C999.44 103.36 1003.75 104.98 1009.68 104.98C1025.3 103.9 1035 95.7994 1035 77.9774C1035 59.6152 1028 49.8941 1015.06 47.7339Z" fill="black"/>
<path d="M148.164 74.7479C146.548 66.647 140.621 42.8843 136.85 27.2224C133.078 11.5606 125.535 9.40039 116.915 9.40039C112.066 9.40039 108.294 9.40039 106.139 9.94045C99.6737 11.5606 98.5962 16.4212 103.445 20.7417C98.0574 20.7417 96.9798 30.4628 103.445 31.0029C100.213 41.8041 98.0574 61.7864 94.8247 73.1277C91.0532 84.4691 80.8164 82.3088 80.8164 93.6501C80.8164 103.371 88.8981 104.991 98.0574 99.5908C103.445 104.991 115.837 103.911 115.837 93.1101C115.837 82.8489 112.066 85.0091 113.682 80.1486C114.221 76.9082 116.915 75.8281 120.686 75.8281C125.535 75.8281 127.152 76.9082 128.229 80.1486C129.845 85.0091 121.225 83.929 121.225 93.6501C121.225 103.371 130.384 104.991 141.16 99.5908C149.78 105.531 161.095 104.451 161.095 93.1101C160.017 79.6085 150.858 87.7094 148.164 74.7479ZM119.07 58.006C116.376 58.006 114.76 54.2256 117.453 49.9051C118.531 47.7448 120.147 47.7448 121.225 49.9051C121.764 52.0653 122.841 58.006 119.07 58.006Z" fill="black"/>
<path d="M237.069 11.0155C233.297 9.93535 230.064 11.0155 228.448 13.7158C226.832 15.876 225.754 16.4161 223.06 16.4161C220.905 16.4161 218.211 16.9562 216.595 21.2767C214.979 25.5972 211.207 39.0987 210.668 40.7189C210.129 43.4192 209.052 43.4192 209.052 41.799C208.513 40.1788 206.897 34.7782 205.28 29.3776C203.664 23.4369 198.276 18.5763 191.811 19.1164C185.884 19.6565 178.341 22.3568 176.186 30.9978C173.492 40.1788 174.031 39.0987 171.337 56.3807C168.643 73.6627 165.949 90.9447 165.411 99.5857C164.872 108.227 168.643 112.007 173.492 112.547C179.958 113.087 183.729 109.307 185.884 106.607C188.578 102.286 192.889 86.0841 194.505 75.823C195.044 73.6627 195.582 74.2028 195.582 75.823C195.582 77.9832 198.815 93.1049 199.893 99.0456C201.509 104.986 205.819 108.227 209.052 108.227C212.823 108.227 217.672 107.147 219.828 102.826C224.677 93.1049 227.909 80.1435 231.681 61.7813C235.452 43.4192 240.301 24.517 240.84 20.1965C241.379 14.7959 240.84 12.0956 237.069 11.0155Z" fill="black"/>
<path d="M450.96 9.93564C446.111 9.93564 440.723 11.5558 436.952 14.2561C433.18 16.9565 429.947 22.3571 427.254 28.8378C425.637 31.5381 424.021 34.2384 422.404 37.4788C421.866 35.3186 420.788 32.6183 420.249 29.9179C417.017 17.4965 408.396 12.0959 405.163 10.4757C404.086 9.93564 399.237 7.77539 393.849 7.77539C389 7.77539 385.229 9.93564 381.996 12.636C378.224 16.4164 374.992 24.5173 373.914 27.7577C369.604 41.2593 371.22 73.1229 372.837 83.9242C372.837 85.0043 372.837 85.5444 373.375 86.6245C374.992 97.9658 376.608 110.387 386.845 112.547C388.461 112.547 389.539 113.088 391.155 113.088C396.543 113.088 401.392 110.387 404.086 106.607C407.319 102.286 410.013 96.3456 410.551 93.6453C410.551 93.1052 411.09 92.5652 411.09 92.0251C411.629 93.1052 412.168 93.6453 412.168 94.7254C414.862 100.666 418.633 101.746 421.327 101.746C424.56 101.746 427.792 100.126 429.947 96.8857C431.025 95.8056 433.18 92.0251 434.258 88.7847C434.796 94.1854 435.874 99.0459 436.413 101.746C438.029 108.767 443.956 114.168 449.882 114.168C452.037 114.168 454.193 113.628 455.809 112.007C460.119 108.767 462.813 103.366 465.507 94.7254C467.662 88.7847 469.278 79.6037 471.434 65.5621C474.127 44.4996 470.356 27.2176 466.046 18.5766C463.891 13.176 457.964 9.93564 450.96 9.93564Z" fill="black"/>
<path d="M353.436 60.1562C352.358 61.2364 348.048 65.0168 345.893 67.1771C345.893 69.3373 345.893 82.2988 345.893 88.2395C346.97 89.8597 359.362 101.201 362.056 103.901C362.056 100.121 362.595 77.9783 363.134 69.8774C362.595 68.7972 356.668 63.3966 353.436 60.1562Z" fill="black"/>
<path d="M333.508 89.8633C333.508 91.4835 333.508 102.285 334.047 107.145C336.202 107.145 356.137 107.145 362.063 106.605C357.753 103.365 349.132 94.1838 344.283 89.8633C342.667 89.8633 335.663 89.8633 333.508 89.8633Z" fill="black"/>
<path d="M322.193 89.8633C321.115 91.4835 309.801 103.905 306.568 107.145C308.185 107.145 326.503 106.605 331.352 106.605C331.352 101.745 330.813 94.7238 330.813 89.8633C329.197 89.8633 325.426 90.4033 322.193 89.8633Z" fill="black"/>
<path d="M320.04 67.1897C318.963 66.1096 314.652 62.8692 311.958 60.709C310.342 62.3292 306.571 67.1897 303.338 69.89C303.338 72.5904 303.338 100.674 303.338 107.154C304.954 105.534 316.269 93.1127 320.04 89.3323C320.04 82.3115 320.04 73.1304 320.04 67.1897Z" fill="black"/>
<path d="M363.139 67.1764C363.139 64.4761 363.139 55.2951 363.139 52.0547C362.6 52.5947 357.212 57.9954 355.596 59.6156C356.134 60.1556 361.522 65.5562 363.139 67.1764Z" fill="black"/>
<path d="M346.441 52.067C347.519 53.1472 351.29 56.9276 353.984 59.0878C355.062 57.4677 361.527 51.527 363.682 49.3667C363.682 47.2065 363.682 18.5832 363.144 14.8027C362.066 15.8829 348.597 29.9245 346.441 32.0847C346.441 32.6248 346.441 47.2065 346.441 52.067Z" fill="black"/>
<path d="M345.363 29.3748C347.518 26.1345 359.371 14.2531 362.604 11.0127C360.987 11.0127 336.742 10.4727 332.971 10.4727C332.971 12.0928 333.509 25.5944 333.509 29.9149C334.587 29.9149 343.208 29.9149 345.363 29.3748Z" fill="black"/>
<path d="M331.346 29.9149C331.346 26.6745 330.807 14.7932 330.268 10.4727C329.191 10.4727 308.717 10.4727 305.484 11.0127C306.562 12.6329 317.876 25.5944 321.648 29.9149C323.264 29.9149 328.652 29.9149 331.346 29.9149Z" fill="black"/>
<path d="M319.501 51.5349C319.501 49.3746 319.501 34.7929 319.501 30.4725C316.807 27.2321 305.493 14.8106 303.338 12.6504C303.338 14.2706 303.338 43.4339 303.338 50.4548C304.415 50.9948 308.726 55.8554 312.497 59.0958C313.575 58.0156 317.885 53.6951 319.501 51.5349Z" fill="black"/>
<path d="M310.877 59.637C308.722 57.4767 305.489 54.7764 303.873 53.1562C303.873 54.2364 303.873 63.4174 303.873 66.1177C304.951 65.0376 308.722 61.7972 310.877 59.637Z" fill="black"/>
<path d="M587.805 79.0732C587.805 77.9931 586.727 77.4531 586.727 76.3729C586.188 76.913 585.111 77.4531 584.572 77.9931C582.956 80.1534 581.339 82.3136 579.723 84.4739C579.723 83.9338 579.184 83.9338 579.184 83.3937C578.646 75.8329 577.568 68.272 577.029 60.7111C576.49 54.2304 575.952 48.2897 575.413 41.8089C575.413 40.7288 574.335 40.1888 574.335 39.1086C573.797 39.6487 573.258 40.1888 572.719 40.7288C571.103 42.8891 569.486 44.5093 567.87 46.6695C566.792 35.8683 565.715 26.1471 564.637 15.886C560.866 16.9661 557.094 18.0462 553.323 19.1263C554.4 16.426 554.939 13.7257 556.017 11.0254C554.4 11.0254 553.862 11.0254 552.784 11.5655C549.013 12.6456 544.702 13.7257 540.931 14.8058C539.853 15.3459 538.776 15.886 538.237 16.9661C536.082 21.2866 533.927 26.1471 532.31 30.4676C527.461 43.9692 521.535 57.4708 515.069 70.4323C510.759 79.6133 506.449 88.2543 502.139 97.4354C502.139 97.9754 502.139 98.5155 502.139 99.5956C502.677 99.0556 503.755 99.0556 504.294 98.5155C504.833 97.4354 505.371 96.3552 505.91 95.2751C508.604 90.4146 511.837 86.0941 515.069 81.2335C519.38 74.2127 524.229 66.6518 528.539 59.0909C529.616 57.4708 530.694 55.8506 531.772 54.2304C531.772 54.2304 532.31 54.2304 532.31 54.7704C530.694 58.0108 529.078 61.2512 528 64.4916C522.074 77.9931 515.608 91.4947 509.682 104.996C509.143 106.076 509.143 107.697 509.143 108.777C514.531 107.156 519.38 106.076 524.229 104.456C524.767 104.456 525.845 103.916 525.845 103.376C526.923 100.676 528 97.4354 529.078 94.195C530.694 90.4146 532.31 86.6341 537.698 87.1742H538.237C540.392 86.6341 543.086 86.6341 545.78 86.0941C544.702 88.2543 543.625 90.4146 542.547 92.5748C550.09 91.4947 557.094 90.4146 564.637 88.7944C564.637 94.195 564.637 98.5155 564.637 102.836C564.637 103.376 565.176 104.456 565.715 104.996C565.715 104.996 566.792 104.996 567.331 104.456C569.486 103.376 571.103 101.756 573.258 100.136C573.258 102.836 573.258 105.536 573.258 108.237C573.258 108.777 574.335 109.857 575.413 109.857C579.723 109.317 584.572 108.237 588.882 107.697C589.96 107.697 591.037 107.156 590.499 105.536C589.96 102.836 589.96 100.136 589.96 97.4354C588.882 92.0347 588.344 85.554 587.805 79.0732ZM552.245 56.9307C552.245 61.2512 552.245 65.0316 552.245 69.3521C547.935 70.4323 544.164 70.9723 539.853 72.0524C543.625 62.3313 547.935 53.6903 551.707 44.5093C552.245 44.5093 552.245 44.5093 552.784 44.5093C552.245 48.8298 552.245 52.6102 552.245 56.9307ZM554.4 76.3729C554.939 75.2928 554.939 75.2928 554.939 74.7528C557.094 71.5124 559.249 68.8121 561.943 65.0316C562.482 68.272 562.482 70.9723 563.021 73.6726C559.788 74.7527 557.094 75.8329 554.4 76.3729Z" fill="black"/>
<path d="M690.711 37.4862C694.482 36.406 702.025 37.4862 712.801 37.4862C723.576 37.4862 721.96 23.4445 721.421 18.0439C720.882 12.6433 718.188 5.08242 712.801 4.54236C707.413 4.0023 704.18 7.24267 700.409 19.6641C696.098 19.6641 688.017 19.6641 678.857 20.2042C670.237 20.2042 664.31 23.9846 663.233 32.6256C662.155 40.1865 662.155 41.8067 662.694 52.0679C662.694 62.329 674.008 66.6495 681.551 66.6495C689.094 66.6495 696.637 66.1095 697.176 73.6703C697.715 81.7713 688.017 80.6912 681.551 80.1511C675.086 79.611 668.621 78.5309 663.772 81.7713C658.923 85.0117 658.384 91.4924 657.845 103.914C656.767 116.335 664.31 125.516 673.47 124.976C682.629 124.436 690.172 120.116 691.249 104.454C697.176 103.374 706.874 102.294 714.417 92.5725C721.96 82.8514 722.499 64.4893 717.111 54.7682C711.723 44.507 698.792 46.1272 690.711 45.5871C682.09 45.047 686.939 38.5663 690.711 37.4862Z" fill="black"/>
<path d="M642.765 15.8778C642.765 15.8778 640.609 9.93707 629.834 12.6374C629.295 13.1774 631.45 23.4386 629.834 26.679C629.834 26.679 636.299 25.0588 636.299 34.7799C636.299 34.7799 636.838 62.8632 636.838 65.5635C636.838 65.5635 621.213 32.0796 620.136 28.2992C620.136 27.2191 616.903 14.2576 614.748 12.6374C614.748 12.6374 602.356 13.7175 598.046 12.6374C598.046 12.6374 597.507 24.5188 597.507 27.2191C597.507 27.2191 603.434 25.0588 603.434 37.4802C603.434 49.9017 603.434 72.5843 603.434 77.4449C603.434 82.3054 602.895 89.3262 602.895 91.4865C602.895 94.1868 602.356 98.5073 597.507 98.5073C597.507 98.5073 596.968 110.929 597.507 112.009C597.507 112.009 604.511 117.409 609.36 110.389C609.36 110.389 615.826 116.329 622.291 113.089C622.291 112.549 621.752 107.148 622.291 103.368C622.83 100.668 622.291 97.4272 622.291 96.8871C622.291 96.3471 616.364 99.5874 616.903 87.706C616.364 87.166 616.903 65.0234 616.903 63.4032C616.903 63.4032 634.683 104.448 636.838 113.089C636.838 113.089 648.152 113.629 650.846 113.089C650.846 113.089 650.846 62.8632 650.846 57.4626C650.846 57.4626 649.769 38.5604 649.769 35.32C649.769 32.0796 649.769 27.2191 655.695 26.679C655.695 26.679 656.773 14.2576 656.234 12.6374C655.157 12.6374 645.459 11.5573 642.765 15.8778Z" fill="black"/>
<path d="M895.457 98.5121C898.151 97.432 898.689 92.0313 895.457 89.8711C898.151 87.7108 894.379 82.3102 890.069 85.5506C890.069 81.7701 882.526 80.69 879.832 85.0105C878.754 82.3102 874.444 81.7701 866.901 85.5506C868.518 85.0105 872.289 81.2301 866.363 80.69C869.595 80.15 870.134 75.8295 866.363 75.2894C868.518 74.2093 869.056 72.5891 869.056 70.4288C870.134 72.049 873.367 74.2093 876.061 70.4288C878.216 73.6692 883.604 70.4288 881.448 66.1083C885.22 66.1083 885.22 60.1676 881.448 58.0074C885.22 55.3071 879.832 49.9065 876.061 53.1468C875.522 50.9866 872.289 50.4465 865.824 53.6869C868.518 52.0667 869.595 47.2061 865.824 46.6661C868.518 45.0459 867.979 41.8055 865.824 39.6453C867.979 40.7254 870.673 41.8055 872.289 39.1052C873.367 41.2655 877.138 41.8055 879.832 39.1052C881.987 42.3456 887.914 42.3456 890.069 38.5651C893.302 42.3456 897.612 38.5651 895.457 33.1645C898.689 33.1645 899.767 27.2238 895.995 24.5235C899.767 23.4434 898.689 16.4226 894.379 16.4226C895.995 13.7223 890.069 11.022 887.914 14.8024C887.914 12.1021 879.293 11.022 877.677 14.8024C876.599 12.1021 868.518 11.562 866.363 15.8825C865.824 13.7223 861.514 12.6421 859.897 16.4226C859.358 13.7223 852.354 11.562 848.583 15.3425C843.195 12.1021 839.962 19.663 841.579 22.3633C837.268 25.0636 838.885 33.7046 841.579 36.4049C838.885 36.945 838.885 43.9658 842.117 46.126C839.424 47.2061 838.885 54.227 841.04 57.4673C838.346 59.0875 839.423 67.1885 841.579 69.3487C839.423 70.4288 839.962 75.8295 841.579 79.0698C839.423 80.1499 840.501 85.5506 841.579 87.7108C838.885 90.4111 839.423 95.8118 841.579 99.0521C838.346 100.132 836.73 108.233 843.195 110.393C841.579 113.634 849.122 116.874 851.815 112.014C852.354 115.254 859.897 115.254 860.975 111.474C862.052 115.254 868.518 114.174 869.056 111.474C870.673 113.634 875.522 114.714 876.599 111.474C878.216 114.174 885.22 114.714 886.836 111.474C888.991 114.174 894.918 113.094 894.918 107.153C898.151 108.233 900.306 101.212 895.457 98.5121Z" fill="black"/>
<path d="M270.472 4C260.235 4 253.231 4 246.766 4C246.766 9.94069 247.843 47.205 247.843 58.0062C247.843 68.8075 247.843 93.6504 247.843 112.553C251.615 112.553 262.929 112.012 270.472 112.012C281.248 112.012 295.256 101.751 295.256 81.2289C295.256 68.8075 295.256 63.9469 295.256 41.2643C294.717 18.5817 288.791 4.54006 270.472 4ZM275.86 78.5286C275.321 85.0094 272.627 87.7097 266.701 87.7097C266.162 76.9084 266.701 31.0031 266.701 26.6826C272.627 26.6826 275.321 28.3028 275.321 39.1041C275.321 46.6649 276.937 63.9469 275.86 78.5286Z" fill="black"/>
<path d="M955.255 74.7554C964.953 70.9749 968.724 50.9926 963.336 31.5504C958.487 13.7283 935.859 13.7283 914.307 14.8084C910.536 14.8084 907.842 16.9687 907.842 22.9094C907.842 34.2507 907.842 49.9125 907.303 60.1737C907.303 70.9749 906.226 92.0374 907.303 107.699C907.842 113.1 909.997 114.72 912.152 115.26C915.924 115.26 920.773 115.8 925.083 115.8C929.932 115.26 931.009 112.02 931.548 108.239C931.548 102.299 931.548 94.1976 932.087 84.4765C934.242 87.7169 938.014 97.978 942.324 108.779C943.401 112.02 947.173 113.64 948.789 113.64C953.1 113.64 959.026 114.18 963.875 114.18C968.185 114.18 969.802 109.859 968.724 106.619C964.414 96.8979 958.487 83.9364 955.255 74.7554ZM932.087 56.3932C932.087 49.9125 932.087 45.0519 932.087 41.8116C939.63 41.2715 941.246 46.6721 941.246 49.9125C941.246 53.1529 936.397 57.4734 932.087 56.3932Z" fill="black"/>
<path d="M791.472 17.5096C789.856 21.8301 786.084 38.0319 784.468 44.5127C783.929 42.8925 781.774 40.1922 780.158 38.0319C778.541 38.0319 771.537 37.4919 767.766 38.0319C767.227 39.1121 766.149 40.7322 765.072 43.4326C764.533 41.8124 759.684 27.7707 758.068 22.9102C753.757 22.9102 732.206 22.9102 726.818 22.9102C727.896 27.7707 736.516 79.0767 740.288 93.1183C743.521 96.8987 750.525 109.86 754.835 114.721C758.606 114.721 773.692 114.721 777.464 114.721C778.003 113.101 780.158 107.16 781.235 104.46C782.313 106.08 785.007 111.48 786.623 113.641C789.317 113.641 811.407 113.101 814.101 112.561C814.64 109.86 817.872 93.6584 821.644 78.5366C824.876 63.4149 826.493 54.2338 830.264 38.0319C828.109 34.2515 821.105 22.3701 817.872 17.5096C814.64 17.5096 795.782 16.9695 791.472 17.5096Z" fill="black"/>
<path d="M768.302 101.215C762.914 101.215 755.371 101.755 751.6 102.295C752.138 103.375 752.677 103.915 753.216 104.995C756.987 104.995 765.069 104.455 769.379 104.455C768.841 102.835 768.841 102.295 768.302 101.215Z" fill="#98C5D3"/>
<path d="M755.367 107.687C756.445 108.767 756.984 109.847 757.522 110.927C761.294 110.927 769.914 110.927 772.608 110.387C772.608 109.847 771.531 108.767 770.992 107.146C767.22 107.687 760.216 107.687 755.367 107.687Z" fill="#98C5D3"/>
<path d="M765.061 94.7188C762.906 94.7188 753.747 95.2588 747.82 95.7989C747.82 96.3389 748.898 97.4191 749.975 99.0393C753.208 98.4992 762.367 97.9591 767.216 97.9591C766.139 96.879 765.6 95.7989 765.061 94.7188Z" fill="#98C5D3"/>
<path d="M801.162 93.1133C798.468 93.1133 789.309 93.1133 782.305 93.6533C782.843 94.1934 782.843 95.2735 783.921 96.3537C788.231 96.3537 797.929 95.8136 803.317 95.8136C801.701 94.7335 801.162 93.6533 801.162 93.1133Z" fill="#98C5D3"/>
<path d="M806.012 102.281C805.474 101.201 804.935 100.121 804.396 99.041C800.086 99.041 790.388 99.5811 785 99.5811C785.539 100.661 786.078 101.741 786.616 102.821C788.771 102.821 791.465 102.821 794.698 102.281C799.008 102.281 803.319 102.281 806.012 102.281Z" fill="#98C5D3"/>
<path d="M808.173 105.521C805.48 105.521 800.092 106.062 795.243 106.062C792.549 106.062 790.394 106.062 788.777 106.062C789.316 107.682 790.394 108.762 790.933 109.302C796.32 109.842 807.635 108.762 810.329 108.762C809.79 108.222 808.712 107.142 808.173 105.521Z" fill="#98C5D3"/>
<path d="M188.033 23.9805C184.261 25.0606 181.567 29.9212 180.49 32.6215C179.412 35.3218 179.951 36.942 181.028 36.942C182.106 36.942 182.645 36.4019 183.184 35.3218C184.261 32.0814 186.416 28.301 189.649 26.6808C191.265 26.1407 191.265 25.0606 191.265 24.5205C190.727 24.5205 189.11 23.9805 188.033 23.9805Z" fill="#98C5D3"/>
<path d="M230.599 15.8828C230.061 15.8828 228.983 16.4229 228.444 17.503C227.906 18.5831 226.289 19.6632 224.134 20.2033C221.979 20.2033 219.285 22.3636 218.208 25.0639C217.669 26.6841 218.208 27.7642 218.746 28.3042C219.824 28.3042 220.901 27.7642 221.44 27.2241C222.518 24.5238 224.134 23.9837 226.289 23.9837C229.522 23.4437 230.6 21.8235 231.677 19.6632C231.677 17.503 231.677 15.8828 230.599 15.8828Z" fill="#98C5D3"/>
<path d="M439.641 17.4973C433.175 22.3579 426.71 40.1799 422.4 51.5212C421.322 47.7408 419.167 40.1799 416.473 30.9989C413.779 22.3579 408.392 16.4172 403.543 13.7169C398.694 11.5566 386.302 8.31626 382.53 20.7377C378.759 33.1591 380.375 64.4827 381.991 75.284C383.608 86.0852 384.685 99.0467 392.767 100.667C400.849 102.287 406.236 97.9666 407.853 92.566C409.469 86.6253 410.547 66.643 408.93 54.7616C412.163 64.4827 417.551 78.5244 420.784 85.0051C424.016 91.4859 428.865 90.4057 432.098 86.0852C435.331 81.7647 439.641 63.4026 441.257 54.7616C441.257 65.5629 443.951 86.0852 445.029 92.566C446.106 99.0467 453.649 104.447 457.959 100.667C462.808 96.8865 465.502 83.925 467.657 65.0228C470.351 46.1206 467.119 29.3787 462.27 20.7377C459.037 11.5566 446.106 12.6368 439.641 17.4973Z" fill="#98C5D3"/>
<path d="M795.244 22.365C794.167 25.6054 787.701 49.9082 785.546 56.929C784.469 54.7688 781.236 47.748 779.62 44.5076C778.003 44.5076 772.077 43.9675 769.383 44.5076C768.305 46.6678 766.689 52.0685 765.073 56.389C764.534 54.2287 756.991 32.6262 755.375 27.7657C752.142 27.7657 736.517 27.7657 732.207 27.7657C733.285 33.1663 742.983 81.7719 745.138 90.9529C750.526 90.9529 761.84 90.4129 765.073 90.4129C766.15 87.7126 771.538 72.5908 773.154 69.3505C774.232 72.0508 778.542 84.4722 781.236 89.8728C785.546 89.8728 796.322 89.3328 800.632 89.3328C802.787 81.7719 813.563 31.006 814.641 22.365C812.485 22.365 800.093 21.825 795.244 22.365Z" fill="white"/>
<path d="M919.167 95.2832C915.935 95.2832 914.857 96.9034 914.318 100.684C914.318 103.924 916.474 106.084 919.167 105.544C922.4 105.544 924.016 104.464 924.016 100.144C924.016 96.3633 921.861 95.2832 919.167 95.2832Z" fill="white"/>
<path d="M915.928 79.0798C913.234 80.7 912.695 83.9404 914.312 85.5606C915.928 88.2609 918.083 88.8009 921.316 86.6407C924.548 84.4804 924.548 81.7801 922.932 79.6199C921.316 76.9196 919.161 76.9196 915.928 79.0798Z" fill="white"/>
<path d="M949.872 81.2269C948.255 78.5265 946.1 78.5265 942.867 80.1467C940.173 81.7669 939.635 85.0073 941.251 86.6275C942.867 89.3278 945.022 89.8678 948.255 87.7076C951.488 86.0874 950.949 83.3871 949.872 81.2269Z" fill="white"/>
<path d="M915.394 61.2571C912.7 63.4173 913.239 65.5776 915.394 68.2779C917.011 70.4381 920.782 70.9782 922.398 69.358C924.554 67.1978 925.092 65.5776 922.937 62.3372C920.243 59.0968 917.549 59.6369 915.394 61.2571Z" fill="white"/>
<path d="M956.873 98.5202C954.179 95.2798 952.024 96.3599 949.869 97.9801C947.175 100.14 947.714 102.301 949.869 105.001C951.485 107.161 955.257 107.701 956.873 106.081C959.028 103.381 959.567 101.761 956.873 98.5202Z" fill="white"/>
<path d="M940.717 31.5566C942.872 29.3963 943.411 27.7762 941.256 24.5358C938.562 21.2954 936.407 22.3755 934.252 23.9957C931.558 26.156 932.097 28.3162 934.252 31.0165C935.868 32.6367 939.101 32.6367 940.717 31.5566Z" fill="white"/>
<path d="M955.262 58.5625C957.417 56.4022 957.956 54.242 955.801 51.5416C953.107 48.3013 950.952 49.3814 948.797 51.0016C946.103 53.1618 946.641 55.3221 948.797 58.0224C950.413 60.1826 953.646 60.1826 955.262 58.5625Z" fill="white"/>
<path d="M919.703 42.3394C915.931 41.7993 914.315 44.4997 914.315 46.6599C913.776 49.9003 915.931 51.5205 919.164 51.5205C922.397 52.0605 924.552 49.3602 924.552 47.2C924.552 44.4997 923.474 42.3394 919.703 42.3394Z" fill="white"/>
<path d="M952.029 42.3554C955.262 42.8955 957.417 40.1952 957.417 38.0349C957.417 34.7946 956.339 33.1744 952.568 32.6343C948.797 32.0943 947.18 34.7946 947.18 36.9548C946.641 40.7353 948.796 41.8154 952.029 42.3554Z" fill="white"/>
<path d="M919.167 32.0893C922.4 32.0893 924.016 31.0092 924.016 26.6887C924.016 22.9082 921.861 21.8281 919.167 21.8281C915.935 21.8281 914.857 23.4483 914.318 27.2287C914.318 29.9291 917.012 32.0893 919.167 32.0893Z" fill="white"/>
<path d="M943.411 67.7395C943.411 63.959 941.256 62.8789 938.562 62.8789C935.329 62.8789 934.252 64.4991 933.713 68.2795C933.713 71.5199 935.868 73.6802 938.562 73.1401C941.795 72.6 943.411 71.5199 943.411 67.7395Z" fill="white"/>
</svg>
