<svg width="980" height="304" viewBox="0 0 980 304" fill="none" xmlns="http://www.w3.org/2000/svg">
<g clip-path="url(#clip0_1074_10830)">
<path d="M240.046 35.5211C240.046 35.5211 237.622 17.8353 241.75 11.6448C241.75 11.6448 256.076 7.16868 253.513 35.9468C241.992 32.748 240.04 35.5211 240.04 35.5211M18.5234 255.58C26.6593 255.459 144.172 255.31 146.141 255.137C148.421 266.465 159.631 277.903 177.371 285.129C195.111 292.355 217.527 292.982 247.577 291.464C277.622 289.945 296.035 276.327 282.994 251.547C289.863 249.959 305.006 241.973 306.307 232.124C307.614 222.274 306.601 214.196 289.465 205.026C299.542 207.033 312.013 194.859 312.912 186.776C313.804 178.693 309.854 169.194 295.914 161.858C308.075 161.876 326.074 147.366 324.272 130.065C322.804 115.941 312.842 106.252 294.843 104.423C290.796 104.009 251.659 104.941 246.8 105.361C273.764 87.4103 282.049 57.6196 282.401 36.6142C282.752 15.6088 267.626 1.66275 252.16 0.138117C236.695 -1.38651 230.931 9.67138 230.482 19.5498C230.033 29.4225 238.514 63.7814 182.565 77.739C166.984 81.6225 144.77 99.0263 144.886 114.796C143.625 114.79 26.475 114.854 18.5234 114.957V255.58Z" fill="black"/>
<path d="M96.7261 169.585V170.391L96.5304 171.116L96.3404 171.42L96.0352 171.61L95.8797 171.915L95.6494 172.071H95.3039L95.6494 171.955L95.8797 171.725H95.4997L95.1945 171.61L94.9239 171.42L94.6936 171.15L94.0775 170.77L93.7378 170.086L93.2426 168.555L92.9375 167.83L92.5574 167.186L92.2868 166.916L92.3674 166.496L92.2868 166.15L92.0968 165.845L91.832 165.656L91.4865 165.541L91.8665 165.276V164.89L91.711 164.511L91.5556 163.751L91.8262 163.372L91.521 163.067L91.4059 162.687L91.521 161.576L91.4865 161.272L91.2562 161.082L90.8013 160.967L90.4558 161.312L90.1507 161.467H89.8455L89.1949 161.197L88.5097 161.007L88.1239 161.087L87.7439 161.352L87.3638 161.237L87.0184 161.318L86.0626 161.772L85.7171 161.738L85.3716 161.473L85.0262 161.548L84.7555 161.738L84.7901 162.117L84.9801 162.463L85.0607 162.767L84.8304 163.113L85.1356 164.867L85.1701 165.552L85.0952 166.311L84.9801 166.697L85.0952 167.497L85.1298 168.302L85.0204 170.667L84.6346 170.972L84.5598 170.862L84.2892 171.127L84.5195 171.852L84.3295 172.197L83.9494 172.232L83.5637 172.082L83.2585 171.812L83.1433 171.432L82.3372 170.747L81.9918 170.097V169.752L82.1818 169.407L82.1069 169.102V167.997L81.9918 167.652L81.8018 167.347L82.1069 166.317L82.1415 165.558L82.0666 164.798L81.9111 163.993L82.2163 163.383L82.5618 161.927L82.176 161.697L82.2912 160.972L82.176 158.792L82.3315 158.067L82.4869 157.722L82.0321 155.927L81.9918 155.202L82.1069 154.437H82.1818L82.2969 153.556L82.2624 152.797L82.1472 152.417L81.9169 152.072L81.8824 151.652L81.9918 151.347L82.1818 151.077L82.4121 150.887L82.6021 150.622L82.6769 150.317L82.5675 149.857L82.8727 149.627L83.1779 149.471L85.3601 149.167L85.7401 149.011L87.9166 149.471H88.7227L89.4482 149.282L89.7937 149.092L90.5998 149.356L92.5459 149.546L92.9259 149.661L93.306 149.851L93.686 149.817L94.0315 150.007L94.3021 150.277L94.5324 150.622L95.1024 151.267V151.687L95.2176 151.991L95.4882 152.222L95.8337 152.296L96.0985 152.676L96.254 153.021L96.2885 153.407L96.2137 154.132L95.9431 155.236L95.9776 155.921L96.1331 156.301L96.1734 156.721L96.0179 158.895L95.6321 158.97L95.327 159.126L94.2963 160.236L93.7263 160.656L93.4211 160.771L93.686 161.151L93.4211 161.266L93.2311 161.53L93.3405 161.876L93.8357 162.221L93.8702 162.566L94.256 162.756L94.4863 163.026L94.6015 163.331L94.7109 164.442L94.826 164.787L94.7915 165.207L95.1715 166.697L95.0909 167.151L95.3961 167.307L95.6667 167.151L96.0122 167.382L96.1676 167.687V168.072L96.087 168.452V168.797L96.2425 169.062L96.6628 169.217L96.7031 169.597L96.7261 169.585ZM93.8184 155.081L93.6284 152.716L93.4384 152.296L93.1332 152.032L92.8281 151.876L90.9568 151.606L90.6516 151.416L90.4213 151.687L90.0758 151.796L88.9703 151.606H88.6651L88.4003 151.986L88.0951 152.101L87.7496 152.026L87.099 151.721L86.7535 151.641L86.3735 151.681L86.028 151.986L85.648 152.066L85.3025 151.986L84.9974 152.181V152.527L85.1874 152.831L84.8822 153.177L84.8016 153.556L84.9571 154.701L84.8822 155.081L84.577 155.426L84.8477 156.076L84.9225 156.801V158.251L85.0377 158.637L85.458 158.521L85.838 158.556L87.3696 158.936L87.7496 158.901L88.0951 158.711L88.4406 158.941L88.8206 159.022L90.2773 158.677L90.6573 158.711L91.0374 158.901L91.2274 158.406L91.498 158.297L91.8032 158.332L92.5287 158.596L92.8741 158.521V158.142L92.9547 157.756L93.3002 157.112L93.8357 156.652V155.087L93.8184 155.081Z" fill="white"/>
<path d="M117.961 160.88L117.846 161.226L117.581 163.095L117.391 163.78L117.005 164.35L116.7 164.58L116.355 164.735L115.935 164.844L115.629 164.614L115.244 164.459H114.789L114.518 165.028L114.484 164.683L114.213 164.304L113.833 164.493L113.263 164.954L112.843 165.109L111.006 164.459L109.474 164.269L109.094 164.304L108.939 164.683L108.559 164.724L108.179 164.643L107.833 164.338L107.528 164.183L106.117 164.263L105.697 164.108L105.311 164.724L105.081 165.483L105.006 166.242L105.081 166.967L104.851 167.163L105.196 167.733L105.461 167.997H106.192L106.302 168.417L107.217 169.257L107.563 169.102H107.983L108.824 169.257L109.169 169.217L109.434 169.027L109.549 168.573L109.895 168.383L110.085 168.112L110.845 167.997L110.655 168.417V168.872L110.96 169.062L111.305 169.177H112.791L113.176 169.332L113.522 169.177L113.787 168.872L114.207 168.762L114.668 168.112L115.013 167.428L115.048 167.048L114.892 166.628L115.238 166.553L115.353 166.248L115.543 166.018L115.923 166.053L116.268 165.822L116.648 165.707H117.034L117.414 165.788L117.679 166.093L117.794 166.478L117.679 167.238L117.489 167.922L117.109 168.647L116.919 169.867L116.574 170.022L116.004 170.442L115.198 171.282L114.662 171.702L114.357 171.812L114.011 171.846L113.631 171.771L113.211 171.582L112.445 171.697H110.96L110.309 171.961L109.889 172.042L109.584 171.927L108.967 171.466L108.587 171.392L105.801 171.771L105.611 171.426L105.305 171.311L104.925 171.277L104.045 170.592L103.59 170.022L103.244 169.372L102.974 168.647L102.784 167.922L102.438 165.287L102.668 164.942L102.824 164.562V164.102L102.478 163.912L102.444 163.642L102.519 163.337L102.484 162.992L102.139 162.687L102.484 162.382L102.674 162.037L102.755 160.892L102.91 160.472L102.64 160.167L102.484 159.827V158.757L102.329 158.412L102.484 158.032L102.714 157.877L103.02 157.802L103.25 157.612L103.405 157.192L103.711 157.003L103.901 156.203L104.056 155.858L104.361 155.587L104.666 155.397L105.392 155.208L106.497 155.133L107.148 154.862L107.568 155.133L107.914 155.167L108.259 155.087L108.944 154.822L109.29 154.857L109.67 155.127L110.321 154.667L110.286 154.742L110.666 154.937L111.392 155.046L112.463 154.891L113.113 154.931L113.459 155.041L113.764 155.271L114.144 155.236L114.869 155.271L115.174 155.386L115.48 155.576L115.975 156.071L116.28 156.795L116.51 157.066L116.815 157.296L117.501 157.641L117.921 159.091L118.03 159.822L118.071 160.547L117.956 160.852L117.961 160.88ZM105.697 158.401V158.78L106.192 159.431L106.227 159.011L106.382 158.631L105.697 158.401ZM114.294 159.356L113.798 158.706L113.453 158.631L112.992 158.861L112.647 158.631L112.457 158.286L112.192 158.015L111.887 158.245L111.697 158.055L111.466 158.401L111.426 158.78L111.622 159.546L111.317 159.58L110.971 159.695L110.591 159.73L110.286 159.615L110.516 159.54L110.361 159.195L110.015 159.039L109.785 158.849L109.86 158.389L109.555 158.424L109.664 159.039L109.319 159.074L108.898 159.229L108.518 159.154L108.173 158.924L108.092 158.504L108.133 158.199L107.747 158.389L107.062 158.849H106.641L106.451 159.344L107.407 159.914L107.373 160.293L106.952 160.178L107.217 160.483L107.298 160.863V161.669L107.373 162.048L107.753 161.939L108.138 161.669L108.518 161.824L108.939 161.899L109.284 162.089L109.474 162.434L110.159 161.939L110.275 161.553L110.845 161.939L111.225 161.824L111.38 161.594L111.415 161.249L111.305 160.903L111.651 160.788H111.996L112.376 160.713L112.641 160.558L112.837 160.173L113.067 160.403L113.182 160.748L113.562 160.938L114.132 161.473L114.478 160.748L114.553 160.403L114.322 160.098L114.512 159.868L114.593 159.597L114.288 159.333L114.294 159.356ZM109.215 161.076L108.91 161.266L108.53 161.3V160.88L108.415 160.46L108.605 160.115L108.91 160.23L109.29 160.115L109.405 160.42L109.175 160.725L109.48 160.915V161.105L109.215 161.07V161.076ZM113.378 161.496L112.992 161.415L112.572 161.571L112.416 161.306L112.186 161.116L111.881 160.961L111.691 161.341L111.881 161.686L112.152 161.801H112.532L113.257 161.686L113.562 161.761L113.372 161.496H113.378ZM112.192 163.406L112.267 163.861L112.457 163.216L112.192 163.406Z" fill="white"/>
<path d="M138.856 166.875L138.782 167.255L138.592 167.56L138.131 168.095L137.595 168.59L137.1 169.159L136.945 169.464L136.835 169.844L136.53 170.109L136.185 170.298L134.849 170.793L134.204 171.213L133.859 171.323H133.513L133.168 171.248L132.822 171.058L132.137 170.788L131.792 170.753L131.486 170.834L131.141 171.064L130.836 170.949L130.456 170.983L129.696 171.288L129.316 171.369L128.93 171.254L128.584 170.874L127.899 170.983L127.174 170.834L125.072 169.913L124.652 169.303L124.381 168.578L123.736 167.243L123.161 166.708L123.126 166.248L123.241 165.903L123.696 165.293L124.312 164.758L124.617 164.643H125.262L125.533 164.298L125.723 163.953L126.183 163.987L126.293 164.332V165.552L126.448 165.937L126.753 166.277L127.099 166.473L127.669 166.507L127.974 166.697L127.018 166.812L127.323 166.962L127.554 167.382L127.899 167.537L128.17 167.802L128.36 168.106L128.59 168.337L128.895 168.377L129.275 168.147L129.655 167.652L130.387 168.037H130.842L131.187 167.807L131.607 167.733L132.442 167.842L132.788 167.997L133.173 167.922L133.859 167.577V167.387L134.694 167.197L134.999 167.042L135.269 166.812L135.5 166.507L135.69 166.087L135.534 165.742L135.805 165.017L135.69 164.597L134.809 163.832L134.504 163.642L134.158 163.533L133.813 163.567L133.392 163.452L133.012 163.492L131.555 163.872H131.175L130.795 163.791L130.375 163.561L130.07 163.751H129.765L129.46 163.636L129.114 163.406L128.694 163.441L128.389 163.745L128.124 163.935H127.853L127.548 163.78L126.592 163.021L126.247 162.865H125.867L125.596 162.595L125.216 161.985L125.101 161.64L124.721 160.99L124.491 160.759L124.185 160.604L124.111 160.259L123.84 159.574L123.765 159.195L123.731 158.51L123.88 158.205L124.185 157.94L124.22 157.635L123.875 157.066L124.105 156.721L124.41 156.531L124.945 156.036L125.861 154.816L126.396 154.322L126.742 154.132L127.122 154.017L127.583 153.982L128.003 153.792L128.423 153.717L129.834 154.097L130.179 154.057L130.6 153.907L131.745 153.827H133.231L134.302 154.017L135.027 154.206L135.713 154.477L135.828 154.132L136.588 154.857L137.048 155.472L137.394 156.157L137.584 156.916V157.296L137.889 157.411L138.154 157.676L138.309 158.055V158.475L138.154 158.855L137.924 159.16L136.928 159.73L136.663 159.96L136.473 160.265L136.432 160.725L136.012 160.955L135.442 160.495L135.062 160.386L135.557 159.966L135.672 159.62L135.327 159.546L135.517 159.2V158.821L135.327 157.676L135.062 157.446L134.757 157.48L134.106 157.29L133.456 156.911L133.035 156.985L132.005 157.405L131.625 157.371L131.204 157.175L130.865 157.215L130.369 157.75L130.444 158.096L130.139 157.981L129.569 157.446L129.304 157.256L128.999 157.221L128.694 157.486L128.314 157.52L127.968 157.635H127.663L127.318 157.371L126.972 157.676L126.863 158.021L126.823 158.401L126.938 158.746L127.168 159.091L127.133 159.396L126.869 159.966L126.943 160.236L127.404 160.426L127.439 160.155L128.124 159.816H128.504L128.694 160.155L128.464 160.351L128.348 160.995L128.694 161.11L130.145 160.69L130.49 160.765L130.836 160.995L131.907 160.921L132.713 161.571L133.283 161.11L133.208 160.995L133.513 160.806H133.933L134.239 160.616L134.544 160.961L134.849 161.191L136.185 161.686L136.72 162.146L137.1 162.376L137.67 162.871L138.166 163.406L138.511 163.636L138.701 164.022L138.782 164.401V165.621L138.891 166.421L138.856 166.841V166.875ZM131.826 166.191L132.172 166.3L131.901 166.53L131.711 166.795L131.481 166.95L131.21 166.72L131.25 166.415L131.515 166.26L131.82 166.185L131.826 166.191ZM131.861 159.816L132.241 159.661V159.856L131.861 159.816ZM134.308 158.332L134.233 158.711H133.772L133.853 158.176L134.388 157.986L134.308 158.332Z" fill="white"/>
<path d="M159.671 167.911L159.406 168.216L159.326 168.521L159.516 168.866V168.981H159.136L158.871 168.676H158.6L158.831 168.946L158.911 169.292L158.831 169.637L158.41 170.362H158.03L157.685 170.437L155.848 171.162L155.468 171.196L155.163 171.121L154.817 170.931L154.092 171.311L153.746 171.392L153.136 171.196L153.055 171.501L152.791 171.236L152.411 171.081L152.025 171L151.265 170.966L150.614 170.701L150.424 170.356L150.079 170.431L149.969 170.126L149.509 169.631L148.892 169.171L148.628 168.866L148.438 168.561L148.322 168.181V167.761L148.132 166.996L148.017 166.271L147.983 165.512L148.017 165.051L148.322 164.862L148.248 164.482L148.017 164.137L147.868 163.791V163.446L148.132 163.101L148.322 162.721L148.438 161.916L148.357 161.536L148.012 160.852L148.397 160.742L148.127 160.472L148.242 159.712L148.012 159.367L148.282 159.022V158.677L148.207 158.257V157.877L148.397 157.497L147.326 157.192L146.981 156.928L146.601 157.083L146.255 157.158L145.53 157.043L144.499 156.548L144.534 156.168L144.269 155.443L144.234 155.098L144.309 154.753L144.689 154.488L144.73 154.103L144.96 153.913L145.38 153.763H145.801L146.181 153.838L146.866 154.068L147.551 154.103L147.931 153.913L148.202 153.608L148.311 153.188V152.768L148.202 151.963L147.781 151.733L147.706 151.387L147.862 150.582V149.322L148.012 148.977L147.367 148.712L147.442 148.327L147.672 148.022L148.668 147.406L148.973 147.101L149.393 146.911L149.773 146.877L150.159 147.032L150.505 147.262L151.34 148.027V149.172L151.19 149.937L150.96 150.662L150.994 151.008L150.96 151.353L150.654 152.457V152.803L150.764 153.148L151.034 153.453L150.764 153.717L151.144 153.798L151.91 153.763L152.255 153.913L152.52 154.299L152.9 154.068L153.286 153.913H154.771L155.151 153.838L155.572 153.648L155.992 153.683L157.063 154.103L157.443 154.143L157.829 154.028L158.249 154.218L158.479 154.488L158.56 154.793L158.404 155.938V156.358L158.214 156.663L157.944 156.778L156.758 156.588L156.337 156.623L155.957 156.853L155.767 157.043L155.957 157.233L155.727 157.578L155.382 157.693L155.491 157.348L155.336 156.968L155.03 156.663L154.645 156.548L154.339 156.853L154.034 156.968H153.689L152.963 156.738L152.313 156.623L152.007 156.738L151.777 157.003L151.587 157.497L151.817 157.843L151.472 158.032H151.167L151.052 158.717L151.127 160.201V161.766L151.017 162.532L150.787 162.606L151.173 163.331L151.437 163.981L151.472 164.327L151.397 164.706L151.167 165.126L151.622 165.431L151.512 165.736L151.547 166.081L151.737 166.427L152.693 167.686L152.998 167.577L153.153 167.842L153.499 167.876L153.804 167.497L154.184 167.387H155.025L155.289 167.272L155.405 166.927L155.825 166.432L156.13 166.317L156.435 166.547L156.781 166.467L157.126 165.857L157.431 165.627L157.397 165.241L157.702 164.896L157.892 164.516L158.238 164.442L158.923 164.551L159.303 164.476L159.723 165.046L160.068 165.661V166.007L159.953 166.352L160.143 166.657V167.002L159.953 167.686L159.648 167.917L159.671 167.911Z" fill="white"/>
<path d="M180.947 165.656L180.716 165.961L180.451 166.645L180.031 168.176L179.726 168.9L179.34 169.016L178.73 169.51L178.235 170.08L177.93 170.31L177.624 170.425L177.279 170.46L176.859 170.304L176.018 170.419L174.532 170.304L174.152 170.385L173.772 170.575L172.241 170.345H170.83L170.145 170.5L169.46 170.765L169.27 170.345L168.999 170.04L168.694 169.884L167.623 169.62L167.318 169.424L167.122 169.159L167.013 168.699L165.942 167.744L165.446 167.128L165.711 166.783V166.404L165.291 165.374V165.028L165.521 164.683L165.711 163.078V162.319L165.446 161.594L165.562 161.249L165.596 160.564L165.671 160.219L165.826 159.914L165.446 159.724L165.331 159.344L165.521 158.619V157.624L165.636 157.279L166.016 157.008L166.132 156.703L166.097 156.019L166.207 155.714L166.587 155.599L166.892 155.369L167.387 154.753L167.807 154.143L168.078 153.913L168.343 153.758H168.648L169.028 153.913L169.373 153.683L169.719 153.528L171.21 153.643L171.895 153.528L172.16 153.297L172.39 152.918L173.15 153.338L173.421 153.683L173.767 153.528L174.492 153.418H175.978L176.663 153.228L176.933 153.533L177.503 153.838L177.619 154.218L177.883 154.448L179.375 154.828L179.605 155.092L179.68 155.553L180.175 156.168L180.521 156.853L180.711 157.963L180.676 158.723L180.981 159.103L180.791 159.407L180.866 159.712L180.601 160.017L180.791 160.397L180.866 160.742V161.122L180.757 161.881L180.791 162.606L180.411 162.802L180.676 163.527L181.022 164.171L181.137 164.856L181.056 165.241L181.212 165.351L180.947 165.621V165.656ZM177.544 164.545L177.388 164.165L177.429 163.745L177.734 162.98L177.774 162.75H177.578L177.313 162.486L177.198 162.181L177.578 161.835V161.605L177.388 161.45V160.725L177.578 160.075L177.809 159.77L177.429 159.54L177.348 159.269L177.463 158.625L177.429 158.28L177.198 157.975L177.233 157.48L177.083 157.135L175.707 156.45L175.436 156.186L175.131 156.491L174.786 156.571L174.406 156.531L173.335 156.076L172.989 155.996L172.609 156.301L172.189 156.416L172.264 156.761L171.918 156.571L171.688 156.191L171.383 156.381L171.003 156.531L170.197 157.026L169.776 156.951L169.586 157.141L169.506 157.446L169.241 158.09L168.895 158.245L168.97 158.475L169.241 158.631L169.201 159.39L169.091 159.695L168.711 159.925L168.631 160.305L168.665 160.725L169.051 160.875L168.895 161.179L168.78 161.945L168.895 163.55L168.861 164.309L169.091 164.614V164.959L168.936 165.684L168.97 166.03L169.241 166.375L169.661 166.45L169.932 166.68L170.387 167.215L170.732 167.324L171.538 167.059L172.264 166.944L172.609 167.134H173.795L174.596 167.249L174.981 167.439L175.362 167.209L175.897 166.559L176.317 166.593L176.663 166.864L176.818 166.519L177.164 166.363L177.434 166.173L177.665 165.828L177.97 164.798L177.549 164.528L177.544 164.545ZM170.323 157.981L170.133 157.866L170.398 157.601L170.323 157.981ZM171.774 165.995L172.08 165.84V165.995H171.774ZM176.323 165.42L176.018 165.575L175.909 165.27L176.064 165.075L175.909 164.81L176.479 165.075L176.323 165.42Z" fill="white"/>
<path d="M201.842 160.69L201.537 160.88L201.727 161.496L201.042 161.306L199.476 160.466L199.286 159.707L198.906 159.022L198.336 158.447L197.61 158.101L197.19 158.217L196.81 158.061L196.62 157.716L196.24 157.751L195.474 157.716L194.714 157.906L194.599 158.291L194.144 158.826L193.724 158.746L193.493 158.901L193.338 159.246L193.303 159.897L193.764 160.466L193.873 160.736V161.082L193.608 161.461L193.228 161.536L193.033 161.807L192.883 162.152L192.653 162.416L192.618 163.182L192.699 163.527L192.848 163.832L193.119 164.022L193.499 164.102L193.194 164.367L193.084 164.712L193.315 166.357L193.43 166.737L193.349 167.117L193.159 167.497L193.044 167.876L193.084 168.222L193.43 168.567L193.81 168.492L194.265 167.957L194.535 167.842L194.996 167.997L195.071 168.342L195.342 168.573L195.647 168.613L196.297 168.342H196.718L197.449 168.573L198.71 169.528L198.975 169.873L199.09 170.218L199.015 170.638L198.86 170.943L198.284 171.288L197.639 171.593L197.368 171.858L195.572 171.593L194.921 171.403L194.541 171.593L194.161 171.628L193.781 171.593L193.395 171.478L193.05 171.443L192.71 171.518L192.48 171.748L192.134 171.443H191.789L191.104 171.748L190.609 172.128H190.269L190.073 171.783L189.618 171.668L187.822 171.858L187.016 171.133L186.595 170.563L186.521 170.258V169.879L186.676 169.499L187.361 168.659L187.971 168.239L188.357 168.13L188.087 167.554L188.392 167.324L188.697 167.439L188.962 167.704L189.232 167.819L189.422 168.009L189.612 167.663L189.722 167.318L189.762 166.973L189.722 166.628L189.532 165.868L189.457 165.184L189.492 164.839L189.647 164.493L189.877 164.188L189.958 163.809L189.843 163.464L189.382 162.813L189.307 162.434L189.497 162.089L189.422 161.709L189.192 161.329L189.037 160.949L189.117 160.529H189.497L189.802 160.184L189.572 159.804V159.459L189.802 158.775L189.647 158.544L189.112 158.464L188.922 158.119L188.732 157.509L188.461 157.279L188.115 157.434L187.39 157.543L187.044 157.469L186.78 156.784V154.649L187.16 154.454L187.54 154.494L188.455 154.949L188.685 154.839L188.835 154.454L189.181 154.345L189.451 154.155L189.872 154.264L190.257 154.569L190.637 154.649L190.983 154.304L191.328 154.339L191.674 154.448L192.054 154.488L192.129 154.868L192.509 154.903L192.704 155.208L193.01 154.977L193.355 154.822L194.656 154.517L195.301 154.097L195.687 154.063L196.067 154.218L196.712 154.678L197.057 154.788L197.403 154.713L197.748 154.293L198.094 154.327L198.439 154.483L198.744 154.713L199.05 154.868L199.395 154.903L199.775 154.672L200.195 154.862L200.501 155.127L200.846 155.777L201.076 156.502L201.232 156.807L201.422 157.037L201.727 157.192L202.147 157.273L202.297 157.618L202.337 158.303L202.107 159.787L202.147 160.547L201.877 160.702L201.842 160.69ZM188.893 163.976L188.703 163.901V163.596L189.008 163.711L188.899 163.976H188.893ZM197.029 160.69H197.259L197.144 161.11L197.029 160.69Z" fill="white"/>
<path d="M222.432 172.565L222.046 172.531L220.941 172.226L220.595 172.266L220.25 172.416L219.944 172.836L219.219 172.416L218.493 172.151H218.113L217.768 172.226L217.388 172.456L217.083 172.111L216.737 172.03L216.432 172.071L216.087 172.22L215.401 172.41L215.056 172.301L214.711 171.921L214.446 172.266L214.1 172.375L212.914 172.301L212.609 172.491L212.344 172.911H211.964L211.734 172.606L211.354 172.45L210.974 172.485L209.753 172.404L208.993 172.485L208.262 172.83L207.841 172.675L207.536 172.445L207.271 172.14L207.081 171.794L206.966 171.374L206.932 170.954L207.041 170.649L207.156 169.965L207.191 169.24L207.306 168.935L207.496 168.665L207.801 168.434L208.256 168.319L208.452 168.13L208.791 168.475L209.097 168.59H209.402L210.283 168.285L210.588 168.319L210.853 168.509L211.158 168.97L211.503 168.739L212.309 168.55L212.73 168.59L212.92 168.78L213.225 168.509L213.68 167.974L213.795 167.669L213.76 167.324L213.49 166.944L213.72 166.599L213.375 165.955L213.68 165.61V165.264L213.57 164.459L213.605 164.079L213.76 163.809L214.14 163.653L213.876 162.929V160.639L213.795 159.914L213.565 159.229L213.375 158.884V158.579L213.185 158.314L212.499 158.424L211.734 158.389L210.974 158.424L210.784 158.694L210.404 158.539L209.788 158.119L209.252 157.503L208.987 155.938L209.097 155.139L210.208 154.753L210.588 154.719L212.039 154.799H213.49L213.795 154.644L214.1 154.414L214.446 154.264L214.791 154.299L215.707 155.058L216.737 156.088L217.422 156.468L217.002 156.548V157.998L217.112 158.723L217.417 159.373L217.532 159.753L217.342 160.058L217.227 160.403H216.847L216.691 160.823L216.766 161.168L217.261 161.663L217.376 161.968L217.221 162.347L217.376 162.693L217.342 163.038L216.922 164.068L216.956 164.413L217.227 164.793L217.146 165.172L217.186 165.592L216.841 165.782L217.186 166.616L216.841 166.812L216.95 167.157L217.065 167.842L217.221 168.147L217.526 167.882L217.872 167.692L218.326 167.727L218.407 168.296L218.827 168.377L220.394 168.262L220.774 168.337L221.154 168.492L221.459 168.187L221.764 168.037H222.109L222.835 168.147L223.215 168.682L223.56 169.407L223.791 170.172L223.871 170.931L223.681 171.616L223.491 171.921L223.221 172.186L222.841 172.416L222.42 172.525L222.432 172.565ZM218.419 151.456L217.843 152.107L217.958 152.262L216.962 152.722L216.772 153.027L217.042 153.602V153.982L216.737 153.948L215.897 153.217H215.551L215.131 153.487L213.72 152.993L213.104 152.573L212.874 152.302L212.718 151.922L212.183 151.807L211.837 151.617L211.647 151.387L211.613 151.082L211.918 149.673V149.328L211.809 148.982L212.494 148.752L213.139 148.373L213.714 147.912L213.945 147.607L214.515 147.113L214.86 147.038L215.24 147.228L215.545 147.113L215.816 147.308L216.196 147.878H216.922L217.607 148.332L217.877 148.637L218.257 149.707L218.292 150.053L218.522 150.818L218.712 151.163L218.407 151.468L218.419 151.456ZM212.154 159.816L212.534 159.626V160.046L212.154 159.816Z" fill="white"/>
<path d="M244.467 169.24L244.387 169.625V170.08L244.271 170.425L244.081 170.73L243.776 170.92L243.091 171.225L242.746 171.455L242.475 171.725L242.17 171.53L241.099 171.075L240.794 170.845L240.644 170.5L240.604 170.04L240.759 169.66L240.414 168.935L239.878 168.549L240.224 168.36L240.379 168.055L240.414 167.405L240.108 167.134L240.028 166.829L240.333 166.559L240.678 166.369L240.788 165.909L240.598 165.719H240.678L240.788 165.339L240.483 165.069L240.788 164.344L240.448 164.188L240.252 163.843L239.832 163.579L240.368 163.159L240.863 162.618L240.978 162.238L240.897 161.784L240.362 161.289L240.396 160.869L240.776 160.639L240.892 160.334V159.989L240.736 159.264L240.771 158.884L240.966 158.504L240.581 158.47L240.16 158.009L239.855 157.894L240.011 157.21L239.976 156.864L239.821 156.6L239.475 156.444L239.055 156.479L238.289 156.289L237.529 156.18L237.183 156.329L236.838 156.634L236.418 156.519H236.032L235.347 156.715L234.512 156.749L234.546 156.634L234.316 156.444L234.011 156.56H233.205L232.825 156.634L232.594 156.905L231.483 157.935L231.328 158.24L231.253 158.585L231.287 158.964L231.518 159.384L231.477 159.804L231.132 159.994L231.287 160.299L231.322 160.719L231.518 160.949L231.437 161.329L231.708 162.934L231.667 163.354L231.898 163.584V163.93L231.708 164.689L231.938 165.759L231.863 166.104L231.667 166.449L231.863 166.754L232.548 166.869L232.704 167.134L231.944 166.904L231.673 167.209L231.754 167.629L232.059 167.934V167.779H232.249V167.934L231.944 168.049L231.909 168.314L231.984 169.073L231.875 169.418L231.224 170.753L230.729 171.248L230.309 171.323L229.963 171.092L228.777 170.788L228.472 170.598L228.357 170.333L228.437 169.838L228.057 169.608L227.867 168.613L227.481 168.383L227.752 168.078L227.787 167.698L227.522 166.933L227.712 163.728L228.017 163.423V163.044L227.942 162.624L228.057 162.244L227.867 161.864L227.902 161.484L228.247 160.834L228.322 160.489L228.167 160.144L227.712 159.799L227.787 159.379L227.977 158.959L228.247 158.619L228.132 158.199L228.098 157.82L228.132 157.135L228.017 156.485L227.867 156.18L228.132 154.229L228.362 153.884L228.708 153.579L229.474 153.389L231 153.464L231.731 153.43L232.111 153.315L232.456 153.125L232.877 153.24L233.222 153.585L233.568 153.395L234.333 153.2L235.894 153.05L236.239 152.935L237.005 153.165H238.381L238.727 153.246L239.107 153.401L239.487 153.286L239.907 153.32L241.093 153.625L241.439 153.591L241.519 153.936L241.749 154.201L242.509 154.431L242.815 154.626L243.085 154.891L243.275 155.236L243.54 155.996L243.886 156.761L244.076 157.601L244.041 157.981L243.696 158.245L244.001 158.59L244.191 158.97L244.225 159.356L244.191 159.735L244.001 160.495L243.886 161.26L243.966 161.605L244.122 161.95L244.467 162.255L244.387 162.635V163.82L244.271 164.165L244.387 164.511L244.502 165.276V166.076L244.611 166.76L244.577 167.14L244.692 167.865L244.461 168.17L244.726 168.549L244.801 168.935L244.461 169.24H244.467ZM240.569 165.765L240.414 165.845V165.656L240.569 165.765Z" fill="white"/>
<path d="M264.977 173.67L264.862 174.015L264.746 174.625V174.97L264.291 175.43L264.366 175.735L263.986 175.845L263.641 176.035L263.105 176.61L262.645 177.22L262.109 177.715L261.764 177.87L261.384 177.945L260.923 177.87L260.578 178.135L260.198 178.25L259.818 178.284L258.977 178.175H258.177L257.831 178.324L257.451 178.06L257.065 178.025L256.265 178.215L254.699 177.985L254.319 178.14L253.973 178.445L253.242 178.29L252.517 178.06L251.872 177.64L251.641 177.335V176.955L251.336 176.65L251.256 176.305L251.906 175.81L252.632 175.465L253.357 175.39L253.588 175.12L253.703 174.775L253.933 174.585L254.353 174.775L254.733 175.425H255.113L255.384 175.269L255.73 175.235L257.255 175.465L257.411 175.195L257.526 174.815L257.716 174.55L258.177 174.585L258.522 175.235L258.787 175.54L259.933 175.275L260.693 174.97L261.309 174.435L261.539 173.48L261.695 173.175L262.04 172.905L261.96 172.485V172.065L262.075 171.645L262.305 171.34L262.345 171.15L262.23 170.885L261.85 170.73L261.505 170.695L260.82 170.885L260.134 171.19L259.789 171.271L259.443 171.236L259.138 171.081L258.793 170.776L258.413 170.966L258.067 170.891L257.762 170.661L257.417 170.552L256.996 170.707L256.616 170.972L256.271 171.127L255.891 171.202L255.16 171.127L253.593 170.707L253.213 170.897L252.833 170.972H252.488L252.183 170.862L251.613 170.517L250.467 169.562L250.386 169.182L249.891 168.613L249.926 168.193L249.736 167.353L249.626 166.593L249.321 165.788L249.286 165.408L249.741 164.724L249.822 164.344L249.707 163.964L249.897 163.884V163.579L249.667 163.389L249.897 163.199L249.632 162.854L249.252 162.739L249.672 162.434L249.707 162.089L249.361 161.364V161.059L249.707 160.794L249.402 160.489L249.252 160.144L249.286 159.419L249.396 158.66L249.321 158.274L249.931 157.739L250.547 156.669L250.968 156.059L251.238 155.829L251.584 155.639L252.045 155.564L252.275 155.144L252.58 155.035H253.651L253.956 154.88L254.186 154.46H254.532L255.908 154.845L256.254 154.805L256.634 154.655L256.979 154.73L258.2 154.655H259L259.386 154.805L259.725 155.035L260.491 154.92L260.871 154.954L262.363 155.53L263.088 155.76L263.197 156.14L263.733 156.755L263.658 157.135L264.153 157.745L264.499 158.395L264.729 159.12L264.844 160.224V161.755L264.654 162.06L264.574 162.365L264.729 163.09L264.764 163.889L264.954 164.275L264.764 165.109L264.954 165.494L264.879 165.799L264.574 166.45L264.499 166.829V167.174L264.654 167.554L264.424 167.859L264.315 168.13V168.434L264.389 168.814L264.959 169.194L264.274 170.529L264.424 170.874L264.844 171.518L264.954 171.863L264.574 172.859L264.608 173.204L264.954 173.434L265.149 173.325L264.994 173.704L264.977 173.67ZM262.109 161.53V161.226L261.844 161.036L262 160.351V159.971L261.844 159.287L261.539 158.642L261.309 158.337L260.923 158.412L260.618 158.303L259.697 157.497L259.317 157.423H258.896L256.795 157.762L256.069 157.727L255.764 157.572L255.493 157.307L254.578 158.032L254.388 158.303L254.273 158.723L253.893 158.533L253.703 157.693L253.513 157.883L253.398 158.343L253.588 158.723L252.407 159.292L252.217 160.098L252.407 160.363L252.943 160.857L252.977 161.237L252.943 161.582L252.563 162.267L252.482 162.612L252.597 162.957L252.407 163.187L252.563 163.567L252.793 163.947L252.868 164.631L252.793 164.896L252.413 165.086L252.033 165.702V166.047L252.223 166.392L252.528 166.547L252.758 166.777L253.294 167.773L253.789 168.308L254.054 168.498H255.05L255.47 168.613L256.156 168.308L256.311 168.003L256.616 168.348L257.376 168.538H257.681L258.027 168.429L258.372 168.199L258.718 168.469L259.063 168.578L259.674 168.469L260.359 168.239L260.739 168.204L261.044 167.974L261.424 167.784L261.695 167.514L261.729 167.059L262.19 166.829V166.674L261.96 166.524L261.58 166.369L261.315 166.064L261.274 165.644L261.89 165.374L262.121 165.103L262.201 164.764L261.931 164.608L261.856 164.263L262.086 163.993L262.121 163.613L261.931 162.468L262.011 162.089L262.317 161.824L262.127 161.553L262.109 161.53ZM257.831 166.38L258.211 166.191V166.38H257.831ZM260.088 173.866H259.783L260.163 173.676L260.088 173.866Z" fill="white"/>
<path d="M127.779 212.062L127.663 212.407L127.283 213.051L127.019 213.356L127.168 213.817L127.093 214.122L126.903 214.352L126.333 214.812L126.143 215.117L126.063 215.537L125.798 215.882L125.147 216.377L124.767 216.532L124.042 216.688L123.31 216.722L122.13 216.572L121.744 216.607L121.439 216.762L121.209 217.142L120.904 216.912L120.558 216.797L119.827 216.682L117.576 216.872L117.23 216.837L116.545 216.647L116.24 216.457L115.969 216.187L115.704 215.807L115.324 215.698L114.674 215.278L114.179 214.708L113.758 214.024L112.877 211.809L113.257 211.354L113.177 210.969V210.589L113.407 209.444L113.367 208.679L113.217 208.334L112.946 207.989L113.102 207.609L113.292 206.809V206.389L113.217 206.009L112.871 205.284L113.102 205.169L113.257 204.905L113.102 201.884V200.319L113.257 199.56L112.952 199.29L112.837 198.95V198.645L112.728 198.265L113.033 198.07L113.263 197.805L113.338 197.5V197.08L113.493 196.735L113.989 196.119L114.334 195.855L114.829 195.285L115.439 194.94L116.056 194.445L116.706 194.065L117.046 193.95L117.432 193.916L117.852 193.95L118.123 194.215L118.388 194.33L119.113 194.215L119.879 194.181L120.259 194.336L120.564 194.146H122.015L122.36 194.071L124.577 194.376L125.568 194.756L126.184 195.176L126.449 195.481L126.414 195.901L126.495 196.281L126.685 196.585L126.949 196.85L127.37 196.965L127.404 197.385L127.594 198.07L127.629 198.455L127.554 198.91L127.093 199.635L126.788 199.865L126.368 199.94L125.798 199.485L125.452 199.33L125.182 199.14L124.951 198.87L124.836 198.565V198.11L124.491 197.88L124.145 197.155L123.881 196.85L123.46 196.701L123.27 197.121V197.54H122.925L122.62 197.31L122.7 197.005L122.585 196.66L122.355 196.355L121.975 196.24L121.629 196.511L121.249 196.62L120.863 196.585L120.443 196.47L120.063 196.436L119.758 196.47L119.453 196.66L119.222 197.08L118.952 196.925L118.341 196.39L118.036 196.355L117.656 196.66L117.501 197.046L117.27 197.276L116.925 197.431L116.24 197.621L115.969 197.776L115.779 197.966L115.704 198.311L115.86 198.846L115.324 199.301L115.67 199.917L115.745 200.262L115.67 202.091L115.439 202.396L115.82 202.966L115.67 203.311L115.704 204.151L115.67 204.876L115.555 205.607L115.589 206.366L115.745 207.126V207.85L115.63 208.581L115.324 209.686L115.704 209.876L115.624 210.221L115.854 210.601L115.664 211.745L115.624 212.396L115.704 212.701L116.125 213.316L116.505 213.581H116.89L117.155 213.696L117.27 214.001L117.576 214.421L117.956 214.346L119.176 213.926L119.936 213.736H120.316L120.662 213.817H122.764L122.844 213.546L123.149 213.431L123.454 213.241L123.915 212.706L125.136 210.877L125.556 210.762L125.976 210.727L126.702 210.917L127.353 211.262L127.923 211.757L127.767 212.102L127.779 212.062Z" fill="white"/>
<path d="M150.125 215.462L150.044 215.882L149.889 216.187L149.543 216.342L149.353 216.647L148.708 216.992L147.977 217.108L147.021 216.377L146.676 216.227L146.296 216.147H145.95L145.57 216.227L145.185 216.457L144.574 216.952L144.229 216.918L143.883 216.688L143.503 216.532L143.123 216.457L142.737 216.532L142.507 216.992L142.242 217.148L141.937 217.067L141.321 216.762L141.016 216.682L140.745 216.837L140.515 217.217L140.169 216.952H139.864L139.519 217.027H139.173L138.793 216.837L138.028 216.992H137.647L137.302 216.837L136.997 216.532L136.692 216.572L136.007 216.762L135.701 216.532L135.626 216.153L135.436 215.848L134.941 215.353L133.83 214.398L133.64 214.093L133.531 213.788L133.49 213.402L133.571 212.982L133.151 212.752L132.961 212.482L132.886 212.177L133.231 210.693V210.313L133.726 209.697L133.646 209.277L133.836 209.007L134.412 208.627L135.747 207.942L135.903 207.563L136.173 207.333L136.519 207.177H136.899L137.319 207.287L137.509 207.672L137.895 207.557L138.431 206.941L138.241 206.637L138.315 206.291L138.505 205.946L138.621 205.601L138.885 205.756L139.041 206.101L139.271 206.861L139.467 207.091H139.772L140.233 206.746L140.613 206.59H140.993L141.949 206.976H142.213L142.484 206.821L142.674 206.36L142.749 206.286L142.179 205.906L142.714 205.52H143.06L143.365 205.866L143.284 206.211L143.054 206.556L143.4 206.786L143.78 206.936H144.24L145.196 206.366L145.426 206.061L145.582 205.716V204.571L145.467 203.921L145.277 203.616L145.006 203.386L144.816 203.691L144.781 204.071L144.511 204.226L144.551 203.881L144.436 203.535L144.165 203.231L143.86 203L143.21 203.42L142.864 203.576L142.594 203.501L142.363 203.081L141.563 203.121L141.217 203.231L141.137 203.576L140.716 203.466L140.181 203.006L139.876 202.891L139.455 203.081L139.645 203.271L139.3 203.466L139.11 203.771L138.805 203.581L138.5 203.547L138.154 203.622L137.619 204.082L137.429 204.387L137.584 204.841L137.504 205.146L137.239 205.302L136.168 205.572L135.897 205.802L135.517 205.687L135.172 205.497L134.866 205.423L134.521 205.612L134.216 205.382V204.962L134.135 204.583L134.216 203.553L134.406 202.868L134.596 202.603L134.901 202.333L135.321 202.143L135.396 201.763L135.552 201.418L135.782 201.148L136.087 200.918L136.473 200.762L137.884 200.417L138.189 200.227L138.459 199.957L138.615 199.612L138.96 199.767L139.225 200.037L139.53 200.227L139.951 200.302L140.106 199.957L140.377 199.767L140.722 199.692L141.373 199.807L141.713 200.037L142.098 200.193L142.288 199.773L142.553 199.617H142.858L143.584 199.963L143.964 200.078L144.309 200.112L144.73 200.037L145.455 200.227L146.065 200.572L146.751 200.688L147.096 200.992L147.326 201.338L147.632 201.988L148.167 202.638V203.783L148.323 204.128L148.708 204.398V204.778L148.403 205.463L148.369 205.808L148.173 206.188L148.138 206.567L148.484 207.563V207.908L148.294 208.253L148.91 210.468L148.449 210.618L148.294 210.923L148.564 211.153L148.639 211.418L148.605 211.763L148.374 212.488V212.793L148.524 213.097L148.944 213.362L150.131 214.582V215.462H150.125ZM145.271 212.562L145.19 212.177L145.305 211.377L145.651 210.192V209.847L145.536 209.582L145.271 209.387L144.81 209.197H143.664L143.319 209.277L142.974 209.433L142.668 209.738L142.208 209.853L141.787 209.738L141.517 209.473L141.137 209.507L140.757 209.622H140.411L140.141 209.352L139.801 209.387L139.225 209.807L138.995 210.071L138.69 210.301L138.425 210.376L138.079 210.342L137.694 210.071L137.429 210.376L137.049 210.606L137.124 211.026L136.934 211.406L136.283 211.866V212.286L136.479 212.631L136.744 212.936L136.934 213.241V213.546L137.659 214.271L138.039 214.311L138.235 213.891L138.54 213.782L139.225 214.012L139.571 213.978L139.841 213.633L140.262 213.598L140.532 213.937L140.953 213.788L141.333 213.707L142.139 213.673L142.939 213.558L143.054 213.937L143.82 213.748H144.2L144.62 213.828L145 213.638L144.81 213.103L145.271 212.988V212.568V212.562ZM138.816 203.208H139.081L139.196 203.092L138.816 203.208ZM142.594 212.068L142.363 212.413L141.983 212.378L142.018 211.993L142.288 211.688H142.668L142.588 212.068H142.594ZM144.24 210.693V210.658H144.62V210.693H144.24Z" fill="white"/>
<path d="M170.329 206.493L170.023 206.682L170.213 207.292L169.528 207.102L167.962 206.268L167.772 205.503L167.392 204.818L166.822 204.249L166.096 203.904L165.676 204.019L165.296 203.863L165.106 203.518L164.726 203.553L163.96 203.518L163.2 203.708L163.085 204.088L162.63 204.623L162.21 204.548L161.98 204.703L161.824 205.049L161.79 205.693L162.25 206.268L162.36 206.533V206.878L162.095 207.258L161.715 207.338L161.519 207.603L161.369 207.948L161.139 208.219L161.104 208.978L161.185 209.323L161.335 209.628L161.605 209.818L161.985 209.893L161.68 210.163L161.571 210.508L161.801 212.148L161.916 212.528L161.836 212.913L161.646 213.293L161.531 213.673L161.571 214.018L161.916 214.363L162.296 214.283L162.751 213.748L163.022 213.638L163.482 213.794L163.557 214.139L163.828 214.369L164.133 214.403L164.784 214.139H165.204L165.935 214.369L167.196 215.324L167.461 215.669L167.576 216.014L167.501 216.434L167.346 216.739L166.77 217.084L166.125 217.389L165.855 217.66L164.058 217.389L163.408 217.2L163.028 217.389L162.648 217.424L162.268 217.389L161.882 217.28L161.536 217.24L161.197 217.32L160.966 217.551L160.621 217.246H160.275L159.59 217.551L159.095 217.93H158.755L158.559 217.585L158.105 217.476L156.308 217.666L155.502 216.941L155.082 216.365L155.007 216.06V215.675L155.162 215.295L155.847 214.455L156.458 214.035L156.844 213.92L156.573 213.351L156.878 213.12L157.183 213.23L157.448 213.5L157.719 213.615L157.909 213.805L158.099 213.46L158.208 213.115L158.249 212.769L158.208 212.424L158.018 211.659L157.943 210.974L157.978 210.629L158.133 210.284L158.364 209.979L158.444 209.599L158.329 209.254L157.868 208.604L157.794 208.224L157.984 207.879L157.909 207.499L157.678 207.114L157.523 206.734L157.604 206.314H157.984L158.289 205.969L158.059 205.589V205.244L158.289 204.559L158.133 204.329L157.598 204.255L157.408 203.909L157.218 203.294L156.947 203.064L156.602 203.219L155.876 203.334L155.531 203.253L155.266 202.569V200.434L155.646 200.244L156.026 200.279L156.941 200.739L157.172 200.624L157.322 200.244L157.667 200.129L157.938 199.94L158.358 200.055L158.744 200.36L159.124 200.434L159.469 200.089L159.815 200.124L160.16 200.239L160.54 200.273L160.615 200.653L160.995 200.693L161.191 200.998L161.496 200.768L161.841 200.613L163.143 200.308L163.788 199.888L164.173 199.853L164.553 200.009L165.198 200.463L165.544 200.578L165.889 200.498L166.235 200.078L166.58 200.112L166.926 200.268L167.231 200.498L167.536 200.653L167.881 200.693L168.261 200.463L168.682 200.653L168.987 200.923L169.332 201.574L169.563 202.298L169.718 202.603L169.908 202.833L170.213 202.989L170.634 203.064L170.783 203.409L170.824 204.093L170.593 205.584L170.634 206.343L170.363 206.498L170.329 206.493ZM157.379 209.778L157.189 209.697V209.392L157.494 209.507L157.385 209.778H157.379ZM165.515 206.493H165.745L165.63 206.913L165.515 206.493Z" fill="white"/>
<path d="M191.68 210.762L191.714 211.412L191.334 211.602L191.754 212.252L191.409 212.442L191.259 212.787V213.546L191.104 213.926L190.758 214.196L190.724 214.542L190.453 215.226L189.538 216.636L189.267 216.906L188.921 217.096H187.776L187.43 217.171L187.125 217.361L186.895 217.666L186.163 217.551L184.638 217.205H183.797L183.417 217.016L182.611 217.286L182.265 216.981L181.92 216.906L180.814 217.211L180.434 217.251L180.049 217.136L179.703 216.831L179.018 216.716L178.673 217.021V217.292L176.916 217.211L176.721 216.716L176.341 216.797L176.421 217.217H176.076L175.886 215.692V214.887L175.961 214.162L176.076 213.817L175.73 213.661L175.385 213.391L175.46 213.046L175.92 212.436L176.076 212.091L176.11 211.786L175.88 211.406L176.11 211.061V210.681L175.88 209.922V209.576L176.07 209.231L176.179 208.086L176.145 207.361L175.955 206.556L176.07 206.211L176.104 205.451L175.949 203.921V203.196L176.329 203.161L176.675 203.006L176.485 202.701L176.295 201.976L176.22 201.217L176.104 200.872L175.874 200.567L175.984 200.222L176.064 199.497V198.731L176.174 198.007L176.329 197.661L176.064 197.356L176.099 197.051L176.254 196.747L176.329 196.401L176.139 196.096V193.766L176.485 193.536L177.02 193.001L177.365 192.811L177.745 192.731L178.742 193.346L179.012 193.576L179.202 193.841L179.277 194.186L179.243 194.572L179.398 195.297L179.433 196.096L179.277 196.442L178.932 196.712L178.742 197.782L178.816 198.087L179.122 198.242L179.352 198.622L179.502 199.002L179.081 199.077L178.891 199.422L178.857 199.842L178.932 200.187L179.122 200.492L180.077 200.877L180.383 200.647L181.114 200.457L181.839 200.423L182.484 200.233L182.755 200.003L182.945 199.617L183.25 200.003L183.595 200.233L183.901 200.348H184.246L185.277 200.078L186.083 200.043L186.503 200.118L186.889 200.043L187.234 200.078L187.614 200.193L187.994 200.383L188.801 200.647L189.221 200.688L190.632 202.402L191.052 203.018L191.357 203.668L191.547 204.393V204.772L191.662 205.152L191.587 205.572L191.737 205.917L191.507 206.297L191.392 206.642L191.507 207.367L191.662 207.747L191.852 208.472V208.817L191.737 209.122L191.472 209.467L191.852 210.462L191.662 210.767L191.68 210.762ZM188.202 207.402L187.937 207.172L187.286 206.941L187.476 206.521L187.822 206.637L188.202 206.556L188.236 206.211V204.761H187.816L187.471 204.531L187.2 204.226L186.97 204.416H186.705L186.4 204.111L186.319 203.731V203.386L185.484 203.576L185.139 203.806L184.943 204.186V203.38L184.638 203.035L184.367 202.96L184.102 203.069L183.832 203.3L183.181 203.645H182.801L182.455 203.415L182.075 203.305H181.655L181.269 203.38L181.235 203.76L180.814 203.84L180.469 203.461H180.279L179.899 204.531L179.628 204.721L179.133 204.64L179.289 204.985L179.519 205.331L179.289 205.676L179.133 206.055L178.753 207.546L179.323 207.735L179.513 208.04L179.323 208.42L178.903 208.65L178.747 209.03L178.863 209.335L178.707 209.795L179.053 210.29L179.208 210.595L179.053 211.015L179.398 211.665L179.588 213.149L179.697 213.61L180.043 213.719L180.849 213.644L181.154 213.719L181.384 214.104L182.035 214.139L182.225 213.794L182.645 213.903L183.181 214.478L183.567 214.398L183.912 214.242L184.522 214.133L184.868 214.168L185.248 214.323H185.553L186.509 213.753L186.854 213.638L187.275 213.713L187.43 213.333L187.925 212.649L188.075 212.344V211.999L187.77 211.653L188.19 211.268V210.888L188.075 210.509L187.845 210.238L187.384 210.204L187.119 209.899L186.889 209.743L186.618 210.048V209.628L186.808 209.323L187.378 208.869L187.574 209.174V209.559L187.839 209.709L187.994 208.224L188.3 208.035L188.375 207.73L188.184 207.384L188.202 207.402ZM187.016 205.917L186.751 205.647L186.595 205.377L186.9 205.037L187.281 205.072L187.511 205.302L187.591 205.607L187.511 205.912L187.206 206.176L187.016 205.912V205.917Z" fill="white"/>
<path d="M212.459 211.452L212.229 211.757L211.964 212.442L211.544 213.972L211.239 214.697L210.853 214.812L210.243 215.307L209.747 215.882L209.442 216.112L209.137 216.227L208.792 216.262L208.371 216.106L207.531 216.222L206.045 216.106L205.665 216.181L205.285 216.371L203.753 216.141H202.343L201.658 216.296L200.972 216.567L200.782 216.147L200.512 215.842L200.207 215.692L199.136 215.422L198.83 215.232L198.635 214.962L198.525 214.507L197.454 213.552L196.959 212.942L197.224 212.597V212.217L196.804 211.187V210.842L197.034 210.497L197.224 208.892V208.127L196.959 207.402L197.069 207.057L197.109 206.372L197.184 206.027L197.339 205.722L196.959 205.532L196.844 205.152L197.034 204.427V203.432L197.149 203.087L197.529 202.822L197.644 202.517L197.61 201.832L197.719 201.528L198.099 201.418L198.404 201.188L198.9 200.578L199.32 199.963L199.591 199.733L199.855 199.577H200.161L200.541 199.733L200.886 199.502L201.232 199.347L202.723 199.462L203.408 199.347L203.673 199.117L203.903 198.731L204.663 199.151L204.934 199.497L205.279 199.341L206.005 199.226H207.49L208.175 199.036L208.446 199.341L209.016 199.646L209.131 200.026L209.396 200.256L210.887 200.636L211.118 200.906L211.193 201.366L211.688 201.976L212.033 202.661L212.223 203.766L212.189 204.531L212.494 204.911L212.304 205.215L212.379 205.52L212.114 205.825L212.304 206.205L212.379 206.55V206.93L212.269 207.695L212.304 208.42L211.924 208.61L212.189 209.335L212.534 209.985L212.649 210.67L212.569 211.049L212.724 211.164L212.459 211.429V211.452ZM209.056 210.347L208.901 209.968L208.941 209.548L209.246 208.788L209.281 208.558H209.091L208.826 208.288L208.711 207.983L209.091 207.638V207.407L208.901 207.252V206.527L209.091 205.877L209.321 205.572L208.941 205.342L208.861 205.077L208.976 204.427L208.941 204.082L208.711 203.777L208.746 203.282L208.596 202.937L207.22 202.252L206.949 201.982L206.644 202.287L206.298 202.362L205.918 202.327L204.847 201.867L204.502 201.792L204.122 202.097L203.702 202.206L203.776 202.552L203.431 202.362L203.201 201.982L202.896 202.172L202.516 202.327L201.709 202.822L201.289 202.742L201.099 202.931L201.018 203.236L200.754 203.886L200.408 204.042L200.483 204.272L200.754 204.427L200.719 205.187L200.604 205.492L200.224 205.722L200.143 206.107L200.178 206.527L200.564 206.683L200.408 206.987L200.293 207.747L200.408 209.352L200.374 210.117L200.604 210.422V210.767L200.448 211.492L200.483 211.838L200.754 212.183L201.174 212.263L201.445 212.493L201.899 213.028L202.245 213.144L203.051 212.873L203.776 212.764L204.122 212.954H205.308L206.108 213.063L206.494 213.259L206.874 213.028L207.41 212.384L207.83 212.419L208.175 212.683L208.331 212.338L208.676 212.183L208.947 211.993L209.177 211.648L209.483 210.618L209.062 210.353L209.056 210.347ZM201.836 203.777L201.646 203.668L201.911 203.397L201.836 203.777ZM203.287 211.791L203.592 211.636V211.791H203.287ZM207.836 211.222L207.531 211.377L207.421 211.072L207.577 210.882L207.421 210.612L207.991 210.882L207.836 211.228V211.222Z" fill="white"/>
<path d="M233.959 215.042L233.884 215.422V215.882L233.769 216.227L233.579 216.532L233.274 216.722L232.589 217.027L232.243 217.257L231.973 217.522L231.668 217.332L230.597 216.872L230.292 216.641L230.136 216.296L230.096 215.836L230.251 215.456L229.906 214.731L229.37 214.352L229.716 214.162L229.871 213.857L229.906 213.207L229.601 212.942L229.52 212.637L229.825 212.373L230.171 212.177L230.286 211.722L230.09 211.533H230.171L230.286 211.153L229.981 210.882L230.286 210.157L229.94 210.002L229.745 209.657L229.324 209.387L229.86 208.967L230.355 208.431L230.47 208.052L230.389 207.592L229.854 207.097L229.889 206.677L230.274 206.447L230.384 206.142V205.796L230.228 205.072L230.269 204.692L230.459 204.306L230.073 204.272L229.652 203.817L229.347 203.702L229.503 203.018L229.468 202.672L229.313 202.402L228.967 202.252L228.547 202.287L227.781 202.097L227.021 201.982L226.676 202.137L226.33 202.442L225.91 202.327H225.524L224.839 202.517L224.004 202.552L224.039 202.442L223.808 202.252L223.503 202.362H222.697L222.317 202.442L222.087 202.707L220.975 203.737L220.82 204.042L220.745 204.387L220.78 204.767L221.01 205.187L220.97 205.607L220.624 205.796L220.78 206.101L220.814 206.521L221.01 206.752L220.929 207.137L221.2 208.742L221.16 209.162L221.39 209.392V209.737L221.2 210.503L221.43 211.573L221.355 211.918L221.16 212.263L221.355 212.568L222.041 212.677L222.196 212.948L221.436 212.718L221.165 213.023L221.246 213.443L221.551 213.748V213.598H221.741V213.748L221.436 213.863L221.401 214.133L221.476 214.892L221.367 215.238L220.716 216.572L220.221 217.067L219.801 217.148L219.455 216.918L218.269 216.613L217.964 216.423L217.849 216.152L217.929 215.658L217.549 215.428L217.359 214.432L216.974 214.202L217.244 213.897L217.279 213.517L217.014 212.758L217.204 209.548L217.509 209.243V208.857L217.434 208.437L217.549 208.058L217.359 207.678L217.394 207.292L217.739 206.648L217.814 206.303L217.659 205.958L217.204 205.612L217.279 205.192L217.469 204.772L217.739 204.427L217.624 204.007L217.59 203.622L217.624 202.937L217.509 202.293L217.359 201.988L217.624 200.043L217.855 199.698L218.2 199.393L218.966 199.203L220.497 199.278L221.223 199.243L221.603 199.134L221.948 198.944L222.369 199.054L222.714 199.399L223.06 199.209L223.826 199.019L225.392 198.864L225.731 198.749L226.497 198.979H227.873L228.219 199.054L228.599 199.209L228.979 199.094L229.399 199.134L230.585 199.439L230.931 199.405L231.011 199.75L231.242 200.02L232.002 200.25L232.307 200.44L232.577 200.711L232.767 201.056L233.032 201.815L233.378 202.575L233.568 203.415L233.533 203.794L233.188 204.065L233.493 204.41L233.683 204.79L233.718 205.169L233.683 205.549L233.493 206.314L233.378 207.074L233.458 207.419L233.614 207.764L233.954 208.069L233.879 208.449V209.634L233.764 209.979L233.879 210.324L233.994 211.084V211.889L234.103 212.574L234.069 212.954L234.184 213.679L233.954 213.983L234.224 214.363L234.299 214.743L233.954 215.048L233.959 215.042ZM230.061 211.567L229.906 211.642V211.452L230.061 211.567Z" fill="white"/>
<path d="M54.1757 177.438C54.1757 247.335 60.6821 304.006 43.2876 304.006C25.8931 304.006 4.92871 247.335 4.92871 177.438C4.92871 107.541 25.8931 50.8708 43.2876 50.8708C60.6821 50.8708 54.1757 107.535 54.1757 177.438Z" fill="black"/>
<mask id="mask0_1074_10830" style="mask-type:luminance" maskUnits="userSpaceOnUse" x="4" y="50" width="52" height="255">
<path d="M54.1757 177.438C54.1757 247.335 60.6821 304.006 43.2876 304.006C25.8931 304.006 4.92871 247.335 4.92871 177.438C4.92871 107.541 25.8931 50.8708 43.2876 50.8708C60.6821 50.8708 54.1757 107.535 54.1757 177.438Z" fill="white"/>
</mask>
<g mask="url(#mask0_1074_10830)">
<path d="M144.96 105.729H0V114.825H144.96V105.729Z" fill="white"/>
<path d="M144.96 255.465H0V264.561H144.96V255.465Z" fill="white"/>
</g>
</g>
<defs>
<clipPath id="clip0_1074_10830">
<rect width="980" height="304" fill="white"/>
</clipPath>
</defs>
</svg>
