<svg width="822" height="540" viewBox="0 0 822 540" fill="none" xmlns="http://www.w3.org/2000/svg">
<path d="M560.542 22.9374C598.459 15.6606 637.63 18.5049 674.104 31.1815C710.578 43.8581 743.07 65.9194 768.319 95.1419C793.568 124.365 810.694 159.738 817.951 197.681C825.209 235.624 822.366 274.823 809.698 311.323C797.031 347.822 774.985 380.336 745.768 405.603C716.566 430.869 681.217 447.993 643.301 455.27C605.384 462.532 566.212 459.688 529.738 446.997C493.264 434.32 460.772 412.244 435.523 383.022L601.921 239.104L560.527 22.9374H560.542Z" fill="black"/>
<path d="M389.045 97.0278C394.849 88.6443 401.197 80.634 408.053 73.05L542.578 33.5829L546.162 50.9323L389.045 97.0278Z" fill="#98C5D3"/>
<path d="M365.111 140.841C368.152 133.532 371.553 126.394 375.295 119.452L549.744 68.2716L553.328 85.6211L365.111 140.841Z" fill="#98C5D3"/>
<path d="M352.367 181.375C353.831 174.666 355.589 168.01 357.64 161.427L556.91 102.964L560.494 120.314L352.367 181.375Z" fill="#98C5D3"/>
<path d="M347.233 219.672C347.56 213.349 348.141 207.04 348.973 200.761L564.076 137.653L567.66 155.002L347.233 219.672Z" fill="#98C5D3"/>
<path d="M348.168 256.207C347.548 250.197 347.159 244.174 347 238.149L571.246 172.359L574.83 189.709L348.168 256.207Z" fill="#98C5D3"/>
<path d="M354.451 291.159C353.172 286.21 352.051 281.211 351.092 276.171C350.946 275.404 350.804 274.637 350.666 273.869L578.413 207.052L581.997 224.401L354.451 291.159Z" fill="#98C5D3"/>
<path d="M365.818 324.616C363.508 319.185 361.4 313.665 359.499 308.068L564.881 247.813L532.065 275.841L365.818 324.616Z" fill="#98C5D3"/>
<path d="M382.371 356.554C379.187 351.409 376.203 346.146 373.425 340.778L499.262 303.86L466.447 331.888L382.371 356.554Z" fill="#98C5D3"/>
<path d="M433.618 359.928L403.566 385.596H403.552C399.772 381.164 396.165 376.602 392.735 371.923L433.618 359.928Z" fill="#98C5D3"/>
<path d="M538.995 16.2397L436.621 46.2743C465.519 23.3632 499.418 7.49358 535.64 0L538.995 16.2397Z" fill="#98C5D3"/>
<path d="M624.174 220.553C625.566 220.505 635.31 220.409 637.086 220.313C637.038 219.497 637.134 215.849 636.894 214.073C635.934 214.121 632.382 214.169 630.222 214.121C630.222 213.065 630.174 208.937 630.174 206.681C630.654 206.681 632.622 206.681 633.918 206.537C633.918 205.913 633.87 202.841 633.87 200.825C633.342 200.825 631.902 200.777 630.27 200.825C630.27 200.153 630.126 196.697 630.174 195.161C631.278 195.161 634.782 195.065 636.702 195.065C636.798 194.057 636.702 191.225 636.654 189.113C635.598 189.065 626.046 189.065 624.126 189.113C624.078 190.937 624.27 196.649 624.174 202.409C624.03 208.169 624.174 215.465 624.174 220.553Z" fill="white"/>
<path d="M650.839 220.505C651.079 218.921 652.423 210.089 652.999 206.009C653.575 201.977 655.063 193.385 655.639 189.065C654.871 189.017 652.039 189.113 649.639 189.065C649.495 190.217 648.871 194.105 648.343 197.513C647.815 200.969 646.951 206.729 646.663 208.169C646.231 205.433 645.943 202.649 645.463 198.473C645.079 194.825 644.599 191.609 644.311 188.873C643.591 188.873 640.759 189.017 637.879 188.969C637.975 189.929 638.887 196.025 639.607 201.689C640.327 207.353 641.479 215.561 642.247 220.457C643.543 220.505 649.303 220.553 650.839 220.505Z" fill="white"/>
<path d="M669.94 220.457C669.988 218.345 669.94 215.513 669.892 214.505C667.972 214.553 664.708 214.553 663.604 214.553C663.556 213.065 663.556 207.641 663.556 206.921C665.188 206.969 666.628 206.921 667.108 206.921C667.108 204.953 667.204 201.881 667.156 201.209C665.86 201.113 663.94 201.113 663.412 201.113C663.412 198.857 663.508 196.073 663.508 194.969C665.716 194.921 668.98 194.921 669.94 194.969C669.94 192.665 669.94 190.553 669.844 189.065C668.068 188.969 658.564 189.113 657.22 189.065C657.268 196.265 657.22 201.353 657.316 207.113C657.46 212.873 657.364 218.633 657.412 220.409C659.332 220.505 668.884 220.505 669.94 220.457Z" fill="white"/>
<path d="M677.987 220.553C677.987 218.249 678.035 214.841 677.939 212.153C678.659 213.641 679.811 217.721 680.867 220.553C681.635 220.505 684.803 220.505 687.155 220.553C686.771 219.161 684.275 212.537 682.883 208.697C684.035 207.449 686.051 206.297 686.003 199.769C685.907 193.241 684.083 189.065 678.899 188.969C675.971 188.969 673.859 189.017 671.939 188.969C671.939 190.745 672.083 201.401 672.035 204.569C671.987 207.737 672.083 215.033 672.035 220.505C673.235 220.505 676.307 220.601 677.987 220.553ZM678.083 195.497C679.955 195.449 680.675 196.409 680.579 199.145C680.435 201.833 680.003 203.129 678.131 203.225C678.035 200.201 678.083 196.697 678.083 195.497Z" fill="white"/>
<path d="M700.085 220.553C700.085 219.497 700.085 213.929 700.181 208.169C701.189 206.249 705.173 195.401 707.621 189.017C706.421 189.017 703.205 189.065 700.709 189.065C700.565 190.073 697.973 196.409 696.917 199.529C696.533 198.425 694.277 192.425 693.077 189.017C690.869 189.017 688.277 188.969 685.973 189.065C686.981 191.465 690.965 203.177 692.981 207.977C693.125 212.489 693.125 215.129 693.125 220.505C694.277 220.457 698.453 220.553 700.085 220.553Z" fill="white"/>
<path d="M713.956 220.505C715.588 220.505 719.284 220.601 720.82 220.505C720.82 219.593 720.532 201.737 720.532 196.121C722.404 196.121 724.612 196.073 725.86 196.121C725.86 195.545 725.908 191.753 725.812 189.257C724.516 189.209 710.788 189.113 708.388 189.209C708.436 191.081 708.436 193.193 708.436 196.025H713.86C713.812 198.329 713.812 216.377 713.956 220.505Z" fill="white"/>
<path d="M733.814 220.553C733.91 218.105 733.958 211.097 734.006 207.929C734.918 207.881 737.078 207.929 737.846 207.929C737.798 209.225 737.798 217.097 737.894 220.409C738.998 220.457 741.302 220.457 743.606 220.409C743.606 219.209 743.75 210.905 743.75 205.961C743.75 201.017 743.702 193.289 743.606 189.161C742.502 189.065 739.958 189.113 737.942 189.113C737.846 190.361 738.038 197.129 737.894 200.825C737.222 200.873 734.918 200.825 733.814 200.777C733.814 199.961 733.766 191.321 733.862 189.065C732.902 189.065 729.974 188.969 728.006 189.017C728.006 190.265 727.814 198.041 727.814 203.513C727.814 212.873 727.91 216.281 727.814 220.457C728.534 220.505 731.558 220.553 733.814 220.553Z" fill="white"/>
<path d="M746.517 220.553C748.389 220.601 751.173 220.505 753.141 220.505C753.141 219.209 752.997 212.393 752.997 208.025C752.997 203.609 753.237 193.001 753.045 189.305C751.701 189.257 748.293 189.209 746.709 189.305C746.709 190.457 746.613 197.369 746.613 201.833C746.613 206.297 746.517 214.025 746.517 220.553Z" fill="white"/>
<path d="M771.875 220.697C771.875 219.497 771.923 211.001 771.923 206.105C771.923 201.161 772.019 193.433 771.923 189.353C770.387 189.353 768.131 189.305 766.163 189.305C766.067 190.553 766.259 197.753 766.307 200.633C764.723 197.417 762.995 193.433 761.267 189.209C760.307 189.209 757.859 189.161 755.939 189.209C755.939 190.457 756.035 198.617 755.987 204.089C755.891 210.089 756.083 214.793 755.987 220.601C756.707 220.649 759.683 220.601 761.939 220.601C761.939 215.993 761.891 212.009 761.891 208.457C763.331 212.057 765.059 215.513 766.787 220.601C767.891 220.649 769.763 220.697 771.875 220.697Z" fill="white"/>
<path d="M782.56 220.553C788.272 220.505 789.52 214.265 789.088 203.081C786.4 203.129 784.624 203.081 782.224 203.129C782.128 204.521 782.224 207.497 782.224 207.977C782.848 207.977 783.808 208.025 783.808 208.025C783.856 211.385 783.712 213.593 782.368 213.593C780.928 213.593 780.304 212.681 780.4 204.329C780.496 197.561 780.544 195.977 782.176 195.929C783.856 195.833 783.616 198.425 783.664 199.817C784.336 199.817 787.648 199.817 788.896 199.865C788.896 192.041 788.128 188.681 782.608 188.777C777.088 188.873 774.592 192.617 774.544 204.233C774.496 218.009 776.464 220.601 782.56 220.553Z" fill="white"/>
<path d="M626.448 260.553C627.84 260.505 637.584 260.409 639.36 260.313C639.312 259.497 639.408 255.849 639.168 254.073C638.208 254.121 634.656 254.169 632.496 254.121C632.496 253.065 632.448 248.937 632.448 246.681C632.928 246.681 634.896 246.681 636.192 246.537C636.192 245.913 636.144 242.841 636.144 240.825C635.616 240.825 634.176 240.777 632.544 240.825C632.544 240.153 632.4 236.697 632.448 235.161C633.552 235.161 637.056 235.065 638.976 235.065C639.072 234.057 638.976 231.225 638.928 229.113C637.872 229.065 628.32 229.065 626.4 229.113C626.352 230.937 626.544 236.649 626.448 242.409C626.304 248.169 626.448 255.465 626.448 260.553Z" fill="white"/>
<path d="M654.217 260.697V253.545H648.169C648.121 248.313 648.121 236.697 648.073 229.305C646.441 229.305 642.889 229.257 641.353 229.305C641.305 230.265 641.401 249.033 641.449 252.441C641.497 255.849 641.593 258.009 641.689 260.505C642.985 260.553 649.177 260.553 654.217 260.697Z" fill="white"/>
<path d="M663.506 260.649C667.634 260.649 669.938 258.585 670.034 252.009C670.13 242.649 661.73 240.633 661.826 236.889C661.874 235.593 662.018 234.489 663.266 234.441C664.658 234.441 664.898 235.689 664.802 237.801C665.426 237.897 668.834 237.801 669.842 237.849C669.698 231.801 668.978 228.633 663.026 228.633C657.842 228.633 655.634 230.601 655.538 236.073C655.394 245.097 664.082 246.489 664.082 251.721C664.082 252.633 664.274 254.457 662.594 254.505C660.818 254.553 660.914 252.777 660.914 250.137C660.386 250.089 656.93 250.041 655.682 250.041C655.682 259.017 656.978 260.649 663.506 260.649Z" fill="white"/>
<path d="M684.635 260.457C684.683 258.345 684.635 255.513 684.587 254.505C682.667 254.553 679.403 254.553 678.299 254.553C678.251 253.065 678.251 247.641 678.251 246.921C679.883 246.969 681.323 246.921 681.803 246.921C681.803 244.953 681.899 241.881 681.851 241.209C680.555 241.113 678.635 241.113 678.107 241.113C678.107 238.857 678.203 236.073 678.203 234.969C680.411 234.921 683.675 234.921 684.635 234.969C684.635 232.665 684.635 230.553 684.539 229.065C682.763 228.969 673.259 229.113 671.915 229.065C671.963 236.265 671.915 241.353 672.011 247.113C672.155 252.873 672.059 258.633 672.107 260.409C674.027 260.505 683.579 260.505 684.635 260.457Z" fill="white"/>
<path d="M697.337 260.601C698.825 260.649 702.281 260.553 703.913 260.553C703.865 249.129 703.913 237.993 703.865 235.689H709.289C709.241 232.857 709.289 230.937 709.289 229.065C706.937 228.969 693.209 229.065 691.865 229.113C691.817 231.609 691.865 235.161 691.865 235.737C693.113 235.737 695.321 235.785 697.193 235.737C697.193 241.401 697.289 259.641 697.337 260.601Z" fill="white"/>
<path d="M711.244 260.505C712.348 260.601 715.468 260.313 717.484 260.361C717.58 259.113 717.388 251.913 717.532 248.217C718.156 248.169 720.172 248.217 721.276 248.265C721.276 249.081 721.324 258.153 721.228 260.361C722.188 260.361 725.116 260.505 727.084 260.457C727.084 259.209 727.276 251.913 727.276 246.393C727.276 237.033 727.18 233.385 727.276 229.209C726.556 229.209 723.34 229.113 721.084 229.113C720.94 231.561 720.94 238.041 720.844 241.257L717.244 241.209C717.292 239.913 717.292 232.377 717.196 229.065C716.092 229.017 713.836 229.017 711.484 229.065C711.484 230.265 711.388 236.409 711.388 241.353C711.388 246.297 711.244 251.241 711.244 260.505Z" fill="white"/>
<path d="M728.84 260.553C730.328 260.505 732.248 260.457 734.36 260.553L735.704 253.305C736.136 253.305 738.2 253.257 739.736 253.305C739.88 254.073 740.168 257.001 740.408 260.553C741.128 260.553 744.824 260.553 746.648 260.505C746.552 259.545 745.64 253.257 744.92 247.593C744.2 241.929 743 234.201 742.232 229.257C739.4 229.353 736.568 229.401 733.688 229.353C733.4 230.985 732.104 239.241 731.528 243.273C730.904 247.305 729.416 256.233 728.84 260.553ZM736.76 246.393C737.144 243.417 737.864 238.617 738.152 237.369C738.632 240.057 738.92 243.129 739.4 246.393C738.536 246.441 737.48 246.393 736.76 246.393Z" fill="white"/>
<path d="M751.058 260.505C752.69 260.505 756.386 260.601 757.922 260.505C757.922 259.593 757.634 241.737 757.634 236.121C759.506 236.121 761.714 236.073 762.962 236.121C762.962 235.545 763.01 231.753 762.914 229.257C761.618 229.209 747.89 229.113 745.49 229.209C745.538 231.081 745.538 233.193 745.538 236.025H750.962C750.914 238.329 750.914 256.377 751.058 260.505Z" fill="white"/>
<path d="M769.56 239.577C770.088 238.185 771.528 235.161 771.624 232.953C771.768 229.977 769.176 229.257 767.592 229.209C765.72 229.161 764.28 230.505 764.184 232.713C764.136 234.681 764.712 236.217 766.872 236.505C766.536 237.513 766.2 238.473 765.816 239.481C766.872 239.481 768.504 239.529 769.56 239.577Z" fill="white"/>
<path d="M780.019 260.841C785.203 260.841 787.507 257.385 787.507 251.913C787.507 242.649 778.579 241.161 778.627 237.321C778.675 236.409 778.531 234.729 780.259 234.729C781.699 234.729 781.939 236.217 781.891 237.705C782.419 237.753 785.683 237.801 786.931 237.801C787.123 232.233 785.299 228.921 780.019 228.921C775.891 228.921 772.819 230.889 772.819 237.465C772.867 246.489 781.267 247.833 781.267 251.529C781.267 252.825 781.075 254.265 779.875 254.313C778.435 254.313 778.243 252.825 778.339 249.849C777.715 249.801 774.211 249.801 773.203 249.801C773.011 257.433 774.067 260.841 780.019 260.841Z" fill="white"/>
<path d="M689.023 300.601C694.783 300.505 696.943 297.673 696.751 290.281C696.655 286.297 695.647 283.897 693.775 282.505C694.639 281.641 695.407 279.529 695.359 277.657C695.215 272.281 692.959 269.305 688.735 269.257C687.343 269.209 682.975 269.257 682.351 269.257C682.399 274.729 682.303 281.785 682.351 284.953C682.399 288.121 682.111 298.777 682.111 300.553C684.031 300.505 686.095 300.649 689.023 300.601ZM688.111 274.633C689.599 274.681 690.223 275.209 690.367 277.513C690.463 279.673 689.599 280.249 688.159 280.297C688.159 278.473 688.159 276.457 688.111 274.633ZM688.159 294.025C688.159 292.825 688.255 289.417 688.207 287.113C689.935 287.209 691.087 287.689 691.087 290.377C691.087 293.593 689.839 293.977 688.159 294.025Z" fill="white"/>
<path d="M704.269 300.601C704.557 297.049 704.749 294.745 704.893 293.977C706.477 293.929 707.917 293.977 708.349 293.977L709.597 300.553C711.565 300.553 713.917 300.601 715.501 300.553C714.877 296.233 713.629 288.889 713.005 284.857C712.429 280.825 711.373 274.009 710.605 268.921C707.725 268.969 705.085 268.969 701.917 269.017C700.477 280.489 697.453 300.649 697.645 300.505C699.469 300.553 703.549 300.601 704.269 300.601ZM705.181 287.065C705.661 283.129 705.901 281.017 706.381 278.281C706.861 280.921 707.149 283.129 707.533 287.065C706.813 287.065 706.045 287.113 705.181 287.065Z" fill="white"/>
<path d="M723.943 300.649C729.703 300.601 731.143 297.577 731.095 291.577C731.095 288.073 731.095 286.585 731.047 280.057C730.999 273.577 729.751 269.497 722.359 269.305C720.871 269.257 718.999 269.353 717.079 269.305C717.079 271.081 717.415 281.737 717.319 284.905C717.271 288.025 717.415 295.129 717.319 300.601C718.519 300.601 721.783 300.697 723.943 300.649ZM722.647 293.689C722.551 290.617 722.551 282.409 722.647 276.169C724.327 276.121 725.383 276.745 725.431 278.425C725.575 281.497 725.527 287.593 725.527 291.721C725.527 293.113 724.279 293.689 722.647 293.689Z" fill="white"/>
<path fill-rule="evenodd" clip-rule="evenodd" d="M280.087 203.344C280.449 202.012 281.823 201.225 283.155 201.588L283.209 201.602C284.541 201.964 285.327 203.338 284.965 204.67C284.603 206.003 283.229 206.789 281.897 206.427L281.844 206.413C280.511 206.05 279.725 204.677 280.087 203.344ZM292.909 206.83C293.271 205.498 294.645 204.711 295.977 205.073L296.084 205.102C297.416 205.464 298.202 206.838 297.84 208.17C297.478 209.503 296.104 210.289 294.772 209.927L294.666 209.898C293.333 209.536 292.547 208.162 292.909 206.83ZM305.784 210.33C306.146 208.998 307.52 208.211 308.852 208.573L308.959 208.602C310.291 208.964 311.077 210.338 310.715 211.67C310.353 213.003 308.979 213.789 307.647 213.427L307.541 213.398C306.208 213.036 305.422 211.662 305.784 210.33ZM318.659 213.83C319.021 212.498 320.395 211.711 321.727 212.073L321.834 212.102C323.166 212.464 323.952 213.838 323.59 215.17C323.228 216.503 321.854 217.289 320.522 216.927L320.416 216.898C319.083 216.536 318.297 215.162 318.659 213.83ZM331.534 217.33C331.896 215.998 333.27 215.211 334.602 215.573L334.655 215.588C335.988 215.95 336.774 217.324 336.412 218.656C336.05 219.988 334.676 220.775 333.344 220.413L333.291 220.398C331.958 220.036 331.172 218.662 331.534 217.33Z" fill="black"/>
<path d="M17 145.505H251V205.505H17V145.505Z" fill="black"/>
<path d="M0 200.505H269V259.505H0V200.505Z" fill="black"/>
<path d="M31.9384 196.505C34.2504 196.505 39.4864 196.641 41.6624 196.505C41.6624 195.213 41.2544 169.917 41.2544 161.961C43.9064 161.961 47.0344 161.893 48.8024 161.961C48.8024 161.145 48.8704 155.773 48.7344 152.237C46.8984 152.169 27.4504 152.033 24.0504 152.169C24.1184 154.821 24.1184 157.813 24.1184 161.825H31.8024C31.7344 165.089 31.7344 190.657 31.9384 196.505Z" fill="white"/>
<path d="M60.0697 196.573C60.2057 193.105 60.2737 183.177 60.3417 178.689C61.6337 178.621 64.6937 178.689 65.7817 178.689C65.7137 180.525 65.7137 191.677 65.8497 196.369C67.4137 196.437 70.6777 196.437 73.9417 196.369C73.9417 194.669 74.1457 182.905 74.1457 175.901C74.1457 168.897 74.0777 157.949 73.9417 152.101C72.3777 151.965 68.7737 152.033 65.9177 152.033C65.7817 153.801 66.0537 163.389 65.8497 168.625C64.8977 168.693 61.6337 168.625 60.0697 168.557C60.0697 167.401 60.0017 155.161 60.1377 151.965C58.7777 151.965 54.6297 151.829 51.8417 151.897C51.8417 153.665 51.5697 164.681 51.5697 172.433C51.5697 185.693 51.7057 190.521 51.5697 196.437C52.5897 196.505 56.8737 196.573 60.0697 196.573Z" fill="white"/>
<path d="M78.1338 196.573C80.1058 196.505 93.9098 196.369 96.4258 196.233C96.3578 195.077 96.4938 189.909 96.1538 187.393C94.7938 187.461 89.7618 187.529 86.7018 187.461C86.7018 185.965 86.6338 180.117 86.6338 176.921C87.3138 176.921 90.1018 176.921 91.9378 176.717C91.9378 175.833 91.8698 171.481 91.8698 168.625C91.1218 168.625 89.0818 168.557 86.7698 168.625C86.7698 167.673 86.5658 162.777 86.6338 160.601C88.1978 160.601 93.1618 160.465 95.8818 160.465C96.0178 159.037 95.8818 155.025 95.8138 152.033C94.3178 151.965 80.7858 151.965 78.0658 152.033C77.9978 154.617 78.2698 162.709 78.1338 170.869C77.9298 179.029 78.1338 189.365 78.1338 196.573Z" fill="white"/>
<path d="M118.9 196.573C126.992 196.505 128.76 187.665 128.148 171.821C124.34 171.889 121.824 171.821 118.424 171.889C118.288 173.861 118.424 178.077 118.424 178.757C119.308 178.757 120.668 178.825 120.668 178.825C120.736 183.585 120.532 186.713 118.628 186.713C116.588 186.713 115.704 185.421 115.84 173.589C115.976 164.001 116.044 161.757 118.356 161.689C120.736 161.553 120.396 165.225 120.464 167.197C121.416 167.197 126.108 167.197 127.876 167.265C127.876 156.181 126.788 151.421 118.968 151.557C111.148 151.693 107.612 156.997 107.544 173.453C107.476 192.969 110.264 196.641 118.9 196.573Z" fill="white"/>
<path d="M150.012 196.777V186.645H141.444C141.376 179.233 141.376 162.777 141.308 152.305C138.996 152.305 133.964 152.237 131.788 152.305C131.72 153.665 131.856 180.253 131.924 185.081C131.992 189.909 132.128 192.969 132.264 196.505C134.1 196.573 142.872 196.573 150.012 196.777Z" fill="white"/>
<path d="M162.843 196.573C167.331 196.369 170.935 194.737 171.683 190.045C173.043 181.613 172.907 169.169 172.431 162.029C171.887 154.209 168.963 151.353 163.047 151.489C157.199 151.625 152.983 154.277 152.643 162.641C152.371 171.073 151.691 182.429 152.915 189.025C154.071 195.417 158.355 196.709 162.843 196.573ZM161.007 182.769C160.735 177.941 160.871 170.121 161.075 164.001C161.075 162.845 161.687 161.417 162.979 161.485C164.271 161.485 164.815 162.913 164.815 164.409C164.883 171.821 164.951 177.805 164.475 183.109C164.339 184.401 163.659 184.877 162.707 184.877C161.755 184.877 161.075 184.129 161.007 182.769Z" fill="white"/>
<path d="M186.205 196.641C194.365 196.505 197.425 192.493 197.153 182.021C197.017 176.377 195.589 172.977 192.937 171.005C194.161 169.781 195.249 166.789 195.181 164.137C194.977 156.521 191.781 152.305 185.797 152.237C183.825 152.169 177.637 152.237 176.753 152.237C176.821 159.989 176.685 169.985 176.753 174.473C176.821 178.961 176.413 194.057 176.413 196.573C179.133 196.505 182.057 196.709 186.205 196.641ZM184.913 159.853C187.021 159.921 187.905 160.669 188.109 163.933C188.245 166.993 187.021 167.809 184.981 167.877C184.981 165.293 184.981 162.437 184.913 159.853ZM184.981 187.325C184.981 185.625 185.117 180.797 185.049 177.533C187.497 177.669 189.129 178.349 189.129 182.157C189.129 186.713 187.361 187.257 184.981 187.325Z" fill="white"/>
<path d="M198.42 196.573C200.528 196.505 203.248 196.437 206.24 196.573L208.144 186.305C208.756 186.305 211.68 186.237 213.856 186.305C214.06 187.393 214.468 191.541 214.808 196.573C215.828 196.573 221.064 196.573 223.648 196.505C223.512 195.145 222.22 186.237 221.2 178.213C220.18 170.189 218.48 159.241 217.392 152.237C213.38 152.373 209.368 152.441 205.288 152.373C204.88 154.685 203.044 166.381 202.228 172.093C201.344 177.805 199.236 190.453 198.42 196.573ZM209.64 176.513C210.184 172.297 211.204 165.497 211.612 163.729C212.292 167.537 212.7 171.889 213.38 176.513C212.156 176.581 210.66 176.513 209.64 176.513Z" fill="white"/>
<path d="M243.77 196.437V187.325H235.202C235.134 179.913 235.542 162.505 235.474 152.033C233.162 152.033 228.402 151.897 226.294 152.033C226.226 153.325 225.954 169.441 226.022 174.269C226.09 179.097 225.818 192.629 225.954 196.233C227.858 196.301 236.562 196.233 243.77 196.437Z" fill="white"/>
<path d="M7.44434 252.505C9.14434 252.505 13.0203 252.709 16.2843 252.369C16.0803 246.997 16.2163 237.817 16.2843 234.689C16.8963 234.621 20.3643 234.553 22.6083 234.417C22.6083 233.465 22.6083 227.889 22.4723 225.985C21.6563 225.985 18.7323 225.917 16.4203 225.917C16.3523 224.897 16.2163 219.729 16.3523 216.941C17.1683 216.941 22.4723 216.873 24.7163 216.805C24.7163 215.785 24.7163 210.005 24.7843 208.237C23.7643 208.169 12.0003 208.169 7.64834 208.305C7.64834 210.345 7.51234 218.165 7.37634 224.285C7.30834 230.337 7.64834 243.461 7.44434 252.505Z" fill="white"/>
<path d="M37.2374 252.845C44.3094 252.709 46.3494 250.057 46.6894 241.693C46.9614 233.193 47.5734 221.837 46.4174 215.241C45.2614 208.849 42.7454 208.033 36.4894 208.101C32.0014 208.169 28.3974 209.529 27.6494 214.221C26.2894 222.653 26.4254 235.097 26.9014 242.237C27.4454 250.057 29.4854 252.981 37.2374 252.845ZM34.9254 239.313C34.8574 231.901 34.8574 225.917 35.3334 220.545C35.4014 219.253 36.1494 218.777 37.0334 218.777C37.9854 218.777 38.7334 219.525 38.7334 220.885C39.0054 225.713 38.8694 233.533 38.7334 239.721C38.6654 240.809 38.0534 242.305 36.7614 242.237C35.4694 242.169 34.9254 240.741 34.9254 239.313Z" fill="white"/>
<path d="M61.0756 252.573C65.5636 252.369 69.1676 250.737 69.9156 246.045C71.2756 237.613 71.1396 225.169 70.6636 218.029C70.1196 210.209 67.1956 207.353 61.2796 207.489C55.4316 207.625 51.2156 210.277 50.8756 218.641C50.6036 227.073 49.9236 238.429 51.1476 245.025C52.3036 251.417 56.5876 252.709 61.0756 252.573ZM59.2396 238.769C58.9676 233.941 59.1036 226.121 59.3076 220.001C59.3076 218.845 59.9196 217.417 61.2116 217.485C62.5036 217.485 63.0476 218.913 63.0476 220.409C63.1156 227.821 63.1836 233.805 62.7076 239.109C62.5716 240.401 61.8916 240.877 60.9396 240.877C59.9876 240.877 59.3076 240.129 59.2396 238.769Z" fill="white"/>
<path d="M84.3699 252.709C92.5299 252.641 94.5699 248.357 94.5019 239.857C94.5019 234.893 94.5019 232.785 94.4339 223.537C94.3659 214.357 92.5979 208.577 82.1259 208.305C80.0179 208.237 77.3659 208.373 74.6459 208.305C74.6459 210.821 75.1219 225.917 74.9859 230.405C74.9179 234.825 75.1219 244.889 74.9859 252.641C76.6859 252.641 81.3099 252.777 84.3699 252.709ZM82.5339 242.849C82.3979 238.497 82.3979 226.869 82.5339 218.029C84.9139 217.961 86.4099 218.845 86.4779 221.225C86.6819 225.577 86.6139 234.213 86.6139 240.061C86.6139 242.033 84.8459 242.849 82.5339 242.849Z" fill="white"/>
<path d="M116.92 252.709C122.768 252.709 126.032 249.785 126.168 240.469C126.304 227.209 114.404 224.353 114.54 219.049C114.608 217.213 114.812 215.649 116.58 215.581C118.552 215.581 118.892 217.349 118.756 220.341C119.64 220.477 124.468 220.341 125.896 220.409C125.692 211.841 124.672 207.353 116.24 207.353C108.896 207.353 105.768 210.141 105.632 217.893C105.428 230.677 117.736 232.649 117.736 240.061C117.736 241.353 118.008 243.937 115.628 244.005C113.112 244.073 113.248 241.557 113.248 237.817C112.5 237.749 107.604 237.681 105.836 237.681C105.836 250.397 107.672 252.709 116.92 252.709Z" fill="white"/>
<path d="M146.262 252.573C146.262 251.077 146.262 243.189 146.398 235.029C147.826 232.309 153.47 216.941 156.938 207.897C155.238 207.897 150.682 207.965 147.146 207.965C146.942 209.393 143.27 218.369 141.774 222.789C141.23 221.225 138.034 212.725 136.334 207.897C133.206 207.897 129.534 207.829 126.27 207.965C127.698 211.365 133.342 227.957 136.198 234.757C136.402 241.149 136.402 244.889 136.402 252.505C138.034 252.437 143.95 252.573 146.262 252.573Z" fill="white"/>
<path d="M167.297 252.981C174.641 252.981 177.905 248.085 177.905 240.333C177.905 227.209 165.257 225.101 165.325 219.661C165.393 218.369 165.189 215.989 167.637 215.989C169.677 215.989 170.017 218.097 169.949 220.205C170.697 220.273 175.321 220.341 177.089 220.341C177.361 212.453 174.777 207.761 167.297 207.761C161.449 207.761 157.097 210.549 157.097 219.865C157.165 232.649 169.065 234.553 169.065 239.789C169.065 241.625 168.793 243.665 167.093 243.733C165.053 243.733 164.781 241.625 164.917 237.409C164.033 237.341 159.069 237.341 157.641 237.341C157.369 248.153 158.865 252.981 167.297 252.981Z" fill="white"/>
<path d="M187.16 252.641C189.268 252.709 194.164 252.573 196.476 252.573C196.408 236.389 196.476 220.613 196.408 217.349H204.092C204.024 213.337 204.092 210.617 204.092 207.965C200.76 207.829 181.312 207.965 179.408 208.033C179.34 211.569 179.408 216.601 179.408 217.417C181.176 217.417 184.304 217.485 186.956 217.417C186.956 225.441 187.092 251.281 187.16 252.641Z" fill="white"/>
<path d="M224.881 252.437C224.949 249.445 224.881 245.433 224.813 244.005C222.093 244.073 217.469 244.073 215.905 244.073C215.837 241.965 215.837 234.281 215.837 233.261C218.149 233.329 220.189 233.261 220.869 233.261C220.869 230.473 221.005 226.121 220.937 225.169C219.101 225.033 216.381 225.033 215.633 225.033C215.633 221.837 215.769 217.893 215.769 216.329C218.897 216.261 223.521 216.261 224.881 216.329C224.881 213.065 224.881 210.073 224.745 207.965C222.229 207.829 208.765 208.033 206.861 207.965C206.929 218.165 206.861 225.373 206.997 233.533C207.201 241.693 207.065 249.853 207.133 252.369C209.853 252.505 223.385 252.505 224.881 252.437Z" fill="white"/>
<path d="M227.916 252.709C230.636 252.641 234.444 252.437 236.552 252.437C236.62 251.621 236.552 239.653 236.824 234.417C237.504 237.205 240.02 246.861 241.312 252.573C242.468 252.505 245.732 252.845 248.044 252.573C248.452 251.281 250.152 241.081 251.716 234.417C251.716 236.389 251.988 248.425 251.988 252.709C253.688 252.641 257.904 252.709 260.556 252.505C260.692 250.601 260.42 215.173 260.216 208.237C259.128 208.169 253.552 207.965 250.764 208.101C250.492 209.665 246.82 223.333 244.916 228.569C244.032 226.393 239.68 213.201 237.776 208.169C235.464 208.101 230.908 207.897 228.324 208.169C228.46 210.073 227.916 221.973 227.984 228.841C228.052 235.709 227.44 246.521 227.916 252.709Z" fill="white"/>
<path d="M468.525 506.73C469.065 506.16 469.905 505.41 470.625 504.72C468.915 502.74 466.395 498.81 466.575 493.95C466.725 489 468.885 485.37 470.505 483.57C469.785 483 468.885 482.52 467.955 481.89C465.765 484.59 463.365 489.24 463.665 494.79C463.965 500.58 466.785 504.75 468.525 506.73Z" fill="black"/>
<path d="M474.98 504.03C478.55 504 479.33 500.1 479.06 493.11C477.38 493.14 476.27 493.11 474.77 493.14C474.71 494.01 474.77 495.87 474.77 496.17C475.16 496.17 475.76 496.2 475.76 496.2C475.79 498.3 475.7 499.68 474.86 499.68C473.96 499.68 473.57 499.11 473.63 493.89C473.69 489.66 473.72 488.67 474.74 488.64C475.79 488.58 475.64 490.2 475.67 491.07C476.09 491.07 478.16 491.07 478.94 491.1C478.94 486.21 478.46 484.11 475.01 484.17C471.56 484.23 470 486.57 469.97 493.83C469.94 502.44 471.17 504.06 474.98 504.03Z" fill="black"/>
<path d="M484.446 504.03C484.446 502.59 484.476 500.46 484.417 498.78C484.867 499.71 485.587 502.26 486.247 504.03C486.727 504 488.707 504 490.177 504.03C489.937 503.16 488.376 499.02 487.506 496.62C488.226 495.84 489.486 495.12 489.456 491.04C489.396 486.96 488.257 484.35 485.017 484.29C483.187 484.29 481.867 484.32 480.667 484.29C480.667 485.4 480.756 492.06 480.726 494.04C480.696 496.02 480.756 500.58 480.726 504C481.476 504 483.396 504.06 484.446 504.03ZM484.507 488.37C485.677 488.34 486.126 488.94 486.066 490.65C485.976 492.33 485.706 493.14 484.536 493.2C484.476 491.31 484.507 489.12 484.507 488.37Z" fill="black"/>
<path d="M491.038 504.03C491.908 504 497.998 503.94 499.108 503.88C499.078 503.37 499.138 501.09 498.988 499.98C498.388 500.01 496.168 500.04 494.818 500.01C494.818 499.35 494.788 496.77 494.788 495.36C495.088 495.36 496.318 495.36 497.128 495.27C497.128 494.88 497.098 492.96 497.098 491.7C496.768 491.7 495.868 491.67 494.848 491.7C494.848 491.28 494.758 489.12 494.788 488.16C495.478 488.16 497.668 488.1 498.868 488.1C498.928 487.47 498.868 485.7 498.838 484.38C498.178 484.35 492.208 484.35 491.008 484.38C490.978 485.52 491.098 489.09 491.038 492.69C490.948 496.29 491.038 500.85 491.038 504.03Z" fill="black"/>
<path d="M508.304 503.97C508.334 502.65 508.304 500.88 508.274 500.25C507.074 500.28 505.034 500.28 504.344 500.28C504.314 499.35 504.314 495.96 504.314 495.51C505.334 495.54 506.234 495.51 506.534 495.51C506.534 494.28 506.594 492.36 506.564 491.94C505.754 491.88 504.554 491.88 504.224 491.88C504.224 490.47 504.284 488.73 504.284 488.04C505.664 488.01 507.704 488.01 508.304 488.04C508.304 486.6 508.304 485.28 508.244 484.35C507.134 484.29 501.194 484.38 500.354 484.35C500.384 488.85 500.354 492.03 500.414 495.63C500.504 499.23 500.444 502.83 500.474 503.94C501.674 504 507.644 504 508.304 503.97Z" fill="black"/>
<path d="M519.513 504.12C519.513 503.37 519.543 498.06 519.543 495C519.543 491.91 519.603 487.08 519.543 484.53C518.583 484.53 517.173 484.5 515.943 484.5C515.883 485.28 516.003 489.78 516.033 491.58C515.043 489.57 513.963 487.08 512.883 484.44C512.283 484.44 510.753 484.41 509.553 484.44C509.553 485.22 509.613 490.32 509.583 493.74C509.523 497.49 509.643 500.43 509.583 504.06C510.033 504.09 511.893 504.06 513.303 504.06C513.303 501.18 513.273 498.69 513.273 496.47C514.173 498.72 515.253 500.88 516.333 504.06C517.023 504.09 518.193 504.12 519.513 504.12Z" fill="black"/>
<path d="M525.051 504.03C525.111 502.5 525.141 498.12 525.171 496.14C525.741 496.11 527.091 496.14 527.571 496.14C527.541 496.95 527.541 501.87 527.601 503.94C528.291 503.97 529.731 503.97 531.171 503.94C531.171 503.19 531.261 498 531.261 494.91C531.261 491.82 531.231 486.99 531.171 484.41C530.481 484.35 528.891 484.38 527.631 484.38C527.571 485.16 527.691 489.39 527.601 491.7C527.181 491.73 525.741 491.7 525.051 491.67C525.051 491.16 525.021 485.76 525.081 484.35C524.481 484.35 522.651 484.29 521.421 484.32C521.421 485.1 521.301 489.96 521.301 493.38C521.301 499.23 521.361 501.36 521.301 503.97C521.751 504 523.641 504.03 525.051 504.03Z" fill="black"/>
<path d="M537.551 504.03C539.531 503.94 541.121 503.22 541.451 501.15C542.051 497.43 541.991 491.94 541.781 488.79C541.541 485.34 540.251 484.08 537.641 484.14C535.061 484.2 533.201 485.37 533.051 489.06C532.931 492.78 532.631 497.79 533.171 500.7C533.681 503.52 535.571 504.09 537.551 504.03ZM536.741 497.94C536.621 495.81 536.681 492.36 536.771 489.66C536.771 489.15 537.041 488.52 537.611 488.55C538.181 488.55 538.421 489.18 538.421 489.84C538.451 493.11 538.481 495.75 538.271 498.09C538.211 498.66 537.911 498.87 537.491 498.87C537.071 498.87 536.771 498.54 536.741 497.94Z" fill="black"/>
<path d="M548.398 504.03C550.438 503.94 552.028 503.28 552.478 501.15C553.168 497.88 552.928 487.71 552.778 484.35H549.238C549.268 487.59 549.328 495.48 549.118 497.85C549.088 498.42 548.758 498.66 548.338 498.66C547.888 498.66 547.588 498.33 547.558 497.7C547.438 495.63 547.348 487.08 547.438 484.35H543.568C543.568 489.81 543.358 497.82 543.868 500.55C544.378 503.46 546.358 504.09 548.398 504.03Z" fill="black"/>
<path d="M559.2 504.09C561.78 504.09 563.22 502.8 563.28 498.69C563.34 492.84 558.09 491.58 558.15 489.24C558.18 488.43 558.27 487.74 559.05 487.71C559.92 487.71 560.07 488.49 560.01 489.81C560.4 489.87 562.53 489.81 563.16 489.84C563.07 486.06 562.62 484.08 558.9 484.08C555.66 484.08 554.28 485.31 554.22 488.73C554.13 494.37 559.56 495.24 559.56 498.51C559.56 499.08 559.68 500.22 558.63 500.25C557.52 500.28 557.58 499.17 557.58 497.52C557.25 497.49 555.09 497.46 554.31 497.46C554.31 503.07 555.12 504.09 559.2 504.09Z" fill="black"/>
<path d="M564.486 504.03C565.356 504 571.446 503.94 572.556 503.88C572.526 503.37 572.586 501.09 572.436 499.98C571.836 500.01 569.616 500.04 568.266 500.01C568.266 499.35 568.236 496.77 568.236 495.36C568.536 495.36 569.766 495.36 570.576 495.27C570.576 494.88 570.546 492.96 570.546 491.7C570.216 491.7 569.316 491.67 568.296 491.7C568.296 491.28 568.206 489.12 568.236 488.16C568.926 488.16 571.116 488.1 572.316 488.1C572.376 487.47 572.316 485.7 572.286 484.38C571.626 484.35 565.656 484.35 564.456 484.38C564.426 485.52 564.546 489.09 564.486 492.69C564.396 496.29 564.486 500.85 564.486 504.03Z" fill="black"/>
<path d="M582.231 504C586.191 504.06 586.611 501.6 586.611 493.5C586.221 493.53 584.901 493.44 582.441 493.44C582.351 494.13 582.441 496.08 582.441 496.08C582.441 496.08 582.981 496.08 583.311 496.11C583.371 497.61 583.251 499.56 582.231 499.53C581.181 499.47 581.181 498.48 581.121 494.25C581.031 489.03 581.451 488.46 582.321 488.46C582.981 488.46 583.191 489.54 583.131 490.83C584.301 490.8 585.201 490.83 586.521 490.83C586.311 486.51 586.251 484.38 582.981 484.29C578.391 484.17 577.431 485.7 577.461 494.34C577.461 501.6 578.121 503.94 582.231 504Z" fill="black"/>
<path d="M586.997 504.03C587.927 504 589.127 503.97 590.447 504.03L591.287 499.5C591.557 499.5 592.847 499.47 593.807 499.5C593.897 499.98 594.077 501.81 594.227 504.03C594.677 504.03 596.987 504.03 598.127 504C598.067 503.4 597.497 499.47 597.047 495.93C596.597 492.39 595.847 487.56 595.367 484.47C593.597 484.53 591.827 484.56 590.027 484.53C589.847 485.55 589.037 490.71 588.677 493.23C588.287 495.75 587.357 501.33 586.997 504.03ZM591.947 495.18C592.187 493.32 592.637 490.32 592.817 489.54C593.117 491.22 593.297 493.14 593.597 495.18C593.057 495.21 592.397 495.18 591.947 495.18Z" fill="black"/>
<path d="M603.134 504.21C606.374 504.21 607.814 502.05 607.814 498.63C607.814 492.84 602.234 491.91 602.264 489.51C602.294 488.94 602.204 487.89 603.284 487.89C604.184 487.89 604.334 488.82 604.304 489.75C604.634 489.78 606.674 489.81 607.454 489.81C607.574 486.33 606.434 484.26 603.134 484.26C600.554 484.26 598.634 485.49 598.634 489.6C598.664 495.24 603.914 496.08 603.914 498.39C603.914 499.2 603.794 500.1 603.044 500.13C602.144 500.13 602.024 499.2 602.084 497.34C601.694 497.31 599.504 497.31 598.874 497.31C598.754 502.08 599.414 504.21 603.134 504.21Z" fill="black"/>
<path d="M620.716 503.97C620.746 502.65 620.716 500.88 620.686 500.25C619.486 500.28 617.446 500.28 616.756 500.28C616.726 499.35 616.726 495.96 616.726 495.51C617.746 495.54 618.646 495.51 618.946 495.51C618.946 494.28 619.006 492.36 618.976 491.94C618.166 491.88 616.966 491.88 616.636 491.88C616.636 490.47 616.696 488.73 616.696 488.04C618.076 488.01 620.116 488.01 620.716 488.04C620.716 486.6 620.716 485.28 620.656 484.35C619.546 484.29 613.606 484.38 612.766 484.35C612.796 488.85 612.766 492.03 612.826 495.63C612.916 499.23 612.856 502.83 612.886 503.94C614.086 504 620.056 504 620.716 503.97Z" fill="black"/>
<path d="M622.055 504.09C623.255 504.06 624.935 503.97 625.865 503.97C625.895 503.61 625.865 498.33 625.985 496.02C626.285 497.25 627.395 501.51 627.965 504.03C628.475 504 629.915 504.15 630.935 504.03C631.115 503.46 631.865 498.96 632.555 496.02C632.555 496.89 632.675 502.2 632.675 504.09C633.425 504.06 635.285 504.09 636.455 504C636.515 503.16 636.395 487.53 636.305 484.47C635.825 484.44 633.365 484.35 632.135 484.41C632.015 485.1 630.395 491.13 629.555 493.44C629.165 492.48 627.245 486.66 626.405 484.44C625.385 484.41 623.375 484.32 622.235 484.44C622.295 485.28 622.055 490.53 622.085 493.56C622.115 496.59 621.845 501.36 622.055 504.09Z" fill="black"/>
<path d="M638.225 504.03C639.395 504.06 641.135 504 642.365 504C642.365 503.19 642.275 498.93 642.275 496.2C642.275 493.44 642.425 486.81 642.305 484.5C641.465 484.47 639.335 484.44 638.345 484.5C638.345 485.22 638.285 489.54 638.285 492.33C638.285 495.12 638.225 499.95 638.225 504.03Z" fill="black"/>
<path d="M648.614 504.09C651.194 504.09 652.634 502.8 652.694 498.69C652.754 492.84 647.504 491.58 647.564 489.24C647.594 488.43 647.684 487.74 648.464 487.71C649.334 487.71 649.484 488.49 649.424 489.81C649.814 489.87 651.944 489.81 652.574 489.84C652.484 486.06 652.034 484.08 648.314 484.08C645.074 484.08 643.694 485.31 643.634 488.73C643.544 494.37 648.974 495.24 648.974 498.51C648.974 499.08 649.094 500.22 648.044 500.25C646.934 500.28 646.994 499.17 646.994 497.52C646.664 497.49 644.504 497.46 643.724 497.46C643.724 503.07 644.534 504.09 648.614 504.09Z" fill="black"/>
<path d="M657.89 504.21C661.13 504.21 662.57 502.05 662.57 498.63C662.57 492.84 656.99 491.91 657.02 489.51C657.05 488.94 656.96 487.89 658.04 487.89C658.94 487.89 659.09 488.82 659.06 489.75C659.39 489.78 661.43 489.81 662.21 489.81C662.33 486.33 661.19 484.26 657.89 484.26C655.31 484.26 653.39 485.49 653.39 489.6C653.42 495.24 658.67 496.08 658.67 498.39C658.67 499.2 658.55 500.1 657.8 500.13C656.9 500.13 656.78 499.2 656.84 497.34C656.45 497.31 654.26 497.31 653.63 497.31C653.51 502.08 654.17 504.21 657.89 504.21Z" fill="black"/>
<path d="M663.773 503.94C664.613 504 666.773 504 667.733 503.94C667.733 503.22 667.823 498.9 667.823 496.11C667.823 493.32 667.883 488.52 667.883 484.41C666.713 484.38 664.973 484.44 663.743 484.44C663.713 485.25 663.833 489.51 663.833 492.24C663.833 495 663.683 501.66 663.773 503.94Z" fill="black"/>
<path d="M674.221 504.15C677.341 504.09 678.241 502.92 678.391 499.23C678.511 495.48 678.781 490.47 678.271 487.56C677.761 484.74 676.651 484.38 673.891 484.41C671.911 484.44 670.321 485.04 669.991 487.11C669.391 490.83 669.451 496.32 669.661 499.47C669.901 502.92 670.801 504.21 674.221 504.15ZM673.201 498.18C673.171 494.91 673.171 492.27 673.381 489.9C673.411 489.33 673.741 489.12 674.131 489.12C674.551 489.12 674.881 489.45 674.881 490.05C675.001 492.18 674.941 495.63 674.881 498.36C674.851 498.84 674.581 499.5 674.011 499.47C673.441 499.44 673.201 498.81 673.201 498.18Z" fill="black"/>
<path d="M686.868 504.03C687.468 504.03 688.998 504.06 690.228 504.03C690.228 503.25 690.138 498.18 690.168 494.76C690.228 491.01 690.168 488.1 690.258 484.47C689.808 484.44 687.918 484.41 686.538 484.44C686.538 487.29 686.628 490.89 686.628 493.14C685.698 490.89 684.498 487.59 683.418 484.41C682.728 484.38 681.558 484.38 680.238 484.38C680.238 485.13 680.208 490.41 680.208 493.5C680.208 496.59 680.148 501.39 680.208 503.97H683.808C683.868 503.19 683.778 497.7 683.718 495.9C684.858 498.87 685.698 500.67 686.868 504.03Z" fill="black"/>
<path d="M696.485 504.09C699.065 504.09 700.505 502.8 700.565 498.69C700.625 492.84 695.375 491.58 695.435 489.24C695.465 488.43 695.555 487.74 696.335 487.71C697.205 487.71 697.355 488.49 697.295 489.81C697.685 489.87 699.815 489.81 700.445 489.84C700.355 486.06 699.905 484.08 696.185 484.08C692.945 484.08 691.565 485.31 691.505 488.73C691.415 494.37 696.845 495.24 696.845 498.51C696.845 499.08 696.965 500.22 695.915 500.25C694.805 500.28 694.865 499.17 694.865 497.52C694.535 497.49 692.375 497.46 691.595 497.46C691.595 503.07 692.405 504.09 696.485 504.09Z" fill="black"/>
<path d="M702.438 506.73C704.208 504.75 707.028 500.58 707.328 494.79C707.598 489.24 705.228 484.59 703.008 481.89C702.078 482.52 701.208 483 700.488 483.57C702.078 485.37 704.238 489 704.418 493.95C704.598 498.81 702.048 502.74 700.368 504.72C701.088 505.41 701.898 506.16 702.438 506.73Z" fill="black"/>
</svg>
