<?xml version="1.0" encoding="UTF-8"?>
<svg id="Layer_2" data-name="Layer 2" xmlns="http://www.w3.org/2000/svg" viewBox="0 0 489.56 510.05">
  <defs>
    <style>
      .cls-1 {
        fill: #98c5d3;
      }

      .cls-1, .cls-2, .cls-3 {
        stroke-width: 0px;
      }

      .cls-2 {
        fill: #000;
      }

      .cls-3 {
        fill: #fff;
      }
    </style>
  </defs>
  <g id="Layer_1-2" data-name="Layer 1">
    <g>
      <polygon class="cls-3" points="0 193.54 0 470.05 132.5 470.05 159.13 510.05 185.5 470.05 318.01 470.05 318.01 193.54 0 193.54"/>
      <g>
        <path class="cls-1" d="M455.19,47.99c-.2-.2-.4-.4-.59-.6-.18-.18-.36-.36-.54-.54-.19-.19-.38-.38-.56-.56-.2-.2-.4-.4-.59-.6-.18-.18-.36-.36-.54-.54-.19-.19-.39-.39-.58-.58-.18-.19-.37-.37-.55-.55-.2-.2-.4-.4-.59-.6-.18-.18-.36-.36-.54-.54-.19-.19-.39-.39-.58-.58-.18-.19-.37-.37-.55-.55-.2-.2-.4-.4-.59-.6-.18-.18-.36-.36-.54-.54-.19-.19-.39-.39-.58-.58-.19-.19-.39-.39-.58-.58-.18-.18-.35-.35-.53-.53-.2-.2-.39-.39-.59-.59-.18-.19-.37-.37-.55-.55-.2-.2-.4-.4-.59-.6-.18-.18-.36-.36-.54-.54-.19-.19-.39-.39-.58-.58-.18-.19-.37-.37-.55-.55-.2-.2-.4-.4-.59-.6C421.05,13.72,391.88.57,359.69.57c-64.11,0-116.26,52.15-116.26,116.26,0,29.02,10.79,56.82,30.38,78.29,1.14,1.25,2.31,2.46,3.5,3.66.18.19.37.37.55.55.19.19.39.39.58.58.18.19.37.37.55.55.19.19.39.39.58.58.18.19.37.37.55.55.19.19.39.39.58.58.18.18.37.37.55.55.19.2.39.39.58.59.19.19.38.38.57.57.18.19.37.37.55.55.19.19.39.39.58.58.18.19.37.37.55.55.19.19.39.39.58.58.18.19.37.37.55.55.19.19.39.39.58.58.18.19.37.37.55.55.19.19.39.39.58.58.18.19.37.37.55.55.19.19.39.39.58.58.18.19.37.37.55.55.19.19.38.38.57.57.19.19.38.38.57.57.18.19.37.37.55.55,12.58,12.8,28.03,22.55,44.85,28.43v20.53h-35.37c-8,0-14.5,6.5-14.5,14.5v20c0,4.14,1.75,7.87,4.55,10.52.18.19.37.38.57.57.18.19.37.38.57.57.18.19.37.38.57.57.18.19.37.38.57.57.18.19.37.38.57.57.18.19.37.38.57.57.18.19.37.38.57.57.18.19.37.38.57.57.19.2.38.39.57.57.18.19.37.38.56.56.19.2.38.39.58.58.18.19.37.38.56.56.19.2.38.39.58.58.18.19.37.38.56.56.19.2.38.39.57.57.18.19.37.38.57.57.18.19.37.38.57.57.18.19.37.38.57.57.18.19.37.38.57.57.18.19.37.38.57.57.18.19.37.38.57.57.19.2.38.39.57.57.18.19.37.38.56.56,2.65,2.8,6.38,4.55,10.52,4.55h21.76v27.28c0,4.14,1.75,7.87,4.55,10.52.18.19.37.38.56.56.19.2.38.39.58.58.18.19.37.38.56.56.19.2.38.39.58.58.18.19.37.38.56.56.19.2.38.39.58.58.18.19.37.38.56.56.19.2.38.39.58.58.18.19.37.38.56.56.18.19.37.38.57.57.18.19.37.38.57.57.18.19.37.38.57.57.18.19.37.38.57.57.18.19.37.38.56.56.19.2.38.39.58.58.18.19.37.38.56.56.19.2.38.39.58.58.18.19.37.38.56.56.19.2.38.39.58.58.18.19.37.38.56.56.19.2.38.39.58.58.18.19.37.38.56.56.18.19.37.38.57.57,2.64,2.79,6.38,4.55,10.52,4.55h20c8,0,14.5-6.5,14.5-14.5v-40.88h36.48c8,0,14.5-6.5,14.5-14.5v-20c0-4.14-1.75-7.87-4.54-10.51-.19-.2-.38-.39-.58-.58-.18-.19-.37-.38-.56-.56-.18-.19-.37-.38-.57-.57-.18-.19-.37-.38-.57-.57-.18-.19-.37-.38-.57-.57-.18-.19-.37-.38-.57-.57-.18-.19-.37-.38-.57-.57-.18-.19-.37-.38-.57-.57-.18-.19-.37-.38-.56-.56-.19-.2-.38-.39-.58-.58-.18-.19-.37-.38-.56-.56-.19-.2-.38-.39-.58-.58-.18-.19-.37-.38-.56-.56-.19-.2-.38-.39-.58-.58-.18-.19-.37-.38-.56-.56-.18-.19-.37-.38-.57-.57-.18-.19-.37-.38-.57-.57-.18-.19-.37-.38-.57-.57-.18-.19-.37-.38-.57-.57-.18-.19-.37-.38-.57-.57-.18-.19-.37-.38-.57-.57-.18-.19-.37-.38-.57-.57-.18-.19-.37-.38-.57-.57-2.64-2.79-6.38-4.55-10.52-4.55h-22.88v-16.68c23.43-5.06,45.11-17.53,61.38-35.36,19.59-21.47,30.38-49.28,30.38-78.29,0-32.19-13.15-61.37-34.37-82.44Z"/>
        <g>
          <path class="cls-1" d="M369.12,364.59h-20c-8,0-14.5-6.5-14.5-14.5v-40.88h-35.37c-8,0-14.5-6.5-14.5-14.5v-20c0-8,6.5-14.5,14.5-14.5h35.37v-30.29c-23.43-5.06-45.11-17.53-61.38-35.36-19.59-21.47-30.38-49.28-30.38-78.29C242.86,52.15,295.02,0,359.12,0s116.26,52.15,116.26,116.26c0,29.02-10.79,56.82-30.38,78.29-16.27,17.83-37.95,30.3-61.38,35.36v30.29h36.48c8,0,14.5,6.5,14.5,14.5v20c0,8-6.5,14.5-14.5,14.5h-36.48v40.88c0,8-6.5,14.5-14.5,14.5ZM299.26,269.21c-3.03,0-5.5,2.47-5.5,5.5v20c0,3.03,2.47,5.5,5.5,5.5h39.87c2.49,0,4.5,2.01,4.5,4.5v45.38c0,3.03,2.47,5.5,5.5,5.5h20c3.03,0,5.5-2.47,5.5-5.5v-45.38c0-2.49,2.01-4.5,4.5-4.5h40.98c3.03,0,5.5-2.47,5.5-5.5v-20c0-3.03-2.47-5.5-5.5-5.5h-40.98c-2.49,0-4.5-2.01-4.5-4.5v-38.48c0-2.18,1.56-4.04,3.7-4.43,23.24-4.22,44-15.73,60.04-33.31,18.08-19.81,28.03-45.46,28.03-72.23,0-59.14-48.12-107.26-107.26-107.26s-107.26,48.12-107.26,107.26c0,26.77,9.95,52.42,28.03,72.23,16.03,17.57,36.79,29.09,60.04,33.31,2.14.39,3.7,2.25,3.7,4.43v38.48c0,2.49-2.01,4.5-4.5,4.5h-39.87Z"/>
          <path class="cls-3" d="M349.12,360.09c-5.52,0-10-4.48-10-10v-45.38h-39.87c-5.52,0-10-4.48-10-10v-20c0-5.52,4.48-10,10-10h39.87v-38.48c-23.97-4.35-45.92-16.47-62.56-34.7-18.83-20.64-29.21-47.37-29.21-75.26,0-61.63,50.14-111.76,111.76-111.76s111.76,50.14,111.76,111.76c0,27.89-10.37,54.62-29.21,75.26-16.64,18.23-38.59,30.35-62.56,34.7v38.48h40.98c5.52,0,10,4.48,10,10v20c0,5.52-4.48,10-10,10h-40.98v45.38c0,5.52-4.48,10-10,10h-20Z"/>
        </g>
      </g>
      <path class="cls-2" d="M460.89,116.26c0-56.11-45.65-101.76-101.76-101.76s-101.76,45.65-101.76,101.76c0,52.74,40.33,96.23,91.76,101.27v57.18h-49.87v20h49.87v55.38h20v-55.38h50.98v-20h-50.98v-57.18c51.44-5.04,91.76-48.53,91.76-101.27ZM277.36,116.26c0-45.08,36.68-81.76,81.76-81.76s81.76,36.68,81.76,81.76-36.68,81.76-81.76,81.76-81.76-36.68-81.76-81.76Z"/>
    </g>
  </g>
</svg>