<svg xmlns="http://www.w3.org/2000/svg" width="790.175" height="300.645" viewBox="0 0 790.175 300.645">
  <g id="kott-mjolk" transform="translate(-11.935 316.287) rotate(-90)">
    <path id="Path_51" data-name="Path 51" d="M279.259,151.085c-20.636-7.545-64.739-15.657-126.941-15.657S46.01,143.54,25.374,151.085c-5.648,2.068-6.109,9.482-1,11.419,20.189,7.654,64.713,16.031,127.94,16.031S260.07,170.158,280.255,162.5C285.369,160.567,284.907,153.153,279.259,151.085Z" transform="translate(13.647 325.324)" fill="#8abeca"/>
    <path id="Path_52" data-name="Path 52" d="M181.414,86.076c7.41,0,15.144-10.674,15.2-20.243.036-6.466.153-25.862.193-32.324A21.271,21.271,0,0,0,175.69,12.135L155.422,12.1,73.1,11.964l-17.2-.029A21.271,21.271,0,0,0,34.71,33.24c.015,6.462.069,25.862.084,32.324.025,9.573,7.069,20.294,15.133,20.294S174.008,86.076,181.414,86.076Z" transform="translate(50.232 0)" fill="#fff"/>
    <ellipse id="Ellipse_1" data-name="Ellipse 1" cx="42.345" cy="8.307" rx="42.345" ry="8.307" transform="translate(123.619 473.999)" fill="#fff"/>
    <path id="Path_53" data-name="Path 53" d="M316.287,348.757c0,17.925-67.3,32.455-150.324,32.455s-150.32-14.53-150.32-32.455l.531-66.174c.087-51.691,14.679-90.1,27.123-116.594,10.547-22.46,20.56-39.829,29.395-55.151,5.241-9.093,10.191-17.681,14.523-26.1,5.506-10.7,11.3-28.453,13.273-49.551l132.25-.4c1.85,21.374,7.643,39.4,13.164,50.212,4.307,8.435,9.228,17.038,14.439,26.146,8.784,15.355,18.742,32.756,29.213,55.249,12.357,26.538,26.822,64.99,26.734,116.685Z" transform="translate(0 60.206)" fill="#fff"/>
    <g id="Group_10" data-name="Group 10" transform="translate(46.178 316.159)">
      <g id="Group_6" data-name="Group 6">
        <path id="Path_54" data-name="Path 54" d="M79.017,163.22l-.6-1.188.142-1.1c-.033-.334-.069-.669-.105-1l-.978-.861.709-4.874c.015-.781.029-1.566.044-2.348L78,150.58c.254-.338.509-.68.763-1.021q-.354-1.1-.705-2.192l.88-.64-1.225-1.014c-.076-.378-.153-.76-.229-1.141q.4-1.128.789-2.261l.145-1.1-.607-.941c.331-.04.665-.084,1-.127-.185-1.221-.367-2.439-.552-3.66l-.6-1.065.887-.883.145-1.221q-.463-1.854-.93-3.707c.091-.36.178-.723.269-1.083l1.014-1.116c-.24-.36-.483-.72-.723-1.079q-.42-1.041-.832-2.082c-.029-.749-.058-1.494-.084-2.242q.425-3.042.85-6.091c-.065-.832-.134-1.668-.2-2.5-.2-.4-.4-.792-.6-1.192l.018-1.108q.333-1.139.661-2.279l.022-1.232-.72-1.33L75.6,104.315q-1.783-.9-3.569-1.817-3.151-.66-6.3-1.352l-.88.621c-.371.069-.745.142-1.119.211q-1.237-.114-2.475-.236l-1.123.327-1.759,1.221-.632.894q-.463,1.723-.93,3.449c-.494-.116-.985-.236-1.479-.356-.254.294-.509.585-.76.876-.174.425-.349.85-.52,1.276.24.371.483.741.727,1.109.367.142.734.283,1.1.422l.1,1.381-.149,1.337-.636,1.141-.887.974.6,1.334-.145,1.218-.389.927-.022,1.112.843,1.374q-.818.927-1.643,1.846l-.516,1.156c-.407-.233-.818-.462-1.225-.694l-.6-1.09q-.343-1.794-.68-3.58l-1.094-1.174c-.156-.4-.313-.8-.472-1.2l.025-1.359.414-2.53-.1-1.134-.723-1.112c.334-.356.672-.712,1.01-1.072l-.105-1.134q-.594-1.15-1.2-2.308c-.076-.382-.149-.767-.225-1.152.254-.411.509-.821.767-1.232-.076-.429-.153-.854-.229-1.279l-.6-1.214c-.411-.193-.818-.389-1.228-.581-.451-.116-.9-.236-1.352-.356-.367-.229-.734-.462-1.1-.691L44.1,98.594c-.451-.164-.9-.327-1.352-.487-.407-.24-.814-.48-1.221-.716-.371-.149-.738-.3-1.1-.451-.414.051-.825.1-1.239.145q-.605-.545-1.218-1.09c-.407-.116-.818-.236-1.228-.352q-2.11.534-4.216,1.05c-.411-.16-.818-.323-1.225-.487-.294.273-.585.545-.88.818-.821,0-1.646,0-2.468,0l-.745.342-.025,1.356-1,.789q.082,2.371.16,4.743-.027,1.728-.062,3.456-.262,1-.527,2l.6.992.222,1.283-.025,1.359-.876.81.1,1.385c.313.89.625,1.777.938,2.668.076.429.153.858.225,1.286l-.512,1.134q-.229,2.371-.454,4.739c-.189,1.2-.371,2.4-.56,3.605q-.512,1.129-1.025,2.264l.6.992.084,2.126c.367.2.731.4,1.1.6q-.033,1.913-.069,3.827c-.211.371-.422.738-.632,1.108l-.876.687c.283.305.563.611.847.916.116.356.233.712.349,1.065l-.164,2.2c-.185,1.2-.371,2.4-.556,3.6l-.876.683-.142.963q.354,1.188.7,2.377c.073.429.149.854.222,1.283-.131.389-.262.774-.389,1.159l.836,1.414c-.178.709-.353,1.414-.531,2.122.28.469.556.938.836,1.41l-.752.712-.142,1.083c.189.869.382,1.734.571,2.6l-.022,1.112-.632.985c.731.44,1.465.88,2.2,1.316.691.556,1.377,1.108,2.068,1.661l1.1.589c.327.109.651.214.978.32l1.116-.153q1.123-.649,2.246-1.3l.018-.989c-.2-.407-.4-.818-.6-1.228l-.345-1.308.516-1.138-.476-1.207.512-.77.752-.723-.1-1.134c-.243-.418-.483-.836-.723-1.254l-.469-1.207-.1-1.258c.1-.85.193-1.7.291-2.548l.683-3.46-.6-1.108-.105-1.134c.087-.316.178-.629.265-.941.342-.636.683-1.276,1.025-1.912q-.474-1.39-.941-2.78c-.149-.774-.3-1.545-.451-2.319l-.469-1.33.389-1.163c.425-.661.847-1.323,1.272-1.988l.262-.938c-.156-.32-.316-.64-.476-.959l.636-1-.225-1.159c-.2-.367-.4-.734-.6-1.1-.116-.393-.233-.789-.349-1.181l.64-1.239-.1-1.261c-.356-.85-.709-1.7-1.065-2.559l.164-2.322q-.1-1.259-.2-2.519c-.149-.77-.3-1.545-.451-2.315q.016-1.112.04-2.224c.127-.385.258-.774.389-1.163.211-.331.422-.661.636-.992.534-.105,1.072-.207,1.61-.313l.258-.694q-1.45-1.516-2.907-3.035l-.1-1.138.509-.89,1-.676q1.237-.256,2.482-.52,1.232.043,2.468.084l.342,1.552.72,1.123c.367.273.734.545,1.1.814l1.345.741.2,2.511-.872.342,1.094,1.061.469,1.323-.022,1.236-.389,1.167c.407.323.81.643,1.218.963l.353,1.05-.142,1.09-.658,2.115.229,1.032c.323.389.643.774.97,1.159l-.876.469c.065,1.127.124,2.253.189,3.376.4.36.81.72,1.214,1.079l.349,1.177-.411,2.406c-.007.411-.015.825-.025,1.236.523.752,1.047,1.5,1.57,2.253l.825,2.37q1.085,1.608,2.17,3.213l.974.781,1.232.447q.818-.736,1.639-1.472c.382-.683.767-1.367,1.148-2.05q.654-1.755,1.3-3.511l1.243-.305.262-.829c-.273-.949-.545-1.9-.814-2.849l.022-1.239.505-.661c.331.051.661.1.992.149l-.229-1.149c.458-.178.916-.36,1.37-.538l.018-.988q-.284-1.221-.574-2.442c.254-.331.509-.665.76-1-.4-.349-.81-.7-1.218-1.05.222-.792.44-1.585.661-2.381q.578-1.025,1.156-2.057l.389-1.058.883-.981.516-1.043c.058-.818.113-1.635.171-2.453.218-.792.44-1.588.661-2.38.254-.378.509-.756.763-1.13l1.007-.847c.291-.044.581-.087.872-.127l.985.385q1.957,1.635,3.914,3.256l-.018.989-.76.767-.142.97c-.131.356-.262.709-.393,1.065l-.018.989c.327.331.651.665.978,1-.382.447-.763.89-1.141,1.337.244.24.487.476.731.716l.105,1-.149,1.345-.669,2.639c-.047.447-.1.894-.145,1.341.367.338.73.68,1.1,1.018q.414,1.292.821,2.584l-.636,1.032.327,2.4-.018,1.112-.389.818-1.374.556c.28.411.563.821.843,1.232l.105,1.25-.269,1.079L70.1,141.4l.97,1.123c-.378.32-.756.643-1.134.963l-.269,1.079.229,1.148q.474,1.178.952,2.355l.229,1.021c-.131.356-.262.709-.393,1.065-.418.273-.836.549-1.257.821L69.9,152.4c-.262.789-.523,1.581-.789,2.37l.076,2.74.222,1.392c-.171.305-.342.614-.512.923q.349,1.347.694,2.693l-.142,1.1c-.5.1-1,.2-1.494.291q-.087,1.417-.174,2.828l.353,1.163c.367.258.734.512,1.1.771.073.462.149.927.222,1.392-.334.287-.672.571-1.007.854l.472,1.428.727.963c.611.538,1.221,1.072,1.832,1.61l.85,1.1,1.483.316c.374-.116.749-.236,1.123-.353.709-.367,1.421-.73,2.13-1.1.458.058.912.113,1.367.167l-.349-1.407c.007-.411.015-.821.022-1.236.222-.716.44-1.436.661-2.152.007-.411.015-.825.022-1.236-.356-.869-.712-1.741-1.068-2.61-.036-.418-.069-.832-.1-1.25l.389-1.069Z" transform="translate(-24.044 -95.643)"/>
        <path id="Path_55" data-name="Path 55" d="M39.067,99.819l-1.13.6c-.451-.229-.9-.454-1.356-.683l-.494-.065.007-.247Q37.577,99.621,39.067,99.819Z" transform="translate(7.682 -85.696)"/>
      </g>
      <g id="Group_7" data-name="Group 7" transform="translate(71.07 11.59)">
        <path id="Path_56" data-name="Path 56" d="M80.611,168.433c.273-.443.545-.883.818-1.327.007-.334.011-.672.018-1.01-.185-.305-.367-.614-.549-.92l-1.668-1.635-.436-.919q.011-.561.022-1.123l-1.13-.044q-1.592.327-3.18.651l-1.13-.164-1-.72c-.182-.425-.363-.847-.545-1.268l-.792-.04c-.72.265-1.443.527-2.162.792-.374-.134-.749-.269-1.123-.4l.015-.789c.233-.327.465-.651.7-.974l-.094-1.134c-.323-.843-.651-1.686-.974-2.529l-.2-1.138.36-1.108.018-1.123-.3-2.046c.007-.374.011-.749.018-1.123l.589-1.207c-.338-.018-.68-.04-1.018-.058l-1-.73c-.251-.691-.505-1.381-.756-2.072q.038-2.2.08-4.39,1.188-.207,2.384-.425-.725-.6-1.45-1.207l.465-.763.134-1.119c-.033-.374-.062-.752-.095-1.13L66.3,134.1l.243-1.112c.578-.567,1.152-1.138,1.73-1.7-.182-.313-.367-.621-.549-.934.156-.363.316-.73.472-1.1-.3-.2-.6-.407-.894-.614-.222-.349-.44-.7-.661-1.047-.029-.378-.058-.756-.091-1.134l.694-.861c-.258-.316-.516-.629-.774-.945l-.207-1.025.131-1.119.829-2.09c.084-.334.164-.669.243-1l-.207-.912.251-1.337-.527-2.282-.432-.927-.207-1.021.244-1,.919-.963c1.065-.389,2.126-.781,3.191-1.177l1.021-.174c.3.127.6.254.9.382.294.353.592.7.887,1.054.378.018.752.036,1.13.051.378-.094.76-.189,1.138-.287l1.941-1.047q.856-.36,1.712-.723l-.1-.9c-.145-.229-.291-.462-.44-.69l.916-.643c.418-.058.832-.12,1.25-.178q-1.428-2.361-2.857-4.725l-2.13-1.21-.658-1.156c-.305.247-.614.5-.92.749-.342.171-.683.342-1.025.516l-1.025.178-2.373-.12-2.366-.578-.691.752-.909.284c-.342-.022-.68-.04-1.021-.062l-.77-1.058-1.01-.4-2.264-.033L59.79,99.9c-.378-.025-.756-.051-1.13-.08-.338-.134-.676-.273-1.014-.407l-1.028.712c-.378.087-.756.171-1.138.254-.338-.062-.676-.124-1.01-.189l-2.246-.85-2.141-.512-1.138.24c-.382.233-.763.462-1.145.69l-1.021.36-1.6,1.21c-.342.08-.683.164-1.025.243l-.469,1.079c.069.382.134.767.2,1.148l.756,2.1c-.007.334-.015.672-.018,1.01l-.923.927c.371.3.745.6,1.116.894l2.024.632,2.366.316c.716-.051,1.436-.105,2.152-.156.342-.087.683-.171,1.025-.258l.8-.611c.451.073.9.145,1.356.214q1.123.48,2.242.959,1.069.578,2.13,1.163c.105.382.211.763.32,1.148q-.436,2.164-.872,4.332l.095,1.13.658,1.061c-.276.654-.552,1.312-.829,1.966.145.313.291.621.436.934q-.185,1.058-.378,2.112.038,1.3.069,2.595l-.138,1.228c-.116.331-.236.661-.356.989l-.8.622.542,1.388-.589,1.2-.134,1.112.207,1.145.432,1.156q.147,1.079.3,2.159l-.247,1.112c-.309.312-.614.629-.919.945l.661.723.323.927-.244.879c.491.036.981.073,1.472.105-.007.374-.015.749-.022,1.127l-1.036.938c-.044.374-.087.745-.131,1.119q.365,1.6.734,3.206l-.134,1.116-1.036.829-.356,1.1.207.916q.883,1.3,1.763,2.6-1.052,1.957-2.1,3.907-.638.91-1.276,1.817l-2.013-1.276c-.614.552-1.228,1.1-1.843,1.654l-1.01-.2-1.784-1.385-.774-.97-1.236-.447-.912.483q-.643,1.068-1.283,2.137l-.807.938-.247,1.214L43.6,163.8q.262,1.1.523,2.188c.251.774.5,1.548.749,2.322.254.472.512.949.767,1.421l.89.643c.338.065.676.135,1.014.2q1.7-.131,3.4-.276l.9.3c.262.32.516.64.778.963.414-.044.829-.087,1.243-.127l1.141-.48.92-.829c.374.178.749.353,1.123.531.865.138,1.726.273,2.591.407.338.247.672.5,1.007.745l.011-.563.807-.96c.3.022.6.04.9.058.556.451,1.116.9,1.672,1.345.338.058.68.116,1.018.171l1.032-.952c.342-.091.683-.185,1.025-.276q1.635.371,3.267.738c.378-.022.756-.04,1.134-.058.418-.167.836-.331,1.254-.5l.69-.872.8-.3c.342.018.68.033,1.018.047l2.253.545,1.13.044c.342-.1.683-.2,1.025-.3l.807-.981Z" transform="translate(-43.599 -98.832)"/>
        <path id="Path_57" data-name="Path 57" d="M51.219,109.206l.469-.876c-.342-.091-.676-.182-1.018-.276l-.011.785Z" transform="translate(-25 -74.538)"/>
      </g>
      <g id="Group_8" data-name="Group 8" transform="translate(124.001 12.582)">
        <path id="Path_58" data-name="Path 58" d="M107.714,165.664c-.367-.1-.738-.2-1.108-.3l-.353-1.218c-.2-.356-.4-.716-.6-1.076-.407-.178-.818-.36-1.228-.542-.414.193-.832.385-1.25.574q-1.178.011-2.355.018c-1.287.156-2.569.309-3.856.454-.785-.084-1.566-.167-2.351-.254l-1.236-.316L91,163.735c-.916.2-1.828.4-2.744.6l-1.363-.076c-.454-.105-.909-.214-1.363-.323l-1.127.654c-.749.149-1.5.294-2.25.44-1.57-.207-3.14-.414-4.71-.632-.869.018-1.741.036-2.609.051-.418.131-.836.258-1.254.389l-1.363-.229c-.407-.287-.818-.571-1.228-.854-.2-.331-.4-.658-.6-.985l.273-1.243c-.371-.243-.738-.487-1.108-.734-.116-.371-.233-.741-.353-1.112q.474-2.05.945-4.1l-.225-1.236c-.327-.331-.65-.658-.978-.985l-.48-1.112.022-1.239q.594-1.8,1.188-3.605l.145-1.363-.1-1.236q-.4-1.859-.8-3.714l.022-1.239c.222-.785.44-1.574.661-2.359.007-.414.015-.825.022-1.239l-.6-1.112.767-1.243.022-1.239q-.714-1.608-1.432-3.213l.018-1.112.523-1.37-.974-1.108.018-1.116c.345-.7.687-1.406,1.032-2.112l.145-1.116c-.243-.371-.483-.741-.727-1.112.254-.371.512-.745.767-1.119l.273-1.243c-.105-1.112-.211-2.228-.316-3.34.091-.374.182-.749.273-1.119.214-.374.429-.745.643-1.119q-.42-1.172-.832-2.351-.164-1.3-.323-2.6l.418-2.6-.727-.989q-.84-1.728-1.679-3.46c-.327-.287-.654-.578-.978-.865-.454-.163-.909-.331-1.363-.494-.374.163-.752.331-1.13.494q-1.832,1.548-3.66,3.082l-.174,2.475q-.065,3.843-.138,7.683-.147,1.3-.294,2.6c-.174.414-.345.825-.52,1.236l.353,1.119-.393,1.112c-.047.411-.1.825-.145,1.236.367.294.738.585,1.1.88-.007.411-.015.825-.022,1.236l.353,1c0,.331-.011.661-.018.992l-.512.985c-.091.414-.182.825-.273,1.239-.007.411-.018.825-.025,1.236q.409,1.739.81,3.478c-.171.371-.345.741-.516,1.112l.105,1.116.353,1-.142.989c-.338.327-.676.654-1.014.985q.223,4.83.451,9.664c-.131.374-.265.745-.4,1.116.033.414.069.825.1,1.239.316.829.636,1.657.952,2.486.036.374.069.745.105,1.119l-.4,1.108c.16.414.316.829.476,1.243-.131.414-.262.825-.4,1.236l-1.407,2.093c.2.458.4.912.6,1.37.451.211.9.422,1.356.629-.091.414-.182.825-.273,1.239-.171.411-.345.825-.516,1.236-.382.327-.76.654-1.141.981.16.371.32.745.48,1.119q.169,1.178.331,2.359l.85,1,.105,1.239.483.872q1.9,1.685,3.794,3.358l.73.992c.411.04.825.083,1.239.123.374-.084.749-.167,1.123-.254q1.45-.872,2.893-1.752c.327.367.651.734.978,1.1l.981.607c.374.04.745.076,1.119.113q1.69-.523,3.376-1.05c.414-.047.829-.1,1.243-.149l1.243.1c.371.2.738.393,1.108.592.418-.178.836-.353,1.25-.527.418-.055.832-.105,1.247-.16q2.3.431,4.583.843c.414-.055.829-.113,1.247-.167.458-.185.916-.367,1.374-.552.367.193.738.385,1.108.574.374-.1.749-.2,1.123-.3q1.254-.551,2.5-1.1l1.239.185.985.447q1.178,0,2.355,0,1.248-.376,2.5-.76,1.063-.556,2.126-1.119,1.009-.867,2.017-1.741.7-1.1,1.4-2.2Z" transform="translate(-58.163 -99.105)"/>
      </g>
      <g id="Group_9" data-name="Group 9" transform="translate(187.653 3.376)">
        <path id="Path_59" data-name="Path 59" d="M125.032,166.133c.291-.422.585-.847.88-1.268l.142-1.014-.352-.934c-1-1.065-2-2.137-3.006-3.206l-.225-1.079c-.2-.254-.4-.512-.6-.767q-1.4-.823-2.791-1.65c-.483-.5-.963-1-1.447-1.5-.407-.142-.811-.284-1.217-.429-.244-.251-.483-.5-.723-.752l-1.047-3.184-.727-.756-1.214-.56.022-1.367-.6-.9q-.97-.534-1.941-1.076l-.727-.76c-.073-.447-.149-.89-.222-1.334-.323-.24-.647-.483-.97-.727q-1.259-1.984-2.511-3.98c-.156-.349-.316-.7-.472-1.05l-1.446-1.785c-.567-.418-1.134-.839-1.7-1.257-.24-.342-.48-.68-.72-1.021l-.229-.959-.6-.912.76-1.094c.091-.382.178-.763.265-1.148.374-.258.749-.512,1.123-.771q1.019-1.81,2.035-3.62l1.119-.9.636-1.2,2.388-2.693.632-1.087c.131-.472.262-.945.393-1.421q.943-1.128,1.883-2.261,2.333-3.32,4.659-6.662,1.439-1.586,2.878-3.184l-.236-.454.872-.887.756-1.112c.3-.836.6-1.668.9-2.5q.2-1.276.411-2.548l-.1-1.1c-.323-.153-.647-.309-.97-.462q-1.227-.109-2.45-.222c-.411.109-.821.214-1.232.32-.414.233-.829.462-1.239.691l-.392,1.425-.632,1.09c-.294.294-.585.585-.876.88l-2.235,1.33-2.228,1.072-.876.745-.756.978c-.036-.164-.076-.323-.113-.483l-.48-.672c-.411.015-.821.033-1.232.047l.1,1.352c.48.716.96,1.436,1.439,2.152l.472,1.043L108,109.7l-.116-.48-.632,1.207q-1.123.654-2.239,1.3-1.019,2.186-2.046,4.368c-.254.4-.509.811-.76,1.214l-1,1c-.534.113-1.072.225-1.606.334l-.629.825q-.087,1.308-.171,2.624l-.273,1.272-1,.872-1.119.512-.512,1.174c-.047.382-.095.756-.142,1.138l-.385.789c-.411.007-.821.018-1.236.025-.454.262-.912.523-1.37.785l-.018.992.353,1.076.105,1.1c-.338.371-.672.741-1.007,1.112-.374.247-.749.5-1.123.749q-1.51,1.537-3.017,3.064c-.458.178-.912.353-1.367.523l-.356-.952.64-1.185q-1.047.114-2.1.225-.91-1.079-1.814-2.166l1-.97.512-1.047c-.029-.741-.058-1.479-.084-2.221l-.229-1.09.174-2.748.767-1.316c.091-.465.178-.93.269-1.392q-.262-2.513-.527-5.026l.269-1.145c-.283-.382-.563-.767-.847-1.148l-.349-1.079q.011-.621.022-1.243c.218-.763.44-1.53.658-2.3.345-.821.687-1.643,1.032-2.464L86,106.872l.018-1.116q-.96-1.51-1.923-3.02c-.523-.483-1.054-.963-1.577-1.45l-1.236-.12c-.374.2-.749.4-1.123.6l-.88.832c-.425.741-.85,1.486-1.276,2.228-.342.734-.687,1.468-1.029,2.2l-.149,1.378.345,1.33.989.153q-.169,2.437-.334,4.866c-.225,1.138-.454,2.271-.68,3.409-.174.429-.345.858-.516,1.286.24.353.48.7.723,1.05.116.4.233.8.349,1.207q-.082,1.183-.167,2.366-.463,1.843-.93,3.682l.843,1.163.105,1.1-.145,1.254c-.222.8-.443,1.61-.665,2.413l.578,2.3q-.267,1.145-.534,2.282l-.025,1.239c.244.393.483.785.723,1.174l-.64,1.3c-.131.425-.265.85-.4,1.276l.632,6.138-.392,1.276-.643,1.3.607.814c.407.167.814.334,1.225.5q-.594,2.29-1.192,4.572L75.9,160.17l.1,1.225.349,1.087.607.687c.414,0,.825,0,1.236.007-.418.327-.836.658-1.25.985l-.64,1.05-.393,1.152.185,3.576q-.213,1.319-.418,2.639c.073.447.145.894.222,1.341l.6.938.978.531q2.279.469,4.558.919l1.367-.385c.294-.323.589-.643.883-.963q.387-1.156.781-2.311l.88-.96,1.363-.272-.978-.512.269-1.145-.352-1.079c-.2-.309-.4-.618-.6-.923-.523-.483-1.05-.963-1.577-1.446l.632-.683-.363-.462,1.007-1.094c.254-.443.509-.883.763-1.323l.145-1.13c-.309-1.083-.622-2.166-.93-3.246.015-.745.025-1.49.04-2.235.222-.807.44-1.617.661-2.424l.64-1.312q.562-.365,1.123-.741l.636-1.061.4-1.283c.047-.458.1-.919.149-1.381l.393-1.283.632-1.061c.378-.291.752-.582,1.127-.872q1.139-1.494,2.275-2.995c.334-.327.669-.658,1-.985l1.243-.523c.356.658.716,1.316,1.072,1.973,1.054.941,2.1,1.883,3.151,2.82.443.56.887,1.123,1.327,1.683l.349,1.2c-.294.327-.585.654-.879.981-.614-.167-1.225-.334-1.839-.505L97.7,149l1.1.48,1.1.105c.451-.058.9-.116,1.356-.178.327.124.654.244.981.367.323.2.647.407.974.611l.6.789c.116.353.233.709.349,1.065-.007.454-.018.912-.025,1.366.367.24.73.48,1.1.716q.72.829,1.446,1.657.709,1.51,1.421,3.02c.44.516.883,1.032,1.323,1.545l.974.6,1.221.316c-.211.36-.422.723-.632,1.087l-.022,1.116.6,1.029,1.345.294.727.632.352,1.061q.1,1.226.2,2.446c.451-.109.9-.218,1.356-.331.407.062.814.12,1.225.182q1.03.458,2.068.909l2.2.512,1.232-.327q1.069-1.483,2.137-2.962C124.61,166.78,124.821,166.457,125.032,166.133Z" transform="translate(-75.677 -96.572)"/>
      </g>
    </g>
    <path id="Path_60" data-name="Path 60" d="M158.044,269.169c-13.709-8.817-18.423-20-21.421-39.676-2.406-15.8-1.348-40.472-1.348-40.472l-60.814-1.014s.865,27.33-.556,44.4c-2.057,24.717-3.467,30.576-22.035,44.79-15.232,11.663-17.9,35.439-5.535,48.7s25.226,10.681,33.556,4.954,14.643-17.023,15.948-24.612c-9.577-.356-16.783,2.006-25.895,10.5,5.157-20.054,32.171-28.308,59.956,5.332,13.095,15.853,27.636,15.431,40.254-4.914S171.753,277.983,158.044,269.169Z" transform="translate(60.045 466.588)" fill="#fff"/>
    <path id="Path_61" data-name="Path 61" d="M316.287,164.883l-.374,85.654c-.044,25.691-13.851,51.052-35.152,69.623-21.628,18.862-50.172,29.151-80.366,28.969l-69.561-.116c-30.2.08-58.709-10.3-80.276-29.235-21.236-18.641-34.959-44.048-34.915-69.74L16,167.012a7.45,7.45,0,0,1-.356-2.13c0-17.925,67.3-32.455,150.32-32.455S316.287,146.958,316.287,164.883Zm-23.38-5.9c-20.636-7.545-64.739-15.657-126.941-15.657S59.658,151.443,39.022,158.988c-5.648,2.068-6.109,9.482-1,11.419,20.189,7.654,64.713,16.031,127.94,16.031s107.751-8.377,127.937-16.031C299.016,168.47,298.555,161.056,292.907,158.988Z" transform="translate(0 317.421)" fill="#fff"/>
  </g>
</svg>
