<svg xmlns="http://www.w3.org/2000/svg" width="410.917" height="232.195" viewBox="0 0 410.917 232.195">
  <g id="Group_199" data-name="Group 199" transform="translate(-487.301 -112.196)">
    <g id="Group_79" data-name="Group 79" transform="translate(689.219 -168.088) rotate(18)">
      <path id="Path_206" data-name="Path 206" d="M187.668,327.121c-1.379,13.344-.169,30.266-.275,33.783,13.475,8.044,35.012,8.877,44,9.575s16.471-1.4,25.543-4.81,14.164-5.586,18.62-4.81,6.34,1.371,8.2.337,1.857-3.879,1.167-6.62c-.181-.72.08-1.112.61-1.862s7.255-8.883,9.483-15.283,3.3-16.641,2.9-25.253-.08-15.284,1.074-17.96c2.029.078,6.306.376,10.172-1.629,5.384-2.793,6.18-9.413,7.267-13.447a9.133,9.133,0,0,1-3.077-2.353,6.115,6.115,0,0,1-.9-3.077,10.691,10.691,0,0,1-4.456-.543,6.974,6.974,0,0,1-3.979-3.827A6.709,6.709,0,0,1,301.235,272a6.154,6.154,0,0,1-4.376.207,13.025,13.025,0,0,1,1.193,5.741,24.8,24.8,0,0,1-1.034,5.146c-.266.673-.822.8-1.512.517s-.655-.783-.345-1.526a9.244,9.244,0,0,0,.159-6.672c-.928-2.69-2.679-5.741-5.782-6.7-2.559-.789-5.775-1.674-6.79-2.017a1.049,1.049,0,0,1-.743-1.319c.133-.517.53-1.008,1.618-.724s4.085,1.267,5.57,1.6a4.229,4.229,0,0,0,4.961-3.052,5.625,5.625,0,0,0-2.441-6.1c-3.262-2.3-7.833-3.354-11.485-3.75-2.387-.259-3.872.31-4.668,2.3a55.049,55.049,0,0,0-3.236,11.482c-.663,4.629-.981,7.655-.424,10.655a12.437,12.437,0,0,0,3.342,6.1c.981,1.086,1.352,2.3.583,4.784s-2.626,5.431-5.172,10.448a57.885,57.885,0,0,0-6.1,16.835c-1.3,7.008-1.353,11.74-1.061,14.4a30.669,30.669,0,0,1,.185,6.439,58.377,58.377,0,0,0-11.326-11.3,33.48,33.48,0,0,0-19.018-6.775C214.893,317.737,194.989,321.612,187.668,327.121Zm47.919,22.489c-7.666-.543-15.57-4.215-18.249-7.81-.562-.754-.637-1.5.451-.75,4.164,2.871,8.992,4.267,16.551,4.862a27.322,27.322,0,0,0,14.853-2.586c1.293-.658,1.273-.105.61.673A16.755,16.755,0,0,1,235.588,349.61Zm49.043-25.938c.637-4.733.822-13.965.8-14.585s.371-.929.583-.1c1.221,4.732,2.281,11.223,1.512,16.551a21.062,21.062,0,0,1-5.3,11.792c-.5.616-.877.457-.61-.362A87.369,87.369,0,0,0,284.631,323.672Z" transform="translate(-23.571 -11.132)" fill="#87bac8"/>
      <path id="Path_207" data-name="Path 207" d="M243.846,241.4a44.9,44.9,0,0,1,4.577,1.862A11.8,11.8,0,0,1,252.276,246a18.95,18.95,0,0,0,.7-5.741,4.186,4.186,0,0,0-1.862-3.232,8.375,8.375,0,0,0-4.138-1.474,2.282,2.282,0,0,0-2.3,1.551A18.855,18.855,0,0,0,243.846,241.4Z" transform="translate(17.91 0)" fill="#87bac8"/>
      <path id="Path_208" data-name="Path 208" d="M217.077,252.942a9.124,9.124,0,0,1,1.086,5.4,4.515,4.515,0,0,1-2.793,3.646c.724,1.319,2.612,2.2,4.215,2.456a3.313,3.313,0,0,0,3.569-1.629,7.357,7.357,0,0,0,1.293-3.491c.336-1.551,1.552-7.267,1.914-9.465a3.786,3.786,0,0,0-1.267-3.827,4.421,4.421,0,0,0-4.138-.982,3.641,3.641,0,0,0-2.715,2.87C217.9,249.245,217.412,251.365,217.077,252.942Z" transform="translate(55.847 -5.855)" fill="#87bac8"/>
      <path id="Path_209" data-name="Path 209" d="M186.414,267.742a4.234,4.234,0,0,0,.646,3.414,5.971,5.971,0,0,0,4.655,1.551c1.836-.259,2.095-1.5,2.535-2.586s2.56-7.81,2.948-9.672a3.3,3.3,0,0,0-1.215-3.75c-1.06-.75-3.129-.828-4.525-.595s-2.509,1.138-3.078,3.155S186.8,265.493,186.414,267.742Z" transform="translate(95.793 -12.819)" fill="#87bac8"/>
      <path id="Path_210" data-name="Path 210" d="M173.671,284.375c.259-1.6-.233-2.508-1.035-2.974a13.707,13.707,0,0,0-4.034-1.6,2.352,2.352,0,0,0-2.664,1.914c-.543,1.629-2.121,7.215-2.431,8.56s.362,2.095,1.474,2.741a10.168,10.168,0,0,0,4.344,1.525c1.4,0,2.069-1.215,2.457-2.224A58.666,58.666,0,0,0,173.671,284.375Z" transform="translate(127.906 -27.745)" fill="#87bac8"/>
    </g>
    <g id="Group_198" data-name="Group 198" transform="matrix(-0.978, 0.208, -0.208, -0.978, 651.781, 232.006)">
      <path id="Path_206-2" data-name="Path 206" d="M.695,45.41C-.745,31.478.518,13.81.407,10.137,14.477,1.739,36.963.869,46.352.14S63.549,1.6,73.021,5.162s14.789,5.832,19.441,5.022,6.619-1.432,8.558-.351,1.938,4.05,1.218,6.912c-.189.751.083,1.161.637,1.944s7.575,9.275,9.9,15.957,3.447,17.375,3.032,26.366-.083,15.958,1.121,18.752c2.118-.081,6.584-.393,10.621,1.7,5.622,2.916,6.452,9.828,7.588,14.04a9.536,9.536,0,0,0-3.212,2.457,6.385,6.385,0,0,0-.941,3.213,11.163,11.163,0,0,0-4.652.567,7.282,7.282,0,0,0-4.154,4,7.005,7.005,0,0,0-2.908-2.781,6.425,6.425,0,0,0-4.569-.216,13.6,13.6,0,0,0,1.246-5.994,25.9,25.9,0,0,0-1.08-5.373c-.277-.7-.858-.837-1.579-.54s-.684.817-.36,1.593a9.652,9.652,0,0,1,.166,6.966c-.969,2.808-2.8,5.994-6.037,6.994-2.672.824-6.03,1.748-7.089,2.106a1.1,1.1,0,0,0-.775,1.377c.138.54.554,1.053,1.689.756s4.265-1.323,5.816-1.674a4.416,4.416,0,0,1,5.179,3.186,5.873,5.873,0,0,1-2.548,6.372c-3.406,2.4-8.179,3.5-11.992,3.915-2.492.27-4.043-.324-4.874-2.4a57.48,57.48,0,0,1-3.379-11.988c-.692-4.833-1.025-7.992-.443-11.125a12.985,12.985,0,0,1,3.49-6.372c1.025-1.134,1.412-2.4.609-5S90,79.873,87.338,74.635a60.437,60.437,0,0,1-6.369-17.578C79.612,49.74,79.556,44.8,79.861,42.018a32.022,32.022,0,0,0,.194-6.723,60.951,60.951,0,0,1-11.825,11.8,34.956,34.956,0,0,1-19.856,7.074C29.12,55.208,8.338,51.161.695,45.41ZM50.727,21.929c-8,.567-16.256,4.4-19.053,8.154-.587.788-.665,1.565.471.783,4.348-3,9.388-4.455,17.281-5.076s13.016,1.431,15.508,2.7c1.35.688,1.329.11.637-.7A17.494,17.494,0,0,0,50.727,21.929Zm51.206,27.081c.665,4.941.858,14.581.831,15.229s.387.97.609.108c1.274-4.941,2.382-11.718,1.579-17.281a21.991,21.991,0,0,0-5.539-12.312c-.527-.643-.916-.477-.637.378A91.219,91.219,0,0,1,101.933,49.011Z" transform="translate(0 0)" fill="#87bac8"/>
      <path id="Path_207-2" data-name="Path 207" d="M0,4.806A46.881,46.881,0,0,0,4.779,2.862,12.316,12.316,0,0,0,8.8,0a19.785,19.785,0,0,1,.729,5.994A4.371,4.371,0,0,1,7.587,9.369a8.745,8.745,0,0,1-4.32,1.539,2.383,2.383,0,0,1-2.4-1.62A19.687,19.687,0,0,1,0,4.806Z" transform="translate(102.66 118.484)" fill="#87bac8"/>
      <path id="Path_208-2" data-name="Path 208" d="M1.782,12.079A9.527,9.527,0,0,0,2.916,6.436,4.714,4.714,0,0,0,0,2.628C.756,1.251,2.727.334,4.4.064a3.459,3.459,0,0,1,3.726,1.7,7.682,7.682,0,0,1,1.35,3.645c.351,1.62,1.62,7.587,2,9.882a3.953,3.953,0,0,1-1.323,4,4.616,4.616,0,0,1-4.32,1.026,3.8,3.8,0,0,1-2.835-3C2.646,15.94,2.133,13.726,1.782,12.079Z" transform="translate(112.538 105.271)" fill="#87bac8"/>
      <path id="Path_209-2" data-name="Path 209" d="M.1,5.226A4.42,4.42,0,0,1,.773,1.662,6.235,6.235,0,0,1,5.633.042C7.55.312,7.82,1.608,8.28,2.742s2.673,8.154,3.078,10.1-.162,3.132-1.269,3.915-3.267.864-4.725.621-2.62-1.188-3.213-3.294S.5,7.576.1,5.226Z" transform="translate(123.915 103.942)" fill="#87bac8"/>
      <path id="Path_210-2" data-name="Path 210" d="M10.69,10.611c.27,1.666-.243,2.619-1.08,3.105A14.311,14.311,0,0,1,5.4,15.39a2.456,2.456,0,0,1-2.781-2C2.05,11.691.4,5.859.079,4.455S.457,2.268,1.618,1.593A10.617,10.617,0,0,1,6.154,0c1.458,0,2.16,1.269,2.565,2.322A61.251,61.251,0,0,1,10.69,10.611Z" transform="translate(133.547 96.775)" fill="#87bac8"/>
    </g>
    <path id="Path_138" data-name="Path 138" d="M136.5,150.8c10.456-4.3,12.684-5.557,19.021-7.023a213.3,213.3,0,0,1,26.7-4.015c10.612-.957,27.746-2.284,32.254-2.7,13.737.578,39.044,2.611,45.751,3.489,10.435,2.561,25.549,7.708,31.6,9.187-1.577,13.92-.716,26.2-2.014,37.359s-2.4,54.305-3.314,67.8-2.091,26.148-4.05,42.343c-1.943,16.177-4.654,36.408-5.072,41.258-6.622,3.647-29.487,15.715-36.629,19.283-8.706-.181-41.345-.383-49.789.106-11.005-6.74-30.689-20.849-35.765-23.591-.462-16.15-4.277-45.106-6.023-57.8s-8.3-66.193-9.312-80.32S137.326,163.92,136.5,150.8Zm77.566,20.66c26.961.3,40.812-1.65,47.582-2.781s14.082-2.332,16.314-5.02a13.707,13.707,0,0,0-2.8-5.53,24.144,24.144,0,0,0-2.257-1.781c-2.536-.707-23.416-5.448-33.367-7.649-5.388-.341-21.251-2.045-31.268-1.8s-25.339,1.735-47.147,4.028a27.251,27.251,0,0,0-8.97,5.885c-.867,3.659,1.138,7.448,1.138,7.448s1.377,1.542,3.281,3.268C170.838,169.775,187.1,171.156,214.062,171.458ZM187.65,338.15c-1.81-16.285-1.947-23.907-3.166-41.455-1.2-17.55-2.694-30.2-6.1-37.54a122.652,122.652,0,0,0-12.659,1.371c-3.921,4.581-5.852,15.669-4.179,31.336s3.15,27.144,4,39.3C169.6,332.72,179.7,336.044,187.65,338.15Zm31.536,7.9a55.619,55.619,0,0,0,14.028-1.941c-.3-2.253-.739.874-1.525-14.248-.8-15.141-1.071-16.089-1.186-27.392-.142-11.292-2.894-19.772-5.278-26.425s-6.187-8.92-9.669-11.024a17.675,17.675,0,0,0-5.565,1.772c-2.973,2.661-4.331,5.771-6.57,11.084-.287,2.6-.772,8.307-.724,10.737.046,2.413-2.136,8.527-2.01,21.827s-2.186,16.705-1.625,33.263A122.773,122.773,0,0,0,219.186,346.051Zm51.786-40.413c.181-12.64-.587-34.971-.822-38.971-.245-4.017-1.6-4.916-4.217-6.037a15.134,15.134,0,0,0-6.792,3.813c-2.394,1.887-6.285,7.905-8.286,17.144-2.018,9.243-5.091,14.423-6.428,26.913a280.461,280.461,0,0,0-1.852,30.752c2.838-.643,23.3-6.72,28.122-8.151C270.716,323.063,270.782,318.282,270.972,305.638Z" transform="translate(475.434 -13.493)" fill="#87bac8"/>
  </g>
</svg>
