<svg xmlns="http://www.w3.org/2000/svg" width="722.988" height="614.018" viewBox="0 0 722.988 614.018">
  <g id="mjolkglas" transform="translate(-1.898 -0.738)">
    <path id="Path_29" data-name="Path 29" d="M89.668,99.38c-11.976-21.7-24.659-47.208-23.676-66.516S82.484-.817,101.086.873s29.451,20.3,26.067,41.571S103.057,87.962,89.668,99.38Z" transform="translate(263.858 0)" fill="#fff"/>
    <path id="Path_30" data-name="Path 30" d="M75.362,84.877c6.764-20.015,20.281-57.52,31-64.545,16.349-10.711,42.421-10.85,51.719,6.764s-5.637,37.91-19.165,45.38S98.049,84.17,75.362,84.877Z" transform="translate(302.684 50.298)" fill="#fff"/>
    <path id="Path_31" data-name="Path 31" d="M133.335,85.669c-10.286,1.27-54.391-5.914-70.74-16.062S45.682,35.645,51.32,25.641,73.162,7.459,91.057,16.762,128.829,61.149,133.335,85.669Z" transform="translate(190.315 49.218)" fill="#fff"/>
    <path id="Path_32" data-name="Path 32" d="M71.543,29.073c23.4-3.855,59.215-3.85,83.7.164s58.37,10.225,68.569,12.8c33.957,11.653,58.175,21.029,65.569,23.983C314.873,78.969,339.5,94.6,345.364,97.888c-18.443,45.078-28.806,74.657-42.82,117.237s-22.442,63.065-35.13,101.82S241.378,388.5,228.747,422.031s-26.661,67.607-29.016,72.619c-16.891,3.871-59.281,14.142-68.769,15.181C100.7,500.743,61.768,490.907,50.5,488.24c-17.69-18.033-43.726-50.3-48.606-54.6,12.119-68.744,16.415-103.653,23.256-150.763S36.044,211.832,44.923,163.79,66.381,52.37,71.543,29.073Zm92.025,56.711c22.145,6.861,72.809,20.383,95.3,24.433s47.664,7.522,57.2,4.142c.732-2.893-.358-9.319-6.595-15.412-5.991-2.78-25.657-13.717-43.2-22.309A365.03,365.03,0,0,0,210.3,55.447c-16.533-4.721-68.016-14.29-93.484-18.013-4.424.333-10,2.36-18.258,4.977-2.657,6.922-1.695,14.582,3.226,20.168A646.507,646.507,0,0,0,163.567,85.784ZM34.549,351.628c-3.625,21.515-8.126,52.932-13.64,81.206,3.61,2.9,23.563,16.984,32.231,21.346,3.359-17.6,10.327-65.221,15.222-85.328s8.269-42.042,9.867-50.5,4.152-28.617,2.14-39.251c-3.912-.988-13.01-2.929-16.328-3.4s-7.061.753-8.812,3.384-9.124,10.906-11.838,23.957C39.173,323.314,38.18,330.118,34.549,351.628Zm58.826,34.218c-3.523,13.215-16.722,54.74-24.024,82.194,13.845,8.2,42.277,17.373,55.764,16.257,1.413-4.163,13.2-60.147,18.238-83.658s9.631-40.25,12.918-62.574c.435-4.593-1.869-19.825-3.21-26.676s-9.324-13.2-9.324-13.2a59.715,59.715,0,0,0-9.616.1c-2.043.932-9.114,6.016-16.072,14.93-2.816,4.716-8.837,22.385-11.812,31.018C102.166,356.052,96.892,372.626,93.375,385.847Zm98.568,93.812c1.8-4.25,16.738-59.8,23.43-83.433s10.993-43.527,12.8-51.391-.609-11.188-4.6-14c-9.7.445-22.687,8.919-28.371,18.52s-14.275,28.586-23.389,50.342-23.88,59.445-28.868,80.612C156.384,480.083,182.8,480.063,191.943,479.658Z" transform="translate(0 104.924)" fill="#111"/>
    <path id="Path_33" data-name="Path 33" d="M74.176,108.932C92.1,93.4,122.613,74.657,145.582,65.262s55.088-21.843,65.134-24.986c35.027-7.844,60.572-12.529,68.421-13.886,28.494-2.3,57.658-1.879,64.376-2.145,7.88,48.068,14.531,78.692,24.879,122.311s13.881,65.482,23.358,105.148,15.268,74.6,22.058,109.782,12.662,71.559,13.282,77.059c-12.37,12.145-43.112,43.081-50.649,48.934-30.542,8.09-68.866,20.092-79.859,23.717-24.515-6.108-63.587-19.974-70-21.09-25.652-64.919-40.265-96.909-59.1-140.631s-27.9-66.24-45.477-111.819S81.969,131.481,74.176,108.932Zm108.1.154c22.457-5.745,72.706-20.742,93.991-29.057s44.546-18.54,50.9-26.41c-.891-2.847-5.182-7.752-13.686-9.682-6.559.768-29.042,1.741-48.488,3.6a365.534,365.534,0,0,0-58.774,11.234c-16.559,4.634-65.436,23.425-89.081,33.583-3.6,2.6-7.291,7.245-12.959,13.794,1.367,7.291,6.19,13.318,13.307,15.5A644.668,644.668,0,0,0,182.273,109.085Zm29.211,294.051c8.172,20.23,20.783,49.358,30.88,76.332,4.593.584,28.97,2.14,38.632,1.321-6.344-16.758-25.335-60.976-31.684-80.673s-14.961-40.152-18.028-48.2-11.438-26.558-18.724-34.566c-3.85,1.2-12.611,4.316-15.688,5.648s-5.627,4.332-5.74,7.491-2.069,14.07,2.452,26.615C200.6,376.593,203.312,382.907,211.484,403.136Zm68.032-1.633c3.917,13.1,14.4,55.4,22.554,82.609,16.088-.256,45.114-7.322,56.02-15.33-.973-4.291-20.23-58.165-28.243-80.832s-12.867-39.338-21.75-60.08c-2.028-4.142-11.966-15.913-16.7-21.049s-14.854-6.375-14.854-6.375a60.09,60.09,0,0,0-8.141,5.12c-1.254,1.864-4.618,9.9-5.878,21.136.067,5.489,4.183,23.7,6.17,32.616C271.41,371.514,275.593,388.4,279.515,401.5Zm133.094,28.345c-.7-4.562-17.045-59.716-23.706-83.356s-13.415-42.84-15.99-50.49-6.375-9.211-11.254-9.524c-8.028,5.453-14.664,19.477-14.48,30.629s2.8,31.832,6.415,55.139,10.768,63.147,17.6,83.8C382.528,448.819,405.026,434.979,412.609,429.848Z" transform="translate(297.798 96.85)" fill="#111"/>
    <path id="Path_34" data-name="Path 34" d="M19.251,150.944c-3.625,21.515-8.126,52.932-13.64,81.206,3.61,2.9,23.563,16.984,32.231,21.346,3.359-17.6,10.327-65.221,15.222-85.328s8.269-42.042,9.867-50.5,4.152-28.617,2.14-39.251c-3.912-.988-13.01-2.929-16.328-3.4s-7.061.753-8.812,3.384S30.807,89.3,28.094,102.354C23.875,122.63,22.881,129.434,19.251,150.944Z" transform="translate(15.298 305.608)" fill="#fff"/>
    <path id="Path_35" data-name="Path 35" d="M39.1,167.107c-3.523,13.215-16.722,54.74-24.024,82.194,13.845,8.2,42.277,17.373,55.764,16.257,1.413-4.163,13.2-60.147,18.238-83.658s9.631-40.25,12.918-62.574c.435-4.593-1.869-19.825-3.21-26.676s-9.324-13.2-9.324-13.2a59.709,59.709,0,0,0-9.616.1c-2.043.932-9.114,6.016-16.072,14.93-2.816,4.716-8.837,22.385-11.812,31.018C47.887,137.312,42.613,153.886,39.1,167.107Z" transform="translate(54.279 323.664)" fill="#fff"/>
    <path id="Path_36" data-name="Path 36" d="M78.445,234.527c1.8-4.25,16.738-59.8,23.43-83.433s10.993-43.527,12.8-51.391-.609-11.188-4.6-14c-9.7.445-22.687,8.919-28.371,18.52S67.426,132.8,58.313,154.56s-23.88,59.445-28.868,80.612C42.885,234.952,69.3,234.931,78.445,234.527Z" transform="translate(113.498 350.055)" fill="#fff"/>
    <path id="Path_37" data-name="Path 37" d="M117.786,167.273c8.172,20.23,20.783,49.358,30.88,76.332,4.593.584,28.97,2.14,38.632,1.321-6.344-16.758-25.335-60.976-31.684-80.673s-14.961-40.152-18.028-48.2S126.148,89.5,118.862,81.49c-3.85,1.2-12.611,4.316-15.688,5.648s-5.627,4.332-5.74,7.491-2.069,14.07,2.453,26.615C106.906,140.73,109.615,147.043,117.786,167.273Z" transform="translate(391.495 332.713)" fill="#fff"/>
    <path id="Path_38" data-name="Path 38" d="M127.951,179.245c3.917,13.1,14.4,55.4,22.554,82.609,16.088-.256,45.114-7.322,56.02-15.33-.973-4.291-20.23-58.165-28.243-80.832s-12.867-39.338-21.75-60.08c-2.028-4.142-11.966-15.914-16.7-21.049s-14.854-6.375-14.854-6.375a60.086,60.086,0,0,0-8.141,5.12c-1.254,1.864-4.618,9.9-5.878,21.136.067,5.489,4.183,23.7,6.17,32.615C119.846,149.256,124.029,166.137,127.951,179.245Z" transform="translate(449.362 319.109)" fill="#fff"/>
    <path id="Path_39" data-name="Path 39" d="M192.929,218.83c-.7-4.562-17.045-59.716-23.706-83.356s-13.415-42.84-15.99-50.49-6.375-9.211-11.254-9.523c-8.028,5.453-14.664,19.477-14.48,30.629s2.8,31.832,6.416,55.139,10.768,63.147,17.6,83.8C162.848,237.8,185.346,223.96,192.929,218.83Z" transform="translate(517.478 307.869)" fill="#fff"/>
    <path id="Path_40" data-name="Path 40" d="M86.947,76.747c22.145,6.861,72.809,20.383,95.3,24.433s47.664,7.522,57.2,4.142c.732-2.893-.358-9.319-6.595-15.412-5.991-2.78-25.657-13.717-43.2-22.309A365.03,365.03,0,0,0,133.684,46.41C117.151,41.689,65.667,32.119,40.2,28.4c-4.424.333-10,2.36-18.259,4.977-2.657,6.922-1.695,14.582,3.226,20.168A646.511,646.511,0,0,0,86.947,76.747Z" transform="translate(76.62 113.961)" fill="#fff"/>
    <path id="Path_41" data-name="Path 41" d="M158.133,93.239c22.457-5.745,72.706-20.742,93.991-29.057s44.545-18.54,50.9-26.41c-.891-2.847-5.182-7.752-13.686-9.682-6.559.768-29.042,1.741-48.488,3.6a365.54,365.54,0,0,0-58.774,11.234c-16.559,4.634-65.436,23.425-89.081,33.583-3.6,2.6-7.291,7.245-12.959,13.794,1.367,7.291,6.19,13.318,13.307,15.5A644.665,644.665,0,0,0,158.133,93.239Z" transform="translate(321.938 112.696)" fill="#fff"/>
  </g>
</svg>
