<?xml version="1.0" encoding="UTF-8"?>
<svg id="Layer_2" data-name="Layer 2" xmlns="http://www.w3.org/2000/svg" viewBox="0 0 116.39 97.09">
  <defs>
    <style>
      .cls-1 {
        fill: #98c5d3;
      }

      .cls-1, .cls-2 {
        stroke-width: 0px;
      }

      .cls-3 {
        fill: none;
        stroke: #98c5d3;
        stroke-linejoin: round;
        stroke-width: 9px;
      }

      .cls-2 {
        fill: #fff;
      }
    </style>
  </defs>
  <g id="Layer_1-2" data-name="Layer 1">
    <g>
      <path class="cls-1" d="M116.27,41.98c-.52-4.64-2.37-8.43-5.24-11.08-.19-.2-.38-.39-.58-.58-.18-.19-.37-.38-.56-.56-.19-.19-.37-.39-.57-.57-.19-.19-.37-.38-.56-.56-.19-.19-.37-.39-.57-.57-.19-.19-.37-.39-.57-.57-.19-.19-.37-.38-.56-.56-.19-.19-.37-.39-.57-.57-.19-.19-.37-.39-.57-.57-.19-.19-.37-.39-.57-.57-.19-.19-.37-.39-.57-.57-2.84-2.92-6.78-4.64-11.51-4.79-2.09-.07-7.67-.18-13.93-.25-.38-3.22-1.77-6.02-4.12-8.23-.18-.19-.37-.38-.56-.56-.18-.19-.37-.39-.57-.57-.18-.19-.37-.38-.56-.56-.18-.2-.38-.39-.57-.57-.18-.19-.37-.38-.56-.56-.18-.2-.37-.39-.57-.57-.18-.19-.37-.38-.56-.56-.18-.19-.37-.38-.57-.57-.18-.19-.37-.38-.57-.57-.18-.19-.37-.38-.57-.57-.18-.2-.37-.39-.57-.57-1.26-1.33-2.82-2.48-4.7-3.39C61.95.6,59.31,0,56.66,0,50.22,0,44.84,3.39,42.96,8.63c-.07.21-.84,2.1-5.06,5.06-1.53,1.07-3.59,1.29-6.21,1.29-.68,0-1.34-.01-2.02-.03-.48-.01-.96-.02-1.44-.03h-.21c-4.65,0-8.63,1.55-11.51,4.5-.68.7-1.29,1.46-1.81,2.29-1.76.01-3.55.01-4.63,0-2.23-.29-4.53.33-6.32,1.69-2.09,1.59-3.32,4.01-3.38,6.64-.1,4.36-.22,11.45-.31,17.14l-.04,2.19c-.1,6.11.17,18.8.34,21.97.12,2.34,1.18,4.42,2.8,5.9.18.2.37.39.57.57.18.2.37.38.56.56.18.2.37.39.57.57.18.2.37.39.57.57.18.2.37.38.56.56.18.2.37.39.57.57.18.2.37.38.56.56.18.2.37.39.57.57.18.2.37.38.56.56.18.2.37.39.57.57.18.2.37.38.56.56,1.58,1.73,3.84,2.82,6.36,2.82.21,0,.8.01,1.63.03h.23c1.41.03,3.46.07,5.46.1.18.19.36.36.55.55.18.19.37.38.56.56.18.19.38.38.57.57.18.19.38.38.57.57,2.21,2.33,5.03,4.34,8.28,5.86,3.84,1.8,9.09,2.57,17.54,2.57,2.71,0,5.41-.07,7.79-.14l1.7-.04c11.24-.29,17.47-4.47,18.52-12.45.3-2.25.17-4.36-.37-6.3,1.09-1.68,1.76-3.56,1.97-5.55.28-2.59,0-5.01-.8-7.21,1.13-1.55,1.82-3.29,2.05-5.13l1.03-.03c5.88-.15,12.55-.33,15.6-.33,7.43,0,11.67-3,13.93-5.52,2.96-3.31,4.25-7.6,3.71-12.41Z"/>
      <g>
        <path class="cls-3" d="M44.33,85.79c-7.64,0-12.47-.66-15.63-2.14-4.4-2.06-7.78-5.1-9.56-8.51-2.58,0-5.97-.07-8.24-.12-.99-.02-1.71-.03-1.95-.03-2.18,0-3.98-1.71-4.09-3.88-.16-3.12-.43-15.63-.33-21.66l.04-2.19c.09-5.69.21-12.76.31-17.12.03-1.25.62-2.41,1.61-3.16.72-.55,1.6-.84,2.48-.84.24,0,.48.02.72.06.62.01,1.46.02,2.51.02h0c1.47,0,3.14-.01,4.63-.03.23,0,.46,0,.68,0,.57-1.64,1.43-2.81,2.22-3.62,2.01-2.06,4.88-3.15,8.29-3.15h.19c.44,0,.89.02,1.36.03.68.01,1.39.03,2.12.03,3.01,0,6.16-.26,8.8-2.11,4.79-3.37,6.26-5.97,6.71-7.23,1.23-3.43,4.94-5.65,9.46-5.65,1.97,0,3.93.45,5.67,1.29,4.12,2,8.2,6.34,4.29,15.66-.39.94-.78,1.8-1.18,2.6,1.12,0,2.32-.01,3.61-.01,9.47,0,20.87.21,24.08.31,6.77.23,11.09,4.35,11.86,11.32.39,3.5-.51,6.58-2.59,8.91-1.64,1.84-4.81,4.03-10.57,4.03-3.09,0-9.51.17-15.72.33-2,.05-3.96.1-5.78.15.38,1.18.53,2.39.42,3.61-.19,2.18-1.47,3.86-3.06,5.11,1.53,2.17,2.09,4.63,1.78,7.52-.23,2.13-1.25,3.89-2.67,5.26,1.07,1.86,1.41,3.98,1.08,6.47-1.08,8.21-10.59,8.45-14.17,8.54l-1.71.04c-2.5.07-5.08.14-7.68.14Z"/>
        <path class="cls-2" d="M44.33,85.79c-7.64,0-12.47-.66-15.63-2.14-4.4-2.06-7.78-5.1-9.56-8.51-2.58,0-5.97-.07-8.24-.12-.99-.02-1.71-.03-1.95-.03-2.18,0-3.98-1.71-4.09-3.88-.16-3.12-.43-15.63-.33-21.66l.04-2.19c.09-5.69.21-12.76.31-17.12.03-1.25.62-2.41,1.61-3.16.72-.55,1.6-.84,2.48-.84.24,0,.48.02.72.06.62.01,1.46.02,2.51.02h0c1.47,0,3.14-.01,4.63-.03.23,0,.46,0,.68,0,.57-1.64,1.43-2.81,2.22-3.62,2.01-2.06,4.88-3.15,8.29-3.15h.19c.44,0,.89.02,1.36.03.68.01,1.39.03,2.12.03,3.01,0,6.16-.26,8.8-2.11,4.79-3.37,6.26-5.97,6.71-7.23,1.23-3.43,4.94-5.65,9.46-5.65,1.97,0,3.93.45,5.67,1.29,4.12,2,8.2,6.34,4.29,15.66-.39.94-.78,1.8-1.18,2.6,1.12,0,2.32-.01,3.61-.01,9.47,0,20.87.21,24.08.31,6.77.23,11.09,4.35,11.86,11.32.39,3.5-.51,6.58-2.59,8.91-1.64,1.84-4.81,4.03-10.57,4.03-3.09,0-9.51.17-15.72.33-2,.05-3.96.1-5.78.15.38,1.18.53,2.39.42,3.61-.19,2.18-1.47,3.86-3.06,5.11,1.53,2.17,2.09,4.63,1.78,7.52-.23,2.13-1.25,3.89-2.67,5.26,1.07,1.86,1.41,3.98,1.08,6.47-1.08,8.21-10.59,8.45-14.17,8.54l-1.71.04c-2.5.07-5.08.14-7.68.14Z"/>
      </g>
      <path class="cls-1" d="M9.17,30.28c2.9.1,10.4-.05,11.82,0-.1-4.57,2.9-6.81,7.17-6.76s9.91.56,14.69-2.79,7.25-6.5,8.22-9.2,5.72-3.88,9.48-2.05c3.76,1.83,4.61,4.9,2.31,10.39-1.9,4.53-3.49,6.71-5.37,8.49,7.06-.46,30.95-.05,35.52.1s7.37,2.64,7.93,7.67c.56,5.03-2.64,8.38-9.1,8.38s-26.98.71-30.24.61c3.76,2.24,5.28,4.88,5.08,7.22s-4.83,4.22-6.3,4.42c4.62,2.79,5.34,5.28,5.03,8.13-.3,2.85-3.51,4.37-5.34,4.78,3.51,2.19,4.12,4.17,3.76,6.86s-2.19,4.78-10.21,4.98-18.4.66-23.17-1.58-7.83-5.64-8.49-8.94c-2.29.15-11.99-.1-13.01-.1-.15-2.9-.43-15.23-.33-21.38s.23-14.38.34-19.28M89.96,39.23c0,.92.54,1.29,1.22,1.32s2.68-.1,4.2-.78,2.17-1.76,2.13-3.52-.46-2.61-1.71-3.35-4-1.03-4.78-1.03-1.48.29-1.39,1c.21,1.64.33,5.18.32,6.37Z"/>
    </g>
  </g>
</svg>