<svg xmlns="http://www.w3.org/2000/svg" width="189" height="157" fill="none" aria-hidden="true" class="DynamicForm_PointingHand___eRWj"><g clip-path="url(#pointing_hand_svg__a)"><path stroke="#FDCF85" stroke-linejoin="round" stroke-width="9" d="M83.98 151.94c-12.53 0-20.44-1.08-25.63-3.51-7.21-3.38-12.75-8.37-15.68-13.95-4.22 0-9.79-.12-13.52-.19-1.63-.03-2.81-.06-3.2-.06-3.57 0-6.52-2.8-6.71-6.36-.27-5.12-.71-25.63-.55-35.51l.06-3.59c.15-9.32.34-20.93.51-28.06a6.744 6.744 0 0 1 2.64-5.19c1.18-.9 2.62-1.38 4.07-1.38.4 0 .79.03 1.19.11 1.01.02 2.39.04 4.11.04 2.42 0 5.14-.02 7.58-.04h1.12c.93-2.68 2.35-4.61 3.64-5.93 3.3-3.37 8-5.16 13.59-5.16h.31c.72.01 1.47.03 2.23.04 1.12.02 2.28.05 3.48.05 4.94 0 10.1-.42 14.43-3.45 7.86-5.52 10.27-9.79 11.01-11.85 2.02-5.63 8.1-9.26 15.51-9.26 3.23 0 6.45.73 9.3 2.12 6.75 3.28 13.45 10.4 7.04 25.67-.64 1.53-1.28 2.95-1.93 4.27 1.83-.01 3.8-.02 5.91-.02 15.52 0 34.22.34 39.47.52 11.09.37 18.18 7.13 19.45 18.55.64 5.74-.83 10.79-4.25 14.61-2.69 3.01-7.89 6.6-17.34 6.6-5.07 0-15.59.27-25.77.54-3.28.09-6.5.17-9.47.24.63 1.93.87 3.91.69 5.91-.31 3.58-2.41 6.33-5.01 8.38 2.51 3.57 3.43 7.59 2.92 12.34-.37 3.48-2.05 6.38-4.37 8.63 1.76 3.05 2.31 6.52 1.77 10.62-1.78 13.46-17.37 13.85-23.24 14l-2.8.07c-4.09.11-8.33.23-12.58.23l.02-.03Z"></path><path fill="#fff" d="M83.98 151.94c-12.53 0-20.44-1.08-25.63-3.51-7.21-3.38-12.75-8.37-15.68-13.95-4.22 0-9.79-.12-13.52-.19-1.63-.03-2.81-.06-3.2-.06-3.57 0-6.52-2.8-6.71-6.36-.27-5.12-.71-25.63-.55-35.51l.06-3.59c.15-9.32.34-20.93.51-28.06a6.744 6.744 0 0 1 2.64-5.19c1.18-.9 2.62-1.38 4.07-1.38.4 0 .79.03 1.19.11 1.01.02 2.39.04 4.11.04 2.42 0 5.14-.02 7.58-.04h1.12c.93-2.68 2.35-4.61 3.64-5.93 3.3-3.37 8-5.16 13.59-5.16h.31c.72.01 1.47.03 2.23.04 1.12.02 2.28.05 3.48.05 4.94 0 10.1-.42 14.43-3.45 7.86-5.52 10.27-9.79 11.01-11.85 2.02-5.63 8.1-9.26 15.51-9.26 3.23 0 6.45.73 9.3 2.12 6.75 3.28 13.45 10.4 7.04 25.67-.64 1.53-1.28 2.95-1.93 4.27 1.83-.01 3.8-.02 5.91-.02 15.52 0 34.22.34 39.47.52 11.09.37 18.18 7.13 19.45 18.55.64 5.74-.83 10.79-4.25 14.61-2.69 3.01-7.89 6.6-17.34 6.6-5.07 0-15.59.27-25.77.54-3.28.09-6.5.17-9.47.24.63 1.93.87 3.91.69 5.91-.31 3.58-2.41 6.33-5.01 8.38 2.51 3.57 3.43 7.59 2.92 12.34-.37 3.48-2.05 6.38-4.37 8.63 1.76 3.05 2.31 6.52 1.77 10.62-1.78 13.46-17.37 13.85-23.24 14l-2.8.07c-4.09.11-8.33.23-12.58.23l.02-.03Z"></path><path stroke="#FDCF85" stroke-linejoin="round" stroke-width="9" d="M83.41 151.37c-12.53 0-20.44-1.08-25.63-3.51-7.21-3.38-12.75-8.37-15.68-13.95-4.22 0-9.79-.12-13.52-.19-1.63-.03-2.81-.06-3.2-.06-3.57 0-6.52-2.8-6.71-6.36-.27-5.12-.71-25.63-.55-35.51l.06-3.59c.15-9.32.34-20.93.51-28.06a6.744 6.744 0 0 1 2.64-5.19c1.18-.9 2.62-1.38 4.07-1.38.4 0 .79.03 1.19.11 1.01.02 2.39.04 4.11.04 2.42 0 5.14-.02 7.58-.04h1.12c.93-2.68 2.35-4.61 3.64-5.93 3.3-3.37 8-5.16 13.59-5.16h.31c.72.01 1.47.03 2.23.04 1.12.02 2.28.05 3.48.05 4.94 0 10.1-.42 14.43-3.45 7.86-5.52 10.27-9.79 11.01-11.85 2.02-5.63 8.1-9.26 15.51-9.26 3.23 0 6.45.73 9.3 2.12 6.75 3.28 13.45 10.4 7.04 25.67-.64 1.53-1.28 2.95-1.93 4.27 1.83-.01 3.8-.02 5.91-.02 15.52 0 34.22.34 39.47.52 11.09.37 18.18 7.13 19.45 18.55.64 5.74-.83 10.79-4.25 14.61-2.69 3.01-7.89 6.6-17.34 6.6-5.07 0-15.59.27-25.77.54-3.28.09-6.5.17-9.47.24.63 1.93.87 3.91.69 5.91-.31 3.58-2.41 6.33-5.01 8.38 2.51 3.57 3.43 7.59 2.92 12.34-.37 3.48-2.05 6.38-4.37 8.63 1.76 3.05 2.31 6.52 1.77 10.62-1.78 13.46-17.37 13.85-23.24 14l-2.8.07c-4.09.11-8.33.23-12.58.23l.02-.03Z"></path><path fill="#fff" d="M83.41 151.37c-12.53 0-20.44-1.08-25.63-3.51-7.21-3.38-12.75-8.37-15.68-13.95-4.22 0-9.79-.12-13.52-.19-1.63-.03-2.81-.06-3.2-.06-3.57 0-6.52-2.8-6.71-6.36-.27-5.12-.71-25.63-.55-35.51l.06-3.59c.15-9.32.34-20.93.51-28.06a6.744 6.744 0 0 1 2.64-5.19c1.18-.9 2.62-1.38 4.07-1.38.4 0 .79.03 1.19.11 1.01.02 2.39.04 4.11.04 2.42 0 5.14-.02 7.58-.04h1.12c.93-2.68 2.35-4.61 3.64-5.93 3.3-3.37 8-5.16 13.59-5.16h.31c.72.01 1.47.03 2.23.04 1.12.02 2.28.05 3.48.05 4.94 0 10.1-.42 14.43-3.45 7.86-5.52 10.27-9.79 11.01-11.85 2.02-5.63 8.1-9.26 15.51-9.26 3.23 0 6.45.73 9.3 2.12 6.75 3.28 13.45 10.4 7.04 25.67-.64 1.53-1.28 2.95-1.93 4.27 1.83-.01 3.8-.02 5.91-.02 15.52 0 34.22.34 39.47.52 11.09.37 18.18 7.13 19.45 18.55.64 5.74-.83 10.79-4.25 14.61-2.69 3.01-7.89 6.6-17.34 6.6-5.07 0-15.59.27-25.77.54-3.28.09-6.5.17-9.47.24.63 1.93.87 3.91.69 5.91-.31 3.58-2.41 6.33-5.01 8.38 2.51 3.57 3.43 7.59 2.92 12.34-.37 3.48-2.05 6.38-4.37 8.63 1.76 3.05 2.31 6.52 1.77 10.62-1.78 13.46-17.37 13.85-23.24 14l-2.8.07c-4.09.11-8.33.23-12.58.23l.02-.03Z"></path><path stroke="#FDCF85" stroke-linejoin="round" stroke-width="9" d="M82.85 150.8c-12.53 0-20.44-1.08-25.63-3.51-7.21-3.38-12.75-8.37-15.68-13.95-4.22 0-9.79-.12-13.52-.19-1.63-.03-2.81-.06-3.2-.06-3.57 0-6.52-2.8-6.71-6.36-.27-5.12-.71-25.63-.55-35.51l.06-3.59c.15-9.32.34-20.93.51-28.06a6.744 6.744 0 0 1 2.64-5.19c1.18-.9 2.62-1.38 4.07-1.38.4 0 .79.03 1.19.11 1.01.02 2.39.04 4.11.04 2.42 0 5.14-.02 7.58-.04h1.12c.93-2.68 2.35-4.61 3.64-5.93 3.3-3.37 8-5.16 13.59-5.16h.31c.72.01 1.47.03 2.23.04 1.12.02 2.28.05 3.48.05 4.94 0 10.1-.42 14.43-3.45 7.86-5.52 10.27-9.79 11.01-11.85 2.02-5.63 8.1-9.26 15.51-9.26 3.23 0 6.45.73 9.3 2.12 6.75 3.28 13.45 10.4 7.04 25.67-.64 1.53-1.28 2.95-1.93 4.27 1.83-.01 3.8-.02 5.91-.02 15.52 0 34.22.34 39.47.52 11.09.37 18.18 7.13 19.45 18.55.64 5.74-.83 10.79-4.25 14.61-2.69 3.01-7.89 6.6-17.34 6.6-5.07 0-15.59.27-25.77.54-3.28.09-6.5.17-9.47.24.63 1.93.87 3.91.69 5.91-.31 3.58-2.41 6.33-5.01 8.38 2.51 3.57 3.43 7.59 2.92 12.34-.37 3.48-2.05 6.38-4.37 8.63 1.76 3.05 2.31 6.52 1.77 10.62-1.78 13.46-17.37 13.85-23.24 14l-2.8.07c-4.09.11-8.33.23-12.58.23l.02-.03Z"></path><path fill="#fff" d="M82.85 150.8c-12.53 0-20.44-1.08-25.63-3.51-7.21-3.38-12.75-8.37-15.68-13.95-4.22 0-9.79-.12-13.52-.19-1.63-.03-2.81-.06-3.2-.06-3.57 0-6.52-2.8-6.71-6.36-.27-5.12-.71-25.63-.55-35.51l.06-3.59c.15-9.32.34-20.93.51-28.06a6.744 6.744 0 0 1 2.64-5.19c1.18-.9 2.62-1.38 4.07-1.38.4 0 .79.03 1.19.11 1.01.02 2.39.04 4.11.04 2.42 0 5.14-.02 7.58-.04h1.12c.93-2.68 2.35-4.61 3.64-5.93 3.3-3.37 8-5.16 13.59-5.16h.31c.72.01 1.47.03 2.23.04 1.12.02 2.28.05 3.48.05 4.94 0 10.1-.42 14.43-3.45 7.86-5.52 10.27-9.79 11.01-11.85 2.02-5.63 8.1-9.26 15.51-9.26 3.23 0 6.45.73 9.3 2.12 6.75 3.28 13.45 10.4 7.04 25.67-.64 1.53-1.28 2.95-1.93 4.27 1.83-.01 3.8-.02 5.91-.02 15.52 0 34.22.34 39.47.52 11.09.37 18.18 7.13 19.45 18.55.64 5.74-.83 10.79-4.25 14.61-2.69 3.01-7.89 6.6-17.34 6.6-5.07 0-15.59.27-25.77.54-3.28.09-6.5.17-9.47.24.63 1.93.87 3.91.69 5.91-.31 3.58-2.41 6.33-5.01 8.38 2.51 3.57 3.43 7.59 2.92 12.34-.37 3.48-2.05 6.38-4.37 8.63 1.76 3.05 2.31 6.52 1.77 10.62-1.78 13.46-17.37 13.85-23.24 14l-2.8.07c-4.09.11-8.33.23-12.58.23l.02-.03Z"></path><path stroke="#FDCF85" stroke-linejoin="round" stroke-width="9" d="M82.28 150.24c-12.53 0-20.44-1.08-25.63-3.51-7.21-3.38-12.75-8.37-15.68-13.95-4.22 0-9.79-.12-13.52-.19-1.63-.03-2.81-.06-3.2-.06-3.57 0-6.52-2.8-6.71-6.36-.27-5.12-.71-25.63-.55-35.51l.06-3.59c.15-9.32.34-20.93.51-28.06a6.744 6.744 0 0 1 2.64-5.19c1.18-.9 2.62-1.38 4.07-1.38.4 0 .79.03 1.19.11 1.01.02 2.39.04 4.11.04 2.42 0 5.14-.02 7.58-.04h1.12c.93-2.68 2.35-4.61 3.64-5.93 3.3-3.37 8-5.16 13.59-5.16h.31c.72.01 1.47.03 2.23.04 1.12.02 2.28.05 3.48.05 4.94 0 10.1-.42 14.43-3.45 7.86-5.52 10.27-9.79 11.01-11.85 2.02-5.63 8.1-9.26 15.51-9.26 3.23 0 6.45.73 9.3 2.12 6.75 3.28 13.45 10.4 7.04 25.67-.64 1.53-1.28 2.95-1.93 4.27 1.83-.01 3.8-.02 5.91-.02 15.52 0 34.22.34 39.47.52 11.09.37 18.18 7.13 19.45 18.55.64 5.74-.83 10.79-4.25 14.61-2.69 3.01-7.89 6.6-17.34 6.6-5.07 0-15.59.27-25.77.54-3.28.09-6.5.17-9.47.24.63 1.93.87 3.91.69 5.91-.31 3.58-2.41 6.33-5.01 8.38 2.51 3.57 3.43 7.59 2.92 12.34-.37 3.48-2.05 6.38-4.37 8.63 1.76 3.05 2.31 6.52 1.77 10.62-1.78 13.46-17.37 13.85-23.24 14l-2.8.07c-4.09.11-8.33.23-12.58.23l.02-.03Z"></path><path fill="#fff" d="M82.28 150.24c-12.53 0-20.44-1.08-25.63-3.51-7.21-3.38-12.75-8.37-15.68-13.95-4.22 0-9.79-.12-13.52-.19-1.63-.03-2.81-.06-3.2-.06-3.57 0-6.52-2.8-6.71-6.36-.27-5.12-.71-25.63-.55-35.51l.06-3.59c.15-9.32.34-20.93.51-28.06a6.744 6.744 0 0 1 2.64-5.19c1.18-.9 2.62-1.38 4.07-1.38.4 0 .79.03 1.19.11 1.01.02 2.39.04 4.11.04 2.42 0 5.14-.02 7.58-.04h1.12c.93-2.68 2.35-4.61 3.64-5.93 3.3-3.37 8-5.16 13.59-5.16h.31c.72.01 1.47.03 2.23.04 1.12.02 2.28.05 3.48.05 4.94 0 10.1-.42 14.43-3.45 7.86-5.52 10.27-9.79 11.01-11.85 2.02-5.63 8.1-9.26 15.51-9.26 3.23 0 6.45.73 9.3 2.12 6.75 3.28 13.45 10.4 7.04 25.67-.64 1.53-1.28 2.95-1.93 4.27 1.83-.01 3.8-.02 5.91-.02 15.52 0 34.22.34 39.47.52 11.09.37 18.18 7.13 19.45 18.55.64 5.74-.83 10.79-4.25 14.61-2.69 3.01-7.89 6.6-17.34 6.6-5.07 0-15.59.27-25.77.54-3.28.09-6.5.17-9.47.24.63 1.93.87 3.91.69 5.91-.31 3.58-2.41 6.33-5.01 8.38 2.51 3.57 3.43 7.59 2.92 12.34-.37 3.48-2.05 6.38-4.37 8.63 1.76 3.05 2.31 6.52 1.77 10.62-1.78 13.46-17.37 13.85-23.24 14l-2.8.07c-4.09.11-8.33.23-12.58.23l.02-.03Z"></path><path stroke="#FDCF85" stroke-linejoin="round" stroke-width="9" d="M81.71 149.67c-12.53 0-20.44-1.08-25.63-3.51-7.21-3.38-12.75-8.37-15.68-13.95-4.22 0-9.79-.12-13.52-.19-1.63-.03-2.81-.06-3.2-.06-3.57 0-6.52-2.8-6.71-6.36-.27-5.12-.71-25.63-.55-35.51l.06-3.59c.15-9.32.34-20.93.51-28.06a6.744 6.744 0 0 1 2.64-5.19c1.18-.9 2.62-1.38 4.07-1.38.4 0 .79.03 1.19.11 1.01.02 2.39.04 4.11.04 2.42 0 5.14-.02 7.58-.04h1.12c.93-2.68 2.35-4.61 3.64-5.93 3.3-3.37 8-5.16 13.59-5.16h.31c.72.01 1.47.03 2.23.04 1.12.02 2.28.05 3.48.05 4.94 0 10.1-.42 14.43-3.45 7.86-5.52 10.27-9.79 11.01-11.85 2.02-5.63 8.1-9.26 15.51-9.26 3.23 0 6.45.73 9.3 2.12 6.75 3.28 13.45 10.4 7.04 25.67-.64 1.53-1.28 2.95-1.93 4.27 1.83-.01 3.8-.02 5.91-.02 15.52 0 34.22.34 39.47.52 11.09.37 18.18 7.13 19.45 18.55.64 5.74-.83 10.79-4.25 14.61-2.69 3.01-7.89 6.6-17.34 6.6-5.07 0-15.59.27-25.77.54-3.28.09-6.5.17-9.47.24.63 1.93.87 3.91.69 5.91-.31 3.58-2.41 6.33-5.01 8.38 2.51 3.57 3.43 7.59 2.92 12.34-.37 3.48-2.05 6.38-4.37 8.63 1.76 3.05 2.31 6.52 1.77 10.62-1.78 13.46-17.37 13.85-23.24 14l-2.8.07c-4.09.11-8.33.23-12.58.23l.02-.03Z"></path><path fill="#fff" d="M81.71 149.67c-12.53 0-20.44-1.08-25.63-3.51-7.21-3.38-12.75-8.37-15.68-13.95-4.22 0-9.79-.12-13.52-.19-1.63-.03-2.81-.06-3.2-.06-3.57 0-6.52-2.8-6.71-6.36-.27-5.12-.71-25.63-.55-35.51l.06-3.59c.15-9.32.34-20.93.51-28.06a6.744 6.744 0 0 1 2.64-5.19c1.18-.9 2.62-1.38 4.07-1.38.4 0 .79.03 1.19.11 1.01.02 2.39.04 4.11.04 2.42 0 5.14-.02 7.58-.04h1.12c.93-2.68 2.35-4.61 3.64-5.93 3.3-3.37 8-5.16 13.59-5.16h.31c.72.01 1.47.03 2.23.04 1.12.02 2.28.05 3.48.05 4.94 0 10.1-.42 14.43-3.45 7.86-5.52 10.27-9.79 11.01-11.85 2.02-5.63 8.1-9.26 15.51-9.26 3.23 0 6.45.73 9.3 2.12 6.75 3.28 13.45 10.4 7.04 25.67-.64 1.53-1.28 2.95-1.93 4.27 1.83-.01 3.8-.02 5.91-.02 15.52 0 34.22.34 39.47.52 11.09.37 18.18 7.13 19.45 18.55.64 5.74-.83 10.79-4.25 14.61-2.69 3.01-7.89 6.6-17.34 6.6-5.07 0-15.59.27-25.77.54-3.28.09-6.5.17-9.47.24.63 1.93.87 3.91.69 5.91-.31 3.58-2.41 6.33-5.01 8.38 2.51 3.57 3.43 7.59 2.92 12.34-.37 3.48-2.05 6.38-4.37 8.63 1.76 3.05 2.31 6.52 1.77 10.62-1.78 13.46-17.37 13.85-23.24 14l-2.8.07c-4.09.11-8.33.23-12.58.23l.02-.03Z"></path><path stroke="#FDCF85" stroke-linejoin="round" stroke-width="9" d="M81.15 149.1c-12.53 0-20.44-1.08-25.63-3.51-7.21-3.38-12.75-8.37-15.68-13.95-4.22 0-9.79-.12-13.52-.19-1.63-.03-2.81-.06-3.2-.06-3.57 0-6.52-2.8-6.71-6.36-.27-5.12-.71-25.63-.55-35.51l.06-3.59c.15-9.32.34-20.93.51-28.06a6.744 6.744 0 0 1 2.64-5.19c1.18-.9 2.62-1.38 4.07-1.38.4 0 .79.03 1.19.11 1.01.02 2.39.04 4.11.04 2.42 0 5.14-.02 7.58-.04h1.12c.93-2.68 2.35-4.61 3.64-5.93 3.3-3.37 8-5.16 13.59-5.16h.31c.72.01 1.47.03 2.23.04 1.12.02 2.28.05 3.48.05 4.94 0 10.1-.42 14.43-3.45 7.86-5.52 10.27-9.79 11.01-11.85 2.02-5.63 8.1-9.26 15.51-9.26 3.23 0 6.45.73 9.3 2.12 6.75 3.28 13.45 10.4 7.04 25.67-.64 1.53-1.28 2.95-1.93 4.27 1.83-.01 3.8-.02 5.91-.02 15.52 0 34.22.34 39.47.52 11.09.37 18.18 7.13 19.45 18.55.64 5.74-.83 10.79-4.25 14.61-2.69 3.01-7.89 6.6-17.34 6.6-5.07 0-15.59.27-25.77.54-3.28.09-6.5.17-9.47.24.63 1.93.87 3.91.69 5.91-.31 3.58-2.41 6.33-5.01 8.38 2.51 3.57 3.43 7.59 2.92 12.34-.37 3.48-2.05 6.38-4.37 8.63 1.76 3.05 2.31 6.52 1.77 10.62-1.78 13.46-17.37 13.85-23.24 14l-2.8.07c-4.09.11-8.33.23-12.58.23l.02-.03Z"></path><path fill="#fff" d="M81.15 149.1c-12.53 0-20.44-1.08-25.63-3.51-7.21-3.38-12.75-8.37-15.68-13.95-4.22 0-9.79-.12-13.52-.19-1.63-.03-2.81-.06-3.2-.06-3.57 0-6.52-2.8-6.71-6.36-.27-5.12-.71-25.63-.55-35.51l.06-3.59c.15-9.32.34-20.93.51-28.06a6.744 6.744 0 0 1 2.64-5.19c1.18-.9 2.62-1.38 4.07-1.38.4 0 .79.03 1.19.11 1.01.02 2.39.04 4.11.04 2.42 0 5.14-.02 7.58-.04h1.12c.93-2.68 2.35-4.61 3.64-5.93 3.3-3.37 8-5.16 13.59-5.16h.31c.72.01 1.47.03 2.23.04 1.12.02 2.28.05 3.48.05 4.94 0 10.1-.42 14.43-3.45 7.86-5.52 10.27-9.79 11.01-11.85 2.02-5.63 8.1-9.26 15.51-9.26 3.23 0 6.45.73 9.3 2.12 6.75 3.28 13.45 10.4 7.04 25.67-.64 1.53-1.28 2.95-1.93 4.27 1.83-.01 3.8-.02 5.91-.02 15.52 0 34.22.34 39.47.52 11.09.37 18.18 7.13 19.45 18.55.64 5.74-.83 10.79-4.25 14.61-2.69 3.01-7.89 6.6-17.34 6.6-5.07 0-15.59.27-25.77.54-3.28.09-6.5.17-9.47.24.63 1.93.87 3.91.69 5.91-.31 3.58-2.41 6.33-5.01 8.38 2.51 3.57 3.43 7.59 2.92 12.34-.37 3.48-2.05 6.38-4.37 8.63 1.76 3.05 2.31 6.52 1.77 10.62-1.78 13.46-17.37 13.85-23.24 14l-2.8.07c-4.09.11-8.33.23-12.58.23l.02-.03Z"></path><path stroke="#FDCF85" stroke-linejoin="round" stroke-width="9" d="M80.58 148.54c-12.53 0-20.44-1.08-25.63-3.51-7.21-3.38-12.75-8.37-15.68-13.95-4.22 0-9.79-.12-13.52-.19-1.63-.03-2.81-.06-3.2-.06-3.57 0-6.52-2.8-6.71-6.36-.27-5.12-.71-25.63-.55-35.51l.06-3.59c.15-9.32.34-20.93.51-28.06a6.744 6.744 0 0 1 2.64-5.19c1.18-.9 2.62-1.38 4.07-1.38.4 0 .79.03 1.19.11 1.01.02 2.39.04 4.11.04 2.42 0 5.14-.02 7.58-.04h1.12c.93-2.68 2.35-4.61 3.64-5.93 3.3-3.37 8-5.16 13.59-5.16h.31c.72.01 1.47.03 2.23.04 1.12.02 2.28.05 3.48.05 4.94 0 10.1-.42 14.43-3.45 7.86-5.52 10.27-9.79 11.01-11.85 2.02-5.63 8.1-9.26 15.51-9.26 3.23 0 6.45.73 9.3 2.12 6.75 3.28 13.45 10.4 7.04 25.67-.64 1.53-1.28 2.95-1.93 4.27 1.83-.01 3.8-.02 5.91-.02 15.52 0 34.22.34 39.47.52 11.09.37 18.18 7.13 19.45 18.55.64 5.74-.83 10.79-4.25 14.61-2.69 3.01-7.89 6.6-17.34 6.6-5.07 0-15.59.27-25.77.54-3.28.09-6.5.17-9.47.24.63 1.93.87 3.91.69 5.91-.31 3.58-2.41 6.33-5.01 8.38 2.51 3.57 3.43 7.59 2.92 12.34-.37 3.48-2.05 6.38-4.37 8.63 1.76 3.05 2.31 6.52 1.77 10.62-1.78 13.46-17.37 13.85-23.24 14l-2.8.07c-4.09.11-8.33.23-12.58.23l.02-.03Z"></path><path fill="#fff" d="M80.58 148.54c-12.53 0-20.44-1.08-25.63-3.51-7.21-3.38-12.75-8.37-15.68-13.95-4.22 0-9.79-.12-13.52-.19-1.63-.03-2.81-.06-3.2-.06-3.57 0-6.52-2.8-6.71-6.36-.27-5.12-.71-25.63-.55-35.51l.06-3.59c.15-9.32.34-20.93.51-28.06a6.744 6.744 0 0 1 2.64-5.19c1.18-.9 2.62-1.38 4.07-1.38.4 0 .79.03 1.19.11 1.01.02 2.39.04 4.11.04 2.42 0 5.14-.02 7.58-.04h1.12c.93-2.68 2.35-4.61 3.64-5.93 3.3-3.37 8-5.16 13.59-5.16h.31c.72.01 1.47.03 2.23.04 1.12.02 2.28.05 3.48.05 4.94 0 10.1-.42 14.43-3.45 7.86-5.52 10.27-9.79 11.01-11.85 2.02-5.63 8.1-9.26 15.51-9.26 3.23 0 6.45.73 9.3 2.12 6.75 3.28 13.45 10.4 7.04 25.67-.64 1.53-1.28 2.95-1.93 4.27 1.83-.01 3.8-.02 5.91-.02 15.52 0 34.22.34 39.47.52 11.09.37 18.18 7.13 19.45 18.55.64 5.74-.83 10.79-4.25 14.61-2.69 3.01-7.89 6.6-17.34 6.6-5.07 0-15.59.27-25.77.54-3.28.09-6.5.17-9.47.24.63 1.93.87 3.91.69 5.91-.31 3.58-2.41 6.33-5.01 8.38 2.51 3.57 3.43 7.59 2.92 12.34-.37 3.48-2.05 6.38-4.37 8.63 1.76 3.05 2.31 6.52 1.77 10.62-1.78 13.46-17.37 13.85-23.24 14l-2.8.07c-4.09.11-8.33.23-12.58.23l.02-.03Z"></path><path stroke="#FDCF85" stroke-linejoin="round" stroke-width="9" d="M80.01 147.97c-12.53 0-20.44-1.08-25.63-3.51-7.21-3.38-12.75-8.37-15.68-13.95-4.22 0-9.79-.12-13.52-.19-1.63-.03-2.81-.06-3.2-.06-3.57 0-6.52-2.8-6.71-6.36-.27-5.12-.71-25.63-.55-35.51l.06-3.59c.15-9.32.34-20.93.51-28.06a6.744 6.744 0 0 1 2.64-5.19c1.18-.9 2.62-1.38 4.07-1.38.4 0 .79.03 1.19.11 1.01.02 2.39.04 4.11.04 2.42 0 5.14-.02 7.58-.04H36c.93-2.68 2.35-4.61 3.64-5.93 3.3-3.37 8-5.16 13.59-5.16h.31c.72.01 1.47.03 2.23.04 1.12.02 2.28.05 3.48.05 4.94 0 10.1-.42 14.43-3.45 7.86-5.52 10.27-9.79 11.01-11.85 2.02-5.63 8.1-9.26 15.51-9.26 3.23 0 6.45.73 9.3 2.12 6.75 3.28 13.45 10.4 7.04 25.67-.64 1.53-1.28 2.95-1.93 4.27 1.83-.01 3.8-.02 5.91-.02 15.52 0 34.22.34 39.47.52 11.09.37 18.18 7.13 19.45 18.55.64 5.74-.83 10.79-4.25 14.61-2.69 3.01-7.89 6.6-17.34 6.6-5.07 0-15.59.27-25.77.54-3.28.09-6.5.17-9.47.24.63 1.93.87 3.91.69 5.91-.31 3.58-2.41 6.33-5.01 8.38 2.51 3.57 3.43 7.59 2.92 12.34-.37 3.48-2.05 6.38-4.37 8.63 1.76 3.05 2.31 6.52 1.77 10.62-1.78 13.46-17.37 13.85-23.24 14l-2.8.07c-4.09.11-8.33.23-12.58.23l.02-.03Z"></path><path fill="#fff" d="M80.01 147.97c-12.53 0-20.44-1.08-25.63-3.51-7.21-3.38-12.75-8.37-15.68-13.95-4.22 0-9.79-.12-13.52-.19-1.63-.03-2.81-.06-3.2-.06-3.57 0-6.52-2.8-6.71-6.36-.27-5.12-.71-25.63-.55-35.51l.06-3.59c.15-9.32.34-20.93.51-28.06a6.744 6.744 0 0 1 2.64-5.19c1.18-.9 2.62-1.38 4.07-1.38.4 0 .79.03 1.19.11 1.01.02 2.39.04 4.11.04 2.42 0 5.14-.02 7.58-.04H36c.93-2.68 2.35-4.61 3.64-5.93 3.3-3.37 8-5.16 13.59-5.16h.31c.72.01 1.47.03 2.23.04 1.12.02 2.28.05 3.48.05 4.94 0 10.1-.42 14.43-3.45 7.86-5.52 10.27-9.79 11.01-11.85 2.02-5.63 8.1-9.26 15.51-9.26 3.23 0 6.45.73 9.3 2.12 6.75 3.28 13.45 10.4 7.04 25.67-.64 1.53-1.28 2.95-1.93 4.27 1.83-.01 3.8-.02 5.91-.02 15.52 0 34.22.34 39.47.52 11.09.37 18.18 7.13 19.45 18.55.64 5.74-.83 10.79-4.25 14.61-2.69 3.01-7.89 6.6-17.34 6.6-5.07 0-15.59.27-25.77.54-3.28.09-6.5.17-9.47.24.63 1.93.87 3.91.69 5.91-.31 3.58-2.41 6.33-5.01 8.38 2.51 3.57 3.43 7.59 2.92 12.34-.37 3.48-2.05 6.38-4.37 8.63 1.76 3.05 2.31 6.52 1.77 10.62-1.78 13.46-17.37 13.85-23.24 14l-2.8.07c-4.09.11-8.33.23-12.58.23l.02-.03Z"></path><path stroke="#FDCF85" stroke-linejoin="round" stroke-width="9" d="M79.45 147.4c-12.53 0-20.44-1.08-25.63-3.51-7.21-3.38-12.75-8.37-15.68-13.95-4.22 0-9.79-.12-13.52-.19-1.63-.03-2.81-.06-3.2-.06-3.57 0-6.52-2.8-6.71-6.36-.27-5.12-.71-25.63-.55-35.51l.06-3.59c.15-9.32.34-20.93.51-28.06a6.744 6.744 0 0 1 2.64-5.19c1.18-.9 2.62-1.38 4.07-1.38.4 0 .79.03 1.19.11 1.01.02 2.39.04 4.11.04 2.42 0 5.14-.02 7.58-.04h1.12c.93-2.68 2.35-4.61 3.64-5.93 3.3-3.37 8-5.16 13.59-5.16h.31c.72.01 1.47.03 2.23.04 1.12.02 2.28.05 3.48.05 4.94 0 10.1-.42 14.43-3.45 7.86-5.52 10.27-9.79 11.01-11.85 2.02-5.63 8.1-9.26 15.51-9.26 3.23 0 6.45.73 9.3 2.12 6.75 3.28 13.45 10.4 7.04 25.67-.64 1.53-1.28 2.95-1.93 4.27 1.83-.01 3.8-.02 5.91-.02 15.52 0 34.22.34 39.47.52 11.09.37 18.18 7.13 19.45 18.55.64 5.74-.83 10.79-4.25 14.61-2.69 3.01-7.89 6.6-17.34 6.6-5.07 0-15.59.27-25.77.54-3.28.09-6.5.17-9.47.24.63 1.93.87 3.91.69 5.91-.31 3.58-2.41 6.33-5.01 8.38 2.51 3.57 3.43 7.59 2.92 12.34-.37 3.48-2.05 6.38-4.37 8.63 1.76 3.05 2.31 6.52 1.77 10.62-1.78 13.46-17.37 13.85-23.24 14l-2.8.07c-4.09.11-8.33.23-12.58.23l.02-.03Z"></path><path fill="#fff" d="M79.45 147.4c-12.53 0-20.44-1.08-25.63-3.51-7.21-3.38-12.75-8.37-15.68-13.95-4.22 0-9.79-.12-13.52-.19-1.63-.03-2.81-.06-3.2-.06-3.57 0-6.52-2.8-6.71-6.36-.27-5.12-.71-25.63-.55-35.51l.06-3.59c.15-9.32.34-20.93.51-28.06a6.744 6.744 0 0 1 2.64-5.19c1.18-.9 2.62-1.38 4.07-1.38.4 0 .79.03 1.19.11 1.01.02 2.39.04 4.11.04 2.42 0 5.14-.02 7.58-.04h1.12c.93-2.68 2.35-4.61 3.64-5.93 3.3-3.37 8-5.16 13.59-5.16h.31c.72.01 1.47.03 2.23.04 1.12.02 2.28.05 3.48.05 4.94 0 10.1-.42 14.43-3.45 7.86-5.52 10.27-9.79 11.01-11.85 2.02-5.63 8.1-9.26 15.51-9.26 3.23 0 6.45.73 9.3 2.12 6.75 3.28 13.45 10.4 7.04 25.67-.64 1.53-1.28 2.95-1.93 4.27 1.83-.01 3.8-.02 5.91-.02 15.52 0 34.22.34 39.47.52 11.09.37 18.18 7.13 19.45 18.55.64 5.74-.83 10.79-4.25 14.61-2.69 3.01-7.89 6.6-17.34 6.6-5.07 0-15.59.27-25.77.54-3.28.09-6.5.17-9.47.24.63 1.93.87 3.91.69 5.91-.31 3.58-2.41 6.33-5.01 8.38 2.51 3.57 3.43 7.59 2.92 12.34-.37 3.48-2.05 6.38-4.37 8.63 1.76 3.05 2.31 6.52 1.77 10.62-1.78 13.46-17.37 13.85-23.24 14l-2.8.07c-4.09.11-8.33.23-12.58.23l.02-.03Z"></path><path stroke="#FDCF85" stroke-linejoin="round" stroke-width="9" d="M78.88 146.84c-12.53 0-20.44-1.08-25.63-3.51-7.21-3.38-12.75-8.37-15.68-13.95-4.22 0-9.79-.12-13.52-.19-1.63-.03-2.81-.06-3.2-.06-3.57 0-6.52-2.8-6.71-6.36-.27-5.12-.71-25.63-.55-35.51l.06-3.59c.15-9.32.34-20.93.51-28.06a6.744 6.744 0 0 1 2.64-5.19c1.18-.9 2.62-1.38 4.07-1.38.4 0 .79.03 1.19.11 1.01.02 2.39.04 4.11.04 2.42 0 5.14-.02 7.58-.04h1.12c.93-2.68 2.35-4.61 3.64-5.93 3.3-3.37 8-5.16 13.59-5.16h.31c.72.01 1.47.03 2.23.04 1.12.02 2.28.05 3.48.05 4.94 0 10.1-.42 14.43-3.45 7.86-5.52 10.27-9.79 11.01-11.85 2.02-5.63 8.1-9.26 15.51-9.26 3.23 0 6.45.73 9.3 2.12 6.75 3.28 13.45 10.4 7.04 25.67-.64 1.53-1.28 2.95-1.93 4.27 1.83-.01 3.8-.02 5.91-.02 15.52 0 34.22.34 39.47.52 11.09.37 18.18 7.13 19.45 18.55.64 5.74-.83 10.79-4.25 14.61-2.69 3.01-7.89 6.6-17.34 6.6-5.07 0-15.59.27-25.77.54-3.28.09-6.5.17-9.47.24.63 1.93.87 3.91.69 5.91-.31 3.58-2.41 6.33-5.01 8.38 2.51 3.57 3.43 7.59 2.92 12.34-.37 3.48-2.05 6.38-4.37 8.63 1.76 3.05 2.31 6.52 1.77 10.62-1.78 13.46-17.37 13.85-23.24 14l-2.8.07c-4.09.11-8.33.23-12.58.23l.02-.03Z"></path><path fill="#fff" d="M78.88 146.84c-12.53 0-20.44-1.08-25.63-3.51-7.21-3.38-12.75-8.37-15.68-13.95-4.22 0-9.79-.12-13.52-.19-1.63-.03-2.81-.06-3.2-.06-3.57 0-6.52-2.8-6.71-6.36-.27-5.12-.71-25.63-.55-35.51l.06-3.59c.15-9.32.34-20.93.51-28.06a6.744 6.744 0 0 1 2.64-5.19c1.18-.9 2.62-1.38 4.07-1.38.4 0 .79.03 1.19.11 1.01.02 2.39.04 4.11.04 2.42 0 5.14-.02 7.58-.04h1.12c.93-2.68 2.35-4.61 3.64-5.93 3.3-3.37 8-5.16 13.59-5.16h.31c.72.01 1.47.03 2.23.04 1.12.02 2.28.05 3.48.05 4.94 0 10.1-.42 14.43-3.45 7.86-5.52 10.27-9.79 11.01-11.85 2.02-5.63 8.1-9.26 15.51-9.26 3.23 0 6.45.73 9.3 2.12 6.75 3.28 13.45 10.4 7.04 25.67-.64 1.53-1.28 2.95-1.93 4.27 1.83-.01 3.8-.02 5.91-.02 15.52 0 34.22.34 39.47.52 11.09.37 18.18 7.13 19.45 18.55.64 5.74-.83 10.79-4.25 14.61-2.69 3.01-7.89 6.6-17.34 6.6-5.07 0-15.59.27-25.77.54-3.28.09-6.5.17-9.47.24.63 1.93.87 3.91.69 5.91-.31 3.58-2.41 6.33-5.01 8.38 2.51 3.57 3.43 7.59 2.92 12.34-.37 3.48-2.05 6.38-4.37 8.63 1.76 3.05 2.31 6.52 1.77 10.62-1.78 13.46-17.37 13.85-23.24 14l-2.8.07c-4.09.11-8.33.23-12.58.23l.02-.03Z"></path><path stroke="#FDCF85" stroke-linejoin="round" stroke-width="9" d="M78.31 146.27c-12.53 0-20.44-1.08-25.63-3.51-7.21-3.38-12.75-8.37-15.68-13.95-4.22 0-9.79-.12-13.52-.19-1.63-.03-2.81-.06-3.2-.06-3.57 0-6.52-2.8-6.71-6.36-.27-5.12-.71-25.63-.55-35.51l.06-3.59c.15-9.32.34-20.93.51-28.06a6.744 6.744 0 0 1 2.64-5.19c1.18-.9 2.62-1.38 4.07-1.38.4 0 .79.03 1.19.11 1.01.02 2.39.04 4.11.04 2.42 0 5.14-.02 7.58-.04h1.12c.93-2.68 2.35-4.61 3.64-5.93 3.3-3.37 8-5.16 13.59-5.16h.31c.72.01 1.47.03 2.23.04 1.12.02 2.28.05 3.48.05 4.94 0 10.1-.42 14.43-3.45 7.86-5.52 10.27-9.79 11.01-11.85 2.02-5.63 8.1-9.26 15.51-9.26 3.23 0 6.45.73 9.3 2.12 6.75 3.28 13.45 10.4 7.04 25.67-.64 1.53-1.28 2.95-1.93 4.27 1.83-.01 3.8-.02 5.91-.02 15.52 0 34.22.34 39.47.52 11.09.37 18.18 7.13 19.45 18.55.64 5.74-.83 10.79-4.25 14.61-2.69 3.01-7.89 6.6-17.34 6.6-5.07 0-15.59.27-25.77.54-3.28.09-6.5.17-9.47.24.63 1.93.87 3.91.69 5.91-.31 3.58-2.41 6.33-5.01 8.38 2.51 3.57 3.43 7.59 2.92 12.34-.37 3.48-2.05 6.38-4.37 8.63 1.76 3.05 2.31 6.52 1.77 10.62-1.78 13.46-17.37 13.85-23.24 14l-2.8.07c-4.09.11-8.33.23-12.58.23l.02-.03Z"></path><path fill="#fff" d="M78.31 146.27c-12.53 0-20.44-1.08-25.63-3.51-7.21-3.38-12.75-8.37-15.68-13.95-4.22 0-9.79-.12-13.52-.19-1.63-.03-2.81-.06-3.2-.06-3.57 0-6.52-2.8-6.71-6.36-.27-5.12-.71-25.63-.55-35.51l.06-3.59c.15-9.32.34-20.93.51-28.06a6.744 6.744 0 0 1 2.64-5.19c1.18-.9 2.62-1.38 4.07-1.38.4 0 .79.03 1.19.11 1.01.02 2.39.04 4.11.04 2.42 0 5.14-.02 7.58-.04h1.12c.93-2.68 2.35-4.61 3.64-5.93 3.3-3.37 8-5.16 13.59-5.16h.31c.72.01 1.47.03 2.23.04 1.12.02 2.28.05 3.48.05 4.94 0 10.1-.42 14.43-3.45 7.86-5.52 10.27-9.79 11.01-11.85 2.02-5.63 8.1-9.26 15.51-9.26 3.23 0 6.45.73 9.3 2.12 6.75 3.28 13.45 10.4 7.04 25.67-.64 1.53-1.28 2.95-1.93 4.27 1.83-.01 3.8-.02 5.91-.02 15.52 0 34.22.34 39.47.52 11.09.37 18.18 7.13 19.45 18.55.64 5.74-.83 10.79-4.25 14.61-2.69 3.01-7.89 6.6-17.34 6.6-5.07 0-15.59.27-25.77.54-3.28.09-6.5.17-9.47.24.63 1.93.87 3.91.69 5.91-.31 3.58-2.41 6.33-5.01 8.38 2.51 3.57 3.43 7.59 2.92 12.34-.37 3.48-2.05 6.38-4.37 8.63 1.76 3.05 2.31 6.52 1.77 10.62-1.78 13.46-17.37 13.85-23.24 14l-2.8.07c-4.09.11-8.33.23-12.58.23l.02-.03Z"></path><path stroke="#FDCF85" stroke-linejoin="round" stroke-width="9" d="M77.74 145.7c-12.53 0-20.44-1.08-25.63-3.51-7.21-3.38-12.75-8.37-15.68-13.95-4.22 0-9.79-.12-13.52-.19-1.63-.03-2.81-.06-3.2-.06-3.57 0-6.52-2.8-6.71-6.36-.27-5.12-.71-25.63-.55-35.51l.06-3.59c.15-9.32.34-20.93.51-28.06a6.744 6.744 0 0 1 2.64-5.19c1.18-.9 2.62-1.38 4.07-1.38.4 0 .79.03 1.19.11 1.01.02 2.39.04 4.11.04 2.42 0 5.14-.02 7.58-.04h1.12c.93-2.68 2.35-4.61 3.64-5.93 3.3-3.37 8-5.16 13.59-5.16h.31c.72.01 1.47.03 2.23.04 1.12.02 2.28.05 3.48.05 4.94 0 10.1-.42 14.43-3.45 7.86-5.52 10.27-9.79 11.01-11.85 2.02-5.63 8.1-9.26 15.51-9.26 3.23 0 6.45.73 9.3 2.12 6.75 3.28 13.45 10.4 7.04 25.67-.64 1.53-1.28 2.95-1.93 4.27 1.83-.01 3.8-.02 5.91-.02 15.52 0 34.22.34 39.47.52 11.09.37 18.18 7.13 19.45 18.55.64 5.74-.83 10.79-4.25 14.61-2.69 3.01-7.89 6.6-17.34 6.6-5.07 0-15.59.27-25.77.54-3.28.09-6.5.17-9.47.24.63 1.93.87 3.91.69 5.91-.31 3.58-2.41 6.33-5.01 8.38 2.51 3.57 3.43 7.59 2.92 12.34-.37 3.48-2.05 6.38-4.37 8.63 1.76 3.05 2.31 6.52 1.77 10.62-1.78 13.46-17.37 13.85-23.24 14l-2.8.07c-4.09.11-8.33.23-12.58.23l.02-.03Z"></path><path fill="#fff" d="M77.74 145.7c-12.53 0-20.44-1.08-25.63-3.51-7.21-3.38-12.75-8.37-15.68-13.95-4.22 0-9.79-.12-13.52-.19-1.63-.03-2.81-.06-3.2-.06-3.57 0-6.52-2.8-6.71-6.36-.27-5.12-.71-25.63-.55-35.51l.06-3.59c.15-9.32.34-20.93.51-28.06a6.744 6.744 0 0 1 2.64-5.19c1.18-.9 2.62-1.38 4.07-1.38.4 0 .79.03 1.19.11 1.01.02 2.39.04 4.11.04 2.42 0 5.14-.02 7.58-.04h1.12c.93-2.68 2.35-4.61 3.64-5.93 3.3-3.37 8-5.16 13.59-5.16h.31c.72.01 1.47.03 2.23.04 1.12.02 2.28.05 3.48.05 4.94 0 10.1-.42 14.43-3.45 7.86-5.52 10.27-9.79 11.01-11.85 2.02-5.63 8.1-9.26 15.51-9.26 3.23 0 6.45.73 9.3 2.12 6.75 3.28 13.45 10.4 7.04 25.67-.64 1.53-1.28 2.95-1.93 4.27 1.83-.01 3.8-.02 5.91-.02 15.52 0 34.22.34 39.47.52 11.09.37 18.18 7.13 19.45 18.55.64 5.74-.83 10.79-4.25 14.61-2.69 3.01-7.89 6.6-17.34 6.6-5.07 0-15.59.27-25.77.54-3.28.09-6.5.17-9.47.24.63 1.93.87 3.91.69 5.91-.31 3.58-2.41 6.33-5.01 8.38 2.51 3.57 3.43 7.59 2.92 12.34-.37 3.48-2.05 6.38-4.37 8.63 1.76 3.05 2.31 6.52 1.77 10.62-1.78 13.46-17.37 13.85-23.24 14l-2.8.07c-4.09.11-8.33.23-12.58.23l.02-.03Z"></path><path stroke="#FDCF85" stroke-linejoin="round" stroke-width="9" d="M77.18 145.14c-12.53 0-20.44-1.08-25.63-3.51-7.21-3.38-12.75-8.37-15.68-13.95-4.22 0-9.79-.12-13.52-.19-1.63-.03-2.81-.06-3.2-.06-3.57 0-6.52-2.8-6.71-6.36-.27-5.12-.71-25.63-.55-35.51l.06-3.59c.15-9.32.34-20.93.51-28.06a6.744 6.744 0 0 1 2.64-5.19c1.18-.9 2.62-1.38 4.07-1.38.4 0 .79.03 1.19.11 1.01.02 2.39.04 4.11.04 2.42 0 5.14-.02 7.58-.04h1.12c.93-2.68 2.35-4.61 3.64-5.93 3.3-3.37 8-5.16 13.59-5.16h.31c.72.01 1.47.03 2.23.04 1.12.02 2.28.05 3.48.05 4.94 0 10.1-.42 14.43-3.45 7.86-5.52 10.27-9.79 11.01-11.85 2.02-5.63 8.1-9.26 15.51-9.26 3.23 0 6.45.73 9.3 2.12 6.75 3.28 13.45 10.4 7.04 25.67-.64 1.53-1.28 2.95-1.93 4.27 1.83-.01 3.8-.02 5.91-.02 15.52 0 34.22.34 39.47.52 11.09.37 18.18 7.13 19.45 18.55.64 5.74-.83 10.79-4.25 14.61-2.69 3.01-7.89 6.6-17.34 6.6-5.07 0-15.59.27-25.77.54-3.28.09-6.5.17-9.47.24.63 1.93.87 3.91.69 5.91-.31 3.58-2.41 6.33-5.01 8.38 2.51 3.57 3.43 7.59 2.92 12.34-.37 3.48-2.05 6.38-4.37 8.63 1.76 3.05 2.31 6.52 1.77 10.62-1.78 13.46-17.37 13.85-23.24 14l-2.8.07c-4.09.11-8.33.23-12.58.23l.02-.03Z"></path><path fill="#fff" d="M77.18 145.14c-12.53 0-20.44-1.08-25.63-3.51-7.21-3.38-12.75-8.37-15.68-13.95-4.22 0-9.79-.12-13.52-.19-1.63-.03-2.81-.06-3.2-.06-3.57 0-6.52-2.8-6.71-6.36-.27-5.12-.71-25.63-.55-35.51l.06-3.59c.15-9.32.34-20.93.51-28.06a6.744 6.744 0 0 1 2.64-5.19c1.18-.9 2.62-1.38 4.07-1.38.4 0 .79.03 1.19.11 1.01.02 2.39.04 4.11.04 2.42 0 5.14-.02 7.58-.04h1.12c.93-2.68 2.35-4.61 3.64-5.93 3.3-3.37 8-5.16 13.59-5.16h.31c.72.01 1.47.03 2.23.04 1.12.02 2.28.05 3.48.05 4.94 0 10.1-.42 14.43-3.45 7.86-5.52 10.27-9.79 11.01-11.85 2.02-5.63 8.1-9.26 15.51-9.26 3.23 0 6.45.73 9.3 2.12 6.75 3.28 13.45 10.4 7.04 25.67-.64 1.53-1.28 2.95-1.93 4.27 1.83-.01 3.8-.02 5.91-.02 15.52 0 34.22.34 39.47.52 11.09.37 18.18 7.13 19.45 18.55.64 5.74-.83 10.79-4.25 14.61-2.69 3.01-7.89 6.6-17.34 6.6-5.07 0-15.59.27-25.77.54-3.28.09-6.5.17-9.47.24.63 1.93.87 3.91.69 5.91-.31 3.58-2.41 6.33-5.01 8.38 2.51 3.57 3.43 7.59 2.92 12.34-.37 3.48-2.05 6.38-4.37 8.63 1.76 3.05 2.31 6.52 1.77 10.62-1.78 13.46-17.37 13.85-23.24 14l-2.8.07c-4.09.11-8.33.23-12.58.23l.02-.03Z"></path><path stroke="#FDCF85" stroke-linejoin="round" stroke-width="9" d="M76.61 144.57c-12.53 0-20.44-1.08-25.63-3.51-7.21-3.38-12.75-8.37-15.68-13.95-4.22 0-9.79-.12-13.52-.19-1.63-.03-2.81-.06-3.2-.06-3.57 0-6.52-2.8-6.71-6.36-.27-5.12-.71-25.63-.55-35.51l.06-3.59c.15-9.32.34-20.93.51-28.06a6.744 6.744 0 0 1 2.64-5.19c1.18-.9 2.62-1.38 4.07-1.38.4 0 .79.03 1.19.11 1.01.02 2.39.04 4.11.04 2.42 0 5.14-.02 7.58-.04h1.12c.93-2.68 2.35-4.61 3.64-5.93 3.3-3.37 8-5.16 13.59-5.16h.31c.72.01 1.47.03 2.23.04 1.12.02 2.28.05 3.48.05 4.94 0 10.1-.42 14.43-3.45 7.86-5.52 10.27-9.79 11.01-11.85 2.02-5.63 8.1-9.26 15.51-9.26 3.23 0 6.45.73 9.3 2.12 6.75 3.28 13.45 10.4 7.04 25.67-.64 1.53-1.28 2.95-1.93 4.27 1.83-.01 3.8-.02 5.91-.02 15.52 0 34.22.34 39.47.52 11.09.37 18.18 7.13 19.45 18.55.64 5.74-.83 10.79-4.25 14.61-2.69 3.01-7.89 6.6-17.34 6.6-5.07 0-15.59.27-25.77.54-3.28.09-6.5.17-9.47.24.63 1.93.87 3.91.69 5.91-.31 3.58-2.41 6.33-5.01 8.38 2.51 3.57 3.43 7.59 2.92 12.34-.37 3.48-2.05 6.38-4.37 8.63 1.76 3.05 2.31 6.52 1.77 10.62-1.78 13.46-17.37 13.85-23.24 14l-2.8.07c-4.09.11-8.33.23-12.58.23l.02-.03Z"></path><path fill="#fff" d="M76.61 144.57c-12.53 0-20.44-1.08-25.63-3.51-7.21-3.38-12.75-8.37-15.68-13.95-4.22 0-9.79-.12-13.52-.19-1.63-.03-2.81-.06-3.2-.06-3.57 0-6.52-2.8-6.71-6.36-.27-5.12-.71-25.63-.55-35.51l.06-3.59c.15-9.32.34-20.93.51-28.06a6.744 6.744 0 0 1 2.64-5.19c1.18-.9 2.62-1.38 4.07-1.38.4 0 .79.03 1.19.11 1.01.02 2.39.04 4.11.04 2.42 0 5.14-.02 7.58-.04h1.12c.93-2.68 2.35-4.61 3.64-5.93 3.3-3.37 8-5.16 13.59-5.16h.31c.72.01 1.47.03 2.23.04 1.12.02 2.28.05 3.48.05 4.94 0 10.1-.42 14.43-3.45 7.86-5.52 10.27-9.79 11.01-11.85 2.02-5.63 8.1-9.26 15.51-9.26 3.23 0 6.45.73 9.3 2.12 6.75 3.28 13.45 10.4 7.04 25.67-.64 1.53-1.28 2.95-1.93 4.27 1.83-.01 3.8-.02 5.91-.02 15.52 0 34.22.34 39.47.52 11.09.37 18.18 7.13 19.45 18.55.64 5.74-.83 10.79-4.25 14.61-2.69 3.01-7.89 6.6-17.34 6.6-5.07 0-15.59.27-25.77.54-3.28.09-6.5.17-9.47.24.63 1.93.87 3.91.69 5.91-.31 3.58-2.41 6.33-5.01 8.38 2.51 3.57 3.43 7.59 2.92 12.34-.37 3.48-2.05 6.38-4.37 8.63 1.76 3.05 2.31 6.52 1.77 10.62-1.78 13.46-17.37 13.85-23.24 14l-2.8.07c-4.09.11-8.33.23-12.58.23l.02-.03Z"></path><path stroke="#FDCF85" stroke-linejoin="round" stroke-width="9" d="M76.04 144c-12.53 0-20.44-1.08-25.63-3.51-7.21-3.38-12.75-8.37-15.68-13.95-4.22 0-9.79-.12-13.52-.19-1.63-.03-2.81-.06-3.2-.06-3.57 0-6.52-2.8-6.71-6.36-.27-5.12-.71-25.63-.55-35.51l.06-3.59c.15-9.32.34-20.93.51-28.06a6.744 6.744 0 0 1 2.64-5.19c1.18-.9 2.62-1.38 4.07-1.38.4 0 .79.03 1.19.11 1.01.02 2.39.04 4.11.04 2.42 0 5.14-.02 7.58-.04h1.12c.93-2.68 2.35-4.61 3.64-5.93 3.3-3.37 8-5.16 13.59-5.16h.31c.72.01 1.47.03 2.23.04 1.12.02 2.28.05 3.48.05 4.94 0 10.1-.42 14.43-3.45 7.86-5.52 10.27-9.79 11.01-11.85 2.02-5.63 8.1-9.26 15.51-9.26 3.23 0 6.45.73 9.3 2.12 6.75 3.28 13.45 10.4 7.04 25.67-.64 1.53-1.28 2.95-1.93 4.27 1.83-.01 3.8-.02 5.91-.02 15.52 0 34.22.34 39.47.52 11.09.37 18.18 7.13 19.45 18.55.64 5.74-.83 10.79-4.25 14.61-2.69 3.01-7.89 6.6-17.34 6.6-5.07 0-15.59.27-25.77.54-3.28.09-6.5.17-9.47.24.63 1.93.87 3.91.69 5.91-.31 3.58-2.41 6.33-5.01 8.38 2.51 3.57 3.43 7.59 2.92 12.34-.37 3.48-2.05 6.38-4.37 8.63 1.76 3.05 2.31 6.52 1.77 10.62-1.78 13.46-17.37 13.85-23.24 14l-2.8.07c-4.09.11-8.33.23-12.58.23l.02-.03Z"></path><path fill="#fff" d="M76.04 144c-12.53 0-20.44-1.08-25.63-3.51-7.21-3.38-12.75-8.37-15.68-13.95-4.22 0-9.79-.12-13.52-.19-1.63-.03-2.81-.06-3.2-.06-3.57 0-6.52-2.8-6.71-6.36-.27-5.12-.71-25.63-.55-35.51l.06-3.59c.15-9.32.34-20.93.51-28.06a6.744 6.744 0 0 1 2.64-5.19c1.18-.9 2.62-1.38 4.07-1.38.4 0 .79.03 1.19.11 1.01.02 2.39.04 4.11.04 2.42 0 5.14-.02 7.58-.04h1.12c.93-2.68 2.35-4.61 3.64-5.93 3.3-3.37 8-5.16 13.59-5.16h.31c.72.01 1.47.03 2.23.04 1.12.02 2.28.05 3.48.05 4.94 0 10.1-.42 14.43-3.45 7.86-5.52 10.27-9.79 11.01-11.85 2.02-5.63 8.1-9.26 15.51-9.26 3.23 0 6.45.73 9.3 2.12 6.75 3.28 13.45 10.4 7.04 25.67-.64 1.53-1.28 2.95-1.93 4.27 1.83-.01 3.8-.02 5.91-.02 15.52 0 34.22.34 39.47.52 11.09.37 18.18 7.13 19.45 18.55.64 5.74-.83 10.79-4.25 14.61-2.69 3.01-7.89 6.6-17.34 6.6-5.07 0-15.59.27-25.77.54-3.28.09-6.5.17-9.47.24.63 1.93.87 3.91.69 5.91-.31 3.58-2.41 6.33-5.01 8.38 2.51 3.57 3.43 7.59 2.92 12.34-.37 3.48-2.05 6.38-4.37 8.63 1.76 3.05 2.31 6.52 1.77 10.62-1.78 13.46-17.37 13.85-23.24 14l-2.8.07c-4.09.11-8.33.23-12.58.23l.02-.03Z"></path><path stroke="#FDCF85" stroke-linejoin="round" stroke-width="9" d="M75.48 143.43c-12.53 0-20.44-1.08-25.63-3.51-7.21-3.38-12.75-8.37-15.68-13.95-4.22 0-9.79-.12-13.52-.19-1.63-.03-2.81-.06-3.2-.06-3.57 0-6.52-2.8-6.71-6.36-.27-5.12-.71-25.63-.55-35.51l.06-3.59c.15-9.32.34-20.93.51-28.06a6.744 6.744 0 0 1 2.64-5.19c1.18-.9 2.62-1.38 4.07-1.38.4 0 .79.03 1.19.11 1.01.02 2.39.04 4.11.04 2.42 0 5.14-.02 7.58-.04h1.12c.93-2.68 2.35-4.61 3.64-5.93 3.3-3.37 8-5.16 13.59-5.16h.31c.72.01 1.47.03 2.23.04 1.12.02 2.28.05 3.48.05 4.94 0 10.1-.42 14.43-3.45 7.86-5.52 10.27-9.79 11.01-11.85 2.02-5.63 8.1-9.26 15.51-9.26 3.23 0 6.45.73 9.3 2.12 6.75 3.28 13.45 10.4 7.04 25.67-.64 1.53-1.28 2.95-1.93 4.27 1.83-.01 3.8-.02 5.91-.02 15.52 0 34.22.34 39.47.52 11.09.37 18.18 7.13 19.45 18.55.64 5.74-.83 10.79-4.25 14.61-2.69 3.01-7.89 6.6-17.34 6.6-5.07 0-15.59.27-25.77.54-3.28.09-6.5.17-9.47.24.63 1.93.87 3.91.69 5.91-.31 3.58-2.41 6.33-5.01 8.38 2.51 3.57 3.43 7.59 2.92 12.34-.37 3.48-2.05 6.38-4.37 8.63 1.76 3.05 2.31 6.52 1.77 10.62-1.78 13.46-17.37 13.85-23.24 14l-2.8.07c-4.09.11-8.33.23-12.58.23l.02-.03Z"></path><path fill="#fff" d="M75.48 143.43c-12.53 0-20.44-1.08-25.63-3.51-7.21-3.38-12.75-8.37-15.68-13.95-4.22 0-9.79-.12-13.52-.19-1.63-.03-2.81-.06-3.2-.06-3.57 0-6.52-2.8-6.71-6.36-.27-5.12-.71-25.63-.55-35.51l.06-3.59c.15-9.32.34-20.93.51-28.06a6.744 6.744 0 0 1 2.64-5.19c1.18-.9 2.62-1.38 4.07-1.38.4 0 .79.03 1.19.11 1.01.02 2.39.04 4.11.04 2.42 0 5.14-.02 7.58-.04h1.12c.93-2.68 2.35-4.61 3.64-5.93 3.3-3.37 8-5.16 13.59-5.16h.31c.72.01 1.47.03 2.23.04 1.12.02 2.28.05 3.48.05 4.94 0 10.1-.42 14.43-3.45 7.86-5.52 10.27-9.79 11.01-11.85 2.02-5.63 8.1-9.26 15.51-9.26 3.23 0 6.45.73 9.3 2.12 6.75 3.28 13.45 10.4 7.04 25.67-.64 1.53-1.28 2.95-1.93 4.27 1.83-.01 3.8-.02 5.91-.02 15.52 0 34.22.34 39.47.52 11.09.37 18.18 7.13 19.45 18.55.64 5.74-.83 10.79-4.25 14.61-2.69 3.01-7.89 6.6-17.34 6.6-5.07 0-15.59.27-25.77.54-3.28.09-6.5.17-9.47.24.63 1.93.87 3.91.69 5.91-.31 3.58-2.41 6.33-5.01 8.38 2.51 3.57 3.43 7.59 2.92 12.34-.37 3.48-2.05 6.38-4.37 8.63 1.76 3.05 2.31 6.52 1.77 10.62-1.78 13.46-17.37 13.85-23.24 14l-2.8.07c-4.09.11-8.33.23-12.58.23l.02-.03Z"></path><path stroke="#FDCF85" stroke-linejoin="round" stroke-width="9" d="M74.91 142.87c-12.53 0-20.44-1.08-25.63-3.51-7.21-3.38-12.75-8.37-15.68-13.95-4.22 0-9.79-.12-13.52-.19-1.63-.03-2.81-.06-3.2-.06-3.57 0-6.52-2.8-6.71-6.36-.27-5.12-.71-25.63-.55-35.51l.06-3.59c.15-9.32.34-20.93.51-28.06a6.744 6.744 0 0 1 2.64-5.19c1.18-.9 2.62-1.38 4.07-1.38.4 0 .79.03 1.19.11 1.01.02 2.39.04 4.11.04 2.42 0 5.14-.02 7.58-.04h1.12c.93-2.68 2.35-4.61 3.64-5.93 3.3-3.37 8-5.16 13.59-5.16h.31c.72.01 1.47.03 2.23.04 1.12.02 2.28.05 3.48.05 4.94 0 10.1-.42 14.43-3.45 7.86-5.52 10.27-9.79 11.01-11.85 2.02-5.63 8.1-9.26 15.51-9.26 3.23 0 6.45.73 9.3 2.12 6.75 3.28 13.45 10.4 7.04 25.67-.64 1.53-1.28 2.95-1.93 4.27 1.83-.01 3.8-.02 5.91-.02 15.52 0 34.22.34 39.47.52 11.09.37 18.18 7.13 19.45 18.55.64 5.74-.83 10.79-4.25 14.61-2.69 3.01-7.89 6.6-17.34 6.6-5.07 0-15.59.27-25.77.54-3.28.09-6.5.17-9.47.24.63 1.93.87 3.91.69 5.91-.31 3.58-2.41 6.33-5.01 8.38 2.51 3.57 3.43 7.59 2.92 12.34-.37 3.48-2.05 6.38-4.37 8.63 1.76 3.05 2.31 6.52 1.77 10.62-1.78 13.46-17.37 13.85-23.24 14l-2.8.07c-4.09.11-8.33.23-12.58.23l.02-.03Z"></path><path fill="#fff" d="M74.91 142.87c-12.53 0-20.44-1.08-25.63-3.51-7.21-3.38-12.75-8.37-15.68-13.95-4.22 0-9.79-.12-13.52-.19-1.63-.03-2.81-.06-3.2-.06-3.57 0-6.52-2.8-6.71-6.36-.27-5.12-.71-25.63-.55-35.51l.06-3.59c.15-9.32.34-20.93.51-28.06a6.744 6.744 0 0 1 2.64-5.19c1.18-.9 2.62-1.38 4.07-1.38.4 0 .79.03 1.19.11 1.01.02 2.39.04 4.11.04 2.42 0 5.14-.02 7.58-.04h1.12c.93-2.68 2.35-4.61 3.64-5.93 3.3-3.37 8-5.16 13.59-5.16h.31c.72.01 1.47.03 2.23.04 1.12.02 2.28.05 3.48.05 4.94 0 10.1-.42 14.43-3.45 7.86-5.52 10.27-9.79 11.01-11.85 2.02-5.63 8.1-9.26 15.51-9.26 3.23 0 6.45.73 9.3 2.12 6.75 3.28 13.45 10.4 7.04 25.67-.64 1.53-1.28 2.95-1.93 4.27 1.83-.01 3.8-.02 5.91-.02 15.52 0 34.22.34 39.47.52 11.09.37 18.18 7.13 19.45 18.55.64 5.74-.83 10.79-4.25 14.61-2.69 3.01-7.89 6.6-17.34 6.6-5.07 0-15.59.27-25.77.54-3.28.09-6.5.17-9.47.24.63 1.93.87 3.91.69 5.91-.31 3.58-2.41 6.33-5.01 8.38 2.51 3.57 3.43 7.59 2.92 12.34-.37 3.48-2.05 6.38-4.37 8.63 1.76 3.05 2.31 6.52 1.77 10.62-1.78 13.46-17.37 13.85-23.24 14l-2.8.07c-4.09.11-8.33.23-12.58.23l.02-.03Z"></path><path stroke="#FDCF85" stroke-linejoin="round" stroke-width="9" d="M74.34 142.3c-12.53 0-20.44-1.08-25.63-3.51-7.21-3.38-12.75-8.37-15.68-13.95-4.22 0-9.79-.12-13.52-.19-1.63-.03-2.81-.06-3.2-.06-3.57 0-6.52-2.8-6.71-6.36-.27-5.12-.71-25.63-.55-35.51l.06-3.59c.15-9.32.34-20.93.51-28.06a6.744 6.744 0 0 1 2.64-5.19c1.18-.9 2.62-1.38 4.07-1.38.4 0 .79.03 1.19.11 1.01.02 2.39.04 4.11.04 2.42 0 5.14-.02 7.58-.04h1.12c.93-2.68 2.35-4.61 3.64-5.93 3.3-3.37 8-5.16 13.59-5.16h.31c.72.01 1.47.03 2.23.04 1.12.02 2.28.05 3.48.05 4.94 0 10.1-.42 14.43-3.45 7.86-5.52 10.27-9.79 11.01-11.85 2.02-5.63 8.1-9.26 15.51-9.26 3.23 0 6.45.73 9.3 2.12 6.75 3.28 13.45 10.4 7.04 25.67-.64 1.53-1.28 2.95-1.93 4.27 1.83-.01 3.8-.02 5.91-.02 15.52 0 34.22.34 39.47.52 11.09.37 18.18 7.13 19.45 18.55.64 5.74-.83 10.79-4.25 14.61-2.69 3.01-7.89 6.6-17.34 6.6-5.07 0-15.59.27-25.77.54-3.28.09-6.5.17-9.47.24.63 1.93.87 3.91.69 5.91-.31 3.58-2.41 6.33-5.01 8.38 2.51 3.57 3.43 7.59 2.92 12.34-.37 3.48-2.05 6.38-4.37 8.63 1.76 3.05 2.31 6.52 1.77 10.62-1.78 13.46-17.37 13.85-23.24 14l-2.8.07c-4.09.11-8.33.23-12.58.23l.02-.03Z"></path><path fill="#fff" d="M74.34 142.3c-12.53 0-20.44-1.08-25.63-3.51-7.21-3.38-12.75-8.37-15.68-13.95-4.22 0-9.79-.12-13.52-.19-1.63-.03-2.81-.06-3.2-.06-3.57 0-6.52-2.8-6.71-6.36-.27-5.12-.71-25.63-.55-35.51l.06-3.59c.15-9.32.34-20.93.51-28.06a6.744 6.744 0 0 1 2.64-5.19c1.18-.9 2.62-1.38 4.07-1.38.4 0 .79.03 1.19.11 1.01.02 2.39.04 4.11.04 2.42 0 5.14-.02 7.58-.04h1.12c.93-2.68 2.35-4.61 3.64-5.93 3.3-3.37 8-5.16 13.59-5.16h.31c.72.01 1.47.03 2.23.04 1.12.02 2.28.05 3.48.05 4.94 0 10.1-.42 14.43-3.45 7.86-5.52 10.27-9.79 11.01-11.85 2.02-5.63 8.1-9.26 15.51-9.26 3.23 0 6.45.73 9.3 2.12 6.75 3.28 13.45 10.4 7.04 25.67-.64 1.53-1.28 2.95-1.93 4.27 1.83-.01 3.8-.02 5.91-.02 15.52 0 34.22.34 39.47.52 11.09.37 18.18 7.13 19.45 18.55.64 5.74-.83 10.79-4.25 14.61-2.69 3.01-7.89 6.6-17.34 6.6-5.07 0-15.59.27-25.77.54-3.28.09-6.5.17-9.47.24.63 1.93.87 3.91.69 5.91-.31 3.58-2.41 6.33-5.01 8.38 2.51 3.57 3.43 7.59 2.92 12.34-.37 3.48-2.05 6.38-4.37 8.63 1.76 3.05 2.31 6.52 1.77 10.62-1.78 13.46-17.37 13.85-23.24 14l-2.8.07c-4.09.11-8.33.23-12.58.23l.02-.03Z"></path><path stroke="#FDCF85" stroke-linejoin="round" stroke-width="9" d="M73.78 141.73c-12.53 0-20.44-1.08-25.63-3.51-7.21-3.38-12.75-8.37-15.68-13.95-4.22 0-9.79-.12-13.52-.19-1.63-.03-2.81-.06-3.2-.06-3.57 0-6.52-2.8-6.71-6.36-.27-5.12-.71-25.63-.55-35.51l.06-3.59c.15-9.32.34-20.93.51-28.06a6.744 6.744 0 0 1 2.64-5.19c1.18-.9 2.62-1.38 4.07-1.38.4 0 .79.03 1.19.11 1.01.02 2.39.04 4.11.04 2.42 0 5.14-.02 7.58-.04h1.12c.93-2.68 2.35-4.61 3.64-5.93 3.3-3.37 8-5.16 13.59-5.16h.31c.72.01 1.47.03 2.23.04 1.12.02 2.28.05 3.48.05 4.94 0 10.1-.42 14.43-3.45 7.86-5.52 10.27-9.79 11.01-11.85 2.02-5.63 8.1-9.26 15.51-9.26 3.23 0 6.45.73 9.3 2.12 6.75 3.28 13.45 10.4 7.04 25.67-.64 1.53-1.28 2.95-1.93 4.27 1.83-.01 3.8-.02 5.91-.02 15.52 0 34.22.34 39.47.52 11.09.37 18.18 7.13 19.45 18.55.64 5.74-.83 10.79-4.25 14.61-2.69 3.01-7.89 6.6-17.34 6.6-5.07 0-15.59.27-25.77.54-3.28.09-6.5.17-9.47.24.63 1.93.87 3.91.69 5.91-.31 3.58-2.41 6.33-5.01 8.38 2.51 3.57 3.43 7.59 2.92 12.34-.37 3.48-2.05 6.38-4.37 8.63 1.76 3.05 2.31 6.52 1.77 10.62-1.78 13.46-17.37 13.85-23.24 14l-2.8.07c-4.09.11-8.33.23-12.58.23l.02-.03Z"></path><path fill="#fff" d="M73.78 141.73c-12.53 0-20.44-1.08-25.63-3.51-7.21-3.38-12.75-8.37-15.68-13.95-4.22 0-9.79-.12-13.52-.19-1.63-.03-2.81-.06-3.2-.06-3.57 0-6.52-2.8-6.71-6.36-.27-5.12-.71-25.63-.55-35.51l.06-3.59c.15-9.32.34-20.93.51-28.06a6.744 6.744 0 0 1 2.64-5.19c1.18-.9 2.62-1.38 4.07-1.38.4 0 .79.03 1.19.11 1.01.02 2.39.04 4.11.04 2.42 0 5.14-.02 7.58-.04h1.12c.93-2.68 2.35-4.61 3.64-5.93 3.3-3.37 8-5.16 13.59-5.16h.31c.72.01 1.47.03 2.23.04 1.12.02 2.28.05 3.48.05 4.94 0 10.1-.42 14.43-3.45 7.86-5.52 10.27-9.79 11.01-11.85 2.02-5.63 8.1-9.26 15.51-9.26 3.23 0 6.45.73 9.3 2.12 6.75 3.28 13.45 10.4 7.04 25.67-.64 1.53-1.28 2.95-1.93 4.27 1.83-.01 3.8-.02 5.91-.02 15.52 0 34.22.34 39.47.52 11.09.37 18.18 7.13 19.45 18.55.64 5.74-.83 10.79-4.25 14.61-2.69 3.01-7.89 6.6-17.34 6.6-5.07 0-15.59.27-25.77.54-3.28.09-6.5.17-9.47.24.63 1.93.87 3.91.69 5.91-.31 3.58-2.41 6.33-5.01 8.38 2.51 3.57 3.43 7.59 2.92 12.34-.37 3.48-2.05 6.38-4.37 8.63 1.76 3.05 2.31 6.52 1.77 10.62-1.78 13.46-17.37 13.85-23.24 14l-2.8.07c-4.09.11-8.33.23-12.58.23l.02-.03Z"></path><path stroke="#FDCF85" stroke-linejoin="round" stroke-width="9" d="M73.21 141.17c-12.53 0-20.44-1.08-25.63-3.51-7.21-3.38-12.75-8.37-15.68-13.95-4.22 0-9.79-.12-13.52-.19-1.63-.03-2.81-.06-3.2-.06-3.57 0-6.52-2.8-6.71-6.36-.27-5.12-.71-25.63-.55-35.51L7.98 78c.15-9.32.34-20.93.51-28.06a6.744 6.744 0 0 1 2.64-5.19c1.18-.9 2.62-1.38 4.07-1.38.4 0 .79.03 1.19.11 1.01.02 2.39.04 4.11.04 2.42 0 5.14-.02 7.58-.04h1.12c.93-2.68 2.35-4.61 3.64-5.93 3.3-3.37 8-5.16 13.59-5.16h.31c.72.01 1.47.03 2.23.04 1.12.02 2.28.05 3.48.05 4.94 0 10.1-.42 14.43-3.45 7.86-5.52 10.27-9.79 11.01-11.85 2.02-5.63 8.1-9.26 15.51-9.26 3.23 0 6.45.73 9.3 2.12 6.75 3.28 13.45 10.4 7.04 25.67-.64 1.53-1.28 2.95-1.93 4.27 1.83-.01 3.8-.02 5.91-.02 15.52 0 34.22.34 39.47.52 11.09.37 18.18 7.13 19.45 18.55.64 5.74-.83 10.79-4.25 14.61-2.69 3.01-7.89 6.6-17.34 6.6-5.07 0-15.59.27-25.77.54-3.28.09-6.5.17-9.47.24.63 1.93.87 3.91.69 5.91-.31 3.58-2.41 6.33-5.01 8.38 2.51 3.57 3.43 7.59 2.92 12.34-.37 3.48-2.05 6.38-4.37 8.63 1.76 3.05 2.31 6.52 1.77 10.62-1.78 13.46-17.37 13.85-23.24 14l-2.8.07c-4.09.11-8.33.23-12.58.23l.02-.03Z"></path><path fill="#fff" d="M73.21 141.17c-12.53 0-20.44-1.08-25.63-3.51-7.21-3.38-12.75-8.37-15.68-13.95-4.22 0-9.79-.12-13.52-.19-1.63-.03-2.81-.06-3.2-.06-3.57 0-6.52-2.8-6.71-6.36-.27-5.12-.71-25.63-.55-35.51L7.98 78c.15-9.32.34-20.93.51-28.06a6.744 6.744 0 0 1 2.64-5.19c1.18-.9 2.62-1.38 4.07-1.38.4 0 .79.03 1.19.11 1.01.02 2.39.04 4.11.04 2.42 0 5.14-.02 7.58-.04h1.12c.93-2.68 2.35-4.61 3.64-5.93 3.3-3.37 8-5.16 13.59-5.16h.31c.72.01 1.47.03 2.23.04 1.12.02 2.28.05 3.48.05 4.94 0 10.1-.42 14.43-3.45 7.86-5.52 10.27-9.79 11.01-11.85 2.02-5.63 8.1-9.26 15.51-9.26 3.23 0 6.45.73 9.3 2.12 6.75 3.28 13.45 10.4 7.04 25.67-.64 1.53-1.28 2.95-1.93 4.27 1.83-.01 3.8-.02 5.91-.02 15.52 0 34.22.34 39.47.52 11.09.37 18.18 7.13 19.45 18.55.64 5.74-.83 10.79-4.25 14.61-2.69 3.01-7.89 6.6-17.34 6.6-5.07 0-15.59.27-25.77.54-3.28.09-6.5.17-9.47.24.63 1.93.87 3.91.69 5.91-.31 3.58-2.41 6.33-5.01 8.38 2.51 3.57 3.43 7.59 2.92 12.34-.37 3.48-2.05 6.38-4.37 8.63 1.76 3.05 2.31 6.52 1.77 10.62-1.78 13.46-17.37 13.85-23.24 14l-2.8.07c-4.09.11-8.33.23-12.58.23l.02-.03Z"></path><path stroke="#FDCF85" stroke-linejoin="round" stroke-width="9" d="M72.64 140.6c-12.53 0-20.44-1.08-25.63-3.51-7.21-3.38-12.75-8.37-15.68-13.95-4.22 0-9.79-.12-13.52-.19-1.63-.03-2.81-.06-3.2-.06-3.57 0-6.52-2.8-6.71-6.36-.27-5.12-.71-25.63-.55-35.51l.06-3.59c.15-9.32.34-20.93.51-28.06a6.744 6.744 0 0 1 2.64-5.19c1.18-.9 2.62-1.38 4.07-1.38.4 0 .79.03 1.19.11 1.01.02 2.39.04 4.11.04 2.42 0 5.14-.02 7.58-.04h1.12c.93-2.68 2.35-4.61 3.64-5.93 3.3-3.37 8-5.16 13.59-5.16h.31c.72.01 1.47.03 2.23.04 1.12.02 2.28.05 3.48.05 4.94 0 10.1-.42 14.43-3.45 7.86-5.52 10.27-9.79 11.01-11.85 2.02-5.63 8.1-9.26 15.51-9.26 3.23 0 6.45.73 9.3 2.12 6.75 3.28 13.45 10.4 7.04 25.67-.64 1.53-1.28 2.95-1.93 4.27 1.83-.01 3.8-.02 5.91-.02 15.52 0 34.22.34 39.47.52 11.09.37 18.18 7.13 19.45 18.55.64 5.74-.83 10.79-4.25 14.61-2.69 3.01-7.89 6.6-17.34 6.6-5.07 0-15.59.27-25.77.54-3.28.09-6.5.17-9.47.24.63 1.93.87 3.91.69 5.91-.31 3.58-2.41 6.33-5.01 8.38 2.51 3.57 3.43 7.59 2.92 12.34-.37 3.48-2.05 6.38-4.37 8.63 1.76 3.05 2.31 6.52 1.77 10.62-1.78 13.46-17.37 13.85-23.24 14l-2.8.07c-4.09.11-8.33.23-12.58.23l.02-.03Z"></path><path fill="#fff" d="M72.64 140.6c-12.53 0-20.44-1.08-25.63-3.51-7.21-3.38-12.75-8.37-15.68-13.95-4.22 0-9.79-.12-13.52-.19-1.63-.03-2.81-.06-3.2-.06-3.57 0-6.52-2.8-6.71-6.36-.27-5.12-.71-25.63-.55-35.51l.06-3.59c.15-9.32.34-20.93.51-28.06a6.744 6.744 0 0 1 2.64-5.19c1.18-.9 2.62-1.38 4.07-1.38.4 0 .79.03 1.19.11 1.01.02 2.39.04 4.11.04 2.42 0 5.14-.02 7.58-.04h1.12c.93-2.68 2.35-4.61 3.64-5.93 3.3-3.37 8-5.16 13.59-5.16h.31c.72.01 1.47.03 2.23.04 1.12.02 2.28.05 3.48.05 4.94 0 10.1-.42 14.43-3.45 7.86-5.52 10.27-9.79 11.01-11.85 2.02-5.63 8.1-9.26 15.51-9.26 3.23 0 6.45.73 9.3 2.12 6.75 3.28 13.45 10.4 7.04 25.67-.64 1.53-1.28 2.95-1.93 4.27 1.83-.01 3.8-.02 5.91-.02 15.52 0 34.22.34 39.47.52 11.09.37 18.18 7.13 19.45 18.55.64 5.74-.83 10.79-4.25 14.61-2.69 3.01-7.89 6.6-17.34 6.6-5.07 0-15.59.27-25.77.54-3.28.09-6.5.17-9.47.24.63 1.93.87 3.91.69 5.91-.31 3.58-2.41 6.33-5.01 8.38 2.51 3.57 3.43 7.59 2.92 12.34-.37 3.48-2.05 6.38-4.37 8.63 1.76 3.05 2.31 6.52 1.77 10.62-1.78 13.46-17.37 13.85-23.24 14l-2.8.07c-4.09.11-8.33.23-12.58.23l.02-.03Z"></path><path stroke="#FDCF85" stroke-linejoin="round" stroke-width="9" d="M72.08 140.03c-12.53 0-20.44-1.08-25.63-3.51-7.21-3.38-12.75-8.37-15.68-13.95-4.22 0-9.79-.12-13.52-.19-1.63-.03-2.81-.06-3.2-.06-3.57 0-6.52-2.8-6.71-6.36-.27-5.12-.71-25.63-.55-35.51l.06-3.59c.15-9.32.34-20.93.51-28.06A6.744 6.744 0 0 1 10 43.61c1.18-.9 2.62-1.38 4.07-1.38.4 0 .79.03 1.19.11 1.01.02 2.39.04 4.11.04 2.42 0 5.14-.02 7.58-.04h1.12c.93-2.68 2.35-4.61 3.64-5.93 3.3-3.37 8-5.16 13.59-5.16h.31c.72.01 1.47.03 2.23.04 1.12.02 2.28.05 3.48.05 4.94 0 10.1-.42 14.43-3.45 7.86-5.52 10.27-9.79 11.01-11.85 2.02-5.63 8.1-9.26 15.51-9.26 3.23 0 6.45.73 9.3 2.12 6.75 3.28 13.45 10.4 7.04 25.67-.64 1.53-1.28 2.95-1.93 4.27 1.83-.01 3.8-.02 5.91-.02 15.52 0 34.22.34 39.47.52 11.09.37 18.18 7.13 19.45 18.55.64 5.74-.83 10.79-4.25 14.61-2.69 3.01-7.89 6.6-17.34 6.6-5.07 0-15.59.27-25.77.54-3.28.09-6.5.17-9.47.24.63 1.93.87 3.91.69 5.91-.31 3.58-2.41 6.33-5.01 8.38 2.51 3.57 3.43 7.59 2.92 12.34-.37 3.48-2.05 6.38-4.37 8.63 1.76 3.05 2.31 6.52 1.77 10.62-1.78 13.46-17.37 13.85-23.24 14l-2.8.07c-4.09.11-8.33.23-12.58.23l.02-.03Z"></path><path fill="#fff" d="M72.08 140.03c-12.53 0-20.44-1.08-25.63-3.51-7.21-3.38-12.75-8.37-15.68-13.95-4.22 0-9.79-.12-13.52-.19-1.63-.03-2.81-.06-3.2-.06-3.57 0-6.52-2.8-6.71-6.36-.27-5.12-.71-25.63-.55-35.51l.06-3.59c.15-9.32.34-20.93.51-28.06A6.744 6.744 0 0 1 10 43.61c1.18-.9 2.62-1.38 4.07-1.38.4 0 .79.03 1.19.11 1.01.02 2.39.04 4.11.04 2.42 0 5.14-.02 7.58-.04h1.12c.93-2.68 2.35-4.61 3.64-5.93 3.3-3.37 8-5.16 13.59-5.16h.31c.72.01 1.47.03 2.23.04 1.12.02 2.28.05 3.48.05 4.94 0 10.1-.42 14.43-3.45 7.86-5.52 10.27-9.79 11.01-11.85 2.02-5.63 8.1-9.26 15.51-9.26 3.23 0 6.45.73 9.3 2.12 6.75 3.28 13.45 10.4 7.04 25.67-.64 1.53-1.28 2.95-1.93 4.27 1.83-.01 3.8-.02 5.91-.02 15.52 0 34.22.34 39.47.52 11.09.37 18.18 7.13 19.45 18.55.64 5.74-.83 10.79-4.25 14.61-2.69 3.01-7.89 6.6-17.34 6.6-5.07 0-15.59.27-25.77.54-3.28.09-6.5.17-9.47.24.63 1.93.87 3.91.69 5.91-.31 3.58-2.41 6.33-5.01 8.38 2.51 3.57 3.43 7.59 2.92 12.34-.37 3.48-2.05 6.38-4.37 8.63 1.76 3.05 2.31 6.52 1.77 10.62-1.78 13.46-17.37 13.85-23.24 14l-2.8.07c-4.09.11-8.33.23-12.58.23l.02-.03Z"></path><path stroke="#FDCF85" stroke-linejoin="round" stroke-width="9" d="M71.51 139.47c-12.53 0-20.44-1.08-25.63-3.51-7.21-3.38-12.75-8.37-15.68-13.95-4.22 0-9.79-.12-13.52-.19-1.63-.03-2.81-.06-3.2-.06-3.57 0-6.52-2.8-6.71-6.36-.27-5.12-.71-25.63-.55-35.51l.06-3.59c.15-9.32.34-20.93.51-28.06a6.744 6.744 0 0 1 2.64-5.19c1.18-.9 2.62-1.38 4.07-1.38.4 0 .79.03 1.19.11 1.01.02 2.39.04 4.11.04 2.42 0 5.14-.02 7.58-.04h1.12c.93-2.68 2.35-4.61 3.64-5.93 3.3-3.37 8-5.16 13.59-5.16h.31c.72.01 1.47.03 2.23.04 1.12.02 2.28.05 3.48.05 4.94 0 10.1-.42 14.43-3.45 7.86-5.52 10.27-9.79 11.01-11.85 2.02-5.63 8.1-9.26 15.51-9.26 3.23 0 6.45.73 9.3 2.12 6.75 3.28 13.45 10.4 7.04 25.67-.64 1.53-1.28 2.95-1.93 4.27 1.83-.01 3.8-.02 5.91-.02 15.52 0 34.22.34 39.47.52 11.09.37 18.18 7.13 19.45 18.55.64 5.74-.83 10.79-4.25 14.61-2.69 3.01-7.89 6.6-17.34 6.6-5.07 0-15.59.27-25.77.54-3.28.09-6.5.17-9.47.24.63 1.93.87 3.91.69 5.91-.31 3.58-2.41 6.33-5.01 8.38 2.51 3.57 3.43 7.59 2.92 12.34-.37 3.48-2.05 6.38-4.37 8.63 1.76 3.05 2.31 6.52 1.77 10.62-1.78 13.46-17.37 13.85-23.24 14l-2.8.07c-4.09.11-8.33.23-12.58.23l.02-.03Z"></path><path fill="#fff" d="M71.51 139.47c-12.53 0-20.44-1.08-25.63-3.51-7.21-3.38-12.75-8.37-15.68-13.95-4.22 0-9.79-.12-13.52-.19-1.63-.03-2.81-.06-3.2-.06-3.57 0-6.52-2.8-6.71-6.36-.27-5.12-.71-25.63-.55-35.51l.06-3.59c.15-9.32.34-20.93.51-28.06a6.744 6.744 0 0 1 2.64-5.19c1.18-.9 2.62-1.38 4.07-1.38.4 0 .79.03 1.19.11 1.01.02 2.39.04 4.11.04 2.42 0 5.14-.02 7.58-.04h1.12c.93-2.68 2.35-4.61 3.64-5.93 3.3-3.37 8-5.16 13.59-5.16h.31c.72.01 1.47.03 2.23.04 1.12.02 2.28.05 3.48.05 4.94 0 10.1-.42 14.43-3.45 7.86-5.52 10.27-9.79 11.01-11.85 2.02-5.63 8.1-9.26 15.51-9.26 3.23 0 6.45.73 9.3 2.12 6.75 3.28 13.45 10.4 7.04 25.67-.64 1.53-1.28 2.95-1.93 4.27 1.83-.01 3.8-.02 5.91-.02 15.52 0 34.22.34 39.47.52 11.09.37 18.18 7.13 19.45 18.55.64 5.74-.83 10.79-4.25 14.61-2.69 3.01-7.89 6.6-17.34 6.6-5.07 0-15.59.27-25.77.54-3.28.09-6.5.17-9.47.24.63 1.93.87 3.91.69 5.91-.31 3.58-2.41 6.33-5.01 8.38 2.51 3.57 3.43 7.59 2.92 12.34-.37 3.48-2.05 6.38-4.37 8.63 1.76 3.05 2.31 6.52 1.77 10.62-1.78 13.46-17.37 13.85-23.24 14l-2.8.07c-4.09.11-8.33.23-12.58.23l.02-.03Z"></path><path stroke="#FDCF85" stroke-linejoin="round" stroke-width="9" d="M70.94 138.9c-12.53 0-20.44-1.08-25.63-3.51-7.21-3.38-12.75-8.37-15.68-13.95-4.22 0-9.79-.12-13.52-.19-1.63-.03-2.81-.06-3.2-.06-3.57 0-6.52-2.8-6.71-6.36-.27-5.12-.71-25.63-.55-35.51l.06-3.59c.15-9.32.34-20.93.51-28.06a6.744 6.744 0 0 1 2.64-5.19c1.18-.9 2.62-1.38 4.07-1.38.4 0 .79.03 1.19.11 1.01.02 2.39.04 4.11.04 2.42 0 5.14-.02 7.58-.04h1.12c.93-2.68 2.35-4.61 3.64-5.93 3.3-3.37 8-5.16 13.59-5.16h.31c.72.01 1.47.03 2.23.04 1.12.02 2.28.05 3.48.05 4.94 0 10.1-.42 14.43-3.45 7.86-5.52 10.27-9.79 11.01-11.85 2.02-5.63 8.1-9.26 15.51-9.26 3.23 0 6.45.73 9.3 2.12 6.75 3.28 13.45 10.4 7.04 25.67-.64 1.53-1.28 2.95-1.93 4.27 1.83-.01 3.8-.02 5.91-.02 15.52 0 34.22.34 39.47.52 11.09.37 18.18 7.13 19.45 18.55.64 5.74-.83 10.79-4.25 14.61-2.69 3.01-7.89 6.6-17.34 6.6-5.07 0-15.59.27-25.77.54-3.28.09-6.5.17-9.47.24.63 1.93.87 3.91.69 5.91-.31 3.58-2.41 6.33-5.01 8.38 2.51 3.57 3.43 7.59 2.92 12.34-.37 3.48-2.05 6.38-4.37 8.63 1.76 3.05 2.31 6.52 1.77 10.62-1.78 13.46-17.37 13.85-23.24 14l-2.8.07c-4.09.11-8.33.23-12.58.23l.02-.03Z"></path><path fill="#fff" d="M70.94 138.9c-12.53 0-20.44-1.08-25.63-3.51-7.21-3.38-12.75-8.37-15.68-13.95-4.22 0-9.79-.12-13.52-.19-1.63-.03-2.81-.06-3.2-.06-3.57 0-6.52-2.8-6.71-6.36-.27-5.12-.71-25.63-.55-35.51l.06-3.59c.15-9.32.34-20.93.51-28.06a6.744 6.744 0 0 1 2.64-5.19c1.18-.9 2.62-1.38 4.07-1.38.4 0 .79.03 1.19.11 1.01.02 2.39.04 4.11.04 2.42 0 5.14-.02 7.58-.04h1.12c.93-2.68 2.35-4.61 3.64-5.93 3.3-3.37 8-5.16 13.59-5.16h.31c.72.01 1.47.03 2.23.04 1.12.02 2.28.05 3.48.05 4.94 0 10.1-.42 14.43-3.45 7.86-5.52 10.27-9.79 11.01-11.85 2.02-5.63 8.1-9.26 15.51-9.26 3.23 0 6.45.73 9.3 2.12 6.75 3.28 13.45 10.4 7.04 25.67-.64 1.53-1.28 2.95-1.93 4.27 1.83-.01 3.8-.02 5.91-.02 15.52 0 34.22.34 39.47.52 11.09.37 18.18 7.13 19.45 18.55.64 5.74-.83 10.79-4.25 14.61-2.69 3.01-7.89 6.6-17.34 6.6-5.07 0-15.59.27-25.77.54-3.28.09-6.5.17-9.47.24.63 1.93.87 3.91.69 5.91-.31 3.58-2.41 6.33-5.01 8.38 2.51 3.57 3.43 7.59 2.92 12.34-.37 3.48-2.05 6.38-4.37 8.63 1.76 3.05 2.31 6.52 1.77 10.62-1.78 13.46-17.37 13.85-23.24 14l-2.8.07c-4.09.11-8.33.23-12.58.23l.02-.03Z"></path><path stroke="#FDCF85" stroke-linejoin="round" stroke-width="9" d="M70.37 138.33c-12.53 0-20.44-1.08-25.63-3.51-7.21-3.38-12.75-8.37-15.68-13.95-4.22 0-9.79-.12-13.52-.19-1.63-.03-2.81-.06-3.2-.06-3.57 0-6.52-2.8-6.71-6.36-.27-5.12-.71-25.63-.55-35.51l.06-3.59c.15-9.32.34-20.93.51-28.06a6.744 6.744 0 0 1 2.64-5.19c1.18-.9 2.62-1.38 4.07-1.38.4 0 .79.03 1.19.11 1.01.02 2.39.04 4.11.04 2.42 0 5.14-.02 7.58-.04h1.12c.93-2.68 2.35-4.61 3.64-5.93 3.3-3.37 8-5.16 13.59-5.16h.31c.72.01 1.47.03 2.23.04 1.12.02 2.28.05 3.48.05 4.94 0 10.1-.42 14.43-3.45 7.86-5.52 10.27-9.79 11.01-11.85 2.02-5.63 8.1-9.26 15.51-9.26 3.23 0 6.45.73 9.3 2.12 6.75 3.28 13.45 10.4 7.04 25.67-.64 1.53-1.28 2.95-1.93 4.27 1.83-.01 3.8-.02 5.91-.02 15.52 0 34.22.34 39.47.52 11.09.37 18.18 7.13 19.45 18.55.64 5.74-.83 10.79-4.25 14.61-2.69 3.01-7.89 6.6-17.34 6.6-5.07 0-15.59.27-25.77.54-3.28.09-6.5.17-9.47.24.63 1.93.87 3.91.69 5.91-.31 3.58-2.41 6.33-5.01 8.38 2.51 3.57 3.43 7.59 2.92 12.34-.37 3.48-2.05 6.38-4.37 8.63 1.76 3.05 2.31 6.52 1.77 10.62-1.78 13.46-17.37 13.85-23.24 14l-2.8.07c-4.09.11-8.33.23-12.58.23l.02-.03Z"></path><path fill="#fff" d="M70.37 138.33c-12.53 0-20.44-1.08-25.63-3.51-7.21-3.38-12.75-8.37-15.68-13.95-4.22 0-9.79-.12-13.52-.19-1.63-.03-2.81-.06-3.2-.06-3.57 0-6.52-2.8-6.71-6.36-.27-5.12-.71-25.63-.55-35.51l.06-3.59c.15-9.32.34-20.93.51-28.06a6.744 6.744 0 0 1 2.64-5.19c1.18-.9 2.62-1.38 4.07-1.38.4 0 .79.03 1.19.11 1.01.02 2.39.04 4.11.04 2.42 0 5.14-.02 7.58-.04h1.12c.93-2.68 2.35-4.61 3.64-5.93 3.3-3.37 8-5.16 13.59-5.16h.31c.72.01 1.47.03 2.23.04 1.12.02 2.28.05 3.48.05 4.94 0 10.1-.42 14.43-3.45 7.86-5.52 10.27-9.79 11.01-11.85 2.02-5.63 8.1-9.26 15.51-9.26 3.23 0 6.45.73 9.3 2.12 6.75 3.28 13.45 10.4 7.04 25.67-.64 1.53-1.28 2.95-1.93 4.27 1.83-.01 3.8-.02 5.91-.02 15.52 0 34.22.34 39.47.52 11.09.37 18.18 7.13 19.45 18.55.64 5.74-.83 10.79-4.25 14.61-2.69 3.01-7.89 6.6-17.34 6.6-5.07 0-15.59.27-25.77.54-3.28.09-6.5.17-9.47.24.63 1.93.87 3.91.69 5.91-.31 3.58-2.41 6.33-5.01 8.38 2.51 3.57 3.43 7.59 2.92 12.34-.37 3.48-2.05 6.38-4.37 8.63 1.76 3.05 2.31 6.52 1.77 10.62-1.78 13.46-17.37 13.85-23.24 14l-2.8.07c-4.09.11-8.33.23-12.58.23l.02-.03Z"></path><path stroke="#FDCF85" stroke-linejoin="round" stroke-width="9" d="M69.81 137.77c-12.53 0-20.44-1.08-25.63-3.51-7.21-3.38-12.75-8.37-15.68-13.95-4.22 0-9.79-.12-13.52-.19-1.63-.03-2.81-.06-3.2-.06-3.57 0-6.52-2.8-6.71-6.36-.27-5.12-.71-25.63-.55-35.51l.06-3.59c.15-9.32.34-20.93.51-28.06a6.744 6.744 0 0 1 2.64-5.19c1.18-.9 2.62-1.38 4.07-1.38.4 0 .79.03 1.19.11 1.01.02 2.39.04 4.11.04 2.42 0 5.14-.02 7.58-.04h1.12c.93-2.68 2.35-4.61 3.64-5.93 3.3-3.37 8-5.16 13.59-5.16h.31c.72.01 1.47.03 2.23.04 1.12.02 2.28.05 3.48.05 4.94 0 10.1-.42 14.43-3.45 7.86-5.52 10.27-9.79 11.01-11.85 2.02-5.63 8.1-9.26 15.51-9.26 3.23 0 6.45.73 9.3 2.12 6.75 3.28 13.45 10.4 7.04 25.67-.64 1.53-1.28 2.95-1.93 4.27 1.83-.01 3.8-.02 5.91-.02 15.52 0 34.22.34 39.47.52 11.09.37 18.18 7.13 19.45 18.55.64 5.74-.83 10.79-4.25 14.61-2.69 3.01-7.89 6.6-17.34 6.6-5.07 0-15.59.27-25.77.54-3.28.09-6.5.17-9.47.24.63 1.93.87 3.91.69 5.91-.31 3.58-2.41 6.33-5.01 8.38 2.51 3.57 3.43 7.59 2.92 12.34-.37 3.48-2.05 6.38-4.37 8.63 1.76 3.05 2.31 6.52 1.77 10.62-1.78 13.46-17.37 13.85-23.24 14l-2.8.07c-4.09.11-8.33.23-12.58.23l.02-.03Z"></path><path fill="#fff" d="M69.81 137.77c-12.53 0-20.44-1.08-25.63-3.51-7.21-3.38-12.75-8.37-15.68-13.95-4.22 0-9.79-.12-13.52-.19-1.63-.03-2.81-.06-3.2-.06-3.57 0-6.52-2.8-6.71-6.36-.27-5.12-.71-25.63-.55-35.51l.06-3.59c.15-9.32.34-20.93.51-28.06a6.744 6.744 0 0 1 2.64-5.19c1.18-.9 2.62-1.38 4.07-1.38.4 0 .79.03 1.19.11 1.01.02 2.39.04 4.11.04 2.42 0 5.14-.02 7.58-.04h1.12c.93-2.68 2.35-4.61 3.64-5.93 3.3-3.37 8-5.16 13.59-5.16h.31c.72.01 1.47.03 2.23.04 1.12.02 2.28.05 3.48.05 4.94 0 10.1-.42 14.43-3.45 7.86-5.52 10.27-9.79 11.01-11.85 2.02-5.63 8.1-9.26 15.51-9.26 3.23 0 6.45.73 9.3 2.12 6.75 3.28 13.45 10.4 7.04 25.67-.64 1.53-1.28 2.95-1.93 4.27 1.83-.01 3.8-.02 5.91-.02 15.52 0 34.22.34 39.47.52 11.09.37 18.18 7.13 19.45 18.55.64 5.74-.83 10.79-4.25 14.61-2.69 3.01-7.89 6.6-17.34 6.6-5.07 0-15.59.27-25.77.54-3.28.09-6.5.17-9.47.24.63 1.93.87 3.91.69 5.91-.31 3.58-2.41 6.33-5.01 8.38 2.51 3.57 3.43 7.59 2.92 12.34-.37 3.48-2.05 6.38-4.37 8.63 1.76 3.05 2.31 6.52 1.77 10.62-1.78 13.46-17.37 13.85-23.24 14l-2.8.07c-4.09.11-8.33.23-12.58.23l.02-.03Z"></path><path fill="#FDCF85" d="M12.15 46.77c4.75.17 17.05-.08 19.38 0-.17-7.5 4.75-11.16 11.75-11.08 7 .08 16.25.92 24.08-4.58 7.83-5.5 11.89-10.66 13.47-15.08s9.38-6.37 15.55-3.37 7.56 8.03 3.78 17.03c-3.12 7.42-5.72 11-8.8 13.91 11.58-.75 50.74-.08 58.24.17s12.08 4.33 13 12.58c.92 8.25-4.33 13.75-14.91 13.75s-44.24 1.17-49.57 1c6.17 3.67 8.66 8 8.33 11.83-.33 3.83-7.91 6.92-10.33 7.25 7.58 4.58 8.75 8.66 8.25 13.33s-5.75 7.16-8.75 7.83c5.75 3.58 6.75 6.83 6.17 11.25-.58 4.42-3.58 7.83-16.75 8.16-13.16.33-30.16 1.08-37.99-2.58-7.83-3.67-12.83-9.25-13.91-14.66-3.75.25-19.66-.17-21.33-.17-.25-4.75-.7-24.97-.54-35.05.17-10.08.38-23.57.57-31.6m132.78 14.74c0 1.5.89 2.11 2 2.17 1.11.06 4.39-.17 6.89-1.28s3.55-2.89 3.5-5.78c-.06-2.89-.75-4.28-2.8-5.5-2.05-1.22-6.55-1.69-7.83-1.69-1.28 0-2.43.48-2.28 1.64.35 2.69.54 8.5.53 10.44h-.01Z"></path></g><defs><clipPath id="pointing_hand_svg__a"><path fill="#fff" d="M0 0h188.08v156.44H0z"></path></clipPath></defs></svg>