<?xml version="1.0" encoding="utf-8"?>
<!-- Generator: Adobe Illustrator 25.4.1, SVG Export Plug-In . SVG Version: 6.00 Build 0)  -->
<svg version="1.1" id="Layer_1" xmlns="http://www.w3.org/2000/svg" xmlns:xlink="http://www.w3.org/1999/xlink" x="0px" y="0px"
	 viewBox="0 0 487.6 168.7" style="enable-background:new 0 0 487.6 168.7;" xml:space="preserve">
<style type="text/css">
	.st0{fill:#FFFFFF;}
	.st1{fill:#98C5D2;}
</style>
<g id="Artwork_7_00000078731018946011730660000000508621891348642743_">
	<path d="M0.2,36c-0.5,15.4,0,30.7,1.4,46C2.1,87,2.9,92.4,8,96c6.8,4.9,18.3,5.1,28.5,4.9c108.1-1.8,303-2.5,411.1-4.3
		c8.7-0.1,23.6,0.4,30.8-3.5c7.4-4,7.8-12.8,8.4-18.5c1.7-16.7,0.9-33.5-2.3-50c-1-5.2-2.4-10.6-7.1-14.9c-9.9-9-29.8-9.8-47-9.6
		C328.3,0.7,139.5,0.4,37.4,1.1c-9.4,0.1-19.6,0.3-26.7,4.2c-8.3,4.5-9.5,12.3-10,19.3C0.5,28.4,0.3,32.2,0.2,36z"/>
</g>
<g id="Artwork_6_00000033327018759491976250000010337676192197536429_">
	<path d="M83.7,93.9c4.1,4.3,3.5,20.3,2.5,25.2c-2.1,10.7-10.3,19.1-19.8,22s-20.1,0.8-29-4.4c0.8-1.9,3.2-1.8,5-1.8
		c6.4-0.1,12.6-4,15.7-10.1c4.2-8.1,2.9-18.4,1.5-27.8c0.2,0.9,21.6-4.9,23.5-3.5C83.3,93.6,83.5,93.7,83.7,93.9z"/>
</g>
<g>
	<path class="st0" d="M26.1,45.5c-0.1-1.1-0.1-2.3-0.1-2.8c1.3-0.1,1.8-0.7,2.1-2.1s2.8-10.5,3.1-11.4c0.2-0.9,0-1.6-1.3-1.6
		c0-0.7,0-2,0-3.2c1.9-0.1,7.6,0,8.3,0c0.7,3.7,3.5,14.7,3.9,15.9c0.5,1.8,1,2.1,2.2,2.1c0.1,0.9,0.2,2.6,0.1,3h-8.9
		c0-1,0.1-2.2,0.1-2.6c2,0,1.7-1.1,1-3h-3.9c-0.7,1.8-0.9,2.8,0.7,2.8c0,1.1,0.1,2.5,0,2.8C31.8,45.7,28,45.6,26.1,45.5z M35.9,35.9
		c-0.1-0.5-0.8-3.8-1-4.7c-0.3,0.5-1,3.7-1.2,4.7C34.3,35.9,35.2,35.9,35.9,35.9z"/>
	<path class="st0" d="M45.4,45.5c0-1-0.1-1.8,0-2.3c1.4-0.2,1.4-0.8,1.5-2.2c0.1-1.4-0.1-11.1-0.1-12.6c0-1.4-0.8-1.4-1.4-1.4
		c0-0.9,0-2,0-2.6c1.7,0,5.4-0.1,8.2-0.1c2.9,0.1,6.3,1.8,6.3,6.6c0,3.5-1.3,5.6-2.3,6.5c1.5,0.7,1.9,2.2,2,3.6c0.1,1.4,0.8,2,1.8,2
		c0,0.6,0.1,2.1,0.1,2.6c-2.7,0.5-6.3,0.5-6.8-3.2c-0.4-3.3-0.9-4.2-2.8-4.2c0,1.3,0.2,2.8,0.2,3.6s0.5,1,1.2,1c0.1,0.6,0,2.1,0,2.6
		C52.2,45.5,47.6,45.6,45.4,45.5z M54.9,30.6c-0.1-2.2-1.6-2.5-3.2-2.5c0,1.1,0,3.6,0.1,5.5C54.2,33.6,54.9,32.8,54.9,30.6z"/>
	<path class="st0" d="M63.6,29c0-1-0.6-1.5-1.4-1.5c0-1,0-2.2,0-3c2.9,0,14.2-0.1,15.5-0.1c0,2.3,0,6.6,0,7.1c-0.9,0-2.3-0.1-3-0.1
		c0-2.1-0.3-3.3-2.1-3.3c-1.4,0-2.3,0-2.9,0c0,1.3,0,2.6,0,3.4c0,1.2,0.8,1.5,2.8,1.6V36c-1.4,0-2.6,0.3-2.7,1.8
		c0,1.5,0.1,3,0.1,3.6c1.4,0,1.8-0.1,2.8-0.1c1.1,0,1.8-1.2,1.8-3.6c0.9,0,2.4,0,3,0c0,1.7,0,7,0,7.8c-1.8,0.1-14.7,0.2-15.6,0.2
		c0-0.8,0-2.4,0-3c1.1,0,1.5-0.8,1.5-2.1C63.7,39.4,63.7,32,63.6,29z"/>
	<path class="st0" d="M85.6,27.3c-0.3-0.7-0.8-0.9-1.5-0.9c0-0.7-0.1-1.7,0-2.2c2.4,0,7.5,0,8,0v1.9c-1.3,0-1.7,0.6-1.4,1.3
		c0.3,0.8,1.8,4.1,2.1,4.9c0.8-1.6,1.7-3.6,2.3-5c0.3-0.7-0.2-1.2-1.1-1.2c0.1-0.6,0-1.6,0-2.1c2.9,0,7.3,0,8,0c0.1,0.6,0,1.8,0,2.2
		c-0.8,0.1-1.4,0.2-1.9,1.4c-1.6,3.7-3,7.1-4.1,9.5c0,1.4,0.1,4.5,0.1,5.3c0,0.8,0.8,1.2,1.3,1.2c0.1,0.5,0.1,1.5,0.1,1.9
		c-1.5,0-8.8,0.1-9.3,0.1c0-1.1,0-1.7,0-2.2c1.3,0,1.8-0.6,1.8-1.6c0-1.1,0-3.4-0.1-4.6C88.7,34.4,87,30.3,85.6,27.3z"/>
	<path class="st0" d="M100.8,34.6c0-7.3,3.7-10.6,8.6-10.7c5.3-0.1,8.8,3.3,8.6,11c-0.1,7.7-3.3,10.8-8.5,10.9
		C104.6,45.9,100.9,43.8,100.8,34.6z M109.7,41.1c2.4,0,3-3,2.9-6.7c-0.1-3.1-0.6-5.8-3.1-5.8c-2.3,0-3.1,3.1-3,5.9
		C106.4,38.9,107,41.1,109.7,41.1z"/>
	<path class="st0" d="M119.5,28c0-1.1-0.6-1.2-1.2-1.3c0-0.7-0.1-2.1-0.1-2.5l8.3,0.1c0,0.9,0,2.1,0,2.5c-1.2,0.1-1.7,0.2-1.8,1.3
		c0,1,0.1,8.7,0.1,10.2c0.1,1.4,0.8,2.7,2.2,2.7c1.5,0,2.4-1.2,2.4-2.8c0.1-1.7,0-9.1,0-10c0-0.8-0.4-1.3-1.3-1.3
		c-0.1-0.7-0.1-2.2-0.1-2.6c1.7,0,7.1,0,7.5,0c0.1,0.8,0.1,1.9,0.1,2.4c-1,0.1-1.3,0.7-1.2,2.4c0.1,4.8,0,6.4,0,9.3
		c0,4-2,7.5-7.2,7.6c-4.2,0.1-7.6-2.6-7.7-7.6C119.6,34.3,119.6,31.6,119.5,28z"/>
	<path class="st0" d="M143.9,28.1c-0.1-0.8-0.5-1.3-1.3-1.3c0-0.6-0.1-1.8-0.1-2.3c1.3-0.1,7.6,0,8.2,0c0,0.7,0,1.9,0,2.2
		c-0.9,0.1-1.4,0.6-1.4,1.5l0.1,13.5c0,1.2,0.7,1.6,1.3,1.6c0,0.7,0,1.7,0,2.2c-1.2,0-7.6,0.1-8,0.1c0-0.8,0-1.8,0-2.6
		c0.9-0.1,1.5-0.6,1.4-1.7C144,40.2,144.1,31.5,143.9,28.1z"/>
	<path class="st0" d="M152.9,27.8c-0.1-0.9-0.7-1.1-1.4-1.1c0-0.5-0.1-1.6,0-2.2c1.4-0.1,6.3,0.1,7,0.1c0.8,1.7,3.7,6.7,5.3,9.6
		c0.1-1.6-0.1-5.6,0-6.5c0-0.9-0.8-1.2-1.4-1.2c0-0.6,0-1.5-0.1-2.1c1.4,0.1,7.2-0.1,7.9,0c0.1,0.9,0,2.2,0,2.5
		c-0.8,0-1.4,0.5-1.5,2c0,1.5,0,15.7,0,16.7c-0.8,0-4.3,0-4.8,0c-2.1-4.1-4.1-8.1-5.8-11c0,2.4,0.2,6.6,0.2,7.3
		c0,0.8,0.6,1.2,1.3,1.2c0,0.7,0.1,2,0.1,2.5c-1.5,0-7.5,0.1-8.2,0.1c0.1-0.9,0-1.7,0-2.4c1.5-0.2,1.5-0.7,1.5-2.3
		C152.9,39.3,153,31.2,152.9,27.8z"/>
	<path class="st0" d="M173.1,30.9c-0.5,0-1.5,0-2.1,0c0-1.2,0.1-5.7,0-6.5c3.8,0,14,0,15.3,0.1c0.1,1,0,5.7,0,6.1H184
		c0-1.9-0.6-2.2-2.6-2.2c0,3.1,0.2,12.2,0.2,13.4c0,1.1,0.7,1.3,1.4,1.4c0.1,0.7,0,1.9,0,2.4c-1.5,0.1-7.8,0.1-8.5,0.1l0-2.7
		c1.5-0.1,1.6-0.7,1.7-1.9c0-1.2-0.1-11.6-0.1-12.6C173.8,28.4,173.2,28.6,173.1,30.9z"/>
	<path class="st0" d="M188.8,29c0-1-0.2-2.2-1.7-2.2c0-1,0-1.9,0-2.6c2.9,0,14,0.1,15.4,0.1c0.1,2.4,0.1,6.7,0,7.1
		c-0.8,0-2.1-0.1-2.8-0.1c0-2.1-0.3-3.3-2-3.3c-1.4,0-2.8,0-3.4,0.1c0,1.3,0,2.6,0,3.4c0,1.2,0.8,1.5,2.8,1.6c0,0.8,0,2,0,2.5
		c-1.4,0-2.6,0.3-2.7,1.8c0,1.5,0,3.3,0.1,4c1.4,0,2.2,0,3.3-0.1c1,0,1.8-1.2,1.8-3.7c1,0,1.9,0.1,2.9,0.2c0,1.7,0,7,0,7.8
		c-1.8,0.1-14.7,0-15.5,0c0-0.9-0.1-2.5-0.1-3c1.6,0,1.9-1.1,1.9-2.4C188.8,39,188.9,32,188.8,29z"/>
	<path class="st0" d="M203.5,45.7c0-1,0-1.5,0-2.1c1.4-0.1,1.4-0.7,1.5-2.2c0-1.5-0.1-10.9,0-12.3c0-1.4-0.8-1.4-1.4-1.4
		c-0.1-0.9-0.1-2.7-0.1-3.3c1.7-0.1,5.4,0,8.2,0c3.4,0,6.3,1.9,6.3,6.7c0,3.5-1,5-2.7,5.9c1.4,0.5,2,1.4,2,2.8
		c0,2.8,0.8,3.4,1.7,3.4c0,0.6,0.1,2.1,0.2,2.6c-4.3,0.4-5.6-0.4-5.9-3.5c-0.3-3.3-1.4-4.4-3.6-4.2l0,4.4c0,0.8,0.5,1,1.3,1
		c0.1,0.6,0.1,1.7,0.1,2.2C210,45.7,205.7,45.7,203.5,45.7z M213.2,30.8c-0.1-2.2-1.4-2.8-3.7-2.7c0,1.1,0,3.8,0.1,5.7
		C212.1,33.8,213.3,33,213.2,30.8z"/>
	<path class="st0" d="M221.4,29c0-1-0.6-1.5-1.4-1.5c0-1,0-2.2,0-3c2.9,0,14.2-0.1,15.5-0.1c0,2.3,0,6.6,0,7.1c-0.9,0-2.3-0.1-3-0.1
		c0-2.1-0.3-3.3-2.1-3.3c-1.4,0-2.3,0-2.9,0c0,1.3,0,2.6,0,3.4c0,1.2,0.8,1.5,2.8,1.6V36c-1.4,0-2.6,0.3-2.7,1.8
		c0,1.5,0.1,3,0.1,3.6c1.4,0,1.8-0.1,2.8-0.1c1.1,0,1.8-1.2,1.8-3.6c0.9,0,2.4,0,3,0c0,1.7,0,7,0,7.8c-1.8,0.1-14.7,0.2-15.6,0.2
		c0-0.8,0-2.4,0-3c1.1,0,1.5-0.8,1.5-2.1C221.5,39.4,221.5,32,221.4,29z"/>
	<path class="st0" d="M236.5,30.4c0.1-4.5,3.9-6.5,7.2-6.5c2.6,0,4,1,4.7,1.6c0-0.6,0.1-1.1,0-1.4c0.8,0,1.6,0,2,0
		c0,1.4,0,6.6,0,7.1c-0.7,0-2.2,0-2.9,0c-0.3-1.4-1.2-2.9-3.2-2.9c-1.6,0-2.4,0.8-2.4,2.1c0,3.3,8.9,0.3,8.9,8.2
		c0,4.1-1.8,7.2-6.5,7.4c-2.8,0.1-4.7-1.3-5.2-1.7c0.1,0.5,0,1.2,0,1.5c-0.7,0.1-1.7,0-2.3,0.1c0-1.5-0.1-7,0-7.5c0.8,0,2.8,0,3.3,0
		c0.4,2.1,1.5,2.9,3.1,2.8c1.4-0.1,2-1.2,2-2.2C245.1,35.7,236.4,38.5,236.5,30.4z"/>
	<path class="st0" d="M253.5,30.9c-0.5,0-1.3,0-1.9,0c0-1.2,0-5.6-0.1-6.5c3.8,0,14.5,0,15.7,0c0.1,1,0.1,5.9,0.1,6.3h-2
		c0-1.9-0.7-2.7-3.4-2.7c0,3.1,0.2,12.5,0.2,13.7c0,1.2,1,1.3,1.7,1.4c0.1,0.7,0,2.1,0,2.6c-1.5,0-7.8,0-8.5,0c0-0.8,0-1.9,0-2.3
		c1.7,0,1.8-0.9,1.8-2.2c0-1.2-0.1-12.4-0.1-13.3C254,27.8,253.6,28.6,253.5,30.9z"/>
	<path class="st0" d="M269.8,29c0-1-0.2-2.2-1.7-2.2c0-1,0-1.9,0-2.6c2.9,0,14,0.1,15.4,0.1c0.1,2.4,0.1,6.7,0,7.1
		c-0.8,0-2.1-0.1-2.8-0.1c0-2.1-0.3-3.3-2-3.3c-1.4,0-2.8,0-3.4,0.1c0,1.3,0,2.6,0,3.4c0,1.2,0.8,1.5,2.8,1.6c0,0.8,0,2,0,2.5
		c-1.4,0-2.6,0.3-2.7,1.8c0,1.5,0,3.3,0.1,4c1.4,0,2.2,0,3.3-0.1c1,0,1.8-1.2,1.8-3.7c1,0,1.9,0.1,2.9,0.2c0,1.7,0,7,0,7.8
		c-1.8,0.1-14.7,0-15.5,0c0-0.9-0.1-2.5-0.1-3c1.6,0,1.9-1.1,1.9-2.4C269.8,39,269.9,32,269.8,29z"/>
	<path class="st0" d="M285.9,29.7c0-1.1-0.3-1.7-1.5-1.7c0-1-0.1-2.5-0.1-3.4c2.8,0,4.2,0,7.6-0.1c4.8,0,8.2,3.5,8.3,10.3
		c0.1,7-2.9,10.4-8.9,10.5c-3.3,0.1-6.1,0.1-7.1,0.1c0.1-1.2,0.2-2.3,0.1-2.8c1.3-0.1,1.6-1.1,1.6-2.1
		C285.9,39.5,285.9,31.8,285.9,29.7z M294.8,34.4c0-3.9-1.4-5.6-3.5-5.5c0,1.2,0,8.8,0,11.3C294,40.1,294.7,38.2,294.8,34.4z"/>
	<path class="st0" d="M308.5,28.9c0-1.6-0.5-1.8-1.3-1.8c0-0.6-0.1-2.4-0.1-2.9c1.3-0.1,7.5,0,8.1,0c0,0.7,0,2.6,0,2.9
		c-0.9,0.1-1.4,0.5-1.4,2l0.1,12.8c0,1.2,0.9,1.6,1.5,1.6v2.2c-1.2,0-7.8,0-8.3-0.1c0-0.8,0-1.7,0-2.4c0.9,0,1.5-0.6,1.5-1.7
		C308.5,40.3,308.5,32.2,308.5,28.9z"/>
	<path class="st0" d="M317.4,27.8c-0.1-0.9-0.7-1.1-1.4-1.1c0-0.5-0.1-1.7,0-2.2c1.4-0.1,5.1,0.1,5.8,0.1c0.8,1.7,4.8,6.7,6.4,9.6
		c0.1-1.6,0-5.8,0-6.7c0-0.9-0.8-1.2-1.4-1.2c0-0.6-0.1-1.2-0.1-1.8c1.4,0,6.8,0,7.5,0.1c0.1,0.9,0,1.8,0,2.1
		c-0.8,0-1.4,0.4-1.4,1.9c-0.1,1.5,0,16.4,0,17.4l-4,0c-2.1-4.1-4.9-8.4-6.7-11.2c0,2.4,0.2,6.7,0.2,7.6c0,0.8,0.6,1.2,1.3,1.2
		c0.1,0.7,0.1,1.8,0.1,2.3c-1.5,0-7,0.1-7.8,0.1c0.1-0.9,0-1.3,0-1.9c1.5-0.2,1.5-0.7,1.5-2.3C317.5,39.7,317.6,31.2,317.4,27.8z"/>
	<path class="st0" d="M357.3,45.9c-0.9,0-2.7,0.1-3.2,0.1c-0.2-0.9-0.8-1.4-1.5-0.9c-0.4,0.3-1,0.8-2.5,0.8c-5.4,0-9-3.2-9.1-10.8
		c0-7.8,3.2-11.1,8.7-11c2.5,0,3.5,1,4.6,0.9c0.5,0,0.7-0.2,1-0.6c0.6,0.5,1.2,1,1.6,1.3c-0.7,1.1-3.2,4.5-3.8,5.2
		c-0.6-1.1-2-1.7-3.4-1.6c-1.8,0.2-2.9,0.9-3,5.6c-0.1,4.7,1.6,5.8,3.2,5.7c1.7,0,2.5-1,2.5-4c-0.6,0-1.7-0.1-2.2-0.1c0-1,0-2,0-3
		c1.8-0.1,6.1,0.1,6.9,0.1V45.9z"/>
	<path class="st0" d="M358.7,45.5c0-1-0.1-1.8,0-2.3c1.4-0.2,1.4-0.8,1.5-2.2c0.1-1.4-0.1-11.1-0.1-12.6c0-1.4-0.8-1.4-1.4-1.4
		c0-0.9,0-2,0-2.6c1.7,0,5.4-0.1,8.2-0.1c2.9,0.1,6.3,1.8,6.3,6.6c0,3.5-1.3,5.6-2.3,6.5c1.5,0.7,1.9,2.2,2,3.6c0.1,1.4,0.8,2,1.8,2
		c0,0.6,0.1,2.1,0.1,2.6c-2.7,0.5-6.3,0.5-6.8-3.2c-0.4-3.3-0.9-4.2-2.8-4.2c0,1.3,0.2,2.8,0.2,3.6s0.5,1,1.2,1c0.1,0.6,0,2.1,0,2.6
		C365.5,45.5,360.8,45.6,358.7,45.5z M368.2,30.6c-0.1-2.2-1.6-2.5-3.2-2.5c0,1.1,0,3.6,0.1,5.5C367.5,33.6,368.2,32.8,368.2,30.6z"
		/>
	<path class="st0" d="M374.7,34.7c0-7.3,2.3-10.8,8.1-10.7c5.7,0.1,8.3,3.3,8.2,11c-0.1,7.8-1.9,11.1-8,11.1
		C377.1,46.1,374.7,43.8,374.7,34.7z M383,41.3c2.4,0,2.6-3.2,2.5-6.9c-0.1-3.1-0.1-5.8-2.7-5.8c-2.3,0-2.6,3-2.6,5.9
		C380.2,38.9,380.4,41.4,383,41.3z"/>
	<path class="st0" d="M392.3,27.3c-0.1-0.7-0.6-0.9-1.2-0.9c0-0.8,0-1.5,0-1.9c1.5-0.1,7.4,0.1,8,0.1c0.1,0.6,0,1.6,0,1.9
		c-0.8,0.2-1.1,0.5-1,1.3c0.3,3,1,7.8,1.1,8.4c0.5-1.3,1.1-3.5,1.4-4c0.8-0.1,1.7,0,2,0c0.5,1.4,1.1,3.5,1.3,4
		c0.3-1.3,1.3-7.8,1.4-8.6c0.1-0.7-0.3-1.1-1.1-1.1c0-0.7-0.1-1.6,0-1.9c1.6,0,7.7,0.1,8.1,0.1c0.1,0.6,0,1.6,0,1.9
		c-0.8,0-1.4,0.8-1.6,1.8c-0.1,0.9-2.5,16.2-2.8,17.3c-1.1,0.1-4.5,0-5,0c-0.4-1.1-1.2-3.7-1.4-4.3c-0.4,1.1-1.2,3.8-1.3,4.3
		c-1,0.1-4.4,0-5.2,0C394.3,41.6,392.8,30.8,392.3,27.3z"/>
	<path class="st0" d="M414.2,28.1c-0.1-0.8-0.5-1.3-1.3-1.3c0-0.6-0.1-1.8-0.1-2.3c1.3-0.1,7.6,0,8.2,0c0,0.7,0,1.9,0,2.2
		c-0.9,0.1-1.4,0.6-1.4,1.5l0.1,13.5c0,1.2,0.7,1.6,1.3,1.6c0,0.7,0,1.7,0,2.2c-1.2,0-7.6,0.1-8,0.1c0-0.8,0-1.8,0-2.6
		c0.9-0.1,1.5-0.6,1.4-1.7C414.4,40.2,414.5,31.5,414.2,28.1z"/>
	<path class="st0" d="M423.3,27.8c-0.1-0.9-0.7-1.1-1.4-1.1c0-0.5-0.1-1.6,0-2.2c1.4-0.1,6.3,0.1,7,0.1c0.8,1.7,3.7,6.7,5.3,9.6
		c0.1-1.6-0.1-5.6,0-6.5c0-0.9-0.8-1.2-1.4-1.2c0-0.6,0-1.5-0.1-2.1c1.4,0.1,7.2-0.1,7.9,0c0.1,0.9,0,2.2,0,2.5
		c-0.8,0-1.4,0.5-1.5,2c0,1.5,0,15.7,0,16.7c-0.8,0-4.3,0-4.8,0c-2.1-4.1-4.1-8.1-5.8-11c0,2.4,0.2,6.6,0.2,7.3
		c0,0.8,0.6,1.2,1.3,1.2c0,0.7,0.1,2,0.1,2.5c-1.5,0-7.5,0.1-8.2,0.1c0.1-0.9,0-1.7,0-2.4c1.5-0.2,1.5-0.7,1.5-2.3
		C423.3,39.3,423.4,31.2,423.3,27.8z"/>
	<path class="st0" d="M457.2,45.9c-1,0-2.3,0.1-2.8,0.1c-0.2-0.9-0.8-1.4-1.5-0.9c-0.4,0.3-1,0.8-2.5,0.8c-5.4,0-8.9-3.6-9.1-10.8
		c-0.1-7.4,3.2-11.1,8.7-11c2.5,0,3.5,1,4.6,0.9c0.5,0,0.7-0.2,1-0.6c0.6,0.5,1.4,1.1,1.8,1.5c-0.7,1.1-3.1,4.4-3.7,5.1
		c-1-1.4-2.4-1.8-3.7-1.7c-1.8,0.2-3.4,0.6-3.5,5.6c-0.1,5,2.1,5.8,3.8,5.7c1.8,0,2.5-0.9,2.5-3.9c-0.6,0-1.4,0-1.9,0c0-1,0-2,0-3
		c1.8,0,5.1,0,6,0C456.9,35.3,457.2,45.2,457.2,45.9z"/>
	<path class="st0" d="M54.1,57.4c0-1.1-0.3-1.7-1.3-1.7c-0.1-0.8-0.1-2.5,0-3.1c2.3,0,13.6,0,14.6,0.1c0.1,1.9,0.1,6.5,0.1,7.1
		c-0.9,0.1-2.7,0-3.2,0c0-1.6-0.6-3.2-2.1-3.3c-0.5,0-1.6-0.1-2.1-0.1c0,1.6,0.1,2.8,0.1,3.6c0,1.2,0.7,1.6,3,1.7c0,0.7,0,2.5,0,3
		c-2-0.1-2.7,0.3-2.8,1.7c-0.1,1.4,0,2,0,2.9c0,0.9,0.1,1.4,1.6,1.5c0.1,0.8,0.1,2.7,0.1,3.2c-1.4,0.1-8.5,0-9.5,0c0-1.1,0-2.3,0-3
		c1.3,0,1.4-0.7,1.4-2.1C54.2,67.3,54.2,60.9,54.1,57.4z"/>
	<path class="st0" d="M68.2,62.9c0-7.3,3.7-10.6,8.6-10.7c5.3-0.1,8.8,3.3,8.6,11C85.3,70.9,82,74,76.9,74.1
		C71.9,74.1,68.3,72,68.2,62.9z M77,69.3c2.4,0,3-3,2.9-6.7c-0.1-3.1-0.6-5.8-3.1-5.8c-2.3,0-3.1,3.1-3,5.9
		C73.7,67.1,74.4,69.3,77,69.3z"/>
	<path class="st0" d="M86.2,62.9c0-7.3,2.3-10.8,8.1-10.7c5.7,0.1,8.3,3.3,8.2,11c-0.1,7.8-1.9,11.1-8,11.1
		C88.7,74.3,86.3,72,86.2,62.9z M94.6,69.5c2.4,0,2.6-3.2,2.5-6.9c-0.1-3.1-0.1-5.8-2.7-5.8c-2.3,0-2.6,3-2.6,5.9
		C91.7,67.1,92,69.6,94.6,69.5z"/>
	<path class="st0" d="M104.5,57.9c0-1.1-0.3-1.7-1.5-1.7c0-1-0.1-2.5-0.1-3.4c2.8,0,4.2,0,7.6-0.1c4.8,0,8.2,3.5,8.3,10.3
		c0.1,7-2.9,10.4-8.9,10.5c-3.3,0.1-6.1,0.1-7.1,0.1c0.1-1.2,0.2-2.3,0.1-2.8c1.3-0.1,1.6-1.1,1.6-2.1
		C104.6,67.7,104.6,60,104.5,57.9z M113.4,62.6c0-3.9-1.4-5.6-3.5-5.5c0,1.2,0,8.8,0,11.3C112.6,68.3,113.4,66.5,113.4,62.6z"/>
	<path class="st0" d="M120.3,64.9c-0.1-1.1-0.1-3.1-0.1-3.8c1.4-0.1,6.6-0.1,7.2,0c0.1,1,0,3.2,0,3.8C126.4,65,121.8,65,120.3,64.9z
		"/>
	<path class="st0" d="M144.8,74.1c-0.9,0-2.7,0.1-3.2,0.1c-0.2-0.9-0.8-1.4-1.5-0.9c-0.4,0.3-1,0.8-2.5,0.8c-5.4,0-9-3.2-9.1-10.8
		c0-7.8,3.2-11.1,8.7-11c2.5,0,3.5,1,4.6,0.9c0.5,0,0.7-0.2,1-0.6c0.6,0.5,1.2,1,1.6,1.3c-0.7,1.1-3.2,4.5-3.8,5.2
		c-0.6-1.1-2-1.7-3.4-1.6c-1.8,0.2-2.9,0.9-3,5.6c-0.1,4.7,1.6,5.8,3.2,5.7c1.7,0,2.5-1,2.5-4c-0.6,0-1.7-0.1-2.2-0.1c0-1,0-2,0-3
		c1.8-0.1,6.1,0.1,6.9,0.1V74.1z"/>
	<path class="st0" d="M146.2,73.8c0-1-0.1-1.8,0-2.3c1.4-0.2,1.4-0.8,1.5-2.2c0.1-1.4-0.1-11.1-0.1-12.6c0-1.4-0.8-1.4-1.4-1.4
		c0-0.9,0-2,0-2.6c1.7,0,5.4-0.1,8.2-0.1c2.9,0.1,6.3,1.8,6.3,6.6c0,3.5-1.3,5.6-2.3,6.5c1.5,0.7,1.9,2.2,2,3.6c0.1,1.4,0.8,2,1.8,2
		c0,0.6,0.1,2.1,0.1,2.6c-2.7,0.5-6.3,0.5-6.8-3.2c-0.4-3.3-0.9-4.2-2.8-4.2c0,1.3,0.2,2.8,0.2,3.6s0.5,1,1.2,1c0.1,0.6,0,2.1,0,2.6
		C153,73.8,148.4,73.8,146.2,73.8z M155.7,58.8c-0.1-2.2-1.6-2.5-3.2-2.5c0,1.1,0,3.6,0.1,5.5C155,61.9,155.7,61,155.7,58.8z"/>
	<path class="st0" d="M163,73.8c-0.1-1.1-0.1-2.3-0.1-2.8c1.3-0.1,1.8-0.7,2.1-2.1s2.8-10.5,3.1-11.4c0.2-0.9,0-1.6-1.3-1.6
		c0-0.7,0-2,0-3.2c1.9-0.1,7.6,0,8.3,0c0.7,3.7,3.5,14.7,3.9,15.9c0.5,1.8,1,2.1,2.2,2.1c0.1,0.9,0.2,2.6,0.1,3h-8.9
		c0-1,0.1-2.2,0.1-2.6c2,0,1.7-1.1,1-3h-3.9c-0.7,1.8-0.9,2.8,0.7,2.8c0,1.1,0.1,2.5,0,2.8C168.7,73.9,164.9,73.8,163,73.8z
		 M172.8,64.1c-0.1-0.5-0.8-3.8-1-4.7c-0.3,0.5-1,3.7-1.2,4.7C171.2,64.2,172,64.2,172.8,64.1z"/>
	<path class="st0" d="M183.7,57.6c0-1.1-0.3-1.7-1.5-1.7c0-1-0.1-2.5-0.1-3.4c2.8,0,3.8,0,7.2,0c5.1,0,8.2,3.8,8.3,10.6
		c0.1,7-1.9,10.7-8.5,10.8c-3.3,0.1-5.8,0-6.8-0.1c0-1.3,0-2.4,0-2.9c1.3-0.1,1.4-1.2,1.4-2.2C183.8,67.8,183.7,59.8,183.7,57.6z
		 M193,62.8c-0.1-4.6-2.1-5.8-4.2-5.7c0,1.2,0,8.8,0,11.3C191.5,68.3,193.1,67.2,193,62.8z"/>
	<path class="st0" d="M199.9,57.2c0-1-0.6-1.5-1.4-1.5c0-1,0-2.2,0-3c2.9,0,14.2-0.1,15.5-0.1c0,2.3,0,6.6,0,7.1
		c-0.9,0-2.3-0.1-3-0.1c0-2.1-0.3-3.3-2.1-3.3c-1.4,0-2.3,0-2.9,0c0,1.3,0,2.6,0,3.4c0,1.2,0.8,1.5,2.8,1.6v2.9
		c-1.4,0-2.6,0.3-2.7,1.8c0,1.5,0.1,3,0.1,3.6c1.4,0,1.8-0.1,2.8-0.1c1.1,0,1.8-1.2,1.8-3.6c0.9,0,2.4,0,3,0c0,1.7,0,7,0,7.8
		c-1.8,0.1-14.7,0.2-15.6,0.2c0-0.8,0-2.4,0-3c1.1,0,1.5-0.8,1.5-2.1C199.9,67.6,199.9,60.2,199.9,57.2z"/>
	<path class="st0" d="M221,62.9c0-7.3,3.7-10.6,8.6-10.7c5.3-0.1,8.8,3.3,8.6,11c-0.1,7.7-3.3,10.8-8.5,10.9
		C224.7,74.1,221.1,72,221,62.9z M229.8,69.3c2.4,0,3-3,2.9-6.7c-0.1-3.1-0.6-5.8-3.1-5.8c-2.3,0-3.1,3.1-3,5.9
		C226.6,67.1,227.2,69.3,229.8,69.3z"/>
	<path class="st0" d="M237.6,73.7c-0.1-1.1,0-1.9,0-2.4c1.3-0.1,1.8-1,2.2-2.7c0.3-1.4,2.6-10.5,2.8-11.4s0.4-1.6-0.9-1.5
		c0-0.7,0-1.8,0-2.9c2.7-0.1,5.4,0,8.4,0.1c0.7,3.7,3.4,14.5,3.7,15.8c0.5,1.8,1,2.6,2.2,2.6c0.1,0.9,0.1,2,0.1,2.4h-9.1
		c0-1,0-2.4,0-2.8c2,0,1.8-0.9,1.1-2.8h-3.9c-1.1,2.1-0.5,2.8,1.1,2.8c0,1.1,0.1,2.5,0,2.8C243.2,73.7,239.7,73.6,237.6,73.7z
		 M247.3,63.4c-0.1-0.5-0.6-3.1-0.9-4.1c-0.2,0.6-0.8,3.1-1.1,4.1C245.9,63.4,246.6,63.4,247.3,63.4z"/>
	<path class="st0" d="M256.3,59.1c-0.5,0-1.5,0-2.1,0c0-1.2,0.1-5.7,0-6.5c3.8,0,14,0,15.3,0.1c0.1,1,0,5.7,0,6.1h-2.2
		c0-1.9-0.6-2.2-2.6-2.2c0,3.1,0.2,12.2,0.2,13.4c0,1.1,0.7,1.3,1.4,1.4c0.1,0.7,0,1.9,0,2.4c-1.5,0.1-7.8,0.1-8.5,0.1l0-2.7
		c1.5-0.1,1.6-0.7,1.7-1.9c0-1.2-0.1-11.6-0.1-12.6C257.1,56.6,256.4,56.9,256.3,59.1z"/>
	<path class="st0" d="M270.6,58.6c0.1-4.5,3.9-6.5,7.2-6.5c2.6,0,4,1,4.7,1.6c0-0.6,0.1-1.1,0-1.4c0.8,0,1.6,0,2,0
		c0,1.4,0,6.6,0,7.1c-0.7,0-2.2,0-2.9,0c-0.3-1.4-1.2-2.9-3.2-2.9c-1.6,0-2.4,0.8-2.4,2.1c0,3.3,8.9,0.3,8.9,8.2
		c0,4.1-1.8,7.2-6.5,7.4c-2.8,0.1-4.7-1.3-5.2-1.7c0.1,0.5,0,1.2,0,1.5c-0.7,0.1-1.7,0-2.3,0.1c0-1.5-0.1-7,0-7.5c0.8,0,2.8,0,3.3,0
		c0.4,2.1,1.5,2.9,3.1,2.8c1.4-0.1,2-1.2,2-2.2C279.2,63.9,270.5,66.7,270.6,58.6z"/>
	<path class="st0" d="M293.2,57.6c0-1.1-0.3-1.4-1.3-1.4c-0.1-0.8-0.1-2.8,0-3.4c2.3,0,13.6,0,14.6,0.1c0.1,1.9,0.1,6.5,0.1,7
		c-0.9,0.1-2.3,0.1-2.8,0c-0.1-2.6-0.6-3.4-2.1-3.4c-0.8,0-2.7,0.1-3.1,0.1c0,1.6,0.1,2.8,0.1,3.6c0,1.5,0.7,1.7,3.3,1.7
		c0,0.7,0,2.5,0,2.9c-2.7-0.1-3,0.3-3,1.7c-0.1,1.4-0.1,2,0,2.9c0,0.9,0.5,1.3,1.7,1.3c0.1,0.8,0.1,2.7,0.1,3.2
		c-1.4,0-7.9,0.2-8.9,0.2c-0.1-1.1-0.1-2.7,0-3.4c1.3,0,1.4-0.4,1.4-1.8C293.2,67.5,293.2,61.1,293.2,57.6z"/>
	<path class="st0" d="M307.2,62.9c0-7.3,2.3-10.8,8.1-10.7c5.7,0.1,8.3,3.3,8.2,11c-0.1,7.8-1.9,11.1-8,11.1
		C309.7,74.3,307.3,72,307.2,62.9z M315.6,69.5c2.4,0,2.6-3.2,2.5-6.9c-0.1-3.1-0.1-5.8-2.7-5.8c-2.3,0-2.6,3-2.6,5.9
		C312.8,67.1,313,69.6,315.6,69.5z"/>
	<path class="st0" d="M324.1,73.9c0-1,0-1.5,0-2.1c1.4-0.1,1.4-0.7,1.5-2.2c0-1.5-0.1-10.9,0-12.3c0-1.4-0.8-1.4-1.4-1.4
		c-0.1-0.9-0.1-2.7-0.1-3.3c1.7-0.1,5.4,0,8.2,0c3.4,0,6.3,1.9,6.3,6.7c0,3.5-1,5-2.7,5.9c1.4,0.5,2,1.4,2,2.8
		c0,2.8,0.8,3.4,1.7,3.4c0,0.6,0.1,2.1,0.2,2.6c-4.3,0.4-5.6-0.4-5.9-3.5c-0.3-3.3-1.4-4.4-3.6-4.2l0,4.4c0,0.8,0.5,1,1.3,1
		c0.1,0.6,0.1,1.7,0.1,2.2C330.7,73.9,326.3,74,324.1,73.9z M333.9,59c-0.1-2.2-1.4-2.8-3.7-2.7c0,1.1,0,3.8,0.1,5.7
		C332.7,62,333.9,61.2,333.9,59z"/>
	<path class="st0" d="M346.4,62.9c0-7.3,3.7-10.6,8.6-10.7c5.3-0.1,8.8,3.3,8.6,11c-0.1,7.7-3.3,10.8-8.5,10.9
		C350.1,74.1,346.5,72,346.4,62.9z M355.2,69.3c2.4,0,3-3,2.9-6.7c-0.1-3.1-0.6-5.8-3.1-5.8c-2.3,0-3.1,3.1-3,5.9
		C351.9,67.1,352.6,69.3,355.2,69.3z"/>
	<path class="st0" d="M362.8,73.8c-0.1-1.1-0.1-2.3-0.1-2.8c1.3-0.1,1.8-0.7,2.1-2.1c0.4-1.4,2.8-10.5,3.1-11.4
		c0.2-0.9,0-1.6-1.3-1.6c0-0.7,0-2,0-3.2c1.9-0.1,7.6,0,8.3,0c0.7,3.7,3.5,14.7,3.9,15.9c0.5,1.8,1,2.1,2.2,2.1
		c0.1,0.9,0.2,2.6,0.1,3h-8.9c0-1,0.1-2.2,0.1-2.6c2,0,1.7-1.1,1-3h-3.9c-0.7,1.8-0.9,2.8,0.7,2.8c0,1.1,0.1,2.5,0,2.8
		C368.5,73.9,364.6,73.8,362.8,73.8z M372.6,64.1c-0.1-0.5-0.8-3.8-1-4.7c-0.3,0.5-1,3.7-1.2,4.7C371,64.2,371.8,64.2,372.6,64.1z"
		/>
	<path class="st0" d="M380,59.1c-0.5,0-1.3,0-1.9,0c0-1.2,0-5.6-0.1-6.5c3.8,0,14.5,0,15.7,0c0.1,1,0.1,5.9,0.1,6.3h-2
		c0-1.9-0.7-2.7-3.4-2.7c0,3.1,0.2,12.5,0.2,13.7c0,1.2,1,1.3,1.7,1.4c0.1,0.7,0,2.1,0,2.6c-1.5,0-7.8,0-8.5,0c0-0.8,0-1.9,0-2.3
		c1.7,0,1.8-0.9,1.8-2.2c0-1.2-0.1-12.4-0.1-13.3C380.5,56,380.1,56.8,380,59.1z"/>
	<path class="st0" d="M395.7,55.9c0-0.9-0.4-1.2-1.2-1.2c0-0.7-0.1-1.6,0-2.2c1.7,0,7.4,0.1,8.2,0.1v2.2c-1.2,0-1.4,0.4-1.4,1.4
		c0,1,0,12.5,0.1,13.3c4.4,0,4.7-0.4,4.6-4c0.7-0.1,2,0,2.3-0.1c0,1.1,0.2,7.6,0.2,8.1c-3.7,0-13.3,0-14.1,0c0-1.4,0-2.3,0-2.7
		c1.4-0.1,1.6-0.8,1.6-2.5C395.9,66.8,395.8,59.1,395.7,55.9z"/>
	<path class="st0" d="M407.3,55.5c-0.3-0.7-0.8-0.9-1.5-0.9c0-0.7-0.1-1.7,0-2.2c2.4,0,7.5,0,8,0v1.9c-1.3,0-1.7,0.6-1.4,1.3
		s1.8,4.1,2.1,4.9c0.8-1.6,1.7-3.6,2.3-5c0.3-0.7-0.2-1.2-1.1-1.2c0.1-0.6,0-1.6,0-2.1c2.9,0,7.3,0,8,0c0.1,0.6,0,1.8,0,2.2
		c-0.8,0.1-1.4,0.2-1.9,1.4c-1.6,3.7-3,7.1-4.1,9.5c0,1.4,0.1,4.5,0.1,5.3c0,0.8,0.8,1.2,1.3,1.2c0.1,0.5,0.1,1.5,0.1,1.9
		c-1.5,0-8.8,0.1-9.3,0.1c0-1.1,0-1.7,0-2.2c1.3,0,1.8-0.6,1.8-1.6c0-1.1,0-3.4-0.1-4.6C410.4,62.6,408.7,58.5,407.3,55.5z"/>
	<path class="st0" d="M432.2,67.6c-1,0.1-3.2,0.1-4.3,0c-0.2-8,4.3-6.1,4.2-8.8c-0.1-1-0.6-1.7-1.7-1.7c-1.1,0-2,0.6-2.1,2.5
		c-1.1,0-3.4,0.1-4.5,0c-0.1-3.9,1.8-7.1,6.6-7.1c4.8,0,7,3.4,7,6.1C437.1,63.4,432.2,62.4,432.2,67.6z M430.4,68.7
		c1.5,0.1,2.4,1.3,2.4,2.8c0,1.5-1.1,2.6-2.6,2.6s-2.7-1-2.7-2.6C427.6,69.8,428.6,68.5,430.4,68.7z"/>
</g>
<g id="Bubbla_-_bottom_right_-_smooth_00000176029358498645849610000000264688958507094438_">
	<path class="st1" d="M442.1,110.9c0.2,1,0.4,2,0.6,2.9c0.2,1.5,0.4,3.1,0.6,4.6c0.1,0.6,0.2,1.2,0.3,1.9c0.1,0.8,0.2,1.7,0.3,2.5
		c0.1,0.8,0,1.6,0.1,2.4c0,0.8,0,1.6,0,2.4c-0.1,1.1-0.3,2.3-0.4,3.4c-0.1,0.5,0,1-0.1,1.6c-0.1,0.6-0.3,1.1-0.4,1.7
		c-0.2,0.9-0.4,1.9-0.5,2.8c-0.1,0.7-0.3,1.4-0.5,2.1c-0.1,0.4-0.2,0.8-0.3,1.2c-0.1,0.3-0.2,0.6-0.3,0.8c-0.3,0.7-0.5,1.4-0.8,2.1
		c-0.3,0.7-0.7,1.4-1.1,2.1c-0.5,0.8-1,1.7-1.5,2.5c-0.2,0.3-0.3,0.6-0.5,0.9c-0.6,0.9-1.2,1.7-1.9,2.6c-0.4,0.5-0.9,1-1.3,1.6
		c-0.6,0.7-1.1,1.4-1.6,2.1c-0.1,0.1,0,0.2,0.1,0.4c0.4,1.2,0.7,2.4,1.2,3.6c0.3,0.7,0.7,1.4,1,2.1c0.2,0.6,0.4,1.2,0.6,1.7
		c0.4,0.9,0.9,1.8,1.3,2.7c0.2,0.6,0.5,1.1,1,1.6c0.2,0.2,0.2,0.9,0,1.2c-0.1,0.2-0.8,0.2-1.1,0.1c-0.6-0.3-1.1-0.8-1.7-1.2
		c-0.5-0.3-1.1-0.5-1.7-0.8c-0.5-0.2-0.9-0.5-1.4-0.7c-1-0.5-1.9-1-2.9-1.5c-0.7-0.4-1.3-0.8-2-1.2c-0.7-0.4-1.4-0.7-2.1-1.1
		c-1-0.5-2-1-3-1.6c-0.4-0.2-0.8-0.6-1.2-0.7c-0.5-0.1-1.2-0.1-1.7,0c-0.7,0.1-1.4,0.3-2.1,0.5c-1.1,0.3-2.2,0.7-3.3,1
		c-1,0.3-2,0.5-3,0.8c-0.8,0.2-1.7,0.5-2.5,0.7c-0.7,0.1-1.3,0.2-2,0.2c-1,0.1-1.9,0.3-2.9,0.4c-0.9,0.1-1.9,0.2-2.8,0.2
		c-0.8,0.1-1.5,0.1-2.3,0.1c-0.7,0-1.4,0-2.1,0c-0.7,0-1.5,0-2.2,0c-0.3,0-0.7-0.1-1-0.1c-0.3,0-0.6,0.1-0.9,0
		c-1.4-0.2-2.8-0.4-4.2-0.6c-0.2,0-0.5,0-0.7,0c-0.3-0.1-0.6-0.3-1-0.4c-0.5-0.1-1.1-0.2-1.7-0.4c-0.6-0.2-1.3-0.3-1.9-0.5
		c-0.6-0.2-1.2-0.5-1.8-0.7c-0.1,0-0.2-0.1-0.3-0.1c-0.6-0.2-1.2-0.3-1.8-0.5c-0.4-0.1-0.7-0.4-1.1-0.6c-0.7-0.4-1.3-0.7-2-1.1
		c-0.5-0.3-1-0.4-1.4-0.8c-0.9-0.7-1.8-1.4-2.6-2.2c-0.5-0.5-1-1.1-1.4-1.6c-0.2-0.2-0.5-0.4-0.7-0.7c-0.4-0.5-0.8-1.1-1.2-1.6
		c-0.9-1.2-1.7-2.4-2.6-3.5c-0.3-0.4-0.7-0.9-1-1.3c-0.5-0.7-0.9-1.5-1.3-2.2c-0.5-1.1-0.9-2.2-1.4-3.3c-0.3-0.8-0.5-1.6-0.8-2.4
		c-0.4-1.3-0.8-2.6-1.1-3.9c-0.2-0.9-0.3-1.9-0.5-2.9c-0.1-0.7-0.3-1.3-0.4-2c-0.1-0.8-0.2-1.7-0.3-2.5c-0.1-0.8-0.1-1.7-0.2-2.5
		c-0.1-0.8-0.2-1.5-0.3-2.3c0-0.4,0-0.8,0-1.2c0-0.9,0-1.8,0-2.6c0.1-1.5,0.2-3.1,0.3-4.6c0-0.8,0-1.5,0-2.3c0-0.7,0.2-1.5,0.3-2.2
		c0.1-0.8,0.3-1.7,0.4-2.5c0.2-1.1,0.5-2.2,0.8-3.3c0.2-0.8,0.6-1.5,0.9-2.2c0.3-0.8,0.6-1.5,1-2.3c0.3-0.7,0.8-1.4,1.2-2
		c0.4-0.6,0.9-1.3,1.4-1.9c0.2-0.3,0.5-0.6,0.8-0.9c0.2-0.3,0.4-0.5,0.6-0.8c0.3-0.4,0.6-0.8,1-1.1c0.5-0.4,1-0.8,1.5-1.1
		c0.9-0.7,1.7-1.3,2.6-2c0.5-0.4,1.1-0.9,1.7-1.2c1-0.6,2-1.1,3-1.6c0.6-0.3,1.3-0.5,2-0.7c0.1-0.1,0.3-0.2,0.4-0.2
		c0.5-0.1,1.1-0.2,1.6-0.3c0.7-0.2,1.3-0.4,2-0.5c0.6-0.2,1.1-0.3,1.7-0.4c0.7-0.2,1.3-0.3,2-0.4c1-0.2,2-0.4,3-0.6
		c0.6-0.1,1.1-0.3,1.7-0.3c0.7-0.1,1.4-0.1,2.1-0.2c1.5-0.2,3-0.5,4.5-0.7c1.3-0.2,2.6-0.3,3.8-0.3c1.1,0,2.3,0.1,3.4,0
		c0.5,0,0.9-0.2,1.4-0.3c0.1,0,0.1,0,0.2,0c0.8,0.1,1.6,0.1,2.4,0.2c0.4,0,0.8,0.1,1.2,0.2c0.7,0.1,1.4,0.1,2.1,0.2
		c0.7,0.1,1.5,0.2,2.2,0.3c0.9,0.2,1.9,0.3,2.8,0.5c1.2,0.3,2.4,0.5,3.5,1c1.1,0.4,2.2,0.9,3.2,1.4c0.6,0.2,1.1,0.5,1.7,0.7
		c0.7,0.4,1.5,0.8,2.2,1.3c0.8,0.5,1.5,1,2.2,1.5c0.8,0.7,1.7,1.3,2.4,2.1c0.9,0.9,1.7,1.8,2.5,2.8c0.8,1,1.5,2,2.2,3
		c0.6,1,1.3,1.9,1.8,2.9c0.6,1,1,2,1.5,3c0.4,0.7,0.7,1.4,1,2.2c0.2,0.5,0.4,1.1,0.6,1.7c0.3,1,0.6,2,0.9,3.1
		C442.1,110.3,442.1,110.6,442.1,110.9C442.1,110.9,442.1,110.9,442.1,110.9z"/>
</g>
<g>
	<path class="st0" d="M378.1,115c-0.3-0.7-0.8-0.9-1.5-0.9c0-0.7-0.1-1.6,0-2.1c2.3,0,7.3,0,7.8,0v1.9c-1.3,0-1.6,0.5-1.3,1.3
		s1.8,4,2.1,4.8c0.8-1.5,1.7-3.5,2.2-4.8c0.3-0.7-0.2-1.1-1-1.1c0.1-0.6,0-1.5,0-2c2.8,0,7.1,0,7.8,0c0.1,0.6,0,1.8,0,2.1
		c-0.8,0.1-1.4,0.2-1.9,1.4c-1.5,3.6-3,6.9-4,9.3c0,1.4,0.1,4.4,0.1,5.1c0,0.8,0.8,1.1,1.3,1.1c0.1,0.4,0.1,1.4,0.1,1.9
		c-1.4,0-8.6,0.1-9,0.1c0-1,0-1.7,0-2.1c1.3,0,1.7-0.5,1.7-1.6c0-1,0-3.3-0.1-4.5C381.1,121.9,379.5,118,378.1,115z"/>
	<path class="st0" d="M396.3,116.7c0-1-0.5-1.4-1.4-1.5c0-0.9,0-2.2,0-2.9c2.8,0,13.8-0.1,15.1-0.1c0,2.3,0,6.4,0,6.9
		c-0.9,0-2.2-0.1-2.9-0.1c0-2-0.3-3.2-2-3.2c-1.3,0-2.3,0-2.8,0c0,1.3,0,2.5,0,3.3c0,1.2,0.8,1.4,2.7,1.5v2.8
		c-1.4,0-2.6,0.3-2.6,1.7c0,1.4,0.1,2.9,0.1,3.5c1.4,0,1.7-0.1,2.7-0.1c1,0,1.8-1.2,1.7-3.5c0.9,0,2.4,0,3,0c0,1.6,0,6.8,0,7.5
		c-1.7,0.1-14.3,0.2-15.1,0.2c0-0.8,0-2.3,0-2.9c1.1,0,1.5-0.8,1.5-2C396.3,126.8,396.3,119.6,396.3,116.7z"/>
	<path class="st0" d="M410.9,118.1c0.1-4.4,3.8-6.3,7-6.3c2.5,0,3.9,0.9,4.5,1.6c0-0.6,0.1-1,0-1.3c0.8,0,1.6,0,2,0
		c0,1.4,0,6.4,0,6.9c-0.7,0-2.1,0-2.8,0c-0.3-1.4-1.1-2.8-3.2-2.8c-1.5,0-2.3,0.8-2.3,2c0,3.2,8.7,0.3,8.6,7.9c0,4-1.7,7-6.3,7.1
		c-2.7,0.1-4.6-1.3-5-1.7c0.1,0.5,0,1.2,0,1.4c-0.7,0.1-1.6,0-2.2,0.1c0-1.4-0.1-6.8,0-7.3c0.8,0,2.7,0,3.2,0c0.3,2.1,1.4,2.8,3,2.7
		c1.4-0.1,1.9-1.2,1.9-2.1C419.3,123.2,410.8,125.9,410.9,118.1z"/>
</g>
</svg>
