<?xml version="1.0" encoding="UTF-8"?>
<svg id="Layer_2" data-name="Layer 2" xmlns="http://www.w3.org/2000/svg" viewBox="0 0 1645.54 501.89">
  <defs>
    <style>
      .cls-1 {
        fill: none;
        stroke: #fff;
        stroke-miterlimit: 10;
        stroke-width: 3px;
      }

      .cls-2 {
        fill: #fff;
        stroke-width: 0px;
      }
    </style>
  </defs>
  <g id="Layer_1-2" data-name="Layer 1">
    <g>
      <polyline class="cls-1" points="1.5 218.61 160.5 218.61 160.5 483.6 796.04 483.6 796.04 18.29 1485.04 18.29 1485.04 215.95 1644.04 215.95"/>
      <line class="cls-1" x1="1.5" y1="182.12" x2="1.5" y2="255.11"/>
      <line class="cls-1" x1="1644.04" y1="178.64" x2="1644.04" y2="251.62"/>
      <line class="cls-1" x1="478.04" y1="465.3" x2="478.04" y2="501.89"/>
      <line class="cls-1" x1="1151.09" x2="1151.09" y2="36.59"/>
      <path class="cls-2" d="M190.51,165.68c-.03-.73.23-.87,1.08-.87s2.98.23,3.94,1.01,1.31,1.57,1.34,2.79-.42,2.18-1.69,2.88-3.28,1.01-3.73,1.01-.59-.56-.59-1.03-.26-3.82-.35-5.79Z"/>
    </g>
  </g>
</svg>