<?xml version="1.0" encoding="UTF-8"?>
<svg id="Layer_2" data-name="Layer 2" xmlns="http://www.w3.org/2000/svg" viewBox="0 0 89.8 52.4">
  <defs>
    <style>
      .cls-1 {
        fill: #98c5d3;
      }

      .cls-1, .cls-2, .cls-3 {
        stroke-width: 0px;
      }

      .cls-2 {
        fill: #000;
      }

      .cls-3 {
        fill: #fff;
      }
    </style>
  </defs>
  <g id="Layer_1-2" data-name="Layer 1">
    <g>
      <path class="cls-1" d="M86.61,9.43c-.18-.2-.37-.39-.57-.57-.18-.2-.37-.38-.56-.56-.18-.2-.37-.39-.57-.57-.18-.2-.37-.39-.57-.57-.18-.19-.37-.38-.56-.56-.18-.2-.37-.39-.57-.57-.18-.19-.37-.38-.56-.56-.18-.2-.37-.39-.57-.57-.18-.2-.37-.38-.56-.56-.18-.2-.37-.39-.57-.57-.18-.2-.37-.38-.56-.56-1.81-1.96-4.38-3.19-7.25-3.19H9.87C4.43,0,0,4.43,0,9.87v25.85c0,2.87,1.24,5.44,3.19,7.25.18.2.37.38.56.56.18.2.37.39.57.57.18.2.37.38.56.56.18.2.37.39.57.57.18.2.37.38.56.56.18.2.37.39.57.57.18.2.37.39.57.57.18.19.37.38.56.56.18.2.37.39.57.57.18.19.37.38.56.56.18.2.37.39.57.57,1.81,1.96,4.38,3.19,7.25,3.19h63.25c5.44,0,9.87-4.43,9.87-9.87v-25.85c0-2.86-1.23-5.44-3.19-7.25Z"/>
      <g>
        <path class="cls-1" d="M73.13,45.6H9.87c-5.44,0-9.87-4.43-9.87-9.87V9.87C0,4.43,4.43,0,9.87,0h63.25c5.44,0,9.87,4.43,9.87,9.87v25.85c0,5.44-4.43,9.87-9.87,9.87ZM9.87,9c-.48,0-.87.39-.87.87v25.85c0,.48.39.87.87.87h63.25c.48,0,.87-.39.87-.87V9.87c0-.48-.39-.87-.87-.87H9.87Z"/>
        <rect class="cls-3" x="4.5" y="4.5" width="74" height="36.6" rx="5.37" ry="5.37"/>
      </g>
      <g>
        <path class="cls-2" d="M11.28,22.11c-.03-7.84,3.92-11.38,9.16-11.41,5.65-.07,9.36,3.5,9.23,11.79-.1,8.25-3.57,11.55-9.05,11.62-5.34.04-9.26-2.25-9.33-12ZM20.71,29.01c2.6-.03,3.19-3.26,3.09-7.18-.07-3.33-.59-6.24-3.36-6.24-2.43,0-3.29,3.29-3.26,6.31.03,4.79.73,7.14,3.54,7.11Z"/>
        <path class="cls-2" d="M31.29,14.65c-.03-1.01-.42-1.28-1.25-1.25-.03-.73-.07-1.73-.03-2.32,1.8.03,7.87.14,8.81.14v2.39c-1.25,0-1.46.42-1.53,1.53-.03,1.08.03,13.39.07,14.25,4.75,0,4.99-.42,4.96-4.27.76-.07,2.15-.04,2.46-.07.03,1.21.24,8.12.21,8.67-3.99-.03-14.22.04-15.12-.03-.03-1.53,0-2.43.03-2.91,1.46-.1,1.7-.87,1.66-2.67-.07-1.8-.14-10.02-.28-13.46Z"/>
        <path class="cls-2" d="M47.6,16.8c0-1.14-.35-1.77-1.56-1.8-.03-1.08-.07-2.64-.07-3.68,2.95,0,4.54-.03,8.12-.07,5.1-.03,8.77,3.75,8.84,11.06.1,7.46-3.09,11.13-9.54,11.27-3.57.07-6.56.1-7.56.07.07-1.25.17-2.5.14-3.02,1.42-.07,1.66-1.21,1.66-2.29s0-9.3-.03-11.55ZM57.07,21.87c0-4.16-1.46-6-3.75-5.86-.03,1.32-.03,9.4,0,12.04,2.88-.14,3.71-2.08,3.75-6.17Z"/>
        <path class="cls-2" d="M64.42,18.26c-.17-1.91-.45-4.61-.69-7.01,1.87-.1,4.13.1,6.45,0-.21,2.57-.45,4.72-.52,5.65-.21,2.15-1.11,9.02-1.11,10.27-.97.07-2.22,0-3.19-.07-.03-1.14-.59-5.27-.94-8.84ZM67.2,28.32c1.56.1,2.53,1.39,2.57,2.95,0,1.56-1.21,2.84-2.77,2.84s-2.91-1.11-2.88-2.84,1.14-3.09,3.09-2.95Z"/>
      </g>
    </g>
  </g>
</svg>