<svg width="769" height="182" viewBox="0 0 769 182" fill="none" xmlns="http://www.w3.org/2000/svg">
<path d="M360.787 0V12.1074V24.1587V36.266V48.3734V60.4808V72.5321V84.6394H372.869H384.95H397.032H409.057H421.139V72.5321V60.4808H409.057V72.5321H397.032H384.95V60.4808V48.3734H397.032H409.057V36.266H397.032H384.95V24.1587V12.1074H397.032H409.057V24.1587H421.139V12.1074V0H360.787Z" fill="black"/>
<path d="M324.598 0V12.1074V24.1587V36.266H312.517H300.491V24.1587V12.1074V0H276.328V12.1074V24.1587V36.266V48.3734V60.4808V72.5321V84.6394H288.41H300.491V72.5321V60.4808V48.3734H312.517H324.598V60.4808V72.5321V84.6394H336.68H348.762V72.5321V60.4808V48.3734V36.266V24.1587V12.1074V0H324.598Z" fill="black"/>
<path d="M469.409 0V12.1074V24.1587V36.266H457.327V24.1587V12.1074V0H433.22V12.1074V24.1587V36.266H445.246V48.3734H457.327H469.409V60.4808V72.5321H457.327V60.4808H445.246H433.22V72.5321H445.246V84.6394H457.327H469.409H481.49V72.5321H493.516V60.4808V48.3734V36.266V24.1587V12.1074V0H469.409Z" fill="black"/>
<path d="M60.785 97.2484H48.7035H36.622H24.5404H12.5149H0.43335V109.356V121.463V133.571V145.678V157.785V169.893V182H12.5149H24.5964H36.6779H48.7594H60.8409V169.893H72.9224V157.785V145.678H60.8409V133.571H72.9224V121.463V109.356H60.8409V97.2484H60.785ZM48.7035 157.729V169.837H36.622H24.5404V157.729V145.622H36.622H48.7035V157.729ZM48.7035 121.463V133.571H36.622H24.5404V121.463V109.356H36.622H48.7035V121.463Z" fill="black"/>
<path d="M313.602 97.2484H301.52H289.439H277.357H265.276H253.25V109.356V121.463V133.571V145.678V157.785V169.893V182H265.332H277.413H289.495H301.576H313.658V169.893H325.739V157.785V145.678V133.571V121.463V109.356H313.658V97.2484H313.602ZM301.52 121.463V133.571V145.678V157.785V169.893H289.439H277.357V157.785V145.678V133.571V121.463V109.356H289.439H301.52V121.463Z" fill="black"/>
<path d="M373.73 97.2484H361.648H349.623H337.541V109.356V121.463V133.571V145.622V157.729V169.837V181.888H349.623H361.648H373.73H385.811H397.893V169.837V157.729H385.811V169.837H373.73H361.648V157.729V145.622H373.73H385.811V133.571H373.73H361.648V121.463V109.356H373.73H385.811V121.463H397.893V109.356V97.2484H385.811H373.73Z" fill="black"/>
<path d="M217.229 97.2484V109.356V121.463H205.204V109.356H193.122V97.2484H181.041H168.959V109.356V121.463V133.571V145.622V157.729V169.837V181.888H181.041H193.122V169.837V157.729V145.622V133.571H205.204V145.622H217.229V157.729V169.837V181.888H229.311H241.392V169.837V157.729V145.622V133.571V121.463V109.356V97.2484H229.311H217.229Z" fill="black"/>
<path d="M470.102 97.2484H458.021H445.939H433.858H421.832V109.356H409.75V121.463V133.571H421.832V145.622H433.858H445.939H458.021V157.729V169.837H445.939H433.858V157.729H421.832H409.75V169.837H421.832V181.888H433.858H445.939H458.021H470.102V169.837H482.128V157.729V145.622H470.102V133.571H458.021H445.939H433.858V121.463V109.356H445.939H458.021V121.463H470.102H482.128V109.356H470.102V97.2484Z" fill="black"/>
<path d="M132.994 97.2484V109.356V121.463V133.571V145.622V157.729V169.837H120.913H108.831V157.729V145.622V133.571V121.463V109.356V97.2484H96.7499H84.7244V109.356V121.463V133.571V145.622V157.729V169.837H96.7499V181.888H108.831H120.913H132.994H145.02V169.837H157.102V157.729V145.622V133.571V121.463V109.356V97.2484H145.02H132.994Z" fill="black"/>
<path d="M636.26 96.7281H624.178H612.097H600.015H587.934V108.836H575.852V120.943V133.05V145.102V157.209V169.316V181.424H587.934H600.015V169.316V157.209V145.102H612.097H624.178V157.209V169.316V181.424H636.26H648.341V169.316V157.209V145.102V132.994V120.887V108.779H636.26V96.7281ZM624.178 120.887V132.994H612.097H600.015V120.887V108.779H612.097H624.178V120.887Z" fill="black"/>
<path d="M720.718 96.7281H708.637H696.555H684.53H672.448V108.779H660.367V120.887V132.994V145.102V157.153V169.26H672.448V181.368H684.53H696.555H708.637H720.718H732.744V169.26V157.153V145.102H720.718H708.637H696.555V157.153H708.637V169.26H696.555H684.53V157.153V145.102V132.994V120.887V108.779H696.555H708.637V120.887H720.718H732.744V108.779H720.718V96.7281Z" fill="black"/>
<path d="M542.237 96.7281H530.155H518.074H505.992H493.967V108.779V120.887H505.992V108.779H518.074V120.887V132.994V145.102V157.153V169.26V181.368H530.155H542.237V169.26V157.153V145.102V132.994V120.887V108.779H554.262V120.887H566.344V108.779V96.7281H554.262H542.237Z" fill="black"/>
<path d="M756.907 96.7281H744.826V108.779V120.887V132.994V145.102V157.153H756.907H768.989V145.102V132.994V120.887V108.779V96.7281H756.907Z" fill="black"/>
<path d="M744.826 169.26V181.368H756.907H768.989V169.26H756.907H744.826Z" fill="black"/>
</svg>
