<svg xmlns="http://www.w3.org/2000/svg" viewBox="0 0 59 24" aria-hidden="true" class="LayoutPageSeparator_LayoutPageSeparator__nkg8z LayoutPageSeparator_isBone__AnrUH"><path d="M5.303 6.084c.551.648.957 1.383 1.334 2.12.145.293.232.647.203 1 0 .294-.058.588.029.882-.203.207-.058.56-.261.766-.203.264-.377.559-.609.824-.55.588-.957 1.353-1.74 1.736-.26.412-.724.647-1.072.971-.116.118.058.353-.145.5-.26.148-.464.354-.608.618-.145.265-.29.5-.435.766-.783 1.265-.812 1.294-1.044 2.53-.029.206-.087.383-.116.589a1.33 1.33 0 0 0 .03.588c.057.177.115.383.144.56.116.618.435 1.088.899 1.442.377.294.724.647 1.188.824.464.382 1.044.47 1.624.441h.724c.145 0 .29 0 .435-.059.493-.235 1.015-.353 1.507-.5.174-.059.377-.147.522-.236.522-.353 1.015-.735 1.537-1.118.29-.441.58-.883.811-1.383.116-.206.232-.412.377-.618.261-.353.493-.706.522-1.177.029-.206.116-.353.232-.53.348-.47.637-.97.811-1.53.03-.088.116-.206.174-.206.377-.03.522-.412.841-.53.667-.265.812-.353 1.652-.412.464-.03.957-.206 1.42-.088.725.177 1.421 0 2.146.118.435-.177.84-.03 1.275.059.522.117 1.044.176 1.566.323.347.089.666-.088 1.014-.03.522.09 1.044.266 1.566.09.347.058.666.087 1.014.146.348.06.667-.147 1.015-.059.145.03.29.06.434.06.145.029.29.058.435.029.29-.06.58-.03.87 0 .522.059 1.043.264 1.565.088.348.03.667.088 1.015.118.695-.206 1.333.03 2 .176.319.06.667.147.986.03.521.088 1.043 0 1.565 0 .377 0 .754.059 1.16.03.376-.03.753.146 1.13.205.232.03.493.118.725.059.405-.118.753 0 1.13.059.609.117 1.218.323 1.855.176.087-.03.203 0 .29 0 .522.06 1.044.265 1.566.089l1.565.353c.058 0 .087.059.116.088.232.206.493.294.782.353.232.06.464.147.638.324.29.265.609.47.899.736.319.294.638.588.84.97.29.501.638 1.001.986 1.443.522.647.986 1.324 1.797 1.648.116.059.232.176.348.265.377.294.783.588 1.247.676.232.06.434.177.637.295.348.206.696.294 1.102.176.145-.03.29-.03.435 0 .29.06.58.06.84-.059.174-.058.377-.117.551-.147.638-.117 1.16-.47 1.595-.912.173-.177.347-.324.521-.5 1.073-1.177 1.13-1.236 1.42-2.796.117-.618-.028-1.177-.29-1.707-.173-.353-.405-.677-.579-1.03-.145-.265-.232-.53-.406-.765-.174-.235-.435-.382-.666-.56-.406-.323-.87-.617-1.276-.94a1.791 1.791 0 0 0-1.044-.413c-.144-.03-.29.03-.434.06-.203.028-.348.234-.29.411.087.441.203.854.29 1.295.116.53.348 1 .753 1.383.29.265.551.56.812.854a.223.223 0 0 1 .058.117c0 .059 0 .088-.029.147-.029.089-.116.177-.203.147-.696-.264-1.217-.765-1.797-1.206-.32-.265-.551-.56-.667-.942-.203-.647-.348-1.324-.493-1.972-.029-.088.03-.206.087-.264.145-.206.261-.383.174-.648-.087-.235-.029-.47.116-.706.087-.177.29-.324.29-.47.058-.59.319-1.002.783-1.325.203-.147.319-.353.464-.56.202-.264.405-.558.637-.794.232-.235.522-.412.754-.677.232-.294.58-.5.812-.824.115-.147.29-.235.434-.353.145-.118.32-.206.493-.324.435-.323.754-.735.899-1.294.116-.56.26-1.148.377-1.707a.656.656 0 0 0-.058-.412c-.145-.295-.348-.589-.522-.883-.058-.118-.058-.324-.145-.412-.435-.324-.667-.824-1.13-1.118-.117-.06-.233-.206-.377-.236-.29-.059-.522-.206-.754-.412-.696-.559-.725-.559-1.536-.736a23.806 23.806 0 0 0-1.42-.235c-.146-.03-.29-.03-.436 0-1.043.177-2.058.441-3.014.942-.174.088-.377.176-.493.323-.32.412-.87.618-1.015 1.207l-.406.412c-.087.088-.26.177-.29.294-.086.412-.434.648-.58 1-.086.236-.231.442-.434.56-.435.265-.725.647-1.044 1-.087.118-.203.177-.348.236-.26.118-.55.206-.782.383-.319.264-.754.206-1.073.441-.203.147-.463.147-.695.206-.551.147-1.13.294-1.682.412-.319.059-.637.265-.985.118l-1.13.265h-.146c-.434-.118-.87.058-1.304.058-.435 0-.84.177-1.276.03-.434.088-.87.088-1.275 0-.609.206-1.247-.03-1.855.118-.435-.089-.87.088-1.305.029-.492-.059-.956.147-1.42.059-.29.088-.58.059-.87.03-.29-.03-.58-.089-.87-.06-.29.03-.58.03-.869.06-.348.029-.667.088-1.015.029-.434-.06-.84-.177-1.275-.03-.435-.176-.87.03-1.276 0-.58-.03-1.13-.206-1.71-.059-.116.03-.29-.029-.435-.058-.203-.03-.377-.089-.58-.06-.347.06-.666.03-1.014-.029-.58-.059-1.13-.294-1.71-.147-.087.03-.203 0-.29-.03-1.508-.323-3.044-.529-4.522-1-.232-.059-.464-.147-.696-.206-.232-.353-.667-.382-.957-.647-.405-.353-.84-.648-1.246-.971-.087-.06-.174-.118-.203-.206-.058-.5-.55-.648-.725-1.06a1.109 1.109 0 0 0-.347-.47c-.493-.413-.87-.913-1.276-1.384-.232-.235-.493-.47-.812-.618C6.956.905 6.463.787 6.028.463A8.165 8.165 0 0 0 4.202.051c-.899-.088-1.624.06-2.203.442-.377.206-.725.5-1.16.618a.63.63 0 0 0-.232.147c-.435.5-.695 1.03-.58 1.736.059.324.203.677.203 1 0 .354.087.678.29.972.32.53.638 1.089 1.073 1.56.493.53.956 1.118 1.594 1.442.087.03.174.088.232.176.464.618 1.073 1.119 1.478 1.795.087.177.232.324.348.471a.597.597 0 0 0 .261-.53c-.087-.588-.174-1.147-.203-1.736a2.603 2.603 0 0 0-.319-1.118c-.087-.118-.115-.265-.173-.383-.058-.088.029-.323.144-.382a1.92 1.92 0 0 1 .348-.177z"></path></svg>