<svg width="18" height="21" viewBox="0 0 18 21" fill="none" xmlns="http://www.w3.org/2000/svg">
<path fill-rule="evenodd" clip-rule="evenodd" d="M17.711 9.41875C16.8523 7.27667 14.2971 6.25407 11.4419 6.65235L10.7799 5.79121C11.4523 4.6502 11.6488 3.39078 11.204 2.30359C10.304 0.0753958 7.12808 -0.667336 4.097 0.656665C1.06592 1.9699 -0.661685 4.84395 0.238327 7.07215C0.84868 8.57914 2.49353 9.39723 4.43839 9.36493L4.94529 10.5059C3.84872 12.056 3.4763 13.8321 4.08666 15.3498C5.15219 17.9871 8.79362 18.9343 12.3937 17.5996L16.5 21L15.2282 15.9849C17.4834 14.155 18.5593 11.5501 17.711 9.41875Z" fill="black"/>
</svg>
