<?xml version="1.0" encoding="UTF-8"?>
<svg id="Layer_2" data-name="Layer 2" xmlns="http://www.w3.org/2000/svg" viewBox="0 0 424 441.05">
  <defs>
    <style>
      .cls-1 {
        fill: #000;
      }

      .cls-1, .cls-2 {
        stroke-width: 0px;
      }

      .cls-2 {
        fill: #fff;
      }
    </style>
  </defs>
  <g id="Layer_1-2" data-name="Layer 1">
    <g>
      <polygon class="cls-2" points="424 0 0 0 0 400 185.16 400 212.02 441.05 238.64 400 424 400 424 0"/>
      <g>
        <g>
          <path class="cls-1" d="M36.65,66.02c-.8-5.1-2-13.65-2.75-19.55s-1.7-12.25-1.8-13.25c3,.05,5.95-.1,6.7-.1.3,2.85.8,6.2,1.2,10,.5,4.35.8,7.25,1.25,10.1.3-1.5,1.2-7.5,1.75-11.1.55-3.55,1.2-7.6,1.35-8.8,2.5.05,5.45-.05,6.25,0-.6,4.5-2.15,13.45-2.75,17.65-.6,4.25-2,13.45-2.25,15.1-1.6.05-7.6,0-8.95-.05Z"/>
          <path class="cls-1" d="M52.2,60.57c-.9-4.85-.4-13.2-.2-19.4.25-6.15,3.35-8.1,7.65-8.2,4.35-.1,6.5,2,6.9,7.75.35,5.25.45,14.4-.55,20.6-.55,3.45-3.2,4.65-6.5,4.8-3.3.1-6.45-.85-7.3-5.55ZM59.4,57.52c.7,0,1.2-.35,1.3-1.3.35-3.9.3-8.3.25-13.75,0-1.1-.4-2.15-1.35-2.15-.95-.05-1.4,1-1.4,1.85-.15,4.5-.25,10.25-.05,13.8.05,1,.55,1.55,1.25,1.55Z"/>
          <path class="cls-1" d="M69.85,66.07c-.1-2.6-.2-4.85-.25-8.4s-.15-23.1-.1-24.1c1.6-.05,5.3,0,7,0,.05,7.7.05,19.8.1,25.25h6.3v7.45c-5.25-.15-11.7-.15-13.05-.2Z"/>
          <path class="cls-1" d="M85.15,60.32c-.85-4.55-.5-17.9-.5-27h6.45c-.15,4.55,0,18.8.2,22.25.05,1.05.55,1.6,1.3,1.6.7,0,1.25-.4,1.3-1.35.35-3.95.25-17.1.2-22.5h5.9c.25,5.6.65,22.55-.5,28-.75,3.55-3.4,4.65-6.8,4.8-3.4.1-6.7-.95-7.55-5.8Z"/>
          <path class="cls-1" d="M103.4,48.67c-.05-5.05.35-13.8.25-15.2,1.9-.2,5.25-.05,6.95,0,1.4,3.7,4.6,13.4,5.25,15,1.4-3.85,4.1-13.9,4.3-15.05,2.05-.1,6.15.05,6.95.1.15,5.1.35,31.15.25,32.55-1.95.15-5.05.1-6.3.15,0-3.15-.2-12-.2-13.45-1.15,4.9-2.4,12.4-2.7,13.35-1.7.2-4.1-.05-4.95,0-.95-4.2-2.8-11.3-3.3-13.35-.2,3.85-.15,12.65-.2,13.25-1.55,0-4.35.15-6.35.2-.35-4.55.1-12.5.05-17.55Z"/>
          <path class="cls-1" d="M130.35,47.22c.1-6-.1-11.95-.05-13.85,2-.05,11.95-.05,13.05,0,.05,2.2.15,5.15.05,6.2-2,0-5.65.1-6.8.1-.05,1.6.1,5.2.1,5.9,1.7-.05,3.2,0,3.75,0,0,2.1.05,5.3.05,5.95-1.35.15-3.4.15-3.9.15,0,2.35.05,6.65.05,7.75,2.25.05,5.95,0,6.95-.05.25,1.85.15,5.65.2,6.5-1.85.1-12,.2-13.45.25,0-5.3-.15-12.9,0-18.9Z"/>
          <path class="cls-1" d="M152.25,58.52c-.35-5.25-.45-14.4.55-20.6.55-3.45,3.2-4.45,6.5-4.5,4.6-.05,6.45.55,7.3,5.25.85,4.85.4,13.2.2,19.45-.25,6.15-1.75,8.1-6.95,8.2-5.7.1-7.2-2.05-7.6-7.8ZM159.5,58.52c.95.05,1.4-1.05,1.45-1.85.1-4.55.2-10.3,0-13.85,0-1-.55-1.55-1.25-1.55-.65,0-1.2.35-1.25,1.3-.35,3.95-.35,8.35-.3,13.8,0,1.05.4,2.1,1.35,2.15Z"/>
          <path class="cls-1" d="M169.8,45.32c.1-4.5.2-10.25.2-11.75,3.2-.1,11.85-.1,12.6-.05-.05,1.3-.05,5.55-.05,6.3-1.65.05-5.55.1-6.15.1-.1,2.05,0,5.85.05,6.6,1.7,0,3.85.05,4.45.05.1,1.4.1,5.5.1,6.2-1.65.1-4.2.15-4.65.2-.05,2.3-.15,9.05,0,13-2.4.25-5.25.1-6.5.1.15-6.65-.1-16.3-.05-20.75Z"/>
          <path class="cls-1" d="M191.05,52.12c-.1-6-.1-11.3-.15-18.8,1.45.05,11.35-.1,13.2,0,.05,1.55.1,3.75.1,6.15-1-.05-4.55-.05-6.85,0,0,1.15-.05,4.6-.05,6.95.5,0,2.65,0,4,.1.05.7-.05,4.35-.05,6.45h-3.85c0,.7,0,11.5.05,13.1-2.2-.1-3.75-.1-6.3,0-.05-1.85.05-7.95-.1-13.95Z"/>
          <path class="cls-1" d="M206.3,46.62c0-4.65.1-11.85.1-13.05,1.65-.1,5.2-.05,6.6,0,.2,3.85-.05,14.9-.05,19.5s.15,11.65.15,13c-2.05,0-4.95.1-6.9.05,0-6.8.1-14.85.1-19.5Z"/>
          <path class="cls-1" d="M227.3,66.17c-1.8-5.3-3.6-8.9-5.1-12.65,0,3.7.05,7.85.05,12.65-2.35,0-5.45.05-6.2,0,.1-6.05-.1-10.95,0-17.2.05-5.7-.05-14.2-.05-15.5,2-.05,4.55,0,5.55,0,1.8,4.4,3.6,8.55,5.25,11.9-.05-3-.25-10.5-.15-11.8,2.05,0,4.4.05,6,.05.1,4.25,0,12.3,0,17.45s-.05,13.95-.05,15.2c-2.2,0-4.15-.05-5.3-.1Z"/>
          <path class="cls-1" d="M235.75,46.47c0-4.55-.2-11.65-.15-13,2.05,0,4.95-.1,6.9-.05,0,6.85-.1,14.85-.1,19.5s-.15,11.85-.15,13.05c-1.6.1-5.2.1-6.6,0-.15-3.8.1-14.9.1-19.5Z"/>
          <path class="cls-1" d="M244.75,55.17c1.3,0,4.9.05,5.45.1,0,2.75-.1,4.6,1.75,4.55,1.75-.05,1.55-1.95,1.55-2.9,0-5.45-9.05-6.9-8.9-16.3.1-5.7,2.4-7.75,7.8-7.75,6.2,0,6.95,3.3,7.1,9.6-1.05-.05-4.6.05-5.25-.05.1-2.2-.15-3.5-1.6-3.5-1.3.05-1.45,1.2-1.5,2.55-.1,3.9,8.65,6,8.55,15.75-.1,6.85-2.5,9-6.8,9-6.8,0-8.15-1.7-8.15-11.05Z"/>
          <path class="cls-1" d="M261.65,66.02c.1-4.35,0-7.9,0-17.65,0-5.7.2-13.8.2-15.1,2.05-.05,5.1.05,6.1.05-.1,2.35-.05,11.35-.05,12.2,1.15.05,3.55.1,4.25.05.15-3.85-.05-10.9.05-12.2,2.1,0,4.75-.05,5.9.05.1,4.3.15,12.35.15,17.5s-.15,13.8-.15,15.05c-2.4.05-4.8.05-5.95,0-.1-3.45-.1-11.65-.05-13-.8,0-3.05-.05-4,0-.05,3.3-.1,10.6-.2,13.15-2.35,0-5.5-.05-6.25-.1Z"/>
          <path class="cls-1" d="M281.35,65.97c-.05-1.85.05-7.85-.1-13.85-.1-6-.05-11.3-.1-18.8,1.4.05,11.3-.1,13.15,0,.1,1.55.1,3.75.1,6.15-1-.05-4.4-.05-6.7,0,0,1.15-.1,4.05-.1,6.4.55,0,2.55,0,3.9.1.05.7-.05,3.9-.05,5.95-.5,0-2,.05-3.7,0,0,.75,0,6.4.05,7.95,1.15,0,4.55,0,6.55-.05.05,1.05.1,4,.05,6.2-1.1.05-11.05.05-13.05-.05Z"/>
          <path class="cls-1" d="M296.75,66.17c.1-5.7-.05-13.1,0-16.35.1-3.3-.25-14.4-.25-16.25,2,.05,3.95-.05,5.5,0,7.7.2,9,4.45,9.05,11.2.05,6.8.05,8.35.05,12,.05,6.25-1.45,9.4-7.45,9.45-2.25.05-5.65-.05-6.9-.05ZM305.3,56.92c0-4.3.05-10.65-.1-13.85-.05-1.75-1.15-2.4-2.9-2.35-.1,6.5-.1,15.05,0,18.25,1.7,0,3-.6,3-2.05Z"/>
          <path class="cls-1" d="M33.15,87.62c.05-12.1,2.65-16,8.4-16.1,5.75-.1,6.55,3.4,6.55,11.55-1.3-.05-4.75-.05-5.45-.05-.05-1.45.2-4.15-1.55-4.05-1.7.05-1.75,1.7-1.85,8.75-.1,8.7.55,9.65,2.05,9.65,1.4,0,1.55-2.3,1.5-5.8,0,0-1-.05-1.65-.05,0-.5-.1-3.6,0-5.05,2.5-.05,4.35,0,7.15-.05.45,11.65-.85,18.15-6.8,18.2-6.35.05-8.4-2.65-8.35-17Z"/>
          <path class="cls-1" d="M51.3,99.07c-.9-4.85-.4-13.2-.2-19.4.25-6.15,3.35-8.1,7.65-8.2,4.35-.1,6.5,2,6.9,7.75.35,5.25.45,14.4-.55,20.6-.55,3.45-3.2,4.65-6.5,4.8-3.3.1-6.45-.85-7.3-5.55ZM58.5,96.02c.7,0,1.2-.35,1.3-1.3.35-3.9.3-8.3.25-13.75,0-1.1-.4-2.15-1.35-2.15-.95-.05-1.4,1-1.4,1.85-.15,4.5-.25,10.25-.05,13.8.05,1,.55,1.55,1.25,1.55Z"/>
          <path class="cls-1" d="M68.65,97.02c-.35-5.25-.45-14.4.55-20.6.55-3.45,3.2-4.45,6.5-4.5,4.6-.05,6.45.55,7.3,5.25.85,4.85.4,13.2.2,19.45-.25,6.15-1.75,8.1-6.95,8.2-5.7.1-7.2-2.05-7.6-7.8ZM75.9,97.02c.95.05,1.4-1.05,1.45-1.85.1-4.55.2-10.3,0-13.85,0-1-.55-1.55-1.25-1.55-.65,0-1.2.35-1.25,1.3-.35,3.95-.35,8.35-.3,13.8,0,1.05.4,2.1,1.35,2.15Z"/>
          <path class="cls-1" d="M86.45,104.67c.1-5.7-.05-13.1,0-16.35.1-3.3-.25-14.4-.25-16.25,2,.05,3.95-.05,5.5,0,7.7.2,9,4.45,9.05,11.2.05,6.8.05,8.35.05,12,.05,6.25-1.45,9.4-7.45,9.45-2.25.05-5.65-.05-6.9-.05ZM95,95.42c0-4.3.05-10.65-.1-13.85-.05-1.75-1.15-2.4-2.9-2.35-.1,6.5-.1,15.05,0,18.25,1.7,0,3-.6,3-2.05Z"/>
          <path class="cls-1" d="M102.85,93.67c1.3,0,4.9.05,5.45.1,0,2.75-.1,4.6,1.75,4.55,1.75-.05,1.55-1.95,1.55-2.9,0-5.45-9.05-6.9-8.9-16.3.1-5.7,2.4-7.75,7.8-7.75,6.2,0,6.95,3.3,7.1,9.6-1.05-.05-4.6.05-5.25-.05.1-2.2-.15-3.5-1.6-3.5-1.3.05-1.45,1.2-1.5,2.55-.1,3.9,8.65,6,8.55,15.75-.1,6.85-2.5,9-6.8,9-6.8,0-8.15-1.7-8.15-11.05Z"/>
          <path class="cls-1" d="M126.2,88.07c.05-3.3-.15-14.4-.15-16.25h7.4c5.4.05,7.3,4.4,7.35,11.2s-2.5,9.8-8.25,10.2c0,4.15-.05,9-.05,11.4h-6.35c.05-5.7-.05-13.3.05-16.55ZM132.6,86.67c2.15-.05,2.45-1.45,2.55-4.25.1-2.85-.9-3.85-2.6-3.8,0,1.25-.05,4.9.05,8.05Z"/>
          <path class="cls-1" d="M143.15,104.57c.05-5.7-.05-13.3,0-16.6.05-3.3-.1-14.4-.1-16.25,2,.05,4.2,0,7.25,0,5.4.1,7.3,4.45,7.4,11.25.05,6.8-2.05,8-3.25,9.3,1.45,4,4.05,10.9,4.45,12.35-2.45-.05-5.75-.05-6.55,0-1.1-2.95-2.3-7.2-3.05-8.75.1,2.8.05,6.35.05,8.75-1.75.05-4.95-.05-6.2-.05ZM149.5,86.57c1.95-.1,2.4-1.45,2.55-4.25.1-2.85-.65-3.85-2.6-3.8,0,1.25-.05,4.9.05,8.05Z"/>
          <path class="cls-1" d="M160.5,99.07c-.9-4.85-.4-13.2-.2-19.4.25-6.15,3.35-8.1,7.65-8.2,4.35-.1,6.5,2,6.9,7.75.35,5.25.45,14.4-.55,20.6-.55,3.45-3.2,4.65-6.5,4.8-3.3.1-6.45-.85-7.3-5.55ZM167.7,96.02c.7,0,1.2-.35,1.3-1.3.35-3.9.3-8.3.25-13.75,0-1.1-.4-2.15-1.35-2.15-.95-.05-1.4,1-1.4,1.85-.15,4.5-.25,10.25-.05,13.8.05,1,.55,1.55,1.25,1.55Z"/>
          <path class="cls-1" d="M178.1,104.72c.05-5.7-.1-13.1,0-16.35.05-3.3-.3-14.4-.3-16.25,2,.05,3.95-.05,5.5,0,7.75.2,9,4.4,9.05,11.2.05,6.8.05,8.35.1,12,.05,6.25-1.5,9.4-7.5,9.45-2.25,0-5.65-.05-6.85-.05ZM186.6,95.47c0-4.3.05-10.65-.1-13.85-.05-1.75-1.15-2.4-2.85-2.35-.15,6.5-.15,15.05,0,18.25,1.65,0,2.95-.65,2.95-2.05Z"/>
          <path class="cls-1" d="M195.7,98.82c-.85-4.55-.5-17.9-.5-27h6.45c-.15,4.55,0,18.8.2,22.25.05,1.05.55,1.6,1.3,1.6.7,0,1.25-.4,1.3-1.35.35-3.95.25-17.1.2-22.5h5.9c.25,5.6.65,22.55-.5,28-.75,3.55-3.4,4.65-6.8,4.8-3.4.1-6.7-.95-7.55-5.8Z"/>
          <path class="cls-1" d="M213.55,87.57c-.05-13.9,2.65-15.95,8.4-16.05,5.75-.1,6.5,3.4,6.5,11.55-1.25-.05-4.45.05-5.15.05-.05-1.45-.05-4.25-1.8-4.15-1.7.05-1.75,1.7-1.85,8.75-.1,8.7.65,10.1,2.1,10.1s1.85-3.25,1.7-5.7c1.4-.1,3.75-.05,4.9,0,.85,7.45-.3,12.45-6.45,12.5-6.35.05-8.25-2.05-8.35-17.05Z"/>
          <path class="cls-1" d="M231,85.72c.1-6-.1-11.95-.05-13.85,2-.05,11.95-.05,13.05,0,.05,2.2.15,5.15.05,6.2-2,0-5.65.1-6.8.1-.05,1.6.1,5.2.1,5.9,1.7-.05,3.2,0,3.75,0,0,2.1.05,5.3.05,5.95-1.35.15-3.4.15-3.9.15,0,2.35.05,6.65.05,7.75,2.25.05,5.95,0,6.95-.05.25,1.85.15,5.65.2,6.5-1.85.1-12,.2-13.45.25,0-5.3-.15-12.9,0-18.9Z"/>
          <path class="cls-1" d="M246.8,104.67c.1-5.7-.05-13.1,0-16.35.1-3.3-.25-14.4-.25-16.25,2,.05,3.95-.05,5.5,0,7.7.2,9,4.45,9.05,11.2.05,6.8.05,8.35.05,12,.05,6.25-1.45,9.4-7.45,9.45-2.25.05-5.65-.05-6.9-.05ZM255.35,95.42c0-4.3.05-10.65-.1-13.85-.05-1.75-1.15-2.4-2.9-2.35-.1,6.5-.1,15.05,0,18.25,1.7,0,3-.6,3-2.05Z"/>
          <path class="cls-1" d="M269.5,89.22c-.5-9.25,3.5-17,7.15-21.5,1.55,1.05,3.05,1.85,4.25,2.8-2.7,3-6.3,9.05-6.55,17.3-.3,8.1,3.9,14.65,6.75,17.95-1.2,1.15-2.6,2.4-3.5,3.35-2.9-3.3-7.6-10.25-8.1-19.9Z"/>
          <path class="cls-1" d="M282.05,104.57c-.1-2.6-.2-4.85-.25-8.4s-.15-23.1-.1-24.1c1.6-.05,5.3,0,7,0,.05,7.7.05,19.8.1,25.25h6.3v7.45c-5.25-.15-11.7-.15-13.05-.2Z"/>
          <path class="cls-1" d="M295.5,105.77c2.8-3.3,7.05-9.85,6.75-17.95-.3-8.25-3.9-14.3-6.55-17.3,1.2-.95,2.65-1.75,4.2-2.8,3.7,4.5,7.65,12.25,7.2,21.5-.5,9.65-5.2,16.6-8.15,19.9-.9-.95-2.25-2.2-3.45-3.35Z"/>
        </g>
        <g>
          <path class="cls-1" d="M36.65,66.02c-.8-5.1-2-13.65-2.75-19.55s-1.7-12.25-1.8-13.25c3,.05,5.95-.1,6.7-.1.3,2.85.8,6.2,1.2,10,.5,4.35.8,7.25,1.25,10.1.3-1.5,1.2-7.5,1.75-11.1.55-3.55,1.2-7.6,1.35-8.8,2.5.05,5.45-.05,6.25,0-.6,4.5-2.15,13.45-2.75,17.65-.6,4.25-2,13.45-2.25,15.1-1.6.05-7.6,0-8.95-.05Z"/>
          <path class="cls-1" d="M52.2,60.57c-.9-4.85-.4-13.2-.2-19.4.25-6.15,3.35-8.1,7.65-8.2,4.35-.1,6.5,2,6.9,7.75.35,5.25.45,14.4-.55,20.6-.55,3.45-3.2,4.65-6.5,4.8-3.3.1-6.45-.85-7.3-5.55ZM59.4,57.52c.7,0,1.2-.35,1.3-1.3.35-3.9.3-8.3.25-13.75,0-1.1-.4-2.15-1.35-2.15-.95-.05-1.4,1-1.4,1.85-.15,4.5-.25,10.25-.05,13.8.05,1,.55,1.55,1.25,1.55Z"/>
          <path class="cls-1" d="M69.85,66.07c-.1-2.6-.2-4.85-.25-8.4s-.15-23.1-.1-24.1c1.6-.05,5.3,0,7,0,.05,7.7.05,19.8.1,25.25h6.3v7.45c-5.25-.15-11.7-.15-13.05-.2Z"/>
          <path class="cls-1" d="M85.15,60.32c-.85-4.55-.5-17.9-.5-27h6.45c-.15,4.55,0,18.8.2,22.25.05,1.05.55,1.6,1.3,1.6.7,0,1.25-.4,1.3-1.35.35-3.95.25-17.1.2-22.5h5.9c.25,5.6.65,22.55-.5,28-.75,3.55-3.4,4.65-6.8,4.8-3.4.1-6.7-.95-7.55-5.8Z"/>
          <path class="cls-1" d="M103.4,48.67c-.05-5.05.35-13.8.25-15.2,1.9-.2,5.25-.05,6.95,0,1.4,3.7,4.6,13.4,5.25,15,1.4-3.85,4.1-13.9,4.3-15.05,2.05-.1,6.15.05,6.95.1.15,5.1.35,31.15.25,32.55-1.95.15-5.05.1-6.3.15,0-3.15-.2-12-.2-13.45-1.15,4.9-2.4,12.4-2.7,13.35-1.7.2-4.1-.05-4.95,0-.95-4.2-2.8-11.3-3.3-13.35-.2,3.85-.15,12.65-.2,13.25-1.55,0-4.35.15-6.35.2-.35-4.55.1-12.5.05-17.55Z"/>
          <path class="cls-1" d="M130.35,47.22c.1-6-.1-11.95-.05-13.85,2-.05,11.95-.05,13.05,0,.05,2.2.15,5.15.05,6.2-2,0-5.65.1-6.8.1-.05,1.6.1,5.2.1,5.9,1.7-.05,3.2,0,3.75,0,0,2.1.05,5.3.05,5.95-1.35.15-3.4.15-3.9.15,0,2.35.05,6.65.05,7.75,2.25.05,5.95,0,6.95-.05.25,1.85.15,5.65.2,6.5-1.85.1-12,.2-13.45.25,0-5.3-.15-12.9,0-18.9Z"/>
          <path class="cls-1" d="M152.25,58.52c-.35-5.25-.45-14.4.55-20.6.55-3.45,3.2-4.45,6.5-4.5,4.6-.05,6.45.55,7.3,5.25.85,4.85.4,13.2.2,19.45-.25,6.15-1.75,8.1-6.95,8.2-5.7.1-7.2-2.05-7.6-7.8ZM159.5,58.52c.95.05,1.4-1.05,1.45-1.85.1-4.55.2-10.3,0-13.85,0-1-.55-1.55-1.25-1.55-.65,0-1.2.35-1.25,1.3-.35,3.95-.35,8.35-.3,13.8,0,1.05.4,2.1,1.35,2.15Z"/>
          <path class="cls-1" d="M169.8,45.32c.1-4.5.2-10.25.2-11.75,3.2-.1,11.85-.1,12.6-.05-.05,1.3-.05,5.55-.05,6.3-1.65.05-5.55.1-6.15.1-.1,2.05,0,5.85.05,6.6,1.7,0,3.85.05,4.45.05.1,1.4.1,5.5.1,6.2-1.65.1-4.2.15-4.65.2-.05,2.3-.15,9.05,0,13-2.4.25-5.25.1-6.5.1.15-6.65-.1-16.3-.05-20.75Z"/>
          <path class="cls-1" d="M191.05,52.12c-.1-6-.1-11.3-.15-18.8,1.45.05,11.35-.1,13.2,0,.05,1.55.1,3.75.1,6.15-1-.05-4.55-.05-6.85,0,0,1.15-.05,4.6-.05,6.95.5,0,2.65,0,4,.1.05.7-.05,4.35-.05,6.45h-3.85c0,.7,0,11.5.05,13.1-2.2-.1-3.75-.1-6.3,0-.05-1.85.05-7.95-.1-13.95Z"/>
          <path class="cls-1" d="M206.3,46.62c0-4.65.1-11.85.1-13.05,1.65-.1,5.2-.05,6.6,0,.2,3.85-.05,14.9-.05,19.5s.15,11.65.15,13c-2.05,0-4.95.1-6.9.05,0-6.8.1-14.85.1-19.5Z"/>
          <path class="cls-1" d="M227.3,66.17c-1.8-5.3-3.6-8.9-5.1-12.65,0,3.7.05,7.85.05,12.65-2.35,0-5.45.05-6.2,0,.1-6.05-.1-10.95,0-17.2.05-5.7-.05-14.2-.05-15.5,2-.05,4.55,0,5.55,0,1.8,4.4,3.6,8.55,5.25,11.9-.05-3-.25-10.5-.15-11.8,2.05,0,4.4.05,6,.05.1,4.25,0,12.3,0,17.45s-.05,13.95-.05,15.2c-2.2,0-4.15-.05-5.3-.1Z"/>
          <path class="cls-1" d="M235.75,46.47c0-4.55-.2-11.65-.15-13,2.05,0,4.95-.1,6.9-.05,0,6.85-.1,14.85-.1,19.5s-.15,11.85-.15,13.05c-1.6.1-5.2.1-6.6,0-.15-3.8.1-14.9.1-19.5Z"/>
          <path class="cls-1" d="M244.75,55.17c1.3,0,4.9.05,5.45.1,0,2.75-.1,4.6,1.75,4.55,1.75-.05,1.55-1.95,1.55-2.9,0-5.45-9.05-6.9-8.9-16.3.1-5.7,2.4-7.75,7.8-7.75,6.2,0,6.95,3.3,7.1,9.6-1.05-.05-4.6.05-5.25-.05.1-2.2-.15-3.5-1.6-3.5-1.3.05-1.45,1.2-1.5,2.55-.1,3.9,8.65,6,8.55,15.75-.1,6.85-2.5,9-6.8,9-6.8,0-8.15-1.7-8.15-11.05Z"/>
          <path class="cls-1" d="M261.65,66.02c.1-4.35,0-7.9,0-17.65,0-5.7.2-13.8.2-15.1,2.05-.05,5.1.05,6.1.05-.1,2.35-.05,11.35-.05,12.2,1.15.05,3.55.1,4.25.05.15-3.85-.05-10.9.05-12.2,2.1,0,4.75-.05,5.9.05.1,4.3.15,12.35.15,17.5s-.15,13.8-.15,15.05c-2.4.05-4.8.05-5.95,0-.1-3.45-.1-11.65-.05-13-.8,0-3.05-.05-4,0-.05,3.3-.1,10.6-.2,13.15-2.35,0-5.5-.05-6.25-.1Z"/>
          <path class="cls-1" d="M281.35,65.97c-.05-1.85.05-7.85-.1-13.85-.1-6-.05-11.3-.1-18.8,1.4.05,11.3-.1,13.15,0,.1,1.55.1,3.75.1,6.15-1-.05-4.4-.05-6.7,0,0,1.15-.1,4.05-.1,6.4.55,0,2.55,0,3.9.1.05.7-.05,3.9-.05,5.95-.5,0-2,.05-3.7,0,0,.75,0,6.4.05,7.95,1.15,0,4.55,0,6.55-.05.05,1.05.1,4,.05,6.2-1.1.05-11.05.05-13.05-.05Z"/>
          <path class="cls-1" d="M296.75,66.17c.1-5.7-.05-13.1,0-16.35.1-3.3-.25-14.4-.25-16.25,2,.05,3.95-.05,5.5,0,7.7.2,9,4.45,9.05,11.2.05,6.8.05,8.35.05,12,.05,6.25-1.45,9.4-7.45,9.45-2.25.05-5.65-.05-6.9-.05ZM305.3,56.92c0-4.3.05-10.65-.1-13.85-.05-1.75-1.15-2.4-2.9-2.35-.1,6.5-.1,15.05,0,18.25,1.7,0,3-.6,3-2.05Z"/>
          <path class="cls-1" d="M33.15,87.62c.05-12.1,2.65-16,8.4-16.1,5.75-.1,6.55,3.4,6.55,11.55-1.3-.05-4.75-.05-5.45-.05-.05-1.45.2-4.15-1.55-4.05-1.7.05-1.75,1.7-1.85,8.75-.1,8.7.55,9.65,2.05,9.65,1.4,0,1.55-2.3,1.5-5.8,0,0-1-.05-1.65-.05,0-.5-.1-3.6,0-5.05,2.5-.05,4.35,0,7.15-.05.45,11.65-.85,18.15-6.8,18.2-6.35.05-8.4-2.65-8.35-17Z"/>
          <path class="cls-1" d="M51.3,99.07c-.9-4.85-.4-13.2-.2-19.4.25-6.15,3.35-8.1,7.65-8.2,4.35-.1,6.5,2,6.9,7.75.35,5.25.45,14.4-.55,20.6-.55,3.45-3.2,4.65-6.5,4.8-3.3.1-6.45-.85-7.3-5.55ZM58.5,96.02c.7,0,1.2-.35,1.3-1.3.35-3.9.3-8.3.25-13.75,0-1.1-.4-2.15-1.35-2.15-.95-.05-1.4,1-1.4,1.85-.15,4.5-.25,10.25-.05,13.8.05,1,.55,1.55,1.25,1.55Z"/>
          <path class="cls-1" d="M68.65,97.02c-.35-5.25-.45-14.4.55-20.6.55-3.45,3.2-4.45,6.5-4.5,4.6-.05,6.45.55,7.3,5.25.85,4.85.4,13.2.2,19.45-.25,6.15-1.75,8.1-6.95,8.2-5.7.1-7.2-2.05-7.6-7.8ZM75.9,97.02c.95.05,1.4-1.05,1.45-1.85.1-4.55.2-10.3,0-13.85,0-1-.55-1.55-1.25-1.55-.65,0-1.2.35-1.25,1.3-.35,3.95-.35,8.35-.3,13.8,0,1.05.4,2.1,1.35,2.15Z"/>
          <path class="cls-1" d="M86.45,104.67c.1-5.7-.05-13.1,0-16.35.1-3.3-.25-14.4-.25-16.25,2,.05,3.95-.05,5.5,0,7.7.2,9,4.45,9.05,11.2.05,6.8.05,8.35.05,12,.05,6.25-1.45,9.4-7.45,9.45-2.25.05-5.65-.05-6.9-.05ZM95,95.42c0-4.3.05-10.65-.1-13.85-.05-1.75-1.15-2.4-2.9-2.35-.1,6.5-.1,15.05,0,18.25,1.7,0,3-.6,3-2.05Z"/>
          <path class="cls-1" d="M102.85,93.67c1.3,0,4.9.05,5.45.1,0,2.75-.1,4.6,1.75,4.55,1.75-.05,1.55-1.95,1.55-2.9,0-5.45-9.05-6.9-8.9-16.3.1-5.7,2.4-7.75,7.8-7.75,6.2,0,6.95,3.3,7.1,9.6-1.05-.05-4.6.05-5.25-.05.1-2.2-.15-3.5-1.6-3.5-1.3.05-1.45,1.2-1.5,2.55-.1,3.9,8.65,6,8.55,15.75-.1,6.85-2.5,9-6.8,9-6.8,0-8.15-1.7-8.15-11.05Z"/>
          <path class="cls-1" d="M126.2,88.07c.05-3.3-.15-14.4-.15-16.25h7.4c5.4.05,7.3,4.4,7.35,11.2s-2.5,9.8-8.25,10.2c0,4.15-.05,9-.05,11.4h-6.35c.05-5.7-.05-13.3.05-16.55ZM132.6,86.67c2.15-.05,2.45-1.45,2.55-4.25.1-2.85-.9-3.85-2.6-3.8,0,1.25-.05,4.9.05,8.05Z"/>
          <path class="cls-1" d="M143.15,104.57c.05-5.7-.05-13.3,0-16.6.05-3.3-.1-14.4-.1-16.25,2,.05,4.2,0,7.25,0,5.4.1,7.3,4.45,7.4,11.25.05,6.8-2.05,8-3.25,9.3,1.45,4,4.05,10.9,4.45,12.35-2.45-.05-5.75-.05-6.55,0-1.1-2.95-2.3-7.2-3.05-8.75.1,2.8.05,6.35.05,8.75-1.75.05-4.95-.05-6.2-.05ZM149.5,86.57c1.95-.1,2.4-1.45,2.55-4.25.1-2.85-.65-3.85-2.6-3.8,0,1.25-.05,4.9.05,8.05Z"/>
          <path class="cls-1" d="M160.5,99.07c-.9-4.85-.4-13.2-.2-19.4.25-6.15,3.35-8.1,7.65-8.2,4.35-.1,6.5,2,6.9,7.75.35,5.25.45,14.4-.55,20.6-.55,3.45-3.2,4.65-6.5,4.8-3.3.1-6.45-.85-7.3-5.55ZM167.7,96.02c.7,0,1.2-.35,1.3-1.3.35-3.9.3-8.3.25-13.75,0-1.1-.4-2.15-1.35-2.15-.95-.05-1.4,1-1.4,1.85-.15,4.5-.25,10.25-.05,13.8.05,1,.55,1.55,1.25,1.55Z"/>
          <path class="cls-1" d="M178.1,104.72c.05-5.7-.1-13.1,0-16.35.05-3.3-.3-14.4-.3-16.25,2,.05,3.95-.05,5.5,0,7.75.2,9,4.4,9.05,11.2.05,6.8.05,8.35.1,12,.05,6.25-1.5,9.4-7.5,9.45-2.25,0-5.65-.05-6.85-.05ZM186.6,95.47c0-4.3.05-10.65-.1-13.85-.05-1.75-1.15-2.4-2.85-2.35-.15,6.5-.15,15.05,0,18.25,1.65,0,2.95-.65,2.95-2.05Z"/>
          <path class="cls-1" d="M195.7,98.82c-.85-4.55-.5-17.9-.5-27h6.45c-.15,4.55,0,18.8.2,22.25.05,1.05.55,1.6,1.3,1.6.7,0,1.25-.4,1.3-1.35.35-3.95.25-17.1.2-22.5h5.9c.25,5.6.65,22.55-.5,28-.75,3.55-3.4,4.65-6.8,4.8-3.4.1-6.7-.95-7.55-5.8Z"/>
          <path class="cls-1" d="M213.55,87.57c-.05-13.9,2.65-15.95,8.4-16.05,5.75-.1,6.5,3.4,6.5,11.55-1.25-.05-4.45.05-5.15.05-.05-1.45-.05-4.25-1.8-4.15-1.7.05-1.75,1.7-1.85,8.75-.1,8.7.65,10.1,2.1,10.1s1.85-3.25,1.7-5.7c1.4-.1,3.75-.05,4.9,0,.85,7.45-.3,12.45-6.45,12.5-6.35.05-8.25-2.05-8.35-17.05Z"/>
          <path class="cls-1" d="M231,85.72c.1-6-.1-11.95-.05-13.85,2-.05,11.95-.05,13.05,0,.05,2.2.15,5.15.05,6.2-2,0-5.65.1-6.8.1-.05,1.6.1,5.2.1,5.9,1.7-.05,3.2,0,3.75,0,0,2.1.05,5.3.05,5.95-1.35.15-3.4.15-3.9.15,0,2.35.05,6.65.05,7.75,2.25.05,5.95,0,6.95-.05.25,1.85.15,5.65.2,6.5-1.85.1-12,.2-13.45.25,0-5.3-.15-12.9,0-18.9Z"/>
          <path class="cls-1" d="M246.8,104.67c.1-5.7-.05-13.1,0-16.35.1-3.3-.25-14.4-.25-16.25,2,.05,3.95-.05,5.5,0,7.7.2,9,4.45,9.05,11.2.05,6.8.05,8.35.05,12,.05,6.25-1.45,9.4-7.45,9.45-2.25.05-5.65-.05-6.9-.05ZM255.35,95.42c0-4.3.05-10.65-.1-13.85-.05-1.75-1.15-2.4-2.9-2.35-.1,6.5-.1,15.05,0,18.25,1.7,0,3-.6,3-2.05Z"/>
          <path class="cls-1" d="M269.5,89.22c-.5-9.25,3.5-17,7.15-21.5,1.55,1.05,3.05,1.85,4.25,2.8-2.7,3-6.3,9.05-6.55,17.3-.3,8.1,3.9,14.65,6.75,17.95-1.2,1.15-2.6,2.4-3.5,3.35-2.9-3.3-7.6-10.25-8.1-19.9Z"/>
          <path class="cls-1" d="M282.05,104.57c-.1-2.6-.2-4.85-.25-8.4s-.15-23.1-.1-24.1c1.6-.05,5.3,0,7,0,.05,7.7.05,19.8.1,25.25h6.3v7.45c-5.25-.15-11.7-.15-13.05-.2Z"/>
          <path class="cls-1" d="M295.5,105.77c2.8-3.3,7.05-9.85,6.75-17.95-.3-8.25-3.9-14.3-6.55-17.3,1.2-.95,2.65-1.75,4.2-2.8,3.7,4.5,7.65,12.25,7.2,21.5-.5,9.65-5.2,16.6-8.15,19.9-.9-.95-2.25-2.2-3.45-3.35Z"/>
        </g>
      </g>
      <g>
        <path class="cls-1" d="M34.53,199.02c2.73.1,9.45-.21,10.92-.21.1,3.04.1,7.56,3.78,7.35,3.57-.1,3.89-4.2,3.89-9.24s-.32-9.66-3.89-9.66c-2.1,0-3.67,1.89-3.78,4.94-3.57,0-7.56,0-10.92-.21,0-2,.73-13.54.84-21s.21-12.18.42-17.64c2.94-.1,16.38-.1,27.51-.42v14.8c-2.31,0-11.44.21-15.12.21l-.63,6.93c.84-.21,1.68-.31,2.42-.42,10.92-.42,15.96,4.83,15.96,22.47s-5.56,24.67-17.64,24.57c-10.39,0-13.75-5.46-13.75-22.47Z"/>
        <path class="cls-1" d="M72.64,209.73c-2.31-10.39-2.1-28.56-.32-40.84,1.78-12.7,6.93-17.01,16.06-17.11,8.4-.21,13.33,5.46,14.7,15.64,1.99,15.22,2.62,30.13-1.47,43.89-1.89,6.51-6.72,9.76-13.65,9.97-6.82.31-13.12-1.78-15.33-11.55ZM87.97,205.11c3.57,0,3.99-5.35,3.99-20.68,0-11.65-.52-17.95-4.3-17.95-3.36,0-4.3,5.67-4.3,18.69,0,11.97,0,19.95,4.62,19.95Z"/>
        <path class="cls-1" d="M109.6,197.76c-.84-12.91-.42-16.17,0-24.04.74-15.75,7.35-21.94,18.16-21.94s14.17,12.6,14.49,16.27c-3.99.31-7.45.42-11.55.74-.74-2.21-1.78-2.83-3.78-2.73-3.57.1-5.04,5.25-4.51,11.13v.1c1.68-.84,3.67-1.26,4.72-1.26,9.97-.42,15.54,5.14,15.54,21.63s-5.67,23.94-17.95,23.83c-9.76,0-14.17-7.03-15.12-23.73ZM126.29,206.69c2.52,0,4.2-2.52,4.2-10.08-.1-2.94-.53-8.4-4.2-8.19-3.78.21-3.99,3.99-3.99,8.92s.21,9.34,3.99,9.34Z"/>
        <path class="cls-1" d="M160.94,184.01c-.1-10.6.73-28.98.52-31.92,3.99-.42,11.02-.1,14.59,0,2.94,7.77,9.66,28.14,11.02,31.5,2.94-8.08,8.61-29.19,9.03-31.6,4.3-.21,12.91.1,14.59.21.31,10.71.73,65.41.52,68.35-4.09.31-10.6.21-13.23.31,0-6.61-.42-25.2-.42-28.24-2.42,10.29-5.04,26.04-5.67,28.03-3.57.42-8.61-.1-10.39,0-1.99-8.82-5.88-23.73-6.93-28.03-.42,8.08-.31,26.56-.42,27.82-3.25,0-9.13.31-13.33.42-.73-9.55.21-26.25.1-36.85Z"/>
        <path class="cls-1" d="M217.64,179.7c0-9.76.21-24.88.21-27.4,3.46-.21,10.92-.1,13.86,0,.42,8.08-.1,31.29-.1,40.95s.31,24.46.31,27.3c-4.3,0-10.39.21-14.49.1,0-14.28.21-31.18.21-40.95Z"/>
        <path class="cls-1" d="M238.75,220.55c-.21-5.46-.42-10.18-.52-17.64s-.31-48.51-.21-50.61c3.36-.1,11.13,0,14.7,0,.1,16.17.1,41.58.21,53.02h13.23v15.64c-11.02-.31-24.57-.31-27.4-.42Z"/>
        <path class="cls-1" d="M270.88,220.13c-.21-5.56.21-26.46.1-33.91s.31-32.34.42-34.33c3.25-.21,10.6,0,14.17,0,.1,16.17-.53,43.05-.42,54.49h13.23v14.07c-11.13-.31-24.57-.21-27.51-.31Z"/>
        <path class="cls-1" d="M303.32,179.39c0-9.55-.42-24.46-.31-27.3,4.3,0,10.39-.21,14.49-.1,0,14.38-.21,31.18-.21,40.95s-.31,24.88-.31,27.4c-3.36.21-10.92.21-13.86,0-.31-7.98.21-31.29.21-40.95Z"/>
        <path class="cls-1" d="M324.22,209c-1.89-10.18-.84-27.72-.42-40.74.52-12.91,7.03-17.01,16.06-17.22,9.13-.21,13.65,4.2,14.49,16.27.74,11.02.95,30.24-1.16,43.26-1.15,7.24-6.72,9.76-13.65,10.08-6.93.21-13.54-1.78-15.33-11.65ZM339.33,202.59c1.47,0,2.52-.74,2.73-2.73.73-8.19.63-17.43.52-28.87,0-2.31-.84-4.51-2.83-4.51-1.99-.1-2.94,2.1-2.94,3.88-.31,9.45-.53,21.52-.1,28.98.1,2.1,1.15,3.25,2.62,3.25Z"/>
        <path class="cls-1" d="M384.27,220.76c-3.78-11.13-7.56-18.69-10.71-26.56,0,7.77.1,16.48.1,26.56-4.93,0-11.44.1-13.02,0,.21-12.7-.21-22.99,0-36.12.1-11.97-.1-29.82-.1-32.55,4.2-.1,9.55,0,11.65,0,3.78,9.24,7.56,17.95,11.02,24.99-.1-6.3-.52-22.05-.31-24.78,4.3,0,9.24.1,12.6.1.21,8.92,0,25.83,0,36.64s-.1,29.29-.1,31.92c-4.62,0-8.71-.1-11.13-.21Z"/>
      </g>
      <g>
        <path class="cls-1" d="M34.53,315.39c2.73.11,9.45-.21,10.92-.21.1,3.04.1,7.56,3.78,7.35,3.57-.1,3.89-4.2,3.89-9.24s-.32-9.66-3.89-9.66c-2.1,0-3.67,1.89-3.78,4.93-3.57,0-7.56,0-10.92-.21,0-2,.73-13.54.84-21,.1-7.46.21-12.18.42-17.64,2.94-.11,16.38-.11,27.51-.42v14.8c-2.31,0-11.44.21-15.12.21l-.63,6.93c.84-.21,1.68-.32,2.42-.42,10.92-.42,15.96,4.83,15.96,22.47s-5.56,24.67-17.64,24.57c-10.39,0-13.75-5.46-13.75-22.47Z"/>
        <path class="cls-1" d="M77.05,287.46c-2.94-.1-5.14-.1-7.87-.21l.11-10.08c7.35-.53,8.19-6.3,8.19-9.03,3.47-.1,10.81-.1,13.86,0,.31,8.19-.21,31.71-.21,41.47s.42,24.78.31,27.72c-4.3-.1-10.29.21-14.38.11v-49.98Z"/>
        <path class="cls-1" d="M95.63,317.7c.1-9.45,5.14-15.85,7.14-17.32-3.57-1.58-5.56-5.88-5.46-15.43.1-8.5,5.14-16.27,16.17-16.27s14.7,7.14,14.7,16.9c-.1,8.5-2.31,12.07-4.09,14.28,4.2,2,6.72,5.35,6.51,18.06-.32,14.38-4.51,19.32-16.9,19.42-8.5.11-18.06-1.37-18.06-19.63ZM112.43,293.87c2.62,0,3.99-3.25,4.09-7.25,0-4.09-1.26-7.04-3.46-6.93-2.31,0-4.2,1.05-4.3,6.4-.11,5.36,1.05,7.77,3.67,7.77ZM113.06,325.89c3.25-.11,4.09-3.67,4.09-8.5s-.74-9.13-3.68-9.13-4.2,4.2-4.3,9.24c0,5.14,1.36,8.4,3.88,8.4Z"/>
        <path class="cls-1" d="M148.87,300.38c-.1-10.61.74-28.98.52-31.92,3.99-.42,11.02-.11,14.59,0,2.94,7.77,9.66,28.14,11.02,31.5,2.94-8.08,8.61-29.19,9.03-31.6,4.3-.21,12.91.11,14.59.21.31,10.71.73,65.41.52,68.35-4.09.32-10.6.21-13.23.32,0-6.62-.42-25.2-.42-28.24-2.42,10.29-5.04,26.04-5.67,28.03-3.57.42-8.61-.11-10.39,0-1.99-8.82-5.88-23.73-6.93-28.03-.42,8.08-.31,26.56-.42,27.82-3.25,0-9.13.32-13.33.42-.73-9.55.21-26.25.1-36.85Z"/>
        <path class="cls-1" d="M205.57,296.07c0-9.76.21-24.88.21-27.4,3.46-.21,10.92-.11,13.86,0,.42,8.08-.1,31.29-.1,40.95s.31,24.46.31,27.3c-4.3,0-10.39.21-14.49.11,0-14.28.21-31.18.21-40.95Z"/>
        <path class="cls-1" d="M226.67,336.91c-.21-5.46-.42-10.18-.52-17.64-.1-7.45-.31-48.51-.21-50.61,3.36-.11,11.13,0,14.7,0,.1,16.17.1,41.58.21,53.02h13.23v15.64c-11.02-.31-24.57-.31-27.4-.42Z"/>
        <path class="cls-1" d="M258.8,336.49c-.21-5.56.21-26.46.1-33.91-.1-7.45.31-32.34.42-34.33,3.25-.21,10.6,0,14.17,0,.1,16.17-.53,43.05-.42,54.49h13.23v14.07c-11.13-.31-24.57-.21-27.51-.31Z"/>
        <path class="cls-1" d="M291.24,295.76c0-9.55-.42-24.46-.31-27.3,4.3,0,10.39-.21,14.49-.11,0,14.38-.21,31.18-.21,40.95s-.31,24.88-.31,27.4c-3.36.21-10.92.21-13.86,0-.31-7.98.21-31.29.21-40.95Z"/>
        <path class="cls-1" d="M312.14,325.36c-1.89-10.18-.84-27.72-.42-40.74.52-12.91,7.03-17.01,16.06-17.22,9.13-.21,13.65,4.2,14.49,16.27.74,11.02.95,30.24-1.16,43.26-1.15,7.25-6.72,9.76-13.65,10.08-6.93.21-13.54-1.79-15.33-11.66ZM327.26,318.96c1.47,0,2.52-.74,2.73-2.73.73-8.19.63-17.43.52-28.87,0-2.31-.84-4.52-2.83-4.52-1.99-.1-2.94,2.1-2.94,3.89-.31,9.45-.53,21.52-.1,28.98.1,2.1,1.15,3.25,2.62,3.25Z"/>
        <path class="cls-1" d="M372.2,337.12c-3.78-11.13-7.56-18.69-10.71-26.56,0,7.77.1,16.48.1,26.56-4.93,0-11.44.11-13.02,0,.21-12.7-.21-22.99,0-36.12.1-11.97-.1-29.82-.1-32.55,4.2-.11,9.55,0,11.65,0,3.78,9.24,7.56,17.95,11.02,24.99-.1-6.3-.52-22.05-.31-24.78,4.3,0,9.24.1,12.6.1.21,8.92,0,25.83,0,36.64s-.1,29.29-.1,31.92c-4.62,0-8.71-.1-11.13-.21Z"/>
      </g>
      <g>
        <rect class="cls-1" x="34.53" y="120.37" width="46.06" height="20.65"/>
        <g>
          <path class="cls-2" d="M46.45,127.97l-.07.19-.26.34.09.13v.15l-.13.09-.09.35-.17.02-.24.35-.15.13-.22.32-.91,1.18-.21.34-.17.34-.15.11-.43.06-.09.17-1.04,1.01-.21.34-.17.09-.3.22-.26.26-.49.62.32.32.11-.13.13-.07.17-.06h.19l.19.04.15.11.19.06.65.09.19-.07.11-.13.11-.34.11-.09h.22l.17.13.09.19.11.13.17-.07.37.09.37.02.17-.07.17-.13.21-.02.19.04.15.09.41.41.15.11-.02.22.06.41-.13-.02-.13.07-.09.11-.34.15-.13.15-.34-.07-.35-.11-.35-.06-.17.04-.19.07-.17-.06-.17-.02-.52.13h-.17l-.15-.07-.11-.17-.15.13-.19.07-.21.04-.45-.11-.37.06h-.19l-.19-.09-.39.06h-.37l-.34-.06-.13.09h-.17l-.56-.19-.26-.3-.19-.04-.04-.19.13-.3.32-.47.06-.17-.02-.19.13-.11.62-.41.13-.13.09-.15.04-.17.19-.04.19-.09.13-.15.04-.19.26-.26.11-.15.06-.15-.06-.21h.13l.15-.11.22-.26v-.22l.07-.19.13-.06.15.02.09.13.28-.47.22-.28.95-1.21h.15l.45-.26.69-.95.09-.35v-.21h-.19l.22-.24-.58-.58-.06.17-.13-.02-.17-.07-.17-.04-.04-.19.13-.15.15.09.17.06.02.09.13-.07.13.04.07-.11-.06-.13-.17-.09-.19-.06-.37-.04-.15-.07-.11-.13-.04-.24-.15.09-.15.15.21.13-.13.06-.13.02-.15-.13-.09-.37-.09-.11-.21.04-.32.58-.15-.13-.17-.07-.02-.19-.19.02-.35.15-.17.11-.39.13-.07.21-.34.6-.13.34-.04.22-.19.04-.24.26-.13.06-.17-.07-.17.09-.17.04-.19-.02-.37-.24-.04-.15.28-.43v-.17l-.17-.17.58-1.25.17-.02.13-.07.22-.28.13-.11.06-.19.09-.13.11-.09.71-.17.35-.13.13-.11.34.15.13-.15.58.15.37.02.15-.06.11-.13.37.06.54.15.71.32.3.21.39.39.21.3.43.39.11.17.02.22.11.15.06.21.06.45.07.15-.02.21Z"/>
          <path class="cls-2" d="M56.51,134.54l-.07.15-.19.73-.63.39-.26.24-.17.07-.35.09-.35.07h-1.83l-.35.06-.73-.06-.37-.06-.35-.09-.32-.17-.26-.3-.09-.21-.21-.04-.11-.11-.21-.54-.11-.15.07-.13-.06-.13.15-.35.04-.17v-.19l-.09-.17h.17l.13-.09-.22-.11-.09.11.02-.19-.07-.54v-.21l.06-.19-.06-.17.09-.15-.02-.15-.17-.13-.07-.17-.02-.19.02-.21.06-.19.17-.11.06-.19v-.22l-.04-.19-.21-.17-.04-.15.17-.24.07-.15-.02-.17-.17-.19.07-.19.11-.13-.19-.35.07-.21.09-.07v-.8l.09-.35.32-.65.41-.65.37-.02.71-.19.34-.06.15.02.19-.06.17-.02.52.09.35.04.17-.02.17-.06.17-.11.15.17h.15l.35-.09.17.11.17-.02.17.09.13.13.15.07.17-.06.6.5.24.28.07.19.02.19-.04.22.15.17.04.19-.15.56v.19l.11.17.06.77v.71l-.04.35-.07.37.02.21.11.17.15.11-.15.13-.04.19.02.39-.11.17.09.17-.02.17-.07.15v.17l.13.13-.09.19v.17l.13.54-.04.17-.13.15.09.13.06.3h.17l-.15.11ZM55.39,131.85l-.06-.15v-.35l-.07-.17.11-.17.02-.19-.02-.41.09-.19-.3-.19-.06-.22.06-.13.26-.22.06-.13-.09-.35.02-.34-.07-.13-.19-.07.28-.28.02-.17-.07-.21-.04-.21-.15-.13-.07-.32-.13-.15-.17-.04-.15.13-.09-.11-.15-.04-.13.06-.09-.17.07-.17-.02-.17-.19-.06-.13.13-.09-.09-.17.06-.5-.07-.15.06-.11.15-.22-.02-.19-.09-.21-.06h-.17l-.21.04-.17.09-.06.19-.13-.07-.11-.15-.13-.02v.41l-.13.17-.19.06-.19.09-.09.15.09.15.04.17-.22.13-.04.15.19.32.04.15-.13.13-.06.34.02.15.13.11-.13.19.06.15.13.11.04.13-.19.15.02.21.15.07-.17.41.15.15.06.17-.02.35-.09.35v.17l.04.17h-.04l-.06.28.15.19.04.17-.04.19-.19.37-.04.17.06.37.06.15.19.3.11.32-.06.19.17.06.22-.06.19.06.13.09.17.06.17-.02.11-.11.04.15.13.09.04.15.21.02.56-.09h.19l.19.06.45-.35.15-.06.19.02.09.15.02.19.15.06-.07-.07.11-.17.17-.11.32-.13-.19-.32.45-.24-.07-.17.09-.17-.09-.17.26-.13-.32-.49-.06-.19.15-.13.21-.32.06-.37-.17-.11Z"/>
          <path class="cls-2" d="M66.98,127.97l-.07.19-.26.34.09.13v.15l-.13.09-.09.35-.17.02-.24.35-.15.13-.22.32-.91,1.18-.21.34-.17.34-.15.11-.43.06-.09.17-1.04,1.01-.21.34-.17.09-.3.22-.26.26-.49.62.32.32.11-.13.13-.07.17-.06h.19l.19.04.15.11.19.06.65.09.19-.07.11-.13.11-.34.11-.09h.22l.17.13.09.19.11.13.17-.07.37.09.37.02.17-.07.17-.13.21-.02.19.04.15.09.41.41.15.11-.02.22.06.41-.13-.02-.13.07-.09.11-.34.15-.13.15-.34-.07-.35-.11-.35-.06-.17.04-.19.07-.17-.06-.17-.02-.52.13h-.17l-.15-.07-.11-.17-.15.13-.19.07-.21.04-.45-.11-.37.06h-.19l-.19-.09-.39.06h-.37l-.34-.06-.13.09h-.17l-.56-.19-.26-.3-.19-.04-.04-.19.13-.3.32-.47.06-.17-.02-.19.13-.11.62-.41.13-.13.09-.15.04-.17.19-.04.19-.09.13-.15.04-.19.26-.26.11-.15.06-.15-.06-.21h.13l.15-.11.22-.26v-.22l.07-.19.13-.06.15.02.09.13.28-.47.22-.28.95-1.21h.15l.45-.26.69-.95.09-.35v-.21h-.19l.22-.24-.58-.58-.06.17-.13-.02-.17-.07-.17-.04-.04-.19.13-.15.15.09.17.06.02.09.13-.07.13.04.07-.11-.06-.13-.17-.09-.19-.06-.37-.04-.15-.07-.11-.13-.04-.24-.15.09-.15.15.21.13-.13.06-.13.02-.15-.13-.09-.37-.09-.11-.21.04-.32.58-.15-.13-.17-.07-.02-.19-.19.02-.35.15-.17.11-.39.13-.07.21-.34.6-.13.34-.04.22-.19.04-.24.26-.13.06-.17-.07-.17.09-.17.04-.19-.02-.37-.24-.04-.15.28-.43v-.17l-.17-.17.58-1.25.17-.02.13-.07.22-.28.13-.11.06-.19.09-.13.11-.09.71-.17.35-.13.13-.11.34.15.13-.15.58.15.37.02.15-.06.11-.13.37.06.54.15.71.32.3.21.39.39.21.3.43.39.11.17.02.22.11.15.06.21.06.45.07.15-.02.21Z"/>
          <path class="cls-2" d="M77.17,134.28l-.06.15.15.52-.11.19-.26.22-.3.15-.22.22-.09.19h-.21l-.17.07-.3.24-.15.09-.17.02-.21-.11-.17.06-.34.06-.75.06-.35.07-.19.07-.35-.13-.97-.11-.32-.17-.15.15-.13.02-.32-.09-.49-1.1-.19.04h-.17l-.21-.11-.02-.19-.17-.56v-.17l-.17-.17.04-.09.24-.22-.02-.21.17-.11.19-.07.37-.02.41.04.13.15.17.58.11.13.21.09.09.32.07.15.13.13.24.04.13-.09.17-.04h.19l.21.04.39.02.19-.06.17.17.17.04.34-.13.19-.04.19.04.19.15.88-.3.32-.21-.06-.39.06-1.1-.04-.39-.06-.21.06-.15.02-.34.07-.13-.11-.15-.09-.39.02-.37-.15-.13-.39-.15-.11-.11.02-.22-.21-.06h-.22l-.15.15-.17-.04-.17-.11-.21.04-.35.11h-.17l-.17-.07-.17-.17-.09-.15-.04-.17v-.19l.09-.6.17-.07.07-.15.07-.35.11-.09.24.04.13-.13.21-.3.35-.67.21-.32.26-.26-.11-.15-.17-.13-.13-.15.04-.22-.15-.09-.15-.04-.15.04-.15.09-.13.13-.15.09-.11.13-.02.21-.07-.17-.04-.21-.09-.15-.24-.04-.39.07-.15-.15-.19.04-.21-.02-.21.02-.15.17.13.19-.19.09-.15.11-.13.15-.24.52-.11.37-.15.09-.32.11-.17-.02-.17-.09-.11-.15-.06-.17-.06-.37-.09-.15-.19-.13.17-.28.15-.32-.07-.15-.04-.17v-.17l.04-.17.11-.13.07-.19.21-.34.28-.24.95.06.34-.02.35-.06.34-.09.37.13.19.02.19-.13.17-.07.17.02.49.34.15.04.19-.06.17-.22.19.13.17.02.54-.15.21-.02.19.07.13.19.17.02.35-.11h.17l-.02.19.21.91-.15.13-.17.06-.09.21.09.09-.65.75-.09.17-.06.19.02.19-.19.02-.11.11-.19.32-.11.09.09.19.17.13.11.15-.17.04-.32-.13-.09.04-.02.24.15.11.28-.11.17-.02.09.13.09.48.09.13.21.07.21.02.13.07.22.21.19.11.06.37.19.52v.17l-.04.17-.11.19.09.13-.04.15.11.34-.02.19-.13.35-.02.17.07.15-.04.19.06.17.11.17.07.17.02.17-.13.19.09.34-.19.09Z"/>
        </g>
        <polygon class="cls-1" points="44.11 140.34 44.11 147.1 49.03 140.34 44.11 140.34"/>
      </g>
      <g>
        <rect class="cls-1" x="34.53" y="237.01" width="46.06" height="20.65"/>
        <g>
          <path class="cls-2" d="M46.45,244.62l-.07.19-.26.34.09.13v.15l-.13.09-.09.35-.17.02-.24.35-.15.13-.22.32-.91,1.18-.21.34-.17.34-.15.11-.43.06-.09.17-1.04,1.01-.21.34-.17.09-.3.22-.26.26-.49.62.32.32.11-.13.13-.07.17-.06h.19l.19.04.15.11.19.06.65.09.19-.07.11-.13.11-.34.11-.09h.22l.17.13.09.19.11.13.17-.07.37.09.37.02.17-.07.17-.13.21-.02.19.04.15.09.41.41.15.11-.02.22.06.41-.13-.02-.13.08-.09.11-.34.15-.13.15-.34-.07-.35-.11-.35-.06-.17.04-.19.07-.17-.06-.17-.02-.52.13h-.17l-.15-.08-.11-.17-.15.13-.19.07-.21.04-.45-.11-.37.06h-.19l-.19-.09-.39.06h-.37l-.34-.06-.13.09h-.17l-.56-.19-.26-.3-.19-.04-.04-.19.13-.3.32-.47.06-.17-.02-.19.13-.11.62-.41.13-.13.09-.15.04-.17.19-.04.19-.09.13-.15.04-.19.26-.26.11-.15.06-.15-.06-.21h.13l.15-.11.22-.26v-.22l.07-.19.13-.06.15.02.09.13.28-.47.22-.28.95-1.21h.15l.45-.26.69-.95.09-.35v-.21h-.19l.22-.24-.58-.58-.06.17-.13-.02-.17-.08-.17-.04-.04-.19.13-.15.15.09.17.06.02.09.13-.08.13.04.07-.11-.06-.13-.17-.09-.19-.06-.37-.04-.15-.07-.11-.13-.04-.24-.15.09-.15.15.21.13-.13.06-.13.02-.15-.13-.09-.37-.09-.11-.21.04-.32.58-.15-.13-.17-.07-.02-.19-.19.02-.35.15-.17.11-.39.13-.07.21-.34.6-.13.34-.04.22-.19.04-.24.26-.13.06-.17-.07-.17.09-.17.04-.19-.02-.37-.24-.04-.15.28-.43v-.17l-.17-.17.58-1.25.17-.02.13-.07.22-.28.13-.11.06-.19.09-.13.11-.09.71-.17.35-.13.13-.11.34.15.13-.15.58.15.37.02.15-.06.11-.13.37.06.54.15.71.32.3.21.39.39.21.3.43.39.11.17.02.22.11.15.06.21.06.45.07.15-.02.21Z"/>
          <path class="cls-2" d="M56.51,251.19l-.07.15-.19.73-.63.39-.26.24-.17.07-.35.09-.35.08h-1.83l-.35.06-.73-.06-.37-.06-.35-.09-.32-.17-.26-.3-.09-.21-.21-.04-.11-.11-.21-.54-.11-.15.07-.13-.06-.13.15-.35.04-.17v-.19l-.09-.17h.17l.13-.09-.22-.11-.09.11.02-.19-.07-.54v-.21l.06-.19-.06-.17.09-.15-.02-.15-.17-.13-.07-.17-.02-.19.02-.21.06-.19.17-.11.06-.19v-.22l-.04-.19-.21-.17-.04-.15.17-.24.07-.15-.02-.17-.17-.19.07-.19.11-.13-.19-.35.07-.21.09-.07v-.8l.09-.35.32-.65.41-.65.37-.02.71-.19.34-.06.15.02.19-.06.17-.02.52.09.35.04.17-.02.17-.06.17-.11.15.17h.15l.35-.09.17.11.17-.02.17.09.13.13.15.08.17-.06.6.5.24.28.07.19.02.19-.04.22.15.17.04.19-.15.56v.19l.11.17.06.76v.71l-.04.35-.07.37.02.21.11.17.15.11-.15.13-.04.19.02.39-.11.17.09.17-.02.17-.07.15v.17l.13.13-.09.19v.17l.13.54-.04.17-.13.15.09.13.06.3h.17l-.15.11ZM55.39,248.5l-.06-.15v-.35l-.07-.17.11-.17.02-.19-.02-.41.09-.19-.3-.19-.06-.22.06-.13.26-.22.06-.13-.09-.35.02-.34-.07-.13-.19-.07.28-.28.02-.17-.07-.21-.04-.21-.15-.13-.07-.32-.13-.15-.17-.04-.15.13-.09-.11-.15-.04-.13.06-.09-.17.07-.17-.02-.17-.19-.06-.13.13-.09-.09-.17.06-.5-.08-.15.06-.11.15-.22-.02-.19-.09-.21-.06h-.17l-.21.04-.17.09-.06.19-.13-.07-.11-.15-.13-.02v.41l-.13.17-.19.06-.19.09-.09.15.09.15.04.17-.22.13-.04.15.19.32.04.15-.13.13-.06.34.02.15.13.11-.13.19.06.15.13.11.04.13-.19.15.02.21.15.07-.17.41.15.15.06.17-.02.35-.09.35v.17l.04.17h-.04l-.06.28.15.19.04.17-.04.19-.19.37-.04.17.06.37.06.15.19.3.11.32-.06.19.17.06.22-.06.19.06.13.09.17.06.17-.02.11-.11.04.15.13.09.04.15.21.02.56-.09h.19l.19.06.45-.35.15-.06.19.02.09.15.02.19.15.06-.07-.07.11-.17.17-.11.32-.13-.19-.32.45-.24-.07-.17.09-.17-.09-.17.26-.13-.32-.49-.06-.19.15-.13.21-.32.06-.37-.17-.11Z"/>
          <path class="cls-2" d="M66.98,244.62l-.07.19-.26.34.09.13v.15l-.13.09-.09.35-.17.02-.24.35-.15.13-.22.32-.91,1.18-.21.34-.17.34-.15.11-.43.06-.09.17-1.04,1.01-.21.34-.17.09-.3.22-.26.26-.49.62.32.32.11-.13.13-.07.17-.06h.19l.19.04.15.11.19.06.65.09.19-.07.11-.13.11-.34.11-.09h.22l.17.13.09.19.11.13.17-.07.37.09.37.02.17-.07.17-.13.21-.02.19.04.15.09.41.41.15.11-.02.22.06.41-.13-.02-.13.08-.09.11-.34.15-.13.15-.34-.07-.35-.11-.35-.06-.17.04-.19.07-.17-.06-.17-.02-.52.13h-.17l-.15-.08-.11-.17-.15.13-.19.07-.21.04-.45-.11-.37.06h-.19l-.19-.09-.39.06h-.37l-.34-.06-.13.09h-.17l-.56-.19-.26-.3-.19-.04-.04-.19.13-.3.32-.47.06-.17-.02-.19.13-.11.62-.41.13-.13.09-.15.04-.17.19-.04.19-.09.13-.15.04-.19.26-.26.11-.15.06-.15-.06-.21h.13l.15-.11.22-.26v-.22l.07-.19.13-.06.15.02.09.13.28-.47.22-.28.95-1.21h.15l.45-.26.69-.95.09-.35v-.21h-.19l.22-.24-.58-.58-.06.17-.13-.02-.17-.08-.17-.04-.04-.19.13-.15.15.09.17.06.02.09.13-.08.13.04.07-.11-.06-.13-.17-.09-.19-.06-.37-.04-.15-.07-.11-.13-.04-.24-.15.09-.15.15.21.13-.13.06-.13.02-.15-.13-.09-.37-.09-.11-.21.04-.32.58-.15-.13-.17-.07-.02-.19-.19.02-.35.15-.17.11-.39.13-.07.21-.34.6-.13.34-.04.22-.19.04-.24.26-.13.06-.17-.07-.17.09-.17.04-.19-.02-.37-.24-.04-.15.28-.43v-.17l-.17-.17.58-1.25.17-.02.13-.07.22-.28.13-.11.06-.19.09-.13.11-.09.71-.17.35-.13.13-.11.34.15.13-.15.58.15.37.02.15-.06.11-.13.37.06.54.15.71.32.3.21.39.39.21.3.43.39.11.17.02.22.11.15.06.21.06.45.07.15-.02.21Z"/>
          <path class="cls-2" d="M77.25,244.62l-.07.19-.26.34.09.13v.15l-.13.09-.09.35-.17.02-.24.35-.15.13-.22.32-.91,1.18-.21.34-.17.34-.15.11-.43.06-.09.17-1.04,1.01-.21.34-.17.09-.3.22-.26.26-.49.62.32.32.11-.13.13-.07.17-.06h.19l.19.04.15.11.19.06.65.09.19-.07.11-.13.11-.34.11-.09h.22l.17.13.09.19.11.13.17-.07.37.09.37.02.17-.07.17-.13.21-.02.19.04.15.09.41.41.15.11-.02.22.06.41-.13-.02-.13.08-.09.11-.34.15-.13.15-.34-.07-.35-.11-.35-.06-.17.04-.19.07-.17-.06-.17-.02-.52.13h-.17l-.15-.08-.11-.17-.15.13-.19.07-.21.04-.45-.11-.37.06h-.19l-.19-.09-.39.06h-.37l-.34-.06-.13.09h-.17l-.56-.19-.26-.3-.19-.04-.04-.19.13-.3.32-.47.06-.17-.02-.19.13-.11.62-.41.13-.13.09-.15.04-.17.19-.04.19-.09.13-.15.04-.19.26-.26.11-.15.06-.15-.06-.21h.13l.15-.11.22-.26v-.22l.07-.19.13-.06.15.02.09.13.28-.47.22-.28.95-1.21h.15l.45-.26.69-.95.09-.35v-.21h-.19l.22-.24-.58-.58-.06.17-.13-.02-.17-.08-.17-.04-.04-.19.13-.15.15.09.17.06.02.09.13-.08.13.04.07-.11-.06-.13-.17-.09-.19-.06-.37-.04-.15-.07-.11-.13-.04-.24-.15.09-.15.15.21.13-.13.06-.13.02-.15-.13-.09-.37-.09-.11-.21.04-.32.58-.15-.13-.17-.07-.02-.19-.19.02-.35.15-.17.11-.39.13-.07.21-.34.6-.13.34-.04.22-.19.04-.24.26-.13.06-.17-.07-.17.09-.17.04-.19-.02-.37-.24-.04-.15.28-.43v-.17l-.17-.17.58-1.25.17-.02.13-.07.22-.28.13-.11.06-.19.09-.13.11-.09.71-.17.35-.13.13-.11.34.15.13-.15.58.15.37.02.15-.06.11-.13.37.06.54.15.71.32.3.21.39.39.21.3.43.39.11.17.02.22.11.15.06.21.06.45.07.15-.02.21Z"/>
        </g>
        <polygon class="cls-1" points="44.11 256.99 44.11 263.74 49.03 256.99 44.11 256.99"/>
      </g>
    </g>
  </g>
</svg>