<svg xmlns="http://www.w3.org/2000/svg" width="auto" fill="none" viewBox="0 0 250 105" aria-label="Article category &quot;Stories&quot; written in cursive" height="70" class="CategoryTitleImage_customColor__WC3fF" aria-hidden="true" style="color: rgb(0, 0, 0);"><path fill="#000" fill-rule="evenodd" d="M236.529 46.212c4.869-2.928 9.804-5.596 12.726.065 2.554 4.95-1.988 8.108-5.643 10.65-.526.365-1.034.718-1.499 1.062-.779 13.013-9.609 23.944-19.023 24.01-10.973.13-15.128-7.158-15.193-12.233-.065-5.075 3.246-9.37 16.686-16.657-3.376-1.301-6.428-5.79-6.687-7.092a912.787 912.787 0 0 0-3.85 4.394c-9.751 11.176-16.205 18.575-24.913 19.095-7.142.39-10.972-3.384-12.53-5.27-10.649 7.026-24.607 5.14-24.153-8.59.04-1.48.485-3.267.925-5.037.993-3.988 1.963-7.885-1.769-7.976-5.388-.13-9.674 6.312-10.713 10.02-.469 1.676-.951 3.696-1.423 5.671-.572 2.399-1.129 4.732-1.628 6.302-.909 2.863-3.831 4.62-7.726 4.36-3.896-.261-6.493-2.604-6.038-6.768.312-2.86 1.574-8.793 2.502-13.155.423-1.986.776-3.647.939-4.543-.746.403-1.694.983-2.621 1.55-1.172.717-2.311 1.413-2.963 1.704-1.882 14.444-10.518 22.317-20.842 22.317-9.673 0-14.542-5.79-14.542-16.461 0-5.726 2.401-10.801 3.83-13.079-8.44-.78-13.31 0-18.05 1.302-4.48 1.17-12.725 4.164-12.66 11.321 0 4.164 2.078 5.01 3.83 4.88 1.104-.13 4.545-1.757 6.688-6.376 1.039-2.278 3.571-4.1 6.817-2.148 3.247 1.953 3.116 5.661 2.013 8.069-3.506 7.612-11.557 14.574-19.478 14.314-7.92-.26-12.855-5.92-11.751-18.088-1.624.585-5.52 2.082-7.662 2.993-1.947 12.688-7.531 23.619-24.801 24.14C5.393 81.282.199 76.922.004 70.676c-.195-6.246 6.623-13.99 24.347-21.472-2.138-5.085-6.216-8.025-10.107-10.83-4.972-3.585-9.638-6.95-9.565-14.285.065-10.346 7.531-17.698 20.387-17.698 4.025 0 8.7.716 11.427 1.366 3.895.976 4.414 4.62 3.765 7.418-.584 2.798-3.7 3.774-6.428 3.253l-.597-.116c-3.326-.657-11.625-2.295-14.79 3.5-1.651 3.06 1.317 4.996 5.44 7.685 4.47 2.914 10.295 6.713 13.064 13.786 2.058-.687 5.42-1.978 8.279-3.075 1.74-.669 3.293-1.265 4.252-1.61C51.75 25.066 55.516 5.806 65.449 6.001c13.765.196 12.726 16.072 10.583 22.969 8.116-.65 22.53-1.562 29.801-1.171 7.337.39 9.415 3.513 12.336 8.003 2.533 0 7.078-3.84 9.415-6.637 4.739-5.66 13.634-2.408 12.92 6.572 3.83-2.798 12.856-8.46 20.062-7.874 7.207.586 9.479 3.84 8.051 9.695-1.428 5.856-2.208 10.736-2.143 13.794 0 3.774 3.376 4.165 6.948 1.041-1.104-16.006 4.414-27.457 14.802-27.588 6.883-.13 12.336 2.148 12.141 11.127-.194 8.979-6.687 15.876-10.907 18.348 2.597 2.212 5.194 0 7.856-2.733 1.088-1.121 2.16-2.233 3.217-3.329 12.128-12.574 22.288-23.108 31.843-23.347 4.739-.13 8.246 1.821 7.856 6.506-.296 4.213-3.777 5.07-6.259 5.683-.24.059-.471.116-.688.173-6.196 1.634-1.427 5.32 1.7 7.736.608.47 1.155.893 1.546 1.243ZM16.43 68.27c-1.818-1.756 1.818-5.01 9.09-7.612.195 3.839-7.272 9.37-9.09 7.612ZM62.658 29.49c-.195-3.839 1.168-10.8 3.635-10.8 2.468 0 .974 7.287-3.635 10.8Zm38.111 18.934c-1.558 2.408-2.142 7.093 1.299 8.264 3.441 1.236 6.557-2.798 6.362-5.4-1.817.26-6.492-.977-7.661-2.864Zm3.507-9.89c2.077-1.561 4.739-1.431 5.388 1.107-1.298.715-3.766 0-5.388-1.107Zm81.482 3.84c-.326-2.864.843-5.271 2.531-5.206 1.688.065.455 3.839-2.531 5.205ZM223.155 69.7c-2.403-1.171.194-4.36 4.285-5.856 0 2.993-1.883 7.027-4.285 5.856Z" clip-rule="evenodd"></path><path fill="#000" d="M172.577 17.583c-.715 3.904-4.35 6.832-7.791 6.962-3.766.13-6.493-2.993-6.364-7.678.131-4.684 3.961-7.742 8.506-7.677 4.48.065 6.363 4.49 5.649 8.393Z"></path></svg>