<?xml version="1.0" encoding="UTF-8"?>
<svg id="Layer_2" data-name="Layer 2" xmlns="http://www.w3.org/2000/svg" viewBox="0 0 445 672.59">
  <defs>
    <style>
      .cls-1 {
        fill: #98c5d3;
      }

      .cls-1, .cls-2 {
        stroke-width: 0px;
      }

      .cls-2 {
        fill: #fff;
      }
    </style>
  </defs>
  <g id="Layer_1-2" data-name="Layer 1">
    <g>
      <rect class="cls-2" x="0" y="101.34" width="445" height="78.61"/>
      <rect class="cls-2" x="0" y="192.63" width="445" height="70.93"/>
      <rect class="cls-2" x="0" y="276.25" width="445" height="70.93"/>
      <rect class="cls-2" x="0" y="359.86" width="445" height="70.93"/>
      <rect class="cls-2" x="0" y="443.48" width="445" height="70.93"/>
      <polygon class="cls-2" points="0 527.1 0 632.59 196 632.59 222.62 672.59 249 632.59 445 632.59 445 527.1 0 527.1"/>
      <g>
        <path class="cls-1" d="M416.39,15.42c-.07-.06-.14-.12-.21-.18-.11-.14-.23-.27-.36-.39-.07-.06-.14-.12-.21-.18-.11-.14-.23-.27-.36-.39-.07-.06-.14-.12-.21-.18-.11-.14-.23-.27-.36-.39-.07-.06-.14-.12-.21-.18-.11-.14-.23-.27-.36-.39-.07-.06-.14-.12-.21-.18-.11-.14-.23-.27-.36-.39-.07-.06-.14-.12-.21-.18-.11-.14-.23-.27-.36-.39-.07-.06-.14-.12-.21-.18-.11-.14-.23-.27-.36-.39-.07-.06-.14-.12-.21-.18-.11-.14-.23-.27-.36-.39-.07-.06-.14-.12-.21-.18-.11-.13-.23-.26-.36-.39-.07-.06-.14-.12-.21-.18-.11-.14-.23-.27-.36-.39-.07-.06-.14-.12-.21-.18-.11-.14-.23-.27-.36-.39-.07-.06-.14-.12-.21-.18-.11-.14-.23-.27-.36-.39-.07-.06-.14-.12-.21-.18-.11-.14-.23-.27-.36-.39-.07-.06-.14-.12-.21-.18-.11-.14-.23-.27-.36-.39-.07-.06-.14-.12-.21-.18-.11-.14-.23-.27-.36-.39-.07-.06-.14-.12-.21-.18-.11-.14-.23-.27-.36-.39-.07-.06-.14-.12-.21-.18-.11-.14-.23-.27-.36-.39-.07-.06-.14-.12-.21-.18-.11-.13-.23-.26-.36-.39-.07-.06-.14-.12-.21-.18-.11-.14-.23-.27-.36-.39-.07-.06-.14-.12-.21-.18-.11-.14-.23-.27-.36-.39-.07-.06-.14-.12-.21-.18-.11-.14-.23-.27-.36-.39-.07-.06-.14-.12-.21-.18-.11-.14-.23-.27-.36-.39-.07-.06-.14-.12-.21-.18-.11-.14-.23-.27-.36-.39-.07-.06-.14-.12-.21-.18-.11-.14-.23-.27-.36-.39-.98-.94-2.33-1.38-3.68-1.22-3.31.42-6.61.61-9.8.81-3.22.19-6.25.37-9.11.76-.37.05-.71.15-1.04.28-.79-.6-1.74-.93-2.76-.94-1.04,0-2.38.14-4.07.3-.83.08-1.73.17-2.65.24-1.21.1-2.34.67-3.11,1.61,0,0-.02.02-.02.03-2.92-.99-6.74-1.6-11.62-1.2-6.42.59-12.78,3.13-17.46,6.97-.78.64-1.51,1.31-2.19,2.01-.08-.07-.14-.16-.22-.23-.03-.02-.06-.04-.09-.06-.15-.17-.3-.35-.48-.5-.03-.02-.06-.04-.09-.06-.15-.18-.3-.35-.48-.5-.03-.02-.06-.04-.09-.06-.15-.18-.3-.35-.48-.5-.03-.02-.06-.04-.09-.06-.15-.18-.3-.35-.48-.5-.03-.02-.06-.04-.09-.06-.15-.18-.3-.35-.48-.5-.03-.02-.06-.04-.09-.06-.15-.18-.3-.35-.48-.5-.03-.02-.06-.04-.09-.06-.15-.18-.3-.35-.48-.5-.97-.83-2.25-1.21-3.52-1.05-.63.08-1.43.11-2.28.14-1.48.05-3.15.12-4.8.48-1.11.24-2.03.88-2.66,1.73-3.02-.82-7.04-1.33-12.03-.75-6.86.84-12.43,3.08-16.53,6.53-.03-.03-.07-.05-.11-.08-.13-.15-.25-.31-.4-.44-.05-.05-.12-.08-.17-.13-.13-.15-.25-.31-.4-.44-.05-.05-.12-.08-.17-.13-.13-.15-.25-.31-.39-.44-.05-.05-.12-.08-.17-.13-.13-.15-.25-.31-.39-.44-.05-.05-.12-.08-.17-.13-.13-.15-.25-.31-.39-.44-.05-.05-.12-.08-.17-.13-.13-.15-.25-.31-.4-.44-.92-.84-2.15-1.26-3.4-1.15-4.37.36-39.85,3.6-48.63,4.42-1.4.13-2.6.89-3.33,2-.3-.18-.6-.35-.9-.52-1.94-1.05-4.35-.55-5.7,1.19-.08.1-.13.16-.17.21-.7.02-1.57-.18-2.73-.44-2.44-.55-5.78-1.29-11.06-.85-10.55.87-18.4,4.55-23.65,11.13-.07-.07-.12-.14-.2-.21-.04-.04-.11-.09-.16-.14-.13-.15-.26-.3-.41-.43-.04-.04-.11-.09-.16-.14-.13-.15-.26-.3-.41-.43-.04-.04-.11-.09-.16-.14-.13-.15-.26-.3-.41-.43-.04-.04-.11-.09-.16-.14-.13-.15-.26-.3-.41-.43-.04-.04-.11-.09-.16-.14-.13-.15-.26-.3-.41-.43-.78-.68-2.88-2.45-5.65-4.09-1.95-1.15-4.45-.68-5.84,1.11-.07.09-.12.15-.17.21-.54,0-1.2-.19-2.31-.51-2.39-.69-5.65-1.65-11.08-1.2-9.37.78-16.53,3.42-21.69,8.12-.17-.18-.34-.35-.53-.5-.13-.14-.25-.27-.39-.39-.17-.21-.37-.4-.57-.58-.17-.21-.37-.4-.57-.57,0-.01-.02-.02-.03-.03,0,0-.01-.01-.02-.02-.15-.18-.32-.34-.5-.5-.17-.21-.37-.4-.57-.58-.17-.21-.37-.4-.57-.57-.93-1.12-2.39-1.78-3.93-1.65-4.32.36-18.78,1.56-23.53,2.05-1.04.11-1.97.56-2.68,1.25-.74-.4-1.59-.59-2.45-.53l-26.07,1.77c-.59.04-1.16.2-1.66.44-.54-.22-1.13-.33-1.73-.35-1.04,0-2.37.14-4.06.3-.83.08-1.73.17-2.66.24-1.22.1-2.34.67-3.11,1.61,0,0-.01.02-.02.03-2.92-.99-6.74-1.6-11.61-1.2-6.42.59-12.78,3.13-17.46,6.97-5.87,4.81-9.03,11.36-9.14,18.94h0c-.1,7.88,2.36,12.87,5.81,16.11.19.19.37.39.57.57.19.19.37.39.57.57.19.19.37.39.57.57.19.19.37.39.57.57.14.14.27.29.41.42-1.43.11-2.76.24-3.63.34-2.14.26-3.79,2.01-3.94,4.16-.12,1.78,0,18.88.09,23.05.03,1.28.6,2.48,1.57,3.31.03.03.07.04.1.07.15.17.29.35.47.5.03.03.07.04.1.07.15.17.29.35.47.5.03.03.07.04.1.07.15.17.29.35.47.5.03.03.07.04.1.07.15.17.29.35.47.5.03.03.07.04.1.07.15.17.29.35.47.5.03.03.07.04.1.07.15.17.3.35.47.5.03.03.07.04.1.07.15.17.29.35.47.5.03.03.07.04.1.07.15.17.29.35.47.5.03.03.07.04.1.07.15.17.29.35.47.5.03.03.07.04.1.07.15.17.29.35.47.5.03.03.07.04.1.07.15.17.29.35.47.5.03.03.07.04.1.07.15.17.29.35.47.5.03.03.07.04.1.07.15.17.29.35.47.5.03.03.07.04.1.07.15.17.29.35.47.5.03.03.07.04.1.07.15.17.29.35.47.5.03.03.07.04.1.07.15.17.29.35.47.5.03.03.07.04.1.07.15.17.29.35.47.5.03.03.07.04.1.07.15.17.29.35.47.5.03.03.07.04.1.07.15.17.29.35.47.5.03.03.07.04.1.07.15.17.29.35.47.5.03.03.07.04.1.07.15.17.29.35.47.5.03.03.07.04.1.07.15.17.29.35.47.5.03.03.07.04.1.07.15.17.3.35.47.5.03.03.07.04.1.07.15.17.29.35.47.5.82.7,1.86,1.08,2.93,1.08.19,0,.39-.01.59-.04.64-.08,1.48-.15,2.36-.22,1.68-.13,3.58-.28,5.22-.64,1.2-.26,2.18-.99,2.81-1.95,3.39,1.19,7.79,2.02,12.9,1.37,12.09-1.48,19.98-7.89,22.97-18.32.14.14.28.29.43.42.19.19.37.38.57.57.19.19.37.38.57.57.19.19.38.38.57.57.19.19.37.38.56.56.19.19.37.38.57.57.19.19.37.38.57.57.19.19.37.38.57.57.19.19.37.38.57.57.19.19.37.38.57.57.19.19.37.38.57.57.19.19.37.38.57.57.42.43.85.85,1.31,1.25,4.44,3.89,10.4,5.94,17.04,5.94,1.24,0,2.5-.07,3.78-.22,12.64-1.35,21.38-8.04,24.82-18.49.14.14.28.27.42.41.18.19.38.38.57.57.19.2.38.38.57.57.18.19.37.38.56.56.18.19.38.38.57.57.18.19.38.38.57.57.18.19.38.38.57.57.18.19.38.38.57.57.18.19.38.38.57.57.19.19.38.38.57.57.18.19.38.38.57.57.42.44.85.87,1.29,1.27,4.87,4.41,11.29,6.64,19.15,6.64,1.39,0,2.83-.07,4.31-.21,9.24-.93,16-4.89,20.1-11.76.93-1.56,1.72-3.29,2.39-5.18.1.1.2.2.3.3.18.2.38.38.57.57.18.2.38.38.57.57.18.2.38.38.57.57.18.2.38.38.57.57.18.2.38.38.57.57.18.2.38.38.57.57.18.2.38.38.57.57.38.4.77.79,1.17,1.16,4.75,4.36,11.21,6.56,19.25,6.56,1.49,0,3.03-.08,4.63-.23,7.04-.67,12.43-2.73,16.32-6.26.04.04.07.08.1.11.04.04.09.06.13.1.14.16.27.33.43.47.04.04.09.06.14.1.14.16.27.33.43.47.04.04.09.06.13.1.14.16.27.33.43.47.04.04.09.06.13.1.14.16.27.33.43.47.04.04.09.06.14.1.14.16.27.32.43.47.04.04.09.06.13.1.14.16.27.33.43.47.83.73,1.89,1.13,2.98,1.13.12,0,.25,0,.37-.02,1.82-.15,43.08-3.95,48.92-4.74.22-.03.43-.09.64-.15.78.59,1.72.93,2.71.93h.04c1.04,0,2.34-.14,3.99-.29.84-.08,1.76-.17,2.73-.25,1.33-.11,2.54-.8,3.31-1.89.1-.14.19-.29.27-.44,3.88,1.03,8.15,1.36,12.75.98,7.38-.61,13.23-2.85,17.43-6.52.07.07.13.16.21.22.03.03.07.04.1.07.15.17.29.35.47.5.03.03.07.04.1.07.15.17.29.35.47.5.03.03.07.04.1.07.15.17.29.35.47.5.03.03.07.04.1.07.15.17.29.35.47.5.03.03.07.04.1.07.15.17.29.35.47.5.03.03.07.04.1.07.15.17.29.35.47.5.82.7,1.86,1.08,2.93,1.08.19,0,.39-.01.58-.04.64-.08,1.47-.15,2.36-.22,1.68-.13,3.59-.28,5.23-.64,1.2-.26,2.18-.99,2.81-1.95,3.39,1.19,7.79,2.02,12.9,1.37,8.59-1.05,15.06-4.59,19.16-10.29.03.03.06.07.1.1.04.04.09.07.13.11.14.15.28.31.43.45.04.04.09.07.13.11.14.15.28.31.43.45.04.04.09.07.13.11.14.15.28.31.43.45.04.04.09.07.13.11.14.15.28.31.43.45.04.04.09.07.13.11.14.15.28.31.43.45.04.04.09.07.13.11.14.15.28.31.43.45.04.04.09.07.13.11.14.15.28.31.43.45,2.22,2.09,5.31,3.24,8.59,3.24.39,0,.78-.02,1.17-.05,6.87-.57,12.24-6.35,12.24-13.16,0-.04,0-.07,0-.1-.09-3.64-1.46-6.73-3.69-8.88-.09-.11-.2-.2-.3-.3.28-.59.44-1.25.44-1.94,0-1.97,1.14-11.29,1.97-18.1.53-4.3,1.02-8.36,1.25-10.62,0-.03,0-.07,0-.1.08-1.09.25-2.76.47-4.87.31-3.06.7-6.87,1.05-11.14.11-1.35-.39-2.68-1.37-3.62Z"/>
        <g>
          <g>
            <path class="cls-1" d="M27.65,103.93c-1.07,0-2.11-.38-2.93-1.08-.97-.83-1.54-2.04-1.57-3.31-.09-4.18-.21-21.27-.09-23.05.15-2.15,1.8-3.89,3.94-4.16,1.06-.13,2.76-.28,4.53-.41-5.19-2.95-9.52-8.33-9.39-18.73h0c.11-7.59,3.27-14.14,9.14-18.95,4.68-3.84,11.04-6.38,17.46-6.97,4.88-.41,8.7.21,11.62,1.2,0,0,.01-.02.02-.03.77-.94,1.9-1.51,3.11-1.61.93-.08,1.83-.16,2.66-.24,1.69-.16,3.02-.29,4.06-.3,1.25,0,2.39.47,3.25,1.34.86.87,1.32,2.05,1.29,3.26-.1,4.3-.09,19.49,0,20.86.15,2.44-1.68,4.6-4.12,4.8-.66.06-1.53.14-2.48.22-.2.02-.4.04-.6.06,4.69,2.92,8.4,8.03,8.32,17.34-.13,16.33-8.78,26.38-24.34,28.28-5.11.65-9.51-.17-12.9-1.36-.62.96-1.61,1.68-2.81,1.95-1.64.36-3.54.51-5.22.64-.89.07-1.72.13-2.36.22-.2.03-.39.04-.59.04ZM34.75,89.65c.89,0,1.78.27,2.55.79,1.75,1.2,6.54,3.92,13.11,3.07,11.14-1.36,16.36-7.53,16.46-19.42.09-9.91-5.39-11.21-14.33-12.51-5.35-.78-13.44-1.95-13.36-9.81,0-4.87,3.01-10.43,11.45-11.29,6.24-.61,11.24,2.24,13.74,7.59.44-.04.88-.08,1.32-.12-.01-2.44-.02-5.54,0-8.47-.02.01-.04.02-.07.03-1.61.73-3.5.45-4.83-.72-.85-.75-4.19-3.15-11.26-2.56-6.25.58-18.2,4.89-18.39,17.06-.13,10.53,5.33,11.99,14.25,13.49,5.07.86,12.73,2.15,12.73,9.59,0,4.86-3.14,10.57-10.02,11.6-6.56.93-11.35-1.69-13.63-7.26-.79.05-1.63.11-2.46.17,0,2.64.01,6.24.04,9.66.11-.08.22-.16.34-.23.73-.45,1.55-.67,2.37-.67ZM42.25,75.38c.7,3.81,1.99,4.06,4.55,3.7,1.74-.26,2.18-1.5,2.29-2.26-1.06-.46-3.5-.87-5.19-1.16-.52-.09-1.07-.18-1.64-.28ZM48.18,51.52c1.08.49,3.79.89,5.65,1.16.87.13,1.83.27,2.84.44-.98-3.56-3.05-3.88-5.15-3.68-2.92.3-3.29,1.35-3.34,2.08Z"/>
            <path class="cls-1" d="M99.51,97.98c-6.64,0-12.6-2.05-17.04-5.94-5.2-4.55-8.03-11.26-8.19-19.41-.31-12.33-.5-19.96-.6-30.02-2.1-.3-3.75-2.05-3.86-4.23-.04-.73-.1-1.76-.16-2.82-.15-2.42-.25-4.07-.25-4.89,0-2.37,1.83-4.33,4.19-4.49l26.07-1.77c.86-.06,1.7.13,2.45.53.7-.68,1.63-1.14,2.68-1.25,4.77-.49,19.23-1.69,23.55-2.05,2.47-.2,4.7,1.62,4.92,4.09.22,2.52.22,6.14.22,7.5,0,2.13-1.5,3.97-3.59,4.41-.05.01-.09.02-.13.03-.08.41-.17,1.26-.14,2.92.19,8.81.14,14.14.11,18.84-.02,2.97-.05,5.78,0,9.11,0,16.55-9.88,27.46-26.44,29.23-1.28.14-2.54.22-3.78.22ZM82.66,41.62c.1,10.45.29,18.13.61,30.81.11,5.57,1.89,10.01,5.13,12.85,3.34,2.92,8.28,4.18,13.91,3.55,16.03-1.71,18.42-13.41,18.42-20.23-.04-3.37-.02-6.22,0-9.23.04-4.64.08-9.9-.11-18.58-.05-2.47-.14-6.88,2.83-9.69-4.1.35-9.43.8-13.42,1.16.55.27,1.06.62,1.53,1.02,1.58,1.4,2.44,3.45,2.55,6.08.11,2.92.21,25.32,0,30.43-.3,7.47-5.02,12.87-11.73,13.43-3.03.25-5.76-.6-7.87-2.45-2.39-2.1-3.81-5.39-4-9.25-.21-4.51-.52-27.67-.41-30.98.11-3.45,1.54-5.47,3.33-6.67l-14.13.96c.39.24.77.53,1.13.88,1.48,1.44,2.24,3.43,2.24,5.92ZM99.08,41.14c-.07,4.09.22,25.81.41,29.95.08,1.6.56,2.56.94,2.9.1.09.36.31,1.19.24,2.98-.25,3.43-3.45,3.48-4.82.18-4.5.12-24.24.02-28.97-.73-.07-1.43-.32-2.02-.7-.65.6-1.49,1.01-2.42,1.13-.75.1-1.26.19-1.6.27Z"/>
            <path class="cls-1" d="M154.64,93.27c-7.86,0-14.28-2.23-19.15-6.64-6.44-5.83-9.73-15.19-9.79-27.8h0c-.11-25.76,9.76-38.07,32.02-39.91,5.42-.45,8.69.5,11.08,1.2,1.11.32,1.77.51,2.31.51.04-.05.1-.12.17-.21,1.39-1.79,3.89-2.26,5.84-1.11,2.77,1.64,4.88,3.4,5.65,4.09,1.65,1.45,2.01,3.88.85,5.75-2.35,3.8-10.36,14.76-12.4,17.1-.96,1.1-2.38,1.67-3.83,1.52-1.45-.14-2.74-.97-3.46-2.23-.96-1.67-3.53-2.78-5.97-2.57-1.56.13-5.21.43-5.41,13.94-.11,7.91,1.65,10.36,2.42,11.04.41.37,1.07.76,2.58.58.04,0,.07,0,.11-.01,1.57-.15,3.36-.33,3.24-10.43-.03-2.27,1.65-4.21,3.9-4.51,1.96-.26,11.77-1.28,14.4-1.39,1.22-.05,2.39.38,3.27,1.21.88.83,1.4,1.98,1.42,3.19.23,10.77-1.35,18.86-4.84,24.72-4.1,6.87-10.86,10.82-20.1,11.76-1.48.14-2.92.21-4.31.21ZM134.7,58.79c.04,9.98,2.34,17.11,6.83,21.17,3.78,3.43,9.35,4.82,16.55,4.14,13.41-1.35,16.46-11.17,16.81-22.54-1.65.16-3.46.34-5.03.5-.28,6.26-2,14.46-11.27,15.4-3.75.45-7.08-.53-9.63-2.82-3.76-3.38-5.53-9.22-5.4-17.87.14-9.31,1.7-21.79,13.66-22.78,3.67-.3,7.3.65,10.18,2.54,1.56-2.09,3.44-4.67,5.08-6.98-.14.02-.28.03-.42.04-2.26.19-4.13-.36-5.77-.83-1.99-.58-4.05-1.18-7.82-.87-17.41,1.44-23.85,9.82-23.76,30.9h0Z"/>
            <path class="cls-1" d="M206.13,88.11c-8.04,0-14.5-2.2-19.25-6.56-6.11-5.6-9.15-14.63-9.04-26.81h0c.24-24.79,10.58-37.68,31.62-39.43,5.28-.44,8.62.31,11.06.85,1.15.26,2.03.45,2.73.44.04-.04.1-.11.17-.21,1.35-1.74,3.76-2.24,5.7-1.19,2.13,1.16,4.36,2.77,5.95,4.31,1.54,1.49,1.82,3.85.67,5.65-2.39,3.75-9.45,12.92-11.46,15.22-.84.96-2.05,1.53-3.33,1.54-1.27.04-2.51-.51-3.37-1.45-2-2.18-3.72-3.22-7.58-2.9-1.64.14-6.62.55-6.42,15.17.1,7.21,1.85,9.86,2.88,10.79.53.48,1.46,1.1,3.4.94,3.53-.29,5.21-.87,5.1-10.78-.03-2.36,1.77-4.34,4.13-4.54,2.16-.18,8.62-.71,11.13-.82,2.44-.1,4.57,1.81,4.69,4.29.53,11.49-.78,19.1-4.25,24.69-3.85,6.2-10.37,9.66-19.9,10.56-1.6.15-3.14.23-4.63.23ZM186.84,54.82h0c-.08,9.53,1.98,16.3,6.13,20.1,3.67,3.37,9.37,4.72,16.94,4,10.46-.99,16.03-4.71,16.11-21.28-.65.05-1.35.1-2.11.16-.32,6.55-2.31,14.73-13.31,15.64-3.97.32-7.49-.79-10.19-3.25-3.81-3.46-5.72-9.13-5.84-17.33-.14-10.51,2.29-23.24,14.68-24.27,4.31-.36,7.86.4,11.02,2.42,1.29-1.65,2.8-3.63,4.19-5.49-.09.01-.17.02-.26.03-2.12.18-3.91-.22-5.64-.61-2.19-.49-4.45-.99-8.35-.67-16.4,1.36-23.16,10.21-23.36,30.54Z"/>
            <path class="cls-1" d="M233.56,86.27c-1.09,0-2.15-.4-2.98-1.13-.92-.81-1.47-1.97-1.52-3.19-.08-1.95-.04-4.97-.02-7.17,0-.78.02-1.45.02-1.89,0-2.34,1.8-4.29,4.13-4.48.21-.02.31-.05.34-.06-.02-.02.29-.54.3-2.04-.04-1.63-.07-6.26-.1-12.1-.04-7.76-.09-17.41-.2-22.61-1.08-.03-2.12-.45-2.92-1.19-.88-.81-1.41-1.95-1.45-3.15-.1-3,0-6.86.1-9.26.11-2.24,1.84-4.06,4.08-4.27,8.78-.82,44.26-4.06,48.63-4.42,1.24-.1,2.47.31,3.4,1.15.92.84,1.46,2.02,1.48,3.27.09,6.54.1,18.06.1,21.44,0,2.34-1.79,4.29-4.13,4.48-1.52.13-3.47.23-5.35.33-1.55.08-3.01.16-3.98.24-1.21.1-2.41-.29-3.32-1.09.43.7.66,1.51.66,2.34v8.69c0,.11,0,.22-.01.33.4-.17.83-.29,1.28-.35,3.02-.35,7.69-.74,9.68-.9,1.24-.1,2.46.31,3.39,1.14.92.83,1.46,2.01,1.48,3.25.1,4.74.1,19.12.1,23.41,0,2.25-1.66,4.16-3.9,4.46-5.84.79-47.1,4.59-48.92,4.74-.12.01-.25.02-.37.02ZM238.03,76.12c0,.24,0,.48,0,.73,9.55-.88,30.5-2.84,39.72-3.81,0-4.16-.01-9.99-.04-14.41-.26.02-.53.05-.79.07-1.2,10.02-7.33,11.55-9.38,11.78-1.09.12-1.91.25-2.71.37-1.56.24-3.17.48-6.24.67-1.2.07-2.38-.34-3.28-1.14-.9-.8-1.43-1.93-1.49-3.13l-.06-1.06c-.13-2.34-.34-6.26-.25-10.17.07-3.05,1.34-7.93,8.32-9.72v-.39c-2.45-.22-4.72-.87-6.39-2.49-1.55-1.49-2.33-3.52-2.33-6.01,0-.84-.03-1.85-.05-2.97-.05-2.12-.12-4.75-.05-7.39.06-2.21,1.7-4.04,3.89-4.34,1.95-.27,5.06-.52,9.37-.88,3.28-.27,5.95.5,7.9,2.3,1.92,1.77,2.8,4.19,3.18,6.84l.61-.03c0-3.47-.02-8.13-.05-12.24-9.56.86-29.74,2.7-39.76,3.62,0,.39-.01.79-.01,1.19.73.37,1.3.8,1.74,1.2,1.68,1.55,2.57,3.73,2.66,6.47,0,.01,0,.03,0,.04.12,5.24.17,15.06.21,22.94.03,5.63.05,10.5.09,11.96,0,.04,0,.08,0,.13,0,5.73-2.41,8.52-4.8,9.88ZM268.12,54.29c-.47.21-.99.33-1.53.37-4.06.25-4.08,1.11-4.09,1.58-.05,2.01,0,4.06.07,5.86.3-.04.6-.09.91-.13.9-.14,1.82-.28,3.05-.41.36-.04,1.65-1.86,1.58-6.86,0-.13,0-.27.01-.4ZM266.32,36.97c1.09,0,2.14.39,2.95,1.1-.43-.7-.66-1.51-.66-2.34,0-3.41-.35-4.55-.53-4.92-.16-.03-.5-.07-1.09-.02-1.92.16-3.6.3-5.02.42.01,1.04.04,2.05.06,3,.02.98.05,1.89.05,2.67.67.09,1.88.16,4.07.08.05,0,.11,0,.16,0Z"/>
            <path class="cls-1" d="M286.2,82.3c-1.2,0-2.36-.48-3.21-1.34-.86-.87-1.32-2.05-1.29-3.26.1-4.28.09-19.38.01-20.75-.14-2.44,1.68-4.61,4.12-4.81.81-.07,1.85-.18,2.94-.3,1.51-.16,3.06-.33,4.39-.43-6.29-2.59-12.48-7.56-12.48-19.01,0-14.05,8.95-23.21,24.54-25.11,5-.58,9.02-.07,12.03.75.63-.85,1.55-1.49,2.66-1.73,1.65-.36,3.32-.42,4.8-.48.85-.03,1.65-.06,2.28-.14,1.27-.17,2.55.21,3.52,1.05.97.83,1.54,2.04,1.57,3.31.1,4.66.2,20.53.2,21.85,0,2.28-1.7,4.19-3.96,4.47-.74.09-1.74.19-2.83.28,5.03,3.23,9.04,8.73,8.91,18.76h0c-.22,14.81-9.14,23.69-25.12,25.01-4.6.38-8.87.05-12.75-.98-.08.15-.17.3-.27.44-.77,1.09-1.98,1.78-3.31,1.89-.97.08-1.89.17-2.73.25-1.65.16-2.95.29-3.99.29h-.04ZM292.7,68.66c.71,0,1.41.17,2.06.5,3.74,1.92,8.51,2.71,13.8,2.27,7.15-.59,16.67-2.91,16.87-16.16.13-10.49-5.58-12.49-15-14.54-5.4-1.17-12.79-2.78-12.79-10.05,0-2.6.98-8.76,10.04-9.95,4.26-.67,7.76.03,10.38,2.1,1.6,1.26,2.78,2.96,3.52,5.05.55-.04,1.13-.08,1.7-.12-.02-2.63-.04-6.12-.07-9.37-1.49.83-3.33.76-4.75-.22-.43-.3-4.45-2.88-12.15-1.98-11.17,1.36-16.61,6.66-16.61,16.18,0,8.85,5.05,10.56,13.28,12.62,5.83,1.46,13.82,3.46,13.6,12.02-.17,6.29-4.59,10.56-11.53,11.13-8.69.72-12.22-3.78-13.78-7.54-.16.02-.33.03-.49.05.01,2.42.02,5.5,0,8.42.61-.29,1.26-.43,1.92-.43ZM298.05,53.03c.42.53.72,1.15.87,1.85.75,3.47,1.22,4.66,5.37,4.31,3.22-.27,3.26-1.6,3.28-2.4.03-1.06-1.37-1.69-6.79-3.05-.86-.21-1.78-.44-2.74-.71ZM306.65,30.35c1.03.58,3.79,1.18,5.68,1.59.34.07.69.15,1.05.23-.16-1.12-.48-1.93-.91-2.26-.54-.43-1.83-.53-3.44-.27-.05,0-.1.02-.15.02-1.61.21-2.15.58-2.24.65,0,0,0,.02,0,.03Z"/>
            <path class="cls-1" d="M333.27,78.6c-1.07,0-2.11-.38-2.93-1.08-.97-.83-1.54-2.04-1.57-3.31-.09-4.17-.21-21.25-.09-23.05.15-2.15,1.8-3.9,3.94-4.16,1.05-.13,2.76-.28,4.53-.41-5.19-2.95-9.52-8.33-9.39-18.73h0c.11-7.59,3.27-14.14,9.14-18.94,4.68-3.84,11.04-6.38,17.46-6.97,4.87-.41,8.7.21,11.62,1.2,0,0,.02-.02.02-.03.77-.94,1.9-1.51,3.11-1.61.92-.08,1.82-.16,2.65-.24,1.69-.16,3.02-.29,4.07-.3,1.24.02,2.39.47,3.24,1.34s1.32,2.05,1.29,3.26c-.1,4.31-.09,19.49,0,20.86.14,2.44-1.68,4.6-4.12,4.8-.66.06-1.53.14-2.48.22-.2.02-.4.04-.6.06,4.69,2.92,8.4,8.03,8.32,17.34-.13,16.33-8.78,26.38-24.34,28.28-5.11.65-9.5-.18-12.9-1.37-.62.96-1.61,1.68-2.81,1.95-1.64.36-3.55.51-5.23.64-.88.07-1.72.13-2.36.22-.19.03-.39.04-.58.04ZM340.37,64.32c.89,0,1.78.26,2.55.79,1.76,1.2,6.55,3.92,13.11,3.08,11.14-1.36,16.36-7.53,16.46-19.42.09-9.91-5.39-11.21-14.33-12.51-5.35-.78-13.44-1.95-13.36-9.81,0-4.87,3.01-10.43,11.45-11.29,6.24-.61,11.24,2.24,13.74,7.59.44-.04.88-.08,1.32-.12-.01-2.44-.02-5.54,0-8.47-.02.01-.04.02-.07.03-1.61.73-3.5.45-4.83-.72-.85-.75-4.18-3.15-11.26-2.56-6.25.58-18.21,4.89-18.39,17.07-.13,10.53,5.33,11.99,14.25,13.49,5.07.86,12.73,2.15,12.73,9.59,0,4.86-3.14,10.57-10.02,11.6-6.56.93-11.35-1.69-13.63-7.26-.79.05-1.63.11-2.46.17,0,2.64.01,6.24.04,9.66.11-.08.22-.16.34-.23.73-.45,1.55-.67,2.37-.67ZM347.87,50.05c.7,3.81,1.99,4.06,4.55,3.7,1.74-.26,2.18-1.5,2.29-2.26-1.06-.46-3.5-.87-5.19-1.16-.52-.09-1.07-.18-1.64-.28ZM353.8,26.19c1.08.49,3.79.89,5.65,1.16.87.13,1.83.27,2.84.44-.98-3.56-3.04-3.88-5.15-3.68-2.92.3-3.29,1.35-3.34,2.08Z"/>
            <path class="cls-1" d="M388.97,74.14c-3.29,0-6.37-1.15-8.59-3.24-2.34-2.2-3.59-5.29-3.52-8.69.08-3.98,1.64-7.41,4.18-9.81-.31-.59-.5-1.26-.52-1.97-.05-1.57-.59-6.04-1.16-10.78-.51-4.24-1.09-9.04-1.55-13.57,0,0,0-.02,0-.03-.44-4.62-1.1-10.87-1.75-16.91l-.28-2.6c-.26-2.42,1.46-4.6,3.87-4.93,2.86-.39,5.9-.57,9.11-.76,3.19-.19,6.49-.39,9.8-.81,1.35-.17,2.7.28,3.68,1.22.98.94,1.48,2.27,1.37,3.62-.36,4.27-.74,8.08-1.05,11.14-.21,2.11-.38,3.78-.47,4.87,0,.04,0,.07,0,.1-.23,2.26-.72,6.32-1.25,10.62-.83,6.81-1.97,16.13-1.97,18.1,0,.69-.16,1.35-.44,1.94,2.41,2.16,3.9,5.37,3.99,9.18,0,.03,0,.07,0,.1,0,6.81-5.38,12.59-12.24,13.16-.39.03-.78.05-1.17.05ZM390.54,57.75s-.07,0-.1,0c-4.06.06-4.56,3.26-4.59,4.64-.02.86.21,1.5.69,1.95.62.59,1.69.88,2.86.78,2.14-.18,3.96-2.07,3.99-4.15-.04-1.24-.47-3.23-2.84-3.23ZM386.74,25.18c.45,4.44,1.03,9.19,1.53,13.38.33,2.7.62,5.12.84,7.1.34-.02.67-.03,1.01-.06.34-3.45.96-8.58,1.76-15.09.52-4.22,1-8.2,1.22-10.37.09-1.14.26-2.87.48-5.04.17-1.66.36-3.54.55-5.6-1.65.12-3.26.22-4.85.32-1.41.08-2.77.17-4.09.26.58,5.45,1.15,10.91,1.55,15.09Z"/>
          </g>
          <g>
            <path class="cls-2" d="M26.64,53.24c.2-13.69,12.27-20.54,22.52-21.49,8.01-.66,12.58,1.89,14.61,3.67,0-1.76.2-3.24.1-4.11,2.64-.22,5.07-.52,6.39-.53-.1,4.3-.1,19.92,0,21.28-2.23.19-6.8.66-9.03.75-.91-4.22-3.65-8.48-10.14-7.85-4.97.51-7.4,3.15-7.4,6.86-.1,9.97,27.89-1.34,27.69,22.31-.1,12.31-5.48,22.03-20.39,23.85-8.62,1.1-14.71-2.78-16.23-3.83.2,1.45,0,3.71.1,4.48-2.13.47-5.17.53-7.2.79-.1-4.48-.2-21.17-.1-22.64,2.43-.3,8.62-.71,10.24-.75,1.12,6.35,4.67,8.2,9.64,7.5,4.36-.65,6.19-4.22,6.19-7.15,0-9.47-27.28,1.09-26.98-23.15Z"/>
            <path class="cls-2" d="M78.16,41.64c0-3.22-1.93-3.55-3.85-3.49-.1-2.04-.41-6.31-.41-7.48l26.07-1.77c.1,2.63.1,6.24.1,7.51-3.65.5-5.38,1.13-5.48,4.26-.1,3.13.2,26.24.41,30.62.2,4.28,2.43,7.8,7,7.42,4.57-.38,7.41-4.13,7.61-9.12.2-5,.1-27.44,0-30.07-.1-2.53-1.12-3.81-4.06-3.57-.41-2.02-.3-6.71-.3-7.78,5.17-.53,22.21-1.94,23.53-2.05.2,2.33.2,5.84.2,7.11-3.14.65-3.96,2.38-3.85,7.45.3,14.33,0,19.23.1,27.91,0,12.01-6.19,22.97-22.42,24.7-13.19,1.48-23.73-5.75-24.04-20.75-.3-11.98-.51-20.17-.61-30.9Z"/>
            <path class="cls-2" d="M130.2,58.81c-.1-23.32,8.11-33.77,27.89-35.41,7.71-.64,10.04,2,13.59,1.7,1.52-.13,2.33-.88,3.14-1.92,2.03,1.2,3.85,2.61,4.97,3.59-2.23,3.6-10.04,14.3-11.97,16.51-1.83-3.17-5.98-5.17-10.24-4.81-5.48.45-9.33,4.39-9.53,18.36-.2,14.08,5.07,16.76,10.04,16.15,6.29-.62,7.4-6.18,7.3-14.96,1.93-.26,11.56-1.25,14-1.36.41,18.61-4.67,30.26-20.89,31.9-16.74,1.58-28.2-6.74-28.3-29.77Z"/>
            <path class="cls-2" d="M182.34,54.78c.2-21.2,7.71-33.34,27.49-34.98,7.71-.64,10.45,1.58,14,1.28,1.52-.22,2.33-.88,3.14-1.92,2.03,1.1,3.85,2.51,4.97,3.59-2.23,3.5-9.13,12.47-11.06,14.68-2.84-3.08-5.88-4.79-11.26-4.34-5.58.46-10.75,4.5-10.55,19.72.2,14.04,6.19,16.57,11.16,16.16,8.22-.68,9.33-6.44,9.23-15.31,1.93-.16,8.52-.71,10.95-.81.91,19.74-3.75,29.01-20.08,30.56-16.63,1.57-28.2-5.57-27.99-28.63Z"/>
            <path class="cls-2" d="M238.02,31.32c-.1-3.12-1.72-4.35-4.36-4.23-.1-2.92,0-6.74.1-8.89,9.03-.85,44.32-4.06,48.58-4.42.1,7.02.1,19.91.1,21.37-2.74.23-7.2.4-9.33.58,0-6.35-1.01-9.87-6.49-9.42-4.26.35-7.3.61-9.13.85-.1,3.91.1,7.8.1,10.24,0,3.61,2.54,4.28,8.72,4.06v8.69c-4.46.27-8.21,1.56-8.32,5.96-.1,4.4.2,8.87.3,10.91,4.46-.27,5.48-.65,8.72-1.02,3.35-.38,5.68-4.08,5.58-11.4,2.94-.34,7.61-.73,9.53-.89.1,5.07.1,21.18.1,23.32-5.58.76-46.05,4.5-48.69,4.72-.1-2.53,0-7.22,0-8.88,3.45-.29,4.77-2.93,4.77-6.64-.1-3.6-.1-25.96-.3-34.93Z"/>
            <path class="cls-2" d="M329.92,55.34c-.2,13.78-9.03,19.59-21,20.58-8.01.66-13.29-1.24-16.23-2.76,0,1.76-.3,3.34-.1,4.11-2.74.23-5.07.52-6.39.53.1-4.3.1-19.92,0-21.18,2.23-.19,6.09-.7,8.32-.79.91,4.22,2.54,8.48,10.14,7.85,4.87-.4,7.3-3.05,7.4-6.76.3-11.74-26.88-2.36-26.88-24.52,0-10.45,5.68-18.82,20.59-20.65,8.62-1.01,13.69,1.7,15.21,2.74-.2-1.35,0-3.03-.1-3.8,2.13-.47,4.67-.29,6.69-.56.1,4.48.2,20.29.2,21.75-2.54.31-8.22.68-9.84.72-.51-6.79-4.67-8.21-9.63-7.4-4.36.56-6.19,2.47-6.19,5.49,0,9.47,28.1.4,27.79,24.64Z"/>
            <path class="cls-2" d="M332.26,27.91c.2-13.68,12.27-20.54,22.52-21.49,8.01-.66,12.58,1.89,14.61,3.67,0-1.76.2-3.24.1-4.11,2.64-.22,5.07-.52,6.39-.53-.1,4.3-.1,19.92,0,21.28-2.23.19-6.8.66-9.03.75-.91-4.22-3.65-8.48-10.14-7.85-4.97.51-7.4,3.15-7.4,6.86-.1,9.97,27.89-1.34,27.69,22.31-.1,12.31-5.48,22.03-20.39,23.85-8.62,1.1-14.71-2.78-16.23-3.83.2,1.45,0,3.71.1,4.48-2.13.47-5.17.53-7.2.79-.1-4.48-.2-21.17-.1-22.64,2.43-.3,8.62-.71,10.24-.75,1.12,6.35,4.67,8.2,9.64,7.5,4.36-.65,6.19-4.22,6.19-7.15,0-9.47-27.29,1.09-26.98-23.15Z"/>
            <path class="cls-2" d="M382.26,25.62c-.51-5.33-1.32-12.88-2.03-19.55,5.48-.75,12.07-.71,18.87-1.56-.61,7.27-1.32,13.39-1.52,16.04-.61,6.1-3.25,25.65-3.25,29.17-2.84.43-6.49.54-9.33.58-.1-3.21-1.72-14.7-2.74-24.67ZM390.38,53.25c4.56-.09,7.4,3.29,7.51,7.68,0,4.39-3.55,8.3-8.12,8.68-4.56.38-8.52-2.42-8.42-7.31.1-4.89,3.35-8.97,9.03-9.05Z"/>
          </g>
        </g>
      </g>
    </g>
  </g>
</svg>