<?xml version="1.0" encoding="UTF-8"?>
<svg id="Layer_2" data-name="Layer 2" xmlns="http://www.w3.org/2000/svg" viewBox="0 0 509.23 471.42">
  <defs>
    <style>
      .cls-1, .cls-2, .cls-3 {
        stroke-width: 0px;
      }

      .cls-1, .cls-4 {
        fill: #98c5d3;
      }

      .cls-2 {
        fill: #000;
      }

      .cls-4 {
        stroke: #98c5d3;
        stroke-miterlimit: 10;
      }

      .cls-3 {
        fill: #fff;
      }
    </style>
  </defs>
  <g id="Layer_1-2" data-name="Layer 1">
    <g>
      <rect class="cls-3" y="69.58" width="424" height="401.84"/>
      <g>
        <path class="cls-4" d="M505.51,53.82c-2.83-8.23-7.59-15.71-13.7-21.69-.19-.19-.38-.38-.57-.57-.19-.19-.38-.38-.57-.57-.19-.19-.37-.38-.57-.57-.19-.19-.38-.38-.57-.57-.19-.19-.38-.38-.57-.57-.19-.19-.38-.38-.57-.57-.19-.19-.38-.38-.57-.57-.19-.19-.37-.38-.56-.56-.19-.19-.38-.38-.57-.57-.19-.19-.38-.38-.57-.57-.19-.19-.38-.38-.57-.57-.19-.19-.38-.38-.57-.57-.19-.19-.38-.38-.57-.57-.19-.19-.37-.37-.56-.56-.19-.19-.38-.38-.57-.57-.19-.19-.38-.38-.57-.57-.19-.19-.38-.38-.57-.57-.19-.19-.38-.38-.57-.57-.19-.19-.38-.38-.57-.57-.19-.19-.38-.38-.57-.57-.19-.19-.38-.38-.57-.57-.19-.19-.38-.38-.57-.57-.19-.19-.37-.38-.56-.56-2.11-2.13-4.38-4.08-6.81-5.8C455.07,1.24,433.4.41,414.42.58c-16.27.15-33.64.84-50.52,4.89-14.69,3.52-27.41,9.25-37.82,17.03-10.74,8.03-18.25,19.53-21.71,33.27-1.71,6.79-2.34,13.77-1.87,20.75.76,11.33,4.31,21.52,10.26,29.45,1.43,1.91,3.03,3.72,4.79,5.44.19.19.38.38.57.57.19.19.38.38.57.57.19.19.38.38.57.57.19.19.38.38.57.57.19.19.38.38.57.57.19.19.38.38.57.57.19.19.38.38.57.57.19.19.38.38.57.57.19.19.38.38.57.57.19.19.38.38.57.57.19.19.38.38.57.57.19.19.37.38.56.56.19.19.37.38.57.57.19.19.37.38.56.56.19.19.38.38.57.57.19.19.38.38.57.57.19.19.38.38.57.57.19.19.38.38.57.57.19.19.38.38.57.57.19.19.38.38.57.57.19.19.38.38.57.57.19.19.38.38.57.57.19.19.38.38.57.57,2.1,2.12,4.44,4.1,7.01,5.94.04,3.94-.97,8.06-3,11.79-.79,1.45-.72,3.21.18,4.6.24.37.54.7.87.98.17.21.36.4.57.57.17.21.36.39.57.57.17.21.36.4.57.57.17.21.36.39.57.57.17.21.36.4.57.57.17.21.36.4.57.57.17.21.36.4.57.57.17.21.36.39.57.57.17.21.36.4.57.57.17.21.36.4.57.57.17.21.36.4.57.57.17.21.36.4.57.57.17.21.36.4.57.57.17.21.36.39.57.57.17.21.36.4.57.57.17.21.36.4.57.57.17.21.36.39.57.57.17.21.36.4.57.57.17.21.36.39.57.57.17.21.36.4.57.57.17.21.36.39.57.56.17.21.36.4.57.57.17.21.36.4.57.57.85,1.03,2.12,1.64,3.47,1.64.12,0,.24,0,.36-.01,16.78-1.33,23.67-10.16,26.5-17.26,11.33,1.5,23.79,1.66,37.94.48,20.46-1.7,37.28-5.63,51.43-12.02,7.87-3.56,14.25-7.57,19.52-12.27,7.09-6.33,12.74-14.61,16.35-23.94,1.67-4.32,2.89-8.84,3.62-13.42,1.66-10.38.84-20.81-2.38-30.16Z"/>
        <g>
          <path class="cls-1" d="M338.01,148.26c-1.51,0-2.94-.76-3.77-2.05-.9-1.38-.97-3.15-.18-4.6,3.21-5.92,3.87-12.82,1.85-18.4-10.23-4.49-18.19-10.48-23.7-17.82-5.95-7.93-9.5-18.12-10.26-29.45-.47-6.98.16-13.96,1.87-20.75,3.47-13.74,10.97-25.24,21.71-33.27,10.41-7.78,23.13-13.51,37.82-17.03C380.21.86,397.59.17,413.86.02c18.98-.17,40.65.65,57.55,12.71,9.12,6.51,16.2,16.07,19.94,26.93,3.22,9.35,4.04,19.78,2.38,30.16-.73,4.58-1.95,9.09-3.62,13.42-3.6,9.33-9.25,17.6-16.35,23.94-5.26,4.7-11.65,8.71-19.52,12.27-14.15,6.39-30.97,10.32-51.43,12.02-14.15,1.18-26.61,1.02-37.94-.48-2.83,7.1-9.72,15.94-26.5,17.26-.12,0-.24.01-.36.01ZM417.58,9c-1.22,0-2.44,0-3.64.02-15.73.14-32.5.81-48.5,4.64-13.49,3.23-25.11,8.44-34.53,15.48-9.06,6.78-15.42,16.55-18.37,28.26-1.48,5.87-2.03,11.9-1.62,17.94.65,9.59,3.58,18.12,8.49,24.66,4.83,6.44,12.12,11.7,21.66,15.63,1.04.43,1.87,1.22,2.35,2.24,2.87,6.06,3.41,13.15,1.69,20.01,6.6-2.13,10.71-6.47,12.26-12.95.55-2.3,2.77-3.78,5.1-3.4,11.61,1.9,24.57,2.21,39.59.97,19.69-1.64,35.09-5.21,48.47-11.26,7.02-3.17,12.66-6.7,17.23-10.78,6.03-5.39,10.86-12.47,13.95-20.47,1.44-3.74,2.5-7.64,3.13-11.6,1.43-8.93.74-17.85-2-25.81h0c-3.13-9.1-9.04-17.1-16.65-22.53-13.69-9.77-31.96-11.05-48.59-11.05Z"/>
          <path class="cls-3" d="M487.09,41.12c-3.39-9.85-9.81-18.68-18.3-24.73-15.51-11.06-35.84-12.04-54.89-11.87-16.62.15-33.35.89-49.51,4.76-12.91,3.09-25.5,8.27-36.17,16.25-10.13,7.58-16.95,18.5-20.04,30.77-1.59,6.3-2.18,12.86-1.75,19.34.65,9.66,3.57,19.31,9.37,27.05,5.89,7.86,14.42,13.33,23.54,17.09,3.55,7.5,2.64,16.64-1.34,23.97,14.3-1.13,21.49-8.39,23.73-17.79,13.36,2.19,27.16,2.14,40.69,1.01,17.12-1.42,34.29-4.57,49.95-11.64,6.61-2.99,12.96-6.69,18.37-11.52,6.75-6.03,11.88-13.75,15.15-22.2,1.56-4.04,2.69-8.24,3.38-12.51,1.49-9.33.88-19.05-2.19-27.99Z"/>
        </g>
        <g>
          <path class="cls-2" d="M338.67,80.83c-.4,4.33-2.35,7.08-5.99,7.38-5.21.47-8.42-6.49-10.11-12.98-2.36-8.99-4.94-20.56,3.02-21.19,6.85-.55,7.13,10.25,7.72,14.98.45-2.96,1.91-4.66,4.34-4.7,2.38-.03,4.09,2.06,4.77,4.6-.68-8.48.27-16.52,6.78-16.61,7.15-.15,6.6,11.56,5.95,18.62-.73,7.43-3.23,15.91-8.56,16.33-2.64.21-5.85-.86-7.94-6.42ZM322.88,62.47c.47-.04.81-.44.78-.91-.17-1.52.28-3.79,1.64-4.06.42-.09.7-.54.61-1-.09-.42-.48-.71-.95-.61-2.25.45-3.23,3.33-2.98,5.86.04.47.43.76.91.72ZM345.44,60.03c.37-.03.66-.32.74-.7.38-1.94,1.13-3.11,2.42-3.59.47-.14.64-.63.5-1.05s-.63-.64-1.05-.5c-1.85.68-3.05,2.31-3.48,4.84-.16.65.45,1.02.87.99Z"/>
          <path class="cls-2" d="M374.67,79.33c-.35-1.78-.56-3.62-.73-5.09-1.58.18-2.27.18-3.53.28,1.08,9.46-2.38,10.69-4.16,10.94-2.36.35-5.53-.88-6.47-5.32-.92-4.22-1.87-14.07-2.04-20.15-.12-6.14,1.36-8.81,4.93-9.31,2.78-.38,5.09.65,6.03,4.4.39,1.56.66,4.3.98,7.61,1.42-.17,2.26-.23,3.53-.28-.65-8.75,1.24-12.3,4.56-12.57,3.27-.21,4.39.55,5.72,5.16,1.42,5.09,1.54,14.62,1.69,21.08.15,6.51-2.09,8.39-3.87,8.58-2.84.28-5.63-.72-6.63-5.36ZM360.34,58.04c.06.05.11.04.16.04.37-.03.71-.37.74-.75.29-3.05,1.23-3.17,1.91-3.28.47-.04.76-.49.72-.91-.09-.47-.48-.76-.96-.72-1.47.22-3,.93-3.33,4.72-.01.48.28.88.76.89ZM375.83,57.38c.53-.04.77-.38.78-.86.05-2.07.7-3.18,1.96-3.29h.05c.42-.04.76-.44.78-.92-.03-.42-.43-.76-.91-.72-2.27.18-3.51,1.93-3.53,4.95.03.42.39.87.86.83Z"/>
          <path class="cls-2" d="M390.27,56.22c1.04-3.53,2.99-7.08,7.54-7.87,3.87-.63,7.79.6,9.87,5.31,2.14,4.87,5.4,17.81,5.32,21.43-.03,2.23.28,6.82-4.25,7.18-5.32.43-6.76-6.94-7.37-9.28-1.2.25-1.99.32-3.15.36-.5,7.68-3.29,9.87-4.65,10.13-2.66.53-5.26-.11-5.89-3.98-1.3-8.33,1.5-19.74,2.59-23.28ZM393.65,56.7c.99-2.89,2.25-4.37,4.28-4.85.41-.14.7-.59.61-1-.14-.47-.59-.75-1-.61-2.6.63-4.26,2.46-5.46,5.95-.12.43.12.89.56,1.02.11.04.22.04.32.03.32-.03.57-.21.7-.53ZM399.35,64.94c.95-.08,1.6-.55,1.42-1.44-.62-3.08-2.59-2.55-2.98-.19-.24,1.61.61,1.7,1.56,1.62Z"/>
          <path class="cls-2" d="M418.16,76c-.75-3.44-1.19-10.94-1.59-17.85-4.87.18-6.8-1.52-6.98-5.06-.13-2.27,1.12-5.18,4.58-5.78,3.98-.69,8.99-1.04,12.06-1.07,4.08,0,5.94,1.38,6.3,4.48.39,3.58-.64,5.94-5.58,6.44.56,7.01,1.35,14.85,1.27,18.52,0,2.07-1.01,5.28-4.66,5.41-3.97.16-4.71-1.9-5.39-5.08ZM412.19,53.78c.42-.03.76-.43.78-.86-.05-.58.06-1.97,1.78-2.26.47-.09.75-.54.67-.96-.09-.47-.49-.76-.96-.67-2.46.41-3.26,2.38-3.18,3.97.03.42.44.81.91.78Z"/>
          <path class="cls-2" d="M434.65,57.39c-1.19-8.23-.48-11.9,4.53-12.3,5.01-.4,6.44,4.31,6.38,11.42-.05,7.96-.62,11.51-4.57,11.82-3.74.3-5.5-5.08-6.34-10.95ZM436.82,53.34c.47-.04.81-.44.78-.86-.07-.9-.19-3.7,1.07-3.9.47-.04.76-.49.72-.91-.09-.47-.48-.76-.96-.72-1.1.19-2.88,1.13-2.46,5.66.03.42.43.76.85.73ZM440.23,70.1c3.16-.94,5.93,1.8,6.08,4.34.15,2.53-1.31,4.88-3.73,5.12-2.42.25-5.09-.65-5.61-3.21-.47-2.61.42-5.39,3.27-6.25Z"/>
          <path class="cls-2" d="M451.86,63.7c-.57-3.83,1.33-6.63,3.44-8.07,1.05-.77,1.76-1.2,1.81-1.9.09-.91-1.3-1.65-1.89-.43-1.73,3.53-4.65,2.92-5.65,2.36-1.33-.74-2.41-1.61-2.56-4.14-.16-2,.78-7.49,8.53-8.11,3.9-.31,8.81,2.69,9.46,7.46.6,4.14-.8,6.59-1.76,7.83-1.11,1.42-2.95,2.25-2.97,5.33,0,2.76-1.4,3.77-3.45,3.94-1.95.16-4.52-.86-4.96-4.27ZM449.66,52.16c.42-.03.77-.38.73-.85,0-.74.06-3.24,3.59-4.21.47-.09.7-.53.61-1-.14-.41-.59-.7-1-.56-4.88,1.29-4.89,5.11-4.83,5.9.03.42.43.76.91.72ZM456.04,69.47c2.95-.87,5.54,1.68,5.68,4.05.14,2.38-1.17,4.55-3.44,4.78-2.26.23-4.77-.63-5.28-3.02-.46-2.46.39-5.02,3.04-5.81Z"/>
          <path class="cls-2" d="M467.38,54.77c-1.19-8.23-.48-11.9,4.53-12.3,5.01-.4,6.44,4.31,6.38,11.42-.05,7.96-.62,11.51-4.57,11.82-3.74.3-5.5-5.08-6.34-10.95ZM469.55,50.72c.47-.04.81-.44.78-.86-.07-.9-.19-3.7,1.07-3.9.47-.04.76-.49.72-.91-.09-.47-.48-.76-.96-.72-1.1.19-2.88,1.13-2.46,5.66.03.42.43.76.85.73ZM472.96,67.48c3.16-.94,5.93,1.8,6.08,4.34.15,2.53-1.31,4.88-3.73,5.12-2.42.25-5.09-.65-5.61-3.21-.47-2.61.42-5.39,3.27-6.25Z"/>
        </g>
      </g>
    </g>
  </g>
</svg>